<?xml version="1.0" encoding="UTF-8"?>
<!DOCTYPE svg PUBLIC "-//W3C//DTD SVG 1.1//EN" "http://www.w3.org/Graphics/SVG/1.1/DTD/svg11.dtd">
<!-- Creator: CorelDRAW 2018 (64-Bit) -->
<svg xmlns="http://www.w3.org/2000/svg" xml:space="preserve" width="43.4338mm" height="43.4338mm" version="1.1" style="shape-rendering:geometricPrecision; text-rendering:geometricPrecision; image-rendering:optimizeQuality; fill-rule:evenodd; clip-rule:evenodd"
viewBox="0 0 4343.38 4343.38"
 xmlns:xlink="http://www.w3.org/1999/xlink">
 <defs>
  <style type="text/css">
   <![CDATA[
    .str0 {stroke:#2B2A29;stroke-width:84.66;stroke-miterlimit:22.9256}
    .fil1 {fill:none}
    .fil2 {fill:#1D1D1B}
    .fil0 {fill:#2B2A29;fill-rule:nonzero}
   ]]>
  </style>
 </defs>
 <g id="Слой_x0020_1">
  <metadata id="CorelCorpID_0Corel-Layer"/>
  <path class="fil0" d="M943.25 2918.62l-13 16.8c-55.98,72.29 -112.07,144.76 -173.14,224.62l-47.68 63.03 30.96 0.42 99.07 0.33 77.43 0.01 0 -0.17 5.36 0 0 0.17c54.97,-0.01 109.6,-0.02 155.59,0.26 25.23,0.15 51.02,0.41 77.61,0.79 27.49,0.4 55.62,0.94 84.51,1.65l255.7 6.76 57.75 1.25c86.28,1.22 171.48,2.21 256.65,3.18 150.83,1.73 301.67,4.54 452.48,7.62 195.19,4 390.43,8.02 581.5,11.7l134.56 2.35 56.2 0.63 50.64 0.11c24.45,-0.04 65.54,-0.36 106.77,-0.67l0.17 -0.17 0.61 0 0 0.17 55.37 -0.42c154.77,-1.16 309.62,-2.31 465.85,1.64 59.74,1.57 118.15,4.23 177.7,9.39l0.49 0.16c17.48,1.78 34.58,3.59 52.03,5.68l0.33 0.17c26.64,3.36 49.66,7.99 72.62,12.6 3.13,0 12.79,2.58 16.65,3.36 7.2,1.71 14.04,3.55 21.21,5.5l1.65 0.66c10.62,3.38 23.48,7.46 33.38,12.41 7.01,3.36 11.74,5.72 14.38,7.15l0 0.16c4.97,2.71 9.41,5.28 13.24,7.69 4.51,2.83 8.84,5.78 12.94,8.78 4.4,3.22 8.61,6.49 12.52,9.76 3.9,3.26 7.91,6.87 11.97,10.77 4.25,4.08 7.86,7.8 10.81,11.12 2.7,3.04 5.88,6.97 9.49,11.79 2.67,3.38 5.25,7.06 7.8,10.94 4.22,5.85 8.45,12.32 12.65,19.33 4.09,6.81 7.77,13.55 11.02,20.13l0.16 0.16c3.32,6.83 6.52,14.32 9.53,22.35 2.82,7.48 5.38,15.33 7.63,23.43 2.17,7.81 4,15.79 5.48,23.84 1.45,7.94 2.57,16.05 3.3,24.22 0.72,7.88 1.07,15.92 1.06,23.99 -0.01,7.78 -0.36,15.48 -1.01,22.99 -0.23,4.62 -0.72,9.6 -1.41,14.93 -0.74,5.5 -1.54,10.33 -2.4,14.44 -1.06,5.11 -2.35,10.24 -3.84,15.33 -1.64,5.46 -3.3,10.4 -4.98,14.86 -2.12,5.62 -4.15,10.47 -6.02,14.5 -2.38,4.97 -4.79,9.66 -7.23,14.02 -2.58,4.6 -5.46,9.01 -8.25,13.5 -3.18,4.88 -6.11,9.1 -8.74,12.58l-6 7.92c-13.91,11.22 -27.78,22.4 -41.81,33.48l-9.24 4.58c-10.72,5.17 -22.01,9.19 -33.77,12 -11.59,2.77 -23.46,4.25 -35.54,4.42 -5.83,0.08 -11.69,-0.15 -17.5,-0.68 -6.38,-0.57 -12.23,-1.39 -17.51,-2.41 -5.01,-0.97 -10.47,-2.31 -16.36,-4l-0.03 0.11c-4.68,-1.34 -10.02,-3.17 -15.98,-5.47l-7.35 -2.83c-3.68,-1.23 -7.23,-2.38 -11.32,-3.47 -17.02,-2.53 -33.79,-4.33 -50.91,-6.21l-35.28 -2.81c-34.01,-2.11 -67.93,-3.71 -102,-4.63 -23.75,-0.64 -47.03,-1.14 -69.91,-1.51l-69.92 -0.87 -92.07 0.02c-93.02,0.46 -186.38,1.5 -279.76,2.53 -71.11,0.78 -142.2,1.13 -213.32,1.45l-58.28 -0.33 -55.26 -0.53 -68.43 -1.08 -223.06 -3.96c-175.96,-3.1 -351.94,-6.23 -527.9,-9.59l-120.55 -1.83 -199.3 -2.49c-68.87,-0.76 -137.2,-1.52 -194.35,-2.39l-104.84 -1.85c-35.9,-0.73 -71.59,-1.58 -106.89,-2.57l-57.88 -1.45 -65.12 -1.35 -123.11 -1.96 -123.14 -1.06c-90.51,-0.56 -181.04,-0.45 -271.53,-2.57l-30.78 -0.95 -28.89 -1.18c-31.37,-1.62 -62.6,-3.53 -93.97,-5.47 -36.59,-2.46 -73.14,-4.94 -109.75,-7.14l-83.12 -3.88 -11.46 -0.24 -24.46 0.11 -24.26 0.87 -9.09 0.62c-7.8,0.54 -15.7,1.07 -26.07,1.05l-2.31 0c-5.36,-0.3 -10.85,-0.86 -16.38,-1.61l-0.17 0c-5.99,-0.83 -11.49,-1.79 -16.4,-2.85 -5.69,-1.28 -10.96,-2.62 -15.73,-4.03 -5.48,-1.67 -10.68,-3.47 -15.52,-5.36l-0.16 -0.16c-5.86,-2.32 -11.07,-4.65 -15.6,-6.93 -5.55,-2.82 -10.46,-5.58 -14.68,-8.26 -4.04,-2.56 -8.61,-5.86 -13.64,-9.79 -4.68,-3.66 -8.97,-7.36 -12.87,-11.06l-8.11 -8.44c-9.77,-10.19 -20.12,-21.02 -29.45,-33.41l-1.16 -1.49c-3.15,-4.62 -6.19,-9.29 -9.05,-13.97 -2.89,-4.53 -5.5,-9.06 -7.86,-13.5 -1.91,-3.68 -4.18,-8.24 -6.73,-13.65 -2.55,-5.27 -4.74,-10.2 -6.57,-14.72 -1.88,-4.63 -3.73,-9.58 -5.51,-14.82 -1.49,-4.39 -3.01,-9.34 -4.5,-14.76l0 -0.16c-1.46,-5.36 -2.71,-10.29 -3.63,-14.64 -0.8,-3.61 -1.65,-8.27 -2.53,-13.95l-0.13 0.02c-0.82,-4.67 -1.57,-9.86 -2.19,-15.51 -0.54,-4.6 -0.96,-9.92 -1.24,-15.83l-0.26 -11.7 0.14 -9.82c-0.16,-4.35 -0.21,-8.94 -0.12,-13.76 0.1,-6.53 0.32,-11.65 0.63,-15.26l0 -0.17c0.41,-4.71 1.04,-9.81 1.85,-15.2 0.56,-3.73 1.53,-8.99 2.93,-15.84 5.72,-22.22 12.48,-35.79 19.41,-56.57 2.29,-4.94 4.61,-9.95 7.04,-14.8 9.92,-20.58 19.88,-41.21 33.85,-65.49l0 -0.33c27.08,-46.38 55.34,-89.66 85.11,-134.35l0.47 0c7.47,-10.94 15.17,-21.75 22.75,-32.63l0.17 -0.5 18.15 -25.35 0.16 0c90.27,-125.8 185.55,-249.76 280.79,-373.69 0,-0.5 29.93,-38.96 32.96,-42.89l0 -0.33 0.63 -0.81 0.16 0.12c23.17,-30.15 46.31,-60.26 64.47,-84.17l30.24 -40.43 33.55 -45.26 79.26 -108.47 -0.11 -0.08c111.92,-154 223.69,-308.18 335.42,-462.32l30.36 -41.89 0.17 0 145.61 -199.94 0 -0.17c32.27,-43.96 64.52,-87.92 96.93,-131.78 47.31,-64.04 94.9,-128.47 152.44,-206.8 61.21,-84.74 121.81,-169.81 182.65,-254.79l0.16 0c19.5,-27.16 35.67,-49.42 49.55,-68.33 19.22,-26.19 34.15,-46.35 46.16,-62.43 23.83,-31.89 58.56,-77.77 93.59,-124.05 36.52,-48.26 72.99,-96.55 109.31,-144.95l27.59 -37.44 73.53 -101.4 0.17 0c19.17,-26.28 38.36,-52.35 57.73,-78.47l0 -0.55 63.66 -83.42c7.29,-9.76 13.74,-19.29 20.21,-28.83 10.97,-16.21 22.01,-32.51 32.59,-45.43l1.49 -1.65c3.62,-3.99 7.51,-7.96 11.61,-11.82 4.1,-3.86 8.24,-7.46 12.37,-10.74l11.62 -9.26 1.35 0 1.27 -0.83c5.02,-3.24 9.96,-6.12 14.78,-8.56 5.32,-2.69 10.85,-5.08 16.55,-7.16 5.59,-2.1 11.44,-3.83 17.44,-5.2 5.72,-1.31 11.79,-2.29 18.2,-2.89l0.17 0c6.02,-0.55 12.12,-0.75 18.22,-0.55l0.17 0c8.53,0.32 19.01,1.22 29.01,2.59l0.17 0c8.93,1.24 18.26,3.01 26.7,5.3l1.82 0.5c5.4,1.73 10.32,3.47 14.68,5.18 4.86,1.9 9.71,4 14.47,6.21l0.17 0.16c4.73,2.21 9.34,4.55 13.81,6.98 5.03,2.73 9.37,5.24 13.06,7.5l0.66 0.33c3.85,2.44 8.19,5.44 12.92,8.91 4.49,3.29 8.7,6.59 12.59,9.85 3.63,3.04 7.54,6.55 11.69,10.49 3.87,3.68 7.59,7.44 11.1,11.21l-0.09 0.09c4.03,4.18 7.27,7.69 9.66,10.46 3.61,4.17 6.81,8.09 9.63,11.76 3.39,4.42 6.43,8.62 9.07,12.54 2.73,4.04 5.57,8.52 8.49,13.44l-0.13 0.07c2.96,4.98 5.57,9.59 7.76,13.77 2.57,4.73 4.85,9.33 6.84,13.7 1.86,3.86 3.9,8.73 6.12,14.43l0 0.17c1.95,5.02 3.83,10.21 5.62,15.53l0.66 1.82c3.89,13.62 6.37,29.07 8.71,43.66l1.9 11.6c0.55,4.94 0.89,10.55 0.99,16.79 0.12,6.42 -0.03,11.97 -0.4,16.63 -0.37,4.72 -1.17,10.33 -2.32,16.71l0 0.17c-1.01,5.55 -2.29,11.12 -3.8,16.6l0 0.17c-1.31,4.68 -3.05,9.9 -5.18,15.6l-2.23 5.69 0 0.8 -4.13 8.77c-2.49,5.31 -5.02,10.21 -7.5,14.62 -2.49,4.56 -5.35,9.19 -8.46,13.86l-1.49 1.99c-6.75,8.98 -11.76,14.75 -16.7,20.42l-0.08 -0.07 -5.96 6.9c-10.46,12.68 -20.1,25.03 -30.02,38.13l-6.73 9.29c-20.9,30.13 -41.48,60.54 -62.01,90.93 -26.73,40.44 -53.21,80.93 -80.04,121.3l-17.86 26.45 -16.54 23.86 -34.95 48.97 -35.43 47.97 0 0.17 -109.18 146.16 -73.43 98.62c-37.11,50.6 -74.04,101.3 -110.93,152.06l-33.81 47.12c-24.41,34.22 -44.84,62.61 -62.41,86.85l-61.75 84.63c-29.99,40.93 -73.67,99.99 -117.5,159.26l-116.13 157.6 -71.23 97.18c-48.41,66.65 -181.4,249.03 -314.37,431.37l-168.42 230.94 -32.99 44.38 0.11 0.08 -35.1 46.59 -39.48 51.93 -74.86 97.42zm-79.8 -34.78l52.21 -67.71 35.31 -46.19 39.16 -51.59 34.76 -46.27 0.17 0 32.39 -43.8 40.33 -54.92 128.09 -175.68c76.64,-105.1 153.3,-210.23 314.06,-431.35l71.54 -97.54 116.45 -157.92c39.1,-52.88 77.91,-105.35 117.18,-158.94l61.41 -84.29c23.68,-32.67 44.76,-61.91 62.09,-86.19l72.45 -100.5c48.63,-66.57 97.52,-132.62 146.7,-198.79l0 -0.17 128.61 -172.24 32.3 -44.49 17.33 -24.56 15.88 -22.86 17.54 -25.79 34.05 -51.41c7.51,-11.23 18.83,-28.53 33.77,-51.43 22.17,-33.49 44.74,-66.52 67.38,-99.71l8.17 -11.66 16.3 -22.09 7.89 -10.17c7.76,-9.59 15.5,-19.09 23.56,-28.44l0 -0.17c4.55,-5.22 9.11,-10.47 11.88,-13.94 1.6,-2.44 3.25,-5.15 4.9,-8.08l3.14 -5.68 1.65 -3.51c1.37,-2.92 2.62,-5.88 3.72,-8.82 0.9,-2.4 1.86,-5.42 2.86,-8.98 0.91,-3.16 1.63,-6.25 2.16,-9.17 0.4,-2.08 0.73,-4.83 1,-8.28 0.29,-3.68 0.43,-6.63 0.4,-8.69 -0.03,-2.15 -0.25,-5.01 -0.63,-8.47l-1.25 -7.85c-1.82,-11.33 -3.75,-23.36 -6.76,-33.91l-3.56 -9.92 -4.32 -9.97c-1.54,-3.4 -3.11,-6.61 -4.67,-9.58l0 -0.17c-1.97,-3.76 -3.84,-7.11 -5.55,-9.99l-0.17 0c-1.7,-2.87 -3.67,-5.94 -5.83,-9.14 -2.28,-3.38 -4.33,-6.26 -6.11,-8.58l-6.31 -7.8 -6.93 -7.73 -0.66 -0.5c-2.55,-2.74 -5.05,-5.28 -7.46,-7.57 -2.22,-2.11 -4.82,-4.41 -7.73,-6.85 -2.96,-2.48 -5.74,-4.68 -8.29,-6.55 -2.23,-1.63 -4.99,-3.51 -8.28,-5.59 -3.39,-2.14 -6.37,-3.89 -8.76,-5.19 -3.03,-1.64 -6.05,-3.19 -8.99,-4.57l-9.88 -4.16 -9.23 -3.36c-3.93,-0.97 -9.17,-1.88 -14.79,-2.66 -7.61,-1.06 -14.99,-1.72 -20.58,-1.93 -2.6,-0.08 -5.18,0 -7.64,0.22 -2.19,0.21 -4.63,0.64 -7.28,1.24 -2.28,0.52 -4.71,1.25 -7.22,2.17l-0.16 0c-2.36,0.86 -4.86,1.95 -7.43,3.25 -2.4,1.21 -4.69,2.54 -6.86,3.94 -2.17,1.41 -4.68,3.24 -7.46,5.45l-3.67 2.91 -3.56 3.21 -5.69 5.77c-10.22,12.51 -19.19,25.74 -28.1,38.91 -7.71,11.37 -15.43,22.78 -22.52,32.29 -24.13,36.56 -62.62,82.51 -90.17,119.65l-30.51 41.55 0.11 0.08 -73.87 101.4c-15.58,21.34 -29.75,40.62 -40.86,55.47l-12.75 17.03 -0.2 0c-27.88,37.13 -55.72,74.17 -83.75,111.21 -31.13,41.13 -62.14,82.09 -93.25,123.73 -17.77,23.78 -33.41,44.83 -45.84,61.77 -17.75,24.18 -34.39,47.02 -49.16,67.59l0.11 0.08c-38.43,53.68 -137.68,209.77 -183.17,255.26 -43.95,59.84 -98.31,133.42 -152.9,207.31l-23.62 31.96 -72.99 99.5 -145.55 199.69 0.11 0.08 -30.36 41.89c-111.73,154.14 -223.5,308.32 -335.42,462.32l-0.17 0 -79.32 108.72 0 0.17 -33.87 45.92 -30.9 40.75 -64.97 84.72 0 0.33 -0.63 0.81 -0.16 -0.12 -32.8 42.84c-93.46,121.46 -186.9,243.01 -279.08,371.47l0.11 0.08 -18.15 25.35 -0.12 -0.09 -17.05 24.45c-11.41,16.81 -22.86,33.58 -34.12,50.49l-13.86 21.49 -13.18 20.91 -12.85 21.15 -13.02 22.46 -0.14 -0.08c-11.16,19.42 -20.82,39.37 -30.41,59.28 -2.19,5.68 -6.08,12.77 -8.74,18.64l-4.28 10.85c-4.51,12.74 -6.85,20.92 -9.08,34.24 -0.5,3.34 -0.91,6.66 -1.19,9.92l-0.63 9.47c-0.05,3.04 0.02,6.6 0.19,10.51l-0.21 11.75 0.26 7.74c0.12,2.64 0.43,6.04 0.9,10.19l0 0.17c0.32,2.87 0.85,6.37 1.55,10.38l0 0.83 1.97 10.31c0.81,3.87 1.59,7.05 2.3,9.68l3.22 10.11c1.02,3.01 2.32,6.44 3.85,10.2 1.65,4.06 3.17,7.56 4.53,10.45 0,0.28 4.73,9.58 5.13,9.98 1.45,2.72 3.17,5.7 5.14,8.91l0 0.17c1.92,3.13 4.21,6.64 6.81,10.45 5.74,7.36 14.02,15.99 21.84,24.15l5.99 6.28c2.11,1.98 4.1,3.69 5.9,5.11 1.65,1.29 3.99,2.9 7.02,4.83 2.78,1.76 5.27,3.21 7.42,4.3 3.11,1.57 5.95,2.87 8.45,3.87 3.11,1.12 6.06,2.16 8.77,2.96l0.16 0c3.38,1 6.44,1.81 9.12,2.37l0.33 0c3.99,0.86 7.36,1.49 10.12,1.87 3.04,0.44 6.14,0.75 9.24,0.93 4.94,-0.1 11.74,-0.56 18.49,-1.02 21.06,0 42.52,-1.67 64.09,-1.61l13.12 0.24 14.22 0.52c40.26,1.9 80.02,3.86 120.21,6.33l61.42 4.17 61.61 3.83c19.69,1.05 39.23,1.99 58.93,2.82l29.78 0.95 29.11 0.69 58.67 0.75c143.19,0.89 286.17,1.68 429.34,4.15l65.46 1.35 58.54 1.45c36.56,1.02 71.87,1.87 106.23,2.57l104.18 1.85c58.07,0.88 125.76,1.64 194.01,2.39 66.55,0.72 133.09,1.65 199.64,2.49l120.87 1.83c175.96,3.36 351.94,6.49 527.9,9.59l291.17 5.04 54.6 0.53 122.93 0.04c49.23,-0.28 98.45,-0.62 147.67,-1.16 93.24,-1.02 186.47,-2.06 280.08,-2.53 54.73,0 108.94,0.18 163.65,0.85l29.57 0.54 0.03 -0.54 106.32 3.39 -0.03 0.52c19.81,1.01 39.51,2.2 59.3,3.58 22.74,2.16 59.44,4.22 80.07,9.45 4.83,1.21 9.56,2.66 14.46,4.26l1.41 0 14.91 5.88c2.07,0.85 4.95,1.78 8.53,2.81l0.17 0.17c2.4,0.69 5.4,1.39 8.96,2.08 3.66,0.71 6.77,1.19 9.23,1.41 3.04,0.28 6.03,0.39 8.9,0.36 5.77,-0.08 11.46,-0.8 17.02,-2.12 5.3,-1.26 10.78,-3.25 16.35,-5.92l0.53 -0.27 26.14 -20.87c2.14,-2.84 3.91,-5.32 5.28,-7.44 1.38,-2.13 3.12,-5.05 5.18,-8.74 0.71,-1.28 4.36,-7.98 4.36,-8.54 1.65,-3.56 2.9,-6.42 3.7,-8.54 1.27,-3.36 2.3,-6.33 3,-8.75l0 -0.17c0.84,-2.87 1.58,-5.8 2.18,-8.71 0.66,-3.15 1.15,-5.84 1.42,-7.99l0 -0.17c0.31,-2.43 0.59,-5.45 0.79,-8.97l0.16 -1.32c0.52,-5.68 0.81,-11.3 0.81,-16.71 0,-5.4 -0.24,-10.9 -0.74,-16.39 -0.48,-5.32 -1.26,-10.89 -2.3,-16.6 -0.99,-5.39 -2.28,-10.95 -3.84,-16.58 -1.46,-5.25 -3.24,-10.65 -5.31,-16.15 -1.75,-4.68 -3.95,-9.72 -6.55,-15.07 -2.37,-4.94 -4.91,-9.64 -7.54,-14.01 -2.43,-4.06 -5.45,-8.57 -9.01,-13.49l-1.32 -1.98c-1.54,-2.39 -3.25,-4.83 -5.08,-7.26l0 -0.16c-1.1,-1.47 -2.89,-3.59 -5.27,-6.27 -2.23,-2.5 -4.31,-4.7 -6.19,-6.5 -2,-1.92 -4.58,-4.21 -7.67,-6.79 -2.9,-2.43 -5.66,-4.59 -8.22,-6.46 -2.82,-2.06 -5.5,-3.91 -7.98,-5.46 -2.91,-1.83 -5.76,-3.5 -8.53,-5.01l-0.07 0.12 -9.76 -5.17c-6.85,-3.07 -14.28,-5.62 -21.44,-7.89l-0.03 0.12c-7.73,-2.1 -15.25,-4.12 -23,-6l-9.73 -1.86c-21.15,-4.34 -42.41,-8.61 -65.83,-11.58l-0.01 0.13 -25.77 -3.09 -24.1 -2.54 -0.01 0.11 -25.6 -2.22 -25 -1.92 -30.34 -1.86 -60.79 -2.57 -30.67 -0.82c-155.72,-3.94 -309.66,-2.79 -463.53,-1.64l-55.54 0.42 -0.17 0.17 -0.61 0 0 -0.17c-41.11,0.3 -82.05,0.62 -106.94,0.67l-50.98 -0.11 -57.18 -0.63 -179.25 -2.95 0.02 -0.26c-181.23,-3.53 -359.23,-7.19 -537.17,-10.84l-288.25 -5.36 -163.23 -2.26c-86.15,-0.98 -172.32,-1.98 -257.32,-3.18 -103.46,0 -210.78,-5.28 -314.1,-8.01 -29.87,-0.74 -57.53,-1.28 -83.53,-1.65 -26.92,-0.39 -52.44,-0.65 -76.95,-0.79 -45.98,-0.27 -100.45,-0.26 -155.25,-0.26l0 0.17 -5.36 0 0 -0.17 -77.43 -0.01 -55.65 -0.21 -0.13 0.18 -21.83 -0.12c-19.66,-0.11 -41.4,-0.4 -64.17,-0.77l-153.14 -2.99c32.05,-43.61 110.34,-158.14 145.29,-195.27 53.93,-70.52 113.7,-147.73 173.62,-225.12z"/>
  <path class="fil1 str0" d="M1383.81 2267.69c302.3,112.13 517.72,403.14 517.72,744.44 0,95.1 -16.73,186.31 -47.4,270.81m-617.75 -779.15c227.34,57.34 395.63,263.19 395.63,508.34 0,93.46 -24.47,181.2 -67.32,257.18"/>
  <path class="fil2" d="M2598.78 550.65c-43.62,1.21 -84.53,17.75 -127.01,26.66 -52.32,10.98 -105.56,16.39 -158.88,18.89 -24.23,1.14 -24.16,36.28 0,37.56 89.89,4.85 218.68,5.42 295.23,-48.61 14.04,-9.91 10.33,-34.99 -9.34,-34.5z"/>
  <path class="fil2" d="M2425.24 799.14c-43.62,-1.21 -84.53,-17.75 -127.01,-26.66 -52.32,-10.98 -105.56,-16.39 -158.88,-18.89 -24.23,-1.14 -24.16,-36.28 0,-37.56 89.89,-4.85 218.68,-5.42 295.23,48.61 14.04,9.91 10.33,34.99 -9.34,34.5z"/>
  <path class="fil2" d="M2045.25 956.21c43.62,-1.21 84.53,-17.75 127.01,-26.66 52.32,-10.98 105.56,-16.39 158.88,-18.89 24.23,-1.14 24.16,-36.28 0,-37.56 -89.89,-4.85 -218.68,-5.42 -295.23,48.61 -14.04,9.91 -10.33,34.99 9.34,34.5z"/>
  <path class="fil2" d="M2237.76 1113.28c-43.62,-1.21 -84.53,-17.75 -127.01,-26.66 -52.32,-10.98 -105.56,-16.39 -158.88,-18.89 -24.23,-1.14 -24.16,-36.28 0,-37.56 89.89,-4.85 218.68,-5.42 295.23,48.61 14.04,9.91 10.33,34.99 -9.34,34.5z"/>
  <path class="fil2" d="M1294.89 2322.9c-43.62,-1.21 -84.53,-17.75 -127.01,-26.66 -52.32,-10.98 -105.56,-16.39 -158.88,-18.89 -24.23,-1.14 -24.16,-36.28 0,-37.56 89.89,-4.85 218.68,-5.42 295.23,48.61 14.04,9.91 10.33,34.99 -9.34,34.5z"/>
  <path class="fil2" d="M2144.05 1270.35c-43.62,-1.21 -84.53,-17.75 -127.01,-26.66 -52.32,-10.98 -105.56,-16.39 -158.88,-18.89 -24.23,-1.14 -24.16,-36.28 0,-37.56 89.89,-4.85 218.68,-5.42 295.23,48.61 14.04,9.91 10.33,34.99 -9.34,34.5z"/>
  <path class="fil2" d="M1201.18 2479.97c-43.62,-1.21 -84.53,-17.75 -127.01,-26.66 -52.32,-10.98 -105.56,-16.39 -158.88,-18.89 -24.23,-1.14 -24.16,-36.28 0,-37.56 89.89,-4.85 218.68,-5.42 295.23,48.61 14.04,9.91 10.33,34.99 -9.34,34.5z"/>
  <path class="fil2" d="M947.43 2806.38c-43.62,-1.21 -84.53,-17.75 -127.01,-26.66 -52.32,-10.98 -105.56,-16.39 -158.88,-18.89 -24.23,-1.14 -24.16,-36.28 0,-37.56 89.89,-4.85 218.68,-5.42 295.23,48.61 14.04,9.91 10.33,34.99 -9.34,34.5z"/>
  <path class="fil2" d="M1964.62 1369.16c-43.62,0.77 -84.53,11.27 -127.01,16.92 -52.32,6.97 -105.56,10.41 -158.88,12 -24.23,0.72 -24.16,23.03 0,23.85 89.89,3.07 218.68,3.44 295.23,-30.87 14.04,-6.29 10.33,-22.22 -9.34,-21.9z"/>
  <path class="fil2" d="M1116.15 2594.08c-43.62,0.77 -84.53,11.27 -127.01,16.92 -52.32,6.97 -105.56,10.41 -158.88,12 -24.23,0.72 -24.16,23.03 0,23.85 89.89,3.07 218.68,3.44 295.23,-30.87 14.04,-6.29 10.33,-22.22 -9.34,-21.9z"/>
  <path class="fil2" d="M863.43 2949.64c-43.62,0.77 -84.53,11.27 -127.01,16.92 -52.32,6.97 -105.56,10.41 -158.88,12 -24.23,0.72 -24.16,23.03 0,23.85 89.89,3.07 218.68,3.44 295.23,-30.87 14.04,-6.29 10.33,-22.22 -9.34,-21.9z"/>
  <path class="fil2" d="M608.27 3245.48c-43.62,0.77 -84.53,11.27 -127.01,16.92 -52.32,6.97 -105.56,10.41 -158.88,12 -24.23,0.72 -24.16,23.03 0,23.85 89.89,3.07 218.68,3.44 295.23,-30.87 14.04,-6.29 10.33,-22.22 -9.34,-21.9z"/>
  <path class="fil2" d="M1427.01 2136.38c-43.62,0.77 -84.53,11.27 -127.01,16.92 -52.32,6.97 -105.56,10.41 -158.88,12 -24.23,0.72 -24.16,23.03 0,23.85 89.89,3.07 218.68,3.44 295.23,-30.87 14.04,-6.29 10.33,-22.22 -9.34,-21.9z"/>
  <path class="fil2" d="M1853.86 1553.36c-43.62,1.13 -84.53,16.57 -127.01,24.89 -52.32,10.26 -105.56,15.31 -158.88,17.64 -24.23,1.06 -24.16,33.88 0,35.08 89.89,4.52 218.68,5.06 295.23,-45.39 14.04,-9.26 10.33,-32.68 -9.34,-32.22z"/>
  <path class="fil2" d="M1532.03 1976.98c-43.62,1.13 -84.53,16.57 -127.01,24.89 -52.32,10.26 -105.56,15.31 -158.88,17.64 -24.23,1.06 -24.16,33.88 0,35.08 89.89,4.52 218.68,5.06 295.23,-45.39 14.04,-9.26 10.33,-32.68 -9.34,-32.22z"/>
  <path class="fil2" d="M1753.15 1722.06c-43.62,0.62 -84.53,9.11 -127.01,13.68 -52.32,5.64 -105.56,8.42 -158.88,9.7 -24.23,0.58 -24.16,18.63 0,19.29 89.89,2.48 218.68,2.78 295.23,-24.96 14.04,-5.09 10.33,-17.97 -9.34,-17.71z"/>
  <path class="fil2" d="M1366.2 1865.52c43.62,0.66 84.53,9.63 127.01,14.46 52.32,5.95 105.56,8.88 158.88,10.24 24.23,0.61 24.16,19.67 0,20.36 -89.89,2.63 -218.68,2.94 -295.23,-26.35 -14.04,-5.37 -10.33,-18.98 9.34,-18.71z"/>
  <rect class="fil1" x="-0.77" y="-6.34" width="4368.92" height="4369.1"/>
 </g>
</svg>
