<?xml version="1.0" encoding="UTF-8"?>
<!DOCTYPE svg PUBLIC "-//W3C//DTD SVG 1.1//EN" "http://www.w3.org/Graphics/SVG/1.1/DTD/svg11.dtd">
<!-- Creator: CorelDRAW 2018 (64-Bit) -->
<svg xmlns="http://www.w3.org/2000/svg" xml:space="preserve" width="43.4338mm" height="43.4338mm" version="1.1" style="shape-rendering:geometricPrecision; text-rendering:geometricPrecision; image-rendering:optimizeQuality; fill-rule:evenodd; clip-rule:evenodd"
viewBox="0 0 4343.38 4343.38"
 xmlns:xlink="http://www.w3.org/1999/xlink">
 <defs>
  <style type="text/css">
   <![CDATA[
    .fil1 {fill:none}
    .fil0 {fill:#434242;fill-rule:nonzero}
   ]]>
  </style>
 </defs>
 <g id="Слой_x0020_1">
  <metadata id="CorelCorpID_0Corel-Layer"/>
  <path class="fil0" d="M176.83 3883.79c0.88,-3.28 1.82,-6.27 2.82,-9.09 76.48,3.98 153.02,7.06 229.62,8.36 117.76,1.97 235.47,-0.46 353.2,-2.76 101.61,-2.05 203.25,-3.26 304.87,-4.88 81.39,-1.27 162.78,-2.82 244.17,-4.35 93.83,-1.84 187.68,-2.91 281.43,-5.64 163.9,-4.7 836.43,-9.35 1244.52,-13.63l60.73 1c101.72,1.62 203.45,2.87 305.16,4.9 41.82,0.82 83.62,1.64 125.45,2.3l33.31 2.08c99.43,6.05 199.07,10.42 298.63,13.72l0.67 3.17 81.38 0 0.04 -0.66 2.1 0.06 0.01 0.6 23.07 0c13,0.32 26.01,0.64 39.02,0.9l0 -135.14 -4.27 -0.82c-2.61,-76.29 -5.96,-152.6 -10.32,-228.77 -5.09,-88.54 -8.38,-177.2 -12.5,-265.81 -1.25,-26.64 -1.38,-53.29 -1.74,-79.97 -0.8,-61.32 -1.64,-122.6 -2.46,-183.93 -0.32,-25.11 -0.8,-50.22 -0.55,-75.33 0.55,-55.61 1.14,-111.22 1.71,-166.83 0.78,-76.51 1.71,-152.96 3.53,-229.46 4.52,-192.44 9.59,-384.84 14.83,-577.25 2.28,-83.66 3.2,-167.42 4.73,-251.11 1.3,-72.63 2.59,-145.26 3.66,-217.88 1.36,-90.68 2.41,-181.36 4.13,-272.04 1.93,-105.05 3.98,-210.07 2.32,-315.14 -0.56,-34.99 -1.53,-69.96 -2.77,-104.93l0.2 -0.01 0 -77 -3.4 -0.25 -0.78 -16.54 -112.84 0c-0.88,3.28 -1.82,6.27 -2.83,9.09 -76.47,-3.98 -153.01,-7.06 -229.61,-8.37 -117.76,-1.96 -235.47,0.47 -353.2,2.77 -101.62,2.05 -203.25,3.25 -304.88,4.88 -81.38,1.27 -162.78,2.82 -244.17,4.35 -93.82,1.84 -187.67,2.91 -281.42,5.63 -163.9,4.71 -836.43,9.36 -1244.52,13.64l-60.73 -1c-101.72,-1.62 -203.45,-2.87 -305.17,-4.9 -41.82,-0.82 -83.61,-1.64 -125.44,-2.3l-33.32 -2.08c-99.42,-6.05 -199.06,-10.42 -298.62,-13.72l-0.67 -3.18 -81.38 0 -0.04 0.67 -2.1 -0.06 -0.01 -0.61 -23.07 0c-13.01,-0.32 -26.01,-0.63 -39.02,-0.9l0 135.15 4.27 0.82c2.61,76.29 5.96,152.6 10.32,228.76 5.09,88.55 8.38,177.21 12.5,265.82 1.25,26.64 1.38,53.29 1.74,79.97 0.8,61.32 1.64,122.6 2.46,183.93 0.32,25.11 0.79,50.22 0.55,75.32 -0.55,55.61 -1.14,111.23 -1.72,166.84 -0.78,76.51 -1.7,152.96 -3.53,229.46 -4.51,192.43 -9.59,384.84 -14.82,577.25 -2.28,83.66 -3.2,167.42 -4.74,251.11 -1.29,72.63 -2.58,145.26 -3.65,217.88 -1.36,90.67 -2.42,181.36 -4.13,272.03 -1.93,105.06 -3.98,210.08 -2.32,315.15 0.56,34.99 1.53,69.96 2.77,104.93l-0.2 0 0 77.01 3.39 0.25 0.79 16.54 112.84 0zm3461.22 -161.93c-163.55,-14.75 -416.93,-21.33 -836.36,-6.79 -96.97,3.32 -193.91,7.54 -290.91,9.86 -122.18,2.94 -244.35,5.86 -366.51,8.8 -24.86,0.59 -49.75,0.75 -74.61,1.04 -68.5,0.66 -137.02,1.37 -205.51,2.08 -51.32,0.5 -102.64,1.04 -153.92,1.57 -29.47,0.27 -58.92,-0.19 -88.4,-0.32 -116.34,-0.48 -232.71,-1.03 -349.06,-1.5 -34.67,-0.14 -69.4,-1.31 -104.09,-1.99 -71.12,-1.36 -142.26,-2.78 -213.46,-4.19 -87.91,-1.71 -175.81,-4.12 -263.75,-6.58 -177.92,-1.98 -271.01,6.13 -325.25,17.47 -58.39,4.43 -106.41,9.87 -146.8,15.83 7.23,-50.72 11.89,-130.66 10.47,-264.54 -0.75,-28.43 3.28,-56.86 -2.2,-85.24 -2.69,-14 -19.77,-16.6 -41.08,-17.25l-0.02 -12.54c19.13,-6.62 36.65,-29.11 32.36,-77.42 0.6,-61 1.2,-973.83 1.74,-1034.83 0.25,-22.13 0.38,-44.3 0.87,-66.43 2.5,-108.78 4.95,-217.57 7.44,-326.37 1.93,-86.39 5.48,-172.72 8.3,-259.07 12.98,-395.65 5.99,-625.39 -8.01,-769.86 163.55,14.75 416.93,21.33 836.36,6.79 96.97,-3.32 193.91,-7.54 290.91,-9.86 122.18,-2.94 244.35,-5.86 366.51,-8.81 24.85,-0.58 49.74,-0.74 74.61,-1.03 68.49,-0.66 137.01,-1.37 205.51,-2.09 51.31,-0.49 102.64,-1.03 153.92,-1.56 29.46,-0.27 58.92,0.19 88.39,0.32 116.35,0.48 232.72,1.03 349.06,1.49 34.68,0.15 69.41,1.32 104.1,2 71.12,1.36 142.26,2.78 213.46,4.19 87.91,1.71 175.8,4.12 263.75,6.58 177.92,1.98 271.01,-6.13 325.24,-17.47 58.39,-4.44 106.42,-9.87 146.81,-15.83 -7.23,50.72 -11.89,130.66 -10.47,264.54 0.74,28.43 -3.28,56.86 2.2,85.24 2.69,14 19.77,16.6 41.08,17.25l0.02 12.54c-19.13,6.62 -36.65,29.11 -32.36,77.42 -0.61,60.99 -1.2,973.83 -1.75,1034.82 -0.25,22.14 -0.37,44.31 -0.87,66.44 -2.49,108.77 -4.94,217.57 -7.43,326.37 -1.93,86.39 -5.48,172.71 -8.31,259.07 -12.96,395.65 -5.98,625.39 8.02,769.86z"/>
  <path class="fil0" d="M3309.48 377.83c-52.73,-5.57 -24.91,-19.36 -336,-18.06 -24.42,0.26 -48.83,-1.11 -73.21,0.75 -12.03,0.92 -14.26,6.73 -14.82,13.98l-10.77 0.01c-5.68,-6.51 -25.01,-12.47 -66.49,-11.01 -52.4,-0.21 -836.44,-0.41 -888.83,-0.6 -19.01,-0.08 -38.05,-0.12 -57.07,-0.29 -93.42,-0.85 -186.87,-1.68 -280.31,-2.53 -74.2,-0.66 -148.35,-1.87 -222.52,-2.83 -501.66,-6.52 -692.82,1.77 -796.19,10.68l0 27.7 19.48 0.45c-5.56,0.11 -11.92,0.21 -19.48,0.28l0 21.02c20.89,-0.19 41.78,-0.42 62.66,-0.67 83.29,-0.97 166.67,-2.3 249.83,-4.18 76.06,-1.74 152.21,-2.86 228.32,-4.26 22.88,-0.42 45.77,-0.47 68.69,-0.59 52.66,-0.27 105.3,-0.56 157.97,-0.84 21.58,-0.11 43.14,-0.27 64.7,-0.18 47.77,0.18 95.53,0.38 143.3,0.58 65.72,0.26 131.38,0.58 197.08,1.2 165.29,1.54 330.55,3.27 495.81,5.05 71.86,0.77 143.8,1.09 215.68,1.61 62.39,0.44 124.77,0.88 187.14,1.24 77.88,0.46 155.77,0.82 233.66,1.41 90.23,0.65 180.43,1.35 270.68,0.79 56.94,-0.37 113.84,-1.21 170.69,-2.3l0 -38.41z"/>
  <path class="fil0" d="M2946.82 963.26c-51.89,39.5 -66.75,-13.21 -286.58,284.95 -16.87,23.69 -37.84,44.29 -50.61,71.01 -6.31,13.18 6.76,26.37 24.68,40.72l-7.72 10.25c-20.51,-6.99 -49.42,0.01 -75.49,42.22 -38.1,49.41 -600.92,794.22 -638.97,843.66 -13.84,17.91 -27.61,35.93 -41.67,53.68 -69.15,87.18 -138.27,174.4 -207.43,261.6 -54.88,69.28 -111.11,137.45 -166.73,206.11 -376.25,464.39 -492.42,661.88 -544.06,777.1l69.93 52.77 15.11 -17.65c-3.69,5.49 -8.01,11.73 -13.26,19.04l53.09 40.06c14.49,-20.23 28.88,-40.52 43.24,-60.84 57.28,-81.01 113.73,-162.78 168.61,-245.43 50.17,-75.58 101.96,-150.1 153,-225.11 15.35,-22.55 31.65,-44.39 47.78,-66.41 37.08,-50.58 74.11,-101.15 111.18,-151.74 15.2,-20.72 30.26,-41.52 45.93,-61.86 34.73,-45.04 69.5,-90.06 104.25,-135.08 47.8,-61.96 95.69,-123.77 144.38,-185.03 122.42,-154.17 245.31,-307.95 368.33,-461.63 53.5,-66.83 105.89,-134.6 158.76,-201.93 45.85,-58.45 91.71,-116.9 137.36,-175.49 57.02,-73.15 113.79,-146.5 171.12,-219.41 66.38,-84.51 132.83,-168.92 196.13,-255.77 39.92,-54.81 78.59,-110.5 116.62,-166.61l-96.98 -73.18z"/>
  <path class="fil0" d="M2386.51 1013.13c-50.47,38.42 -64.93,-12.85 -278.77,277.18 -16.4,23.05 -36.8,43.09 -49.23,69.08 -6.14,12.82 6.58,25.65 24.01,39.61l-7.5 9.97c-19.96,-6.8 -48.08,0.01 -73.45,41.07 -37.05,48.06 -584.54,772.58 -621.55,820.67 -13.47,17.43 -26.86,34.95 -40.53,52.22 -67.27,84.8 -134.51,169.65 -201.79,254.47 -53.38,67.39 -108.08,133.7 -162.18,200.49 -366,451.74 -479,643.85 -529.24,755.93l68.03 51.33 14.7 -17.17c-3.6,5.34 -7.8,11.41 -12.9,18.53l51.64 38.97c14.09,-19.69 28.1,-39.42 42.06,-59.18 55.72,-78.81 110.64,-158.36 164.02,-238.75 48.8,-73.53 99.18,-146.01 148.83,-218.98 14.93,-21.93 30.79,-43.18 46.48,-64.6 36.06,-49.2 72.09,-98.39 108.15,-147.61 14.78,-20.14 29.43,-40.38 44.68,-60.16 33.78,-43.82 67.6,-87.61 101.41,-131.41 46.49,-60.27 93.07,-120.39 140.45,-179.98 119.08,-149.97 238.62,-299.57 358.29,-449.06 52.04,-65 103,-130.93 154.43,-196.43 44.6,-56.85 89.21,-113.71 133.61,-170.71 55.47,-71.15 110.69,-142.5 166.46,-213.42 64.57,-82.21 129.21,-164.32 190.79,-248.8 38.83,-53.32 76.45,-107.49 113.44,-162.07l-94.34 -71.19z"/>
  <path class="fil0" d="M2017.37 927.58c-40.88,31.11 -52.58,-10.41 -225.73,224.44 -13.29,18.67 -29.81,34.89 -39.87,55.94 -4.97,10.38 5.33,20.77 19.44,32.07l-6.08 8.08c-16.15,-5.51 -38.93,0 -59.46,33.25 -30.01,38.92 -473.33,625.59 -503.3,664.53 -10.91,14.11 -21.75,28.3 -32.82,42.28 -54.47,68.67 -108.92,137.38 -163.4,206.06 -43.22,54.57 -87.51,108.27 -131.32,162.35 -296.37,365.79 -387.87,521.35 -428.55,612.1l55.09 41.57 11.9 -13.9c-2.91,4.32 -6.31,9.24 -10.45,15l41.82 31.55c11.41,-15.94 22.75,-31.92 34.06,-47.92 45.12,-63.81 89.59,-128.22 132.81,-193.32 39.52,-59.54 80.31,-118.23 120.52,-177.32 12.08,-17.76 24.93,-34.96 37.63,-52.31 29.2,-39.83 58.37,-79.67 87.57,-119.52 11.98,-16.32 23.84,-32.7 36.18,-48.72 27.36,-35.48 54.74,-70.94 82.12,-106.4 37.65,-48.81 75.37,-97.49 113.72,-145.75 96.43,-121.43 193.23,-242.56 290.13,-363.62 42.14,-52.63 83.4,-106.02 125.04,-159.05 36.12,-46.04 72.24,-92.08 108.2,-138.23 44.92,-57.62 89.63,-115.39 134.79,-172.82 52.28,-66.57 104.63,-133.05 154.49,-201.46 31.44,-43.18 61.9,-87.04 91.86,-131.24l-76.39 -57.64z"/>
  <path class="fil0" d="M1495.46 924.55c-29.15,22.19 -37.5,-7.42 -161,160.08 -9.47,13.31 -21.25,24.88 -28.43,39.89 -3.54,7.41 3.8,14.82 13.87,22.88l-4.34 5.75c-11.52,-3.93 -27.76,0.01 -42.41,23.72 -21.4,27.76 -337.59,446.18 -358.96,473.96 -7.78,10.06 -15.52,20.18 -23.41,30.15 -38.85,48.98 -77.68,97.98 -116.54,146.97 -30.83,38.92 -62.41,77.21 -93.66,115.79 -211.37,260.88 -276.63,371.83 -305.65,436.56l39.29 29.65 8.49 -9.92c-2.07,3.08 -4.5,6.59 -7.45,10.7l29.82 22.5c8.14,-11.36 16.23,-22.76 24.3,-34.18 32.18,-45.51 63.89,-91.45 94.72,-137.88 28.18,-42.46 57.28,-84.32 85.95,-126.46 8.62,-12.67 17.78,-24.94 26.85,-37.31 20.82,-28.41 41.63,-56.82 62.45,-85.25 8.54,-11.63 17,-23.32 25.81,-34.74 19.51,-25.31 39.04,-50.6 58.56,-75.89 26.86,-34.81 53.76,-69.53 81.12,-103.95 68.77,-86.61 137.81,-173 206.92,-259.34 30.05,-37.54 59.48,-75.61 89.18,-113.44 25.76,-32.83 51.52,-65.67 77.17,-98.59 32.03,-41.09 63.93,-82.29 96.13,-123.25 37.29,-47.48 74.62,-94.9 110.19,-143.69 22.42,-30.79 44.15,-62.08 65.51,-93.6l-54.48 -41.11z"/>
  <path class="fil0" d="M945.19 924.55c-14.11,10.74 -18.15,-3.59 -77.95,77.51 -4.59,6.44 -10.29,12.04 -13.76,19.31 -1.72,3.59 1.84,7.18 6.71,11.08l-2.1 2.79c-5.58,-1.91 -13.44,0 -20.53,11.48 -10.37,13.44 -163.46,216.03 -173.81,229.48 -3.76,4.87 -7.51,9.77 -11.33,14.6 -18.81,23.71 -37.61,47.44 -56.42,71.16 -14.93,18.84 -30.22,37.38 -45.35,56.06 -102.35,126.32 -133.94,180.03 -147.99,211.37l19.02 14.36 4.11 -4.8c-1,1.49 -2.18,3.19 -3.61,5.18l14.44 10.89c3.94,-5.5 7.86,-11.02 11.77,-16.54 15.58,-22.04 30.93,-44.28 45.86,-66.76 13.64,-20.56 27.73,-40.83 41.62,-61.23 4.17,-6.14 8.6,-12.08 12.99,-18.07 10.09,-13.76 20.16,-27.51 30.24,-41.27 4.14,-5.64 8.23,-11.3 12.5,-16.83 9.44,-12.25 18.9,-24.49 28.35,-36.74 13,-16.85 26.03,-33.67 39.28,-50.33 33.29,-41.93 66.72,-83.76 100.18,-125.57 14.55,-18.17 28.8,-36.61 43.18,-54.92 12.48,-15.9 24.95,-31.8 37.37,-47.74 15.51,-19.89 30.95,-39.84 46.54,-59.68 18.06,-22.98 36.13,-45.94 53.35,-69.57 10.86,-14.9 21.38,-30.05 31.72,-45.31l-26.38 -19.91z"/>
  <path class="fil0" d="M3317.84 963.26c-51.89,39.5 -66.75,-13.21 -286.57,284.95 -16.87,23.69 -37.84,44.29 -50.61,71.01 -6.32,13.18 6.76,26.37 24.67,40.72l-7.71 10.25c-20.51,-7 -49.42,0.01 -75.5,42.22 -38.1,49.4 -600.92,794.22 -638.96,843.66 -13.85,17.91 -27.62,35.93 -41.67,53.68 -69.15,87.18 -138.28,174.4 -207.44,261.6 -54.88,69.28 -111.1,137.45 -166.73,206.11 -376.24,464.39 -492.41,661.88 -544.06,777.1l69.94 52.77 15.11 -17.65c-3.7,5.49 -8.02,11.73 -13.26,19.04l53.08 40.06c14.49,-20.23 28.89,-40.52 43.25,-60.84 57.28,-81.01 113.73,-162.78 168.61,-245.43 50.17,-75.58 101.96,-150.1 153,-225.11 15.34,-22.55 31.65,-44.39 47.78,-66.41 37.07,-50.58 74.1,-101.15 111.17,-151.74 15.21,-20.72 30.26,-41.52 45.94,-61.86 34.73,-45.04 69.49,-90.06 104.24,-135.08 47.81,-61.96 95.69,-123.77 144.39,-185.03 122.42,-154.17 245.31,-307.95 368.33,-461.63 53.5,-66.83 105.88,-134.6 158.75,-201.93 45.86,-58.45 91.71,-116.9 137.36,-175.49 57.02,-73.15 113.79,-146.5 171.12,-219.41 66.38,-84.51 132.83,-168.92 196.13,-255.77 39.92,-54.81 78.6,-110.5 116.62,-166.61l-96.98 -73.18z"/>
  <path class="fil0" d="M3420.45 1324.66c-44.91,34.18 -57.77,-11.43 -248.01,246.6 -14.6,20.51 -32.75,38.33 -43.8,61.46 -5.46,11.41 5.85,22.82 21.35,35.24l-6.67 8.87c-17.75,-6.05 -42.77,0.01 -65.34,36.54 -32.97,42.75 -520.05,687.34 -552.98,730.12 -11.98,15.5 -23.89,31.09 -36.06,46.46 -59.84,75.44 -119.66,150.93 -179.52,226.4 -47.49,59.95 -96.15,118.94 -144.29,178.37 -325.61,401.89 -426.15,572.8 -470.85,672.52l60.53 45.67 13.08 -15.28c-3.2,4.75 -6.94,10.15 -11.48,16.48l45.94 34.67c12.54,-17.51 25,-35.07 37.43,-52.65 49.57,-70.11 98.42,-140.88 145.92,-212.4 43.41,-65.42 88.24,-129.9 132.41,-194.82 13.28,-19.51 27.39,-38.42 41.35,-57.47 32.08,-43.77 64.13,-87.54 96.21,-131.33 13.16,-17.92 26.19,-35.93 39.75,-53.52 30.06,-38.99 60.15,-77.95 90.22,-116.91 41.37,-53.62 82.81,-107.11 124.96,-160.13 105.94,-133.42 212.29,-266.51 318.76,-399.51 46.3,-57.83 91.63,-116.48 137.39,-174.75 39.68,-50.59 79.37,-101.17 118.87,-151.88 49.35,-63.3 98.48,-126.78 148.1,-189.88 57.44,-73.14 114.95,-146.18 169.73,-221.35 34.55,-47.43 68.02,-95.63 100.93,-144.19l-83.93 -63.33z"/>
  <path class="fil0" d="M3360.76 1904.59c-33.71,25.65 -43.36,-8.59 -186.13,185.06 -10.96,15.39 -24.58,28.77 -32.87,46.12 -4.1,8.56 4.39,17.13 16.02,26.45l-5 6.66c-13.33,-4.55 -32.1,0 -49.04,27.42 -24.74,32.09 -390.28,515.83 -415,547.94 -8.99,11.63 -17.93,23.33 -27.06,34.86 -44.91,56.62 -89.81,113.28 -134.73,169.91 -35.64,44.99 -72.16,89.27 -108.28,133.86 -244.37,301.62 -319.82,429.88 -353.36,504.71l45.42 34.28 9.82 -11.47c-2.4,3.57 -5.21,7.62 -8.62,12.38l34.48 26.01c9.41,-13.14 18.76,-26.32 28.09,-39.51 37.2,-52.62 73.87,-105.73 109.51,-159.41 32.58,-49.09 66.22,-97.48 99.37,-146.2 9.96,-14.65 20.55,-28.83 31.03,-43.13 24.08,-32.85 48.13,-65.7 72.21,-98.56 9.87,-13.45 19.65,-26.96 29.83,-40.17 22.56,-29.26 45.14,-58.49 67.71,-87.74 31.04,-40.23 62.14,-80.38 93.77,-120.17 79.51,-100.13 159.32,-200.01 239.23,-299.82 34.74,-43.4 68.77,-87.42 103.1,-131.15 29.79,-37.96 59.57,-75.93 89.22,-113.98 37.03,-47.5 73.9,-95.14 111.14,-142.5 43.11,-54.89 86.27,-109.71 127.38,-166.12 25.93,-35.6 51.05,-71.76 75.74,-108.21l-62.98 -47.52z"/>
  <path class="fil0" d="M3424.71 2318.03c-25.72,19.57 -33.08,-6.55 -142.01,141.2 -8.36,11.74 -18.75,21.94 -25.08,35.18 -3.13,6.54 3.35,13.07 12.23,20.18l-3.82 5.08c-10.16,-3.46 -24.49,0.01 -37.41,20.92 -18.88,24.48 -297.78,393.56 -316.63,418.06 -6.86,8.88 -13.68,17.8 -20.65,26.6 -34.26,43.2 -68.52,86.42 -102.79,129.63 -27.19,34.33 -55.05,68.11 -82.62,102.14 -186.44,230.12 -244,327.98 -269.6,385.07l34.66 26.15 7.49 -8.75c-1.83,2.73 -3.97,5.82 -6.57,9.44l26.3 19.85c7.18,-10.02 14.31,-20.08 21.43,-30.15 28.38,-40.14 56.36,-80.66 83.55,-121.61 24.86,-37.46 50.53,-74.38 75.82,-111.55 7.6,-11.18 15.68,-22 23.67,-32.91 18.38,-25.06 36.73,-50.12 55.1,-75.2 7.53,-10.26 14.99,-20.57 22.76,-30.64 17.21,-22.33 34.43,-44.63 51.65,-66.94 23.69,-30.7 47.42,-61.33 71.55,-91.69 60.66,-76.4 121.56,-152.6 182.52,-228.75 26.51,-33.12 52.47,-66.7 78.67,-100.07 22.72,-28.96 45.44,-57.92 68.06,-86.96 28.26,-36.24 56.39,-72.59 84.8,-108.72 32.89,-41.88 65.82,-83.7 97.19,-126.74 19.78,-27.16 38.94,-54.76 57.78,-82.56l-48.05 -36.26z"/>
  <path class="fil0" d="M2782.87 3720.02c16.58,-12.62 21.32,4.22 91.54,-91.02 5.39,-7.57 12.09,-14.15 16.17,-22.68 2.01,-4.21 -2.16,-8.43 -7.88,-13.01l2.46 -3.27c6.55,2.23 15.79,-0.01 24.11,-13.49 12.17,-15.78 191.95,-253.69 204.1,-269.48 4.43,-5.72 8.83,-11.48 13.31,-17.15 22.09,-27.85 44.17,-55.71 66.26,-83.56 17.53,-22.13 35.49,-43.9 53.26,-65.84 120.18,-148.33 157.29,-211.41 173.79,-248.22l-22.34 -16.86 -4.83 5.64c1.18,-1.75 2.56,-3.74 4.24,-6.08l-16.96 -12.8c-4.63,6.47 -9.23,12.95 -13.81,19.44 -18.3,25.87 -36.33,51.99 -53.86,78.39 -16.03,24.15 -32.57,47.95 -48.87,71.91 -4.9,7.2 -10.11,14.18 -15.27,21.21 -11.84,16.16 -23.67,32.31 -35.51,48.47 -4.85,6.62 -9.66,13.26 -14.67,19.76 -11.09,14.39 -22.2,28.77 -33.3,43.15 -15.27,19.79 -30.56,39.53 -46.12,59.1 -39.1,49.25 -78.35,98.37 -117.65,147.46 -17.09,21.34 -33.82,42.99 -50.71,64.5 -14.65,18.67 -29.29,37.34 -43.88,56.05 -18.21,23.37 -36.34,46.8 -54.66,70.09 -21.2,26.99 -42.42,53.95 -62.64,81.69 -12.76,17.51 -25.11,35.3 -37.26,53.22l30.98 23.38z"/>
  <path class="fil0" d="M4119.08 3705.15c5.57,-54.25 19.36,-25.62 18.06,-345.7 -0.26,-25.13 1.11,-50.25 -0.75,-75.33 -0.92,-12.38 -6.73,-14.67 -13.98,-15.24l-0.01 -11.09c6.51,-5.85 12.47,-25.73 11.02,-68.41 0.2,-53.91 0.4,-860.6 0.59,-914.51 0.08,-19.56 0.13,-39.15 0.29,-58.71 0.85,-96.13 1.69,-192.27 2.54,-288.42 0.65,-76.35 1.86,-152.63 2.82,-228.95 6.52,-516.15 -1.77,-712.84 -10.68,-819.19l-27.7 0 -0.45 20.04c-0.11,-5.72 -0.21,-12.27 -0.28,-20.04l-21.02 0c0.19,21.49 0.42,42.98 0.67,64.47 0.97,85.69 2.3,171.48 4.19,257.05 1.73,78.25 2.85,156.6 4.25,234.91 0.42,23.54 0.47,47.09 0.59,70.68 0.28,54.18 0.56,108.34 0.84,162.53 0.11,22.2 0.27,44.39 0.19,66.57 -0.19,49.15 -0.39,98.3 -0.59,147.44 -0.26,67.62 -0.58,135.18 -1.2,202.78 -1.54,170.06 -3.26,340.1 -5.05,510.13 -0.77,73.94 -1.08,147.96 -1.61,221.92 -0.44,64.18 -0.88,128.37 -1.24,192.54 -0.46,80.13 -0.82,160.27 -1.41,240.41 -0.65,92.84 -1.35,185.65 -0.79,278.5 0.37,58.59 1.21,117.13 2.3,175.62l38.41 0z"/>
  <g id="_2815468609776">
   <path class="fil0" d="M2967.35 252.04c6.3,8.41 -3.05,19.58 46.49,37.33 3.94,1.25 7.3,4.01 11.82,3.76 2.23,-0.13 4.67,-5.41 7.38,-12.14l1.7 0.65c-1.45,6.42 -0.55,13.16 6.52,14.33 8.19,3.38 131.8,51.36 139.99,54.73 2.97,1.23 5.96,2.44 8.9,3.75 14.43,6.49 28.87,12.96 43.31,19.45 11.47,5.13 22.73,10.78 34.08,16.2 76.79,36.66 109.93,40.58 129.45,38.57l9.98 -25.84 -2.91 -1.61c0.92,0.23 1.96,0.53 3.17,0.93l7.58 -19.61c-3.36,-1.09 -6.74,-2.15 -10.12,-3.2 -13.49,-4.17 -27.12,-8.01 -40.92,-11.32 -12.63,-3.02 -25.04,-6.62 -37.55,-9.95 -3.77,-1 -7.39,-2.35 -11.05,-3.63 -8.41,-2.96 -16.82,-5.9 -25.22,-8.85 -3.45,-1.22 -6.91,-2.38 -10.28,-3.77 -7.47,-3.09 -14.93,-6.19 -22.39,-9.28 -10.27,-4.25 -20.52,-8.55 -30.66,-13.13 -25.52,-11.51 -50.97,-23.2 -76.39,-34.93 -11.06,-5.1 -22.3,-9.78 -33.45,-14.65 -9.68,-4.21 -19.36,-8.43 -29.07,-12.57 -12.12,-5.18 -24.28,-10.26 -36.35,-15.55 -14,-6.11 -27.98,-12.26 -42.42,-17.24 -9.11,-3.13 -18.39,-5.81 -27.75,-8.26l-13.84 35.83z"/>
   <path class="fil0" d="M2943.16 546.09c6.38,-8.36 -2.88,-19.6 46.81,-36.93 3.96,-1.22 7.34,-3.95 11.85,-3.66 2.23,0.14 4.63,5.45 7.28,12.2l1.7 -0.64c-1.39,-6.43 -0.44,-13.16 6.64,-14.27 8.22,-3.31 132.23,-50.24 140.46,-53.54 2.98,-1.21 5.98,-2.39 8.93,-3.68 14.48,-6.36 28.98,-12.71 43.47,-19.08 11.51,-5.03 22.82,-10.58 34.22,-15.91 77.09,-36 110.27,-39.64 129.77,-37.47l9.76 25.93 -2.92 1.58c0.92,-0.23 1.96,-0.51 3.18,-0.9l7.41 19.68c-3.38,1.06 -6.76,2.09 -10.15,3.1 -13.53,4.06 -27.19,7.79 -41.02,10.98 -12.65,2.91 -25.09,6.4 -37.63,9.63 -3.77,0.96 -7.41,2.29 -11.08,3.54 -8.43,2.88 -16.86,5.75 -25.3,8.63 -3.45,1.19 -6.92,2.32 -10.3,3.68 -7.5,3.03 -14.98,6.06 -22.47,9.09 -10.31,4.17 -20.59,8.38 -30.77,12.88 -25.62,11.29 -51.16,22.76 -76.69,34.27 -11.1,5.01 -22.37,9.6 -33.57,14.37 -9.71,4.13 -19.43,8.26 -29.17,12.32 -12.17,5.07 -24.37,10.05 -36.49,15.24 -14.04,6 -28.07,12.03 -42.56,16.88 -9.14,3.05 -18.44,5.65 -27.82,8.02l-13.54 -35.94z"/>
  </g>
  <g id="_2815468607568">
   <path class="fil0" d="M894.29 529.16c-6.34,-8.38 2.97,-19.59 -46.65,-37.12 -3.95,-1.24 -7.32,-3.99 -11.83,-3.72 -2.23,0.14 -4.66,5.43 -7.33,12.17l-1.7 -0.64c1.42,-6.42 0.49,-13.16 -6.58,-14.3 -8.21,-3.35 -132.02,-50.8 -140.23,-54.13 -2.98,-1.23 -5.97,-2.42 -8.91,-3.72 -14.46,-6.43 -28.93,-12.84 -43.39,-19.26 -11.49,-5.09 -22.78,-10.69 -34.15,-16.06 -76.95,-36.33 -110.11,-40.11 -129.61,-38.02l-9.88 25.88 2.92 1.6c-0.92,-0.23 -1.96,-0.52 -3.18,-0.92l-7.49 19.65c3.37,1.07 6.75,2.12 10.14,3.15 13.5,4.11 27.15,7.9 40.96,11.15 12.64,2.96 25.07,6.51 37.6,9.78 3.76,0.99 7.39,2.33 11.06,3.6 8.42,2.91 16.84,5.82 25.26,8.73 3.45,1.2 6.91,2.35 10.29,3.73 7.48,3.05 14.96,6.12 22.43,9.18 10.29,4.21 20.56,8.47 30.71,13.01 25.57,11.4 51.07,22.97 76.55,34.6 11.07,5.06 22.33,9.69 33.5,14.51 9.7,4.17 19.4,8.34 29.13,12.44 12.14,5.13 24.32,10.16 36.41,15.4 14.03,6.05 28.03,12.14 42.49,17.06 9.13,3.09 18.42,5.73 27.79,8.14l13.69 -35.89z"/>
   <path class="fil0" d="M917.23 235.01c-6.34,8.39 2.97,19.59 -46.65,37.13 -3.95,1.24 -7.32,3.99 -11.84,3.71 -2.23,-0.13 -4.65,-5.42 -7.32,-12.17l-1.71 0.65c1.42,6.42 0.5,13.16 -6.58,14.3 -8.2,3.35 -132.01,50.8 -140.23,54.13 -2.97,1.23 -5.96,2.42 -8.91,3.72 -14.46,6.42 -28.92,12.84 -43.39,19.26 -11.49,5.09 -22.77,10.69 -34.15,16.06 -76.94,36.33 -110.1,40.11 -129.61,38.02l-9.87 -25.88 2.92 -1.6c-0.92,0.23 -1.96,0.52 -3.18,0.91l-7.5 -19.64c3.37,-1.08 6.76,-2.12 10.14,-3.15 13.51,-4.11 27.16,-7.9 40.97,-11.15 12.64,-2.96 25.07,-6.51 37.59,-9.79 3.77,-0.98 7.4,-2.32 11.07,-3.59 8.42,-2.92 16.83,-5.82 25.26,-8.74 3.44,-1.2 6.91,-2.34 10.29,-3.72 7.48,-3.06 14.95,-6.12 22.43,-9.19 10.29,-4.21 20.55,-8.46 30.71,-13 25.57,-11.4 51.07,-22.98 76.54,-34.6 11.08,-5.06 22.34,-9.69 33.51,-14.51 9.7,-4.17 19.4,-8.35 29.12,-12.45 12.14,-5.12 24.32,-10.15 36.42,-15.39 14.02,-6.06 28.03,-12.15 42.49,-17.06 9.13,-3.09 18.42,-5.73 27.79,-8.14l13.69 35.88z"/>
  </g>
  <g id="_2815468607408">
   <path class="fil0" d="M3960.41 3381.13c8.38,6.35 19.59,-2.96 37.13,46.65 1.23,3.95 3.98,7.32 3.71,11.84 -0.13,2.23 -5.43,4.65 -12.17,7.32l0.64 1.71c6.43,-1.42 13.16,-0.5 14.3,6.58 3.35,8.2 50.8,132.01 54.14,140.23 1.22,2.97 2.41,5.96 3.71,8.91 6.43,14.46 12.84,28.92 19.27,43.39 5.08,11.49 10.68,22.77 16.05,34.15 36.33,76.94 40.11,110.1 38.02,129.61l-25.88 9.87 -1.6 -2.92c0.23,0.92 0.53,1.96 0.92,3.18l-19.65 7.5c-1.07,-3.37 -2.12,-6.76 -3.15,-10.14 -4.11,-13.51 -7.9,-27.16 -11.14,-40.97 -2.97,-12.64 -6.52,-25.07 -9.79,-37.59 -0.99,-3.77 -2.33,-7.4 -3.59,-11.07 -2.92,-8.42 -5.83,-16.83 -8.74,-25.26 -1.2,-3.44 -2.35,-6.91 -3.73,-10.29 -3.05,-7.48 -6.12,-14.95 -9.18,-22.43 -4.21,-10.29 -8.46,-20.55 -13.01,-30.71 -11.4,-25.57 -22.97,-51.07 -34.6,-76.54 -5.06,-11.08 -9.69,-22.34 -14.51,-33.51 -4.17,-9.7 -8.34,-19.4 -12.44,-29.12 -5.13,-12.14 -10.16,-24.32 -15.4,-36.42 -6.05,-14.02 -12.14,-28.03 -17.05,-42.49 -3.1,-9.13 -5.74,-18.42 -8.15,-27.79l35.89 -13.69z"/>
   <path class="fil0" d="M4254.56 3358.2c-8.39,6.34 -19.59,-2.97 -37.13,46.65 -1.23,3.95 -3.98,7.32 -3.71,11.83 0.13,2.23 5.43,4.65 12.17,7.33l-0.65 1.7c-6.42,-1.42 -13.15,-0.49 -14.29,6.58 -3.36,8.21 -50.81,132.02 -54.14,140.23 -1.22,2.97 -2.41,5.97 -3.72,8.91 -6.42,14.46 -12.83,28.93 -19.26,43.39 -5.09,11.49 -10.69,22.78 -16.06,34.15 -36.33,76.94 -40.11,110.1 -38.01,129.61l25.88 9.88 1.59 -2.92c-0.23,0.92 -0.52,1.96 -0.91,3.18l19.64 7.49c1.08,-3.37 2.12,-6.75 3.15,-10.14 4.11,-13.51 7.9,-27.15 11.15,-40.97 2.97,-12.63 6.51,-25.06 9.79,-37.59 0.98,-3.76 2.32,-7.4 3.59,-11.06 2.92,-8.42 5.82,-16.84 8.74,-25.26 1.2,-3.45 2.35,-6.91 3.72,-10.29 3.06,-7.48 6.13,-14.96 9.19,-22.44 4.21,-10.28 8.46,-20.55 13,-30.71 11.4,-25.57 22.98,-51.06 34.61,-76.54 5.05,-11.08 9.68,-22.33 14.5,-33.5 4.18,-9.7 8.35,-19.4 12.45,-29.13 5.12,-12.14 10.15,-24.32 15.39,-36.42 6.06,-14.02 12.15,-28.02 17.06,-42.48 3.09,-9.13 5.74,-18.42 8.14,-27.79l-35.88 -13.69z"/>
  </g>
  <g id="_2815468605296">
   <path class="fil0" d="M3961.36 1293.88c8.38,-6.35 19.59,2.96 37.12,-46.66 1.24,-3.94 3.99,-7.31 3.72,-11.83 -0.14,-2.23 -5.43,-4.65 -12.17,-7.33l0.64 -1.7c6.42,1.42 13.16,0.49 14.3,-6.58 3.35,-8.21 50.8,-132.02 54.14,-140.23 1.22,-2.97 2.41,-5.97 3.71,-8.91 6.43,-14.46 12.84,-28.93 19.26,-43.39 5.09,-11.49 10.69,-22.77 16.06,-34.15 36.33,-76.94 40.11,-110.1 38.02,-129.61l-25.88 -9.87 -1.6 2.91c0.23,-0.91 0.52,-1.96 0.92,-3.17l-19.65 -7.5c-1.07,3.37 -2.12,6.75 -3.15,10.14 -4.11,13.51 -7.9,27.15 -11.15,40.97 -2.96,12.63 -6.51,25.06 -9.78,37.59 -0.99,3.77 -2.33,7.4 -3.59,11.06 -2.92,8.42 -5.83,16.84 -8.74,25.26 -1.2,3.45 -2.35,6.92 -3.73,10.29 -3.05,7.48 -6.12,14.96 -9.18,22.44 -4.21,10.29 -8.46,20.55 -13.01,30.71 -11.4,25.57 -22.97,51.06 -34.6,76.54 -5.06,11.08 -9.69,22.33 -14.51,33.51 -4.17,9.69 -8.34,19.39 -12.44,29.12 -5.13,12.14 -10.16,24.32 -15.4,36.42 -6.05,14.02 -12.14,28.03 -17.06,42.49 -3.09,9.12 -5.73,18.41 -8.14,27.79l35.89 13.69z"/>
   <path class="fil0" d="M4255.51 1316.81c-8.39,-6.34 -19.59,2.97 -37.13,-46.65 -1.23,-3.95 -3.99,-7.32 -3.71,-11.83 0.13,-2.23 5.42,-4.66 12.17,-7.33l-0.65 -1.7c-6.42,1.42 -13.16,0.49 -14.3,-6.58 -3.35,-8.21 -50.8,-132.02 -54.13,-140.23 -1.23,-2.98 -2.41,-5.97 -3.72,-8.91 -6.42,-14.46 -12.83,-28.93 -19.26,-43.39 -5.09,-11.49 -10.69,-22.78 -16.06,-34.15 -36.33,-76.95 -40.11,-110.11 -38.02,-129.61l25.88 -9.88 1.6 2.92c-0.23,-0.92 -0.52,-1.96 -0.91,-3.18l19.64 -7.49c1.08,3.37 2.12,6.75 3.15,10.14 4.11,13.5 7.9,27.15 11.15,40.96 2.97,12.64 6.51,25.07 9.79,37.6 0.98,3.76 2.32,7.39 3.59,11.06 2.92,8.42 5.82,16.84 8.74,25.26 1.2,3.45 2.35,6.91 3.72,10.29 3.06,7.48 6.12,14.96 9.19,22.43 4.21,10.29 8.46,20.56 13,30.71 11.4,25.57 22.98,51.07 34.6,76.55 5.06,11.07 9.69,22.33 14.51,33.5 4.17,9.7 8.35,19.4 12.45,29.13 5.12,12.14 10.15,24.32 15.39,36.41 6.06,14.03 12.15,28.03 17.06,42.49 3.09,9.13 5.73,18.42 8.14,27.79l-35.88 13.69z"/>
  </g>
  <rect class="fil1" x="-0.03" y="-0.97" width="4343.41" height="4343.58"/>
 </g>
</svg>
