<?xml version="1.0" encoding="UTF-8"?>
<!DOCTYPE svg PUBLIC "-//W3C//DTD SVG 1.1//EN" "http://www.w3.org/Graphics/SVG/1.1/DTD/svg11.dtd">
<!-- Creator: CorelDRAW 2018 (64-Bit) -->
<svg xmlns="http://www.w3.org/2000/svg" xml:space="preserve" width="43.4338mm" height="43.4338mm" version="1.1" style="shape-rendering:geometricPrecision; text-rendering:geometricPrecision; image-rendering:optimizeQuality; fill-rule:evenodd; clip-rule:evenodd"
viewBox="0 0 4343.38 4343.38"
 xmlns:xlink="http://www.w3.org/1999/xlink">
 <defs>
  <style type="text/css">
   <![CDATA[
    .str0 {stroke:#2B2A29;stroke-width:84.66;stroke-miterlimit:22.9256}
    .fil3 {fill:none}
    .fil2 {fill:#2B2A29}
    .fil1 {fill:#FEFEFE;fill-rule:nonzero}
    .fil0 {fill:#434242;fill-rule:nonzero}
   ]]>
  </style>
 </defs>
 <g id="Слой_x0020_1">
  <metadata id="CorelCorpID_0Corel-Layer"/>
  <path class="fil0" d="M232.29 4255.02c18.03,-67.55 62.59,-31.91 58.39,-430.42 -0.83,-31.28 3.6,-62.56 -2.43,-93.78 -2.97,-15.41 -21.75,-18.27 -45.2,-18.98l-0.02 -13.8c21.04,-7.28 40.32,-32.04 35.6,-85.18 0.67,-67.12 1.32,-1071.48 1.92,-1138.6 0.27,-24.35 0.42,-48.74 0.96,-73.1 2.74,-119.67 5.44,-239.38 8.18,-359.08 2.13,-95.06 6.03,-190.04 9.14,-285.05 21.07,-642.63 -5.73,-887.51 -34.52,-1019.93l-89.54 0 -1.46 24.95c-0.37,-7.11 -0.69,-15.27 -0.91,-24.95l-67.96 0c0.63,26.77 1.38,53.52 2.17,80.27 3.14,106.69 7.42,213.5 13.53,320.04 5.6,97.42 9.22,194.97 13.76,292.47 1.36,29.31 1.51,58.63 1.9,88 0.89,67.46 1.81,134.89 2.71,202.36 0.35,27.64 0.88,55.26 0.61,82.88 -0.61,61.19 -1.26,122.38 -1.89,183.57 -0.86,84.18 -1.87,168.29 -3.89,252.46 -4.96,211.73 -10.55,423.43 -16.31,635.14 -2.5,92.05 -3.52,184.2 -5.2,276.29 -1.43,79.91 -2.86,159.82 -4.03,239.72 -1.49,99.77 -2.65,199.55 -4.54,299.31 -2.12,115.6 -4.38,231.14 -2.55,346.75 1.17,72.94 3.9,145.83 7.42,218.66l124.16 0z"/>
  <path class="fil0" d="M4226.49 4102.02c-157.48,-30.68 -443.52,-55.61 -1106.14,-32.64 -106.7,3.65 -213.36,8.3 -320.08,10.85 -134.44,3.23 -268.86,6.45 -403.26,9.69 -27.35,0.64 -54.74,0.82 -82.09,1.13 -75.37,0.73 -150.76,1.51 -226.12,2.3 -56.46,0.55 -112.93,1.14 -169.36,1.73 -32.42,0.29 -64.83,-0.22 -97.25,-0.36 -128.02,-0.53 -256.05,-1.14 -384.07,-1.65 -38.15,-0.15 -76.36,-1.45 -114.53,-2.19 -78.25,-1.49 -156.52,-3.06 -234.86,-4.61 -96.73,-1.88 -193.43,-4.53 -290.19,-7.24 -195.76,-2.18 -298.19,6.75 -357.86,19.22 -173.44,13.18 -263.81,34.33 -329.94,53.39l-7.2 0.18 0 84.73c42.77,3.14 82.77,5.85 114.85,7.57 89.8,4.81 179.68,8.57 269.64,10.1 129.57,2.16 259.08,-0.51 388.62,-3.04 111.81,-2.25 223.63,-3.59 335.45,-5.37 89.54,-1.39 179.1,-3.1 268.65,-4.79 103.23,-2.02 206.49,-3.19 309.65,-6.2 180.33,-5.17 920.3,-10.29 1369.3,-15l66.82 1.1c111.92,1.78 223.85,3.16 335.76,5.39 46.02,0.9 92.01,1.81 138.03,2.53l36.66 2.3c119.41,7.25 239.11,12.33 358.67,16.06 43.6,1.37 87.23,2.61 130.85,3.51l0 -148.69z"/>
  <path class="fil1 str0" d="M1059.57 2157.09c-4.61,12.38 -7.67,25 -9.8,37.67 -2.12,12.72 -3.33,25.42 -4.25,37.95 -0.51,7.02 -0.86,14.14 -1.1,21.35 -0.23,6.99 -0.37,14.12 -0.43,21.34 -0.1,10.14 -0.09,20.32 0.04,30.56 0.13,10.13 0.37,20.31 0.74,30.56 0.68,19.38 1.61,38.82 2.7,58.27 1.1,19.4 2.37,38.81 3.72,58.23 2.71,38.86 5.33,77.71 7.2,116.59 1.86,38.8 2.96,77.64 2.66,116.55 -0.29,35.15 -0.49,70.3 -0.67,105.45 -0.24,45.5 -0.5,91 -0.96,136.49 -0.39,38.23 -0.78,76.47 -0.98,114.7 -0.2,38.16 -0.2,76.39 0.2,114.73l0.31 29.75c0.71,66.58 1.44,133.12 -0.74,199.86 -1.25,39.09 -1.53,78.3 -1.22,117.56 0.32,39.12 1.23,78.34 2.35,117.58 0.55,18.53 0.96,37.11 0.74,55.77 -0.21,18.56 -1.07,37.11 -3.07,55.61 -1.03,9.48 -2.19,19.16 -3.47,28.97 -1.32,10.26 -2.63,19.84 -3.94,28.96 -2.21,15.46 -3.49,30.95 -4.75,46.42l-0.89 10.55c-0.75,8.84 -0.54,17.59 0.28,26.33 0.51,5.26 1.22,10.48 2.07,15.68l8.07 0c-0.89,-5.31 -1.62,-10.57 -2.11,-15.81 -0.82,-8.6 -1.02,-17.2 -0.29,-25.87l0.89 -10.56c1.26,-15.43 2.54,-30.88 4.73,-46.25 1.46,-10.18 2.81,-19.93 3.97,-28.99 1.23,-9.5 2.4,-19.16 3.47,-29.04 2.01,-18.56 2.87,-37.2 3.08,-55.86 0.22,-18.54 -0.2,-37.22 -0.74,-55.88 -1.13,-39.13 -2.04,-78.3 -2.35,-117.52 -0.31,-39.09 -0.02,-78.23 1.23,-117.46 2.17,-66.54 1.44,-133.25 0.72,-199.98l-0.31 -29.76c-0.39,-38.12 -0.39,-76.37 -0.19,-114.67 0.2,-38.23 0.59,-76.47 0.98,-114.7 0.46,-45.49 0.71,-90.99 0.96,-136.48 0.19,-35.15 0.38,-70.31 0.67,-105.46 0.3,-38.86 -0.81,-77.76 -2.68,-116.7 -1.86,-38.86 -4.48,-77.75 -7.2,-116.66 -1.35,-19.38 -2.62,-38.78 -3.71,-58.19 -1.09,-19.37 -2.02,-38.77 -2.7,-58.19 -0.36,-10.14 -0.6,-20.3 -0.74,-30.51 -0.12,-10.1 -0.13,-20.26 -0.04,-30.51 0.07,-7.01 0.2,-14.09 0.45,-21.27 0.23,-6.98 0.58,-14.05 1.1,-21.24 0.93,-12.53 2.12,-25.18 4.22,-37.68 2.08,-12.49 5.08,-24.9 9.59,-37.01 1.53,-2.44 3.25,-4.85 5.19,-7.23 1.95,-2.37 4.14,-4.72 6.55,-6.98l0.05 -0.05c5.7,-5.61 8.35,-11.2 7.92,-16.8 -0.42,-5.59 -3.91,-11.12 -10.45,-16.57l-0.27 -0.22c-8.42,-4.51 -16.94,-9.03 -25.46,-13.46l-0.37 -0.12c-13.19,-4.52 -26.9,-8.19 -41.1,-11 -14.18,-2.79 -28.82,-4.73 -43.91,-5.79 -25.91,-2.28 -53.61,-2.8 -80.76,-1.23 -25.15,1.47 -49.9,4.74 -72.37,10.13 -12.36,2.44 -23.57,5.79 -33.59,10.05 -10.02,4.25 -18.87,9.4 -26.52,15.44l-0.16 0.15c-3.34,3.12 -6.42,6.43 -9.06,9.86 -2.53,3.26 -4.69,6.63 -6.34,10.02l-2.06 4.22c-4.99,10.22 -9.99,20.44 -13.06,31.05 -2.22,7.72 -4.16,15.54 -5.79,23.4 -1.63,7.85 -2.94,15.67 -3.92,23.45 -1.24,9.65 -2.16,19.3 -2.81,28.94 -0.65,9.53 -1.07,19.21 -1.32,28.96 -1.91,73.68 2.38,147.47 6.67,221.27l1.5 25.62c2,34.25 3.99,68.55 3.96,102.87 -0.04,21.27 -0.15,42.61 -0.33,64.02 -0.18,21.28 -0.44,42.63 -0.77,64.03 -0.66,41.86 -1.16,83.75 -1.64,125.61 -0.41,35.35 -0.83,70.7 -1.34,106.05 -0.57,39.04 -0.91,78.14 -0.98,117.33 -0.07,39.04 0.11,78.17 0.61,117.36 0.21,18.34 0.42,36.68 0.49,55.12 0.05,18.31 -0.05,36.66 -0.45,55.1 -0.47,21.6 -1.18,43.48 -1.87,65.34 -0.59,18.53 -1.19,37.05 -1.66,55.96 -1.23,50.81 0.77,101.76 2.79,152.71 0.97,24.56 1.95,49.13 2.55,73.76 0.57,23.11 0.28,46.36 -0.01,69.61 -0.2,15.66 -0.4,31.33 -0.33,47.19 0.05,9.32 0.14,18.69 0.37,28.14 0.23,9.35 0.61,18.75 1.21,28.17l0.23 3.5c0.5,7.53 1,15.06 0.69,22.68 -0.21,5.07 -0.56,9.85 -0.93,14.59l8.05 0c0.37,-4.91 0.74,-9.79 0.93,-14.38 0.31,-7.59 -0.21,-15.28 -0.72,-22.97l-0.23 -3.5c-0.59,-9.32 -0.96,-18.68 -1.19,-28.07 -0.23,-9.29 -0.32,-18.67 -0.37,-28.08 -0.07,-15.59 0.13,-31.37 0.33,-47.13 0.28,-23.19 0.58,-46.36 0,-69.71 -0.6,-24.55 -1.57,-49.18 -2.55,-73.81 -2.01,-50.82 -4.01,-101.64 -2.77,-152.54 0.45,-18.39 1.05,-37.15 1.65,-55.92 0.69,-21.7 1.39,-43.4 1.87,-65.38 0.4,-18.29 0.5,-36.71 0.44,-55.17 -0.06,-18.31 -0.27,-36.73 -0.49,-55.15 -0.49,-39.05 -0.67,-78.17 -0.6,-117.32 0.07,-39.02 0.42,-78.13 0.98,-117.29 0.51,-35.34 0.93,-70.7 1.34,-106.05 0.48,-41.87 0.98,-83.74 1.64,-125.61 0.33,-21.28 0.59,-42.64 0.77,-64.04 0.18,-21.27 0.29,-42.63 0.33,-64.04 0.03,-34.28 -1.97,-68.69 -3.98,-103.04l-1.49 -25.62c-4.28,-73.66 -8.56,-147.3 -6.65,-221.04 0.24,-9.52 0.66,-19.12 1.33,-28.85 0.65,-9.61 1.55,-19.21 2.78,-28.76 0.99,-7.81 2.29,-15.57 3.87,-23.26 1.6,-7.72 3.53,-15.46 5.75,-23.17 2.99,-10.31 7.93,-20.44 12.88,-30.56l2.05 -4.21c1.54,-3.18 3.57,-6.34 5.94,-9.4 2.45,-3.2 5.3,-6.28 8.39,-9.18 7.18,-5.67 15.45,-10.49 24.82,-14.46 9.39,-3.98 19.89,-7.12 31.49,-9.42l0.23 -0.06c21.75,-5.22 45.82,-8.41 70.38,-9.84 26.5,-1.54 53.53,-1.02 78.8,1.2l0.11 0c14.62,1.03 28.75,2.9 42.39,5.59 13.51,2.67 26.58,6.15 39.21,10.46l24.1 12.73c5.45,4.61 8.35,9.22 8.69,13.84 0.36,4.67 -1.9,9.41 -6.76,14.21 -2.57,2.39 -4.89,4.88 -6.97,7.44 -2.06,2.52 -3.91,5.12 -5.58,7.79l-0.15 0.29z"/>
  <path class="fil1 str0" d="M3077.05 2157.08c4.62,12.38 7.68,25 9.8,37.68 2.12,12.71 3.33,25.41 4.25,37.94 0.51,7.02 0.86,14.14 1.1,21.35 0.23,6.99 0.37,14.12 0.43,21.34 0.1,10.14 0.09,20.32 -0.04,30.56 -0.12,10.13 -0.36,20.31 -0.73,30.56 -0.69,19.38 -1.61,38.82 -2.71,58.27 -1.1,19.4 -2.36,38.81 -3.72,58.23 -2.71,38.87 -5.33,77.71 -7.2,116.59 -1.85,38.8 -2.96,77.64 -2.66,116.55 0.29,35.15 0.49,70.3 0.67,105.45 0.24,45.51 0.5,91 0.96,136.49 0.39,38.23 0.79,76.47 0.98,114.7 0.2,38.16 0.2,76.39 -0.19,114.73l-0.31 29.75c-0.72,66.58 -1.45,133.13 0.73,199.86 1.25,39.09 1.53,78.3 1.22,117.56 -0.32,39.13 -1.23,78.34 -2.35,117.58 -0.55,18.53 -0.96,37.11 -0.74,55.78 0.22,18.55 1.07,37.1 3.07,55.6 1.03,9.48 2.2,19.16 3.47,28.98 1.32,10.25 2.64,19.83 3.95,28.96 2.2,15.45 3.48,30.94 4.75,46.41l0.88 10.55c0.15,1.73 0.26,3.45 0.34,5.18l-8.04 0c-0.08,-1.62 -0.19,-3.23 -0.32,-4.85l-0.89 -10.55c-1.26,-15.44 -2.54,-30.89 -4.73,-46.26 -1.46,-10.18 -2.8,-19.93 -3.97,-28.99 -1.23,-9.5 -2.4,-19.16 -3.47,-29.03 -2.01,-18.57 -2.86,-37.21 -3.08,-55.87 -0.22,-18.54 0.2,-37.21 0.75,-55.88 1.12,-39.13 2.03,-78.3 2.34,-117.52 0.31,-39.09 0.03,-78.23 -1.23,-117.46 -2.17,-66.54 -1.44,-133.25 -0.71,-199.98l0.3 -29.75c0.39,-38.13 0.39,-76.38 0.19,-114.68 -0.19,-38.23 -0.59,-76.47 -0.98,-114.7 -0.46,-45.49 -0.71,-90.99 -0.96,-136.48 -0.18,-35.15 -0.38,-70.31 -0.67,-105.46 -0.3,-38.86 0.81,-77.76 2.68,-116.7 1.87,-38.85 4.49,-77.75 7.2,-116.66 1.35,-19.38 2.62,-38.78 3.72,-58.19 1.08,-19.37 2.01,-38.76 2.69,-58.19 0.37,-10.14 0.61,-20.3 0.74,-30.51 0.12,-10.1 0.13,-20.26 0.04,-30.51 -0.07,-7.01 -0.2,-14.09 -0.45,-21.27 -0.23,-6.98 -0.58,-14.05 -1.1,-21.24 -0.92,-12.53 -2.12,-25.18 -4.21,-37.68 -2.09,-12.49 -5.09,-24.9 -9.6,-37.01 -1.53,-2.44 -3.25,-4.85 -5.19,-7.22 -1.95,-2.38 -4.13,-4.73 -6.55,-6.99l-0.04 -0.05c-5.71,-5.6 -8.35,-11.2 -7.93,-16.8 0.43,-5.59 3.91,-11.12 10.46,-16.57l0.26 -0.22c8.42,-4.51 16.94,-9.02 25.47,-13.46l0.36 -0.12c13.19,-4.52 26.9,-8.19 41.1,-10.99 14.18,-2.8 28.82,-4.74 43.91,-5.8 25.91,-2.28 53.62,-2.8 80.76,-1.23 25.15,1.47 49.9,4.74 72.38,10.13 12.35,2.44 23.56,5.79 33.58,10.05 10.02,4.25 18.87,9.4 26.52,15.44l0.16 0.15c3.34,3.12 6.42,6.43 9.07,9.86 2.53,3.26 4.69,6.63 6.33,10.02l2.06 4.22c4.99,10.22 9.99,20.44 13.07,31.05 2.22,7.72 4.15,15.54 5.78,23.4 1.63,7.85 2.95,15.68 3.92,23.45 1.24,9.65 2.16,19.3 2.81,28.94 0.65,9.53 1.07,19.21 1.32,28.96 1.91,73.68 -2.38,147.47 -6.67,221.27l-1.49 25.62c-2,34.25 -4,68.55 -3.97,102.87 0.04,21.27 0.15,42.61 0.33,64.03 0.19,21.27 0.44,42.62 0.77,64.02 0.66,41.87 1.16,83.75 1.65,125.61 0.4,35.35 0.82,70.71 1.33,106.05 0.58,39.04 0.91,78.14 0.98,117.33 0.07,39.04 -0.11,78.17 -0.61,117.36 -0.21,18.34 -0.42,36.68 -0.48,55.13 -0.06,18.3 0.04,36.65 0.45,55.09 0.47,21.6 1.17,43.48 1.86,65.35 0.6,18.52 1.19,37.04 1.66,55.95 1.24,50.81 -0.77,101.76 -2.79,152.71 -0.97,24.56 -1.94,49.13 -2.55,73.76 -0.57,23.11 -0.28,46.36 0.01,69.61 0.21,15.66 0.4,31.33 0.33,47.19 -0.04,9.32 -0.14,18.69 -0.37,28.14 -0.23,9.35 -0.6,18.75 -1.2,28.17l-0.23 3.5 -0.03 0.44 -8.03 0 0.03 -0.52 0.23 -3.5c0.6,-9.32 0.97,-18.68 1.2,-28.07 0.23,-9.28 0.32,-18.67 0.36,-28.08 0.07,-15.59 -0.12,-31.37 -0.33,-47.13 -0.28,-23.18 -0.58,-46.36 0,-69.71 0.6,-24.55 1.58,-49.18 2.55,-73.81 2.01,-50.82 4.02,-101.64 2.77,-152.54 -0.44,-18.39 -1.05,-37.15 -1.65,-55.92 -0.69,-21.7 -1.39,-43.4 -1.86,-65.38 -0.41,-18.29 -0.51,-36.71 -0.45,-55.17 0.06,-18.31 0.27,-36.73 0.49,-55.15 0.49,-39.05 0.67,-78.16 0.6,-117.32 -0.07,-39.02 -0.41,-78.13 -0.98,-117.29 -0.51,-35.34 -0.93,-70.7 -1.33,-106.04 -0.49,-41.88 -0.99,-83.75 -1.65,-125.62 -0.33,-21.28 -0.58,-42.63 -0.77,-64.04 -0.18,-21.27 -0.29,-42.63 -0.33,-64.04 -0.03,-34.28 1.98,-68.69 3.98,-103.04l1.49 -25.62c4.28,-73.66 8.56,-147.3 6.65,-221.04 -0.24,-9.52 -0.65,-19.12 -1.33,-28.84 -0.65,-9.62 -1.55,-19.22 -2.78,-28.77 -0.98,-7.81 -2.28,-15.57 -3.87,-23.25 -1.6,-7.73 -3.53,-15.47 -5.75,-23.18 -2.99,-10.31 -7.93,-20.44 -12.88,-30.56l-2.05 -4.21c-1.54,-3.18 -3.56,-6.33 -5.93,-9.4 -2.45,-3.2 -5.31,-6.28 -8.4,-9.18 -7.18,-5.67 -15.45,-10.49 -24.82,-14.46 -9.38,-3.98 -19.88,-7.12 -31.49,-9.42l-0.23 -0.06c-21.75,-5.22 -45.82,-8.41 -70.37,-9.84 -26.5,-1.54 -53.54,-1.02 -78.81,1.2l-0.11 0.01c-14.61,1.02 -28.75,2.89 -42.39,5.58 -13.51,2.67 -26.58,6.15 -39.21,10.46l-24.1 12.73c-5.45,4.61 -8.35,9.23 -8.69,13.84 -0.36,4.67 1.9,9.41 6.77,14.21 2.56,2.39 4.88,4.88 6.97,7.44 2.06,2.52 3.91,5.12 5.57,7.79l0.15 0.29z"/>
  <path class="fil1 str0" d="M1818.22 3892.72c-1.17,-11.23 -1.98,-22.42 -2.63,-33.51 -0.51,-8.71 -0.86,-17.55 -1.11,-26.5 -0.23,-8.68 -0.37,-17.53 -0.44,-26.49 -0.09,-12.57 -0.07,-25.22 0.05,-37.94 0.13,-12.56 0.37,-25.2 0.74,-37.93 0.68,-24.05 1.61,-48.17 2.71,-72.32 1.09,-24.08 2.36,-48.19 3.72,-72.28 2.7,-48.24 5.32,-96.46 7.19,-144.72 1.86,-48.15 2.96,-96.35 2.66,-144.66 -0.28,-43.63 -0.48,-87.27 -0.67,-130.89 -0.24,-56.47 -0.5,-112.95 -0.96,-169.42 -0.39,-47.46 -0.79,-94.91 -0.98,-142.35 -0.19,-47.37 -0.19,-94.83 0.2,-142.43l0.31 -36.92c0.71,-82.65 1.44,-165.24 -0.74,-248.07 -1.25,-48.53 -1.53,-97.19 -1.22,-145.93 0.32,-48.57 1.22,-97.24 2.35,-145.95 0.55,-23 0.96,-46.05 0.75,-69.22 -0.22,-23.03 -1.08,-46.06 -3.08,-69.02 -1.03,-11.77 -2.19,-23.78 -3.47,-35.97 -1.32,-12.72 -2.64,-24.61 -3.95,-35.93 -2.2,-19.19 -3.48,-38.42 -4.74,-57.62l-0.88 -13.1c-0.76,-10.97 -0.54,-21.84 0.28,-32.68 0.83,-10.84 2.24,-21.54 3.93,-32.27 -0.71,-7.19 -3.35,-13.55 -7.92,-19.06 -4.62,-5.57 -11.25,-10.33 -19.88,-14.25l-34.62 -13.34c-15.23,-4.1 -30.8,-7.22 -46.65,-9.36 -15.97,-2.14 -32.21,-3.29 -48.71,-3.43l-0.08 0c-16.49,-0.36 -32.85,0.28 -49.05,1.95 -16.08,1.64 -32.01,4.27 -47.71,7.9l-36.19 12.27c-9.1,3.64 -16.29,8.18 -21.58,13.59 -5.22,5.36 -8.65,11.63 -10.24,18.77 0.27,5.75 0.55,10.2 0.83,14.67 0.45,7.14 0.9,14.28 1.13,20.94 0.3,9.42 -0.21,18.97 -0.72,28.52l-0.23 4.34c-0.59,11.56 -0.96,23.19 -1.19,34.84 -0.23,11.53 -0.32,23.18 -0.37,34.85 -0.07,19.36 0.13,38.94 0.33,58.51 0.28,28.76 0.58,57.54 0.01,86.52 -0.61,30.48 -1.58,61.05 -2.56,91.62 -2.01,63.06 -4.02,126.16 -2.77,189.33 0.46,22.83 1.05,46.12 1.65,69.42 0.7,26.95 1.39,53.86 1.87,81.15 0.4,22.72 0.5,45.56 0.45,68.48 -0.07,22.73 -0.27,45.59 -0.49,68.45 -0.49,48.47 -0.68,97.02 -0.61,145.62 0.06,48.44 0.41,96.98 0.98,145.59 0.51,43.88 0.94,87.76 1.35,131.64 0.48,51.96 0.97,103.94 1.63,155.91 0.33,26.42 0.59,52.92 0.76,79.5 0.19,26.4 0.3,52.89 0.34,79.48 0.03,42.54 -1.97,85.25 -3.98,127.89l-1.49 31.8c-4.28,91.43 -8.56,182.85 -6.66,274.36 0.26,11.82 0.67,23.75 1.34,35.8 0.64,11.94 1.55,23.86 2.78,35.73 0.48,4.71 1.03,9.42 1.66,14.12l-8.1 0c-0.6,-4.53 -1.13,-9.06 -1.59,-13.56 -1.24,-12 -2.15,-23.97 -2.8,-35.93 -0.66,-11.82 -1.08,-23.83 -1.32,-35.94 -1.92,-91.44 2.38,-183.05 6.66,-274.66l1.5 -31.8c1.99,-42.51 3.99,-85.08 3.96,-127.68 -0.05,-26.39 -0.16,-52.88 -0.34,-79.47 -0.17,-26.4 -0.43,-52.91 -0.76,-79.48 -0.65,-51.96 -1.15,-103.93 -1.64,-155.9 -0.41,-43.88 -0.83,-87.76 -1.35,-131.63 -0.55,-48.45 -0.9,-97 -0.97,-145.64 -0.07,-48.46 0.11,-97.03 0.61,-145.67 0.22,-22.76 0.42,-45.53 0.49,-68.42 0.05,-22.73 -0.05,-45.5 -0.46,-68.4 -0.47,-26.81 -1.16,-53.96 -1.87,-81.11 -0.59,-22.98 -1.19,-45.97 -1.65,-69.44 -1.23,-63.07 0.77,-126.31 2.79,-189.55 0.97,-30.49 1.95,-60.99 2.55,-91.56 0.58,-28.67 0.28,-57.54 -0.01,-86.4 -0.2,-19.44 -0.4,-38.88 -0.33,-58.57 0.04,-11.57 0.14,-23.2 0.37,-34.92 0.24,-11.63 0.61,-23.29 1.21,-34.98l0.22 -4.36c0.5,-9.34 1.01,-18.68 0.7,-28.15 -0.24,-7.26 -0.68,-14.04 -1.09,-20.81 -0.35,-5.45 -0.69,-10.9 -0.89,-14.99l0.07 -0.54c1.75,-8.19 5.66,-15.38 11.71,-21.56 6.04,-6.18 14.19,-11.32 24.44,-15.43l36.82 -12.48 0.51 -0.13c16.26,-3.78 32.71,-6.53 49.3,-8.22 16.61,-1.69 33.41,-2.36 50.38,-1.99 16.99,0.16 33.67,1.34 50.03,3.53 16.35,2.2 32.43,5.43 48.21,9.7l0.48 0.15 35.24 13.59c9.71,4.41 17.23,9.79 22.51,16.15 5.28,6.34 8.31,13.64 9.06,21.87l-0.02 0.51c-1.71,10.85 -3.15,21.57 -3.95,32.19 -0.81,10.66 -1.02,21.33 -0.29,32.1l0.88 13.1c1.27,19.16 2.54,38.34 4.73,57.41 1.47,12.63 2.82,24.73 3.99,35.99 1.22,11.8 2.39,23.79 3.46,36.04 2.01,23.04 2.87,46.19 3.08,69.35 0.22,23.01 -0.2,46.18 -0.74,69.35 -1.13,48.58 -2.03,97.19 -2.35,145.88 -0.31,48.51 -0.02,97.1 1.23,145.79 2.17,82.6 1.43,165.38 0.73,248.23l-0.32 36.92c-0.39,47.32 -0.39,94.81 -0.19,142.34 0.2,47.46 0.59,94.91 0.98,142.37 0.46,56.46 0.72,112.95 0.96,169.41 0.19,43.63 0.38,87.27 0.67,130.89 0.3,48.24 -0.8,96.53 -2.68,144.86 -1.86,48.23 -4.48,96.51 -7.2,144.81 -1.35,24.05 -2.61,48.14 -3.71,72.23 -1.09,24.03 -2.02,48.11 -2.7,72.22 -0.36,12.57 -0.6,25.19 -0.73,37.88 -0.14,12.52 -0.14,25.14 -0.05,37.86 0.07,8.71 0.21,17.48 0.45,26.4 0.23,8.66 0.58,17.44 1.1,26.35 0.67,11.27 1.48,22.61 2.67,33.9l-8.08 0z"/>
  <path class="fil1 str0" d="M2617.95 1373.17c-4.62,18.34 -7.68,37.05 -9.8,55.85 -2.12,18.84 -3.33,37.66 -4.25,56.25 -0.51,10.39 -0.86,20.95 -1.1,31.64 -0.23,10.37 -0.37,20.95 -0.43,31.65 -0.1,15.02 -0.09,30.12 0.04,45.3 0.12,15.01 0.36,30.11 0.73,45.31 0.68,28.73 1.61,57.53 2.71,86.37 1.1,28.76 2.36,57.55 3.72,86.33 2.71,57.61 5.33,115.21 7.2,172.84 1.85,57.52 2.96,115.1 2.66,172.78 -0.29,52.12 -0.49,104.23 -0.67,156.34 -0.24,67.45 -0.5,134.9 -0.96,202.34 -0.39,56.68 -0.79,113.36 -0.98,170.03 -0.2,56.58 -0.2,113.25 0.19,170.09l0.31 44.1c0.72,98.71 1.44,197.36 -0.73,296.28 -1.25,57.97 -1.53,116.08 -1.22,174.3 0.32,58 1.23,116.13 2.35,174.3 0.55,27.48 0.96,55.01 0.74,82.68 -0.22,27.51 -1.07,55.02 -3.07,82.44 -1.03,14.06 -2.2,28.41 -3.47,42.96 -1.32,15.2 -2.64,29.39 -3.95,42.92 -2.2,22.92 -3.48,45.89 -4.75,68.82l-0.71 12.7 8.05 0 0.69 -12.22c1.26,-22.88 2.53,-45.78 4.73,-68.57 1.46,-15.09 2.8,-29.54 3.97,-42.98 1.23,-14.09 2.4,-28.4 3.47,-43.03 2.01,-27.53 2.86,-55.17 3.08,-82.82 0.22,-27.5 -0.2,-55.18 -0.75,-82.85 -1.12,-58.02 -2.03,-116.08 -2.34,-174.23 -0.31,-57.95 -0.03,-115.97 1.23,-174.13 2.17,-98.64 1.44,-197.53 0.71,-296.46l-0.3 -44.1c-0.39,-56.53 -0.39,-113.23 -0.19,-170.01 0.19,-56.68 0.59,-113.36 0.98,-170.04 0.46,-67.44 0.71,-134.89 0.96,-202.34 0.18,-52.11 0.38,-104.23 0.67,-156.33 0.3,-57.62 -0.81,-115.29 -2.68,-173 -1.87,-57.61 -4.49,-115.27 -7.2,-172.96 -1.35,-28.73 -2.62,-57.49 -3.72,-86.27 -1.08,-28.7 -2.01,-57.46 -2.69,-86.26 -0.37,-15.02 -0.61,-30.09 -0.74,-45.23 -0.12,-14.97 -0.13,-30.05 -0.04,-45.22 0.07,-10.41 0.2,-20.89 0.45,-31.55 0.23,-10.34 0.58,-20.81 1.1,-31.47 0.92,-18.58 2.12,-37.34 4.21,-55.87 2.09,-18.51 5.09,-36.91 9.6,-54.87 1.53,-3.61 3.25,-7.19 5.19,-10.7 1.95,-3.54 4.13,-7.01 6.55,-10.37l0.04 -0.07c5.71,-8.3 8.35,-16.61 7.93,-24.9 -0.43,-8.29 -3.91,-16.49 -10.46,-24.56l-0.26 -0.34c-8.42,-6.68 -16.94,-13.38 -25.47,-19.94l-0.36 -0.19c-13.19,-6.7 -26.9,-12.14 -41.1,-16.29 -14.18,-4.14 -28.82,-7.02 -43.91,-8.6 -25.91,-3.37 -53.62,-4.15 -80.76,-1.81 -25.15,2.16 -49.9,7.03 -72.38,15.01 -12.35,3.62 -23.56,8.59 -33.58,14.89 -10.02,6.31 -18.87,13.94 -26.52,22.9l-0.16 0.22c-3.34,4.62 -6.42,9.54 -9.07,14.61 -2.53,4.84 -4.69,9.83 -6.33,14.86l-2.06 6.25c-4.99,15.15 -9.99,30.31 -13.07,46.04 -2.22,11.44 -4.15,23.03 -5.78,34.7 -1.63,11.62 -2.95,23.23 -3.92,34.76 -1.24,14.3 -2.16,28.61 -2.81,42.9 -0.65,14.12 -1.07,28.46 -1.32,42.93 -1.91,109.22 2.38,218.62 6.67,328.02l1.49 37.98c2,50.78 4,101.63 3.97,152.51 -0.04,31.52 -0.15,63.16 -0.33,94.91 -0.19,31.55 -0.44,63.19 -0.77,94.92 -0.66,62.07 -1.16,124.15 -1.65,186.23 -0.4,52.4 -0.82,104.81 -1.33,157.21 -0.58,57.85 -0.91,115.84 -0.98,173.92 -0.07,57.9 0.11,115.89 0.61,173.99 0.21,27.19 0.42,54.38 0.48,81.73 0.06,27.13 -0.04,54.34 -0.45,81.69 -0.47,32.01 -1.17,64.44 -1.86,96.86 -0.6,27.45 -1.19,54.92 -1.66,82.96 -1.24,75.32 0.77,150.85 2.79,226.38 0.97,36.42 1.94,72.83 2.55,109.36 0.57,34.24 0.28,68.71 -0.01,103.18 -0.21,23.22 -0.4,46.45 -0.33,69.96 0.04,13.82 0.14,27.71 0.37,41.7 0.2,12.3 0.52,24.62 1.01,37l8.02 0c-0.48,-12.28 -0.79,-24.6 -1,-36.94 -0.23,-13.78 -0.32,-27.69 -0.36,-41.64 -0.07,-23.11 0.12,-46.5 0.33,-69.88 0.28,-34.35 0.58,-68.72 0,-103.34 -0.6,-36.39 -1.58,-72.9 -2.55,-109.41 -2.01,-75.35 -4.02,-150.69 -2.77,-226.14 0.44,-27.27 1.04,-55.08 1.65,-82.9 0.69,-32.17 1.39,-64.34 1.86,-96.92 0.41,-27.12 0.51,-54.42 0.45,-81.8 -0.06,-27.14 -0.27,-54.45 -0.49,-81.75 -0.49,-57.89 -0.67,-115.88 -0.6,-173.93 0.07,-57.85 0.41,-115.82 0.98,-173.88 0.51,-52.4 0.93,-104.81 1.33,-157.21 0.49,-62.08 0.99,-124.16 1.65,-186.23 0.33,-31.55 0.58,-63.2 0.77,-94.93 0.18,-31.54 0.29,-63.2 0.33,-94.94 0.03,-50.81 -1.98,-101.82 -3.98,-152.75l-1.49 -37.99c-4.28,-109.19 -8.56,-218.37 -6.65,-327.68 0.24,-14.12 0.65,-28.36 1.33,-42.76 0.65,-14.26 1.55,-28.48 2.78,-42.65 0.98,-11.57 2.28,-23.08 3.87,-34.47 1.6,-11.46 3.53,-22.93 5.75,-34.37 2.99,-15.28 7.93,-30.29 12.88,-45.29l2.05 -6.25c1.54,-4.7 3.56,-9.39 5.93,-13.94 2.45,-4.72 5.31,-9.3 8.4,-13.59 7.18,-8.41 15.45,-15.56 24.82,-21.45 9.38,-5.9 19.88,-10.56 31.49,-13.96l0.23 -0.09c21.75,-7.74 45.82,-12.46 70.37,-14.59 26.5,-2.28 53.54,-1.51 78.81,1.78l0.11 0.01c14.61,1.53 28.75,4.29 42.39,8.28 13.51,3.95 26.58,9.13 39.21,15.51l24.1 18.87c5.44,6.83 8.35,13.68 8.69,20.51 0.35,6.93 -1.9,13.96 -6.77,21.07 -2.56,3.54 -4.88,7.23 -6.97,11.03 -2.06,3.73 -3.91,7.59 -5.57,11.55l-0.15 0.44z"/>
  <path class="fil2" d="M1033.88 2351.42c-51.22,32.35 -114.18,39.55 -168.72,54.69 -12.23,3.39 -18.44,-23.46 -5.81,-28.6 54.38,-22.3 114.27,-57.2 170.7,-61.43 14.32,-1.08 15.66,27.85 3.83,35.34z"/>
  <path class="fil2" d="M1042.23 2534.64c-54.37,17.01 -117.08,5.94 -172.53,5.1 -12.44,-0.2 -15.14,-28.34 -2.09,-29.76 56.2,-6.22 119.39,-23.23 175.32,-11.13 14.19,3.06 11.86,31.85 -0.7,35.79z"/>
  <path class="fil2" d="M1045.87 2707.18c-51.22,24.52 -114.18,29.98 -168.71,41.46 -12.24,2.56 -18.44,-17.79 -5.82,-21.69 54.39,-16.9 114.27,-43.35 170.7,-46.56 14.32,-0.82 15.67,21.11 3.83,26.79z"/>
  <path class="fil2" d="M1044.21 2989.1c-38.06,-32.35 -84.83,-39.55 -125.35,-54.69 -9.09,-3.38 -13.7,23.46 -4.32,28.61 40.41,22.29 84.9,57.19 126.83,61.42 10.63,1.09 11.63,-27.85 2.84,-35.34z"/>
  <path class="fil2" d="M1022.16 2197.14c-40.66,-25.67 -90.62,-31.39 -133.91,-43.4 -9.7,-2.69 -14.63,18.62 -4.61,22.7 43.16,17.7 90.69,45.39 135.48,48.75 11.36,0.86 12.43,-22.1 3.04,-28.05z"/>
  <path class="fil2" d="M1042.15 3141.72c-51.22,32.35 -114.18,39.55 -168.72,54.69 -12.23,3.39 -18.43,-23.46 -5.81,-28.6 54.39,-22.3 114.27,-57.2 170.7,-61.43 14.32,-1.08 15.66,27.85 3.83,35.34z"/>
  <path class="fil2" d="M1042.15 3336.85c-51.22,32.35 -114.18,39.55 -168.72,54.69 -12.23,3.39 -18.43,-23.46 -5.81,-28.6 54.39,-22.3 114.27,-57.2 170.7,-61.43 14.32,-1.08 15.66,27.85 3.83,35.34z"/>
  <path class="fil2" d="M1028.98 3589.34c-51.23,32.35 -114.18,39.55 -168.72,54.69 -12.23,3.38 -18.44,-23.46 -5.81,-28.61 54.38,-22.29 114.26,-57.19 170.7,-61.42 14.31,-1.09 15.66,27.85 3.83,35.34z"/>
  <path class="fil2" d="M1019.32 3827.19c-39.25,-24.79 -87.49,-30.3 -129.28,-41.9 -9.37,-2.6 -14.13,17.97 -4.45,21.92 41.67,17.08 87.55,43.82 130.79,47.06 10.98,0.83 12,-21.34 2.94,-27.08z"/>
  <path class="fil2" d="M1815.97 2048.47c-52.75,39.7 -117.59,48.53 -173.75,67.11 -12.6,4.15 -18.99,-28.79 -5.99,-35.1 56.01,-27.36 117.68,-70.19 175.8,-75.38 14.75,-1.33 16.13,34.18 3.94,43.37z"/>
  <path class="fil2" d="M1824.57 2273.3c-55.99,20.88 -120.58,7.3 -177.68,6.26 -12.81,-0.25 -15.59,-34.78 -2.16,-36.51 57.88,-7.64 122.97,-28.52 180.57,-13.67 14.61,3.76 12.21,39.09 -0.73,43.92z"/>
  <path class="fil2" d="M1828.33 2485.03c-52.76,30.1 -117.6,36.79 -173.76,50.88 -12.6,3.15 -18.99,-21.83 -5.99,-26.61 56.01,-20.74 117.68,-53.2 175.8,-57.14 14.75,-1.01 16.13,25.91 3.95,32.87z"/>
  <path class="fil2" d="M1826.61 2831c-39.19,-39.71 -87.36,-48.54 -129.09,-67.12 -9.36,-4.15 -14.11,28.79 -4.45,35.1 41.61,27.36 87.43,70.19 130.61,75.38 10.96,1.33 11.99,-34.18 2.93,-43.36z"/>
  <path class="fil2" d="M2597.54 3173.83c-39.19,-39.7 -87.36,-48.54 -129.09,-67.12 -9.36,-4.15 -14.11,28.8 -4.45,35.11 41.61,27.36 87.43,70.18 130.61,75.37 10.96,1.33 11.98,-34.17 2.93,-43.36z"/>
  <path class="fil2" d="M3235.33 2652.59c39.2,39.7 87.37,48.53 129.1,67.11 9.36,4.15 14.11,-28.79 4.44,-35.1 -41.61,-27.36 -87.43,-70.19 -130.61,-75.38 -10.95,-1.33 -11.98,34.18 -2.93,43.37z"/>
  <path class="fil2" d="M1803.9 1859.15c-41.87,-31.51 -93.33,-38.52 -137.9,-53.27 -10,-3.3 -15.07,22.85 -4.75,27.86 44.45,21.71 93.4,55.7 139.52,59.82 11.7,1.06 12.8,-27.12 3.13,-34.41z"/>
  <path class="fil2" d="M1824.49 3018.28c-52.75,39.7 -117.59,48.53 -173.75,67.11 -12.6,4.16 -19,-28.79 -5.99,-35.1 56.01,-27.36 117.68,-70.19 175.8,-75.38 14.75,-1.33 16.13,34.18 3.94,43.37z"/>
  <path class="fil2" d="M2595.42 3361.11c-52.75,39.7 -117.59,48.54 -173.76,67.12 -12.6,4.15 -18.99,-28.8 -5.98,-35.11 56,-27.36 117.68,-70.18 175.8,-75.37 14.74,-1.34 16.13,34.17 3.94,43.36z"/>
  <path class="fil2" d="M3397.55 3503.29c-52.76,39.71 -117.6,48.54 -173.76,67.12 -12.6,4.15 -18.99,-28.79 -5.99,-35.11 56.01,-27.36 117.68,-70.18 175.8,-75.37 14.75,-1.33 16.13,34.17 3.95,43.36z"/>
  <path class="fil2" d="M3237.45 2465.31c52.76,-39.71 117.59,-48.54 173.76,-67.12 12.6,-4.15 18.99,28.79 5.99,35.1 -56.01,27.36 -117.68,70.19 -175.8,75.38 -14.75,1.33 -16.13,-34.18 -3.95,-43.36z"/>
  <path class="fil2" d="M1824.49 3257.73c-52.75,39.7 -117.59,48.54 -173.75,67.12 -12.6,4.15 -19,-28.8 -5.99,-35.11 56.01,-27.36 117.68,-70.18 175.8,-75.37 14.75,-1.33 16.13,34.17 3.94,43.36z"/>
  <path class="fil2" d="M2595.42 3600.56c-52.75,39.71 -117.59,48.54 -173.76,67.12 -12.6,4.15 -18.99,-28.79 -5.98,-35.1 56,-27.36 117.68,-70.19 175.8,-75.38 14.74,-1.33 16.13,34.18 3.94,43.36z"/>
  <path class="fil2" d="M3397.55 3742.75c-52.76,39.7 -117.6,48.53 -173.76,67.11 -12.6,4.15 -18.99,-28.79 -5.99,-35.1 56.01,-27.36 117.68,-70.19 175.8,-75.38 14.75,-1.33 16.13,34.18 3.95,43.37z"/>
  <path class="fil2" d="M3237.45 2225.85c52.76,-39.7 117.59,-48.53 173.76,-67.12 12.6,-4.15 18.99,28.8 5.99,35.11 -56.01,27.36 -117.68,70.19 -175.8,75.37 -14.75,1.34 -16.13,-34.17 -3.95,-43.36z"/>
  <path class="fil2" d="M1810.92 3567.57c-52.75,39.7 -117.59,48.53 -173.75,67.11 -12.6,4.16 -19,-28.79 -5.99,-35.1 56.01,-27.36 117.68,-70.19 175.8,-75.38 14.75,-1.33 16.13,34.18 3.94,43.37z"/>
  <path class="fil2" d="M1800.98 3859.45c-40.42,-30.42 -90.11,-37.19 -133.14,-51.43 -9.66,-3.18 -14.56,22.07 -4.59,26.9 42.92,20.97 90.17,53.78 134.71,57.76 11.29,1.02 12.36,-26.19 3.02,-33.23z"/>
  <path class="fil2" d="M2417.46 1527.43c56.27,32.35 125.44,39.55 185.36,54.69 13.44,3.38 20.26,-23.46 6.39,-28.6 -59.75,-22.3 -125.54,-57.2 -187.55,-61.43 -15.73,-1.08 -17.2,27.85 -4.2,35.34z"/>
  <path class="fil2" d="M2408.29 1710.65c59.73,17.01 128.63,5.94 189.55,5.1 13.66,-0.2 16.63,-28.35 2.3,-29.76 -61.75,-6.22 -131.18,-23.23 -192.63,-11.13 -15.59,3.06 -13.02,31.85 0.78,35.79z"/>
  <path class="fil2" d="M2404.28 1883.19c56.28,24.52 125.45,29.98 185.37,41.46 13.44,2.56 20.26,-17.79 6.38,-21.69 -59.75,-16.9 -125.54,-43.35 -187.54,-46.56 -15.73,-0.82 -17.21,21.11 -4.21,26.79z"/>
  <path class="fil2" d="M2406.11 2165.11c41.81,-32.35 93.2,-39.55 137.71,-54.69 9.99,-3.38 15.06,23.46 4.75,28.61 -44.39,22.29 -93.27,57.19 -139.34,61.42 -11.69,1.08 -12.78,-27.85 -3.12,-35.34z"/>
  <path class="fil2" d="M2430.33 1373.15c44.67,-25.68 99.57,-31.39 147.12,-43.41 10.67,-2.68 16.08,18.63 5.07,22.71 -47.42,17.69 -99.64,45.39 -148.85,48.75 -12.48,0.86 -13.65,-22.11 -3.34,-28.05z"/>
  <path class="fil2" d="M2408.37 2317.73c56.28,32.35 125.44,39.55 185.36,54.69 13.44,3.38 20.26,-23.46 6.39,-28.61 -59.75,-22.29 -125.54,-57.19 -187.54,-61.42 -15.74,-1.08 -17.21,27.85 -4.21,35.34z"/>
  <path class="fil2" d="M2408.37 2512.86c56.28,32.35 125.44,39.55 185.36,54.69 13.44,3.39 20.26,-23.46 6.39,-28.6 -59.75,-22.3 -125.54,-57.2 -187.54,-61.43 -15.74,-1.08 -17.21,27.85 -4.21,35.34z"/>
  <path class="fil2" d="M3424.51 3313.56c-56.28,-32.36 -125.45,-39.56 -185.37,-54.7 -13.44,-3.38 -20.26,23.47 -6.38,28.61 59.74,22.3 125.54,57.19 187.54,61.42 15.73,1.09 17.21,-27.85 4.21,-35.33z"/>
  <path class="fil2" d="M2422.84 2765.34c56.28,32.36 125.45,39.56 185.37,54.7 13.44,3.38 20.26,-23.47 6.38,-28.61 -59.74,-22.29 -125.54,-57.19 -187.54,-61.42 -15.73,-1.09 -17.21,27.85 -4.21,35.33z"/>
  <path class="fil2" d="M3410.03 3061.07c-56.28,-32.35 -125.45,-39.55 -185.37,-54.69 -13.44,-3.39 -20.26,23.46 -6.38,28.6 59.75,22.3 125.54,57.2 187.54,61.43 15.73,1.08 17.21,-27.85 4.21,-35.34z"/>
  <path class="fil2" d="M2433.45 3003.2c43.13,-24.79 96.13,-30.3 142.04,-41.91 10.3,-2.59 15.53,17.98 4.89,21.92 -45.78,17.09 -96.19,43.83 -143.7,47.07 -12.05,0.83 -13.19,-21.34 -3.23,-27.08z"/>
  <path class="fil2" d="M3399.42 2823.21c-43.12,24.79 -96.12,30.31 -142.04,41.91 -10.3,2.59 -15.52,-17.98 -4.89,-21.92 45.78,-17.08 96.2,-43.82 143.71,-47.06 12.05,-0.84 13.18,21.34 3.22,27.07z"/>
  <rect class="fil3" x="-6.69" y="17.57" width="4343.41" height="4343.59"/>
 </g>
</svg>
