<?xml version="1.0" encoding="UTF-8"?>
<!DOCTYPE svg PUBLIC "-//W3C//DTD SVG 1.1//EN" "http://www.w3.org/Graphics/SVG/1.1/DTD/svg11.dtd">
<!-- Creator: CorelDRAW 2018 (64-Bit) -->
<svg xmlns="http://www.w3.org/2000/svg" xml:space="preserve" width="43.4338mm" height="43.4338mm" version="1.1" style="shape-rendering:geometricPrecision; text-rendering:geometricPrecision; image-rendering:optimizeQuality; fill-rule:evenodd; clip-rule:evenodd"
viewBox="0 0 4343.38 4343.38"
 xmlns:xlink="http://www.w3.org/1999/xlink">
 <defs>
  <style type="text/css">
   <![CDATA[
    .fil2 {fill:none}
    .fil0 {fill:#434242;fill-rule:nonzero}
    .fil1 {fill:#2B2A29;fill-rule:nonzero}
   ]]>
  </style>
 </defs>
 <g id="Слой_x0020_1">
  <metadata id="CorelCorpID_0Corel-Layer"/>
  <path class="fil0" d="M243.64 4304.67c18.09,-67.81 62.83,-32.03 58.61,-432.1 -0.83,-31.4 3.62,-62.8 -2.44,-94.15 -2.97,-15.47 -21.83,-18.34 -45.37,-19.06l-0.02 -13.85c21.12,-7.31 40.47,-32.16 35.74,-85.51 0.67,-67.38 1.32,-1075.68 1.93,-1143.05 0.27,-24.45 0.41,-48.94 0.96,-73.39 2.75,-120.15 5.46,-240.32 8.21,-360.49 2.14,-95.43 6.06,-190.78 9.18,-286.16 21.15,-645.15 -5.75,-890.99 -34.66,-1023.93l-89.89 0 -1.47 25.05c-0.36,-7.14 -0.68,-15.33 -0.91,-25.05l-68.23 0c0.64,26.87 1.39,53.73 2.18,80.59 3.16,107.11 7.46,214.33 13.59,321.29 5.62,97.8 9.25,195.74 13.81,293.61 1.37,29.43 1.51,58.86 1.91,88.35 0.89,67.72 1.82,135.41 2.72,203.15 0.35,27.74 0.88,55.48 0.61,83.21 -0.61,61.42 -1.26,122.85 -1.9,184.28 -0.86,84.51 -1.88,168.95 -3.9,253.45 -4.98,212.56 -10.59,425.09 -16.37,637.62 -2.52,92.42 -3.54,184.93 -5.23,277.37 -1.43,80.23 -2.86,160.46 -4.04,240.67 -1.5,100.15 -2.66,200.33 -4.56,300.48 -2.13,116.05 -4.39,232.05 -2.56,348.11 1.18,73.23 3.92,146.4 7.45,219.51l124.65 0z"/>
  <path class="fil0" d="M559.79 3901.56c19.3,-4.7 40.06,20.46 90.66,-53.64 3.69,-6.02 10.39,-9.85 11.09,-18.04 0.35,-4.04 -10.01,-12.44 -23.34,-22.4l1.83 -2.51c13.01,7.5 27.33,11.09 31.7,-0.53 9.31,-11.91 143.29,-193.94 152.56,-205.87 3.39,-4.31 6.72,-8.68 10.27,-12.87 17.49,-20.57 34.96,-41.17 52.45,-61.75 13.86,-16.36 28.73,-31.96 43.15,-47.9 97.54,-107.82 114.78,-163.5 115.92,-199.61l-51.24 -37.55 -4.15 3.92c0.74,-1.45 1.64,-3.06 2.8,-4.91l-38.89 -28.5c-3.2,5.12 -6.33,10.29 -9.43,15.48 -12.4,20.68 -24.15,41.87 -34.83,63.76 -9.76,20.04 -20.66,39.26 -31.04,58.86 -3.11,5.89 -6.93,11.27 -10.61,16.77 -8.47,12.62 -16.91,25.24 -25.37,37.87 -3.48,5.16 -6.85,10.4 -10.68,15.3 -8.49,10.85 -17,21.69 -25.5,32.53 -11.69,14.92 -23.46,29.76 -35.81,44.19 -31,36.35 -62.36,72.44 -93.82,108.45 -13.68,15.66 -26.52,31.96 -39.73,47.97 -11.45,13.9 -22.89,27.81 -34.19,41.82 -14.13,17.48 -28.06,35.11 -42.42,52.43 -16.59,20.09 -33.25,40.12 -47.58,61.87 -9.03,13.73 -17.17,28.1 -24.84,42.8l71.04 52.06z"/>
  <path class="fil0" d="M2234.89 2083.21c14.83,3.24 20.65,27.5 80.29,-6.42 4.56,-2.9 10.44,-3.28 13.68,-8.68 1.59,-2.65 -2.71,-11.9 -8.52,-23.22l2.1 -1.11c6.42,9.52 15.05,16.79 21.96,10.27 10.39,-5.05 163.55,-85.13 173.92,-90.22 3.78,-1.82 7.53,-3.7 11.38,-5.39 18.92,-8.26 37.84,-16.55 56.76,-24.82 15.02,-6.58 30.47,-12.31 45.73,-18.43 103.21,-41.32 133.75,-73.79 146.65,-98.22l-22.59 -42.99 -4.17 1.29c0.99,-0.74 2.15,-1.55 3.57,-2.43l-17.15 -32.64c-3.92,2.45 -7.8,4.95 -11.68,7.47 -15.46,10.05 -30.65,20.66 -45.33,32.12 -13.43,10.49 -27.38,20.03 -41.08,30.02 -4.13,3 -8.56,5.41 -12.93,7.96 -10.05,5.82 -20.09,11.66 -30.14,17.5 -4.12,2.38 -8.2,4.84 -12.47,6.92 -9.48,4.61 -18.96,9.2 -28.44,13.79 -13.04,6.33 -26.11,12.57 -39.44,18.34 -33.51,14.57 -67.16,28.83 -100.86,43.01 -14.66,6.17 -28.95,13.06 -43.4,19.62 -12.54,5.71 -25.07,11.42 -37.54,17.25 -15.57,7.27 -31.06,14.71 -46.74,21.79 -18.14,8.23 -36.31,16.4 -53.46,26.53 -10.82,6.4 -21.23,13.54 -31.44,21.06l31.34 59.63z"/>
  <path class="fil0" d="M1338.01 2887.57c19.74,-2.17 37.08,25.46 96.82,-41.49 4.44,-5.5 11.57,-8.42 13.33,-16.46 0.87,-3.96 -8.33,-13.62 -20.25,-25.22l2.13 -2.26c11.93,9.12 25.67,14.53 31.51,3.57 10.76,-10.6 167.12,-173.82 177.85,-184.45 3.92,-3.84 7.79,-7.74 11.85,-11.44 20,-18.14 39.98,-36.31 59.98,-54.46 15.86,-14.44 32.61,-27.99 48.97,-41.94 110.64,-94.32 134.93,-147.31 140.72,-182.97l-45.96 -43.85 -4.63 3.35c0.92,-1.34 2.02,-2.82 3.41,-4.51l-34.88 -33.28c-3.83,4.67 -7.61,9.39 -11.36,14.13 -14.96,18.91 -29.35,38.4 -42.77,58.74 -12.25,18.61 -25.55,36.26 -38.37,54.36 -3.85,5.44 -8.33,10.28 -12.69,15.26 -10.02,11.42 -20.03,22.85 -30.04,34.28 -4.12,4.67 -8.14,9.42 -12.57,13.79 -9.81,9.66 -19.65,19.31 -29.48,28.96 -13.52,13.29 -27.11,26.49 -41.22,39.21 -35.44,32.04 -71.19,63.77 -107.03,95.42 -15.59,13.77 -30.42,28.27 -45.59,42.44 -13.15,12.32 -26.29,24.63 -39.31,37.06 -16.26,15.52 -32.36,31.2 -48.82,46.52 -19.05,17.78 -38.16,35.49 -55.18,55.2 -10.73,12.46 -20.65,25.66 -30.15,39.24l63.73 60.8z"/>
  <path class="fil0" d="M3619.28 2689.5c-14.07,-3.88 -22.88,31.67 -72.72,-59.71 -3.76,-7.48 -9.1,-11.7 -11.29,-22.39 -1.09,-5.27 4.19,-17.55 11.13,-32.23l-1.76 -3.09c-7.25,11.41 -16.21,17.84 -21.61,3.08 -8.8,-14.54 -137.78,-237.87 -146.56,-252.44 -3.21,-5.26 -6.38,-10.61 -9.66,-15.7 -16.17,-24.96 -32.33,-49.95 -48.5,-74.92 -12.82,-19.85 -26.17,-38.59 -39.29,-57.83 -88.72,-130.1 -112.07,-201.25 -120.41,-248.59l26.88 -55.47 3.64 4.65c-0.8,-1.81 -1.75,-3.82 -2.93,-6.12l20.41 -42.1c3.24,6.35 6.45,12.77 9.64,19.22 12.73,25.72 25.14,52.16 36.97,79.68 10.81,25.17 22.23,49.14 33.37,73.67 3.35,7.38 7.06,14 10.71,20.78 8.38,15.58 16.75,31.17 25.13,46.76 3.44,6.38 6.82,12.85 10.45,18.84 8.02,13.26 16.06,26.48 24.1,39.72 11.05,18.22 22.14,36.33 33.54,53.83 28.64,44.09 57.46,87.79 86.33,131.38 12.55,18.96 24.67,38.85 36.99,58.33 10.67,16.91 21.34,33.83 31.94,50.9 13.24,21.3 26.38,42.81 39.74,63.87 15.46,24.43 30.95,48.77 45.23,75.65 9,16.98 17.52,34.91 25.8,53.31l-37.27 76.92z"/>
  <path class="fil0" d="M4253.48 4151.07c-158.1,-30.79 -445.26,-55.82 -1110.48,-32.76 -107.11,3.66 -214.19,8.33 -321.33,10.89 -134.96,3.25 -269.91,6.47 -404.84,9.72 -27.45,0.65 -54.95,0.83 -82.41,1.15 -75.66,0.72 -151.35,1.51 -227.01,2.3 -56.67,0.55 -113.37,1.14 -170.01,1.73 -32.56,0.3 -65.09,-0.21 -97.64,-0.35 -128.52,-0.53 -257.05,-1.14 -385.57,-1.66 -38.3,-0.15 -76.66,-1.45 -114.98,-2.2 -78.56,-1.5 -157.14,-3.07 -235.78,-4.63 -97.11,-1.89 -194.19,-4.55 -291.33,-7.26 -196.53,-2.19 -299.35,6.77 -359.26,19.29 -174.12,13.23 -264.84,34.46 -331.23,53.6l-7.23 0.18 0 85.06c42.94,3.15 83.09,5.87 115.3,7.6 90.16,4.83 180.39,8.61 270.7,10.14 130.08,2.17 260.1,-0.51 390.14,-3.05 112.25,-2.26 224.5,-3.6 336.76,-5.39 89.89,-1.4 179.8,-3.12 269.71,-4.81 103.63,-2.03 207.3,-3.21 310.85,-6.22 181.04,-5.2 923.91,-10.34 1374.67,-15.06l67.08 1.1c112.36,1.79 224.73,3.17 337.08,5.41 46.2,0.91 92.36,1.81 138.56,2.54l36.8 2.31c119.88,7.28 240.05,12.38 360.08,16.12 43.78,1.38 87.58,2.62 131.37,3.53l0 -149.28z"/>
  <path class="fil1" d="M1262.81 3160.41c-62.47,53.2 -165.59,29.18 -203.39,-37.57 -9.4,-16.62 -19.35,-40.91 -19.58,-59.88 -0.21,-16.09 3.29,-31.97 8.56,-47.23 10.29,-29.58 21.76,-54.74 47.31,-75.98 11.67,-9.74 27.12,-20.66 41.81,-26.1 17.23,-6.37 40.32,-9.97 58.87,-8.12 31.32,3.13 60.26,15.2 83.92,34.28 74.67,60.21 48.07,164.72 -17.5,220.6zm34.56 -231c-44.46,-38.15 -96.98,-46.88 -152.93,-32.07 -50.64,13.42 -94.73,53.88 -109.7,97.59 -14.31,30.75 -19.87,65.06 -14.06,97.31 9.06,50.42 48.94,93.48 98.59,114.09 50.94,21.14 106.3,7.44 148.74,-22.89 89.34,-63.81 115.86,-179.77 29.36,-254.03z"/>
  <path class="fil1" d="M2096.47 2276.99c-62.48,53.2 -165.59,29.18 -203.39,-37.57 -9.4,-16.62 -19.35,-40.91 -19.59,-59.88 -0.2,-16.09 3.3,-31.97 8.56,-47.23 10.29,-29.58 21.76,-54.74 47.32,-75.98 11.67,-9.74 27.12,-20.66 41.8,-26.1 17.24,-6.37 40.32,-9.97 58.88,-8.12 31.32,3.13 60.25,15.2 83.92,34.28 74.66,60.21 48.07,164.72 -17.5,220.6zm34.55 -231c-44.45,-38.15 -96.97,-46.88 -152.93,-32.07 -50.64,13.42 -94.72,53.88 -109.69,97.59 -14.31,30.75 -19.87,65.06 -14.07,97.31 9.06,50.42 48.94,93.48 98.6,114.09 50.94,21.14 106.29,7.44 148.74,-22.89 89.33,-63.81 115.85,-179.77 29.35,-254.03z"/>
  <path class="fil1" d="M3059.24 1830.81c-62.48,53.2 -165.59,29.18 -203.39,-37.57 -9.4,-16.62 -19.35,-40.91 -19.59,-59.88 -0.2,-16.09 3.3,-31.97 8.56,-47.23 10.3,-29.58 21.77,-54.74 47.32,-75.98 11.67,-9.74 27.12,-20.66 41.81,-26.1 17.23,-6.37 40.31,-9.97 58.87,-8.12 31.32,3.13 60.25,15.2 83.92,34.28 74.66,60.21 48.07,164.72 -17.5,220.6zm34.55 -231c-44.45,-38.15 -96.97,-46.88 -152.92,-32.07 -50.65,13.42 -94.73,53.88 -109.7,97.58 -14.31,30.76 -19.87,65.07 -14.07,97.32 9.06,50.42 48.94,93.48 98.6,114.08 50.94,21.15 106.29,7.45 148.74,-22.88 89.34,-63.81 115.85,-179.77 29.35,-254.03z"/>
  <path class="fil1" d="M3834.63 2965.75c-62.47,53.2 -165.59,29.18 -203.39,-37.57 -9.4,-16.62 -19.35,-40.91 -19.58,-59.88 -0.21,-16.09 3.29,-31.97 8.56,-47.23 10.29,-29.58 21.76,-54.74 47.31,-75.98 11.67,-9.74 27.12,-20.66 41.81,-26.1 17.23,-6.37 40.32,-9.97 58.87,-8.12 31.32,3.13 60.26,15.19 83.92,34.28 74.67,60.21 48.07,164.72 -17.5,220.6zm34.56 -231c-44.46,-38.15 -96.98,-46.88 -152.93,-32.07 -50.64,13.42 -94.73,53.88 -109.7,97.58 -14.31,30.76 -19.87,65.07 -14.06,97.32 9.06,50.42 48.94,93.48 98.59,114.08 50.94,21.15 106.3,7.45 148.74,-22.88 89.34,-63.81 115.86,-179.77 29.36,-254.03z"/>
  <rect class="fil2" x="10.27" y="7.09" width="4343.4" height="4343.58"/>
 </g>
</svg>
