<?xml version="1.0" encoding="UTF-8"?>
<!DOCTYPE svg PUBLIC "-//W3C//DTD SVG 1.1//EN" "http://www.w3.org/Graphics/SVG/1.1/DTD/svg11.dtd">
<!-- Creator: CorelDRAW 2018 (64-Bit) -->
<svg xmlns="http://www.w3.org/2000/svg" xml:space="preserve" width="43.4338mm" height="43.4338mm" version="1.1" style="shape-rendering:geometricPrecision; text-rendering:geometricPrecision; image-rendering:optimizeQuality; fill-rule:evenodd; clip-rule:evenodd"
viewBox="0 0 4343.38 4343.38"
 xmlns:xlink="http://www.w3.org/1999/xlink">
 <defs>
  <style type="text/css">
   <![CDATA[
    .str0 {stroke:#2B2A29;stroke-width:20;stroke-miterlimit:22.9256}
    .fil2 {fill:none}
    .fil0 {fill:#2B2A29;fill-rule:nonzero}
    .fil1 {fill:black;fill-rule:nonzero}
   ]]>
  </style>
 </defs>
 <g id="Слой_x0020_1">
  <metadata id="CorelCorpID_0Corel-Layer"/>
  <path class="fil0" d="M3152.55 3568.96c-790.78,673.29 -2095.9,369.32 -2574.36,-475.56 -118.94,-210.29 -244.91,-517.74 -247.88,-757.9 -2.56,-203.6 41.73,-404.6 108.34,-597.75 130.27,-374.43 275.47,-692.83 598.89,-961.76 147.74,-123.24 343.29,-261.49 529.15,-330.33 218.13,-80.61 510.31,-126.21 745.15,-102.72 396.47,39.61 762.65,192.3 1062.23,433.9 945.01,762.02 608.43,2084.79 -221.52,2792.12zm437.36 -2923.78c-562.64,-482.85 -1227.45,-593.42 -1935.63,-405.98 -640.97,169.94 -1198.96,682.02 -1388.44,1235.19 -181.13,389.32 -251.51,823.5 -178.04,1231.7 114.67,638.14 619.45,1183.25 1247.94,1444 644.78,267.59 1345.37,94.27 1882.61,-289.7 1130.75,-807.59 1466.38,-2275.33 371.56,-3215.21z"/>
  <g>
   <path class="fil0" d="M2210.12 2200.28c-33.71,-28.7 -89.35,-15.75 -109.75,20.27 -5.07,8.97 -10.44,22.08 -10.57,32.32 -0.1,8.68 1.78,17.24 4.62,25.48 5.56,15.96 11.75,29.54 25.53,41 6.3,5.25 14.64,11.15 22.56,14.08 9.3,3.44 21.76,5.38 31.77,4.38 16.9,-1.69 32.52,-8.2 45.29,-18.5 40.28,-32.48 25.94,-88.87 -9.45,-119.03zm18.65 124.65c-23.99,20.58 -52.33,25.3 -82.52,17.31 -27.33,-7.25 -51.12,-29.08 -59.19,-52.66 -7.73,-16.6 -10.73,-35.11 -7.59,-52.51 4.88,-27.21 26.4,-50.45 53.2,-61.57 27.49,-11.4 57.35,-4.01 80.26,12.36 48.2,34.42 62.51,97 15.84,137.07z"/>
   <path id="1" class="fil1" d="M2068.36 2202.34l0.01 -0.03 3.2 -5.27 3.52 -5.05 3.77 -4.76 4.02 -4.5 4.17 -4.16 4.4 -3.95 4.62 -3.68 4.72 -3.39 4.9 -3.14 5.02 -2.86 5.13 -2.59 5.25 -2.34 5.38 -2.07 5.43 -1.8 5.54 -1.54 5.57 -1.26 5.67 -1 5.77 -0.72 5.75 -0.43 5.81 -0.14 5.89 0.16 5.85 0.48 5.85 0.78 5.92 1.13 5.87 1.47 5.79 1.81 5.71 2.16 5.68 2.53 5.58 2.93 5.44 3.29 5.29 3.69 5.05 4.04 -47.62 56.3 -1.39 -1.1 -1.39 -0.97 -1.46 -0.89 -1.52 -0.79 -1.58 -0.71 -1.71 -0.64 -1.75 -0.55 -1.79 -0.45 -1.84 -0.35 -1.95 -0.26 -2.03 -0.16 -1.99 -0.06 -2.09 0.06 -2.13 0.15 -2.07 0.26 -2.13 0.38 -2.13 0.48 -2.08 0.58 -2.05 0.68 -1.98 0.77 -1.93 0.86 -1.89 0.95 -1.78 1.02 -1.68 1.06 -1.6 1.15 -1.46 1.16 -1.36 1.23 -1.31 1.3 -1.12 1.26 -1.03 1.3 -0.9 1.29 -0.82 1.35 0.01 -0.03 -64.02 -36.42zm-15.36 50.1l0 -0.04 0.06 -2.02 0.11 -2.07 0.18 -2.06 0.21 -1.87 0.27 -2 0.3 -1.85 0.31 -1.68 0.36 -1.82 0.42 -1.83 0.42 -1.7 0.39 -1.49 0.45 -1.65 0.54 -1.84 0.49 -1.52 0.44 -1.36 0.53 -1.56 0.61 -1.7 0.52 -1.4 0.56 -1.45 0.61 -1.52 0.6 -1.44 0.55 -1.28 0.61 -1.42 0.71 -1.53 0.55 -1.18 0.59 -1.24 0.71 -1.45 0.66 -1.29 0.62 -1.2 0.6 -1.13 0.68 -1.27 0.7 -1.24 64.02 36.42 -0.26 0.46 -0.26 0.49 -0.36 0.67 -0.32 0.62 -0.3 0.59 -0.23 0.47 -0.33 0.7 -0.37 0.78 -0.21 0.47 -0.27 0.62 -0.33 0.76 -0.26 0.64 -0.23 0.56 -0.24 0.65 -0.28 0.72 -0.15 0.42 -0.19 0.58 -0.26 0.78 -0.19 0.62 -0.1 0.3 -0.13 0.49 -0.17 0.63 -0.1 0.42 -0.06 0.29 -0.06 0.28 -0.07 0.4 -0.04 0.23 -0.01 0.04 -0.01 0.15 0 -0.06 0.01 -0.11 0 -0.08 0 -0.04 -73.6 -0.86zm0 0l0 -0.43 0 0.39 0 0.04zm6.68 38.09l-0.04 -0.11 -0.36 -1.06 -0.35 -1.05 -0.29 -0.92 -0.34 -1.04 -0.39 -1.27 -0.27 -0.92 -0.37 -1.26 -0.27 -1.01 -0.27 -0.99 -0.33 -1.27 -0.25 -1 -0.31 -1.27 -0.27 -1.24 -0.22 -1 -0.26 -1.24 -0.24 -1.23 -0.2 -1.06 -0.21 -1.25 -0.21 -1.28 -0.19 -1.25 -0.17 -1.22 -0.13 -1.05 -0.15 -1.29 -0.15 -1.46 -0.11 -1.26 -0.08 -1.05 -0.09 -1.27 -0.08 -1.49 -0.04 -1.27 -0.04 -1.5 0 -1.27 0 -1.24 73.6 0.86 0 0.38 0 0.37 0 0.12 0.02 0.35 0 0.13 0.03 0.35 0.04 0.57 0.03 0.34 0.01 0.16 0.05 0.33 0.07 0.55 0.05 0.38 0.05 0.37 0.05 0.32 0.07 0.35 0.1 0.54 0.06 0.35 0.08 0.36 0.12 0.58 0.09 0.36 0.07 0.31 0.15 0.58 0.07 0.31 0.17 0.57 0.15 0.57 0.09 0.3 0.19 0.64 0.09 0.31 0.16 0.5 0.21 0.64 0.17 0.51 0.16 0.48 -0.04 -0.11 -69.48 24.36zm0 0l-0.04 -0.11 -0.16 -0.45 0.2 0.56zm36.76 57.22l0.03 0.03 -1.87 -1.59 -1.92 -1.7 -1.81 -1.7 -1.73 -1.69 -1.68 -1.72 -1.65 -1.76 -1.66 -1.87 -1.5 -1.77 -1.41 -1.74 -1.49 -1.9 -1.37 -1.86 -1.3 -1.83 -1.29 -1.92 -1.21 -1.85 -1.13 -1.82 -1.13 -1.9 -1.09 -1.92 -0.98 -1.79 -1.02 -1.95 -0.91 -1.83 -0.87 -1.78 -0.89 -1.91 -0.79 -1.76 -0.76 -1.77 -0.76 -1.8 -0.73 -1.8 -0.71 -1.79 -0.66 -1.73 -0.63 -1.66 -0.62 -1.69 -0.63 -1.76 -0.59 -1.69 69.48 -24.36 0.45 1.29 0.43 1.18 0.46 1.25 0.45 1.22 0.44 1.15 0.41 1.05 0.41 1 0.42 1 0.44 0.99 0.43 0.96 0.37 0.81 0.43 0.88 0.41 0.83 0.36 0.67 0.44 0.81 0.37 0.66 0.39 0.64 0.43 0.7 0.41 0.65 0.37 0.54 0.44 0.61 0.41 0.56 0.37 0.48 0.51 0.62 0.48 0.57 0.4 0.45 0.49 0.52 0.52 0.54 0.57 0.55 0.55 0.52 0.54 0.48 0.67 0.57 0.03 0.03 -47.02 56.8zm46.99 -56.83l0.03 0.03 -2.98 -2.49 2.95 2.46zm-13.65 77.15l0 0 -1.32 -0.5 -1.46 -0.58 -1.4 -0.6 -1.31 -0.58 -1.21 -0.57 -1.11 -0.53 -1.28 -0.63 -1.26 -0.66 -1.18 -0.63 -1.07 -0.59 -1.08 -0.6 -1.15 -0.67 -1.15 -0.69 -1.14 -0.7 -0.88 -0.55 -0.98 -0.62 -1.12 -0.73 -0.96 -0.64 -1.06 -0.72 -0.95 -0.66 -0.94 -0.66 -0.94 -0.68 -0.89 -0.65 -0.88 -0.65 -0.78 -0.58 -1.01 -0.77 -0.87 -0.68 -0.72 -0.56 -0.85 -0.68 -0.96 -0.78 -0.69 -0.57 -0.74 -0.61 47.02 -56.8 0.46 0.37 0.51 0.43 0.28 0.22 0.41 0.32 0.56 0.44 0.43 0.34 0.31 0.23 0.56 0.42 0.46 0.35 0.49 0.35 0.44 0.32 0.46 0.32 0.45 0.32 0.36 0.24 0.48 0.32 0.32 0.21 0.48 0.3 0.58 0.37 0.32 0.2 0.33 0.19 0.33 0.19 0.42 0.24 0.41 0.23 0.32 0.17 0.24 0.12 0.22 0.11 0.39 0.19 0.29 0.13 0.17 0.08 0.1 0.04 0.04 0.02 0.16 0.06 0 0 -25.46 69.28zm48.15 6.48l0 0 -1.71 0.16 -1.75 0.11 -1.39 0.08 -1.54 0.06 -1.74 0.03 -1.55 0 -1.55 -0.01 -1.56 -0.05 -1.55 -0.06 -1.55 -0.09 -1.55 -0.11 -1.55 -0.13 -1.56 -0.15 -1.4 -0.16 -1.38 -0.16 -1.71 -0.23 -1.57 -0.24 -1.4 -0.23 -1.41 -0.25 -1.39 -0.26 -1.56 -0.31 -1.59 -0.34 -1.25 -0.29 -1.41 -0.33 -1.58 -0.4 -1.4 -0.38 -1.4 -0.39 -1.45 -0.42 -1.48 -0.47 -1.43 -0.47 -1.42 -0.49 -1.37 -0.5 25.46 -69.28 0.39 0.14 0.38 0.13 0.39 0.13 0.38 0.11 0.45 0.14 0.52 0.15 0.54 0.14 0.38 0.1 0.57 0.13 0.75 0.17 0.43 0.1 0.48 0.09 0.65 0.12 0.65 0.11 0.66 0.11 0.51 0.08 0.37 0.05 0.68 0.08 0.68 0.08 0.52 0.05 0.53 0.05 0.51 0.03 0.51 0.03 0.49 0.02 0.48 0.01 0.47 0.01 0.45 0 0.24 -0.01 0.42 -0.02 0.57 -0.02 0.15 -0.01 0.19 -0.02 0 0 7.3 73.48zm64.69 -26.46l0.01 0 -1.72 1.35 -1.7 1.31 -1.88 1.37 -1.74 1.23 -1.76 1.21 -1.95 1.28 -1.86 1.16 -1.83 1.1 -1.97 1.15 -1.86 1.02 -1.97 1.06 -1.94 0.98 -1.91 0.94 -2.08 0.97 -2.03 0.89 -2.07 0.87 -2.02 0.81 -2.05 0.77 -2.05 0.74 -2.11 0.72 -2.19 0.69 -2.1 0.62 -2.11 0.59 -2.11 0.55 -2.13 0.52 -2.25 0.5 -2.26 0.45 -2.14 0.39 -2.15 0.36 -2.28 0.33 -2.27 0.29 -2.21 0.24 -7.3 -73.48 0.95 -0.1 0.87 -0.11 0.86 -0.13 0.95 -0.16 0.96 -0.17 0.82 -0.17 0.81 -0.18 0.91 -0.22 0.91 -0.23 0.89 -0.25 0.88 -0.26 0.77 -0.25 0.83 -0.28 0.85 -0.3 0.85 -0.33 0.84 -0.33 0.79 -0.33 0.77 -0.35 0.72 -0.33 0.85 -0.42 0.8 -0.4 0.75 -0.4 0.82 -0.46 0.69 -0.39 0.81 -0.5 0.74 -0.46 0.61 -0.4 0.78 -0.53 0.76 -0.53 0.6 -0.45 0.74 -0.57 0.7 -0.55 0.01 0 46.1 57.56zm-8.69 -175.96l0.01 0.01 4.49 4 4.3 4.19 4.07 4.34 3.91 4.53 3.67 4.67 3.49 4.82 3.27 4.98 3.04 5.1 2.82 5.24 2.59 5.36 2.35 5.51 2.08 5.58 1.85 5.72 1.57 5.86 1.27 5.9 0.97 5.99 0.67 6.15 0.32 6.17 -0.02 6.22 -0.4 6.31 -0.78 6.28 -1.19 6.36 -1.63 6.33 -2.04 6.22 -2.48 6.13 -2.92 6.04 -3.4 5.92 -3.81 5.69 -4.26 5.5 -4.65 5.22 -5.04 4.96 -5.43 4.66 -46.1 -57.56 1.81 -1.56 1.56 -1.54 1.35 -1.5 1.12 -1.46 0.99 -1.47 0.82 -1.44 0.72 -1.48 0.62 -1.55 0.52 -1.58 0.41 -1.59 0.31 -1.66 0.22 -1.82 0.12 -1.85 0 -1.98 -0.1 -2.05 -0.23 -2.07 -0.37 -2.23 -0.49 -2.28 -0.61 -2.28 -0.75 -2.34 -0.9 -2.4 -1.01 -2.35 -1.15 -2.38 -1.28 -2.38 -1.4 -2.34 -1.49 -2.28 -1.61 -2.24 -1.73 -2.19 -1.79 -2.09 -1.91 -2.02 -1.94 -1.91 -2.03 -1.8 0.01 0.01 47.62 -56.3zm-78.27 134.41l-0.02 0 1.97 0.49 1.94 0.45 1.85 0.37 1.87 0.32 1.85 0.27 1.81 0.21 1.7 0.17 1.69 0.1 1.65 0.06 1.62 0.01 1.61 -0.04 1.49 -0.08 1.55 -0.13 1.53 -0.18 1.52 -0.23 1.41 -0.25 1.4 -0.31 1.42 -0.35 1.41 -0.4 1.36 -0.44 1.33 -0.47 1.38 -0.56 1.4 -0.6 1.35 -0.64 1.33 -0.68 1.42 -0.8 1.37 -0.81 1.32 -0.85 1.43 -0.98 1.4 -1.04 1.43 -1.12 1.41 -1.16 47.82 56.12 -3.11 2.6 -3.15 2.46 -3.22 2.36 -3.25 2.24 -3.38 2.19 -3.41 2.03 -3.38 1.88 -3.53 1.82 -3.55 1.68 -3.54 1.54 -3.6 1.42 -3.69 1.33 -3.7 1.18 -3.71 1.06 -3.72 0.93 -3.76 0.81 -3.81 0.69 -3.74 0.55 -3.75 0.44 -3.77 0.33 -3.85 0.22 -3.79 0.08 -3.78 -0.01 -3.79 -0.14 -3.79 -0.24 -3.8 -0.35 -3.71 -0.45 -3.71 -0.55 -3.71 -0.64 -3.75 -0.75 -3.7 -0.83 -3.67 -0.93 -0.02 0 18.82 -71.4zm-35.26 -32.59l1.47 3.64 0.33 0.92 0.37 0.9 0.42 0.94 0.49 0.99 0.55 1.03 0.63 1.08 0.72 1.16 0.71 1.06 0.79 1.09 0.9 1.18 0.87 1.09 0.96 1.1 1.04 1.14 1.02 1.06 1.15 1.11 1.18 1.1 1.2 1.05 1.22 1 1.22 0.96 1.3 0.95 1.33 0.92 1.38 0.89 1.37 0.85 1.35 0.77 1.44 0.77 1.41 0.7 1.37 0.63 1.45 0.62 1.41 0.55 1.41 0.5 1.42 0.46 1.38 0.38 -18.82 71.4 -3.72 -1.06 -3.64 -1.16 -3.59 -1.26 -3.55 -1.39 -3.45 -1.46 -3.45 -1.59 -3.35 -1.68 -3.24 -1.73 -3.27 -1.87 -3.15 -1.93 -3.06 -1.99 -3.03 -2.1 -2.96 -2.17 -2.94 -2.28 -2.82 -2.34 -2.76 -2.41 -2.64 -2.44 -2.57 -2.51 -2.58 -2.66 -2.42 -2.66 -2.38 -2.76 -2.33 -2.87 -2.16 -2.84 -2.13 -2.97 -2.05 -3.08 -1.9 -3.04 -1.83 -3.14 -1.75 -3.25 -1.65 -3.33 -1.54 -3.42 -1.41 -3.48 -1.27 -3.5 1.47 3.64 66.68 -31.26zm0 0l0.85 1.82 0.62 1.82 -1.47 -3.64zm-4.71 -30.34l-0.01 0.04 -0.15 0.87 -0.11 0.73 -0.1 0.87 -0.1 0.97 -0.08 0.89 -0.04 0.75 -0.04 1 -0.02 0.88 0.01 0.9 0.01 1 0.04 0.88 0.06 0.9 0.07 0.91 0.11 1.01 0.12 1.02 0.14 1.01 0.13 0.89 0.17 0.91 0.22 1.12 0.21 1 0.22 0.9 0.25 0.99 0.28 1.01 0.28 0.97 0.32 0.99 0.33 1 0.34 0.97 0.4 1.05 0.38 0.99 0.4 0.96 0.43 1 0.44 0.96 -66.68 31.26 -0.98 -2.16 -0.93 -2.14 -0.92 -2.22 -0.86 -2.19 -0.8 -2.15 -0.8 -2.25 -0.75 -2.24 -0.7 -2.25 -0.68 -2.29 -0.62 -2.27 -0.59 -2.29 -0.56 -2.4 -0.49 -2.3 -0.44 -2.2 -0.43 -2.41 -0.39 -2.43 -0.32 -2.33 -0.28 -2.32 -0.23 -2.33 -0.21 -2.43 -0.14 -2.44 -0.1 -2.44 -0.05 -2.34 -0.01 -2.44 0.06 -2.44 0.08 -2.34 0.16 -2.55 0.2 -2.43 0.24 -2.33 0.3 -2.43 0.37 -2.55 0.41 -2.39 -0.01 0.04 72.44 13.08zm0 0l-0.01 0.04 0.46 -2.54 -0.45 2.5zm31.04 -33.99l0 0 -1.51 0.66 -1.56 0.72 -1.53 0.77 -1.43 0.76 -1.45 0.84 -1.48 0.9 -1.37 0.88 -1.38 0.96 -1.36 1 -1.29 1 -1.28 1.05 -1.21 1.05 -1.19 1.1 -1.13 1.11 -1.1 1.14 -1.05 1.15 -0.97 1.15 -0.96 1.2 -0.92 1.2 -0.8 1.14 -0.81 1.24 -0.76 1.23 -0.67 1.16 -0.61 1.17 -0.57 1.16 -0.54 1.26 -0.49 1.2 -0.41 1.15 -0.38 1.17 -0.31 1.13 -0.29 1.21 -0.23 1.13 -72.44 -13.08 0.79 -3.95 0.91 -3.81 1.07 -3.85 1.2 -3.75 1.33 -3.71 1.45 -3.6 1.54 -3.48 1.69 -3.52 1.81 -3.43 1.91 -3.36 1.98 -3.21 2.07 -3.14 2.22 -3.14 2.26 -3 2.34 -2.92 2.47 -2.87 2.51 -2.77 2.6 -2.7 2.67 -2.61 2.75 -2.54 2.83 -2.47 2.86 -2.35 2.95 -2.3 3 -2.18 3.06 -2.12 3.17 -2.06 3.14 -1.92 3.25 -1.86 3.35 -1.8 3.33 -1.65 3.36 -1.58 3.49 -1.5 0 0 28.12 68.24zm44.86 8.32l-0.01 0 -1.41 -0.99 -1.41 -0.93 -1.45 -0.9 -1.48 -0.87 -1.46 -0.81 -1.47 -0.76 -1.47 -0.72 -1.51 -0.67 -1.53 -0.65 -1.5 -0.58 -1.46 -0.52 -1.51 -0.49 -1.49 -0.44 -1.45 -0.37 -1.45 -0.33 -1.52 -0.3 -1.39 -0.23 -1.42 -0.18 -1.49 -0.15 -1.29 -0.08 -1.36 -0.04 -1.44 0.01 -1.31 0.04 -1.32 0.11 -1.35 0.14 -1.2 0.18 -1.29 0.25 -1.36 0.3 -1.26 0.33 -1.24 0.38 -1.29 0.46 -1.27 0.49 -28.12 -68.24 3.89 -1.53 3.91 -1.36 3.98 -1.22 3.96 -1.05 3.88 -0.88 3.97 -0.75 4.06 -0.6 3.93 -0.44 3.94 -0.29 3.95 -0.16 3.82 -0.01 3.88 0.1 3.95 0.26 3.73 0.37 3.78 0.48 3.79 0.63 3.62 0.7 3.67 0.83 3.63 0.95 3.57 1.04 3.49 1.13 3.5 1.24 3.42 1.34 3.33 1.39 3.31 1.51 3.27 1.58 3.23 1.68 3.16 1.75 3.08 1.81 3.05 1.9 2.99 1.97 2.93 2.03 -0.01 0 -42.68 60.16zm13.27 78.93l-0.02 0.01 2.62 -2.38 2.27 -2.34 2.02 -2.34 1.73 -2.27 1.5 -2.28 1.31 -2.28 1.08 -2.21 0.91 -2.22 0.74 -2.22 0.58 -2.25 0.45 -2.3 0.3 -2.27 0.14 -2.36 0.01 -2.4 -0.16 -2.46 -0.3 -2.5 -0.46 -2.53 -0.64 -2.66 -0.79 -2.64 -0.96 -2.65 -1.16 -2.73 -1.32 -2.73 -1.52 -2.74 -1.69 -2.75 -1.86 -2.71 -2.07 -2.71 -2.21 -2.64 -2.41 -2.61 -2.59 -2.56 -2.75 -2.48 -2.93 -2.4 -3.09 -2.32 42.68 -60.16 5.75 4.3 5.49 4.52 5.27 4.74 4.99 4.94 4.75 5.13 4.49 5.36 4.17 5.49 3.92 5.69 3.61 5.85 3.3 6 3 6.17 2.66 6.29 2.34 6.47 1.97 6.58 1.6 6.64 1.24 6.81 0.82 6.86 0.42 6.94 -0.01 6.98 -0.44 7 -0.9 7.05 -1.35 6.96 -1.82 6.93 -2.3 6.86 -2.75 6.74 -3.24 6.63 -3.67 6.4 -4.12 6.24 -4.59 6.05 -4.98 5.78 -5.41 5.54 -5.78 5.26 -0.02 0.01 -47.82 -56.12z"/>
  </g>
  <path class="fil0" d="M2198.26 2086.98c14.36,-27.45 49.88,-12.97 46.53,-174.96 -0.65,-12.71 2.87,-25.42 -1.93,-38.12 -2.37,-6.25 -17.34,-7.42 -36.03,-7.71l-0.01 -5.62c16.77,-2.96 32.13,-13.01 28.37,-34.61 0.54,-27.29 1.05,-435.55 1.53,-462.82 0.22,-9.9 0.33,-19.82 0.76,-29.72 2.19,-48.65 4.34,-97.3 6.53,-145.96 1.69,-38.64 4.8,-77.25 7.28,-115.87 16.8,-261.22 -4.56,-360.76 -27.51,-414.58l-71.38 0 -1.16 10.15c-0.29,-2.9 -0.55,-6.22 -0.72,-10.15l-43.55 0c0.5,10.88 -9.53,21.75 -8.89,32.63 2.5,43.36 5.91,86.79 10.78,130.08 4.47,39.61 7.35,79.26 10.97,118.9 1.08,11.9 1.2,23.82 1.51,35.76 0.71,27.43 1.45,54.83 2.17,82.26 0.27,11.22 0.69,22.46 0.48,33.69 -0.48,24.88 -1,49.74 -1.51,74.61 -0.68,34.23 -1.49,68.42 -3.1,102.63 -3.95,86.06 -8.41,172.11 -13,258.17 -1.99,37.42 -2.8,74.87 -4.14,112.3 -1.14,32.48 -2.28,64.97 -3.22,97.45 -1.18,40.55 -2.11,81.11 -3.61,121.67 -1.7,46.99 -3.49,93.95 -2.04,140.94 0.94,29.66 3.11,59.27 5.92,88.88l98.97 0z"/>
  <g>
   <path class="fil0" d="M1995.6 896.07c10.24,-5.09 23.91,2.39 45.31,-37.47 1.51,-3.18 4.86,-5.88 4.53,-9.51 -0.16,-1.79 -6.62,-3.74 -14.85,-5.89l0.78 -1.36c7.84,1.14 16.06,0.39 17.45,-5.29 4.09,-6.59 62,-106.06 66.06,-112.65 1.5,-2.39 2.95,-4.8 4.54,-7.16 7.84,-11.62 15.66,-23.24 23.5,-34.86 6.21,-9.23 13.04,-18.3 19.6,-27.43 44.33,-61.82 48.94,-88.45 46.39,-104.13l-31.58 -7.93 -1.95 2.34c0.28,-0.73 0.64,-1.57 1.12,-2.55l-23.97 -6.02c-1.32,2.71 -2.59,5.43 -3.85,8.15 -5.02,10.85 -9.64,21.81 -13.6,32.91 -3.62,10.15 -7.95,20.13 -11.95,30.2 -1.2,3.02 -2.83,5.94 -4.38,8.89 -3.56,6.76 -7.11,13.52 -10.66,20.29 -1.47,2.77 -2.87,5.55 -4.55,8.26 -3.73,6.01 -7.47,12.02 -11.21,18.03 -5.13,8.26 -10.32,16.51 -15.87,24.67 -13.91,20.54 -28.03,41.02 -42.22,61.49 -6.17,8.9 -11.82,17.94 -17.7,26.91 -5.09,7.8 -10.19,15.59 -15.19,23.4 -6.25,9.76 -12.39,19.54 -18.79,29.26 -7.38,11.26 -14.81,22.51 -20.81,34.13 -3.77,7.33 -7,14.8 -9.94,22.33l43.79 10.99z"/>
   <path class="fil0" d="M2354.55 914.5c-10.24,-5.1 -23.91,2.38 -45.31,-37.48 -1.51,-3.17 -4.86,-5.88 -4.53,-9.51 0.16,-1.79 6.62,-3.73 14.85,-5.88l-0.78 -1.37c-7.84,1.14 -16.06,0.4 -17.45,-5.29 -4.09,-6.59 -62,-106.05 -66.06,-112.65 -1.5,-2.39 -2.95,-4.79 -4.54,-7.16 -7.84,-11.61 -15.66,-23.24 -23.5,-34.85 -6.21,-9.23 -13.04,-18.3 -19.6,-27.44 -44.33,-61.81 -48.94,-88.45 -46.39,-104.12l31.58 -7.93 1.95 2.34c-0.28,-0.74 -0.64,-1.57 -1.12,-2.55l23.97 -6.02c1.32,2.71 2.59,5.42 3.85,8.14 5.02,10.85 9.64,21.82 13.6,32.91 3.62,10.15 7.95,20.14 11.95,30.2 1.2,3.03 2.83,5.95 4.38,8.89 3.56,6.76 7.11,13.53 10.66,20.29 1.47,2.77 2.87,5.56 4.55,8.27 3.73,6.01 7.47,12.02 11.21,18.02 5.13,8.27 10.32,16.51 15.87,24.67 13.91,20.54 28.03,41.03 42.22,61.49 6.17,8.9 11.82,17.95 17.7,26.92 5.09,7.79 10.19,15.58 15.19,23.4 6.25,9.75 12.39,19.54 18.79,29.25 7.38,11.27 14.81,22.52 20.81,34.14 3.77,7.33 7,14.79 9.94,22.32l-43.79 11z"/>
  </g>
  <path class="fil0" d="M2482.14 1159.71c-2.85,6.26 -9.88,-3.14 -9.23,46.26 0.13,3.93 -0.57,7.27 0.39,11.79 0.46,2.22 3.43,4.69 7.13,7.43l0 1.69c-3.32,-1.48 -6.36,-0.61 -5.62,6.44 -0.1,8.17 -0.22,131.41 -0.32,139.58 -0.04,2.96 -0.07,5.94 -0.15,8.86 -0.44,14.39 -0.87,28.78 -1.3,43.17 -0.34,11.43 -0.96,22.65 -1.45,33.96 -3.34,76.52 0.89,109.61 5.43,129.12l14.14 10.11 0.23 -2.9c0.06,0.92 0.11,1.95 0.15,3.17l10.73 7.67c-0.1,-3.36 -0.22,-6.72 -0.35,-10.1 -0.49,-13.45 -1.16,-27.05 -2.13,-40.82 -0.88,-12.59 -1.45,-24.98 -2.16,-37.46 -0.22,-3.75 -0.24,-7.37 -0.3,-11.02 -0.14,-8.38 -0.29,-16.76 -0.43,-25.15 -0.05,-3.43 -0.13,-6.88 -0.09,-10.24 0.1,-7.45 0.2,-14.89 0.3,-22.33 0.14,-10.24 0.3,-20.45 0.62,-30.56 0.79,-25.43 1.67,-50.79 2.58,-76.13 0.4,-11.02 0.56,-22.22 0.83,-33.34 0.23,-9.65 0.45,-19.3 0.64,-28.97 0.24,-12.08 0.42,-24.2 0.72,-36.24 0.34,-13.95 0.7,-27.88 0.41,-42.28 -0.18,-9.09 -0.61,-18.35 -1.17,-27.69l-19.6 -14.02z"/>
  <path class="fil0" d="M2606 1346.16c2.84,3.73 9.88,-1.87 9.22,27.52 -0.13,2.34 0.57,4.32 -0.38,7.01 -0.47,1.32 -3.43,2.79 -7.14,4.42l0 1.01c3.32,-0.88 6.37,-0.37 5.62,3.83 0.11,4.86 0.23,78.16 0.33,83.02 0.04,1.76 0.06,3.53 0.15,5.27 0.43,8.56 0.86,17.12 1.3,25.68 0.33,6.8 0.95,13.47 1.45,20.2 3.33,45.52 -0.89,65.2 -5.44,76.8l-14.14 6.02 -0.23 -1.73c-0.05,0.55 -0.1,1.16 -0.14,1.89l-10.73 4.56c0.1,-2 0.22,-4 0.34,-6.01 0.5,-8 1.17,-16.09 2.13,-24.28 0.89,-7.49 1.45,-14.86 2.17,-22.28 0.21,-2.23 0.24,-4.38 0.3,-6.55 0.14,-4.99 0.28,-9.98 0.42,-14.97 0.06,-2.04 0.14,-4.09 0.1,-6.09 -0.1,-4.43 -0.2,-8.85 -0.3,-13.28 -0.14,-6.09 -0.3,-12.16 -0.62,-18.17 -0.79,-15.13 -1.68,-30.22 -2.59,-45.29 -0.4,-6.56 -0.56,-13.22 -0.82,-19.83 -0.23,-5.74 -0.46,-11.48 -0.65,-17.24 -0.23,-7.18 -0.42,-14.39 -0.72,-21.55 -0.33,-8.3 -0.69,-16.59 -0.41,-25.15 0.19,-5.41 0.62,-10.91 1.17,-16.47l19.61 -8.34z"/>
  <path class="fil0" d="M2597.78 1174.88c2.85,1.19 9.88,-0.59 9.23,8.77 -0.13,0.75 0.56,1.38 -0.39,2.24 -0.46,0.42 -3.43,0.89 -7.13,1.41l-0.01 0.32c3.33,-0.28 6.37,-0.12 5.63,1.22 0.1,1.55 0.22,24.92 0.32,26.47 0.04,0.56 0.07,1.13 0.15,1.68 0.44,2.73 0.87,5.46 1.3,8.19 0.34,2.17 0.96,4.29 1.45,6.44 3.34,14.51 -0.89,20.79 -5.43,24.49l-14.14 1.91 -0.23 -0.55c-0.06,0.18 -0.11,0.37 -0.15,0.6l-10.73 1.46c0.1,-0.64 0.22,-1.28 0.34,-1.92 0.5,-2.55 1.17,-5.13 2.14,-7.74 0.88,-2.39 1.45,-4.74 2.16,-7.1 0.22,-0.71 0.24,-1.4 0.3,-2.09 0.14,-1.59 0.28,-3.18 0.43,-4.77 0.05,-0.65 0.13,-1.31 0.09,-1.94 -0.1,-1.42 -0.2,-2.83 -0.3,-4.24 -0.14,-1.94 -0.3,-3.88 -0.62,-5.79 -0.79,-4.83 -1.67,-9.64 -2.59,-14.44 -0.39,-2.09 -0.55,-4.22 -0.82,-6.32 -0.23,-1.83 -0.46,-3.66 -0.64,-5.5 -0.24,-2.29 -0.42,-4.59 -0.72,-6.87 -0.34,-2.65 -0.7,-5.29 -0.41,-8.02 0.18,-1.72 0.61,-3.48 1.17,-5.25l19.6 -2.66z"/>
  <path class="fil0" d="M2477.21 1167.18c2.49,-2.66 1.18,-9.87 15.84,-7.96 1.15,0.23 2.3,-0.38 3.45,0.68 0.56,0.52 0.67,3.52 0.7,7.26l0.5 0.04c0.27,-3.33 1.18,-6.32 3.14,-5.4 2.47,0.1 39.42,3.12 41.88,3.23 0.9,0.04 1.8,0.09 2.69,0.08 4.41,-0.07 8.81,-0.12 13.21,-0.19 3.5,-0.04 7,-0.37 10.49,-0.57 23.64,-1.36 32.65,3.68 37.52,8.68l0 14.26 -0.92 0.16c0.27,0.08 0.57,0.16 0.92,0.22l0 10.83c-0.98,-0.18 -1.97,-0.39 -2.95,-0.6 -3.93,-0.83 -7.85,-1.84 -11.77,-3.15 -3.59,-1.19 -7.18,-2.07 -10.76,-3.1 -1.08,-0.31 -2.16,-0.42 -3.24,-0.58 -2.48,-0.35 -4.96,-0.7 -7.45,-1.06 -1.01,-0.14 -2.03,-0.31 -3.04,-0.35 -2.26,-0.1 -4.51,-0.18 -6.76,-0.27 -3.09,-0.13 -6.19,-0.23 -9.29,-0.17 -7.79,0.13 -15.57,0.36 -23.36,0.62 -3.39,0.12 -6.78,-0.01 -10.17,-0.03 -2.94,-0.02 -5.88,-0.04 -8.82,-0.1 -3.67,-0.07 -7.34,-0.2 -11.01,-0.21 -4.25,-0.02 -8.5,-0.02 -12.75,-0.67 -2.69,-0.42 -5.37,-1.08 -8.05,-1.87l0 -19.78z"/>
  <path class="fil0" d="M2481.98 1603.37c2.48,2.66 1.17,9.87 15.83,7.96 1.15,-0.22 2.3,0.38 3.45,-0.67 0.57,-0.52 0.67,-3.53 0.7,-7.26l0.51 -0.05c0.26,3.33 1.17,6.32 3.13,5.41 2.47,-0.11 39.42,-3.13 41.89,-3.24 0.89,-0.03 1.79,-0.09 2.69,-0.08 4.4,0.07 8.8,0.13 13.21,0.19 3.49,0.04 6.99,0.37 10.48,0.57 23.65,1.36 32.65,-3.67 37.53,-8.67l0 -14.27 -0.92 -0.16c0.26,-0.08 0.56,-0.15 0.92,-0.22l0 -10.83c-0.99,0.19 -1.97,0.39 -2.96,0.6 -3.92,0.83 -7.85,1.85 -11.77,3.15 -3.59,1.2 -7.17,2.08 -10.76,3.1 -1.08,0.31 -2.16,0.43 -3.24,0.58 -2.48,0.35 -4.96,0.71 -7.44,1.06 -1.02,0.14 -2.04,0.31 -3.05,0.36 -2.25,0.09 -4.5,0.18 -6.76,0.27 -3.09,0.12 -6.19,0.22 -9.28,0.16 -7.79,-0.13 -15.58,-0.36 -23.37,-0.62 -3.39,-0.11 -6.78,0.01 -10.16,0.03 -2.94,0.02 -5.88,0.04 -8.82,0.1 -3.67,0.08 -7.34,0.2 -11.01,0.21 -4.26,0.02 -8.51,0.02 -12.76,0.68 -2.68,0.41 -5.37,1.07 -8.04,1.86l0 19.78z"/>
  <path class="fil0" d="M2836.26 1295.52c3.62,-0.45 8.68,4.86 15.76,-8.12 0.49,-1.07 1.66,-1.64 1.48,-3.19 -0.09,-0.76 -2.45,-2.62 -5.46,-4.84l0.26 -0.43c2.85,1.74 5.81,2.76 6.22,0.64 1.37,-2.05 20.67,-33.71 22.03,-35.77 0.5,-0.74 0.99,-1.5 1.52,-2.22 2.65,-3.52 5.28,-7.05 7.93,-10.57 2.09,-2.8 4.41,-5.43 6.63,-8.14 15.01,-18.32 16.24,-28.56 15.06,-35.44l-11.53 -8.4 -0.67 0.65c0.09,-0.26 0.21,-0.55 0.36,-0.87l-8.75 -6.37c-0.43,0.9 -0.85,1.82 -1.26,2.73 -1.64,3.67 -3.13,7.44 -4.38,11.38 -1.14,3.6 -2.54,7.02 -3.82,10.52 -0.39,1.06 -0.93,2 -1.44,2.96 -1.18,2.21 -2.35,4.43 -3.52,6.64 -0.49,0.91 -0.95,1.83 -1.51,2.68 -1.25,1.87 -2.5,3.75 -3.76,5.62 -1.72,2.58 -3.46,5.14 -5.33,7.61 -4.69,6.22 -9.46,12.38 -14.25,18.52 -2.08,2.67 -3.98,5.49 -5.95,8.24 -1.72,2.39 -3.43,4.78 -5.11,7.19 -2.1,3.01 -4.16,6.05 -6.31,9.03 -2.49,3.45 -4.99,6.88 -6.96,10.7 -1.25,2.42 -2.29,4.98 -3.23,7.61l15.99 11.64z"/>
  <path class="fil2 str0" d="M2603.89 1238.15c5.49,-4.4 -7.68,-5.77 20.49,-22.58 8.32,-4.97 8.73,-9.3 23.76,-12.94 7.34,-1.78 40.19,-19.14 49.57,-20.07 21.63,-2.16 23.33,-6.77 52.12,-6.77 20.52,0 103.73,-1.83 115.08,1.32 13.5,3.75 12.49,4.53 22.72,8.17l0.97 0.12"/>
  <path class="fil2 str0" d="M2606 1365.48c1.13,-9.92 15.15,-45.55 22.71,-52.97 10.13,-9.97 8.26,-16.37 26.16,-28.98 18.46,-12.99 44.28,-21.67 67,-21.67 23.7,0 25.63,-0.9 48.65,3.72 3.3,0.66 46.12,11.56 46.31,11.66 4.49,2.48 10.24,1.13 17.44,7.7"/>
  <path class="fil0" d="M3474.16 3402.04c-26.93,5.11 -12.72,17.56 -171.59,16.74 -12.47,-0.2 -24.94,1.07 -37.39,-0.6 -6.14,-0.81 -7.28,-6.08 -7.56,-12.65l-5.5 0.01c-2.91,5.9 -12.77,11.33 -33.96,10.05 -26.76,0.25 -427.14,1.32 -453.9,1.55 -9.71,0.1 -19.43,0.16 -29.14,0.33 -47.71,0.88 -95.43,1.74 -143.15,2.62 -37.89,0.68 -75.76,1.85 -113.63,2.81 -256.19,6.47 -353.81,-0.82 -406.6,-8.77l0 -25.09 9.95 -0.43c-2.83,-0.1 -6.09,-0.18 -9.95,-0.23l0 -19.05c10.67,0.16 21.34,0.34 32,0.54 42.54,0.79 85.12,1.89 127.59,3.51 38.83,1.48 77.72,2.41 116.59,3.59 11.68,0.36 23.37,0.37 35.08,0.46 26.89,0.19 53.77,0.39 80.67,0.58 11.02,0.07 22.03,0.2 33.04,0.1 24.39,-0.23 48.79,-0.46 73.18,-0.7 33.56,-0.31 67.09,-0.67 100.64,-1.31 84.41,-1.58 168.8,-3.33 253.2,-5.13 36.7,-0.79 73.43,-1.15 110.14,-1.71 31.86,-0.47 63.72,-0.94 95.57,-1.34 39.77,-0.51 79.55,-0.92 119.32,-1.54 46.08,-0.69 92.14,-1.43 138.23,-1.02 29.08,0.26 58.13,0.96 87.17,1.89l0 34.79z"/>
  <path class="fil0" d="M3744.21 3187.06c-26.92,-5.65 -12.72,-19.41 -171.58,-18.5 -12.47,0.23 -24.94,-1.18 -37.39,0.66 -6.14,0.9 -7.28,6.72 -7.56,13.98l-5.5 -0.01c-2.91,-6.52 -12.78,-12.52 -33.96,-11.11 -26.76,-0.27 -427.14,-1.46 -453.9,-1.71 -9.71,-0.11 -19.43,-0.17 -29.14,-0.37 -47.71,-0.96 -95.43,-1.92 -143.15,-2.88 -37.89,-0.75 -75.76,-2.06 -113.63,-3.11 -256.19,-7.16 -353.81,0.9 -406.6,9.69l0 27.72 9.95 0.48c-2.84,0.11 -6.09,0.2 -9.95,0.26l0 21.04c10.67,-0.17 21.34,-0.37 32,-0.59 42.54,-0.87 85.11,-2.09 127.59,-3.88 38.83,-1.64 77.72,-2.66 116.59,-3.97 11.68,-0.4 23.37,-0.41 35.08,-0.51 26.89,-0.21 53.77,-0.42 80.67,-0.64 11.02,-0.08 22.03,-0.21 33.04,-0.1 24.39,0.24 48.79,0.5 73.18,0.76 33.56,0.35 67.09,0.75 100.64,1.45 84.41,1.75 168.8,3.68 253.2,5.68 36.69,0.86 73.43,1.27 110.14,1.88 31.86,0.52 63.71,1.04 95.57,1.48 39.77,0.56 79.54,1.02 119.32,1.7 46.08,0.77 92.14,1.58 138.23,1.13 29.08,-0.29 58.13,-1.07 87.16,-2.08l0 -38.45z"/>
  <path class="fil0" d="M3743.82 914.79c-37.19,6.8 -17.05,19.94 -237.48,25.81 -17.31,0.31 -34.56,2.24 -51.9,0.93 -8.54,-0.64 -10.3,-6.39 -10.9,-13.64l-7.64 0.23c-3.83,6.65 -17.33,13.06 -46.78,12.55 -37.11,1.43 -592.53,19.67 -629.66,21.07 -13.46,0.51 -26.96,0.99 -40.4,1.61 -66.17,2.98 -132.35,5.98 -198.52,8.97 -52.54,2.37 -105.03,5.29 -157.54,7.95 -27.22,1.38 -53.14,2.64 -77.85,3.77l0 -51.32 55.97 -1.41c15.29,-0.38 30.58,-0.72 45.84,-1.3 33.83,-1.29 67.66,-2.59 101.5,-3.87 46.54,-1.79 93.06,-3.61 139.58,-5.75 117.05,-5.34 234.08,-10.87 351.1,-16.46 50.88,-2.42 101.84,-4.4 152.74,-6.57 44.18,-1.88 88.36,-3.75 132.55,-5.56 55.14,-2.25 110.31,-4.4 165.48,-6.79 63.9,-2.73 127.79,-5.5 191.73,-7.01 40.35,-0.95 80.68,-1.4 121,-1.63l1.18 38.42zm-1658.25 76.68c-157.8,4.12 -236.84,0.9 -286.95,-3.56l-0.86 -27.71 13.77 -0.89c-3.92,0.01 -8.43,0.05 -13.8,0.16l-0.64 -21.04c14.81,-0.29 29.61,-0.53 44.41,-0.77 59.04,-0.95 118.15,-1.53 177.12,-1.56 22.31,-0.01 44.63,-0.12 66.95,-0.28l0 55.65z"/>
  <path class="fil0" d="M3590.62 747.94c-37.5,4.83 -18.08,19.01 -238.5,13.27 -17.3,-0.6 -34.63,0.42 -51.87,-1.8 -8.51,-1.08 -9.96,-6.93 -10.19,-14.2l-7.64 -0.15c-4.17,6.43 -17.99,12.12 -47.36,10.06 -37.14,-0.53 -592.76,-11.52 -629.9,-12.08 -13.47,-0.19 -26.98,-0.42 -40.44,-0.52 -66.23,-0.49 -132.47,-0.98 -198.7,-1.48l-15.43 -0.1 0 -47.5c41.85,0.6 83.67,1.13 125.5,1.41 117.17,0.82 234.32,1.45 351.48,2.02 50.94,0.25 101.93,0.96 152.87,1.47 44.22,0.45 88.45,0.9 132.65,1.42 55.2,0.65 110.41,1.41 165.61,1.93 63.97,0.63 127.91,1.23 191.85,3.08 40.34,1.17 80.64,2.83 120.91,4.73l-0.84 38.44zm-1607.91 -9.44c-193.11,-3.84 -283.43,-12.02 -338.45,-19.85l0.61 -27.71 13.81 -0.17c-3.94,-0.2 -8.43,-0.4 -13.8,-0.56l0.47 -21.04c14.8,0.5 29.59,1.02 44.38,1.56 59.01,2.16 118.07,4.68 176.97,7.76 38.64,2.02 77.32,3.73 116.01,5.45l0 54.56z"/>
  <path class="fil0" d="M3413.03 3577.98c-29.72,4.7 -14.28,15.62 -189.12,15.95 -13.72,-0.1 -27.46,1.1 -41.14,-0.28 -6.74,-0.69 -7.91,-5.33 -8.12,-11.15l-6.05 0.05c-3.29,5.24 -14.24,10.1 -37.54,9.12 -29.45,0.39 -470.14,4 -499.59,4.37 -10.69,0.15 -21.39,0.27 -32.08,0.49 -52.52,1.09 -105.06,2.17 -157.6,3.26 -41.71,0.85 -83.41,2.15 -125.11,3.24 -282.06,7.43 -389.39,1.63 -447.36,-5.06l0.41 -22.2 10.96 -0.45c-3.12,-0.07 -6.7,-0.12 -10.95,-0.14l0.31 -16.85c11.75,0.06 23.48,0.16 35.21,0.26 46.8,0.42 93.65,1.11 140.37,2.26 42.72,1.06 85.5,1.62 128.26,2.41 12.86,0.24 25.72,0.17 38.6,0.17 29.6,-0.01 59.18,-0.01 88.78,-0.02 12.13,-0.01 24.24,0.03 36.37,-0.14 26.85,-0.35 53.7,-0.73 80.55,-1.09 36.94,-0.5 73.85,-1.04 110.79,-1.83 92.92,-1.96 185.84,-4.07 278.75,-6.22 40.41,-0.94 80.85,-1.51 121.26,-2.24 35.07,-0.63 70.14,-1.25 105.2,-1.82 43.78,-0.71 87.57,-1.34 131.35,-2.15 50.73,-0.92 101.44,-1.88 152.15,-1.82 32,0.04 63.97,0.47 95.91,1.09l-0.57 30.79z"/>
  <path class="fil0" d="M3220.69 444.43c-29.63,5.25 -13.99,15.89 -188.79,19.44 -13.72,0.15 -27.45,1.61 -41.14,0.48 -6.76,-0.56 -8.01,-5.19 -8.33,-10.99l-6.05 0.15c-3.19,5.3 -14.05,10.37 -37.36,9.81 -29.44,0.94 -469.99,12.67 -499.43,13.59 -10.68,0.35 -21.38,0.66 -32.06,1.08 -52.5,2.06 -105,4.1 -157.51,6.16 -41.69,1.63 -83.36,3.69 -125.03,5.55 -281.88,12.63 -389.3,8.8 -447.38,3.19l0 -22.21 10.95 -0.65c-3.12,-0.01 -6.7,0.01 -10.95,0.07l0 -16.86c11.74,-0.15 23.48,-0.27 35.21,-0.38 46.8,-0.45 93.65,-0.62 140.38,-0.33 42.73,0.26 85.52,0.04 128.29,0.04 12.85,0 25.72,-0.3 38.6,-0.54 29.59,-0.56 59.16,-1.11 88.76,-1.66 12.12,-0.23 24.24,-0.42 36.36,-0.81 26.83,-0.85 53.67,-1.72 80.51,-2.58 36.93,-1.18 73.82,-2.4 110.74,-3.87 92.88,-3.67 185.73,-7.49 278.59,-11.36 40.38,-1.68 80.8,-2.99 121.19,-4.47 35.06,-1.28 70.11,-2.55 105.16,-3.76 43.76,-1.52 87.52,-2.96 131.29,-4.57 50.7,-1.86 101.38,-3.75 152.09,-4.63 32,-0.55 63.97,-0.71 95.91,-0.68l0 30.79z"/>
  <path class="fil0" d="M3964.32 3005.15c-29.71,-5.21 -14.28,-17.34 -189.12,-17.7 -13.72,0.11 -27.46,-1.23 -41.13,0.31 -6.75,0.76 -7.92,5.92 -8.13,12.37l-6.05 -0.05c-3.29,-5.82 -14.24,-11.22 -37.54,-10.12 -29.45,-0.44 -470.14,-4.44 -499.59,-4.86 -10.69,-0.17 -21.39,-0.3 -32.08,-0.54 -52.52,-1.21 -105.06,-2.41 -157.59,-3.62 -41.72,-0.95 -83.41,-2.38 -125.12,-3.6 -282.06,-8.24 -389.39,-1.8 -447.36,5.62l0.41 24.65 10.96 0.49c-3.12,0.08 -6.7,0.13 -10.95,0.16l0.32 18.7c11.74,-0.07 23.47,-0.17 35.21,-0.29 46.8,-0.46 93.64,-1.23 140.36,-2.51 42.72,-1.17 85.51,-1.79 128.26,-2.67 12.86,-0.26 25.72,-0.19 38.61,-0.19 29.59,0.01 59.17,0.02 88.77,0.02 12.13,0.01 24.25,-0.03 36.37,0.15 26.85,0.4 53.7,0.81 80.55,1.22 36.94,0.56 73.85,1.16 110.79,2.03 92.93,2.17 185.84,4.52 278.76,6.91 40.4,1.04 80.84,1.67 121.25,2.48 35.07,0.7 70.14,1.39 105.2,2.02 43.78,0.79 87.57,1.49 131.35,2.39 50.73,1.02 101.44,2.08 152.16,2.02 32,-0.05 63.96,-0.52 95.9,-1.21l-0.57 -34.18z"/>
  <path class="fil0" d="M3961.27 1106.84c-39.2,5.22 -18.85,17.35 -249.39,17.71 -18.1,-0.1 -36.23,1.23 -54.26,-0.31 -8.89,-0.76 -10.44,-5.92 -10.71,-12.37l-7.98 0.05c-4.34,5.82 -18.78,11.22 -49.5,10.12 -38.84,0.44 -619.98,4.44 -658.81,4.87 -14.09,0.16 -28.21,0.29 -42.31,0.53 -69.25,1.21 -138.53,2.41 -207.82,3.62 -55,0.95 -109.98,2.38 -164.98,3.6 -95.94,2.13 -176.52,3.27 -244.63,3.68l0 -48.65 56.33 0.82c16.96,0.27 33.92,0.19 50.91,0.19 39.03,-0.01 78.04,-0.02 117.07,-0.02 15.98,-0.01 31.97,0.03 47.95,-0.16 35.41,-0.39 70.82,-0.8 106.23,-1.21 48.72,-0.56 97.38,-1.16 146.1,-2.03 122.54,-2.17 245.07,-4.51 367.59,-6.9 53.28,-1.05 106.61,-1.68 159.9,-2.49 46.24,-0.69 92.49,-1.39 138.72,-2.02 57.75,-0.79 115.48,-1.48 173.22,-2.39 66.89,-1.02 133.77,-2.09 200.64,-2.02 42.2,0.05 84.35,0.52 126.48,1.22l-0.75 34.16zm-1889.97 30.08c-68.86,-1.74 -113.19,-4.73 -145.72,-7.88l0.55 -24.65 14.44 -0.49c-4.12,-0.07 -8.83,-0.13 -14.44,-0.15l0.42 -18.71c15.49,0.07 30.95,0.17 46.43,0.29 32.77,0.25 65.55,0.58 98.32,1.02l0 50.57z"/>
  <path class="fil0" d="M3156.84 3797.98c-28.38,5.64 -13.53,19.06 -180.73,18.84 -13.13,-0.17 -26.26,1.26 -39.35,-0.49 -6.46,-0.86 -7.61,-6.55 -7.86,-13.65l-5.78 0.03c-3.11,6.4 -13.54,12.31 -35.83,11.02 -28.16,0.38 -449.59,3.23 -477.75,3.59 -10.22,0.15 -20.45,0.26 -30.67,0.49 -50.23,1.15 -100.46,2.28 -150.69,3.43 -39.89,0.9 -79.75,2.33 -119.63,3.53 -269.69,8.08 -372.38,0.61 -427.87,-7.77l0.22 -27.15 10.47 -0.51c-2.98,-0.09 -6.41,-0.17 -10.47,-0.21l0.16 -20.61c11.23,0.12 22.46,0.28 33.68,0.45 44.76,0.67 89.56,1.68 134.25,3.25 40.87,1.45 81.79,2.28 122.69,3.4 12.29,0.34 24.6,0.3 36.92,0.35 28.3,0.09 56.59,0.19 84.9,0.28 11.59,0.04 23.18,0.12 34.77,-0.03 25.68,-0.35 51.35,-0.71 77.03,-1.06 35.32,-0.48 70.62,-1.02 105.94,-1.85 88.85,-2.07 177.69,-4.32 266.54,-6.63 38.63,-1 77.3,-1.55 115.94,-2.31 33.53,-0.64 67.07,-1.28 100.59,-1.85 41.87,-0.72 83.74,-1.33 125.6,-2.17 48.51,-0.95 97,-1.94 145.5,-1.69 30.6,0.16 61.18,0.8 91.73,1.67l-0.3 37.65z"/>
  <path class="fil0" d="M3947.61 2797.97c-28.43,-5.2 -13.69,-18.27 -180.89,-16.64 -13.12,0.27 -26.26,-0.99 -39.34,0.8 -6.45,0.88 -7.55,6.38 -7.74,13.24l-5.79 0.02c-3.16,-6.15 -13.64,-11.76 -35.92,-10.33 -28.16,-0.13 -449.59,0.68 -477.76,0.57 -10.21,-0.05 -20.45,-0.07 -30.67,-0.2 -50.23,-0.69 -100.47,-1.36 -150.71,-2.04 -39.9,-0.53 -79.77,-1.57 -119.65,-2.39 -269.75,-5.52 -372.37,2.56 -427.79,11.11l0.43 26.19 10.48 0.4c-2.99,0.11 -6.41,0.21 -10.47,0.29l0.33 19.87c11.23,-0.21 22.45,-0.45 33.67,-0.71 44.76,-1.03 89.55,-2.39 134.22,-4.28 40.86,-1.73 81.77,-2.89 122.66,-4.31 12.29,-0.43 24.59,-0.5 36.91,-0.65 28.3,-0.32 56.59,-0.66 84.9,-0.99 11.59,-0.13 23.18,-0.31 34.77,-0.26 25.68,0.12 51.36,0.25 77.04,0.37 35.32,0.17 70.62,0.38 105.95,0.89 88.86,1.24 177.72,2.66 266.58,4.13 38.64,0.64 77.31,0.85 115.95,1.25 33.54,0.34 67.08,0.68 100.61,0.94 41.87,0.34 83.74,0.58 125.61,1.03 48.52,0.5 97.01,1.05 145.51,0.4 30.6,-0.42 61.17,-1.29 91.71,-2.39l-0.6 -36.31z"/>
  <path class="fil0" d="M3947.43 1357.22c-36.88,5.19 -17.75,18.27 -234.65,16.64 -17.02,-0.27 -34.07,0.99 -51.04,-0.8 -8.36,-0.89 -9.79,-6.38 -10.04,-13.24l-7.51 -0.02c-4.1,6.15 -17.7,11.76 -46.6,10.33 -36.53,0.13 -583.24,-0.69 -619.78,-0.57 -13.25,0.05 -26.53,0.07 -39.79,0.2 -65.16,0.69 -130.34,1.35 -195.53,2.04 -32.01,0.32 -64.01,0.85 -96.02,1.4l0 -45.79 66.85 -0.25c45.83,-0.17 91.62,-0.38 137.45,-0.88 115.27,-1.25 230.55,-2.67 345.82,-4.15 50.12,-0.63 100.29,-0.84 150.42,-1.25 43.51,-0.33 87.02,-0.67 130.52,-0.93 54.32,-0.34 108.64,-0.57 162.94,-1.03 62.95,-0.5 125.87,-1.05 188.78,-0.4 39.69,0.41 79.35,1.28 118.97,2.38l-0.79 36.32zm-1500.53 18.57c-66.32,0.41 -122.46,0.21 -170.31,-0.44l0 -53.24c44.53,1.31 89.1,2.32 133.66,3.52 12.2,0.33 24.42,0.44 36.65,0.55l0 49.61zm-369.89 -8.3c-17.36,-1.41 -31.98,-2.9 -44.68,-4.41l0.56 -26.19 13.59 -0.4c-3.87,-0.11 -8.3,-0.22 -13.58,-0.29l0.43 -19.88c14.57,0.21 29.13,0.46 43.68,0.72l0 50.45z"/>
  <path class="fil0" d="M3930.31 2646.73c-28.22,-4.87 -13.06,-13.49 -180.16,-19.36 -13.11,-0.36 -26.2,-1.81 -39.33,-1.09 -6.47,0.35 -7.76,4.19 -8.18,9.02l-5.79 -0.23c-2.95,-4.47 -13.22,-8.87 -35.53,-8.8 -28.14,-1.27 -449.21,-18.41 -477.35,-19.67 -10.21,-0.47 -20.43,-0.92 -30.64,-1.44 -50.16,-2.59 -100.34,-5.18 -150.51,-7.77 -39.84,-2.05 -79.64,-4.47 -119.46,-6.72 -269.32,-15.24 -372.12,-13.84 -427.78,-10.13l-0.46 18.52 10.46 0.72c-2.99,-0.04 -6.41,-0.11 -10.47,-0.23l-0.34 14.05c11.22,0.32 22.44,0.62 33.66,0.91 44.75,1.16 89.55,2.08 134.25,2.62 40.87,0.49 81.79,1.4 122.69,2.11 12.29,0.21 24.59,0.68 36.9,1.1 28.29,0.95 56.56,1.91 84.85,2.86 11.59,0.4 23.18,0.76 34.76,1.28 25.65,1.16 51.3,2.33 76.95,3.5 35.29,1.6 70.55,3.23 105.82,5.08 88.75,4.61 177.47,9.35 266.2,14.12 38.58,2.08 77.21,3.85 115.81,5.76 33.5,1.65 66.99,3.29 100.49,4.89 41.82,2 83.64,3.93 125.46,6.01 48.45,2.39 96.88,4.81 145.36,6.39 30.59,1 61.16,1.67 91.71,2.17l0.63 -25.67z"/>
  <path class="fil0" d="M3930.32 1484.99c-35.34,4.86 -16.36,13.48 -225.61,19.36 -16.43,0.36 -32.82,1.8 -49.25,1.08 -8.1,-0.35 -9.73,-4.18 -10.26,-9.02l-7.24 0.23c-3.7,4.48 -16.56,8.88 -44.49,8.8 -35.24,1.28 -562.55,18.42 -597.79,19.68 -12.78,0.46 -25.59,0.91 -38.37,1.43 -62.82,2.6 -125.65,5.18 -188.48,7.77 -41.62,1.71 -83.19,3.68 -124.77,5.59l0 -32.74 94.72 -3.44c44.19,-1.59 88.34,-3.23 132.53,-5.07 111.12,-4.61 222.24,-9.36 333.35,-14.13 48.32,-2.07 96.7,-3.84 145.04,-5.75 41.95,-1.65 83.89,-3.3 125.83,-4.9 52.38,-1.99 104.75,-3.92 157.12,-6 60.67,-2.4 121.33,-4.82 182.03,-6.4 38.31,-1 76.59,-1.66 114.85,-2.16l0.79 25.67zm-1485.84 63.18c-210.49,7.47 -304.85,5.99 -360.97,3.01l-0.57 -18.52 13.11 -0.73c-3.74,0.05 -8.02,0.12 -13.11,0.24l-0.44 -14.05c14.06,-0.33 28.11,-0.63 42.17,-0.92 56.03,-1.15 112.14,-2.08 168.11,-2.62 50.54,-0.48 101.13,-1.37 151.7,-2.08l0 35.67z"/>
  <path class="fil0" d="M3979.7 2435.27c-29.47,-4.93 -13.65,-13.51 -188.09,-19.75 -13.69,-0.38 -27.36,-1.86 -41.05,-1.16 -6.76,0.33 -8.11,4.17 -8.54,9l-6.04 -0.24c-3.08,-4.48 -13.82,-8.91 -37.1,-8.88 -29.37,-1.33 -468.95,-19.36 -498.32,-20.68 -10.66,-0.49 -21.33,-0.96 -31.99,-1.5 -52.36,-2.7 -104.74,-5.39 -157.12,-8.1 -41.59,-2.13 -83.14,-4.63 -124.71,-6.96 -281.15,-15.81 -388.47,-14.63 -446.57,-11.04l-0.45 18.52 10.91 0.74c-3.11,-0.05 -6.68,-0.13 -10.92,-0.25l-0.35 14.05c11.72,0.35 23.43,0.67 35.15,0.98 46.71,1.25 93.48,2.27 140.14,2.91 42.66,0.57 85.38,1.56 128.07,2.36 12.84,0.24 25.67,0.74 38.52,1.18 29.53,1.02 59.05,2.03 88.59,3.04 12.09,0.42 24.19,0.81 36.27,1.35 26.78,1.22 53.56,2.44 80.34,3.67 36.84,1.67 73.64,3.38 110.47,5.3 92.64,4.8 185.27,9.73 277.9,14.69 40.27,2.16 80.6,4.01 120.9,6 34.96,1.72 69.93,3.44 104.9,5.1 43.65,2.09 87.32,4.11 130.97,6.28 50.58,2.49 101.14,5.02 151.75,6.7 31.93,1.06 63.84,1.79 95.74,2.36l0.63 -25.67z"/>
  <path class="fil0" d="M3979.71 1696.45c-32.18,4.93 -14.91,13.51 -205.38,19.74 -14.95,0.39 -29.88,1.86 -44.83,1.17 -7.39,-0.34 -8.85,-4.17 -9.33,-9.01l-6.59 0.24c-3.36,4.48 -15.09,8.91 -40.51,8.88 -32.07,1.34 -512.07,19.37 -544.14,20.69 -11.63,0.49 -23.29,0.95 -34.93,1.5 -57.18,2.7 -114.37,5.39 -171.56,8.09 -45.42,2.13 -90.79,4.63 -136.18,6.97 -307,15.81 -424.18,14.63 -487.63,11.03l-0.49 -18.51 11.91 -0.75c-3.4,0.05 -7.3,0.13 -11.93,0.26l-0.37 -14.06c12.79,-0.34 25.58,-0.66 38.37,-0.98 51.01,-1.25 102.08,-2.27 153.03,-2.9 46.59,-0.58 93.23,-1.57 139.85,-2.37 14.01,-0.24 28.03,-0.73 42.06,-1.17 32.25,-1.02 64.48,-2.03 96.73,-3.05 13.21,-0.42 26.41,-0.8 39.61,-1.35 29.24,-1.22 58.48,-2.44 87.72,-3.66 40.23,-1.68 80.42,-3.39 120.63,-5.3 101.17,-4.8 202.31,-9.73 303.45,-14.69 43.98,-2.16 88.02,-4.02 132.01,-6 38.19,-1.72 76.37,-3.44 114.55,-5.11 47.67,-2.09 95.35,-4.1 143.02,-6.27 55.23,-2.5 110.44,-5.03 165.7,-6.71 34.87,-1.05 69.71,-1.79 104.54,-2.36l0.69 25.68z"/>
  <path class="fil0" d="M3970.06 2141.62c-30.75,-2.89 -15.02,-12.54 -195.46,-6.79 -14.16,0.56 -28.36,0.02 -42.45,1.65 -6.95,0.8 -8.08,4.72 -8.19,9.58l-6.25 0.17c-3.49,-4.26 -14.87,-7.94 -38.9,-6.32 -30.4,0.69 -485.27,12.86 -515.67,13.56 -11.04,0.24 -22.09,0.51 -33.12,0.69 -54.23,0.9 -108.46,1.81 -162.7,2.71 -43.07,0.73 -86.12,1.08 -129.18,1.6 -291.23,3.52 -401.89,12.06 -461.6,19.63l0.8 18.51 11.31 -0.01c-3.21,0.17 -6.9,0.33 -11.29,0.5l0.61 14.04c12.12,-0.46 24.23,-0.94 36.34,-1.43 48.29,-1.96 96.62,-4.15 144.82,-6.72 44.07,-2.35 88.22,-4.29 132.33,-6.42 13.26,-0.64 26.54,-1.03 39.84,-1.47 30.54,-1.01 61.07,-2.03 91.62,-3.04 12.51,-0.41 25.02,-0.86 37.53,-1.14 27.72,-0.63 55.44,-1.24 83.15,-1.86 38.14,-0.86 76.24,-1.68 114.38,-2.29 95.93,-1.57 191.86,-3.01 287.79,-4.41 41.72,-0.61 83.46,-1.53 125.18,-2.31 36.2,-0.68 72.41,-1.37 108.6,-2.1 45.2,-0.92 90.4,-1.9 135.6,-2.73 52.37,-0.98 104.72,-1.93 157.06,-3.72 33.03,-1.14 66.01,-2.6 98.96,-4.22l-1.11 -25.66z"/>
  <path class="fil0" d="M3970.07 1990.09c-30.76,2.9 -15.02,12.54 -195.46,6.79 -14.16,-0.55 -28.37,-0.02 -42.45,-1.65 -6.96,-0.8 -8.08,-4.72 -8.19,-9.57l-6.25 -0.17c-3.49,4.25 -14.87,7.93 -38.9,6.31 -30.4,-0.68 -485.27,-12.85 -515.68,-13.55 -11.03,-0.24 -22.08,-0.51 -33.11,-0.7 -54.23,-0.9 -108.46,-1.81 -162.7,-2.71 -43.07,-0.72 -86.12,-1.08 -129.18,-1.6 -291.23,-3.52 -401.89,-12.06 -461.61,-19.63l0.81 -18.5 11.31 0c-3.21,-0.16 -6.91,-0.33 -11.29,-0.49l0.61 -14.05c12.12,0.46 24.23,0.94 36.34,1.43 48.29,1.96 96.62,4.15 144.82,6.72 44.07,2.35 88.22,4.29 132.33,6.43 13.26,0.64 26.54,1.03 39.84,1.47 30.54,1.01 61.07,2.02 91.62,3.04 12.51,0.41 25.02,0.85 37.53,1.14 27.72,0.62 55.44,1.24 83.15,1.86 38.14,0.85 76.24,1.67 114.38,2.29 95.93,1.56 191.86,3 287.79,4.41 41.71,0.61 83.46,1.52 125.18,2.3 36.2,0.69 72.41,1.37 108.6,2.11 45.2,0.91 90.4,1.9 135.6,2.73 52.37,0.97 104.72,1.92 157.06,3.72 33.03,1.13 66.01,2.59 98.96,4.21l-1.11 25.66z"/>
  <rect class="fil2" x="2.59" y="-0.57" width="4343.4" height="4343.58"/>
 </g>
</svg>
