<?xml version="1.0" encoding="UTF-8"?>
<!DOCTYPE svg PUBLIC "-//W3C//DTD SVG 1.1//EN" "http://www.w3.org/Graphics/SVG/1.1/DTD/svg11.dtd">
<!-- Creator: CorelDRAW 2018 (64-Bit) -->
<svg xmlns="http://www.w3.org/2000/svg" xml:space="preserve" width="43.4338mm" height="43.4338mm" version="1.1" style="shape-rendering:geometricPrecision; text-rendering:geometricPrecision; image-rendering:optimizeQuality; fill-rule:evenodd; clip-rule:evenodd"
viewBox="0 0 4343.38 4343.38"
 xmlns:xlink="http://www.w3.org/1999/xlink">
 <defs>
  <style type="text/css">
   <![CDATA[
    .fil5 {fill:none}
    .fil2 {fill:#2B2A29}
    .fil1 {fill:#1D1D1B}
    .fil0 {fill:#2B2A29;fill-rule:nonzero}
    .fil3 {fill:black;fill-rule:nonzero}
    .fil4 {fill:black;fill-rule:nonzero}
   ]]>
  </style>
 </defs>
 <g id="Слой_x0020_1">
  <metadata id="CorelCorpID_0Corel-Layer"/>
  <path class="fil0" d="M2022.84 3056.66c-497.36,423.49 -1318.25,232.3 -1619.19,-299.12 -74.81,-132.26 -154.05,-325.64 -155.91,-476.69 -1.61,-128.06 26.24,-254.49 68.13,-375.96 81.95,-235.52 173.26,-435.79 376.69,-604.93 92.94,-77.51 215.92,-164.47 332.81,-207.77 137.21,-50.7 320.99,-79.39 468.68,-64.61 249.38,24.92 479.69,120.96 668.11,272.92 50.35,40.59 94.9,83.73 133.97,128.94l154.71 -58.34c-44.94,-53.14 -95.82,-104.42 -152.9,-153.42 -353.9,-303.7 -772.04,-373.25 -1217.48,-255.36 -403.13,106.91 -754.09,428.99 -873.27,776.91 -113.94,244.88 -158.2,517.97 -111.98,774.72 72.12,401.37 389.61,744.22 784.93,908.23 405.55,168.3 846.19,59.29 1184.09,-182.21 49.44,-35.32 96.38,-72.7 140.86,-111.78l-130.27 -118.13c-16.97,15.96 -34.29,31.51 -51.98,46.6zm428.64 -1375.75c20.83,50.69 36.76,102.67 48.1,155.49l190.17 0c-17.46,-73.45 -42.89,-145.86 -76.73,-216.42l-161.54 60.93zm66.53 445.6c-4.31,55.99 -12.92,112.03 -25.52,167.66l184.7 102.47c24.08,-89.18 38.06,-179.68 41.16,-270.13l-200.34 0zm-122.77 445.48c-36.36,76.22 -79.86,149.89 -129.58,219.51l140.42 127.33c63.89,-79.46 118.81,-163.23 163.99,-249.85l-174.83 -96.99z"/>
  <path class="fil0" d="M3525.72 1372.54c-412.66,-351.35 -1039.53,-295.7 -1434.91,21.91l-182.06 -129.23c124.34,-113.72 270.63,-207 428.93,-272.68 421.64,-174.99 879.77,-61.65 1231.07,189.44 739.42,528.09 958.89,1487.87 242.98,2102.47 -367.92,315.74 -802.65,388.05 -1265.74,265.49 -302.35,-80.18 -576.46,-276.77 -752.24,-515.88l129.37 -84.86c56.84,89.67 127.06,172.78 219.58,249.71 96.6,80.59 224.48,170.99 346.01,216.01 142.64,52.71 333.7,82.53 487.27,67.17 259.26,-25.91 498.71,-125.75 694.6,-283.73 617.96,-498.3 397.87,-1363.28 -144.86,-1825.82zm-1873.73 1407.56c-4.92,-12.59 -9.59,-25.22 -13.92,-37.88 -27.06,-58.16 -50.32,-117.86 -69.56,-178.52l170.07 -31.37c4.01,12.6 8.19,25.16 12.49,37.67 13.91,39.95 28.07,78.91 42.95,116.93l-142.03 93.17zm-142.59 -500.5c-9.99,-99.86 -8.64,-200.07 5.15,-298.34l181.47 70.87c-9.55,44 -15.29,86.93 -15.78,127 -0.3,22.93 0.32,45.82 1.77,68.64l-172.61 31.83zm83.91 -579.03c32.73,-75.82 73.87,-148.4 122.12,-216.81l174.68 123.99c-17.07,24.45 -33.03,49.71 -47.79,75.77 -16.5,29.16 -33.19,61.19 -49.29,95.05l-199.72 -78z"/>
  <path class="fil1" d="M2352.87 1861.77c-36.47,3.61 -77.12,-5.56 -113.48,-9.78 -8.15,-0.96 -8.63,-13.38 0,-13.08 37.18,1.2 79.44,-1.8 115.59,7.35 9.18,2.32 6.32,14.67 -2.11,15.51z"/>
  <path class="fil2" d="M2319.96 1772.91c-33.81,14.14 -75.37,17.29 -111.36,23.91 -8.08,1.48 -12.18,-10.26 -3.84,-12.51 35.89,-9.75 75.42,-25 112.67,-26.85 9.45,-0.48 10.33,12.17 2.53,15.45z"/>
  <path class="fil2" d="M2208.13 2187c-44.66,-5.99 -94.44,9.23 -138.95,16.24 -9.99,1.58 -10.57,22.19 0,21.7 45.52,-2 97.26,2.98 141.53,-12.21 11.24,-3.84 7.73,-24.34 -2.58,-25.73z"/>
  <path class="fil2" d="M2155.85 2258.01c-44.66,-5.99 -94.44,9.23 -138.95,16.24 -9.98,1.58 -10.57,22.19 0,21.71 45.52,-2 97.26,2.97 141.53,-12.21 11.24,-3.85 7.73,-24.34 -2.58,-25.74z"/>
  <path class="fil2" d="M2351.12 2347.73c-44.66,-5.99 -94.43,9.23 -138.95,16.24 -9.98,1.58 -10.56,22.19 0,21.7 45.52,-2 97.27,2.98 141.54,-12.21 11.23,-3.84 7.73,-24.34 -2.59,-25.73z"/>
  <path class="fil2" d="M2379.75 2435.42c-44.65,6 -94.43,-9.23 -138.94,-16.23 -9.99,-1.59 -10.57,-22.2 0,-21.71 45.51,2 97.26,-2.98 141.53,12.21 11.23,3.84 7.73,24.34 -2.59,25.73z"/>
  <path class="fil2" d="M2359.41 2496.83c-44.65,5.99 -94.43,-9.23 -138.95,-16.24 -9.98,-1.58 -10.56,-22.19 0,-21.7 45.52,2 97.27,-2.98 141.54,12.21 11.23,3.84 7.73,24.34 -2.59,25.73z"/>
  <path class="fil2" d="M2267.94 2143.78c-44.66,4.05 -94.43,-6.23 -138.95,-10.97 -9.98,-1.07 -10.57,-15 0,-14.67 45.52,1.35 97.27,-2.01 141.53,8.25 11.24,2.6 7.73,16.45 -2.58,17.39z"/>
  <path class="fil2" d="M2312.04 2059.21c-44.66,-4.79 -94.43,7.39 -138.95,13 -9.98,1.26 -10.57,17.75 0,17.36 45.52,-1.6 97.27,2.38 141.53,-9.77 11.24,-3.07 7.73,-19.47 -2.58,-20.59z"/>
  <path class="fil2" d="M2337.43 2021.51c-36.47,4.79 -77.12,-7.38 -113.47,-12.99 -8.16,-1.26 -8.63,-17.75 0,-17.36 37.17,1.6 79.43,-2.38 115.58,9.77 9.18,3.07 6.32,19.47 -2.11,20.58z"/>
  <path class="fil2" d="M2348.9 1965.94c-33.88,3.69 -71.66,-5.69 -105.44,-10.01 -7.57,-0.98 -8.01,-13.68 0,-13.38 34.55,1.23 73.81,-1.84 107.41,7.52 8.52,2.37 5.86,15.01 -1.97,15.87z"/>
  <path class="fil2" d="M2364.65 1917.99c-28.06,2.03 -59.34,-3.12 -87.31,-5.5 -6.27,-0.54 -6.64,-7.52 0,-7.35 28.6,0.67 61.12,-1.01 88.94,4.13 7.06,1.31 4.86,8.25 -1.63,8.72z"/>
  <path class="fil3" d="M2377.55 2413.93c-0.71,-16.83 -7.24,-32.25 -18.35,-43.59 -10.55,-10.78 -25.39,-17.98 -43.49,-19.34 -25.2,-1.9 -50.07,-1.73 -74.92,-1.55 -14.08,0.1 -28.18,0.19 -42.22,-0.06 -8.51,-0.16 -16.27,-0.46 -23.99,-0.77 -12.91,-0.51 -25.81,-1.03 -38.3,-0.8 -2.46,0.04 -5.51,-0.24 -9.08,-0.56 -4.68,-0.42 -10.53,-0.95 -15.13,-0.68l-37.97 2.29 26.79 -27.08c38.76,-39.18 76.97,-80.74 112.71,-124.05 35.79,-43.38 69.14,-88.51 98.12,-134.77 27.25,-43.5 44.06,-88.46 47.65,-134.2 3.32,-42.41 -4.8,-85.72 -26.61,-129.39 -18.38,-36.81 -47.7,-64.17 -82.39,-80.88 -36.32,-17.5 -78.58,-23.41 -120.46,-16.44 -34.88,5.81 -65.66,20.76 -91.74,41.7 -29.06,23.34 -52.39,54.16 -69.17,88.16l-0.46 0.8c-5.87,10.2 -11.03,20.85 -15.25,31.69 -3.94,10.11 -7.05,20.5 -9.14,30.94 -2.41,12.1 -2.28,34.79 2.94,53.87 3.15,11.53 7.87,21.15 14.46,24.13 12.75,5.77 25.24,7.45 37.04,5.57 12.58,-1.99 24.76,-8.04 35.99,-17.48 9.17,-7.69 18.91,-18.28 28.94,-29.18 11.39,-12.37 23.14,-25.14 35.74,-35.67l1.02 -0.86 3.62 -1.93c25.44,-13.63 51.2,-27.44 82.63,-7.68 4.25,2.67 8.01,5.59 11.33,8.72 3.36,3.17 6.31,6.59 8.86,10.19l1.69 2.38 0.65 2.86c4.51,19.97 6.01,37.71 3.07,55.36 -2.97,17.8 -10.38,34.98 -23.62,53.59 -12.19,17.09 -26.77,31.9 -41.18,46.55 -4.42,4.49 -8.83,8.97 -13.33,13.69l-3.2 3.37c-41.43,43.51 -82.84,87.02 -121.72,132.64 -17.37,20.36 -34.03,41.48 -49.89,63.33 -15.61,21.5 -30.31,43.51 -44.03,66.02 -1.56,2.57 -3.77,6.04 -6.22,9.91 -18.03,28.46 -52.95,83.63 -37.59,105.63 18.31,26.24 62.94,31.07 98.31,34.87 6.21,0.68 12.33,1.34 15.49,1.73 33,4.1 65.91,-4.45 98.65,-2.86 33.52,1.63 66.68,0.62 99.5,0.98 32.02,0.37 74.49,12.05 112.09,2.45 34.96,-8.93 65.46,-25.23 77.28,-54.82l1.07 -2.71 0.65 -0.67c0.46,-1.55 0.84,-3 1.13,-4.36 0.42,-1.87 0.82,-4.16 1.2,-6.73l0.06 -0.4c0.35,-2 0.66,-3.99 0.89,-5.93l0.41 -4.01 -0.4 -0.78 -0.13 -3.19zm2.4 -64c15.64,15.98 25.03,37.31 26.54,60.53l0.27 1.05c0.4,1.67 0.59,3.54 0.51,5.64l0 0.06c-0.14,3.11 -0.36,5.79 -0.64,8.12 -0.32,2.63 -0.7,5.14 -1.12,7.53 -0.38,2.47 -0.9,5.24 -1.6,8.38 -0.71,3.17 -1.5,6.19 -2.4,8.98 -0.56,1.81 -1.41,3.46 -2.42,4.94l-0.36 0.56c-16.54,38.65 -53.92,59.3 -96.16,70.09 -40.44,10.32 -85.55,0.43 -119.5,0.04 -33.66,-0.37 -67.39,3.2 -100.64,1.58 -34.02,-1.66 -67.77,2.59 -100.82,-1.51 -6.48,-0.8 -10.62,-1.26 -15.03,-1.73 -41.17,-4.44 -93.14,-10.05 -119.05,-47.19 -26.47,-37.89 15.26,-103.78 36.79,-137.77 2.21,-3.5 4.18,-6.6 5.99,-9.58 14.25,-23.38 29.37,-46.03 45.28,-67.95 16.16,-22.25 33.31,-43.98 51.37,-65.16 39.36,-46.18 81.05,-89.97 122.75,-133.78l3.2 -3.36c4.34,-4.56 9,-9.3 13.67,-14.04 13.62,-13.83 27.38,-27.82 38.22,-43.02 10.54,-14.79 16.36,-28.09 18.6,-41.5 2.12,-12.72 1.13,-26.01 -2.05,-41.11 -1.05,-1.27 -2.19,-2.5 -3.44,-3.68 -2.02,-1.91 -4.31,-3.69 -6.88,-5.3 -17.13,-10.77 -35.41,-0.98 -53.45,8.69l-0.63 0.34c-10.84,9.22 -21.57,20.89 -32,32.21 -10.68,11.61 -21.07,22.89 -31.67,31.8 -15.19,12.75 -32.13,21.01 -50.13,23.86 -17.4,2.76 -35.48,0.46 -53.56,-7.73 -15.73,-7.13 -25.31,-23.89 -30.55,-43.06 -6.44,-23.58 -6.55,-51.95 -3.5,-67.21 2.36,-11.82 5.98,-23.82 10.62,-35.73 4.61,-11.86 10.28,-23.57 16.73,-34.88 18.57,-37.64 44.54,-71.87 77.04,-97.96 29.83,-23.96 65.12,-41.07 105.2,-47.75 47.81,-7.96 96.19,-1.14 137.89,18.95 40.35,19.44 74.45,51.26 95.85,94.1 24.28,48.61 33.3,97.05 29.57,144.67 -3.96,50.47 -22.33,99.81 -52.1,147.31 -29.8,47.56 -63.87,93.71 -100.28,137.85 -29.33,35.53 -60.16,69.8 -91.52,102.48 10.53,0.04 20.85,0.45 31.17,0.86 8.03,0.32 16.07,0.64 23.32,0.77 13.87,0.25 27.76,0.16 41.64,0.06 25.89,-0.18 51.81,-0.36 77.2,1.55 25.55,1.92 46.76,12.35 62.08,28z"/>
  <path class="fil1" d="M1369.26 2201.72c-55.58,5.5 -117.53,-8.48 -172.93,-14.92 -12.43,-1.45 -13.15,-20.38 0,-19.93 56.65,1.83 121.06,-2.74 176.15,11.21 13.98,3.53 9.62,22.36 -3.22,23.64z"/>
  <path class="fil1" d="M3712.39 2277.18c-51.55,5.11 -109,-7.86 -160.39,-13.83 -11.52,-1.35 -12.2,-18.91 0,-18.49 52.54,1.7 112.28,-2.54 163.38,10.4 12.97,3.27 8.92,20.74 -2.99,21.92z"/>
  <path class="fil1" d="M3663.58 1699.55c-51.55,5.11 -109.01,-7.86 -160.4,-13.83 -11.52,-1.35 -12.19,-18.91 0,-18.49 52.55,1.7 112.28,-2.54 163.38,10.4 12.97,3.27 8.93,20.74 -2.98,21.92z"/>
  <path class="fil1" d="M1255.63 1909.91c-55.58,5.51 -117.53,-8.48 -172.93,-14.91 -12.43,-1.46 -13.15,-20.39 0,-19.94 56.65,1.84 121.06,-2.73 176.15,11.21 13.98,3.54 9.62,22.36 -3.22,23.64z"/>
  <path class="fil1" d="M1278.95 1837.65c-55.58,5.51 -117.53,-8.47 -172.94,-14.91 -12.42,-1.45 -13.15,-20.39 0,-19.94 56.66,1.84 121.06,-2.73 176.16,11.22 13.98,3.53 9.62,22.35 -3.22,23.63z"/>
  <path class="fil1" d="M1328.58 1719.61c-55.58,-5.51 -117.53,8.47 -172.94,14.91 -12.42,1.45 -13.15,20.39 0,19.94 56.65,-1.84 121.06,2.73 176.15,-11.22 13.99,-3.53 9.63,-22.35 -3.21,-23.63z"/>
  <path class="fil1" d="M1378.2 1668.76c-55.58,5.51 -117.53,-8.47 -172.93,-14.91 -12.43,-1.45 -13.15,-20.39 0,-19.94 56.65,1.84 121.06,-2.73 176.15,11.22 13.98,3.53 9.62,22.35 -3.22,23.63z"/>
  <path class="fil1" d="M1380.02 1576.13c-55.58,5.51 -117.53,-8.47 -172.94,-14.91 -12.42,-1.46 -13.15,-20.39 0,-19.94 56.66,1.84 121.06,-2.73 176.16,11.22 13.98,3.53 9.62,22.35 -3.22,23.63z"/>
  <path class="fil2" d="M1319.1 2066.29c-51.52,21.56 -114.85,26.35 -169.71,36.44 -12.3,2.25 -18.55,-15.63 -5.84,-19.06 54.7,-14.85 114.93,-38.11 171.7,-40.92 14.4,-0.73 15.75,18.55 3.85,23.54z"/>
  <path class="fil2" d="M3665.87 2151.57c-47.79,20 -106.52,24.44 -157.4,33.8 -11.41,2.09 -17.21,-14.5 -5.42,-17.68 50.73,-13.77 106.6,-35.34 159.25,-37.95 13.36,-0.67 14.61,17.21 3.57,21.83z"/>
  <path class="fil2" d="M1256.11 1961.83c-50.06,24.76 -112.96,33.54 -167.07,47.07 -12.14,3.02 -19.5,-14.43 -7.04,-18.65 53.66,-18.28 112.31,-45.28 168.78,-51.67 14.33,-1.63 16.89,17.53 5.33,23.25z"/>
  <path class="fil2" d="M3607.45 2054.69c-46.44,22.97 -104.77,31.11 -154.96,43.65 -11.26,2.81 -18.08,-13.38 -6.53,-17.3 49.77,-16.94 104.17,-41.99 156.55,-47.92 13.28,-1.51 15.66,16.26 4.94,21.57z"/>
  <path class="fil2" d="M3428.17 1743.53c46.43,22.96 104.77,31.1 154.96,43.65 11.26,2.81 18.08,-13.39 6.53,-17.3 -49.77,-16.95 -104.17,-41.99 -156.55,-47.92 -13.28,-1.51 -15.66,16.25 -4.94,21.57z"/>
  <path class="fil2" d="M1148.68 2696.84c-68.06,9.13 -143.91,-14.07 -211.76,-24.75 -15.21,-2.41 -16.1,-33.82 0,-33.07 69.37,3.04 148.24,-4.54 215.7,18.6 17.12,5.86 11.78,37.1 -3.94,39.22z"/>
  <path class="fil2" d="M3507.8 2736.4c-63.12,8.47 -133.47,-13.04 -196.39,-22.95 -14.12,-2.24 -14.94,-31.37 0,-30.68 64.33,2.83 137.48,-4.21 200.05,17.26 15.88,5.43 10.93,34.4 -3.66,36.37z"/>
  <path class="fil2" d="M1218.06 2631.5c-68.05,6.17 -143.91,-9.51 -211.75,-16.73 -15.21,-1.63 -16.1,-22.86 0,-22.35 69.37,2.05 148.23,-3.07 215.7,12.57 17.12,3.96 11.78,25.07 -3.95,26.51z"/>
  <path class="fil2" d="M3572.16 2675.8c-63.12,5.72 -133.48,-8.82 -196.4,-15.52 -14.11,-1.51 -14.93,-21.2 0,-20.73 64.34,1.91 137.48,-2.84 200.06,11.66 15.87,3.67 10.92,23.25 -3.66,24.59z"/>
  <path class="fil2" d="M1287.45 2520.62c-68.05,-7.31 -143.91,11.25 -211.75,19.79 -15.21,1.93 -16.1,27.06 0,26.46 69.37,-2.43 148.23,3.63 215.69,-14.88 17.12,-4.69 11.79,-29.67 -3.94,-31.37z"/>
  <path class="fil2" d="M3636.52 2572.96c-63.12,-6.78 -133.48,10.43 -196.4,18.36 -14.11,1.79 -14.94,25.09 0,24.54 64.34,-2.26 137.48,3.37 200.05,-13.8 15.88,-4.35 10.93,-27.53 -3.65,-29.1z"/>
  <path class="fil2" d="M1345.74 2445.16c-55.58,7.3 -117.53,-11.26 -172.94,-19.8 -12.42,-1.93 -13.15,-27.05 0,-26.46 56.65,2.44 121.06,-3.63 176.16,14.89 13.98,4.68 9.62,29.67 -3.22,31.37z"/>
  <path class="fil2" d="M3690.57 2502.97c-51.55,6.77 -109,-10.44 -160.39,-18.36 -11.53,-1.79 -12.2,-25.09 0,-24.54 52.54,2.26 112.28,-3.37 163.38,13.8 12.97,4.35 8.92,27.52 -2.99,29.1z"/>
  <path class="fil2" d="M1363.22 2360.46c-51.64,5.63 -109.21,-8.67 -160.69,-15.25 -11.54,-1.49 -12.22,-20.85 0,-20.39 52.64,1.88 112.49,-2.8 163.68,11.47 12.99,3.61 8.94,22.86 -2.99,24.17z"/>
  <path class="fil2" d="M3706.79 2424.41c-47.9,5.22 -101.29,-8.04 -149.04,-14.14 -10.71,-1.38 -11.33,-19.34 0,-18.91 48.83,1.74 104.33,-2.6 151.81,10.63 12.05,3.35 8.3,21.21 -2.77,22.42z"/>
  <path class="fil2" d="M1365.12 2294.38c-42.77,3.09 -90.44,-4.77 -133.07,-8.39 -9.56,-0.81 -10.11,-11.46 0,-11.2 43.59,1.03 93.15,-1.54 135.54,6.3 10.76,1.98 7.41,12.57 -2.47,13.29z"/>
  <path class="fil2" d="M3708.55 2363.12c-39.67,2.87 -83.88,-4.42 -123.42,-7.77 -8.86,-0.76 -9.38,-10.63 0,-10.4 40.43,0.96 86.4,-1.42 125.72,5.85 9.97,1.84 6.86,11.66 -2.3,12.32z"/>
  <path class="fil2" d="M3624.55 1631.85c-39.66,2.87 -83.87,-4.42 -123.41,-7.77 -8.87,-0.76 -9.39,-10.63 0,-10.4 40.43,0.96 86.39,-1.42 125.71,5.85 9.98,1.84 6.87,11.66 -2.3,12.32z"/>
  <path class="fil3" d="M1281.11 2025.31c-3.27,-5.12 -6.55,-10.11 -9.86,-14.83 -3.41,-4.82 -6.78,-9.34 -10.13,-13.4 -3.24,-3.93 -6.68,-7.71 -10.36,-11.27 -3.43,-3.32 -7.15,-6.47 -11.2,-9.37 -4.29,-3.08 -8.24,-6.01 -12.08,-9.11l-0.05 -0.05c-3.86,-3.12 -7.18,-6.13 -9.99,-9.21 -4.04,-4.49 -7.19,-9.11 -9.39,-14.13 -2.28,-5.18 -3.54,-10.71 -3.79,-16.88l-0.37 -8.83 4.6 -7.04c8.1,-12.34 15.4,-23.89 22.3,-35.03 7.96,-12.87 14.83,-24.19 21.65,-35.44 7.32,-12.07 14.63,-24.1 20.97,-34.34 4.88,-7.9 9.8,-15.77 14.78,-23.58l-0.09 -0.04 7.04 -10.81c2.97,-4.56 6.16,-9.27 9.46,-14.05l10.19 -14.61c9.75,-13.86 19.7,-28.01 27.99,-41.94 8.3,-13.99 15.54,-28.55 20.41,-44l2.13 -7.27c3.6,-13.61 4.89,-26.08 4.22,-37.41 -0.69,-11.63 -3.51,-22.12 -8.02,-31.42 -4.49,-9.17 -10.64,-17.4 -18.08,-24.57 -8.05,-7.77 -17.64,-14.42 -28.26,-19.87l-8.9 -4.12c-9.71,-4.2 -19.54,-7.69 -29.4,-10.57 -163.28,26.79 -372.22,1.66 -502.18,38.28l-0.11 0.18 -6.42 2.92c-8.67,3.91 -16.87,9.63 -24.29,16.75 -7.78,7.45 -14.76,16.46 -20.61,26.57 -5.82,10.07 -10.52,21.2 -13.77,32.93 -3.15,11.38 -4.98,23.32 -5.2,35.39 -0.27,14.61 3.76,25.62 10.39,33.88 6.84,8.51 16.73,14.57 27.76,18.86 12.99,5.07 27.57,7.83 41.34,9.34 14.37,1.57 27.66,1.81 37.69,1.87 9.18,0.06 18.75,-0.26 28.57,-0.88 9.44,-0.6 19.17,-1.52 29.04,-2.68 10.1,-1.19 19.75,-2.57 28.99,-4.06 9.23,-1.49 19.07,-3.26 29.21,-5.21l1.06 -0.19c11.58,-2.22 23.11,-4.43 34.57,-6.41 11.31,-1.94 22.75,-3.71 34.46,-5.11l1.49 -0.29c11.01,-2.16 58.59,-11.5 72.47,5.8 4.78,5.95 7.25,12.61 6.87,20 -0.31,6.47 -2.83,13.05 -7.89,19.65l-0.55 0.73c-14.26,18.59 -28.55,37.25 -42.51,56.19 -13.95,18.95 -27.51,38.1 -40.22,57.6 -7.53,11.55 -14.45,21.67 -21.35,31.75l-0.9 1.32c-7.7,11.23 -15.43,22.51 -22.33,33.11 -7.28,11.18 -14.22,22.42 -20.46,33.7 -3.91,7.06 -6.6,14.49 -8.13,22 -1.58,7.74 -1.91,15.62 -1.1,23.31 0.84,7.96 2.93,15.8 6.14,23.18 3.18,7.39 7.53,14.35 12.9,20.6 4.59,5.33 9.27,10.38 14.01,15.08 4.69,4.65 9.51,8.98 14.42,12.97 4.91,3.98 9.94,7.64 15.08,10.92 5.07,3.23 10.42,6.2 16.04,8.86l7.74 3.61 9.29 4.18c6.3,2.83 12.68,5.72 20.38,9.42 6.75,3.23 13.36,6.59 19.76,10.21 3.02,1.09 6.09,2.27 9.17,3.57 3.34,1.35 6.78,2.96 10.35,4.81 3.72,1.92 7.34,4 10.8,6.27 3.38,2.21 6.86,4.77 10.44,7.75 10.42,8.59 19.42,19.49 27.1,31.9 8.18,13.22 14.85,28.1 20.16,43.76 5.72,16.87 9.97,34.89 12.93,52.8 3.27,19.86 4.95,39.67 5.32,57.68 0.48,22.47 -2.67,43.98 -8.64,63.91 -6.38,21.27 -16.01,40.9 -27.94,58.13 -12.42,17.92 -27.36,33.26 -43.71,45.13 -16.52,11.99 -34.58,20.55 -53.08,24.8 -41.66,9.6 -71.77,-3.74 -96.08,-28.52 -22.68,-23.12 -39.46,-55.9 -56.23,-88.69 -7.92,-15.49 -15.86,-31 -24.15,-44.7 -8.02,-13.24 -16.52,-25.06 -25.94,-33.97 -6.13,-5.79 -13.17,-9.73 -20.66,-12.04 -8.37,-2.58 -17.46,-3.22 -26.64,-2.27 -10.37,1.09 -20.79,4.23 -30.5,8.95 -9.92,4.85 -19,11.28 -26.38,18.77 -7.36,7.49 -13.56,16.99 -18.54,27.73 -5.48,11.82 -9.46,25.02 -11.93,38.75 -2.6,14.52 -3.53,29.67 -2.77,44.41 0.75,14.45 3.12,28.41 7.1,40.93 4.5,14.07 10.25,28.08 17.03,41.78 6.97,14.08 15.03,27.78 23.92,40.84 9.16,13.46 19.23,26.26 29.91,38.12 10.81,12.01 22.12,22.94 33.64,32.5 28.24,23.47 58.5,40.53 89.69,51.47 32.25,11.3 65.57,16.09 98.8,14.71 33.92,-1.41 67.84,-9.29 100.5,-23.26 32.51,-13.88 63.79,-33.85 92.63,-59.49 29.25,-26.01 54.58,-55.31 75.89,-87.41 21.68,-32.63 39.26,-68.21 52.68,-106.2 13.55,-38.37 22.88,-79.3 27.88,-122.25 5.03,-43.04 5.73,-88.13 2.04,-134.72 -1.07,-13.71 -3.2,-27.19 -6.18,-40.35 -3.21,-14.21 -7.44,-28.19 -12.41,-41.82 -5.47,-14.99 -11.84,-29.46 -18.77,-43.28 -7.67,-15.28 -16.09,-29.89 -24.85,-43.64zm12.57 -61.92c4.37,5.29 8.4,10.66 12.19,16.07 3.62,5.15 7.39,10.89 11.23,16.92 9.68,15.18 19.03,31.39 27.57,48.42 7.82,15.59 14.97,31.82 21.06,48.5 5.75,15.72 10.63,31.98 14.37,48.65 3.55,15.78 6.09,31.85 7.37,48.08 3.98,50.36 3.2,99.2 -2.28,145.94 -5.5,46.89 -15.73,91.71 -30.62,133.84 -14.79,41.92 -34.2,81.2 -58.13,117.23 -23.63,35.61 -51.65,68.05 -83.97,96.78 -32.38,28.8 -67.65,51.28 -104.43,66.98 -37.15,15.87 -75.88,24.84 -114.76,26.45 -38.25,1.59 -76.63,-3.93 -113.78,-16.96 -35.78,-12.55 -70.43,-32.08 -102.73,-58.92 -13.44,-11.18 -26.38,-23.63 -38.48,-37.06 -12.04,-13.36 -23.43,-27.87 -33.85,-43.18 -10.27,-15.16 -19.57,-30.97 -27.6,-47.2 -7.78,-15.76 -14.48,-32.11 -19.81,-48.82 -5.39,-16.92 -8.6,-35.49 -9.6,-54.45 -1.01,-19.06 0.2,-38.69 3.59,-57.6 3.31,-18.49 8.76,-36.38 16.31,-52.5 7.28,-15.54 16.52,-29.5 27.71,-40.87 10.82,-10.99 23.93,-20.34 38.17,-27.3 14.04,-6.88 29.21,-11.46 44.39,-13.05 14.61,-1.53 29.41,-0.33 43.47,4.16 13.13,4.2 25.57,11.27 36.53,21.63 24.93,23.53 42.43,57.72 59.9,91.86l1.41 2.75c13.68,26.73 27.45,53.15 44.21,70.91 15.54,16.47 34.27,25.53 59.35,19.76 13.03,-3 25.95,-9.18 37.95,-17.91 12.23,-8.85 23.45,-20.39 32.83,-33.96 8.86,-12.78 16.03,-27.38 20.81,-43.21 4.5,-14.91 6.87,-30.83 6.53,-47.28 -0.31,-15.35 -1.76,-32.33 -4.56,-49.45 -2.47,-15.03 -6.03,-30.17 -10.83,-44.32 -4.05,-11.91 -8.96,-23.02 -14.8,-32.57 -5.08,-8.33 -10.92,-15.5 -17.53,-20.98 -1.99,-1.71 -4.15,-3.27 -6.44,-4.76 -2.21,-1.43 -4.58,-2.8 -7.07,-4.08 -2.49,-1.29 -5.09,-2.49 -7.76,-3.6 -2.53,-1.05 -5.3,-2.09 -8.23,-3.1 -0.11,-0.12 -1.61,-0.59 -1.87,-0.68l-1.76 -1.02c-5.96,-3.41 -12.16,-6.6 -18.48,-9.64 -6.27,-3.01 -12.92,-6.02 -19.55,-9.01l-17.73 -8.16c-7.04,-3.34 -13.93,-7.17 -20.64,-11.46 -6.66,-4.25 -13.06,-8.89 -19.19,-13.86 -6.14,-4.99 -12.06,-10.3 -17.74,-15.9 -5.69,-5.61 -11.21,-11.56 -16.56,-17.79 -8.68,-10.09 -15.74,-21.49 -20.97,-33.71 -5.23,-12.2 -8.66,-25.29 -10.08,-38.71 -1.39,-13.25 -0.85,-26.75 1.8,-39.97 2.6,-12.76 7.14,-25.37 13.77,-37.36 13.66,-24.78 29.47,-47.86 45.17,-70.77l0.15 -0.21c7.63,-11.15 15.25,-22.27 21.62,-32.03 12.38,-19.02 25.15,-37.2 38.08,-54.91 6.74,-9.21 13.56,-18.34 20.41,-27.42l-16.32 3.22 -0.03 -0.17 -4.21 0.8 0 -0.84c-17.46,2.54 -35.23,5.94 -53.11,9.36 -0.29,0 -1.08,0.15 -1.28,0.25 -9.37,1.8 -19.33,3.58 -29.99,5.28 -10.69,1.71 -21.12,3.21 -31.1,4.39 -10.31,1.2 -20.73,2.18 -31.25,2.84 -10.22,0.64 -20.64,0.97 -31.2,0.91 -11.45,-0.07 -26.55,-0.35 -42.52,-2.13 -16.55,-1.86 -34.37,-5.32 -50.98,-11.79 -18.73,-7.28 -35.78,-18.22 -48.2,-34.52 -12.48,-16.4 -20.03,-37.85 -19.52,-65.91 0.31,-16.91 2.79,-33.44 7.09,-49.07 4.48,-16.32 10.93,-31.67 18.91,-45.47 7.9,-13.67 17.39,-25.97 28.04,-36.34 10.06,-9.81 21.24,-17.94 33.19,-23.92 1.38,-1.21 2.87,-2.25 4.38,-3.09 1.63,-0.86 3.3,-1.57 5.04,-2.06 99.82,-28.79 421.79,-19.51 563.16,-28.99l8.08 3.58 5.71 2.83c14.76,7.57 28.16,16.99 39.58,28.2 11.02,10.81 20.25,23.34 27.12,37.49 7.44,15.28 12.1,32.28 13.34,50.89 1.11,16.81 -0.56,34.93 -5.52,54.28 0,2.31 -3.25,9.54 -3.25,11.45 -12.15,38.51 -34.15,69.82 -55.3,99.94l-0.37 0.48c-6.27,8.98 -12.48,17.81 -18.34,26.8l-3.71 5.7c-12.85,19.94 -25.23,40.34 -37.6,60.71 -0.15,0.27 -0.58,1.11 -0.77,1.28 -11.93,19.63 -23.87,39.29 -35.71,57.89l0.77 0.62c2.49,1.93 5.79,4.34 9.65,7.11 5.75,4.18 11.08,8.69 16.05,13.49 4.92,4.76 9.59,9.89 14.05,15.32z"/>
  <path class="fil4" d="M2917.93 2189.4c5.94,11.06 13.6,20.66 23.28,28.11 9.22,7.08 20.43,12.35 33.94,15.22 15.6,3.31 30.63,3.69 45.4,2.29 14.85,-1.4 29.61,-4.59 44.45,-8.4 7.81,-3.43 14.93,-6.62 21.99,-9.79 78.95,-35.35 151.59,-67.88 246.66,-39.95 10.59,3.11 21.1,6.97 31.36,11.5 44.92,19.84 86.99,53.13 114.28,93.82 27.87,41.55 40.48,90.82 25.55,141.65 -2.01,6.86 -4.49,13.67 -7.47,20.41 -25.8,58.43 -72.67,94.97 -126.83,112.9 -61.17,20.26 -131.74,16.59 -191.3,-6.17 -14.86,-5.68 -31.09,-14.49 -48.15,-23.75 -40.73,-22.11 -86.64,-47.03 -124.27,-31.95 -17.51,7.01 -28.93,17.58 -36.19,30.79 -7.63,13.88 -11.04,31.02 -12.22,50.3 -3.15,51.78 19.67,95.14 54.57,129.13 45.39,44.21 110.93,72.79 167.48,84 26.44,5.24 52.78,7.92 78.77,8.22 112.74,1.33 221.73,-41.16 308.02,-111.48 86.27,-70.3 149.75,-168.37 171.51,-278.24 5.09,-25.67 7.91,-51.86 8.22,-78.34 0.7,-60.74 -15,-118.66 -42.69,-170.34 -29.45,-54.97 -72.47,-102.91 -123.77,-139.74 -63.04,-45.29 -133.61,-67.09 -206.54,-73.57 -73.62,-6.55 -149.79,2.44 -223.25,18.65l-14.58 3.22 -0.31 -14.94c-0.28,-13.69 -1.23,-27.91 -2.51,-42.1l0 -0.04c-1.18,-13.16 -2.87,-27.81 -4.6,-42.25 -0.44,-3.6 -0.73,-7.52 -1.03,-11.48 -0.42,-5.65 -0.85,-11.44 -1.82,-16.51l-2.91 -15.22 15.49 0.66c56.49,2.43 110.65,-5.9 167.07,-14.58 7.45,-1.13 14.87,-2.4 22.35,-3.31l25.14 -0.55c32.62,-0.64 65.23,-1.29 98.32,-3.99l9.94 -0.86 11.16 -1.08c5.17,-0.25 10.65,-0.57 16.79,-1.02 5.46,-0.4 10.97,-0.91 16.52,-1.56 14.62,-1.7 31.92,-5.38 49.61,-11.08 27.52,-8.87 55.92,-22.58 76.39,-41.24 19.11,-17.43 31.12,-39.35 28.03,-65.81 -0.62,-5.27 -1.8,-10.7 -3.6,-16.29 -14.75,-45.88 -48.57,-69.94 -88.95,-81.83 -42.2,-12.43 -91.89,-11.94 -135.4,-8.8 -130.47,9.38 -262.13,20.99 -393.88,32.6l-70.51 6.2 -2.06 0c-2.33,-0.2 -4.97,-0.5 -7.6,-0.81 -7.39,-0.85 -14.88,-1.72 -20.53,0.16 -5.53,1.86 -9.53,6.09 -14.2,11.02l0 0.04 -1.34 1.42c-0.16,0.16 -0.31,0.41 -0.47,0.71 -0.25,0.5 -0.53,1.27 -0.82,2.17l-0.89 2.83 -2.18 2.17c-24.6,24.43 -21.68,81.68 -19.17,130.94 0.63,12.45 1.25,24.43 1.39,36.04 0.39,30.41 0.06,61.67 -0.28,93.37 -1.04,98.85 -2.13,202.21 18.64,296.53zm8.3 47.52c-13.1,-10.07 -23.2,-22.87 -30.78,-37.46l-0.67 -1.29 -0.39 -1.74c-21.78,-97.49 -20.66,-202.93 -19.59,-303.75 0.33,-31.57 0.66,-62.69 0.27,-92.89 -0.12,-10.35 -0.74,-22.47 -1.38,-35.08 -2.71,-53.13 -5.84,-114.68 24.3,-147.42 0.41,-1.04 0.89,-2.1 1.44,-3.18 1.17,-2.27 2.63,-4.42 4.5,-6.38l1.35 -1.41 0.02 0.02c6.96,-7.35 12.93,-13.65 24.17,-17.43 10.93,-3.64 21.08,-2.47 31.1,-1.31 1.87,0.22 3.75,0.44 5.78,0.62l69.48 -6.11c130.9,-11.53 261.7,-23.06 394.27,-32.6 45.73,-3.29 98.25,-3.73 144.05,9.76 47.64,14.03 87.65,42.76 105.37,97.87 2.34,7.27 3.87,14.27 4.66,21.01 4.15,35.49 -11.27,64.28 -35.9,86.75 -23.28,21.22 -54.95,36.6 -85.43,46.42 -19.38,6.25 -38.32,10.28 -54.31,12.15 -5.8,0.67 -11.67,1.21 -17.58,1.65 -5.16,0.37 -10.96,0.7 -17.06,1 -6.12,0.59 -14.73,1.95 -20.59,1.95 -32.64,2.67 -66.23,3.33 -99.81,4l-23.05 0.48 -2.25 0.26 -18.97 2.92c-52.75,8.11 -103.58,15.93 -157.37,15.18l0.33 4.39c0.26,3.48 0.52,6.93 0.94,10.38 1.58,13.17 3.19,27.27 4.6,42.97 0.88,9.68 1.6,19.41 2.08,29.03 71.19,-14.72 144.72,-22.43 216.28,-16.07 77.09,6.86 151.78,29.99 218.75,78.09 54.25,38.96 99.81,89.76 131.06,148.1 29.57,55.19 46.33,117.1 45.58,182.12l0 0.05c-0.34,28.25 -3.29,55.91 -8.6,82.75 -22.91,115.64 -89.59,218.74 -180.16,292.55 -90.54,73.78 -205.09,118.35 -323.78,116.96 -27.73,-0.33 -55.54,-3.13 -83.19,-8.61 -60.5,-11.99 -130.84,-42.77 -179.87,-90.53 -39.69,-38.65 -65.61,-88.31 -61.96,-148.15 1.39,-22.69 5.61,-43.25 15.19,-60.67 9.92,-18.07 25.27,-32.41 48.58,-41.75 48.3,-19.36 99.61,8.49 145.12,33.2 16.08,8.73 31.39,17.04 45.17,22.31 54.57,20.85 119.09,24.26 174.87,5.79 47.93,-15.88 89.35,-48.07 112.04,-99.46 2.61,-5.9 4.74,-11.72 6.42,-17.43 12.64,-43.06 1.67,-85.23 -22.38,-121.09 -24.64,-36.74 -62.87,-66.89 -103.81,-84.98 -9.44,-4.17 -18.96,-7.68 -28.39,-10.44 -86.41,-25.39 -155.1,5.37 -229.75,38.8 -7.82,3.5 -15.73,7.05 -23.02,10.25l-1.83 0.62c-16.26,4.21 -32.53,7.75 -49.27,9.34 -17.15,1.62 -34.63,1.18 -52.8,-2.68 -17.22,-3.66 -31.73,-10.53 -43.83,-19.83z"/>
  <rect class="fil5" x="1.39" y="33.5" width="4343.41" height="4343.59"/>
 </g>
</svg>
