<?xml version="1.0" encoding="UTF-8"?>
<!DOCTYPE svg PUBLIC "-//W3C//DTD SVG 1.1//EN" "http://www.w3.org/Graphics/SVG/1.1/DTD/svg11.dtd">
<!-- Creator: CorelDRAW 2018 (64-Bit) -->
<svg xmlns="http://www.w3.org/2000/svg" xml:space="preserve" width="43.4338mm" height="43.4338mm" version="1.1" style="shape-rendering:geometricPrecision; text-rendering:geometricPrecision; image-rendering:optimizeQuality; fill-rule:evenodd; clip-rule:evenodd"
viewBox="0 0 4343.38 4343.38"
 xmlns:xlink="http://www.w3.org/1999/xlink">
 <defs>
  <style type="text/css">
   <![CDATA[
    .fil4 {fill:none}
    .fil2 {fill:#2B2A29}
    .fil3 {fill:#1D1D1B}
    .fil1 {fill:#434242;fill-rule:nonzero}
    .fil0 {fill:#2B2A29;fill-rule:nonzero}
   ]]>
  </style>
 </defs>
 <g id="Слой_x0020_1">
  <metadata id="CorelCorpID_0Corel-Layer"/>
  <path class="fil0" d="M321.41 3986.58c16.51,-61.87 57.33,-29.23 53.47,-394.26 -0.75,-28.65 3.31,-57.3 -2.22,-85.9 -2.71,-14.12 -19.92,-16.74 -41.4,-17.39l-0.01 -12.64c19.27,-6.67 36.93,-29.34 32.61,-78.03 0.6,-61.47 1.2,-981.46 1.76,-1042.93 0.25,-22.31 0.38,-44.65 0.87,-66.96 2.51,-109.63 4.98,-219.27 7.49,-328.92 1.95,-87.07 5.53,-174.07 8.37,-261.1 13.1,-399.42 6.01,-631.06 -8.15,-776.62 164.58,15.32 421.2,22.36 850.12,7.5 97.73,-3.34 195.43,-7.6 293.19,-9.94 123.14,-2.96 246.26,-5.91 369.38,-8.87 25.05,-0.59 50.13,-0.75 75.2,-1.05 69.03,-0.66 138.08,-1.37 207.12,-2.09 51.71,-0.51 103.44,-1.05 155.12,-1.58 29.7,-0.27 59.38,0.19 89.09,0.32 117.26,0.49 234.54,1.04 351.79,1.51 33.86,0.13 67.77,1.25 101.65,1.94l-111.64 -138.01 -29.05 0.55c-94.56,1.85 -189.14,2.93 -283.63,5.68 -165.18,4.74 -842.99,9.43 -1254.27,13.74l-61.2 -1.01c-102.52,-1.63 -205.05,-2.89 -307.56,-4.94 -42.15,-0.83 -84.27,-1.65 -126.43,-2.32l-33.58 -2.1c-102.59,-6.23 -205.42,-10.71 -308.15,-14.06l-0.62 -2.89 -82.01 0 -0.03 0.4 -2.13 -0.05 -0.01 -0.35 -13.61 0c-13.95,-0.36 -27.89,-0.69 -41.84,-0.98l0 0.98 -6.8 0c0.57,24.51 1.26,49.02 1.98,73.53 2.88,97.73 6.81,195.55 12.4,293.15 5.13,89.24 8.44,178.59 12.6,267.89 1.25,26.85 1.38,53.71 1.75,80.6 0.81,61.8 1.65,123.57 2.48,185.37 0.32,25.31 0.8,50.62 0.55,75.92 -0.55,56.04 -1.14,112.1 -1.73,168.14 -0.78,77.11 -1.71,154.16 -3.55,231.26 -4.56,193.94 -9.67,387.86 -14.94,581.77 -2.31,84.32 -3.23,168.73 -4.78,253.08 -1.3,73.2 -2.61,146.4 -3.68,219.59 -1.37,91.38 -2.43,182.78 -4.16,274.16 -1.94,105.89 -4.01,211.73 -2.34,317.62 1.08,66.82 3.57,133.58 6.8,200.29l113.73 0zm3050.75 -3065.9c165.65,1.14 254.24,-6.82 306.71,-17.79 58.84,-4.48 107.25,-9.95 147.95,-15.96 -7.29,51.12 -11.98,131.68 -10.55,266.61 0.75,28.66 -3.31,57.31 2.22,85.91 2.71,14.11 19.92,16.73 41.4,17.39l0.02 12.64c-19.28,6.67 -36.93,29.34 -32.62,78.02 -0.13,12.85 -0.25,63.23 -0.38,135.34l154.88 191.46c0.7,-40.99 1.38,-81.97 1.98,-122.94 1.37,-91.39 2.43,-182.78 4.16,-274.17 1.95,-105.88 4.01,-211.72 2.34,-317.61 -0.56,-35.27 -1.54,-70.52 -2.79,-105.75l0.2 -0.01 0 -77.61 -3.42 -0.26 -0.79 -16.66 -113.73 0c-0.88,3.3 -1.83,6.32 -2.84,9.16 -77.08,-4.01 -154.21,-7.12 -231.41,-8.43 -118.69,-1.98 -237.32,0.47 -355.97,2.78l-34.53 0.67 127.17 157.21zm453.96 1174.73c-0.2,152.87 -0.4,274.03 -0.58,295.03 -0.26,22.3 -0.39,44.65 -0.88,66.96 -2.51,109.62 -4.98,219.27 -7.49,328.92 -1.95,87.07 -5.53,174.07 -8.37,261.1 -19.3,588.64 5.24,812.95 31.62,934.24l82.01 0 1.34 -22.86c0.34,6.52 0.63,13.99 0.83,22.86l62.25 0c-0.57,-24.52 -1.26,-49.02 -1.98,-73.53 -2.88,-97.73 -6.81,-195.56 -12.4,-293.15 -5.13,-89.24 -8.44,-178.59 -12.6,-267.9 -1.25,-26.85 -1.38,-53.71 -1.75,-80.6 -0.81,-61.8 -1.65,-123.56 -2.48,-185.37 -0.32,-25.31 -0.8,-50.61 -0.55,-75.91 0.55,-56.05 1.14,-112.1 1.73,-168.14 0.78,-77.11 1.72,-154.17 3.55,-231.26 2.62,-111.39 5.42,-222.77 8.33,-334.14l-142.58 -176.25z"/>
  <path class="fil1" d="M3980.05 3846.43c-144.26,-28.1 -406.26,-50.93 -1013.22,-29.89 -97.73,3.34 -195.43,7.6 -293.19,9.93 -123.14,2.97 -246.27,5.91 -369.38,8.88 -25.05,0.59 -50.13,0.75 -75.19,1.04 -69.03,0.66 -138.09,1.38 -207.12,2.1 -51.72,0.5 -103.45,1.04 -155.13,1.58 -29.7,0.27 -59.39,-0.2 -89.09,-0.32 -117.26,-0.49 -234.53,-1.04 -351.79,-1.51 -34.95,-0.15 -69.95,-1.33 -104.91,-2.01 -71.68,-1.37 -143.38,-2.81 -215.13,-4.23 -88.61,-1.72 -177.19,-4.15 -265.82,-6.63 -179.31,-1.99 -273.13,6.19 -327.8,17.61 -158.86,12.07 -241.64,31.44 -302.21,48.91l-6.6 0.16 0 77.61c39.18,2.88 75.82,5.35 105.2,6.94 82.26,4.4 164.59,7.85 246.99,9.25 118.69,1.97 237.32,-0.47 355.98,-2.79 102.41,-2.06 204.83,-3.28 307.26,-4.92 82.02,-1.27 164.05,-2.84 246.09,-4.38 94.55,-1.85 189.14,-2.93 283.62,-5.68 165.18,-4.74 842.99,-9.43 1254.27,-13.74l61.2 1c102.53,1.64 205.05,2.89 307.56,4.94 42.15,0.83 84.28,1.66 126.43,2.32l33.58 2.1c109.38,6.65 219.02,11.3 328.54,14.72 39.94,1.25 79.91,2.39 119.86,3.21l0 -136.2z"/>
  <path class="fil2" d="M2722.17 486.88c68.75,64.31 116.36,160.83 167.69,239.66 11.5,17.69 -15.04,41.98 -28.78,24.61 -59.34,-74.75 -136.4,-151.5 -176.56,-239.21 -10.2,-22.25 21.75,-39.91 37.65,-25.06z"/>
  <path class="fil2" d="M3207.34 1131.92c-91.39,-94 -170.04,-218.62 -247.38,-324.1 -17.34,-23.66 3.39,-43.63 23,-19.67 84.56,103.16 188.37,213.88 256.58,326.21 17.32,28.49 -11.07,39.27 -32.2,17.56z"/>
  <path class="fil2" d="M3438.53 1302.57c-34.68,-53.41 -96.55,-93.09 -144.88,-134.56 -10.85,-9.29 -33.22,8.76 -23,19.67 43.94,47.09 86.22,107.2 142.99,140.99 14.39,8.59 32.9,-13.75 24.89,-26.1z"/>
  <path class="fil2" d="M3703.41 1669.59c-79.38,-79.96 -144.65,-188.93 -210.02,-280.41 -14.65,-20.52 6.24,-40.31 23,-19.67 72.32,88.85 162.22,183.29 218.52,281.7 14.3,24.96 -13.15,36.84 -31.5,18.38z"/>
  <path class="fil2" d="M3973.53 1885.76c-37.06,-56.19 -101.58,-98.98 -152.29,-143.22 -11.38,-9.92 -33.78,8.1 -23,19.67 46.37,49.93 91.41,113.26 150.53,149.81 15,9.29 33.32,-13.27 24.76,-26.26z"/>
  <path class="fil2" d="M4050.84 1954.96c67.16,65.68 118.81,158.73 172.01,235.97 11.92,17.33 -9.13,36.94 -23,19.67 -59.87,-74.29 -135.62,-152.18 -179.81,-236.43 -11.22,-21.37 15.27,-34.37 30.8,-19.21z"/>
  <path class="fil3" d="M3873.15 3303.62c-99.33,9.83 -210.06,-15.15 -309.08,-26.66 -22.21,-2.6 -23.5,-36.43 0,-35.63 101.25,3.28 216.36,-4.89 314.84,20.04 24.98,6.31 17.19,39.96 -5.76,42.25z"/>
  <path class="fil3" d="M3878.93 3680.2c-59.88,-5.93 -126.62,9.14 -186.31,16.07 -13.38,1.57 -14.16,21.96 0,21.48 61.04,-1.98 130.42,2.94 189.78,-12.08 15.06,-3.81 10.37,-24.09 -3.47,-25.47z"/>
  <path class="fil3" d="M3883.76 2715.6c-49.67,-4.92 -105.02,7.58 -154.53,13.33 -11.1,1.3 -11.75,18.21 0,17.81 50.62,-1.64 108.17,2.45 157.4,-10.02 12.5,-3.15 8.6,-19.98 -2.87,-21.12z"/>
  <path class="fil3" d="M3891.19 1277.41c-49.67,-4.92 -105.02,7.57 -154.53,13.33 -11.1,1.29 -11.75,18.21 0,17.81 50.62,-1.64 108.17,2.44 157.4,-10.02 12.5,-3.16 8.6,-19.98 -2.87,-21.12z"/>
  <path class="fil3" d="M3885.41 3439.63c-59.87,5.93 -126.62,-9.14 -186.31,-16.07 -13.38,-1.57 -14.16,-21.96 0,-21.48 61.04,1.98 130.43,-2.95 189.78,12.08 15.06,3.8 10.37,24.09 -3.47,25.47z"/>
  <path class="fil3" d="M3889.13 2516.06c-49.66,4.92 -105.02,-7.57 -154.53,-13.33 -11.1,-1.29 -11.75,-18.21 0,-17.81 50.63,1.64 108.18,-2.44 157.41,10.02 12.49,3.15 8.6,19.98 -2.88,21.12z"/>
  <path class="fil3" d="M3896.56 1077.87c-49.66,4.92 -105.02,-7.58 -154.53,-13.33 -11.1,-1.3 -11.75,-18.21 0,-17.81 50.63,1.64 108.18,-2.45 157.41,10.02 12.49,3.15 8.6,19.98 -2.88,21.12z"/>
  <path class="fil3" d="M3916.34 2386.85c-49.66,-4.92 -105.02,7.58 -154.53,13.33 -11.1,1.3 -11.75,18.21 0,17.81 50.62,-1.64 108.17,2.45 157.41,-10.02 12.49,-3.15 8.59,-19.98 -2.88,-21.12z"/>
  <path class="fil3" d="M3923.77 948.66c-49.66,-4.92 -105.02,7.58 -154.53,13.33 -11.1,1.3 -11.75,18.21 0,17.81 50.62,-1.64 108.17,2.45 157.41,-10.02 12.49,-3.15 8.59,-19.98 -2.88,-21.12z"/>
  <path class="fil3" d="M3841.49 2976.37c-49.66,-4.92 -105.02,7.57 -154.53,13.32 -11.1,1.3 -11.75,18.22 0,17.82 50.63,-1.64 108.18,2.44 157.41,-10.02 12.49,-3.16 8.6,-19.98 -2.88,-21.12z"/>
  <path class="fil3" d="M3878.76 1454.45c-49.67,-4.91 -105.03,7.58 -154.53,13.33 -11.11,1.3 -11.75,18.22 0,17.81 50.62,-1.64 108.17,2.45 157.4,-10.02 12.49,-3.15 8.6,-19.97 -2.87,-21.12z"/>
  <path class="fil3" d="M3903.89 3587.38c-116.76,-7.87 -246.89,12.12 -363.28,21.33 -26.1,2.07 -27.62,29.14 0,28.5 119.01,-2.62 254.3,3.91 370.04,-16.03 29.37,-5.05 20.21,-31.97 -6.76,-33.8z"/>
  <path class="fil3" d="M3913.92 2264.3c-96.84,6.53 -204.78,-10.05 -301.31,-17.69 -21.65,-1.72 -22.91,-24.17 0,-23.64 98.7,2.18 210.92,-3.24 306.91,13.3 24.36,4.19 16.77,26.52 -5.6,28.03z"/>
  <path class="fil3" d="M3856.81 2853.82c-96.83,6.53 -204.77,-10.06 -301.3,-17.69 -21.65,-1.72 -22.91,-24.18 0,-23.64 98.7,2.17 210.92,-3.25 306.91,13.29 24.36,4.19 16.77,26.52 -5.61,28.04z"/>
  <rect class="fil4" x="-2.13" y="0.5" width="4343.41" height="4343.59"/>
 </g>
</svg>
