<?xml version="1.0" encoding="UTF-8"?>
<!DOCTYPE svg PUBLIC "-//W3C//DTD SVG 1.1//EN" "http://www.w3.org/Graphics/SVG/1.1/DTD/svg11.dtd">
<!-- Creator: CorelDRAW 2018 (64-Bit) -->
<svg xmlns="http://www.w3.org/2000/svg" xml:space="preserve" width="43.4338mm" height="43.4338mm" version="1.1" style="shape-rendering:geometricPrecision; text-rendering:geometricPrecision; image-rendering:optimizeQuality; fill-rule:evenodd; clip-rule:evenodd"
viewBox="0 0 4343.38 4343.38"
 xmlns:xlink="http://www.w3.org/1999/xlink">
 <defs>
  <style type="text/css">
   <![CDATA[
    .fil6 {fill:none}
    .fil1 {fill:#2B2A29}
    .fil0 {fill:#1D1D1B}
    .fil5 {fill:#434242;fill-rule:nonzero}
    .fil2 {fill:#2B2A29;fill-rule:nonzero}
    .fil4 {fill:#2B2A29;fill-rule:nonzero}
    .fil3 {fill:black;fill-rule:nonzero}
   ]]>
  </style>
 </defs>
 <g id="Слой_x0020_1">
  <metadata id="CorelCorpID_0Corel-Layer"/>
  <path class="fil0" d="M4127.67 1708.03c-85.89,8.51 -181.63,-13.1 -267.25,-23.05 -19.2,-2.24 -20.32,-31.5 0,-30.81 87.55,2.84 187.08,-4.22 272.22,17.33 21.61,5.46 14.87,34.55 -4.97,36.53z"/>
  <path class="fil1" d="M2866.5 2184.48c-35.28,39.15 -81.17,74.41 -120.22,108.48 -8.77,7.63 -15.43,0.23 -6.51,-8.3 38.39,-36.81 79.86,-81.42 121.16,-112.15 10.48,-7.8 13.72,2.93 5.57,11.97z"/>
  <path class="fil1" d="M2349.08 2197.58c-35.28,39.15 -81.16,74.41 -120.22,108.47 -8.76,7.64 -15.42,0.24 -6.5,-8.3 38.39,-36.8 79.86,-81.42 121.16,-112.15 10.48,-7.8 13.71,2.93 5.56,11.98z"/>
  <path class="fil1" d="M2801.82 2177.72c-35.28,39.15 -81.16,74.41 -120.22,108.48 -8.76,7.63 -15.42,0.23 -6.51,-8.3 38.39,-36.81 79.86,-81.42 121.17,-112.15 10.47,-7.8 13.71,2.93 5.56,11.97z"/>
  <path class="fil1" d="M2284.41 2190.82c-35.28,39.15 -81.17,74.41 -120.23,108.47 -8.76,7.64 -15.42,0.24 -6.5,-8.3 38.39,-36.8 79.86,-81.42 121.16,-112.15 10.48,-7.8 13.71,2.93 5.57,11.98z"/>
  <path class="fil1" d="M2737.14 2170.96c-35.27,39.15 -81.16,74.41 -120.22,108.47 -8.76,7.64 -15.42,0.24 -6.5,-8.29 38.39,-36.81 79.86,-81.42 121.16,-112.15 10.48,-7.81 13.71,2.92 5.56,11.97z"/>
  <path class="fil1" d="M2219.73 2184.06c-35.28,39.15 -81.16,74.41 -120.22,108.47 -8.77,7.64 -15.43,0.24 -6.51,-8.3 38.39,-36.8 79.86,-81.42 121.16,-112.15 10.48,-7.8 13.72,2.93 5.57,11.98z"/>
  <path class="fil1" d="M2672.47 2164.2c-35.28,39.15 -81.17,74.41 -120.23,108.47 -8.76,7.64 -15.42,0.24 -6.5,-8.3 38.39,-36.8 79.86,-81.41 121.16,-112.14 10.48,-7.81 13.72,2.92 5.57,11.97z"/>
  <path class="fil1" d="M2155.05 2177.3c-35.28,39.15 -81.16,74.41 -120.22,108.47 -8.76,7.64 -15.42,0.23 -6.5,-8.3 38.38,-36.8 79.85,-81.42 121.16,-112.15 10.47,-7.8 13.71,2.93 5.56,11.98z"/>
  <path class="fil1" d="M2482.69 2255.72c35.28,-39.14 81.16,-74.41 120.22,-108.47 8.77,-7.63 15.43,-0.23 6.51,8.3 -38.39,36.81 -79.86,81.42 -121.16,112.15 -10.48,7.8 -13.72,-2.93 -5.57,-11.98z"/>
  <path class="fil1" d="M1965.28 2268.82c35.27,-39.15 81.16,-74.41 120.22,-108.47 8.76,-7.64 15.42,-0.24 6.5,8.3 -38.39,36.8 -79.86,81.42 -121.16,112.15 -10.48,7.8 -13.71,-2.93 -5.56,-11.98z"/>
  <path class="fil1" d="M2543.11 2150.68c-35.28,39.15 -81.16,74.41 -120.22,108.47 -8.76,7.64 -15.42,0.24 -6.5,-8.3 38.38,-36.8 79.86,-81.42 121.16,-112.15 10.48,-7.8 13.71,2.93 5.56,11.98z"/>
  <path class="fil1" d="M2025.7 2163.78c-35.28,39.15 -81.17,74.41 -120.22,108.47 -8.77,7.63 -15.43,0.23 -6.51,-8.3 38.39,-36.81 79.86,-81.42 121.16,-112.15 10.48,-7.8 13.72,2.93 5.57,11.98z"/>
  <path class="fil1" d="M1855.96 2184.06c-35.28,39.15 -81.17,74.41 -120.23,108.47 -8.76,7.64 -15.42,0.23 -6.5,-8.3 38.39,-36.8 79.86,-81.42 121.16,-112.15 10.48,-7.8 13.71,2.93 5.57,11.98z"/>
  <path class="fil1" d="M2354.41 2281.05c35.42,-39.02 65.91,-88.21 95.89,-130.48 6.72,-9.48 -1.31,-15.37 -8.91,-5.64 -32.77,41.88 -73.01,87.61 -99.45,131.78 -6.71,11.21 4.29,13.35 12.47,4.34z"/>
  <path class="fil1" d="M1837 2294.14c35.42,-39.02 65.91,-88.2 95.89,-130.48 6.72,-9.48 -1.31,-15.36 -8.91,-5.64 -32.78,41.88 -73.01,87.61 -99.45,131.79 -6.72,11.2 4.28,13.35 12.47,4.33z"/>
  <path class="fil1" d="M1667.26 2314.43c35.42,-39.03 65.91,-88.21 95.89,-130.48 6.71,-9.49 -1.32,-15.37 -8.91,-5.64 -32.78,41.88 -73.02,87.61 -99.46,131.78 -6.71,11.21 4.29,13.35 12.48,4.34z"/>
  <path class="fil1" d="M4050.15 1498.74c-79.62,33.31 -177.49,40.72 -262.26,56.31 -19.02,3.49 -28.67,-24.15 -9.04,-29.45 84.54,-22.95 177.62,-58.89 265.35,-63.24 22.25,-1.12 24.34,28.67 5.95,36.38z"/>
  <path class="fil1" d="M3816.96 2541.71c-105.17,14.11 -222.39,-21.74 -327.24,-38.25 -23.51,-3.72 -24.88,-52.26 0,-51.11 107.2,4.71 229.08,-7.01 333.33,28.75 26.46,9.06 18.21,57.33 -6.09,60.61z"/>
  <path class="fil1" d="M653.22 1792.48c-57.01,29.88 -126.01,18.05 -186.08,21.08 -13.47,0.66 -19.38,-41.59 -5.42,-44.73 60.13,-13.75 126.68,-44.32 188.46,-30.4 15.68,3.51 16.2,47.13 3.04,54.05z"/>
  <path class="fil1" d="M1169.6 1937.19c-57,11.82 -126.01,7.14 -186.07,8.34 -13.48,0.26 -19.38,-16.45 -5.42,-17.69 60.13,-5.44 126.68,-17.53 188.46,-12.02 15.67,1.39 16.2,18.64 3.03,21.37z"/>
  <path class="fil1" d="M966.73 2003.05c57.01,12.88 126.01,7.78 186.08,9.08 13.47,0.29 19.38,-17.92 5.41,-19.28 -60.13,-5.93 -126.67,-19.1 -188.46,-13.1 -15.67,1.51 -16.2,20.31 -3.03,23.3z"/>
  <path class="fil1" d="M976.15 2071.24c57,-12.88 126.01,-7.78 186.07,-9.09 13.48,-0.28 19.38,17.93 5.42,19.28 -60.13,5.93 -126.68,19.11 -188.46,13.11 -15.67,-1.51 -16.2,-20.32 -3.03,-23.3z"/>
  <path class="fil1" d="M964.24 2165.44c57,-12.88 126.01,-7.78 186.07,-9.09 13.47,-0.29 19.38,17.93 5.42,19.28 -60.13,5.93 -126.68,19.11 -188.46,13.11 -15.68,-1.52 -16.2,-20.32 -3.03,-23.3z"/>
  <path class="fil1" d="M1160.97 2687.66c-41.87,36.29 -96.94,32.54 -143.66,42.52 -10.48,2.22 -18.96,-39.06 -8.32,-43.8 45.78,-20.63 95.06,-58.71 144.67,-52.06 12.58,1.67 16.98,44.94 7.31,53.34z"/>
  <path class="fil1" d="M3704.64 2619.14c-105.17,-14.11 -222.4,21.74 -327.24,38.25 -23.51,3.72 -24.88,52.26 0,51.11 107.2,-4.7 229.08,7.01 333.33,-28.75 26.46,-9.05 18.21,-57.32 -6.09,-60.61z"/>
  <path class="fil1" d="M598.94 1878.96c-59.99,5.19 -121.4,56.1 -177.97,88.02 -12.68,7.18 -8.3,49.88 5.42,44.73 59.13,-21.99 128.16,-32.05 182.36,-80.73 13.76,-12.33 4.06,-53.2 -9.81,-52.02z"/>
  <path class="fil1" d="M1126.41 2779.85c-46.47,12.11 -89.86,69.8 -131.21,108.07 -9.26,8.6 -1.94,50.5 8.33,43.79 44.25,-28.69 97.34,-46.69 135.3,-101.32 9.64,-13.85 -1.69,-53.32 -12.42,-50.54z"/>
  <path class="fil1" d="M3555.87 2800.26c-105.17,-9.39 -222.39,14.47 -327.23,25.45 -23.52,2.48 -24.89,34.79 0,34.02 107.2,-3.13 229.07,4.67 333.32,-19.13 26.46,-6.03 18.21,-38.16 -6.09,-40.34z"/>
  <path class="fil1" d="M4163.98 2911.14c-105.17,-9.39 -222.4,14.47 -327.24,25.45 -23.51,2.48 -24.88,34.79 0,34.02 107.2,-3.13 229.07,4.67 333.33,-19.13 26.46,-6.03 18.21,-38.16 -6.09,-40.34z"/>
  <path class="fil1" d="M535.38 2062.25c-59.49,9.32 -122.17,49.73 -179.32,76.82 -12.82,6.09 -10.16,34.59 3.6,29.77 59.3,-20.61 127.92,-34.1 183.38,-72.31 14.08,-9.68 6.09,-36.42 -7.66,-34.28z"/>
  <path class="fil1" d="M1093.42 2969.27c-45.7,16.16 -91.04,63.57 -133.28,97.11 -9.48,7.53 -4.79,35.53 5.53,29.15 44.52,-27.35 96.97,-48.71 136.88,-93.09 10.13,-11.25 1.43,-36.88 -9.13,-33.17z"/>
  <path class="fil1" d="M4157.27 3106.95c-105.18,7.05 -222.4,-10.87 -327.24,-19.12 -23.51,-1.86 -24.88,-26.13 0,-25.56 107.2,2.36 229.07,-3.5 333.33,14.38 26.45,4.52 18.2,28.66 -6.09,30.3z"/>
  <path class="fil1" d="M3927.64 2372.19c-105.17,9.54 -222.39,-14.69 -327.23,-25.84 -23.52,-2.52 -24.89,-35.33 0,-34.55 107.2,3.18 229.07,-4.74 333.32,19.43 26.46,6.12 18.21,38.75 -6.09,40.96z"/>
  <path class="fil1" d="M696.82 1625.69c-57.49,25.87 -125.26,24.22 -184.76,31.93 -13.35,1.72 -17.59,-26.76 -3.66,-30.23 59.96,-15.09 126.91,-42.33 187.47,-38.56 15.36,0.94 14.23,30.87 0.95,36.86z"/>
  <path class="fil1" d="M1366.6 2421.14c-42.62,32.37 -95.79,38.58 -141.64,53.14 -10.28,3.25 -16.2,-24.54 -5.62,-29.6 45.54,-21.94 95.43,-56.77 143.15,-60.04 12.11,-0.85 13.95,29.01 4.11,36.5z"/>
  <path class="fil1" d="M1188.31 2569.55c50.07,18.91 102.81,9.73 150.91,10.65 10.78,0.19 8.55,-28.14 -3.03,-29.98 -49.9,-8.08 -107.64,-27.27 -154.32,-16.83 -11.85,2.63 -5.13,31.78 6.44,36.16z"/>
  <path class="fil1" d="M1319.07 2331.22c-42.62,32.37 -95.79,38.58 -141.64,53.14 -10.28,3.25 -16.2,-24.54 -5.62,-29.6 45.53,-21.94 95.43,-56.77 143.15,-60.04 12.1,-0.85 13.95,29.01 4.11,36.5z"/>
  <path class="fil1" d="M4031.5 2173.02c-105.17,-11.28 -222.39,17.39 -327.23,30.6 -23.52,2.98 -24.89,41.81 0,40.89 107.2,-3.77 229.07,5.61 333.32,-23 26.46,-7.25 18.21,-45.86 -6.09,-48.49z"/>
  <path class="fil1" d="M733.49 1434.09c-59.7,7.65 -121.87,52.29 -178.79,81.32 -12.76,6.52 -9.41,40.73 4.34,35.78 59.23,-21.17 128.01,-33.28 182.97,-75.69 13.95,-10.75 5.27,-43.17 -8.52,-41.41z"/>
  <path class="fil1" d="M4091.31 2084.23c-85.89,11.28 -181.63,-17.39 -267.25,-30.59 -19.2,-2.98 -20.32,-41.81 0,-40.89 87.55,3.77 187.08,-5.6 272.23,23 21.6,7.24 14.86,45.85 -4.98,48.48z"/>
  <path class="fil1" d="M757.35 1346.42c-46.59,24.19 -102.88,15.06 -151.9,17.78 -11,0.59 -15.74,-33.2 -4.33,-35.78 49.09,-11.3 103.46,-36.1 153.86,-25.26 12.78,2.74 13.12,37.65 2.37,43.26z"/>
  <path class="fil1" d="M4118.33 1953.35c-79.81,8.69 -168.77,-13.4 -248.33,-23.58 -17.84,-2.29 -18.88,-32.21 0,-31.5 81.35,2.9 173.84,-4.33 252.95,17.72 20.08,5.58 13.82,35.33 -4.62,37.36z"/>
  <path class="fil1" d="M4155.42 1840.43c-66.09,4.78 -139.75,-7.36 -205.63,-12.96 -14.77,-1.26 -15.64,-17.71 0,-17.32 67.36,1.6 143.94,-2.37 209.46,9.75 16.62,3.06 11.44,19.42 -3.83,20.53z"/>
  <path class="fil2" d="M1728.25 2136c25.91,-0.89 52.03,-0.73 78.24,-0.06 26.42,0.69 51.93,1.86 77.42,3.05l17.81 0.82c12.17,0.55 24.4,1.12 35.43,1.47 11.68,0.37 23.36,0.58 34.96,0.46 29.65,-0.38 59.27,-0.9 88.91,-1.56 7.64,-0.18 76.32,-0.67 76.28,-2.82l238.23 -3.59 0.53 43.79 -234.2 3.96c-26.25,0.53 -52.53,1.09 -79.91,1.76 -29.8,0.67 -59.58,1.18 -89.4,1.56 -12.29,0.13 -24.5,-0.09 -36.66,-0.48 -12.81,-0.4 -24.45,-0.95 -36.1,-1.49l-17.82 -0.82c-25.82,-1.19 -51.65,-2.38 -76.55,-3.03 -25.11,-0.65 -50.33,-0.78 -75.72,0.08l-9.81 0.44c-5.12,0.35 -14.33,1.48 -19.11,1.44 -3.15,0.31 -6.31,0.68 -9.4,1.08l-7.33 1.13 -7.45 1.37 -7.39 1.71 -0.03 -0.08 -7.4 1.96c-2.78,0.82 -5.6,1.88 -8.44,3.08l-0.08 0c-2.21,0.93 -6.06,2.75 -9.94,4.59 -1.57,0.74 -3.01,1.38 -4.51,2.2l-1.85 1.29 -2.14 1.75 -1.9 1.73c-1.19,1.49 -2.37,3.16 -3.52,5.02 -1.42,2.26 -2.69,4.6 -3.79,7.01 -1.26,2.74 -2.37,5.53 -3.28,8.33 -0.9,2.71 -1.77,5.96 -2.61,9.71l-0.25 0.85c-1.64,6.13 -3.09,13.12 -4.34,20.77 -1.28,7.84 -2.21,15.71 -2.82,23.44 -0.68,8.77 -1.01,17.22 -1.01,25.16 -0.01,7.91 0.34,16.41 1,25.23l0 0.42c0.27,4.78 0.65,9.24 1.15,13.34 0.54,4.48 1.22,8.77 1.99,12.88l0.09 0c0.94,4.92 1.85,9.07 2.73,12.42 0.85,3.2 1.91,6.68 3.18,10.45l3.36 6.27 4.52 -3.26 3.68 -2.4 1.61 -0.98 2.11 -0.76c5,-1.82 9.99,-3.32 14.97,-4.57 5.35,-1.34 10.24,-2.35 14.72,-3.11l0.01 0.07c5.57,-0.95 10.23,-1.6 14.31,-2.05 2.96,-0.32 7.96,-0.76 13.82,-1.22l0 -0.08 7.88 -0.51 7.68 -0.36c8.77,-0.29 17.45,-0.46 26.23,-0.57l10.83 -0.02 21.57 0.29 20.51 0.61 20.4 0.8 20.4 0.97 20.4 1.11c14.08,0.8 27.91,1.6 40.41,2.23 13.92,0.69 27.41,1.31 40.22,1.78 13.59,0.49 27.02,0.87 40.19,1.05 13.21,0.18 26.54,0.18 40.01,-0.04 58.45,-0.92 307.06,1.17 365.52,0.14l1.77 43.28c0.01,0.11 -354.43,-0.52 -366.69,-0.33 -4.45,0.08 -8.93,0.13 -13.42,0.15l-0.64 0 -14.17 0 -0.65 0 -0.27 0 -12.04 -0.12c-13.88,-0.2 -27.55,-0.57 -41.04,-1.06 -14.21,-0.52 -27.79,-1.13 -40.89,-1.8 -14.53,-0.72 -27.77,-1.47 -40.75,-2.21l-20.06 -1.11 -20.07 -0.96 -20.06 -0.82 -20 -0.6 -10.4 -0.19 -10.49 -0.08 -10.33 0.03c-8.27,0.11 -16.44,0.26 -24.71,0.57l-7.01 0.37 -7.02 0.52 -0.01 -0.08c-2.87,0.22 -6.67,0.58 -12.47,1.23 -4.67,0.52 -8.76,1.05 -11.85,1.58l-0.09 0.08c-4.23,0.71 -8.06,1.48 -11.33,2.3 -2.9,0.72 -5.77,1.56 -8.58,2.51l-2.77 2.24 -0.05 -0.05 -1.75 1.72c-3.85,3.71 -7.84,6.51 -11.94,8.37l-0.04 -0.06c-5.26,2.39 -10.61,3.41 -16.08,3.07 -5.53,-0.35 -10.72,-1.99 -15.54,-4.86l0 -0.08c-3.85,-2.3 -7.48,-5.42 -10.85,-9.3l-1.71 -1.99c-3.72,-6.81 -7.46,-13.58 -11.07,-20.46l-0.69 -1.93c-1.53,-4.4 -3,-9.37 -4.45,-14.85 -1.51,-5.7 -2.7,-10.83 -3.55,-15.3l0.07 -0.02c-1,-5.27 -1.82,-10.54 -2.45,-15.74 -0.67,-5.43 -1.16,-10.71 -1.46,-15.8 -0.67,-8.58 -1.01,-18.11 -0.99,-28.43 0.01,-9.8 0.35,-19.35 1.05,-28.36 0.72,-9.33 1.78,-18.39 3.18,-26.99 1.28,-7.85 3,-15.93 5.16,-24.14 0.95,-4.43 2.24,-9.04 3.8,-13.77 1.53,-4.64 3.2,-8.96 5.01,-12.88 1.95,-4.28 4.09,-8.24 6.36,-11.87 2.31,-3.7 4.91,-7.28 7.78,-10.7l1.22 -1.37c1.7,-1.73 3.26,-3.22 4.63,-4.42 1.53,-1.33 3.17,-2.65 4.88,-3.91 1.44,-1.06 3.18,-2.23 5.23,-3.46 1.74,-1.05 3.59,-2.04 5.49,-2.94l2.94 -1.42c3.27,-1.55 6.59,-3.11 11.57,-5.22 4.39,-1.89 8.88,-3.58 13.5,-4.89l0.09 0c2.63,-0.74 5.61,-1.52 8.85,-2.32l0 -0.08c2.75,-0.67 5.74,-1.35 8.95,-2.01l0.08 0c3.35,-0.7 6.39,-1.27 9.03,-1.71 2.29,-0.38 5.24,-0.82 8.86,-1.27 3.59,-0.48 7.16,-0.9 10.69,-1.25 4.07,-0.42 7.63,-0.76 10.58,-0.97l10.63 -0.62 10.48 -0.43zm649.36 280.31l-0.81 -43.1c26.91,-6.03 44.56,-4.82 71.97,-5.25 16.23,-0.26 32.86,-0.69 50.06,-1.38 13.29,-0.53 27.12,-0.92 41.37,-1.18 13.4,-0.24 27.21,-0.38 41.26,-0.4 13.67,-0.02 27.38,0.06 41.11,0.19 13.76,0.16 27.43,0.37 41.02,0.61l19.23 0.25c6.12,0.04 12.41,0 18.91,-0.14 5.55,-0.11 11.7,-0.35 18.64,-0.77 5.81,-0.34 11.89,-0.85 18.26,-1.56l9.96 -1.13 9.78 -1.25 20.15 -2.87 0.01 0.06c6.44,-0.93 11.92,-1.58 16.94,-2.09l23.76 -2.14c3.52,-0.32 7.23,-0.47 11.05,-0.45 4.02,0.02 7.51,0.16 10.58,0.41 3.05,0.25 6.49,0.66 10.23,1.18l4.2 0.63 1.16 -1.7 0.08 0.01c0.7,-1.14 1.42,-2.56 2.12,-4.24l7.79 -22.82c1.07,-4.43 2.04,-9.05 2.94,-13.8 0.93,-5.03 1.73,-10.03 2.36,-14.99 0.7,-5.33 1.24,-10.44 1.62,-15.35 0.43,-5.71 0.71,-10.92 0.82,-15.59l0 -0.24c0.19,-5.28 0.24,-10.54 0.15,-15.78 -0.06,-4.38 -0.31,-9.53 -0.73,-15.44 -0.38,-5.77 -0.88,-10.89 -1.43,-15.37 -0.55,-4.48 -1.27,-9.21 -2.14,-14.11l-6.42 -23.76c-0.58,-1.72 -1.28,-3.34 -2.08,-4.88 -0.46,-0.95 -1.06,-1.84 -1.74,-2.66l-8.4 0.68 -0.17 0.08 -6.63 0.37c-2.92,0.14 -6.07,0.12 -9.35,0.04 -3.6,-0.1 -6.04,-0.24 -8.46,-0.37l-11.74 -0.53 -9.42 -0.2 -19.27 -0.07 -16.23 0.2c-5.5,0.12 -11.24,0.41 -16.72,0.35 -16.08,0.34 -32.18,0.67 -48.69,0.45 -17.48,-0.25 -34.54,-0.74 -51.59,-1.21 -17.76,-0.51 -35.52,-1.02 -52.82,-1.23 -17.23,-0.22 -34.63,-0.19 -52.26,0.4l-61.65 2.35 -22.85 0.76 -19.56 0.45c-24.24,0.27 -43.67,-0.17 -67.92,-0.17l-0.53 -43.79 38.34 1.13 10.55 -0.04 18.98 -0.23 18.87 -0.44 22.52 -0.78c20.65,-0.81 41.3,-1.62 61.97,-2.35 17.73,-0.58 35.78,-0.61 53.96,-0.38 18.12,0.23 35.81,0.74 53.49,1.23 17.13,0.49 34.27,0.98 51.08,1.21 15.27,0.22 31.23,-0.12 47.17,-0.45 5.66,-0.21 11.4,-0.24 17.07,-0.35 15.67,-0.18 31.11,-0.25 46.78,0.08l20.02 0.88c1.93,0.07 4.01,0.06 6.32,-0.03l5.43 -0.39 0.01 0.06c5.37,-0.44 10.82,-0.96 16.18,-1.29l3.18 0.31 1.68 0.4c4.69,1.13 9.02,2.98 12.99,5.51l0.08 0.08c3.86,2.48 7.31,5.49 10.32,9.02 2.61,3.06 5.05,6.75 7.31,11.09l0.08 0.09c1.84,3.55 3.54,7.69 5.06,12.42l0.32 0.93 6.59 24.39 0.48 2.19c0.98,5.49 1.86,11.31 2.62,17.39 0.79,6.46 1.39,12.32 1.74,17.57 0.35,5.1 0.6,11.06 0.71,17.82 0.1,5.89 0.04,11.83 -0.17,17.79 -0.16,6.48 -0.44,12.35 -0.85,17.61l0 0.09c-0.47,6.15 -1.07,12.02 -1.79,17.55 -0.76,5.9 -1.68,11.7 -2.73,17.34 -1.04,5.6 -2.28,11.28 -3.69,17.06l-0.62 2.19 -8.01 23.45 -0.43 1.01c-1.71,4.31 -3.71,8.3 -5.96,11.93l0.07 0.03c-2.45,3.93 -5.24,7.45 -8.39,10.53 -3.43,3.35 -7.21,6.04 -11.28,8.08 -4.17,2.1 -8.74,3.44 -13.66,4.01l-1.16 0.14 -3.67 0.02 -1.7 -0.31c-3.45,-0.61 -6.3,-1.1 -8.21,-1.36l-0.09 0c-2.22,-0.31 -4.73,-0.59 -7.6,-0.81l-0.08 -0.01c-2.9,-0.23 -5.4,-0.37 -7.37,-0.38 -2.16,-0.01 -4.51,0.11 -7,0.32l-7.44 0.64c-4.15,0.36 -8.26,0.72 -15.81,1.49 -5.7,0.59 -10.96,1.19 -15.18,1.81l-0.09 0.07c-10.17,1.46 -31.93,5.5 -41.14,5.41 -6.55,0.73 -13.44,1.29 -20.55,1.72 -6.04,0.36 -12.9,0.6 -20.33,0.75 -6.39,0.14 -13.09,0.16 -19.92,0.13l-19.73 -0.26c-13.63,-0.24 -27.22,-0.46 -40.69,-0.6 -13.54,-0.14 -27.13,-0.21 -40.77,-0.19 -13.14,0.03 -26.59,0.15 -40.42,0.41 -12.99,0.24 -26.48,0.62 -40.52,1.18 -16.46,0.67 -33.58,1.1 -51.08,1.37l-28.77 0.32 -42.99 4.94z"/>
  <path class="fil3" d="M4185.79 3008.4c-1.68,-39.62 -17.04,-75.93 -43.2,-102.64 -24.85,-25.4 -59.81,-42.36 -102.44,-45.56 -59.35,-4.46 -117.92,-4.06 -176.44,-3.66 -33.17,0.24 -66.36,0.47 -99.42,-0.13 -20.06,-0.37 -38.33,-1.08 -56.52,-1.81 -30.39,-1.21 -60.78,-2.42 -90.19,-1.89 -5.81,0.11 -12.97,-0.55 -21.4,-1.3 -11,-1 -24.79,-2.26 -35.63,-1.61l-89.42 5.38 63.11 -63.77c91.27,-92.26 181.27,-190.14 265.44,-292.15 84.28,-102.15 162.82,-208.46 231.07,-317.4 64.19,-102.45 103.77,-208.34 112.23,-316.05 7.82,-99.88 -11.31,-201.87 -62.67,-304.72 -43.3,-86.7 -112.35,-151.12 -194.03,-190.47 -85.55,-41.22 -185.07,-55.15 -283.7,-38.73 -82.16,13.69 -154.64,48.9 -216.06,98.21 -68.45,54.97 -123.38,127.54 -162.91,207.62l-1.08 1.89c-13.82,24.03 -25.98,49.09 -35.92,74.62 -9.27,23.82 -16.6,48.28 -21.51,72.88 -5.69,28.5 -5.37,81.94 6.91,126.87 7.42,27.15 18.55,49.8 34.07,56.83 30.02,13.59 59.44,17.53 87.23,13.12 29.62,-4.69 58.3,-18.95 84.75,-41.17 21.59,-18.13 44.54,-43.07 68.16,-68.73 26.82,-29.14 54.49,-59.2 84.16,-84.01l2.41 -2.01 8.52 -4.57c59.92,-32.1 120.59,-64.61 194.62,-18.08 10.01,6.3 18.87,13.18 26.67,20.54 7.91,7.48 14.86,15.54 20.88,24l3.97 5.6 1.53 6.75c10.63,47.02 14.16,88.81 7.23,130.36 -7,41.92 -24.44,82.4 -55.64,126.21 -28.7,40.27 -63.03,75.15 -96.97,109.63 -10.41,10.57 -20.8,21.14 -31.39,32.26l-7.53 7.92c-97.57,102.48 -195.11,204.94 -286.68,312.38 -40.91,47.96 -80.13,97.7 -117.49,149.16 -36.76,50.63 -71.38,102.47 -103.69,155.47 -3.68,6.06 -8.87,14.23 -14.64,23.36 -42.46,67.03 -124.72,196.94 -88.53,248.76 43.12,61.8 148.23,73.16 231.51,82.13 14.63,1.59 29.04,3.15 36.49,4.07 77.71,9.65 155.24,-10.48 232.33,-6.74 78.94,3.83 157.05,1.46 234.33,2.32 75.42,0.86 175.43,28.36 263.98,5.76 82.35,-21.03 154.17,-59.42 182,-129.11l2.54 -6.37 1.52 -1.58c1.09,-3.67 1.97,-7.08 2.67,-10.27 0.97,-4.4 1.93,-9.8 2.83,-15.85l0.12 -0.94c0.83,-4.73 1.56,-9.41 2.11,-13.98l0.96 -9.44 -0.94 -1.84 -0.31 -7.52zm5.66 -150.7c36.83,37.62 58.93,87.86 62.5,142.54l0.62 2.47c0.96,3.94 1.41,8.35 1.22,13.29l0 0.14c-0.33,7.32 -0.86,13.62 -1.52,19.12 -0.74,6.19 -1.64,12.09 -2.64,17.74 -0.89,5.81 -2.11,12.33 -3.75,19.73 -1.67,7.46 -3.55,14.58 -5.66,21.16 -1.32,4.25 -3.32,8.13 -5.7,11.63l-0.84 1.31c-38.96,91.03 -127,139.66 -226.47,165.06 -95.23,24.31 -201.49,1.03 -281.44,0.11 -79.27,-0.88 -158.72,7.52 -237,3.72 -80.14,-3.9 -159.62,6.09 -237.45,-3.56 -15.27,-1.89 -25.03,-2.96 -35.4,-4.08 -96.97,-10.45 -219.36,-23.66 -280.38,-111.13 -62.33,-89.23 35.94,-244.4 86.64,-324.47 5.21,-8.24 9.84,-15.55 14.11,-22.55 33.57,-55.06 69.17,-108.42 106.63,-160.03 38.06,-52.41 78.46,-103.58 120.99,-153.46 92.69,-108.76 190.88,-211.89 289.1,-315.07l7.53 -7.91c10.21,-10.73 21.2,-21.9 32.2,-33.08 32.07,-32.57 64.48,-65.5 89.99,-101.29 24.83,-34.85 38.55,-66.17 43.82,-97.75 5,-29.95 2.65,-61.25 -4.84,-96.83 -2.45,-2.97 -5.15,-5.87 -8.1,-8.66 -4.76,-4.5 -10.15,-8.69 -16.2,-12.49 -40.33,-25.35 -83.38,-2.29 -125.88,20.49l-1.47 0.78c-25.53,21.73 -50.82,49.2 -75.36,75.86 -25.17,27.35 -49.64,53.93 -74.6,74.9 -35.77,30.04 -75.67,49.49 -118.06,56.2 -40.98,6.5 -83.57,1.07 -126.15,-18.22 -37.03,-16.78 -59.6,-56.26 -71.93,-101.4 -15.18,-55.54 -15.42,-122.34 -8.25,-158.29 5.56,-27.82 14.08,-56.08 25.02,-84.13 10.86,-27.96 24.2,-55.54 39.39,-82.16 43.75,-88.65 104.91,-169.25 181.44,-230.72 70.26,-56.41 153.37,-96.71 247.75,-112.44 112.61,-18.75 226.53,-2.69 324.76,44.64 95.03,45.77 175.34,120.72 225.72,221.61 57.19,114.48 78.43,228.56 69.64,340.71 -9.31,118.85 -52.59,235.05 -122.69,346.91 -70.17,112.03 -150.42,220.71 -236.18,324.66 -69.06,83.69 -141.69,164.39 -215.54,241.36 24.8,0.1 49.12,1.05 73.42,2.02 18.92,0.75 37.84,1.5 54.92,1.82 32.68,0.58 65.39,0.36 98.07,0.13 60.98,-0.42 122.01,-0.85 181.82,3.65 60.15,4.53 110.11,29.09 146.2,65.96z"/>
  <path class="fil4" d="M2417.25 1733.74c-69.36,-63.98 -183.84,-35.1 -225.8,45.18 -10.44,19.99 -21.48,49.2 -21.74,72.02 -0.23,19.35 3.66,38.45 9.5,56.8 11.42,35.58 24.16,65.83 52.53,91.39 12.96,11.71 30.11,24.85 46.41,31.39 19.13,7.66 44.76,11.99 65.36,9.76 34.78,-3.77 66.89,-18.27 93.17,-41.23 82.89,-72.41 53.37,-198.1 -19.43,-265.31zm38.36 277.82c-49.35,45.88 -107.66,56.39 -169.78,38.58 -56.22,-16.15 -105.16,-64.81 -121.78,-117.37 -15.89,-37 -22.06,-78.25 -15.62,-117.04 10.06,-60.64 54.34,-112.44 109.46,-137.21 56.56,-25.43 118.01,-8.96 165.13,27.52 99.18,76.74 128.62,216.21 32.59,305.52z"/>
  <path class="fil4" d="M2372.42 2889.06c-69.36,63.97 -183.83,35.09 -225.8,-45.19 -10.43,-19.98 -21.48,-49.2 -21.74,-72.02 -0.23,-19.35 3.66,-38.45 9.5,-56.8 11.43,-35.58 24.16,-65.83 52.53,-91.39 12.96,-11.71 30.11,-24.84 46.41,-31.39 19.14,-7.65 44.77,-11.99 65.36,-9.76 34.78,3.77 66.9,18.28 93.18,41.23 82.88,72.41 53.36,198.1 -19.44,265.32zm38.37 -277.83c-49.35,-45.88 -107.67,-56.38 -169.78,-38.57 -56.22,16.14 -105.17,64.8 -121.79,117.37 -15.88,36.99 -22.06,78.25 -15.61,117.04 10.06,60.63 54.33,112.43 109.46,137.21 56.55,25.42 118,8.95 165.13,-27.53 99.18,-76.74 128.62,-216.21 32.59,-305.52z"/>
  <path class="fil5" d="M2366.19 1915.5c-28.71,26.48 -76.09,14.52 -93.46,-18.71 -4.32,-8.27 -8.9,-20.36 -9,-29.81 -0.1,-8.01 1.51,-15.91 3.93,-23.51 4.73,-14.73 10,-27.25 21.74,-37.83 5.37,-4.84 12.47,-10.28 19.22,-12.99 7.92,-3.17 18.52,-4.96 27.05,-4.04 14.39,1.56 27.69,7.56 38.57,17.07 34.31,29.97 22.09,82 -8.05,109.82zm15.88 -115c-20.43,-18.99 -44.56,-23.34 -70.27,-15.97 -23.28,6.68 -43.53,26.82 -50.41,48.58 -6.58,15.32 -9.14,32.39 -6.47,48.45 4.17,25.1 22.49,46.54 45.31,56.79 23.41,10.53 48.85,3.71 68.35,-11.39 41.06,-31.77 53.24,-89.49 13.49,-126.46z"/>
  <path class="fil5" d="M2321.37 2707.3c-28.71,-26.49 -76.1,-14.53 -93.47,18.7 -4.32,8.27 -8.89,20.37 -9,29.81 -0.09,8.01 1.52,15.92 3.93,23.51 4.73,14.73 10.01,27.25 21.75,37.83 5.36,4.85 12.46,10.29 19.21,12.99 7.92,3.17 18.53,4.97 27.05,4.04 14.4,-1.55 27.69,-7.56 38.57,-17.06 34.31,-29.98 22.09,-82 -8.04,-109.82zm15.88 115c-20.43,18.99 -44.57,23.34 -70.28,15.96 -23.27,-6.68 -43.53,-26.82 -50.41,-48.58 -6.58,-15.31 -9.13,-32.39 -6.46,-48.45 4.16,-25.09 22.49,-46.53 45.3,-56.79 23.41,-10.53 48.85,-3.71 68.36,11.39 41.05,31.77 53.24,89.5 13.49,126.47z"/>
  <path class="fil0" d="M2432.31 1753.4c-14.9,-0.42 -28.87,-6.06 -43.37,-9.1 -17.86,-3.75 -36.04,-5.6 -54.24,-6.45 -8.28,-0.39 -8.25,-12.39 0,-12.83 30.69,-1.65 74.66,-1.85 100.79,16.6 4.8,3.38 3.53,11.95 -3.18,11.78z"/>
  <path class="fil0" d="M2387.48 2869.4c-14.89,0.41 -28.86,6.06 -43.37,9.1 -17.86,3.75 -36.04,5.59 -54.24,6.45 -8.27,0.38 -8.25,12.38 0,12.82 30.69,1.66 74.66,1.85 100.8,-16.6 4.79,-3.38 3.52,-11.94 -3.19,-11.77z"/>
  <path class="fil0" d="M2420.25 1825.23c9.89,-0.27 19.17,-4.02 28.81,-6.04 11.86,-2.49 23.94,-3.72 36.03,-4.28 5.49,-0.26 5.48,-8.23 0,-8.52 -20.39,-1.1 -49.6,-1.23 -66.96,11.02 -3.18,2.25 -2.34,7.94 2.12,7.82z"/>
  <path class="fil0" d="M2375.42 2797.56c9.9,0.27 19.18,4.02 28.81,6.04 11.86,2.49 23.94,3.72 36.03,4.29 5.5,0.26 5.48,8.23 0,8.52 -20.38,1.1 -49.59,1.23 -66.95,-11.03 -3.19,-2.24 -2.35,-7.93 2.11,-7.82z"/>
  <path class="fil0" d="M2429.39 1887.09c9.89,0.28 19.17,4.03 28.8,6.05 11.87,2.49 23.94,3.72 36.03,4.28 5.5,0.26 5.48,8.23 0,8.52 -20.38,1.1 -49.59,1.23 -66.95,-11.02 -3.18,-2.25 -2.34,-7.94 2.12,-7.83z"/>
  <path class="fil0" d="M2384.56 2735.7c9.9,-0.28 19.17,-4.03 28.81,-6.05 11.86,-2.49 23.94,-3.72 36.03,-4.28 5.49,-0.26 5.48,-8.23 0,-8.52 -20.39,-1.1 -49.59,-1.23 -66.96,11.02 -3.18,2.25 -2.34,7.94 2.12,7.83z"/>
  <path class="fil0" d="M2440.3 1997.89c-9.9,-0.27 -19.17,-4.02 -28.81,-6.04 -11.86,-2.49 -23.94,-3.72 -36.03,-4.29 -5.49,-0.26 -5.48,-8.23 0,-8.52 20.39,-1.1 49.59,-1.23 66.95,11.03 3.19,2.24 2.35,7.93 -2.11,7.82z"/>
  <path class="fil0" d="M2395.47 2624.9c-9.89,0.28 -19.17,4.03 -28.8,6.05 -11.87,2.49 -23.94,3.71 -36.04,4.28 -5.49,0.26 -5.48,8.23 0,8.52 20.39,1.1 49.6,1.23 66.96,-11.03 3.18,-2.24 2.34,-7.93 -2.12,-7.82z"/>
  <path class="fil0" d="M2455.37 1771.48c-9.89,0.28 -19.16,4.03 -28.79,6.05 -11.86,2.49 -23.94,3.71 -36.02,4.28 -5.5,0.26 -5.48,8.23 0,8.52 20.38,1.1 49.58,1.23 66.93,-11.02 3.18,-2.25 2.34,-7.94 -2.12,-7.83z"/>
  <path class="fil0" d="M2410.55 2851.31c-9.89,-0.28 -19.17,-4.03 -28.8,-6.05 -11.86,-2.48 -23.93,-3.71 -36.02,-4.28 -5.49,-0.26 -5.48,-8.22 0,-8.51 20.38,-1.1 49.58,-1.23 66.93,11.02 3.19,2.24 2.35,7.93 -2.11,7.82z"/>
  <path class="fil0" d="M2485.15 1943.43c-9.89,-0.27 -19.17,-4.02 -28.8,-6.04 -11.86,-2.49 -23.93,-3.72 -36.02,-4.28 -5.49,-0.26 -5.47,-8.23 0,-8.52 20.38,-1.1 49.58,-1.23 66.94,11.02 3.18,2.25 2.34,7.93 -2.12,7.82z"/>
  <path class="fil0" d="M2440.32 2679.36c-9.89,0.28 -19.16,4.02 -28.79,6.04 -11.86,2.49 -23.93,3.72 -36.02,4.29 -5.5,0.25 -5.48,8.22 0,8.51 20.38,1.1 49.58,1.23 66.93,-11.02 3.18,-2.24 2.34,-7.93 -2.12,-7.82z"/>
  <path class="fil0" d="M2400.58 1955.02c9.89,0.27 19.17,4.02 28.8,6.04 11.86,2.49 23.93,3.72 36.02,4.29 5.49,0.25 5.48,8.22 0,8.51 -20.38,1.1 -49.58,1.23 -66.93,-11.02 -3.19,-2.25 -2.35,-7.93 2.11,-7.82z"/>
  <path class="fil0" d="M2355.76 2667.77c9.89,-0.27 19.16,-4.02 28.79,-6.04 11.86,-2.49 23.94,-3.72 36.02,-4.28 5.5,-0.26 5.48,-8.23 0,-8.52 -20.38,-1.1 -49.58,-1.23 -66.93,11.02 -3.18,2.25 -2.34,7.94 2.12,7.82z"/>
  <path class="fil1" d="M2387.15 1710.4c-12.11,2.07 -24.13,0.58 -36.25,0.87 -14.93,0.36 -29.88,2 -44.72,4.3 -6.75,1.04 -8.25,-6.78 -1.62,-8.36 24.63,-5.89 60.2,-12.91 83.68,-4.98 4.31,1.45 4.37,7.23 -1.09,8.17z"/>
  <path class="fil1" d="M2342.32 2912.39c-12.1,-2.07 -24.12,-0.58 -36.25,-0.87 -14.93,-0.35 -29.88,-2 -44.72,-4.3 -6.75,-1.04 -8.24,6.78 -1.62,8.36 24.63,5.89 60.2,12.92 83.69,4.99 4.3,-1.46 4.36,-7.24 -1.1,-8.18z"/>
  <path class="fil0" d="M2483.7 1828.15c-9.89,0.27 -19.16,4.02 -28.79,6.04 -11.86,2.49 -23.93,3.72 -36.02,4.28 -5.5,0.26 -5.48,8.23 0,8.52 20.38,1.1 49.58,1.23 66.93,-11.02 3.18,-2.25 2.34,-7.94 -2.12,-7.82z"/>
  <path class="fil0" d="M2438.88 2794.65c-9.89,-0.28 -19.17,-4.03 -28.8,-6.05 -11.86,-2.49 -23.93,-3.71 -36.02,-4.28 -5.49,-0.26 -5.48,-8.23 0,-8.52 20.38,-1.09 49.58,-1.22 66.94,11.02 3.18,2.25 2.34,7.94 -2.12,7.83z"/>
  <path class="fil0" d="M2492.84 1884.18c-9.89,-0.27 -19.16,-4.02 -28.79,-6.04 -11.87,-2.49 -23.94,-3.72 -36.02,-4.28 -5.5,-0.26 -5.48,-8.23 0,-8.52 20.37,-1.1 49.57,-1.23 66.93,11.02 3.18,2.25 2.34,7.94 -2.12,7.82z"/>
  <path class="fil0" d="M2448.02 2738.61c-9.89,0.27 -19.17,4.02 -28.8,6.04 -11.86,2.49 -23.93,3.72 -36.02,4.29 -5.49,0.25 -5.48,8.22 0,8.51 20.38,1.1 49.58,1.23 66.93,-11.02 3.19,-2.25 2.35,-7.93 -2.11,-7.82z"/>
  <path class="fil0" d="M2376.84 2000.8c9.89,0.28 19.17,4.03 28.8,6.05 11.86,2.49 23.93,3.71 36.02,4.28 5.49,0.26 5.48,8.23 0,8.52 -20.38,1.09 -49.58,1.22 -66.93,-11.02 -3.19,-2.25 -2.35,-7.94 2.11,-7.83z"/>
  <path class="fil0" d="M2332.02 2621.99c9.89,-0.28 19.16,-4.02 28.79,-6.04 11.86,-2.49 23.94,-3.72 36.02,-4.29 5.5,-0.25 5.48,-8.22 0,-8.51 -20.38,-1.1 -49.58,-1.23 -66.93,11.02 -3.18,2.24 -2.34,7.93 2.12,7.82z"/>
  <path class="fil3" d="M243.17 2606.3c34.32,10 70.43,13.76 107.22,14.39 37.1,0.63 75.94,-1.99 114.37,-4.58 16.91,-1.14 33.8,-2.28 52.12,-3.22 18.01,-0.92 35.3,-1.53 51.14,-1.53 31.79,0 56.15,-0.1 74.26,-0.26 23.71,-0.2 46.84,-0.52 69.5,-0.9l71.92 -1.39 111.29 -2.59 -3.27 43.32c-2.15,28.46 -4.17,56.47 -5.79,83.13 -1.72,28.23 -3.14,56.01 -4.02,82.94 -0.91,27.35 -1.35,54.53 -1.13,81.35 0.22,26.48 1.11,53.25 2.84,80.25 1.51,23.78 5.61,47.24 12.22,68.78 6.24,20.38 14.68,39.01 25.23,54.57 9.09,13.4 19.88,24.61 32.28,32.64 11.08,7.18 23.61,11.85 37.52,13.26 7.58,0.76 14.8,-1.33 21.54,-5.49 9,-5.55 17.48,-14.76 25.2,-26.02 10.95,-16.02 20.13,-35.61 27.41,-55.68 8.92,-24.58 14.98,-49.92 18.08,-70.5 4.11,-27.26 7.32,-54.05 9.8,-80.41 2.52,-26.83 4.42,-54.1 5.86,-81.63 1.48,-28.37 2.46,-56.1 3.13,-83.38 0.67,-28.02 1.04,-55.68 1.29,-83.12l0.45 -50.41 43.79 12.78c8.69,2.53 17.37,4.17 25.92,4.96 8.74,0.79 17.53,0.73 26.25,-0.17 8.76,-0.87 17.52,-2.66 26.26,-5.27 8.91,-2.65 17.61,-6.14 25.96,-10.35 2,-1.02 4.44,-1.89 6.61,-2.45 7.01,-1.82 13.96,-4.08 20.67,-6.7 6.3,-2.48 12.17,-5.22 17.37,-8.18 4.6,-2.62 8.76,-5.4 12.24,-8.26 3.07,-2.52 5.72,-5.16 7.78,-7.87 8.96,-11.67 17.03,-24.35 24.01,-37.76 6.89,-13.25 12.62,-27.03 17.02,-41.07 4.25,-13.59 7.36,-27.68 9.14,-41.99 1.73,-13.95 2.22,-27.99 1.33,-41.85 -0.07,-1.03 -0.2,-2.74 0,-3.69 0.11,-5.13 -0.03,-10.38 -0.41,-15.68 -0.34,-4.95 -0.96,-9.81 -1.8,-14.52 -0.69,-4.14 -1.75,-8.47 -3.08,-12.91 -1.29,-4.35 -2.76,-8.37 -4.35,-12.04 -0.55,-1.27 -1.08,-2.59 -1.43,-3.92 -2.12,-6.65 -4.83,-12.52 -7.99,-17.65 -3.09,-5.03 -6.75,-9.52 -10.84,-13.47 -4.25,-4.1 -9.06,-7.68 -14.27,-10.78 -5.51,-3.27 -11.39,-6 -17.5,-8.23l-3.21 -1.38c-10.26,-5.03 -21.42,-9 -33.11,-11.96 -12.44,-3.14 -25.17,-5.09 -37.82,-5.92 -13.57,-0.89 -27.16,-0.56 -40.29,0.86 -13.08,1.42 -25.87,4 -37.89,7.64l-45.59 13.79 1.55 -81.59c0.32,-15.76 0.94,-30.38 1.66,-44.45 0.79,-15.11 1.61,-28.47 2.45,-41.67l0.08 -1.21c2.74,-43.94 5.5,-88.06 3.93,-129.6 -0.98,-25.99 -3.94,-51.02 -9.46,-73.36 -4.75,-19.24 -11.41,-36.33 -20.38,-50.04 -7.21,-11.02 -16.06,-19.86 -26.77,-25.72 -10.04,-5.49 -22.02,-8.65 -36.16,-8.88l-0.29 0c-5.66,-0.08 -11.2,0.85 -16.47,2.63 -5.58,1.89 -10.95,4.83 -15.99,8.59 -5.51,4.12 -10.63,9.29 -15.27,15.26 -4.85,6.25 -9.11,13.18 -12.62,20.53 -11.81,29.17 -17.74,43.88 -21.58,64.29 -3.94,21.02 -6.18,50.08 -10.57,107.63l-2.15 35.92c-0.82,15.81 -1.72,30.33 -2.67,44.24 -4,54.69 -8.21,106.22 -14.35,160.59l-34.5 -4.16c-22.63,-2.73 -45.69,-2.96 -68.92,-1.94 -23.89,1.04 -48.17,3.4 -72.36,5.73 -15.1,1.47 -30.11,2.93 -42.29,3.87 -13.74,1.1 -28.14,1.97 -43.82,2.39 -34.35,0.93 -68.91,0.7 -103.45,0.48l-5.2 -0.03c-36.2,-0.21 -72.44,-0.42 -108.97,0.82l-57.28 1.96 24.18 -57.74c19.86,-47.44 37.62,-93.27 55.37,-139.08l0.44 -1.2c20.23,-52.11 40.45,-104.29 62.01,-154.92 19.62,-46.11 42.52,-97.54 65.39,-148.95l0.44 -0.98c14.36,-32.25 28.75,-64.56 43.97,-99.48 14.99,-34.41 29.62,-68.68 43.47,-102.51 8.81,-21.52 17.57,-44.14 26.14,-67.61 8.11,-22.21 15.85,-44.68 23.06,-67.16 6.98,-21.77 13.58,-43.82 19.68,-65.97 5.79,-21.01 11.2,-42.37 16.08,-63.89 2.05,-9.08 3.79,-18.33 4.98,-27.42 1.1,-8.32 1.78,-16.54 1.91,-24.42 0.11,-6.67 -0.19,-13.49 -1,-20.31 -0.71,-6.06 -1.8,-11.74 -3.3,-16.94l-3.54 -11.98 1.1 -3.91c-3.47,-11.45 -7.5,-21.09 -12.06,-28.93 -4.51,-7.81 -9.44,-13.47 -14.77,-17.05 -5.12,-3.42 -11.25,-5.28 -18.35,-5.54 -7.25,-0.27 -15.61,1.02 -25.06,3.85l-4.48 1.51c-27.69,9.37 -53.43,38.72 -76.28,74.09 -24.43,37.83 -45.17,82.07 -61.95,117.9l-4.99 10.65c-26.35,56 -52.23,113.71 -77.56,172.69 -26.23,61.09 -51.53,122.74 -75.84,184.55 -25.71,65.35 -50.34,130.79 -73.87,195.89 -24.8,68.6 -48.59,137.37 -71.32,205.8l-10.3 30.91c-17.18,51.14 -35.64,106.09 -49.91,161.02 -14.14,54.43 -24.31,109.19 -25.26,160.82 -0.25,14.23 2.11,26.22 6.37,36.3 4.12,9.78 10.2,18.01 17.46,24.92 8.4,8 18.47,14.53 29.22,19.88 11.53,5.7 23.55,10.05 35.19,13.45zm106.62 52.79c-39.95,-0.68 -79.39,-4.83 -117.31,-15.89 -13.83,-4.03 -27.94,-9.12 -41.16,-15.66l3.65 1.9c13.37,6.77 27.37,11.9 40.91,15.85 72.87,21.25 151.95,16.03 229.45,10.82l2.33 -0.16c33.79,-2.27 67.31,-4.51 100.36,-4.51 27.81,0 50.74,-0.11 69.7,-0.3 23.89,-0.23 48.81,-0.59 74.44,-1.01l63.21 -1.21 77.91 -1.76 0.12 -1.52 -68.95 1.57 -72.07 1.39c-22.46,0.37 -45.65,0.69 -69.8,0.9 -29.74,0.26 -54.88,0.42 -74.56,0.42 -16.78,0 -33.1,0.55 -49.19,1.37 -15.79,0.8 -33.61,2.01 -51.5,3.22 -38.75,2.61 -77.91,5.25 -117.54,4.58zm637.31 525.62c-15.58,-1.58 -29.94,-5.94 -43.05,-12.59 13.3,7.63 28.09,12.62 44.3,14.26 13.33,1.35 25.59,-1.89 36.72,-8.45l1.35 -0.81c-12.1,6.15 -25.22,9.03 -39.32,7.59zm154.48 -523.87l-0.02 1.94 15.99 2.85c7.69,1.35 15.11,2.16 22.2,2.43 7.48,0.27 14.99,0.02 22.44,-0.74 10.25,-1.04 20.47,-3.09 30.54,-6.06 10.27,-3.01 20.35,-7 30.11,-11.84l1.79 -0.9 1.74 -0.46c8.15,-2.18 15.99,-4.75 23.25,-7.65 5.99,-2.37 11.76,-5.05 17.26,-8.02 -4.45,2.2 -9.06,4.23 -13.79,6.08 -7.39,2.89 -15.38,5.48 -23.72,7.69l-1.39 0.52c-10.18,5.06 -20.6,9.21 -31.13,12.34 -10.77,3.21 -21.91,5.46 -33.34,6.62 -11.02,1.12 -22.28,1.21 -33.63,0.17 -9.43,-0.88 -18.91,-2.52 -28.3,-4.97zm177.94 -394.19c4.96,1.82 9.79,3.85 14.41,6.1 -5.71,-3.11 -11.69,-5.8 -17.85,-8.07l-1.73 -0.75c-11.93,-5.8 -24.67,-10.34 -37.82,-13.67 -13.99,-3.54 -28.39,-5.75 -42.72,-6.7 -11.61,-0.75 -23.29,-0.7 -34.77,0.1 -11.62,0.81 -23.05,2.4 -33.96,4.7l-17.26 3.63 -0.02 1.67c12.59,-3.49 26.06,-6.04 40.01,-7.56 15.28,-1.65 31.04,-2.03 46.76,-1.01 15.22,1.01 30.34,3.3 44.84,6.98 13.7,3.5 27.15,8.31 39.94,14.52l0.17 0.06zm-293.99 -455.78c19.69,0.27 36.84,4.58 51.66,12.14l-1.84 -1.06c-14.04,-7.84 -30.6,-12.33 -49.97,-12.61 -8.81,-0.13 -17.31,1.28 -25.35,3.99 -4.73,1.6 -9.32,3.66 -13.73,6.12 3.21,-1.52 6.51,-2.86 9.89,-4 9.12,-3.09 18.85,-4.7 29.05,-4.58l0.29 0zm-146.07 455.21l0.17 -1.55 -12.33 -0.97c-21.85,-1.73 -43.62,-1.53 -65.3,-0.39 -22.4,1.18 -44.65,3.34 -66.84,5.49 -15.59,1.5 -31.2,3.02 -42.45,3.91 -13.59,1.09 -27.45,1.95 -41.82,2.34 -34.23,0.91 -68.49,0.69 -102.69,0.49l-6.22 -0.05c-27.42,-0.16 -54.88,-0.32 -82.29,0.15l-23.77 0.41 -0.72 1.72c35.88,-1.17 71.83,-0.96 107.74,-0.75l5.28 0.04c34.09,0.21 68.2,0.43 102.32,-0.49 13.27,-0.35 27.33,-1.24 41.73,-2.37 16.02,-1.25 28.89,-2.5 41.68,-3.74 24.77,-2.39 49.61,-4.8 74.32,-5.88 24.06,-1.06 47.89,-0.88 71.19,1.64zm-166.37 -1112.41c10.66,0.4 20.43,2.69 29.3,6.87 -8.26,-4.87 -17.42,-7.64 -27.47,-8.29 -12.18,-0.78 -25.9,1.42 -41.12,6.58l-3.52 1.19c-2.63,1.01 -5.25,2.14 -7.83,3.4l7.41 -2.52c15.67,-5.3 30.08,-7.72 43.23,-7.23zm-56.33 12.76l-0.61 0.29 0.61 -0.29zm-465.85 1460.87l-0.58 -0.29 0.58 0.29zm278.79 67.09l-0.8 0.05c-81.09,5.46 -163.88,11.03 -243.71,-12.25 -15.74,-4.59 -32.01,-10.54 -47.54,-18.41 -16.03,-8.12 -31.41,-18.29 -44.91,-31.15 -14.76,-14.05 -27.16,-30.96 -35.7,-51.33 -8.44,-20.08 -13.11,-43.52 -12.61,-70.94 1.09,-59.05 12.07,-119.59 27.32,-178.84 15.18,-59 34.34,-116.06 52.18,-169.15l10.29 -30.68c23.18,-69.67 47.2,-139.11 71.98,-207.69 24.16,-66.88 49.09,-133.14 74.7,-198.24 24.71,-62.82 50.35,-125.31 76.85,-187.04 25.04,-58.38 51.27,-116.81 78.69,-175.1l4.92 -10.52c18.77,-40.04 41.95,-89.49 70.48,-132.52 29.96,-45.19 66.01,-83.54 109.59,-98.27l19.79 -6.69 0.29 1.18c12.54,-2.69 24.47,-3.68 35.81,-2.95 18.13,1.18 34.59,6.7 49.4,16.61 14.37,9.61 26.64,23.02 36.83,40.2 9.54,16.09 17.35,35.77 23.46,58.99 0.73,2.61 1.23,5.35 1.5,8.12 0.22,1.98 0.3,4 0.28,6 1.91,8.02 3.28,16.36 4.17,24.88 1.01,9.56 1.37,19.45 1.21,29.46 -0.19,11.4 -1.1,22.8 -2.53,33.95 -1.57,12.31 -3.78,24.3 -6.37,35.74 -5.06,22.31 -10.77,44.84 -16.99,67.38 -6.41,23.23 -13.4,46.56 -20.83,69.72 -7.71,24.04 -15.84,47.71 -24.25,70.81 -8.54,23.44 -17.65,46.92 -27.13,70.11 -27.67,67.64 -58.1,135.98 -88.52,204.3l-0.87 1.93c-20.83,46.81 -41.69,93.67 -64.29,146.76 -11.18,26.31 -21.48,51.61 -31.29,76.32 -9.17,23.14 -19.66,50.18 -30.18,77.34l-0.23 0.66c-11.05,28.43 -22.06,56.86 -32.73,83.68 18.04,-0.07 36.11,0.03 54.16,0.14l6.3 0.05c33.73,0.2 67.51,0.42 101.41,-0.48 12.14,-0.33 25.68,-1.22 39.88,-2.34 16.53,-1.33 29.18,-2.55 41.84,-3.78 22.85,-2.21 45.75,-4.43 68.5,-5.62 17.08,-0.91 34.15,-1.27 51.18,-0.69l6.81 -89.72c0.94,-17.92 0.79,-55.73 4.06,-72.53 9.76,-127.91 9.88,-128.22 38.39,-198.58l0.83 -1.95c6.16,-13.24 13.75,-25.74 22.56,-37.06 8.62,-11.03 18.38,-20.81 29.14,-28.86 10.69,-7.99 22.37,-14.31 34.81,-18.5 11.96,-4.04 24.7,-6.14 38.01,-5.95 26.16,0.38 48.77,6.58 68.18,17.42 20.91,11.7 37.86,28.55 51.36,49.22 13.71,20.97 23.72,45.73 30.62,72.73 7.41,29.19 11.34,61.1 12.58,93.72 1.77,46.73 -1.08,92.38 -3.92,137.86l-0.02 0.43c-0.94,15 -1.88,29.9 -2.55,42.69l-1.02 21.73c5.1,-0.62 10.24,-1.12 15.41,-1.48 13.06,-0.9 26.41,-0.97 39.73,-0.09 16.77,1.1 33.52,3.66 49.66,7.75 15.29,3.88 30.2,9.16 44.28,15.92 9.9,3.71 19.42,8.21 28.33,13.6 9.26,5.6 18.02,12.25 26.11,20.06l0.08 0.07c8.2,7.93 15.64,17.09 22.13,27.56 6.38,10.31 11.76,21.7 15.95,34.26 2.64,6.32 5.02,12.96 7.06,19.87 2.12,7.24 3.9,14.68 5.25,22.25 1.29,7.55 2.26,15.02 2.82,22.38 0.52,6.78 0.75,14.13 0.67,22.01 1.17,19.31 0.52,38.47 -1.82,57.21 -2.42,19.38 -6.66,38.57 -12.5,57.21 -5.89,18.8 -13.44,37.05 -22.43,54.38 -9.08,17.5 -19.64,34.12 -31.45,49.51 -5.3,6.92 -11.5,13.29 -18.4,19.06 -6.94,5.81 -14.74,11.14 -23.16,15.93 -7.67,4.35 -16.04,8.33 -24.88,11.86 -8.47,3.42 -17.15,6.32 -25.87,8.73 -11.18,5.43 -22.71,9.92 -34.47,13.38 -12.21,3.59 -24.8,6.1 -37.61,7.4 -9.05,0.91 -18.25,1.22 -27.55,0.88l-5.26 -0.25c-0.26,17.5 -0.61,34.88 -1.06,52.03 -0.68,24.98 -1.59,49.4 -2.81,72.96 -1.48,28.4 -3.49,56.91 -6.18,85.54 -2.75,29.13 -6.13,57.59 -10.29,85.12 -3.8,25.26 -11.42,56.72 -22.74,87.69 -9.46,25.87 -21.56,51.46 -36.25,72.93 -13.94,20.36 -30.35,37.43 -49.31,48.59 -17.98,10.6 -37.96,15.81 -59.93,13.57 -24.8,-2.52 -47.11,-10.81 -66.82,-23.56 -20.62,-13.34 -38.32,-31.63 -53.02,-53.3 -15.02,-22.16 -26.83,-47.85 -35.38,-75.36 -8.85,-28.42 -14.29,-58.97 -16.25,-89.67 -1.76,-27.35 -2.67,-55.58 -2.89,-84.42 -0.22,-28.47 0.23,-57 1.18,-85.47 0.83,-25.14 2.01,-49.7 3.4,-73.79 1.05,-18.08 2.19,-35.57 3.37,-52.67l-105.4 2.13c-25.38,0.42 -50.36,0.78 -74.74,1.01 -29.31,0.29 -53.12,0.47 -70.01,0.47 -33.07,0 -65.58,2.18 -98.32,4.39z"/>
  <rect class="fil6" x="-16.65" y="5.51" width="4343.4" height="4343.58"/>
 </g>
</svg>
