<?xml version="1.0" encoding="UTF-8"?>
<!DOCTYPE svg PUBLIC "-//W3C//DTD SVG 1.1//EN" "http://www.w3.org/Graphics/SVG/1.1/DTD/svg11.dtd">
<!-- Creator: CorelDRAW 2018 (64-Bit) -->
<svg xmlns="http://www.w3.org/2000/svg" xml:space="preserve" width="43.4338mm" height="43.4338mm" version="1.1" style="shape-rendering:geometricPrecision; text-rendering:geometricPrecision; image-rendering:optimizeQuality; fill-rule:evenodd; clip-rule:evenodd"
viewBox="0 0 4343.38 4343.38"
 xmlns:xlink="http://www.w3.org/1999/xlink">
 <defs>
  <style type="text/css">
   <![CDATA[
    .fil5 {fill:none}
    .fil0 {fill:#2B2A29}
    .fil4 {fill:#1D1D1B}
    .fil3 {fill:#434242;fill-rule:nonzero}
    .fil1 {fill:#2B2A29;fill-rule:nonzero}
    .fil2 {fill:#2B2A29;fill-rule:nonzero}
   ]]>
  </style>
 </defs>
 <g id="Слой_x0020_1">
  <metadata id="CorelCorpID_0Corel-Layer"/>
  <path class="fil0" d="M4265.2 3489.94c-48.63,-53.96 -111.87,-102.56 -165.71,-149.52 -12.08,-10.52 -21.26,-0.32 -8.97,11.44 52.92,50.74 110.08,112.23 167.01,154.59 14.44,10.75 18.9,-4.03 7.67,-16.51z"/>
  <path class="fil0" d="M4239.68 1160.95c-48.63,-53.96 -111.87,-102.57 -165.71,-149.52 -12.08,-10.52 -21.26,-0.32 -8.97,11.44 52.92,50.74 110.08,112.23 167.01,154.59 14.44,10.75 18.9,-4.04 7.67,-16.51z"/>
  <path class="fil0" d="M3552 3471.89c-48.63,-53.96 -111.88,-102.57 -165.72,-149.52 -12.08,-10.52 -21.26,-0.32 -8.96,11.44 52.91,50.73 110.07,112.23 167.01,154.59 14.44,10.75 18.9,-4.04 7.67,-16.51z"/>
  <path class="fil0" d="M3526.48 1142.9c-48.63,-53.96 -111.88,-102.57 -165.72,-149.52 -12.08,-10.52 -21.26,-0.32 -8.96,11.44 52.91,50.73 110.07,112.23 167.01,154.59 14.44,10.75 18.9,-4.04 7.67,-16.51z"/>
  <path class="fil0" d="M4176.05 3499.26c-48.63,-53.96 -111.88,-102.57 -165.71,-149.52 -12.08,-10.52 -21.26,-0.32 -8.97,11.44 52.92,50.74 110.08,112.23 167.01,154.59 14.44,10.75 18.9,-4.04 7.67,-16.51z"/>
  <path class="fil0" d="M4150.53 1170.27c-48.63,-53.96 -111.88,-102.57 -165.71,-149.52 -12.08,-10.52 -21.26,-0.32 -8.97,11.44 52.92,50.73 110.08,112.23 167.01,154.59 14.44,10.75 18.9,-4.04 7.67,-16.51z"/>
  <path class="fil0" d="M3462.85 3481.21c-48.63,-53.96 -111.88,-102.57 -165.72,-149.52 -12.08,-10.52 -21.26,-0.32 -8.97,11.44 52.92,50.73 110.08,112.23 167.01,154.59 14.45,10.75 18.91,-4.04 7.68,-16.51z"/>
  <path class="fil0" d="M3437.33 1152.22c-48.63,-53.96 -111.88,-102.57 -165.72,-149.52 -12.08,-10.52 -21.26,-0.32 -8.96,11.44 52.91,50.73 110.07,112.23 167,154.59 14.45,10.75 18.91,-4.04 7.68,-16.51z"/>
  <path class="fil0" d="M4086.9 3508.58c-48.63,-53.96 -111.88,-102.57 -165.71,-149.52 -12.08,-10.52 -21.26,-0.32 -8.97,11.44 52.91,50.74 110.08,112.23 167.01,154.59 14.44,10.75 18.9,-4.04 7.67,-16.51z"/>
  <path class="fil0" d="M4061.38 1179.59c-48.63,-53.96 -111.88,-102.57 -165.71,-149.52 -12.08,-10.52 -21.26,-0.32 -8.97,11.44 52.91,50.73 110.08,112.23 167.01,154.59 14.44,10.75 18.9,-4.04 7.67,-16.51z"/>
  <path class="fil0" d="M3373.69 3490.53c-48.62,-53.96 -111.87,-102.57 -165.71,-149.52 -12.08,-10.52 -21.26,-0.32 -8.97,11.44 52.92,50.73 110.08,112.23 167.01,154.59 14.45,10.75 18.9,-4.04 7.67,-16.51z"/>
  <path class="fil0" d="M3348.17 1161.54c-48.62,-53.97 -111.87,-102.57 -165.71,-149.52 -12.08,-10.52 -21.26,-0.32 -8.97,11.44 52.92,50.73 110.08,112.23 167.01,154.59 14.45,10.75 18.91,-4.04 7.67,-16.51z"/>
  <path class="fil0" d="M3997.75 3517.9c-48.63,-53.96 -111.88,-102.57 -165.72,-149.52 -12.07,-10.52 -21.25,-0.32 -8.96,11.44 52.91,50.73 110.08,112.23 167.01,154.59 14.44,10.75 18.9,-4.04 7.67,-16.51z"/>
  <path class="fil0" d="M3972.23 1188.91c-48.63,-53.96 -111.88,-102.57 -165.72,-149.52 -12.07,-10.52 -21.25,-0.32 -8.96,11.44 52.91,50.73 110.08,112.23 167.01,154.59 14.44,10.75 18.9,-4.04 7.67,-16.51z"/>
  <path class="fil0" d="M3284.54 3499.85c-48.63,-53.96 -111.87,-102.57 -165.71,-149.52 -12.08,-10.52 -21.26,-0.32 -8.97,11.44 52.92,50.73 110.08,112.23 167.01,154.59 14.44,10.75 18.9,-4.04 7.67,-16.51z"/>
  <path class="fil0" d="M3259.02 1170.86c-48.63,-53.97 -111.87,-102.57 -165.71,-149.52 -12.08,-10.53 -21.26,-0.32 -8.97,11.44 52.92,50.73 110.08,112.23 167.01,154.58 14.45,10.76 18.9,-4.03 7.67,-16.5z"/>
  <path class="fil0" d="M3736.16 3391.75c48.63,53.96 111.88,102.56 165.72,149.51 12.07,10.53 21.25,0.33 8.96,-11.44 -52.91,-50.73 -110.08,-112.22 -167.01,-154.58 -14.44,-10.76 -18.9,4.03 -7.67,16.51z"/>
  <path class="fil0" d="M3710.64 1062.75c48.63,53.97 111.88,102.57 165.72,149.52 12.07,10.53 21.25,0.33 8.96,-11.44 -52.91,-50.73 -110.08,-112.23 -167.01,-154.58 -14.44,-10.76 -18.9,4.03 -7.67,16.5z"/>
  <path class="fil0" d="M3022.96 3373.69c48.62,53.97 111.87,102.57 165.71,149.52 12.08,10.53 21.26,0.32 8.97,-11.44 -52.92,-50.73 -110.08,-112.23 -167.01,-154.58 -14.45,-10.76 -18.91,4.03 -7.67,16.5z"/>
  <path class="fil0" d="M2997.44 1044.7c48.62,53.97 111.87,102.57 165.71,149.52 12.08,10.53 21.26,0.32 8.97,-11.44 -52.92,-50.73 -110.08,-112.23 -167.01,-154.59 -14.45,-10.75 -18.91,4.04 -7.67,16.51z"/>
  <path class="fil0" d="M3819.45 3536.54c-48.63,-53.96 -111.88,-102.57 -165.72,-149.52 -12.08,-10.52 -21.26,-0.32 -8.96,11.44 52.91,50.73 110.07,112.23 167.01,154.59 14.44,10.75 18.9,-4.04 7.67,-16.51z"/>
  <path class="fil0" d="M3793.93 1207.55c-48.63,-53.97 -111.88,-102.57 -165.72,-149.52 -12.08,-10.53 -21.26,-0.32 -8.96,11.44 52.91,50.73 110.07,112.23 167.01,154.59 14.44,10.75 18.9,-4.04 7.67,-16.51z"/>
  <path class="fil0" d="M3106.24 3518.49c-48.63,-53.97 -111.88,-102.57 -165.71,-149.52 -12.08,-10.53 -21.26,-0.32 -8.97,11.44 52.92,50.73 110.08,112.23 167.01,154.58 14.44,10.76 18.9,-4.03 7.67,-16.5z"/>
  <path class="fil0" d="M3080.72 1189.5c-48.63,-53.97 -111.88,-102.57 -165.71,-149.52 -12.08,-10.53 -21.26,-0.33 -8.97,11.44 52.92,50.73 110.08,112.22 167.01,154.58 14.44,10.76 18.9,-4.03 7.67,-16.5z"/>
  <path class="fil0" d="M2872.27 3490.53c-48.63,-53.96 -111.88,-102.57 -165.72,-149.52 -12.07,-10.52 -21.26,-0.32 -8.96,11.44 52.91,50.73 110.07,112.23 167.01,154.59 14.44,10.75 18.9,-4.04 7.67,-16.51z"/>
  <path class="fil0" d="M2846.75 1161.54c-48.63,-53.96 -111.88,-102.57 -165.72,-149.52 -12.07,-10.52 -21.26,-0.32 -8.96,11.44 52.91,50.73 110.08,112.23 167.01,154.59 14.44,10.75 18.9,-4.04 7.67,-16.51z"/>
  <path class="fil0" d="M3559.35 3356.84c48.82,53.79 90.84,121.58 132.17,179.85 9.26,13.07 -1.81,21.19 -12.28,7.78 -45.18,-57.73 -100.64,-120.76 -137.09,-181.65 -9.25,-15.45 5.91,-18.4 17.2,-5.98z"/>
  <path class="fil0" d="M3533.83 1027.85c48.82,53.79 90.84,121.58 132.17,179.85 9.26,13.07 -1.81,21.19 -12.28,7.78 -45.18,-57.73 -100.64,-120.77 -137.09,-181.65 -9.25,-15.45 5.91,-18.41 17.2,-5.98z"/>
  <path class="fil0" d="M2846.14 3338.79c48.82,53.78 90.85,121.58 132.17,179.85 9.26,13.07 -1.81,21.18 -12.28,7.78 -45.18,-57.73 -100.64,-120.77 -137.08,-181.65 -9.26,-15.45 5.9,-18.41 17.19,-5.98z"/>
  <path class="fil0" d="M2820.62 1009.8c48.82,53.78 90.85,121.58 132.17,179.85 9.26,13.07 -1.8,21.18 -12.28,7.77 -45.18,-57.72 -100.64,-120.76 -137.08,-181.64 -9.26,-15.45 5.91,-18.41 17.19,-5.98z"/>
  <path class="fil0" d="M2612.17 3310.83c48.82,53.79 90.85,121.59 132.17,179.85 9.26,13.07 -1.81,21.19 -12.28,7.78 -45.18,-57.73 -100.64,-120.76 -137.09,-181.65 -9.25,-15.45 5.91,-18.4 17.2,-5.98z"/>
  <path class="fil0" d="M2586.65 981.84c48.82,53.79 90.85,121.58 132.17,179.85 9.26,13.07 -1.81,21.19 -12.28,7.78 -45.18,-57.73 -100.64,-120.76 -137.09,-181.65 -9.25,-15.45 5.91,-18.4 17.2,-5.98z"/>
  <path class="fil1" d="M2696.24 3556.78c35.72,1.21 71.72,1 107.85,0.07 36.41,-0.94 71.58,-2.56 106.71,-4.19l24.55 -1.13c16.77,-0.77 33.63,-1.56 48.83,-2.03 16.11,-0.52 32.2,-0.81 48.2,-0.65 40.86,0.53 81.7,1.25 122.54,2.16 10.54,0.26 105.2,0.92 105.15,3.88l328.38 4.96 0.73 -60.36 -322.82 -5.46c-36.19,-0.74 -72.41,-1.5 -110.14,-2.43 -41.09,-0.92 -82.14,-1.62 -123.24,-2.15 -16.94,-0.17 -33.77,0.13 -50.53,0.67 -17.66,0.55 -33.7,1.3 -49.76,2.04l-24.57 1.13c-35.59,1.65 -71.19,3.29 -105.51,4.18 -34.61,0.89 -69.37,1.08 -104.37,-0.11l-13.52 -0.6c-7.06,-0.48 -19.76,-2.04 -26.34,-1.99 -4.34,-0.42 -8.7,-0.94 -12.97,-1.49l-10.1 -1.56 -10.26 -1.88 -10.19 -2.36 -0.04 0.11 -10.21 -2.7c-3.82,-1.13 -7.72,-2.59 -11.62,-4.25l-0.11 0.01c-3.05,-1.29 -8.36,-3.8 -13.71,-6.33 -2.16,-1.03 -4.14,-1.9 -6.22,-3.03l-2.54 -1.79 -2.95 -2.41 -2.63 -2.38c-1.63,-2.05 -3.26,-4.36 -4.84,-6.92 -1.96,-3.11 -3.71,-6.34 -5.23,-9.66 -1.74,-3.78 -3.27,-7.63 -4.53,-11.48 -1.23,-3.74 -2.43,-8.22 -3.59,-13.39l-0.35 -1.17c-2.26,-8.45 -4.26,-18.08 -5.98,-28.64 -1.77,-10.79 -3.05,-21.64 -3.89,-32.3 -0.93,-12.09 -1.39,-23.73 -1.39,-34.68 -0.01,-10.9 0.48,-22.62 1.38,-34.77l0 -0.58c0.38,-6.59 0.9,-12.74 1.59,-18.39 0.75,-6.18 1.67,-12.09 2.74,-17.75l0.13 0c1.29,-6.78 2.55,-12.51 3.76,-17.13 1.17,-4.4 2.63,-9.21 4.38,-14.4l4.64 -8.65 6.22 4.5 5.07 3.31 2.23 1.35 2.91 1.05c6.89,2.5 13.77,4.57 20.62,6.29 7.39,1.86 14.13,3.25 20.3,4.29l0.02 -0.1c7.67,1.32 14.09,2.21 19.72,2.83 4.08,0.45 10.97,1.05 19.04,1.68l0 0.11 10.87 0.71 10.59 0.5c12.09,0.4 24.05,0.63 36.15,0.78l14.93 0.02 29.74 -0.39 28.27 -0.84 28.1 -1.1 28.14 -1.35 28.12 -1.53c19.39,-1.1 38.46,-2.2 55.7,-3.06 19.18,-0.96 37.77,-1.81 55.43,-2.46 18.73,-0.68 37.25,-1.21 55.4,-1.45 18.2,-0.25 36.58,-0.25 55.15,0.05 80.57,1.27 423.26,-1.6 503.82,-0.18l2.45 -59.66c0.01,-0.15 -488.54,0.72 -505.44,0.45 -6.14,-0.11 -12.32,-0.17 -18.51,-0.21l-0.87 0 -19.54 0 -0.89 0 -0.38 0 -16.59 0.16c-19.13,0.28 -37.98,0.79 -56.57,1.47 -19.59,0.72 -38.31,1.56 -56.36,2.47 -20.04,1.01 -38.28,2.04 -56.17,3.06l-27.65 1.53 -27.67 1.33 -27.64 1.11 -27.57 0.83 -14.34 0.27 -14.46 0.11 -14.24 -0.04c-11.39,-0.15 -22.67,-0.36 -34.07,-0.79l-9.65 -0.51 -9.68 -0.72 -0.01 0.11c-3.96,-0.3 -9.2,-0.8 -17.19,-1.69 -6.44,-0.72 -12.07,-1.44 -16.34,-2.17l-0.11 -0.12c-5.84,-0.97 -11.13,-2.04 -15.63,-3.17 -4,-0.99 -7.95,-2.15 -11.83,-3.45l-3.82 -3.09 -0.06 0.06 -2.41 -2.37c-5.31,-5.11 -10.81,-8.96 -16.47,-11.54l-0.05 0.09c-7.24,-3.29 -14.62,-4.7 -22.16,-4.23 -7.63,0.48 -14.78,2.74 -21.43,6.69l0 0.11c-5.31,3.18 -10.3,7.47 -14.95,12.82l-2.36 2.75c-5.12,9.39 -10.28,18.72 -15.25,28.19l-0.95 2.67c-2.11,6.07 -4.15,12.91 -6.14,20.47 -2.09,7.86 -3.72,14.93 -4.9,21.09l0.1 0.03c-1.38,7.26 -2.51,14.52 -3.37,21.69 -0.93,7.49 -1.6,14.76 -2.01,21.78 -0.93,11.82 -1.4,24.97 -1.37,39.19 0.01,13.51 0.48,26.68 1.44,39.09 0.99,12.86 2.46,25.35 4.4,37.2 1.75,10.82 4.13,21.97 7.1,33.28 1.31,6.11 3.09,12.46 5.24,18.98 2.11,6.4 4.42,12.35 6.9,17.75 2.7,5.9 5.65,11.36 8.78,16.37 3.17,5.1 6.76,10.03 10.72,14.74l1.68 1.89c2.35,2.39 4.49,4.44 6.38,6.09 2.1,1.84 4.36,3.66 6.72,5.4 1.99,1.46 4.39,3.06 7.21,4.77 2.4,1.44 4.96,2.8 7.57,4.04l4.05 1.96c4.51,2.14 9.09,4.29 15.95,7.19 6.05,2.62 12.24,4.95 18.61,6.75l0.13 0c3.62,1.03 7.73,2.09 12.2,3.2l0 0.11c3.78,0.92 7.91,1.86 12.33,2.77l0.11 0c4.62,0.96 8.82,1.75 12.44,2.35 3.17,0.53 7.23,1.13 12.22,1.76 4.94,0.66 9.88,1.24 14.74,1.72 5.61,0.58 10.52,1.04 14.58,1.33l14.65 0.87 14.45 0.59zm895.07 -386.39l-1.12 59.42c37.1,8.31 61.43,6.64 99.22,7.23 22.37,0.36 45.29,0.95 69,1.9 18.32,0.73 37.37,1.27 57.02,1.62 18.47,0.34 37.51,0.53 56.88,0.56 18.83,0.02 37.74,-0.08 56.65,-0.27 18.97,-0.21 37.82,-0.5 56.56,-0.84l26.5 -0.34c8.44,-0.05 17.11,0 26.06,0.19 7.66,0.15 16.13,0.49 25.7,1.07 8.01,0.46 16.39,1.17 25.17,2.15l13.73 1.55 13.47 1.73 27.78 3.96 0.01 -0.09c8.88,1.28 16.44,2.18 23.35,2.89l32.76 2.94c4.85,0.45 9.96,0.65 15.22,0.62 5.55,-0.02 10.36,-0.22 14.59,-0.56 4.21,-0.35 8.95,-0.92 14.1,-1.63l5.79 -0.87 1.6 2.35 0.12 -0.01c0.95,1.56 1.94,3.52 2.91,5.83l10.74 31.46c1.47,6.1 2.82,12.48 4.05,19.02 1.29,6.93 2.38,13.83 3.26,20.66 0.95,7.35 1.71,14.4 2.22,21.17 0.61,7.86 0.99,15.05 1.14,21.48l0 0.34c0.26,7.27 0.33,14.52 0.21,21.74 -0.09,6.04 -0.43,13.14 -1.01,21.29 -0.53,7.95 -1.22,15.01 -1.97,21.18 -0.77,6.17 -1.76,12.7 -2.95,19.46l-8.85 32.75c-0.8,2.36 -1.77,4.59 -2.86,6.71 -0.64,1.32 -1.47,2.54 -2.4,3.68l-11.59 -0.94 -0.22 -0.11 -9.14 -0.52c-4.03,-0.18 -8.37,-0.16 -12.89,-0.05 -4.96,0.14 -8.33,0.33 -11.67,0.52l-16.18 0.73 -12.98 0.27 -26.56 0.09 -22.37 -0.28c-7.58,-0.16 -15.51,-0.55 -23.05,-0.47 -22.17,-0.47 -44.36,-0.93 -67.12,-0.62 -24.09,0.34 -47.61,1.02 -71.11,1.67 -24.48,0.69 -48.96,1.4 -72.81,1.7 -23.75,0.3 -47.73,0.25 -72.03,-0.56l-84.98 -3.23 -31.49 -1.06 -26.97 -0.61c-33.42,-0.38 -60.19,0.23 -93.62,0.23l-0.73 60.36 52.85 -1.55 14.54 0.05 26.16 0.31 26.01 0.61 31.04 1.07c28.46,1.12 56.94,2.24 85.42,3.24 24.44,0.8 49.32,0.84 74.38,0.53 24.98,-0.32 49.36,-1.02 73.74,-1.7 23.6,-0.68 47.23,-1.35 70.4,-1.67 21.05,-0.3 43.05,0.17 65.03,0.62 7.79,0.29 15.7,0.34 23.52,0.49 21.59,0.25 42.88,0.34 64.48,-0.12l27.6 -1.21c2.65,-0.09 5.53,-0.08 8.7,0.05l7.5 0.54 0.01 -0.09c7.41,0.6 14.91,1.32 22.29,1.78l4.4 -0.43 2.31 -0.55c6.46,-1.55 12.43,-4.11 17.9,-7.59l0.11 -0.12c5.32,-3.41 10.08,-7.57 14.23,-12.42 3.6,-4.22 6.96,-9.32 10.08,-15.29l0.11 -0.13c2.53,-4.89 4.87,-10.61 6.97,-17.12l0.45 -1.28 9.07 -33.62 0.67 -3.01c1.34,-7.57 2.56,-15.6 3.6,-23.98 1.09,-8.9 1.92,-16.99 2.41,-24.22 0.48,-7.03 0.82,-15.25 0.97,-24.56 0.14,-8.11 0.06,-16.31 -0.23,-24.52 -0.22,-8.94 -0.61,-17.02 -1.16,-24.28l0 -0.13c-0.66,-8.47 -1.49,-16.55 -2.48,-24.19 -1.05,-8.12 -2.32,-16.12 -3.76,-23.9 -1.43,-7.71 -3.14,-15.54 -5.09,-23.51l-0.85 -3.01 -11.05 -32.33 -0.59 -1.39c-2.36,-5.94 -5.11,-11.44 -8.21,-16.45l0.09 -0.04c-3.36,-5.42 -7.22,-10.26 -11.56,-14.52 -4.72,-4.61 -9.93,-8.32 -15.54,-11.14 -5.75,-2.88 -12.06,-4.73 -18.83,-5.52l-1.61 -0.19 -5.06 -0.03 -2.33 0.42c-4.76,0.84 -8.69,1.52 -11.33,1.89l-0.11 0c-3.06,0.42 -6.53,0.81 -10.48,1.11l-0.12 0.02c-3.99,0.31 -7.44,0.5 -10.15,0.51 -2.98,0.02 -6.22,-0.14 -9.66,-0.44l-10.25 -0.88c-5.71,-0.49 -11.39,-0.99 -21.8,-2.06 -7.84,-0.8 -15.1,-1.63 -20.91,-2.48l-0.13 -0.1c-14.02,-2.01 -44.01,-7.59 -56.71,-7.46 -9.03,-1 -18.52,-1.78 -28.32,-2.37 -8.33,-0.49 -17.78,-0.83 -28.02,-1.03 -8.82,-0.19 -18.04,-0.23 -27.46,-0.18l-27.2 0.35c-18.78,0.34 -37.52,0.64 -56.09,0.83 -18.65,0.19 -37.38,0.29 -56.19,0.27 -18.11,-0.04 -36.66,-0.22 -55.71,-0.57 -17.92,-0.33 -36.51,-0.85 -55.87,-1.63 -22.68,-0.92 -46.28,-1.51 -70.4,-1.88l-39.65 -0.44 -59.27 -6.82z"/>
  <path class="fil1" d="M2670.72 1227.78c35.72,1.22 71.72,1.01 107.85,0.08 36.41,-0.94 71.58,-2.56 106.71,-4.19l24.55 -1.13c16.77,-0.77 33.63,-1.56 48.83,-2.04 16.11,-0.51 32.2,-0.8 48.2,-0.64 40.86,0.53 81.7,1.25 122.55,2.16 10.53,0.25 105.19,0.92 105.14,3.88l328.38 4.96 0.73 -60.36 -322.82 -5.46c-36.19,-0.74 -72.41,-1.5 -110.14,-2.43 -41.09,-0.92 -82.14,-1.62 -123.24,-2.15 -16.94,-0.18 -33.77,0.13 -50.53,0.67 -17.66,0.55 -33.7,1.3 -49.76,2.04l-24.57 1.13c-35.59,1.65 -71.19,3.29 -105.51,4.18 -34.61,0.89 -69.37,1.08 -104.37,-0.11l-13.52 -0.6c-7.06,-0.48 -19.76,-2.04 -26.34,-1.99 -4.34,-0.42 -8.7,-0.94 -12.97,-1.49l-10.1 -1.56 -10.26 -1.88 -10.19 -2.36 -0.04 0.11 -10.21 -2.7c-3.82,-1.13 -7.72,-2.6 -11.62,-4.25l-0.11 0.01c-3.05,-1.29 -8.36,-3.8 -13.71,-6.33 -2.16,-1.03 -4.14,-1.91 -6.22,-3.03l-2.54 -1.79 -2.95 -2.41 -2.63 -2.38c-1.63,-2.05 -3.26,-4.36 -4.84,-6.92 -1.96,-3.11 -3.71,-6.34 -5.23,-9.67 -1.74,-3.77 -3.27,-7.62 -4.53,-11.47 -1.23,-3.74 -2.43,-8.22 -3.59,-13.39l-0.35 -1.17c-2.26,-8.45 -4.26,-18.08 -5.97,-28.64 -1.77,-10.79 -3.06,-21.64 -3.9,-32.3 -0.93,-12.09 -1.39,-23.74 -1.39,-34.68 -0.01,-10.9 0.48,-22.62 1.38,-34.78l0 -0.57c0.38,-6.59 0.9,-12.75 1.6,-18.39 0.74,-6.18 1.66,-12.09 2.73,-17.76l0.13 0c1.29,-6.77 2.55,-12.5 3.76,-17.12 1.17,-4.4 2.63,-9.21 4.38,-14.4l4.64 -8.65 6.22 4.5 5.08 3.31 2.22 1.34 2.91 1.06c6.89,2.5 13.77,4.57 20.63,6.29 7.38,1.86 14.12,3.25 20.29,4.29l0.02 -0.1c7.67,1.32 14.09,2.21 19.72,2.83 4.08,0.45 10.97,1.05 19.04,1.68l0 0.11 10.87 0.7 10.59 0.51c12.09,0.4 24.05,0.62 36.15,0.77l14.93 0.03 29.74 -0.39 28.27 -0.84 28.1 -1.11 28.14 -1.34 28.12 -1.53c19.39,-1.1 38.46,-2.2 55.7,-3.06 19.18,-0.96 37.77,-1.81 55.43,-2.46 18.73,-0.68 37.25,-1.21 55.4,-1.45 18.2,-0.25 36.58,-0.25 55.15,0.05 80.57,1.27 423.26,-1.6 503.82,-0.19l2.45 -59.65c0.02,-0.15 -488.54,0.72 -505.44,0.45 -6.14,-0.11 -12.32,-0.17 -18.51,-0.21l-0.87 0 -19.54 0 -0.89 0 -0.38 0 -16.59 0.16c-19.13,0.28 -37.98,0.79 -56.57,1.47 -19.59,0.72 -38.31,1.56 -56.36,2.47 -20.04,1.01 -38.28,2.04 -56.17,3.05l-27.65 1.54 -27.67 1.33 -27.64 1.11 -27.57 0.83 -14.34 0.27 -14.46 0.11 -14.24 -0.04c-11.39,-0.15 -22.67,-0.36 -34.07,-0.79l-9.65 -0.51 -9.68 -0.72 -0.01 0.11c-3.96,-0.3 -9.2,-0.8 -17.19,-1.69 -6.44,-0.72 -12.07,-1.45 -16.34,-2.17l-0.11 -0.12c-5.84,-0.98 -11.13,-2.04 -15.63,-3.17 -4,-0.99 -7.95,-2.15 -11.83,-3.45l-3.82 -3.09 -0.06 0.06 -2.41 -2.37c-5.31,-5.11 -10.81,-8.97 -16.47,-11.54l-0.05 0.09c-7.24,-3.29 -14.62,-4.7 -22.16,-4.23 -7.63,0.47 -14.78,2.73 -21.42,6.69l0 0.11c-5.32,3.18 -10.31,7.47 -14.96,12.82l-2.36 2.75c-5.12,9.39 -10.28,18.72 -15.25,28.19l-0.95 2.66c-2.11,6.08 -4.15,12.92 -6.14,20.48 -2.09,7.86 -3.72,14.93 -4.9,21.09l0.1 0.02c-1.38,7.27 -2.51,14.53 -3.37,21.7 -0.93,7.49 -1.6,14.76 -2.01,21.78 -0.93,11.82 -1.4,24.97 -1.37,39.19 0.01,13.51 0.48,26.68 1.44,39.09 0.99,12.86 2.46,25.35 4.4,37.2 1.75,10.82 4.13,21.97 7.1,33.28 1.31,6.11 3.09,12.46 5.24,18.98 2.11,6.4 4.42,12.35 6.9,17.75 2.7,5.9 5.65,11.36 8.78,16.37 3.17,5.1 6.76,10.03 10.72,14.74l1.68 1.89c2.35,2.39 4.49,4.43 6.38,6.09 2.11,1.83 4.36,3.65 6.72,5.4 1.99,1.46 4.39,3.06 7.21,4.77 2.4,1.44 4.96,2.8 7.57,4.04l4.06 1.96c4.5,2.13 9.08,4.29 15.94,7.19 6.05,2.61 12.24,4.95 18.62,6.74l0.12 0c3.62,1.03 7.73,2.1 12.2,3.21l0 0.11c3.78,0.92 7.91,1.86 12.33,2.77l0.11 0c4.62,0.96 8.82,1.75 12.44,2.35 3.17,0.53 7.23,1.13 12.22,1.76 4.94,0.66 9.88,1.24 14.74,1.72 5.61,0.58 10.52,1.04 14.58,1.33l14.65 0.86 14.45 0.59zm895.07 -386.38l-1.12 59.41c37.1,8.32 61.43,6.65 99.22,7.24 22.37,0.36 45.29,0.95 69,1.9 18.32,0.73 37.37,1.27 57.02,1.62 18.47,0.34 37.51,0.53 56.88,0.56 18.83,0.02 37.74,-0.08 56.66,-0.27 18.96,-0.21 37.81,-0.5 56.55,-0.84l26.5 -0.34c8.44,-0.05 17.11,0 26.06,0.19 7.66,0.15 16.13,0.49 25.7,1.07 8.01,0.46 16.39,1.16 25.17,2.14l13.73 1.56 13.47 1.73 27.78 3.96 0.02 -0.09c8.87,1.28 16.43,2.18 23.34,2.89l32.76 2.93c4.86,0.46 9.96,0.66 15.22,0.63 5.55,-0.02 10.36,-0.22 14.59,-0.56 4.21,-0.35 8.95,-0.92 14.1,-1.63l5.79 -0.87 1.6 2.35 0.12 -0.02c0.95,1.57 1.94,3.53 2.91,5.84l10.74 31.46c1.47,6.1 2.82,12.48 4.05,19.02 1.29,6.93 2.38,13.83 3.26,20.66 0.95,7.35 1.71,14.4 2.22,21.17 0.61,7.86 0.99,15.05 1.15,21.48l0 0.34c0.25,7.26 0.32,14.52 0.2,21.74 -0.09,6.04 -0.43,13.14 -1.01,21.29 -0.53,7.95 -1.22,15.01 -1.97,21.18 -0.76,6.17 -1.76,12.7 -2.95,19.46l-8.85 32.75c-0.8,2.36 -1.77,4.59 -2.86,6.71 -0.64,1.32 -1.47,2.54 -2.4,3.68l-11.59 -0.94 -0.22 -0.11 -9.14 -0.52c-4.03,-0.19 -8.37,-0.16 -12.89,-0.05 -4.96,0.14 -8.33,0.33 -11.67,0.52l-16.18 0.73 -12.98 0.27 -26.56 0.09 -22.37 -0.28c-7.58,-0.16 -15.51,-0.55 -23.05,-0.47 -22.17,-0.47 -44.36,-0.93 -67.12,-0.62 -24.09,0.34 -47.61,1.02 -71.11,1.67 -24.48,0.69 -48.96,1.39 -72.81,1.7 -23.75,0.3 -47.73,0.25 -72.03,-0.56l-84.98 -3.24 -31.49 -1.05 -26.97 -0.62c-33.42,-0.37 -60.19,0.24 -93.62,0.24l-0.73 60.36 52.85 -1.56 14.54 0.05 26.16 0.32 26.01 0.61 31.04 1.07c28.46,1.12 56.94,2.23 85.42,3.24 24.44,0.8 49.32,0.84 74.38,0.53 24.98,-0.32 49.36,-1.02 73.74,-1.7 23.6,-0.68 47.23,-1.35 70.4,-1.67 21.05,-0.3 43.05,0.16 65.03,0.62 7.79,0.29 15.7,0.34 23.52,0.49 21.59,0.25 42.89,0.34 64.48,-0.12l27.6 -1.21c2.65,-0.09 5.53,-0.08 8.7,0.05l7.5 0.54 0.01 -0.09c7.41,0.6 14.91,1.32 22.29,1.78l4.4 -0.43 2.31 -0.55c6.46,-1.56 12.43,-4.12 17.9,-7.59l0.11 -0.12c5.32,-3.41 10.08,-7.57 14.23,-12.42 3.6,-4.22 6.96,-9.32 10.08,-15.29l0.11 -0.13c2.53,-4.9 4.87,-10.61 6.97,-17.12l0.45 -1.28 9.07 -33.62 0.67 -3.02c1.34,-7.56 2.56,-15.59 3.6,-23.97 1.09,-8.9 1.92,-16.99 2.41,-24.22 0.48,-7.03 0.82,-15.25 0.97,-24.57 0.14,-8.11 0.06,-16.3 -0.23,-24.51 -0.22,-8.94 -0.61,-17.03 -1.16,-24.28l0 -0.13c-0.66,-8.47 -1.49,-16.55 -2.48,-24.19 -1.05,-8.12 -2.32,-16.12 -3.76,-23.9 -1.43,-7.71 -3.14,-15.54 -5.09,-23.51l-0.85 -3.02 -11.05 -32.32 -0.59 -1.39c-2.36,-5.94 -5.11,-11.44 -8.21,-16.45l0.09 -0.04c-3.36,-5.42 -7.22,-10.27 -11.56,-14.52 -4.72,-4.61 -9.93,-8.32 -15.54,-11.14 -5.75,-2.88 -12.05,-4.73 -18.83,-5.52l-1.61 -0.19 -5.06 -0.04 -2.33 0.43c-4.76,0.84 -8.69,1.52 -11.33,1.88l-0.11 0c-3.06,0.43 -6.53,0.82 -10.48,1.12l-0.12 0.01c-3.99,0.32 -7.44,0.51 -10.15,0.52 -2.98,0.02 -6.22,-0.14 -9.66,-0.44l-10.25 -0.88c-5.71,-0.49 -11.39,-0.99 -21.79,-2.06 -7.85,-0.8 -15.11,-1.63 -20.92,-2.48l-0.12 -0.1c-14.03,-2.01 -44.02,-7.59 -56.72,-7.46 -9.03,-1.01 -18.52,-1.78 -28.32,-2.37 -8.33,-0.49 -17.78,-0.83 -28.02,-1.03 -8.81,-0.19 -18.04,-0.23 -27.46,-0.18l-27.2 0.35c-18.78,0.34 -37.52,0.64 -56.09,0.83 -18.65,0.19 -37.38,0.29 -56.19,0.26 -18.11,-0.03 -36.66,-0.21 -55.71,-0.56 -17.92,-0.33 -36.51,-0.85 -55.87,-1.63 -22.68,-0.92 -46.28,-1.51 -70.4,-1.89l-39.65 -0.43 -59.27 -6.82z"/>
  <path class="fil2" d="M3739.89 2783.19c21.74,-128.24 -97.73,-238.75 -222.03,-226.84 -30.93,2.98 -72.98,12.19 -99.54,29.05 -22.52,14.29 -41.66,33.14 -58.46,53.7 -32.51,39.95 -57.88,77.42 -66.06,129.41 -3.78,23.78 -6.05,53.47 -1.35,77.22 5.55,27.86 19.82,60.72 37.89,82.84 30.5,37.34 71.42,63.53 117.7,76.61 145.98,41.29 268.97,-87.35 291.85,-221.99zm-292.06 253.27c-90.12,-22.5 -146.12,-81.95 -172.26,-167.1 -23.63,-77.09 -4.24,-170.22 43.98,-228.95 30.78,-46.18 73.8,-84.34 123.45,-106.07 77.61,-33.99 170.74,-21.8 240.82,23.24 71.91,46.21 99.1,129.58 92.4,211.45 -14.05,172.28 -153.01,311.18 -328.39,267.43z"/>
  <path class="fil2" d="M3436.32 4229.61c-130.04,2.52 -221.66,-131.98 -191.5,-253.15 7.53,-30.15 22.86,-70.38 43.46,-94.15 17.47,-20.15 38.95,-36.29 61.76,-49.87 44.33,-26.24 85.13,-45.79 137.76,-46.19 24.08,-0.22 53.78,1.93 76.57,10.09 26.74,9.61 57.13,28.58 76.32,49.73 32.42,35.69 52.26,80.03 58.36,127.74 19.23,150.49 -126.19,253.08 -262.73,255.8zm293.69 -251.38c-8.91,-92.46 -59.43,-156.63 -139.77,-195.09 -72.74,-34.77 -167.72,-29.37 -232.94,9.63 -50.22,23.61 -94.33,60.5 -123.16,106.39 -45.1,71.73 -46.83,165.64 -12.65,241.61 35.06,77.96 113.48,117.19 195.45,122.67 172.46,11.6 330.4,-105.28 313.07,-285.21z"/>
  <path class="fil3" d="M3491.53 2860.92c-52.18,-13.25 -74.01,-76.97 -48.69,-122.03 6.31,-11.21 16.84,-25.59 27.67,-32.82 9.18,-6.13 19.52,-10.22 30.12,-13.14 20.56,-5.61 39,-8.94 60.05,-3.34 9.63,2.56 21.25,6.67 29.45,12.42 9.62,6.77 19.67,17.67 25.02,28.22 9.02,17.8 12.09,37.67 9.29,57.38 -8.82,62.18 -78.1,87.19 -132.91,73.31zm144.79 -68.15c6.57,-37.88 -6.56,-69.03 -34.41,-93.19 -25.23,-21.85 -63.73,-30.11 -94.04,-21.69 -22.63,3.92 -44.28,13.81 -60.82,28.97 -25.86,23.69 -36.84,60.98 -31.53,95.06 5.45,34.95 32.46,59.21 64.57,70.38 67.57,23.53 143.42,-5.81 156.23,-79.53z"/>
  <path class="fil3" d="M3549.94 3995.48c-5.38,-53.57 -65.18,-84.58 -113.49,-66.21 -12.02,4.58 -27.79,12.87 -36.55,22.51 -7.42,8.17 -12.99,17.79 -17.45,27.84 -8.59,19.51 -14.61,37.25 -12.18,58.89 1.1,9.91 3.44,22.01 7.92,30.97 5.27,10.52 14.57,22.07 24.2,28.92 16.27,11.56 35.47,17.53 55.38,17.68 62.8,0.48 97.79,-64.35 92.17,-120.6zm-88.82 133.11c-38.44,0.89 -67.31,-16.7 -87.08,-47.82 -17.88,-28.18 -20.34,-67.48 -7.53,-96.21 7.22,-21.81 20.21,-41.75 37.65,-55.87 27.25,-22.07 65.76,-27.41 98.67,-17.11 33.77,10.56 53.76,40.85 60.06,74.27 13.27,70.31 -26.97,140.98 -101.77,142.74z"/>
  <path class="fil4" d="M3728.5 2815.37c-10.72,-17.52 -14.7,-37.9 -22.1,-56.94 -9.1,-23.45 -20.64,-45.84 -33.35,-67.51 -5.77,-9.85 8.11,-18.84 14.82,-9.64 24.99,34.2 58.29,84.85 56.64,128.91 -0.3,8.08 -11.15,13.06 -16.01,5.18z"/>
  <path class="fil4" d="M3469.83 4223.1c-15.74,-13.19 -35.31,-20.15 -53.04,-30.28 -21.85,-12.47 -42.29,-27.2 -61.83,-42.97 -8.89,-7.17 -19.84,5.23 -11.74,13.23 30.13,29.77 75.3,70.2 119.12,75.09 8.04,0.89 14.57,-9.1 7.49,-15.07z"/>
  <path class="fil4" d="M3636.46 2855.47c7.75,11.22 19.06,19.12 28.64,28.73 11.8,11.83 22.3,24.86 32.05,38.4 4.43,6.15 13.63,0.14 9.84,-6.41 -14.06,-24.37 -35.88,-58.21 -63.09,-69.05 -4.99,-1.98 -10.93,3.27 -7.44,8.33z"/>
  <path class="fil4" d="M3523.11 4138c9.95,9.34 16.09,21.69 24.17,32.59 9.96,13.42 21.29,25.73 33.24,37.37 5.43,5.3 -1.88,13.5 -7.8,8.79 -22.02,-17.52 -52.26,-44.1 -58.95,-72.62 -1.23,-5.23 4.84,-10.32 9.34,-6.13z"/>
  <path class="fil4" d="M3571.87 2912.56c7.13,11.63 9.77,25.17 14.68,37.82 6.05,15.57 13.72,30.45 22.16,44.84 3.83,6.54 -5.39,12.52 -9.84,6.41 -16.61,-22.72 -38.72,-56.37 -37.63,-85.64 0.2,-5.36 7.41,-8.67 10.63,-3.43z"/>
  <path class="fil4" d="M3589.12 4082.58c10.45,8.76 23.45,13.38 35.23,20.11 14.51,8.29 28.09,18.07 41.07,28.55 5.9,4.76 13.18,-3.48 7.79,-8.79 -20.01,-19.78 -50.01,-46.63 -79.12,-49.88 -5.34,-0.59 -9.67,6.04 -4.97,10.01z"/>
  <path class="fil4" d="M3452.09 3008.49c-7.12,-11.64 -9.77,-25.17 -14.68,-37.82 -6.05,-15.58 -13.71,-30.45 -22.15,-44.84 -3.83,-6.55 5.38,-12.52 9.84,-6.41 16.6,22.72 38.72,56.36 37.62,85.63 -0.2,5.37 -7.4,8.68 -10.63,3.44z"/>
  <path class="fil4" d="M3701.72 3978.31c-10.45,-8.77 -23.45,-13.39 -35.23,-20.12 -14.52,-8.28 -28.09,-18.06 -41.07,-28.54 -5.91,-4.76 -13.18,3.47 -7.8,8.79 20.02,19.78 50.02,46.63 79.13,49.87 5.33,0.6 9.67,-6.04 4.97,-10z"/>
  <path class="fil4" d="M3724.96 2855.62c-7.75,-11.22 -19.06,-19.11 -28.64,-28.72 -11.79,-11.83 -22.29,-24.85 -32.04,-38.39 -4.43,-6.15 -13.62,-0.14 -9.83,6.41 14.05,24.36 35.87,58.19 63.07,69.03 4.99,1.98 10.93,-3.27 7.44,-8.33z"/>
  <path class="fil4" d="M3510.16 4225.56c-9.95,-9.33 -16.08,-21.68 -24.17,-32.58 -9.95,-13.41 -21.27,-25.72 -33.22,-37.36 -5.43,-5.29 1.88,-13.5 7.79,-8.78 22.02,17.5 52.25,44.08 58.94,72.59 1.22,5.22 -4.85,10.32 -9.34,6.13z"/>
  <path class="fil4" d="M3548.74 3019.34c-7.13,-11.63 -9.77,-25.17 -14.68,-37.81 -6.05,-15.57 -13.71,-30.44 -22.15,-44.83 -3.83,-6.54 5.39,-12.51 9.84,-6.4 16.6,22.71 38.71,56.34 37.61,85.6 -0.2,5.37 -7.4,8.67 -10.62,3.44z"/>
  <path class="fil4" d="M3698.15 4075.49c-10.45,-8.76 -23.44,-13.38 -35.22,-20.11 -14.51,-8.28 -28.08,-18.06 -41.06,-28.53 -5.9,-4.76 -13.17,3.47 -7.79,8.78 20.01,19.78 50,46.62 79.1,49.87 5.34,0.59 9.67,-6.04 4.97,-10.01z"/>
  <path class="fil4" d="M3471.75 2930.37c7.12,11.63 9.76,25.16 14.67,37.81 6.05,15.57 13.71,30.44 22.15,44.83 3.83,6.54 -5.38,12.51 -9.84,6.4 -16.59,-22.71 -38.71,-56.34 -37.61,-85.6 0.2,-5.37 7.4,-8.68 10.63,-3.44z"/>
  <path class="fil4" d="M3621.55 3986.19c10.45,8.76 23.44,13.38 35.22,20.11 14.51,8.28 28.08,18.06 41.06,28.53 5.9,4.76 13.17,-3.47 7.79,-8.78 -20.01,-19.77 -50,-46.62 -79.1,-49.86 -5.33,-0.6 -9.67,6.04 -4.97,10z"/>
  <path class="fil0" d="M3744.2 2730.87c-11.49,-12.43 -18.81,-27.44 -28.26,-41.22 -11.64,-16.98 -24.79,-33.01 -38.6,-48.43 -6.28,-7 1.63,-14.62 8.44,-8.16 25.32,24.03 60.19,59.83 68.69,92.92 1.56,6.07 -5.07,10.49 -10.27,4.89z"/>
  <path class="fil0" d="M3383.94 4226.13c-10.6,-13.21 -24.35,-22.66 -36.59,-34.05 -15.07,-14.03 -28.98,-29.4 -42.18,-45.35 -6,-7.24 -14.7,-0.54 -9.32,7.14 20.01,28.61 50.27,68.39 81.73,81.69 5.77,2.44 11.12,-3.47 6.36,-9.43z"/>
  <path class="fil4" d="M3680.82 2930.96c-7.76,-11.22 -19.06,-19.11 -28.64,-28.72 -11.8,-11.83 -22.29,-24.85 -32.04,-38.38 -4.43,-6.16 -13.62,-0.14 -9.84,6.4 14.06,24.37 35.87,58.19 63.08,69.03 4.98,1.99 10.92,-3.26 7.44,-8.33z"/>
  <path class="fil4" d="M3591.2 4193.05c-9.94,-9.33 -16.08,-21.68 -24.16,-32.58 -9.96,-13.41 -21.28,-25.72 -33.22,-37.36 -5.43,-5.29 1.87,-13.5 7.79,-8.78 22.01,17.5 52.24,44.08 58.93,72.59 1.23,5.22 -4.84,10.32 -9.34,6.13z"/>
  <path class="fil4" d="M3622.96 2983.66c-7.12,-11.63 -9.77,-25.16 -14.68,-37.81 -6.04,-15.57 -13.7,-30.44 -22.14,-44.82 -3.83,-6.54 5.38,-12.52 9.84,-6.41 16.59,22.71 38.71,56.35 37.61,85.61 -0.2,5.36 -7.4,8.67 -10.63,3.43z"/>
  <path class="fil4" d="M3651.89 4143.62c-10.45,-8.76 -23.45,-13.38 -35.23,-20.11 -14.5,-8.28 -28.07,-18.06 -41.05,-28.53 -5.91,-4.76 -13.18,3.47 -7.79,8.78 20,19.78 49.99,46.62 79.09,49.87 5.34,0.59 9.68,-6.04 4.98,-10.01z"/>
  <path class="fil4" d="M3401.01 2937.38c7.12,11.63 9.76,25.17 14.67,37.81 6.05,15.57 13.71,30.44 22.15,44.83 3.83,6.54 -5.38,12.51 -9.84,6.4 -16.6,-22.71 -38.71,-56.34 -37.61,-85.6 0.2,-5.37 7.4,-8.67 10.63,-3.44z"/>
  <path class="fil4" d="M3638.95 3917.26c10.45,8.77 23.45,13.39 35.23,20.11 14.5,8.29 28.07,18.06 41.05,28.54 5.9,4.76 13.18,-3.47 7.79,-8.79 -20,-19.77 -49.99,-46.61 -79.09,-49.86 -5.34,-0.59 -9.68,6.04 -4.98,10z"/>
  <path class="fil0" d="M1293.77 2060.14c-58.4,-92.37 -150.56,-176.45 -224.81,-257.35 -16.67,-18.13 -42.99,-1.5 -26.82,18.71 69.54,87.17 139.65,192.52 223.64,265.88 21.31,18.62 41.47,-5.89 27.99,-27.24z"/>
  <path class="fil0" d="M1304.71 1914.73c-55.52,-62.2 -127.84,-118.33 -189.38,-172.5 -13.8,-12.15 -24.39,-0.49 -10.35,13.08 60.46,58.51 125.73,129.4 190.83,178.32 16.52,12.42 21.72,-4.53 8.9,-18.9z"/>
  <path class="fil0" d="M1313.43 854.19c-55.52,-62.2 -127.84,-118.32 -189.38,-172.5 -13.8,-12.14 -24.39,-0.49 -10.35,13.08 60.45,58.51 125.72,129.4 190.83,178.33 16.52,12.42 21.72,-4.53 8.9,-18.91z"/>
  <path class="fil0" d="M700.83 3821.41c46.56,69.16 110.59,134.59 164.2,196.61 12.03,13.91 24.11,3.8 12.04,-11.55 -51.96,-66.18 -107,-145.27 -164.87,-202.58 -14.68,-14.55 -22.13,1.54 -11.37,17.52z"/>
  <path class="fil0" d="M1461.34 3042.61c43.07,63.97 102.3,124.48 151.89,181.86 11.12,12.86 22.29,3.51 11.12,-10.69 -48.05,-61.21 -98.96,-134.37 -152.49,-187.38 -13.57,-13.45 -20.46,1.43 -10.52,16.21z"/>
  <path class="fil0" d="M2091.69 1261.43c-55.52,-62.19 -127.84,-118.32 -189.37,-172.5 -13.81,-12.14 -24.4,-0.48 -10.36,13.08 60.46,58.51 125.73,129.4 190.84,178.33 16.51,12.42 21.71,-4.53 8.89,-18.91z"/>
  <path class="fil0" d="M737.41 3748.28c53.76,63.72 124.49,121.84 184.48,177.72 13.46,12.52 24.38,1.16 10.72,-12.79 -58.8,-60.18 -122.07,-132.86 -185.79,-183.58 -16.16,-12.87 -21.83,3.92 -9.41,18.65z"/>
  <path class="fil0" d="M1495.18 2974.97c49.72,58.94 115.14,112.7 170.64,164.38 12.45,11.58 22.54,1.08 9.91,-11.83 -54.39,-55.66 -112.91,-122.89 -171.84,-169.8 -14.96,-11.91 -20.2,3.62 -8.71,17.25z"/>
  <path class="fil0" d="M1989.32 1271.64c-55.51,-62.19 -127.84,-118.32 -189.37,-172.5 -13.81,-12.14 -24.4,-0.48 -10.35,13.08 60.45,58.52 125.72,129.4 190.83,178.33 16.52,12.42 21.71,-4.53 8.89,-18.91z"/>
  <path class="fil0" d="M791.81 3655.71c43.59,75.99 105.78,149.39 157.29,218.44 11.56,15.48 24.98,5.79 13.48,-11.21 -49.46,-73.27 -101.19,-160.31 -157.52,-224.74 -14.29,-16.35 -23.31,-0.05 -13.25,17.51z"/>
  <path class="fil0" d="M1545.5 2889.34c40.32,70.29 97.84,138.18 145.48,202.05 10.69,14.32 23.11,5.35 12.47,-10.37 -45.75,-67.77 -93.6,-148.28 -145.7,-207.87 -13.21,-15.13 -21.56,-0.05 -12.25,16.19z"/>
  <path class="fil0" d="M1886.95 1281.85c-55.51,-62.19 -127.84,-118.32 -189.37,-172.5 -13.8,-12.14 -24.4,-0.48 -10.35,13.08 60.45,58.52 125.72,129.4 190.83,178.33 16.52,12.42 21.72,-4.53 8.89,-18.91z"/>
  <path class="fil0" d="M865.79 3633.46c44.36,50.85 102.38,96.94 151.68,141.36 11.06,9.95 19.74,0.61 8.5,-10.5 -48.39,-47.91 -100.56,-105.88 -152.8,-146.08 -13.26,-10.21 -17.62,3.46 -7.38,15.22z"/>
  <path class="fil0" d="M1613.93 2868.76c41.03,47.03 94.69,89.67 140.3,130.75 10.23,9.21 18.25,0.57 7.86,-9.7 -44.76,-44.32 -93.02,-97.95 -141.34,-135.13 -12.26,-9.44 -16.3,3.21 -6.82,14.08z"/>
  <path class="fil0" d="M518.55 4043.43c44.35,50.85 102.37,96.94 151.67,141.36 11.06,9.95 19.74,0.61 8.5,-10.5 -48.38,-47.91 -100.56,-105.88 -152.8,-146.08 -13.26,-10.2 -17.62,3.47 -7.37,15.22z"/>
  <path class="fil0" d="M1292.74 3247.96c41.03,47.04 94.69,89.67 140.3,130.76 10.23,9.2 18.25,0.57 7.86,-9.71 -44.76,-44.32 -93.02,-97.94 -141.34,-135.12 -12.26,-9.44 -16.3,3.2 -6.82,14.07z"/>
  <path class="fil0" d="M1784.59 1292.06c-55.52,-62.19 -127.84,-118.32 -189.38,-172.5 -13.8,-12.14 -24.39,-0.48 -10.35,13.08 60.45,58.52 125.72,129.4 190.83,178.33 16.52,12.42 21.72,-4.53 8.9,-18.91z"/>
  <path class="fil0" d="M1080.53 3704.65c-46.56,-69.16 -110.6,-134.58 -164.21,-196.61 -12.03,-13.9 -24.1,-3.79 -12.03,11.56 51.95,66.17 107,145.26 164.86,202.57 14.68,14.55 22.13,-1.54 11.38,-17.52z"/>
  <path class="fil0" d="M1849.42 4120.41c-46.56,-69.16 -110.59,-134.58 -164.21,-196.61 -12.02,-13.9 -24.1,-3.79 -12.03,11.56 51.95,66.17 107,145.26 164.86,202.57 14.68,14.55 22.13,-1.54 11.38,-17.52z"/>
  <path class="fil0" d="M1895.25 4052.01c-61.2,-90.89 -145.36,-176.88 -215.82,-258.41 -15.81,-18.27 -31.68,-4.98 -15.82,15.19 68.28,86.98 140.63,190.93 216.68,266.25 19.3,19.12 29.09,-2.02 14.96,-23.03z"/>
  <path class="fil0" d="M1954.81 3979.43c-75.83,-112.63 -180.12,-219.19 -267.43,-320.21 -19.59,-22.64 -39.26,-6.17 -19.6,18.82 84.61,107.78 174.26,236.59 268.5,329.93 23.91,23.69 36.04,-2.51 18.53,-28.54z"/>
  <path class="fil0" d="M1812.55 2934.61c-43.07,-63.97 -102.3,-124.48 -151.89,-181.86 -11.12,-12.86 -22.29,-3.5 -11.12,10.69 48.05,61.21 98.96,134.37 152.49,187.38 13.57,13.45 20.46,-1.43 10.52,-16.21z"/>
  <path class="fil0" d="M733.28 4114.62c-46.56,-69.16 -110.6,-134.58 -164.21,-196.61 -12.02,-13.9 -24.1,-3.79 -12.03,11.56 51.95,66.17 107,145.26 164.86,202.57 14.68,14.55 22.13,-1.54 11.38,-17.52z"/>
  <path class="fil0" d="M1491.36 3313.82c-43.07,-63.97 -102.3,-124.49 -151.89,-181.86 -11.12,-12.86 -22.29,-3.51 -11.12,10.69 48.05,61.21 98.96,134.36 152.49,187.37 13.57,13.46 20.46,-1.42 10.52,-16.2z"/>
  <path class="fil0" d="M1485.05 1145.85c55.52,62.2 127.84,118.33 189.38,172.51 13.8,12.14 24.39,0.48 10.35,-13.08 -60.45,-58.52 -125.72,-129.41 -190.83,-178.33 -16.52,-12.42 -21.72,4.53 -8.9,18.9z"/>
  <path class="fil0" d="M1029.84 3527.22c36.47,41.81 84.18,79.71 124.71,116.23 9.1,8.19 16.23,0.51 6.99,-8.62 -39.78,-39.4 -82.68,-87.07 -125.64,-120.12 -10.89,-8.39 -14.48,2.85 -6.06,12.51z"/>
  <path class="fil0" d="M1765.67 2770.5c33.73,38.67 77.85,73.72 115.35,107.5 8.41,7.58 15.01,0.47 6.46,-7.98 -36.8,-36.43 -76.47,-80.53 -116.21,-111.1 -10.08,-7.76 -13.4,2.64 -5.6,11.58z"/>
  <path class="fil0" d="M682.59 3937.19c36.48,41.81 84.18,79.71 124.72,116.23 9.09,8.19 16.23,0.51 6.98,-8.62 -39.78,-39.4 -82.68,-87.07 -125.63,-120.12 -10.9,-8.39 -14.49,2.85 -6.07,12.51z"/>
  <path class="fil0" d="M1444.48 3149.7c33.73,38.68 77.85,73.73 115.35,107.51 8.41,7.57 15.01,0.47 6.46,-7.98 -36.8,-36.44 -76.47,-80.53 -116.21,-111.1 -10.08,-7.76 -13.4,2.64 -5.6,11.57z"/>
  <path class="fil0" d="M1579.85 1312.48c-55.52,-62.19 -127.84,-118.32 -189.37,-172.5 -13.81,-12.14 -24.4,-0.48 -10.36,13.08 60.46,58.52 125.73,129.4 190.84,178.33 16.51,12.42 21.71,-4.53 8.89,-18.91z"/>
  <path class="fil0" d="M1282.31 1104.83c55.74,62 103.61,140.04 150.72,207.14 10.56,15.05 -2.19,24.3 -14.14,8.85 -51.53,-66.5 -114.85,-139.14 -156.34,-209.22 -10.54,-17.78 6.88,-21.09 19.76,-6.77z"/>
  <path class="fil0" d="M1108.1 1646.54c55.52,62.2 127.84,118.33 189.38,172.51 13.8,12.14 24.39,0.48 10.35,-13.09 -60.45,-58.51 -125.72,-129.4 -190.83,-178.32 -16.52,-12.42 -21.72,4.53 -8.9,18.9z"/>
  <path class="fil0" d="M1116.82 586.01c55.52,62.19 127.84,118.32 189.38,172.5 13.8,12.14 24.39,0.48 10.35,-13.08 -60.46,-58.51 -125.73,-129.4 -190.83,-178.33 -16.52,-12.42 -21.72,4.53 -8.9,18.91z"/>
  <path class="fil0" d="M1305.75 1691.19c-55.52,-62.19 -127.84,-118.32 -189.38,-172.5 -13.8,-12.14 -24.39,-0.48 -10.35,13.08 60.45,58.51 125.72,129.4 190.83,178.33 16.52,12.42 21.72,-4.53 8.9,-18.91z"/>
  <path class="fil0" d="M1314.47 630.66c-55.52,-62.2 -127.84,-118.33 -189.38,-172.51 -13.8,-12.14 -24.39,-0.48 -10.35,13.09 60.45,58.51 125.72,129.4 190.83,178.32 16.52,12.42 21.72,-4.53 8.9,-18.9z"/>
  <path class="fil0" d="M1306.27 1579.43c-55.52,-62.2 -127.84,-118.33 -189.38,-172.51 -13.8,-12.14 -24.39,-0.48 -10.35,13.08 60.45,58.52 125.72,129.41 190.83,178.33 16.52,12.42 21.72,-4.53 8.9,-18.9z"/>
  <path class="fil0" d="M1314.99 518.89c-55.52,-62.2 -127.85,-118.32 -189.38,-172.5 -13.8,-12.15 -24.39,-0.49 -10.35,13.08 60.45,58.51 125.72,129.4 190.83,178.32 16.52,12.42 21.72,-4.53 8.9,-18.9z"/>
  <path class="fil0" d="M1172.48 1305.57c55.74,62 103.6,140.04 150.71,207.14 10.56,15.05 -2.19,24.3 -14.14,8.85 -51.53,-66.5 -114.84,-139.14 -156.34,-209.22 -10.53,-17.78 6.88,-21.09 19.77,-6.77z"/>
  <path class="fil0" d="M1181.19 245.04c55.74,61.99 103.61,140.03 150.72,207.13 10.56,15.05 -2.19,24.3 -14.14,8.86 -51.53,-66.5 -114.84,-139.15 -156.34,-209.22 -10.54,-17.78 6.88,-21.09 19.76,-6.77z"/>
  <path class="fil0" d="M1307.31 1355.89c-55.52,-62.2 -127.84,-118.32 -189.38,-172.5 -13.8,-12.14 -24.39,-0.49 -10.35,13.08 60.45,58.51 125.72,129.4 190.83,178.33 16.52,12.42 21.72,-4.53 8.9,-18.91z"/>
  <path class="fil0" d="M1316.03 295.35c-55.52,-62.19 -127.85,-118.32 -189.38,-172.5 -13.8,-12.14 -24.4,-0.48 -10.35,13.08 60.45,58.52 125.72,129.4 190.83,178.33 16.52,12.42 21.72,-4.53 8.9,-18.91z"/>
  <path class="fil1" d="M771.54 4164.02c28.53,-29.46 56.06,-60.28 83.09,-91.75 27.22,-31.71 52.92,-62.9 78.59,-94.05l17.94 -21.78c12.25,-14.86 24.55,-29.81 35.85,-43.12 11.96,-14.11 24.1,-28.03 36.56,-41.52 31.91,-34.38 63.94,-68.57 96.18,-102.65 26.94,-28.37 54.93,-58.03 82.94,-87.73l1.3 1.21c13.2,12.2 26.42,24.45 40.44,37.63l21.66 20.6 21.5 20.94 25.27 25.12c23.06,23.15 46.09,46.29 69.23,69.34 19.71,19.53 40.72,39.12 62.36,58.68 20.9,18.9 42.1,37.49 63.27,56.05l30.38 26.7 30.13 26.87c17.59,15.87 35.93,33.63 54.28,51.39l19.23 18.6 19.19 18.23 23.28 21.45 11.88 10.55 24.27 20.61c2.08,1.82 4.44,4.05 7.24,6.88l5.78 6.03c5.79,6.36 11.62,12.9 17.54,19.11l4.46 3.33 1.94 1.09c6.4,3.6 13.42,6.06 21.02,7.45l0.1 0.08c6.88,1.24 14.12,1.42 21.69,0.54 6.91,-0.8 13.75,-2.41 20.51,-4.82 5.98,-2.14 12.46,-5.16 19.38,-9.05l1.37 -0.74c9.95,-6.22 28.76,-16.04 36.77,-23.24 8.26,-6.21 15.55,-11.95 21.78,-17.2 6.32,-5.32 13.3,-11.55 20.89,-18.68 6.93,-6.5 13.61,-13.08 19.98,-19.73 6.29,-6.55 12.64,-13.54 19.03,-20.93 6.58,-7.45 12.58,-14.58 17.94,-21.32 6.03,-7.57 11.67,-15.06 16.9,-22.4 5.29,-7.43 10.46,-15.15 15.48,-23.07 4.65,-7.35 9.34,-15.3 14.06,-23.77 0.7,-1.05 1.13,-1.97 1.7,-3.11l16.61 -37.38c2.56,-6.59 4.51,-13.38 5.88,-20.32 1.45,-7.41 2.02,-14.45 1.7,-21.07l-0.01 -0.19c-0.37,-7.43 -1.86,-14.61 -4.47,-21.49 -2.71,-7.14 -6.54,-13.63 -11.53,-19.44l-0.95 -1.12 -3.98 -3.79 -2.78 -1.78c-2.65,-1.71 -6.08,-4 -10.88,-7.37 -3.8,-2.65 -7.16,-5.09 -9.87,-7.24l-0.1 -0.09c-3.41,-2.68 -6.43,-5.22 -8.94,-7.52 -2.31,-2.12 -4.87,-4.74 -7.75,-7.93l-7.94 -8.77c-4.15,-4.57 -8.76,-9.7 -16.7,-18.73 -5.83,-6.63 -11.18,-12.9 -15.66,-18.44 -3.21,-2.86 -17,-20.84 -20.61,-25.24l-0.11 -0.27 -21.19 -25.03c-7.67,-8.89 -14.97,-16.93 -21.9,-24.19 -6.38,-6.68 -14.12,-14.38 -22.76,-22.74 -7.01,-6.77 -14.83,-14.09 -23.08,-21.67l-23.15 -20.93c-15.85,-14.17 -31.79,-28.53 -47.83,-43.11 -15.59,-14.16 -31.36,-28.65 -47.37,-43.55 -15.13,-14.09 -30.61,-28.76 -46.52,-44.08 -14.58,-14.05 -29.73,-28.94 -45.59,-44.89 -23.99,-24.15 -49.53,-48.86 -75.88,-73.82 -16.96,-16.06 -34.47,-32.43 -52.19,-48.9l11.23 -12.33 20.41 -22.03 20.56 -21.67 24.8 -25.6c22.87,-23.38 45.74,-46.75 68.52,-70.22 19.49,-20.18 38.69,-41.32 57.71,-62.9 18.95,-21.51 37.13,-42.81 55.31,-64.08 17.6,-20.61 35.21,-41.24 52.78,-61.21 15.96,-18.15 33.29,-36.52 50.59,-54.87 6.25,-6.41 12.37,-13.12 18.52,-19.65 16.85,-18.19 33.3,-36.24 49.53,-54.97l20.22 -24.44c1.98,-2.32 4.2,-4.76 6.74,-7.36l6.25 -5.97 -0.07 -0.08c6.21,-5.83 12.59,-11.66 18.68,-17.61l3.02 -4.05 1.31 -2.4c3.64,-6.69 6.06,-13.75 7.3,-21.08l0 -0.18c1.19,-7.17 1.32,-14.42 0.37,-21.68 -0.81,-6.32 -2.57,-13.11 -5.26,-20.36l-0.01 -0.18c-2.22,-5.94 -5.29,-12.33 -9.21,-19.12l-0.75 -1.37 -21.62 -33.62 -2.07 -2.87c-5.4,-6.98 -11.28,-14.18 -17.63,-21.53 -6.72,-7.78 -12.98,-14.71 -18.75,-20.69 -5.62,-5.83 -12.35,-12.43 -20.17,-19.74 -6.8,-6.36 -13.84,-12.6 -21.05,-18.68 -7.77,-6.7 -14.97,-12.58 -21.56,-17.7l-0.1 -0.08c-7.73,-5.99 -15.24,-11.5 -22.49,-16.52 -7.75,-5.37 -15.52,-10.45 -23.26,-15.21 -7.66,-4.7 -15.65,-9.3 -23.93,-13.77l-3.21 -1.59 -36.02 -15.48 -1.65 -0.56c-6.87,-2.57 -13.66,-4.47 -20.31,-5.68l0.02 -0.11c-7.19,-1.32 -14.29,-1.76 -21.25,-1.34 -7.56,0.46 -14.73,2.03 -21.44,4.66 -6.9,2.66 -13.31,6.61 -19.19,11.77l-1.4 1.22 -3.93 4.28 -1.45 2.32c-2.93,4.7 -5.39,8.56 -7.1,11.08l-0.09 0.1c-1.99,2.94 -4.34,6.19 -7.11,9.79l-0.09 0.1c-2.8,3.64 -5.3,6.73 -7.37,9.04 -2.29,2.56 -4.9,5.19 -7.81,7.89l-8.65 8.05c-4.82,4.47 -9.61,8.91 -18.52,16.95 -6.74,6.07 -13.02,11.6 -18.22,15.91l-0.19 0.01c-12.5,10.39 -40.33,31.64 -50.01,42.55 -7.8,6.91 -15.77,14.38 -23.82,22.28 -6.82,6.7 -14.39,14.49 -22.45,23.05 -6.93,7.36 -14.07,15.18 -21.28,23.24l-20.64 23.43c-14.17,16.23 -28.34,32.42 -42.49,48.38 -14.19,16.02 -28.53,32.05 -43.02,48.03 -13.97,15.39 -28.4,31.04 -43.37,46.99 -14.07,14.99 -28.84,30.4 -44.39,46.29 -18.24,18.6 -36.92,38.24 -55.81,58.47l-30.9 33.43 -114.21 -109.35c-15.29,-14.68 -31.3,-29.53 -47.84,-44.45 -16.1,-14.54 -32.37,-28.84 -48.72,-42.93 -16.77,-14.47 -33.2,-28.38 -49.35,-41.93 -16.82,-14.1 -33.25,-27.72 -49.53,-41.19l-24.55 -20.4 -24.32 -20.49 -24.11 -20.63 -23.84 -20.84 -12.3 -10.99 -24.16 -22.33c-9.46,-9.02 -18.78,-18.03 -28.03,-27.27l-15.29 -15.96c-4.61,-5.03 -9.11,-10.02 -13.21,-14.77 -3.89,-4.51 -7.9,-9.4 -12.04,-14.79 -3.91,-5.09 -7.51,-10.1 -10.63,-14.9l-0.1 -0.08c-2.5,-3.85 -4.91,-7.88 -7.2,-12.11l-0.39 -2.54 -0.11 -0.09 -0.43 -2.84 0.09 -0.01 -0.3 -3.21 0.04 -0.85c-0.46,-8.24 -2.1,-15.75 -4.9,-22.45 -3.47,-8.35 -8.63,-15.31 -15.43,-20.89 -6.68,-5.47 -14.45,-9.14 -23.25,-11.01 -6.88,-1.47 -14.46,-1.76 -22.69,-0.85l-4.13 0.49 -35.43 12.04 -2.26 1.2c-6.21,3.33 -13.22,7.46 -21.02,12.4 -7.51,4.7 -14.42,9.39 -20.69,14.02 -6.62,4.87 -13.23,10.08 -19.79,15.63 -6.66,5.63 -13.03,11.35 -19.05,17.14l0.05 0.06c-10.48,9.72 -21.05,20.29 -31.43,31.5 -10.35,11.17 -20.2,22.6 -29.27,34.03 -9.01,11.35 -17.52,22.99 -25.3,34.72 -7.26,10.92 -14.01,22.15 -20.08,33.5 -3.58,5.97 -7.04,12.7 -10.41,20.06 -3.07,6.69 -5.73,13.48 -7.97,20.29l-0.12 -0.04c-2.24,6.81 -4.02,13.71 -5.36,20.64 -1.31,6.86 -2.16,13.84 -2.51,20.88l-0.03 2.89c0.08,2.63 0.33,6.02 0.75,10.01 0.39,3.71 0.85,6.98 1.37,9.77 0.52,3.28 1.29,6.55 2.21,9.76 0.82,2.85 1.92,6.01 3.3,9.4l1.91 4.61 -0.09 0.1c2.05,5.11 4.1,10.21 7.82,18.49 2.94,6.68 6.31,13.41 10.44,20.19 3.01,4.93 5.6,9.06 7.77,12.35 2.32,3.53 5.1,7.57 8.24,11.98 2.67,3.75 5.57,7.66 8.66,11.67 3.29,4.3 6.27,8.07 8.9,11.23l0.09 -0.07 10.97 13.02 11.36 12.39 11.45 12.17 11.8 11.86c28.85,28.68 59.33,56.62 90.58,84.16 31.15,27.45 62.16,53.68 93.12,79.88 7.22,6.09 14.78,12.2 21.82,18.45 28.25,23.89 56.57,47.85 83.32,73.2 53.73,51.19 106.83,102.9 160.12,154.54l-143.65 154c-14.68,15.7 -29.27,31.84 -43.75,48.3 -14.5,16.5 -28.56,32.93 -42.3,49.27 -14.47,17.23 -28.16,33.81 -41.28,49.89 -14.56,17.82 -27.74,34.15 -40.64,50.16l-19.99 24.71 -20.17 24.58 -20.32 24.39 -20.53 24.11 -10.8 12.41 -11.04 12.4 -11 12.08c-8.9,9.58 -17.76,19.02 -26.89,28.38l-7.87 7.83 -8.07 7.7 0.09 0.09c-3.3,3.13 -7.77,7.21 -14.67,13.31 -5.57,4.94 -10.53,9.17 -14.43,12.25l-0.19 0.01c-5.33,4.21 -10.3,7.89 -14.73,10.86 -3.93,2.63 -7.95,5.12 -12.03,7.41l-5.58 0.87 0.01 0.1 -3.88 0.22c-8.44,0.6 -15.95,2.31 -22.5,5.15l0.04 0.11c-8.38,3.63 -15.26,8.83 -20.66,15.6 -5.48,6.87 -9.07,14.69 -10.8,23.39l0.09 0.08c-1.38,6.97 -1.58,14.53 -0.59,22.6l0.5 4.13c4.07,11.58 8.04,23.15 12.26,34.68l1.53 2.86c3.57,6.47 7.81,13.48 12.71,20.99 5.1,7.83 9.85,14.66 14.19,20.41l0.1 -0.08c5.13,6.78 10.42,13.33 15.85,19.59 5.69,6.55 11.37,12.72 17.01,18.46 9.35,9.9 20.18,20.42 32.29,31.35 11.52,10.38 23.09,20.12 34.41,28.87 11.69,9.04 23.46,17.42 35.04,24.9 10.57,6.82 21.88,13.39 33.79,19.56 6.22,3.6 12.99,6.97 20.18,10.16 7.08,3.14 13.92,5.74 20.44,7.79 7.1,2.23 14.01,3.94 20.68,5.13 6.79,1.22 13.75,1.97 20.81,2.22l2.89 0.03c3.85,-0.17 7.24,-0.42 10.1,-0.76 3.19,-0.37 6.48,-0.9 9.77,-1.57 2.77,-0.55 5.98,-1.36 9.61,-2.46 3.09,-0.92 6.21,-2.05 9.27,-3.33l4.8 -1.93c5.28,-2.2 10.65,-4.44 18.39,-8.04 6.88,-3.13 13.63,-6.61 20.07,-10.65l0.1 -0.11c3.65,-2.29 7.73,-4.97 12.11,-7.92l0.1 0.09c3.69,-2.51 7.68,-5.31 11.85,-8.36l0.09 -0.1c4.37,-3.2 8.27,-6.16 11.58,-8.78 2.87,-2.28 6.51,-5.29 10.9,-9.04 4.36,-3.71 8.66,-7.47 12.8,-11.23 4.82,-4.33 8.98,-8.16 12.37,-11.4l12.01 -11.79 11.63 -11.85zm31.39 -136.19c-25.87,30.14 -52.47,59.88 -80.43,88.75l-10.92 11.05c-5.84,5.64 -16.95,15.24 -21.96,20.88 -3.72,3.38 -7.5,6.69 -11.27,9.9l-9.11 7.4 -9.48 7.27 -9.87 6.88 0.08 0.11 -10.16 6.6c-3.91,2.4 -8.16,4.58 -12.55,6.63l-0.1 0.1c-3.44,1.6 -9.67,4.2 -15.93,6.8 -2.53,1.06 -4.81,2.06 -7.38,2.96l-3.47 0.78 -4.32 0.67 -4.05 0.39c-3,-0.18 -6.23,-0.58 -9.63,-1.19 -4.14,-0.74 -8.24,-1.74 -12.24,-3 -4.56,-1.43 -9.01,-3.09 -13.25,-4.98 -4.14,-1.83 -8.88,-4.25 -14.16,-7.26l-1.28 -0.59c-8.93,-4.58 -18.67,-10.3 -28.97,-16.95 -10.55,-6.82 -20.78,-14.07 -30.49,-21.57 -11.01,-8.52 -21.27,-17.1 -30.6,-25.51 -9.29,-8.38 -18.89,-17.82 -28.53,-27.95l-0.5 -0.44c-5.32,-5.39 -10.14,-10.58 -14.42,-15.52 -4.69,-5.39 -9.01,-10.73 -12.99,-16l0.08 -0.09c-4.78,-6.32 -8.68,-11.81 -11.67,-16.4 -2.85,-4.38 -5.82,-9.32 -8.9,-14.81l-3.78 -10.61 8.62 -1.82 6.72 -1.77 2.85 -0.87 3.15 -1.66c7.42,-3.94 14.48,-8.21 21.24,-12.72 7.25,-4.86 13.62,-9.5 19.27,-13.97l-0.07 -0.09c7.02,-5.52 12.72,-10.31 17.58,-14.61 3.53,-3.13 9.33,-8.53 16.09,-14.92l0.1 0.09 8.95 -8.71 8.58 -8.62c9.66,-9.98 19.05,-20 28.5,-30.18l11.52 -12.68 22.56 -25.62 21.05 -24.7 20.68 -24.79 20.52 -24.98 20.34 -25.11c13.99,-17.37 27.76,-34.43 40.29,-49.76 13.95,-17.09 27.54,-33.57 40.58,-49.09 13.84,-16.47 27.66,-32.63 41.42,-48.28 13.8,-15.68 27.94,-31.32 42.5,-46.9 63.11,-67.6 126.12,-135.3 189.34,-202.8 -67.27,-65.16 -138.7,-139.45 -208.81,-201.65 -27.9,-26.46 -57.09,-51.15 -86.21,-75.78 -7.32,-6.04 -14.56,-12.31 -21.82,-18.45 -31.07,-26.28 -62.15,-52.57 -91.92,-78.81 -29.67,-26.15 -59.05,-53.11 -87.79,-81.68l-10.8 -10.98c-7.16,-7.48 -13.67,-14.5 -20.57,-22.23l-9.83 -11.32 -0.02 -0.19c-5.12,-6.36 -9.61,-12.14 -14.47,-18.71l-6.8 -10 -6.49 -10.16c-2.2,-3.62 -4.35,-7.97 -6.44,-12.64l-0.1 -0.09c-1.33,-2.96 -3.97,-9.53 -6.58,-16.03l-0.12 0.05c-1.08,-2.71 -1.85,-4.77 -2.71,-7.48l-0.88 -3.48 -0.67 -4.24 -0.21 -3.77c0.21,-3.12 0.66,-6.43 1.32,-9.89 0.74,-3.85 1.81,-7.93 3.21,-12.17l-0.1 -0.09c1.38,-4.22 3.12,-8.63 5.21,-13.17 1.78,-3.91 4.28,-8.62 7.47,-14.07l0.59 -1.26c4.99,-9.42 10.81,-19.11 17.29,-28.84 6.79,-10.23 14.19,-20.35 21.97,-30.16 8.47,-10.66 17.18,-20.81 25.9,-30.23 9.08,-9.8 18.6,-19.29 28.26,-28.25l0.46 -0.31c5.39,-5.19 10.67,-9.96 15.82,-14.3 5.22,-4.42 10.63,-8.67 16.18,-12.76 5.9,-4.36 11.41,-8.15 16.46,-11.34l0.09 -0.1c4.3,-2.73 9.47,-5.71 15.41,-8.93l10.23 -3.52 0.27 1.83 -0.08 0.01 1.43 6.88 2.61 9.82 1.56 3.03c3.71,7.21 7.87,14.32 12.4,21.27 4.52,7.02 9.11,13.46 13.72,19.46 4.36,5.68 9.27,11.63 14.5,17.68 5.01,5.81 9.86,11.19 14.62,16.38l8.61 9.23c12.61,12.87 25.28,25.15 38.34,37.57l12.43 11.59 12.73 11.63 12.69 11.34 24.44 21.37 24.52 21 24.71 20.84 24.85 20.66c16.71,13.82 33.28,27.56 49.23,40.93 16.66,13.95 32.94,27.74 48.56,41.22 16.1,13.88 32.04,27.89 47.72,42.04 15.24,13.76 30.65,28.06 46.24,43.03l164.77 157.73 23.55 -25.92c17.67,-19.45 35.56,-38.97 53.95,-58.67 17.51,-18.77 35.67,-37.82 54.75,-57.28 14.7,-15.02 29.83,-30.83 45.26,-47.28 14.52,-15.47 29.32,-31.53 44.27,-48 14.52,-16 28.98,-32.16 43.37,-48.42 14.44,-16.31 28.69,-32.58 42.84,-48.78l20.11 -22.82c6.45,-7.23 13.17,-14.57 20.22,-22.05 6.03,-6.4 12.84,-13.36 20.68,-21.05 6.58,-6.46 13.63,-13.05 21.21,-19.76l11.91 -10.5 11.84 -10.14 24.75 -20.59 -0.07 -0.08c7.94,-6.58 14.52,-12.31 20.45,-17.65l27.69 -25.62c4.13,-3.8 8.23,-7.99 12.26,-12.5 4.26,-4.73 7.79,-8.98 10.76,-12.85 2.94,-3.83 6.1,-8.31 9.46,-13.24l3.72 -5.59 3.23 0.44 0.09 -0.1c2.07,0.38 4.49,1.04 7.2,1.99l35.05 15.1c6.32,3.44 12.79,7.19 19.31,11.19 6.89,4.23 13.6,8.61 20.09,13.12 7,4.84 13.58,9.65 19.72,14.4 7.16,5.55 13.58,10.75 19.17,15.57l0.3 0.26c6.38,5.38 12.61,10.91 18.65,16.56 5.07,4.73 10.86,10.5 17.36,17.25 6.35,6.58 11.85,12.6 16.51,17.98 4.67,5.42 9.46,11.27 14.3,17.5l21.05 32.75c1.39,2.49 2.55,5.04 3.51,7.61 0.63,1.55 1.04,3.19 1.28,4.86l-9.71 9.13 -0.28 0.12 -7.47 7.37c-3.25,3.3 -6.59,7.02 -9.95,10.95 -3.71,4.32 -6.14,7.33 -8.55,10.31l-11.85 14.34 -9.74 11.27 -20.38 22.67 -17.46 18.83c-5.97,6.33 -12.41,12.77 -18.16,19.25 -17.45,18.51 -34.94,37.05 -52.19,56.67 -18.26,20.76 -35.78,41.3 -53.31,61.8 -18.25,21.37 -36.51,42.76 -54.6,63.29 -18.04,20.45 -36.55,40.81 -55.94,60.9l-68.17 69.82 -25.15 26 -21.27 22.47c-26.06,28.16 -51.69,56.53 -77.43,84.98l24.74 22.94c25.18,23.35 50.43,46.79 76.34,71.35 24.37,23.09 49.05,47 74.27,72.38l0.1 0.09c14.63,14.69 30.27,30.05 46.7,45.88 15.14,14.58 30.97,29.55 47.32,44.79 15.6,14.53 31.65,29.26 47.96,44.07 15.87,14.42 31.99,28.94 48.22,43.47l22.57 20.4c6.85,6.29 14.01,13.02 21.67,20.43 6.14,5.93 12.94,12.78 20.77,20.96l0.1 0.09c7.23,7.56 13.8,14.73 19.55,21.4l20.39 24.32 0.07 -0.05 20.05 24.64c6.27,7.82 12.03,14.61 17.48,20.8l25.24 28.04c3.55,3.95 7.72,8.1 12.38,12.39 4.46,4.1 8.71,7.72 12.73,10.88 4.63,3.65 8.93,6.82 12.95,9.63l5.68 3.83 -0.41 3.23c-0.4,2.07 -1.25,4.81 -2.56,8.23l-15.47 34.75c-3.28,5.8 -6.96,11.93 -11,18.33 -4.17,6.58 -8.63,13.24 -13.39,19.91 -4.83,6.77 -9.7,13.26 -14.61,19.44 -5.49,6.89 -10.8,13.25 -15.91,19.02l-0.27 0.3c-5.24,6.07 -10.83,12.19 -16.72,18.33 -5.84,6.08 -11.68,11.87 -17.48,17.3 -5.12,4.82 -11.22,10.18 -18.2,16.06 -6.42,5.4 -12.24,10.08 -17.43,14.04l-33.3 20.81c-2.45,1.3 -4.97,2.41 -7.52,3.32 -2,0.71 -3.63,1.17 -4.88,1.38 -4.71,-5.16 -11.48,-13.33 -16.45,-17.73 -3.04,-3.08 -6.8,-6.53 -10.94,-10.17 -3.9,-3.43 -7.1,-6.08 -10.2,-8.66l-14.07 -11.96 -11.28 -10.01 -22.27 -20.56 -18.6 -17.7 -19.03 -18.42c-18.13,-17.56 -36.28,-35.13 -56.07,-52.99 -10.1,-9.11 -20.31,-18.19 -30.54,-27.22l-30.58 -26.88c-20.98,-18.4 -41.99,-36.83 -62.66,-55.51 -19.93,-18.01 -39.91,-36.68 -59.97,-56.56 -23.07,-22.99 -46.04,-46.08 -69.02,-69.16l-25.68 -25.47 -22.1 -21.48 -22.25 -21.12c-13.02,-12.24 -26.94,-25.14 -40.84,-37.99l-50.81 -47.09 -42.38 45c-28.5,30.22 -57.04,60.46 -86.86,91.88 -32.43,34.27 -64.62,68.66 -96.71,103.24 -13.19,14.28 -25.9,28.84 -38.35,43.52 -13.12,15.47 -24.83,29.7 -36.55,43.93l-17.94 21.78c-26.01,31.57 -52.02,63.14 -77.7,93.04z"/>
  <path class="fil1" d="M290.66 1329.6c40.98,1.59 82.3,1.54 123.78,0.67 41.78,-0.89 82.16,-2.55 122.48,-4.22l28.2 -1.17c19.24,-0.79 38.59,-1.6 56.04,-2.07 18.49,-0.51 36.96,-0.75 55.32,-0.48 46.9,0.84 93.74,1.88 140.64,3.15 39.1,1.14 79.87,2.2 120.68,3.24l-0.03 1.78c-0.28,17.97 -0.59,36 -1.05,55.23l-0.89 29.87 -1.25 29.99 -1.85 35.59c-1.86,32.61 -3.73,65.21 -5.45,97.83 -1.4,27.71 -1.97,56.43 -2.1,85.6 -0.13,28.18 0.17,56.37 0.46,84.53l0.39 40.44 0.1 40.37c-0.09,23.69 -1.08,49.21 -2.07,74.72l-1.02 26.73 -0.77 26.46 -0.45 31.65 0.07 15.89 0.84 31.83c0.03,2.76 -0.05,6 -0.29,9.98l-0.63 8.33c-0.87,8.56 -1.86,17.26 -2.53,25.82l0.49 5.54 0.48 2.17c1.6,7.17 4.44,14.05 8.48,20.63l0 0.13c3.67,5.95 8.37,11.47 14.08,16.52 5.2,4.61 10.97,8.63 17.27,12.05 5.59,3.03 12.16,5.85 19.67,8.4l1.47 0.53c11.28,3.26 31.14,10.71 41.84,11.88 10.14,2.01 19.28,3.6 27.34,4.75 8.19,1.15 17.48,2.19 27.86,3.09 9.47,0.82 18.83,1.41 28.03,1.72 9.07,0.31 18.52,0.38 28.29,0.21 9.94,-0.07 19.25,-0.37 27.85,-0.86 9.66,-0.57 19,-1.36 27.96,-2.37 9.06,-1.01 18.26,-2.31 27.51,-3.86 8.57,-1.44 17.63,-3.25 27.08,-5.39 1.26,-0.17 2.22,-0.47 3.46,-0.8l38.92 -12.58c6.62,-2.49 12.98,-5.57 19.06,-9.18 6.49,-3.86 12.11,-8.13 16.82,-12.79l0.14 -0.13c5.29,-5.24 9.65,-11.13 13.03,-17.67 3.5,-6.78 5.78,-13.96 6.79,-21.56l0.19 -1.45 0.17 -5.5 -0.52 -3.26c-0.5,-3.11 -1.08,-7.19 -1.78,-13.02 -0.56,-4.6 -0.98,-8.73 -1.19,-12.18l0 -0.13c-0.28,-4.34 -0.41,-8.27 -0.37,-11.68 0.04,-3.13 0.29,-6.8 0.74,-11.07l1.23 -11.76c0.64,-6.14 1.38,-13 2.81,-24.93 1.05,-8.77 2.14,-16.94 3.29,-23.97 -0.02,-4.3 4.17,-26.57 5.04,-32.19l0.13 -0.27 4.51 -32.49c1.5,-11.64 2.62,-22.44 3.4,-32.45 0.72,-9.2 1.29,-20.11 1.75,-32.12 0.37,-9.74 0.6,-20.44 0.74,-31.65l0.14 -31.21c-0.01,-21.26 0.05,-42.71 0.2,-64.39 0.15,-21.06 0.42,-42.47 0.84,-64.34 0.4,-20.67 0.99,-41.98 1.79,-64.07 0.73,-20.23 1.71,-41.45 3.01,-63.91 1.99,-33.98 3.34,-69.49 4.35,-105.77 0.65,-23.35 1.16,-47.31 1.61,-71.5l16.67 0.14 30.02 0.5 29.87 0.86 35.61 1.39c32.67,1.43 65.34,2.87 98.02,4.18 28.04,1.05 56.6,1.24 85.36,1.01 28.66,-0.23 56.66,-0.9 84.64,-1.55 27.09,-0.65 54.2,-1.29 80.81,-1.54 24.16,-0.22 49.41,0.43 74.62,1.07 8.95,0.38 18.03,0.47 26.99,0.69 24.79,0.41 49.21,0.62 74,0.21l31.69 -1.25c3.05,-0.07 6.35,-0.05 9.98,0.11l8.62 0.67 0 -0.1c8.5,0.73 17.1,1.6 25.59,2.16l5.04 -0.45 2.65 -0.63c7.42,-1.76 14.29,-4.66 20.58,-8.62l0.13 -0.13c6.14,-3.89 11.62,-8.63 16.4,-14.18 4.16,-4.83 8.05,-10.67 11.65,-17.51l0.13 -0.13c2.94,-5.61 5.65,-12.16 8.09,-19.62l0.53 -1.47 10.61 -38.53 0.76 -3.46c1.6,-8.68 3.03,-17.87 4.27,-27.49 1.31,-10.21 2.29,-19.49 2.9,-27.78 0.59,-8.07 1.01,-17.49 1.24,-28.19 0.2,-9.31 0.16,-18.72 -0.12,-28.14 -0.21,-10.26 -0.62,-19.55 -1.21,-27.87l-0.01 -0.13c-0.7,-9.76 -1.6,-19.03 -2.7,-27.78 -1.17,-9.35 -2.57,-18.53 -4.19,-27.47 -1.61,-8.84 -3.52,-17.86 -5.71,-27.01l-0.96 -3.46 -12.5 -37.15 -0.68 -1.6c-2.68,-6.84 -5.79,-13.17 -9.33,-18.92l0.1 -0.06c-3.81,-6.24 -8.22,-11.82 -13.18,-16.73 -5.39,-5.31 -11.34,-9.61 -17.78,-12.85 -6.58,-3.37 -13.81,-5.5 -21.57,-6.45l-1.85 -0.22 -5.8 -0.08 -2.69 0.48c-5.46,0.94 -9.99,1.69 -13,2.1l-0.14 0c-3.51,0.47 -7.5,0.9 -12.03,1.24l-0.14 0c-4.58,0.34 -8.55,0.54 -11.65,0.54 -3.43,0 -7.13,-0.19 -11.09,-0.55l-11.76 -1.08c-6.55,-0.6 -13.05,-1.21 -24.99,-2.48 -9.01,-0.97 -17.32,-1.95 -24,-2.96l-0.14 -0.13c-16.08,-2.38 -50.47,-8.93 -65.06,-8.86 -10.34,-1.2 -21.23,-2.15 -32.49,-2.87 -9.54,-0.61 -20.39,-1.05 -32.15,-1.34 -10.1,-0.26 -20.69,-0.36 -31.51,-0.35l-31.22 0.26c-21.54,0.28 -43.06,0.52 -64.38,0.63 -21.4,0.12 -42.91,0.14 -64.48,0.01 -20.79,-0.13 -42.07,-0.44 -63.94,-0.95 -20.56,-0.48 -41.89,-1.2 -64.1,-2.18 -26.03,-1.18 -53.11,-1.98 -80.79,-2.55l-45.51 -0.71 5.24 -158.04c0.73,-21.17 1.11,-43.01 1.19,-65.28 0.08,-21.7 -0.13,-43.36 -0.54,-64.94 -0.41,-22.14 -1.01,-43.66 -1.7,-64.74 -0.71,-21.93 -1.54,-43.25 -2.37,-64.37l-1.19 -31.9 -0.96 -31.78 -0.72 -31.73 -0.39 -31.66 -0.01 -16.49 0.51 -32.9c0.4,-13.06 0.9,-26.02 1.6,-39.07l1.69 -22.04c0.67,-6.79 1.38,-13.48 2.19,-19.69 0.76,-5.91 1.72,-12.16 2.98,-18.84 1.18,-6.31 2.51,-12.33 4,-17.86l0 -0.13c1.19,-4.43 2.59,-8.91 4.21,-13.44l1.63 -1.99 0 -0.14 1.83 -2.21 0.06 0.05 2.2 -2.36 0.66 -0.54c5.83,-5.84 10.33,-12.08 13.45,-18.63 3.9,-8.15 5.64,-16.64 5.26,-25.43 -0.38,-8.62 -2.83,-16.85 -7.31,-24.66 -3.5,-6.11 -8.34,-11.95 -14.5,-17.47l-3.13 -2.75 -32.6 -18.35 -2.41 -0.88c-6.62,-2.41 -14.38,-4.88 -23.26,-7.39 -8.52,-2.46 -16.62,-4.47 -24.25,-6.06 -8.04,-1.68 -16.34,-3.12 -24.85,-4.31 -8.63,-1.2 -17.14,-2.13 -25.47,-2.75l-0.01 0.08c-14.24,-1.32 -29.16,-2.14 -44.43,-2.39 -15.24,-0.26 -30.32,0.03 -44.88,0.9 -14.47,0.87 -28.82,2.29 -42.75,4.32 -12.98,1.88 -25.84,4.34 -38.34,7.4 -6.85,1.31 -14.16,3.23 -21.89,5.63 -7.04,2.18 -13.87,4.72 -20.43,7.6l-0.05 -0.11c-6.57,2.87 -12.9,6.15 -18.95,9.78 -5.99,3.6 -11.75,7.63 -17.23,12.06l-2.17 1.9c-1.91,1.82 -4.27,4.27 -6.96,7.24 -2.5,2.77 -4.63,5.29 -6.37,7.54 -2.09,2.58 -4.01,5.33 -5.79,8.16 -1.58,2.51 -3.19,5.44 -4.8,8.73l-2.16 4.5 -0.13 0c-2.44,4.93 -4.87,9.86 -8.56,18.16 -3.01,6.65 -5.78,13.65 -8.07,21.25 -1.66,5.53 -3.01,10.21 -4.01,14.03 -1.08,4.08 -2.24,8.84 -3.43,14.13 -1.01,4.49 -1.99,9.26 -2.91,14.24 -1.01,5.32 -1.83,10.05 -2.42,14.12l0.1 0.01 -2.37 16.86 -1.65 16.73 -1.42 16.65 -0.97 16.71c-2.1,40.62 -2.58,81.97 -2.24,123.62 0.34,41.51 1.49,82.11 2.64,122.66 0.27,9.44 0.77,19.14 0.82,28.56 1.05,36.98 2.1,74.06 1.07,110.9 -2.29,74.18 -5.37,148.23 -8.27,222.38l-210.56 -4.24c-21.49,-0.46 -43.25,-0.55 -65.17,-0.35 -21.96,0.2 -43.59,0.69 -64.92,1.36 -22.49,0.72 -43.97,1.59 -64.7,2.54 -23,1.05 -43.96,2.13 -64.48,3.2l-31.74 1.6 -31.77 1.38 -31.73 1.13 -31.65 0.8 -16.45 0.24 -16.61 0.05 -16.33 -0.13c-13.08,-0.23 -26.02,-0.54 -39.09,-1.09l-11.08 -0.64 -11.12 -0.87 0 0.13c-4.53,-0.38 -10.56,-0.99 -19.71,-2.05 -7.39,-0.85 -13.85,-1.73 -18.75,-2.58l-0.13 -0.13c-6.7,-1.16 -12.75,-2.41 -17.92,-3.72 -4.58,-1.18 -9.12,-2.51 -13.55,-4.03l-4.37 -3.57 -0.06 0.08 -2.76 -2.75c-6.07,-5.89 -12.36,-10.34 -18.85,-13.33l-0.05 0.11c-8.29,-3.82 -16.77,-5.47 -25.41,-4.98 -8.77,0.51 -16.99,3.05 -24.62,7.56l0 0.13c-6.12,3.62 -11.89,8.51 -17.23,14.63l-2.74 3.14c-5.92,10.75 -11.89,21.43 -17.65,32.26l-1.12 3.06c-2.43,6.97 -4.82,14.81 -7.15,23.47 -2.43,9.02 -4.35,17.11 -5.73,24.18l0.12 0.03c-1.62,8.34 -2.97,16.65 -4.01,24.87 -1.09,8.61 -1.89,16.96 -2.4,24.99 -1.14,13.57 -1.75,28.65 -1.8,44.97 -0.05,15.5 0.42,30.62 1.45,44.89 1.07,14.74 2.68,29.1 4.84,42.71 1.96,12.43 4.62,25.23 7.97,38.22 1.47,7.04 3.48,14.33 5.9,21.82 2.39,7.37 5.01,14.19 7.83,20.41 3.08,6.79 6.42,13.07 9.98,18.84 3.63,5.87 7.71,11.54 12.23,16.98l1.91 2.16c2.69,2.76 5.15,5.12 7.31,7.03 2.4,2.12 4.99,4.22 7.68,6.22 2.27,1.7 5.01,3.55 8.25,5.52 2.75,1.68 5.67,3.25 8.66,4.69l4.65 2.28c5.16,2.46 10.4,4.97 18.25,8.33 6.93,3.03 14.02,5.74 21.33,7.85l0.14 -0.01c4.15,1.2 8.86,2.45 13.99,3.74l0 0.13c4.33,1.08 9.07,2.18 14.13,3.26l0.14 0c5.3,1.11 10.1,2.04 14.26,2.76 3.62,0.62 8.29,1.32 14.01,2.09 5.67,0.77 11.34,1.46 16.9,2.04 6.45,0.7 12.07,1.25 16.74,1.6l16.81 1.09 16.58 0.75zm122.38 -67.49c-39.71,0.84 -79.61,0.87 -119.77,-0.69l-15.51 -0.76c-8.1,-0.59 -22.67,-2.46 -30.21,-2.42 -5,-0.52 -9.99,-1.13 -14.89,-1.8l-11.59 -1.84 -11.75 -2.22 -11.71 -2.75 -0.03 0.13 -11.69 -3.16c-4.39,-1.32 -8.86,-3.02 -13.31,-4.93l-0.14 0c-3.49,-1.5 -9.58,-4.41 -15.69,-7.33 -2.48,-1.19 -4.75,-2.21 -7.13,-3.53l-2.9 -2.06 -3.38 -2.77 -3 -2.76c-1.86,-2.36 -3.72,-5.03 -5.54,-7.97 -2.2,-3.58 -4.19,-7.29 -5.93,-11.11 -1.97,-4.35 -3.7,-8.78 -5.13,-13.2 -1.39,-4.3 -2.75,-9.44 -4.04,-15.39l-0.41 -1.34c-2.55,-9.71 -4.79,-20.78 -6.7,-32.89 -1.97,-12.41 -3.39,-24.87 -4.28,-37.1 -1.01,-13.89 -1.47,-27.26 -1.42,-39.82 0.04,-12.51 0.66,-25.96 1.77,-39.89l0 -0.67c0.47,-7.57 1.12,-14.62 1.94,-21.1 0.88,-7.08 1.98,-13.87 3.24,-20.35l0.13 0c1.52,-7.78 3.01,-14.34 4.43,-19.64 1.36,-5.04 3.06,-10.55 5.09,-16.5l5.38 -9.9 7.1 5.2 5.81 3.83 2.56 1.54 3.33 1.24c7.88,2.89 15.78,5.31 23.64,7.33 8.46,2.16 16.17,3.81 23.27,5.03l0.01 -0.11c8.81,1.54 16.18,2.6 22.62,3.34 4.69,0.55 12.58,1.26 21.85,2.04l0 0.13 12.46 0.86 12.15 0.64c13.87,0.53 27.6,0.84 41.49,1.08l17.13 0.12 34.14 -0.29 32.44 -0.8 32.26 -1.14 32.31 -1.38 32.27 -1.6c22.27,-1.17 44.17,-2.3 63.94,-3.2 22.04,-1.01 43.38,-1.88 63.65,-2.53 21.5,-0.68 42.75,-1.17 63.59,-1.36 20.88,-0.18 41.98,-0.09 63.29,0.36 92.46,1.9 184.93,3.66 277.39,5.72 3.65,-93.59 11.33,-196.36 10.87,-290.09 1.09,-38.44 0,-76.65 -1.08,-114.77 -0.38,-9.49 -0.54,-19.06 -0.82,-28.57 -1.16,-40.68 -2.31,-81.37 -2.63,-121.05 -0.32,-39.55 0.17,-79.42 2.27,-119.89l0.96 -15.36c0.79,-10.33 1.69,-19.87 2.83,-30.16l1.88 -14.88 0.13 -0.14c1.32,-8.05 2.63,-15.26 4.28,-23.26l2.91 -11.74 3.24 -11.61c1.22,-4.06 3.04,-8.56 5.11,-13.24l0 -0.12c1.32,-2.98 4.45,-9.32 7.55,-15.6l-0.11 -0.06c1.29,-2.62 2.31,-4.56 3.76,-7.01l2 -2.98 2.72 -3.32 2.67 -2.68c2.46,-1.92 5.23,-3.8 8.24,-5.61 3.36,-2.02 7.11,-3.94 11.21,-5.73l0 -0.14c4.07,-1.78 8.5,-3.43 13.28,-4.91 4.1,-1.27 9.28,-2.56 15.47,-3.82l1.33 -0.4c10.35,-2.57 21.45,-4.69 33.02,-6.37 12.15,-1.76 24.62,-3 37.12,-3.75 13.6,-0.81 26.97,-1.09 39.8,-0.88 13.36,0.23 26.77,0.98 39.9,2.2l0.54 0.13c7.46,0.55 14.54,1.31 21.2,2.24 6.78,0.94 13.55,2.13 20.3,3.54 7.19,1.49 13.69,3.07 19.44,4.7l0.13 0c4.9,1.38 10.57,3.23 16.93,5.52l9.45 5.27 -1.18 1.42 -0.07 -0.06 -4.17 5.66 -5.57 8.5 -1.22 3.18c-2.89,7.57 -5.4,15.42 -7.56,23.43 -2.22,8.05 -3.95,15.76 -5.34,23.2 -1.33,7.04 -2.48,14.67 -3.5,22.59 -0.98,7.61 -1.75,14.82 -2.44,21.83l-1.13 12.57c-1.17,17.98 -1.87,35.61 -2.4,53.62l-0.34 16.99 -0.17 17.25 0.02 17.02 0.39 32.47 0.72 32.26 0.97 32.32 1.19 32.29c0.86,21.67 1.68,43.18 2.36,63.98 0.72,21.72 1.32,43.04 1.7,63.67 0.41,21.25 0.61,42.48 0.53,63.6 -0.08,20.53 -0.45,41.55 -1.2,63.15l-7.54 227.97 35.02 0.25c26.27,0.18 52.76,0.48 79.7,1.03 25.66,0.52 51.97,1.33 79.19,2.56 21,0.93 42.87,1.65 65.42,2.17 21.21,0.49 43.04,0.79 65.28,0.95 21.61,0.13 43.3,0.12 65.02,-0.01 21.77,-0.12 43.41,-0.37 64.92,-0.64l30.41 -0.25c9.68,-0.02 19.63,0.09 29.91,0.35 8.79,0.22 18.52,0.65 29.48,1.36 9.2,0.59 18.81,1.44 28.87,2.61l15.76 1.87 15.46 2.06 31.85 4.68 0.01 -0.1c10.2,1.52 18.86,2.61 26.8,3.45l37.55 3.54c5.59,0.53 11.45,0.8 17.49,0.79 6.37,0.01 11.9,-0.19 16.75,-0.56 4.82,-0.37 10.26,-1 16.18,-1.8l6.65 -0.95 1.83 2.7 0.13 0c1.1,1.8 2.22,4.04 3.32,6.69l12.14 36.18c1.66,7.01 3.17,14.32 4.54,21.85 1.45,7.96 2.67,15.88 3.64,23.72 1.06,8.44 1.88,16.55 2.43,24.3 0.65,9.03 1.06,17.28 1.2,24.66l0 0.4c0.25,8.34 0.29,16.67 0.11,24.94 -0.14,6.93 -0.57,15.09 -1.26,24.44 -0.67,9.12 -1.48,17.23 -2.38,24.3 -0.91,7.09 -2.08,14.56 -3.49,22.32l-10.34 37.53c-0.94,2.7 -2.06,5.27 -3.33,7.7 -0.74,1.5 -1.68,2.9 -2.77,4.19l-13.29 -1.14 -0.26 -0.13 -10.48 -0.64c-4.63,-0.22 -9.62,-0.23 -14.8,-0.11 -5.69,0.13 -9.55,0.32 -13.38,0.51l-18.58 0.75 -14.9 0.26 -30.49 -0.05 -25.67 -0.44c-8.7,-0.23 -17.79,-0.72 -26.45,-0.68 -25.44,-0.66 -50.91,-1.31 -77.04,-1.07 -27.64,0.26 -54.63,0.91 -81.6,1.54 -28.1,0.66 -56.21,1.33 -83.57,1.55 -27.28,0.21 -54.79,0.02 -82.69,-1.03l-97.49 -4.18 -36.14 -1.39 -30.94 -0.85c-38.36,-0.62 -76.59,-0.79 -114.96,-0.96l-0.58 33.73c-0.58,34.33 -1.2,68.78 -2.2,104.46 -0.94,33.56 -2.28,67.9 -4.36,103.62l0.01 0.14c-1.19,20.69 -2.19,42.59 -3.02,65.39 -0.76,21 -1.35,42.78 -1.78,65.13 -0.42,21.32 -0.68,43.1 -0.84,65.13 -0.14,21.44 -0.2,43.14 -0.19,64.92l-0.14 30.42c-0.11,9.3 -0.35,19.13 -0.76,29.77 -0.32,8.53 -0.88,18.17 -1.75,29.46l0 0.13c-0.8,10.43 -1.77,20.12 -2.9,28.84l-4.51 31.42 0.08 0.02 -4.97 31.37c-1.63,9.89 -2.85,18.71 -3.83,26.9l-4.04 37.51c-0.57,5.28 -0.88,11.16 -0.97,17.49 -0.08,6.06 0.07,11.64 0.39,16.75 0.37,5.88 0.88,11.2 1.47,16.06l0.94 6.79 -2.68 1.85c-1.81,1.08 -4.42,2.28 -7.84,3.58l-36.2 11.66c-6.51,1.43 -13.53,2.79 -20.99,4.04 -7.69,1.29 -15.63,2.41 -23.77,3.31 -8.27,0.93 -16.35,1.62 -24.23,2.09 -8.79,0.51 -17.08,0.8 -24.78,0.85l-0.4 0c-8.02,0.14 -16.31,0.06 -24.81,-0.23 -8.43,-0.29 -16.64,-0.78 -24.56,-1.47 -7,-0.6 -15.06,-1.57 -24.1,-2.84 -8.31,-1.18 -15.68,-2.39 -22.09,-3.62l-37.72 -10.92c-2.6,-0.96 -5.1,-2.09 -7.49,-3.38 -1.86,-1.01 -3.3,-1.93 -4.28,-2.71 0.7,-6.96 2.26,-17.45 2.23,-24.09 0.27,-4.32 0.33,-9.42 0.27,-14.93 -0.05,-5.2 -0.2,-9.34 -0.35,-13.38l-0.49 -18.46 -0.06 -15.08 0.45 -30.31 0.78 -25.66 1.02 -26.46c0.98,-25.22 1.95,-50.46 2.05,-77.13 0.05,-13.59 0,-27.26 -0.1,-40.9l-0.38 -40.72c-0.29,-27.9 -0.59,-55.85 -0.47,-83.71 0.12,-26.86 0.69,-54.2 2.12,-82.41 1.73,-32.52 3.6,-65.03 5.45,-97.55l1.85 -36.12 1.25 -30.8 0.88 -30.67c0.43,-17.86 0.75,-36.83 1.05,-55.76l1.17 -69.27 -61.8 -1.54c-41.52,-1.06 -83.09,-2.14 -126.39,-3.39 -47.16,-1.28 -94.26,-2.31 -141.43,-3.14 -19.43,-0.3 -38.76,-0.05 -58,0.48 -20.27,0.54 -38.69,1.32 -57.11,2.08l-28.19 1.17c-40.88,1.69 -81.74,3.38 -121.15,4.21z"/>
  <rect class="fil5" x="1.18" y="-2.72" width="4343.4" height="4343.58"/>
 </g>
</svg>
