<?xml version="1.0" encoding="UTF-8"?>
<!DOCTYPE svg PUBLIC "-//W3C//DTD SVG 1.1//EN" "http://www.w3.org/Graphics/SVG/1.1/DTD/svg11.dtd">
<!-- Creator: CorelDRAW 2018 (64-Bit) -->
<svg xmlns="http://www.w3.org/2000/svg" xml:space="preserve" width="43.4338mm" height="43.4338mm" version="1.1" style="shape-rendering:geometricPrecision; text-rendering:geometricPrecision; image-rendering:optimizeQuality; fill-rule:evenodd; clip-rule:evenodd"
viewBox="0 0 4343.38 4343.38"
 xmlns:xlink="http://www.w3.org/1999/xlink">
 <defs>
  <style type="text/css">
   <![CDATA[
    .str0 {stroke:#2B2A29;stroke-width:84.66;stroke-miterlimit:22.9256}
    .fil6 {fill:none}
    .fil3 {fill:#2B2A29}
    .fil2 {fill:#1D1D1B}
    .fil1 {fill:#FEFEFE;fill-rule:nonzero}
    .fil0 {fill:#434242;fill-rule:nonzero}
    .fil5 {fill:#2B2A29;fill-rule:nonzero}
    .fil4 {fill:black;fill-rule:nonzero}
   ]]>
  </style>
 </defs>
 <g id="Слой_x0020_1">
  <metadata id="CorelCorpID_0Corel-Layer"/>
  <path class="fil0" d="M3560.02 2156.36c-7.13,0.74 -14.27,1.02 -21.45,1.44 -7.12,0.41 -14.23,0.94 -21.3,1.64 -15.76,1.54 -31.53,3.09 -47.29,4.58 -30.37,2.86 -60.81,5.45 -91.31,7.58 -27.97,1.95 -55.99,3.7 -84.02,5.16 -7.26,0.38 -14.52,0.73 -21.78,1.07 -27.81,1.29 -55.62,2.56 -83.43,3.63 -65.05,2.51 -130.09,4.99 -195.14,6.89 -63.55,1.85 -127.11,3.58 -190.65,4.98 -31.22,0.68 -62.46,1.43 -93.69,2.02 -33.75,0.63 -67.53,1.41 -101.28,1.9 -69.66,1.01 -139.31,2.01 -208.97,3 -60.46,0.86 -120.78,0.54 -180.92,-0.67 -38.85,-0.77 -77.6,-2.03 -116.23,-3.59 -0.03,0 -0.02,-0.03 0,-0.03 43.98,-3.66 88.04,-6.69 132.2,-9.15 28.9,-1.61 57.76,-2.84 86.69,-3.77 18.68,-0.59 37.34,-1.07 56,-1.39 11.45,-0.21 22.91,-0.2 34.35,-0.27 30.66,-0.17 61.31,-0.33 91.97,-0.53 35.06,-0.22 70.11,-0.3 105.19,-0.69 36.18,-0.39 72.35,-0.78 108.53,-1.17 32.49,-0.35 65.02,-0.96 97.53,-1.45 31.72,-0.48 63.45,-1.24 95.19,-1.89 31.99,-0.66 63.98,-1.56 95.97,-2.4 32.55,-0.85 65.12,-2.08 97.67,-3.17 59.46,-1.97 118.9,-4.7 178.33,-7.59 33.04,-1.61 66.12,-2.75 99.18,-3.92 32.6,-1.15 65.21,-2.1 97.79,-2.83 13.25,-0.3 26.56,-0.71 39.8,-0.75 6.41,-0.02 12.81,0.03 19.14,0.35 5.62,0.28 11.16,0.79 16.81,1l0 0c1.71,0.02 3.39,0.02 5.11,-0.01 0.03,0 0.03,0.03 0.01,0.03z"/>
  <path class="fil0" d="M3575.54 2194.39c-7.13,0.74 -14.27,1.03 -21.45,1.44 -7.11,0.41 -14.23,0.94 -21.3,1.64 -15.76,1.54 -31.52,3.09 -47.29,4.58 -30.37,2.86 -60.8,5.45 -91.31,7.58 -27.97,1.96 -55.99,3.71 -84.02,5.16 -7.26,0.38 -14.52,0.73 -21.78,1.07 -27.8,1.29 -55.62,2.56 -83.43,3.63 -65.05,2.51 -130.09,4.99 -195.14,6.89 -63.55,1.85 -127.11,3.58 -190.65,4.98 -31.22,0.68 -62.46,1.43 -93.69,2.02 -33.75,0.63 -67.53,1.41 -101.28,1.9 -69.66,1.01 -139.31,2.01 -208.97,3 -60.46,0.86 -120.78,0.54 -180.92,-0.67 -38.85,-0.77 -77.6,-2.03 -116.23,-3.59 -0.03,0 -0.02,-0.03 0,-0.03 43.98,-3.66 88.04,-6.69 132.2,-9.15 28.9,-1.61 57.76,-2.84 86.69,-3.77 18.68,-0.59 37.34,-1.07 56,-1.39 11.46,-0.21 22.91,-0.2 34.35,-0.27 30.66,-0.17 61.31,-0.33 91.98,-0.53 35.06,-0.22 70.1,-0.3 105.18,-0.68 36.18,-0.4 72.36,-0.79 108.53,-1.18 32.49,-0.35 65.02,-0.96 97.53,-1.45 31.72,-0.48 63.46,-1.24 95.19,-1.89 31.99,-0.66 63.98,-1.56 95.97,-2.4 32.55,-0.85 65.12,-2.08 97.68,-3.17 59.45,-1.97 118.89,-4.7 178.32,-7.59 33.05,-1.61 66.12,-2.75 99.18,-3.92 32.6,-1.15 65.22,-2.1 97.8,-2.83 13.25,-0.3 26.55,-0.71 39.79,-0.75 6.42,-0.02 12.81,0.03 19.14,0.35 5.62,0.28 11.16,0.79 16.81,1l0 0c1.71,0.02 3.39,0.02 5.11,-0.01 0.03,0 0.04,0.03 0.01,0.03z"/>
  <path class="fil0" d="M3590.45 2264.36c-7.13,0.74 -14.26,1.02 -21.44,1.44 -7.12,0.41 -14.24,0.94 -21.31,1.63 -15.76,1.54 -31.52,3.09 -47.29,4.58 -30.37,2.86 -60.8,5.46 -91.3,7.59 -27.98,1.95 -55.99,3.7 -84.03,5.15 -7.25,0.38 -14.52,0.74 -21.78,1.07 -27.8,1.29 -55.61,2.56 -83.43,3.63 -65.05,2.51 -130.09,4.99 -195.14,6.89 -63.55,1.85 -127.1,3.58 -190.65,4.98 -31.22,0.69 -62.46,1.43 -93.69,2.02 -33.75,0.64 -67.53,1.41 -101.28,1.9 -69.65,1.01 -139.31,2.01 -208.96,3 -60.46,0.86 -120.79,0.55 -180.93,-0.66 -38.85,-0.78 -77.6,-2.04 -116.23,-3.6 -0.03,0 -0.02,-0.02 0.01,-0.02 43.98,-3.67 88.03,-6.7 132.2,-9.16 28.89,-1.61 57.75,-2.84 86.69,-3.76 18.67,-0.6 37.33,-1.07 56,-1.4 11.45,-0.2 22.9,-0.2 34.35,-0.26 30.65,-0.18 61.31,-0.33 91.97,-0.53 35.06,-0.23 70.11,-0.31 105.19,-0.69 36.17,-0.39 72.35,-0.78 108.53,-1.18 32.49,-0.35 65.01,-0.96 97.52,-1.45 31.73,-0.48 63.46,-1.23 95.2,-1.88 31.98,-0.66 63.98,-1.57 95.96,-2.4 32.55,-0.86 65.13,-2.09 97.68,-3.17 59.46,-1.98 118.9,-4.7 178.32,-7.59 33.05,-1.61 66.12,-2.75 99.19,-3.92 32.59,-1.15 65.21,-2.11 97.79,-2.84 13.25,-0.3 26.55,-0.7 39.79,-0.74 6.42,-0.02 12.81,0.02 19.14,0.34 5.63,0.29 11.16,0.79 16.81,1l0 0c1.71,0.02 3.4,0.02 5.12,0 0.03,0 0.03,0.02 0,0.03z"/>
  <path class="fil0" d="M3591.05 2232.42c-8.49,0.7 -16.99,0.94 -25.55,1.32 -8.48,0.37 -16.96,0.85 -25.38,1.51 -18.78,1.45 -37.56,2.91 -56.35,4.3 -36.19,2.69 -72.45,5.1 -108.79,7.05 -33.34,1.79 -66.72,3.38 -100.13,4.67 -8.64,0.33 -17.3,0.65 -25.95,0.94 -33.13,1.13 -66.28,2.23 -99.42,3.14 -77.52,2.13 -155.03,4.23 -232.55,5.75 -75.74,1.48 -151.48,2.84 -227.21,3.87 -37.21,0.5 -74.44,1.06 -111.65,1.47 -40.23,0.44 -80.48,1.01 -120.71,1.31 -83.01,0.59 -166.03,1.19 -249.04,1.77 -72.06,0.51 -143.95,-0.16 -215.64,-1.72 -46.3,-1.01 -92.49,-2.49 -138.53,-4.28 -0.04,0 -0.03,-0.02 0,-0.02 52.4,-3.41 104.9,-6.18 157.53,-8.38 34.43,-1.45 68.82,-2.51 103.3,-3.26 22.26,-0.49 44.5,-0.85 66.74,-1.07 13.65,-0.14 27.3,-0.07 40.94,-0.07 36.53,0.01 73.07,0.03 109.61,0.01 41.79,-0.02 83.56,0.11 125.37,-0.07 43.11,-0.18 86.23,-0.36 129.34,-0.54 38.73,-0.16 77.49,-0.58 116.23,-0.88 37.81,-0.29 75.63,-0.86 113.45,-1.33 38.12,-0.47 76.25,-1.19 114.37,-1.84 38.79,-0.66 77.61,-1.7 116.4,-2.59 70.86,-1.63 141.69,-4.01 212.51,-6.55 39.38,-1.42 78.79,-2.37 118.2,-3.34 38.84,-0.96 77.71,-1.72 116.54,-2.26 15.79,-0.23 31.64,-0.55 47.42,-0.52 7.65,0.02 15.27,0.1 22.82,0.46 6.7,0.32 13.3,0.86 20.04,1.1l-0.01 0c2.04,0.03 4.05,0.04 6.1,0.02 0.04,0 0.04,0.03 0,0.03z"/>
  <path class="fil1 str0" d="M926.18 2368.87c18.3,-3.64 37,-6.11 55.76,-7.87 18.83,-1.76 37.63,-2.83 56.19,-3.68 10.39,-0.46 20.94,-0.82 31.61,-1.09 10.38,-0.26 20.94,-0.45 31.63,-0.59 15,-0.19 30.09,-0.3 45.27,-0.33 14.99,-0.03 30.08,0.03 45.27,0.18 28.72,0.29 57.5,0.75 86.32,1.34 28.74,0.6 57.51,1.32 86.27,2.11 57.58,1.58 115.14,3.09 172.74,4.03 57.48,0.93 115.01,1.3 172.66,0.6 52.06,-0.65 104.14,-1.22 156.21,-1.79 67.39,-0.74 134.79,-1.48 202.18,-2.38 56.63,-0.76 113.26,-1.52 169.89,-2.13 56.53,-0.62 113.16,-1.08 169.97,-1.25l44.07 -0.13c98.62,-0.26 197.2,-0.52 296.04,-2.98 57.91,-1.42 115.98,-2.11 174.15,-2.34 57.96,-0.24 116.05,-0.03 174.18,0.35 27.45,0.18 54.97,0.27 82.62,-0.12 27.49,-0.39 54.97,-1.27 82.36,-3 14.04,-0.89 28.38,-1.9 42.91,-2.98 15.19,-1.12 29.36,-2.24 42.88,-3.34 22.89,-1.85 45.83,-3 68.74,-4.15l15.63 -0.79c13.09,-0.68 26.06,-0.63 39.01,-0.11 12.93,0.52 25.71,1.49 38.52,2.66 8.58,-0.6 16.16,-2.67 22.72,-6.18 6.63,-3.55 12.27,-8.61 16.91,-15.17l15.8 -26.33c4.83,-11.56 8.5,-23.36 10.98,-35.38 2.5,-12.09 3.81,-24.39 3.92,-36.88l0 -0.04c0.36,-12.49 -0.47,-24.86 -2.51,-37.09 -2.02,-12.16 -5.24,-24.17 -9.63,-36.01l-14.77 -27.27c-4.39,-6.84 -9.84,-12.24 -16.31,-16.18 -6.42,-3.91 -13.9,-6.43 -22.44,-7.56 -6.86,0.26 -12.18,0.52 -17.5,0.77 -8.51,0.41 -17.04,0.82 -24.99,1.05 -11.25,0.33 -22.64,0.04 -34.03,-0.26l-5.19 -0.13c-13.81,-0.34 -27.68,-0.5 -41.58,-0.56 -13.76,-0.06 -27.66,-0.02 -41.6,0.06 -23.1,0.14 -46.47,0.48 -69.82,0.82 -34.34,0.5 -68.67,1 -103.27,0.85 -36.36,-0.16 -72.85,-0.59 -109.33,-1.03 -75.29,-0.91 -150.59,-1.81 -225.98,-0.25 -27.23,0.56 -55.03,1.25 -82.83,1.93 -32.13,0.79 -64.28,1.58 -96.84,2.2 -27.1,0.53 -54.37,0.83 -81.72,1.01 -27.12,0.18 -54.42,0.24 -81.7,0.3 -57.85,0.1 -115.79,0.44 -173.79,0.97 -57.81,0.52 -115.73,1.26 -173.74,2.16 -52.36,0.82 -104.73,1.57 -157.09,2.3 -62.02,0.88 -124.05,1.76 -186.07,2.77 -31.52,0.51 -63.15,0.96 -94.86,1.36 -31.51,0.39 -63.14,0.74 -94.87,1.02 -50.77,0.45 -101.75,-0.65 -152.65,-1.76l-37.95 -0.81c-109.12,-2.34 -218.24,-4.69 -327.45,-2.35 -14.11,0.3 -28.34,0.73 -42.73,1.35 -14.24,0.62 -28.45,1.42 -42.61,2.46 -11.55,0.84 -23.04,1.92 -34.42,3.21 -11.44,1.31 -22.9,2.86 -34.32,4.63 -15.26,2.38 -30.24,6.25 -45.21,10.11l-6.24 1.61c-4.69,1.2 -9.36,2.77 -13.9,4.6 -4.71,1.89 -9.27,4.09 -13.56,6.46 -8.36,5.5 -15.48,11.82 -21.33,18.95 -5.85,7.15 -10.47,15.13 -13.82,23.94l-0.09 0.17c-7.65,16.51 -12.28,34.76 -14.3,53.35 -2.18,20.07 -1.32,40.51 2.07,59.6l0.01 0.08c1.59,11.05 4.4,21.71 8.44,32 4,10.18 9.22,20.03 15.65,29.53l18.95 18.07c6.85,4.07 13.7,6.21 20.53,6.42 6.92,0.21 13.94,-1.56 21.02,-5.3 3.54,-1.96 7.21,-3.75 10.99,-5.36 3.73,-1.59 7.58,-3.02 11.53,-4.31l0.44 -0.12zm56.63 -1.81c-18.49,1.73 -36.86,4.15 -54.79,7.71 -3.6,1.18 -7.17,2.51 -10.68,4.01 -3.53,1.5 -6.99,3.18 -10.33,5.04l-0.07 0.03c-8.28,4.39 -16.57,6.45 -24.85,6.2 -8.29,-0.25 -16.49,-2.82 -24.59,-7.7l-0.33 -0.21c-6.71,-6.31 -13.44,-12.7 -20.03,-19.1l-0.19 -0.27c-6.75,-9.92 -12.23,-20.24 -16.43,-30.96 -4.2,-10.69 -7.12,-21.74 -8.77,-33.14 -3.47,-19.57 -4.35,-40.52 -2.12,-61.07 2.07,-19.05 6.83,-37.8 14.72,-54.87 3.57,-9.38 8.49,-17.9 14.75,-25.53 6.26,-7.63 13.86,-14.39 22.78,-20.25l0.22 -0.12c4.61,-2.56 9.51,-4.93 14.56,-6.97 4.82,-1.96 9.81,-3.63 14.83,-4.92l6.24 -1.61c15.12,-3.9 30.24,-7.8 45.95,-10.25 11.42,-1.78 22.99,-3.34 34.64,-4.67 11.61,-1.32 23.21,-2.41 34.72,-3.25 14.29,-1.05 28.58,-1.86 42.86,-2.47 14.11,-0.61 28.44,-1.05 42.89,-1.35 109.13,-2.34 218.47,0.01 327.8,2.36l37.95 0.81c50.75,1.1 101.57,2.2 152.41,1.75 31.5,-0.28 63.11,-0.63 94.83,-1.02 31.53,-0.4 63.15,-0.85 94.85,-1.36 62.01,-1.01 124.04,-1.89 186.07,-2.77 52.35,-0.73 104.72,-1.48 157.08,-2.3 57.82,-0.9 115.75,-1.63 173.79,-2.16 57.85,-0.53 115.8,-0.86 173.85,-0.97 27.17,-0.06 54.35,-0.12 81.67,-0.3 27.11,-0.18 54.3,-0.47 81.62,-1.01 31.99,-0.61 64.39,-1.41 96.79,-2.2 27.43,-0.68 54.86,-1.35 82.88,-1.93 75.25,-1.56 150.74,-0.65 226.22,0.25 36.38,0.44 72.78,0.88 109.28,1.04 34.22,0.15 68.66,-0.36 103.1,-0.86 23.2,-0.34 46.41,-0.68 69.9,-0.82 13.82,-0.08 27.69,-0.12 41.68,-0.06 13.87,0.07 27.78,0.23 41.75,0.57l5.19 0.13c11.15,0.29 22.31,0.58 33.59,0.25 8.68,-0.25 16.77,-0.65 24.86,-1.03 6.48,-0.31 12.98,-0.62 17.87,-0.81l0.65 0.03c9.78,1.25 18.38,4.14 25.78,8.65 7.39,4.52 13.57,10.63 18.5,18.34l15.04 27.74 0.17 0.37c4.57,12.28 7.9,24.69 9.98,37.22 2.09,12.54 2.95,25.24 2.57,38.09 -0.11,12.85 -1.45,25.48 -4.01,37.88 -2.56,12.38 -6.36,24.58 -11.39,36.56l-0.18 0.36 -16.08 26.79c-5.22,7.4 -11.62,13.13 -19.18,17.18 -7.56,4.06 -16.26,6.42 -26.07,7.07l-0.61 0c-12.95,-1.19 -25.76,-2.17 -38.42,-2.68 -12.74,-0.51 -25.49,-0.56 -38.33,0.1l-15.63 0.79c-22.86,1.15 -45.74,2.3 -68.49,4.14 -15.08,1.23 -29.51,2.37 -42.94,3.36 -14.07,1.05 -28.37,2.05 -42.99,2.98 -27.5,1.74 -55.11,2.62 -82.74,3.01 -27.47,0.39 -55.13,0.3 -82.78,0.11 -57.98,-0.37 -116,-0.59 -174.1,-0.35 -57.91,0.24 -115.89,0.93 -174,2.36 -98.55,2.44 -197.36,2.71 -296.22,2.97l-44.07 0.12c-56.49,0.17 -113.15,0.64 -169.88,1.26 -56.63,0.61 -113.27,1.37 -169.9,2.13 -67.39,0.9 -134.78,1.64 -202.18,2.38 -52.06,0.57 -104.14,1.14 -156.21,1.79 -57.56,0.7 -115.2,0.33 -172.88,-0.61 -57.57,-0.94 -115.19,-2.45 -172.84,-4.03 -28.72,-0.79 -57.46,-1.51 -86.22,-2.1 -28.69,-0.6 -57.42,-1.06 -86.21,-1.34 -15.01,-0.15 -30.07,-0.21 -45.19,-0.18 -14.96,0.02 -30.02,0.14 -45.19,0.33 -10.4,0.14 -20.87,0.33 -31.52,0.6 -10.33,0.26 -20.8,0.61 -31.45,1.09 -18.56,0.85 -37.3,1.91 -55.8,3.65z"/>
  <path class="fil2" d="M2574.36 3031.13c-70.08,6.94 -148.18,-10.69 -218.04,-18.81 -15.67,-1.83 -16.58,-25.7 0,-25.13 71.43,2.31 152.63,-3.45 222.1,14.14 17.62,4.45 12.13,28.19 -4.06,29.8z"/>
  <path class="fil3" d="M2511.11 2860.38c-64.96,27.18 -144.8,33.22 -213.97,45.94 -15.51,2.85 -23.38,-19.71 -7.36,-24.03 68.96,-18.73 144.91,-48.04 216.48,-51.59 18.16,-0.92 19.86,23.39 4.85,29.68z"/>
  <path class="fil3" d="M2320.74 349.34c-64.97,27.18 -144.81,33.23 -213.98,45.95 -15.51,2.84 -23.38,-19.71 -7.36,-24.03 68.96,-18.73 144.91,-48.05 216.48,-51.6 18.16,-0.91 19.86,23.4 4.86,29.68z"/>
  <path class="fil3" d="M2331.32 503.25c-68.95,14.29 -148.48,4.99 -218.8,4.29 -15.78,-0.17 -19.2,-23.81 -2.65,-25 71.27,-5.23 151.41,-19.52 222.34,-9.35 18,2.57 15.04,26.75 -0.89,30.06z"/>
  <path class="fil3" d="M2335.94 648.19c-64.96,20.6 -144.8,25.18 -213.97,34.82 -15.51,2.16 -23.38,-14.94 -7.36,-18.21 68.96,-14.2 144.91,-36.42 216.48,-39.11 18.16,-0.7 19.86,17.73 4.85,22.5z"/>
  <path class="fil3" d="M2333.84 885.01c-48.27,-27.18 -107.59,-33.23 -158.97,-45.95 -11.53,-2.84 -17.38,19.71 -5.48,24.03 51.24,18.73 107.67,48.05 160.84,51.6 13.49,0.91 14.76,-23.39 3.61,-29.68z"/>
  <path class="fil3" d="M2305.87 219.75c-51.56,-21.57 -114.93,-26.37 -169.82,-36.46 -12.31,-2.26 -18.56,15.64 -5.85,19.07 54.74,14.86 115.01,38.13 171.81,40.95 14.42,0.72 15.77,-18.57 3.86,-23.56z"/>
  <path class="fil3" d="M2331.23 1013.21c-64.97,27.17 -144.81,33.22 -213.97,45.94 -15.52,2.84 -23.39,-19.71 -7.37,-24.03 68.96,-18.73 144.91,-48.05 216.48,-51.6 18.16,-0.91 19.86,23.4 4.86,29.69z"/>
  <path class="fil3" d="M2331.23 1177.12c-64.97,27.18 -144.81,33.22 -213.97,45.94 -15.52,2.84 -23.39,-19.71 -7.37,-24.03 68.96,-18.73 144.91,-48.04 216.48,-51.6 18.16,-0.91 19.86,23.4 4.86,29.69z"/>
  <path class="fil3" d="M2314.52 1389.21c-64.97,27.18 -144.81,33.22 -213.97,45.94 -15.52,2.84 -23.39,-19.71 -7.37,-24.03 68.96,-18.73 144.91,-48.04 216.48,-51.59 18.16,-0.92 19.86,23.39 4.86,29.68z"/>
  <path class="fil3" d="M2302.27 1589.01c-49.78,-20.82 -110.96,-25.46 -163.96,-35.2 -11.88,-2.18 -17.92,15.1 -5.64,18.41 52.84,14.35 111.04,36.82 165.88,39.54 13.91,0.7 15.22,-17.93 3.72,-22.75z"/>
  <path class="fil3" d="M2296.24 3656.02c-85.8,-11.51 -181.44,17.74 -266.98,31.21 -19.18,3.04 -20.3,42.64 0,41.7 87.46,-3.84 186.89,5.72 271.95,-23.46 21.59,-7.38 14.85,-46.77 -4.97,-49.45z"/>
  <path class="fil3" d="M2195.79 3792.47c-85.8,-11.51 -181.44,17.74 -266.98,31.21 -19.18,3.04 -20.3,42.64 0,41.7 87.46,-3.84 186.89,5.72 271.95,-23.46 21.59,-7.38 14.85,-46.77 -4.97,-49.45z"/>
  <path class="fil3" d="M2571 3964.86c-85.81,-11.51 -181.44,17.73 -266.98,31.2 -19.18,3.04 -20.3,42.64 0,41.7 87.46,-3.84 186.89,5.72 271.95,-23.45 21.58,-7.39 14.85,-46.77 -4.97,-49.45z"/>
  <path class="fil3" d="M2626.01 4133.36c-85.8,11.51 -181.44,-17.74 -266.98,-31.2 -19.18,-3.04 -20.3,-42.64 0,-41.7 87.46,3.83 186.89,-5.73 271.95,23.45 21.59,7.39 14.86,46.77 -4.97,49.45z"/>
  <path class="fil3" d="M2586.93 4251.35c-85.81,11.51 -181.44,-17.74 -266.98,-31.21 -19.18,-3.04 -20.3,-42.64 0,-41.7 87.46,3.84 186.89,-5.72 271.95,23.46 21.58,7.38 14.85,46.77 -4.97,49.45z"/>
  <path class="fil3" d="M2411.17 3572.99c-85.81,7.78 -181.45,-11.98 -266.98,-21.08 -19.19,-2.06 -20.3,-28.82 0,-28.19 87.46,2.6 186.89,-3.86 271.95,15.86 21.58,4.99 14.85,31.6 -4.97,33.41z"/>
  <path class="fil3" d="M2495.9 3410.5c-85.8,-9.21 -181.44,14.19 -266.98,24.96 -19.18,2.43 -20.3,34.11 0,33.36 87.46,-3.07 186.89,4.58 271.95,-18.77 21.59,-5.9 14.85,-37.41 -4.97,-39.55z"/>
  <path class="fil3" d="M2544.7 3338.06c-70.08,9.2 -148.19,-14.19 -218.04,-24.96 -15.67,-2.43 -16.58,-34.11 0,-33.36 71.42,3.07 152.63,-4.57 222.09,18.76 17.63,5.91 12.14,37.41 -4.05,39.56z"/>
  <path class="fil3" d="M2566.74 3231.27c-65.11,7.1 -137.69,-10.93 -202.6,-19.23 -14.56,-1.87 -15.4,-26.28 0,-25.7 66.37,2.36 141.82,-3.53 206.37,14.45 16.38,4.56 11.27,28.83 -3.77,30.48z"/>
  <path class="fil3" d="M2597 3139.15c-53.92,3.9 -114.02,-6.01 -167.77,-10.57 -12.05,-1.03 -12.75,-14.45 0,-14.13 54.96,1.3 117.44,-1.94 170.89,7.95 13.57,2.5 9.34,15.84 -3.12,16.75z"/>
  <path class="fil4" d="M2621.77 4092.05c-1.36,-32.33 -13.89,-61.95 -35.24,-83.74 -20.28,-20.72 -48.8,-34.56 -83.57,-37.17 -48.43,-3.64 -96.21,-3.31 -143.96,-2.98 -27.05,0.19 -54.14,0.37 -81.11,-0.11 -16.37,-0.3 -31.27,-0.89 -46.11,-1.48 -24.8,-0.98 -49.59,-1.98 -73.58,-1.54 -4.74,0.09 -10.58,-0.45 -17.46,-1.07 -8.98,-0.81 -20.23,-1.84 -29.07,-1.31l-72.95 4.39 51.48 -52.02c74.47,-75.27 147.9,-155.14 216.56,-238.36 68.77,-83.34 132.85,-170.07 188.52,-258.95 52.38,-83.58 84.67,-169.97 91.57,-257.86 6.38,-81.48 -9.23,-164.69 -51.13,-248.61 -35.32,-70.73 -91.66,-123.29 -158.3,-155.39 -69.8,-33.63 -150.99,-45 -231.46,-31.6 -67.03,11.17 -126.16,39.9 -176.27,80.13 -55.85,44.85 -100.67,104.06 -132.92,169.39l-0.88 1.54c-11.27,19.6 -21.19,40.05 -29.3,60.88 -7.57,19.44 -13.55,39.39 -17.55,59.45 -4.65,23.26 -4.38,66.86 5.64,103.52 6.05,22.15 15.13,40.63 27.79,46.36 24.5,11.09 48.49,14.3 71.17,10.71 24.17,-3.83 47.56,-15.46 69.15,-33.59 17.61,-14.79 36.33,-35.14 55.6,-56.08 21.89,-23.77 44.46,-48.3 68.67,-68.54l1.96 -1.64 6.95 -3.72c48.89,-26.19 98.39,-52.72 158.78,-14.75 8.17,5.13 15.4,10.75 21.76,16.75 6.46,6.1 12.12,12.68 17.04,19.58l3.24 4.57 1.25 5.51c8.67,38.36 11.55,72.45 5.89,106.35 -5.71,34.21 -19.93,67.23 -45.39,102.97 -23.42,32.86 -51.42,61.31 -79.12,89.45 -8.49,8.62 -16.97,17.24 -25.6,26.31l-6.15 6.47c-79.6,83.61 -159.18,167.2 -233.88,254.85 -33.38,39.13 -65.38,79.71 -95.86,121.7 -29.99,41.3 -58.24,83.6 -84.6,126.84 -3,4.94 -7.24,11.61 -11.95,19.06 -34.64,54.68 -101.75,160.67 -72.22,202.95 35.18,50.43 120.93,59.69 188.88,67.01 11.93,1.29 23.69,2.57 29.77,3.32 63.4,7.87 126.65,-8.55 189.55,-5.5 64.4,3.13 128.12,1.19 191.17,1.89 61.54,0.7 143.13,23.14 215.38,4.7 67.19,-17.15 125.78,-48.47 148.48,-105.33l2.08 -5.2 1.24 -1.29c0.88,-2.99 1.61,-5.77 2.18,-8.38 0.79,-3.59 1.57,-7.99 2.3,-12.93l0.11 -0.77c0.67,-3.85 1.27,-7.68 1.71,-11.4l0.79 -7.7 -0.77 -1.51 -0.26 -6.13zm4.63 -122.95c30.04,30.69 48.08,71.68 50.99,116.29l0.51 2.02c0.78,3.21 1.14,6.81 0.99,10.84l0 0.11c-0.27,5.98 -0.7,11.12 -1.24,15.6 -0.6,5.06 -1.34,9.87 -2.15,14.47 -0.73,4.75 -1.73,10.07 -3.06,16.1 -1.37,6.09 -2.9,11.9 -4.63,17.27 -1.07,3.47 -2.7,6.63 -4.65,9.48l-0.68 1.08c-31.78,74.26 -103.62,113.94 -184.77,134.66 -77.69,19.83 -164.38,0.84 -229.61,0.09 -64.68,-0.72 -129.49,6.14 -193.36,3.04 -65.39,-3.19 -130.23,4.96 -193.72,-2.91 -12.46,-1.54 -20.43,-2.41 -28.89,-3.33 -79.11,-8.52 -178.96,-19.3 -228.75,-90.66 -50.85,-72.81 29.32,-199.4 70.68,-264.73 4.26,-6.72 8.04,-12.68 11.52,-18.4 27.38,-44.92 56.43,-88.45 87,-130.55 31.05,-42.77 64.01,-84.51 98.71,-125.21 75.62,-88.73 155.73,-172.87 235.86,-257.05l6.14 -6.46c8.34,-8.75 17.3,-17.86 26.27,-26.98 26.17,-26.57 52.61,-53.45 73.43,-82.64 20.25,-28.43 31.44,-53.98 35.74,-79.75 4.08,-24.43 2.17,-49.98 -3.94,-79 -2,-2.42 -4.2,-4.79 -6.61,-7.07 -3.89,-3.67 -8.28,-7.08 -13.22,-10.18 -32.9,-20.69 -68.03,-1.87 -102.7,16.71l-1.2 0.64c-20.83,17.72 -41.46,40.14 -61.48,61.89 -20.54,22.31 -40.5,43.99 -60.87,61.1 -29.18,24.51 -61.74,40.38 -96.32,45.86 -33.43,5.3 -68.17,0.87 -102.91,-14.87 -30.22,-13.69 -48.64,-45.9 -58.69,-82.72 -12.39,-45.32 -12.58,-99.82 -6.73,-129.15 4.53,-22.7 11.49,-45.76 20.41,-68.64 8.86,-22.81 19.74,-45.31 32.14,-67.02 35.69,-72.33 85.59,-138.09 148.03,-188.24 57.32,-46.03 125.12,-78.91 202.13,-91.74 91.87,-15.3 184.82,-2.2 264.95,36.42 77.53,37.34 143.05,98.49 184.16,180.8 46.66,93.4 63.99,186.48 56.82,277.98 -7.6,96.96 -42.91,191.76 -100.1,283.03 -57.25,91.4 -122.72,180.06 -192.69,264.87 -56.34,68.28 -115.6,134.12 -175.85,196.92 20.23,0.08 40.07,0.86 59.9,1.65 15.44,0.61 30.87,1.22 44.8,1.48 26.66,0.48 53.35,0.29 80.02,0.11 49.75,-0.35 99.54,-0.69 148.33,2.98 49.08,3.69 89.84,23.73 119.29,53.81z"/>
  <path class="fil5" d="M2332.51 1630.69c0.62,4.62 1.42,9.35 2.43,14.16 0.69,3.26 1.52,6.62 2.51,10.07 1.07,1.67 2.26,2.93 3.47,4.45 4.55,5.26 7.97,10.73 10.2,16.36l-0.11 0.03c2.78,7 3.91,14.04 3.39,21.09l0 0.12c-0.53,7.01 -2.56,13.72 -6.08,20.1 -2.87,5.2 -6.77,10.16 -11.65,14.83l-2.75 2.57 -24.36 14.84 -2.94 1.17c-5.49,2.16 -11.34,4.21 -17.54,6.1 -5.84,1.8 -11.93,3.42 -18.19,4.83 -6.74,1.53 -12.94,2.72 -18.58,3.58 -6.18,0.93 -12.56,1.67 -19.1,2.18 -10.36,0.96 -21.32,1.58 -32.59,1.76 -11.48,0.17 -22.61,-0.07 -33.05,-0.8 -10.52,-0.72 -21.13,-1.94 -31.61,-3.66 -10.08,-1.65 -19.84,-3.75 -29.01,-6.31 -5.29,-1.26 -10.51,-2.79 -15.6,-4.56 -5.57,-1.95 -10.77,-4.13 -15.56,-6.5 -5.14,-2.55 -9.98,-5.36 -14.46,-8.42 -4.59,-3.13 -8.93,-6.59 -12.98,-10.35l-2.21 -2.22 0.08 -0.06c-2.29,-2.51 -3.95,-4.43 -4.93,-5.67 -1.49,-1.91 -3.05,-4.08 -4.64,-6.48 -1.27,-1.93 -2.66,-4.28 -4.11,-7 -1.16,-2.17 -2.31,-4.6 -3.38,-7.23l-1.62 -3.81c-4.14,-10.04 -8.28,-20.13 -11.08,-31.69l-0.11 -0.12 -2.43 -11.32 -2.14 -11.32 -1.71 -11.41 -1.33 -11.26 -1.24 -13.56 -0.77 -13.31 -0.51 -13.25 -0.28 -13.39c-0.9,-66.34 2.91,-131.22 6.72,-196.07l1.34 -22.77c0.94,-15.91 1.88,-31.73 2.47,-44.61 0.69,-15.17 1.21,-30 1.31,-44.05 0.43,-74.13 -0.01,-148.21 -0.13,-222.34l-0.12 0 0.12 -0.03 -0.27 -144.44 0.22 -51.66 0.52 -51.69 1.62 -99.91 0.17 -23.75 -0.09 -23.98 -0.41 -29.01 -6.65 6 -0.12 0c-4.96,4.35 -10.23,8.79 -15.69,13.27l-22.95 18.51 0 0.12 -7.17 5.89 -6.89 6 -0.06 -0.07c-8.1,7.43 -15.3,14.08 -22.11,22.81l-0.07 -0.06 -2.22 3.22c-0.84,1.18 -1.54,2.31 -2.05,3.25l-0.82 1.73c2.37,5.24 3.8,10.2 4.21,14.86l-0.1 0.01c1.12,12.64 -3.23,22.85 -13,30.4 -7.56,5.83 -16.29,8.12 -26.27,6.97l-0.12 0c-4.07,-0.48 -8.66,-1.73 -13.74,-3.7 -2.7,-0.65 -20.71,-10.53 -23.61,-12.44 -4.48,-2.86 -9.01,-5.88 -13.59,-9.03l-0.13 -0.13c-5.02,-3.45 -9.62,-6.71 -13.74,-9.73 -3.8,-2.79 -8.39,-6.27 -13.69,-10.4 -4.24,-3.27 -8.85,-6.97 -13.76,-11l-0.07 0.08c-6.54,-5.29 -14.66,-12.11 -24.3,-20.43 -8.47,-7.32 -16.4,-14.35 -23.43,-20.84 -6.96,-6.41 -14.2,-13.33 -21.57,-20.62 -5.91,-5.84 -12.16,-12.3 -18.65,-19.31 -3.38,-3.42 -6.73,-7.06 -10.04,-10.83l-0.05 0.05c-3.13,-3.54 -6.1,-7.12 -8.92,-10.69 -2.61,-3.31 -5.19,-6.83 -7.71,-10.51 -2.05,-3.01 -4.23,-6.53 -6.5,-10.55 -1.29,-2.27 -2.16,-4.23 -3.32,-6.68l0 -0.24 -2.15 -5.4c-0.61,-1.91 -1.17,-3.83 -1.62,-5.71l0 -0.12c-0.55,-2.25 -0.94,-4.41 -1.16,-6.43l-0.27 -2.06c-0.29,-2.67 -0.59,-5.37 -0.8,-9.22 -0.23,-4.44 -0.18,-8.81 0.45,-13l0.12 -0.13c0.39,-2.47 0.8,-4.66 1.22,-6.52 0.53,-2.24 1.1,-4.39 1.71,-6.4l0 -0.12c0.73,-2.37 1.45,-4.45 2.14,-6.22 0.76,-1.93 1.65,-3.95 2.66,-6.01 1.07,-2.33 2.23,-4.47 3.39,-6.46l3.69 -5.73 3.61 -5.16 3.84 -4.93c17.45,-21.48 37.51,-38.34 57.54,-55.16l6.65 -5.59c5.02,-4.21 10.08,-8.44 12.3,-10.43l-0.06 -0.06c3.59,-3.22 6.97,-6.45 9.9,-9.67l7.1 -7.9 0.06 0.05c6.9,-7.77 13.69,-15.57 20.44,-23.47l0.06 0.05c12.99,-15.26 20.4,-23.81 27.31,-31.77l35.98 -41.7 13.29 -14.81 13.57 -14.58 0 -0.13c10.6,-11.11 21.24,-22.12 31.64,-33.43 10.39,-12.4 20.25,-24.95 30.3,-37.59l0.06 0.06c6.21,-7.6 12.78,-14.54 19.48,-21.12 7.13,-6.99 13.32,-12.66 19.49,-18.29 6.19,-5.65 12.39,-11.31 17.26,-16.07 4.15,-4.03 8.27,-8.74 12.39,-13.5 1.17,-2.21 2.49,-4.34 3.92,-6.37 2.62,-3.61 5.43,-6.86 8.45,-9.72 1.79,-1.7 3.89,-3.46 6.28,-5.24l3.2 -2.29c3.02,-2.76 6.04,-5.44 9.18,-8.04 2.37,-3.66 4.66,-7.09 7.2,-10.69l8.74 -6.17 5.07 -1.5c5.67,-1.67 11.66,-2.06 17.89,-1.14 4.09,0.6 8.41,1.81 12.95,3.58l3.38 1.43 8.96 -1.51c5.57,-0.84 12.27,-1.64 20.19,-2.38 6.91,-0.63 13.87,-1.09 20.83,-1.33 6.75,-0.23 13.69,-0.26 20.74,-0.11 7.68,0.07 14.55,0.32 20.55,0.73 6.18,0.41 13.07,1.12 20.58,2.07 7.31,0.93 14.07,2 20.22,3.16l0.13 0c7.16,1.37 13.8,2.83 19.88,4.38l3.31 1.09 28.16 10.27c5.62,2.4 10.64,5.08 15.01,8.03 4.9,3.32 9.32,7.2 13.22,11.65 4.12,4.69 7.4,9.82 9.81,15.35 2.45,5.61 3.96,11.65 4.53,18.06l0.2 2.15 -0.2 4.92 -1.99 11.85c-0.57,4.02 -1.01,7.38 -1.22,9.72 -0.27,3.07 -0.46,6.13 -0.52,9.11 -0.05,2.52 0.02,5.43 0.24,8.79 0,9.14 1.3,19.97 1.93,29.22 0.48,6.42 1.04,12.79 1.76,19.04 0,13.43 3.87,37.19 5.18,51.78l0.12 0.13c0.62,7.36 1.1,16.09 1.46,25.95 0.3,8.13 0.44,16.75 0.45,25.65 0.01,8.56 -0.1,16.91 -0.28,25.1l-2.27 76.2c-0.47,17.49 -0.87,34.65 -1.12,51.23 -0.26,17.14 -0.42,34.21 -0.42,51.12 0,16.85 0.14,33.89 0.46,51.09 1.13,58.63 0.08,117.23 -0.97,175.83 0,8.85 -0.32,17.85 -0.48,26.73l-0.68 50 -0.34 50.25c0,104.29 -0.47,208.54 -0.74,312.82 -0.04,17.68 -0.34,35.02 -0.84,52.03 -0.54,18.12 -1.25,35.31 -2.07,51.84 -0.96,18.85 -1.94,35.84 -2.94,51.65 -2.25,34 -4.57,68 -6.66,102.01l-1.36 25.26c-1.7,37.87 -3.07,75.29 -1.34,113.21 0.22,3.96 0.56,8.88 1.13,15.67 0.49,5.87 1.01,11.03 1.54,14.93zm-59 26.94c-1.26,-6.01 -2.31,-12.24 -3.17,-18.59 -0.95,-7.05 -1.59,-12.95 -2.03,-18.12 -0.34,-4.23 -0.73,-10.38 -1.12,-17.4 0,-31.91 -0.86,-61.4 0.21,-93.79l1.13 -25.79 1.36 -25.75 1.55 -25.8 5.11 -76.72c1.15,-18.28 2.17,-35.43 2.93,-50.66 0.88,-17.63 1.61,-34.61 2.08,-50.61 0.5,-17.1 0.81,-33.92 0.84,-50.31l0.52 -152.42 -0.03 -68.63c0,-15.37 0,-30.76 0.25,-92.02l0.34 -50.49 0.68 -50.5 0.48 -26.97c1.04,-58 2.08,-116.01 0.97,-173.62 -0.33,-17.22 -0.47,-34.6 -0.47,-52.07 0.01,-17.43 0.17,-34.74 0.43,-51.86 0.27,-17.83 0.67,-35.09 1.11,-51.96l2.28 -75.97c0.17,-8.16 0.28,-16.17 0.28,-23.86 -0.01,-7.44 -0.15,-15.23 -0.45,-23.43 -0.23,-6.48 -0.72,-14.11 -1.46,-23.01l0.1 -0.01c-1.51,-16.7 -3.27,-33.27 -5.15,-49.93 -0.84,-7.25 -1.48,-14.41 -2.01,-21.5l-1.92 -29.95c-0.29,-4.23 -0.35,-8.93 -0.25,-13.96 0.09,-4.56 0.36,-9.09 0.76,-13.53 0.47,-5.15 0.96,-9.35 1.47,-12.91l0.53 -3.63 -3.12 -1.62 -23.31 -8.47c-5.63,-1.42 -10.87,-2.6 -15.67,-3.52 -5.92,-1.14 -11.41,-2.03 -16.41,-2.67 -4.84,-0.62 -10.48,-1.15 -16.9,-1.58 -6.47,-0.43 -12.24,-0.69 -17.23,-0.73l-0.38 0c-5.75,-0.13 -11.62,-0.09 -17.54,0.12 -5.75,0.19 -11.48,0.56 -17.14,1.09 -4.35,0.4 -9.92,1.13 -16.51,2.12 -6.12,0.94 -11.64,1.93 -16.53,2.96l-11.73 2.48 -5.37 -3.15 -4.49 3.7 -2.25 2.17 0.06 0.06 -3.02 3.03 -4.97 3.04 -0.85 0.75 -1.81 4.36 -4.8 5.53c-5.51,6.39 -11.03,12.8 -17.44,19.04 -6.87,6.7 -12.81,12.13 -18.74,17.54 -6.39,5.84 -12.78,11.68 -17.76,16.56 -5.36,5.27 -10.43,10.6 -14.88,16.04l0 0.13 -25.33 31.59 -6.69 7.7 -6.52 7.26 -26.34 27.66 -0.06 -0.06 -12.78 14.02 -12.55 14.07c-21.04,24.11 -41.93,48.37 -62.86,72.57l0 0.12c-7.06,8.22 -14.17,16.31 -21.36,24.41l-0.12 0.25 -7.23 8.01c-4.71,5.17 -9.55,9.84 -14.44,14.22l-0.12 0c-6.35,5.68 -10.1,8.83 -13.84,11.96l-6.65 5.59c-17.88,15.02 -35.8,30.07 -49.19,46.56 -4.76,6.11 -7.4,9.84 -8.96,17.44l0.09 0.01 0.72 7.08 0.34 0.98 0.08 -0.03 0.93 2.13 2.99 4.54c1.35,1.96 3.12,4.33 5.26,7.06 1.94,2.46 4.18,5.14 6.7,8l0 0.12c2.26,2.57 4.96,5.5 8.07,8.73l0.37 0.49c4.72,5.1 10.58,11.09 17.34,17.79 5.91,5.85 12.6,12.21 19.87,18.9 7.8,7.19 15.15,13.76 21.94,19.62 6.13,5.3 13.88,11.72 22.83,18.96l0.12 0.25c3.85,3.16 8,6.47 12.46,9.94l0.13 0.12c3.38,2.63 7.49,5.72 12.36,9.28l7 5.07 1.76 -3.36c1.51,-2.79 3.03,-5.27 4.5,-7.55 0,-0.41 5.05,-7.05 5.74,-7.96l0.25 -0.49c6.78,-8.38 13.94,-15.72 21.71,-23.2l7.83 -7.04 0 -0.12 15.77 -13.36 0.06 0.07 22.89 -18.45c4.64,-3.82 9.36,-7.78 14.15,-11.99l-0.05 -0.06c5.06,-4.46 9.55,-8.56 13.21,-12.13 4.29,-4.2 8.26,-8.32 11.77,-12.31l11.63 -13.11 0 -0.13 11.65 -13.07 0.12 0 60.08 -67.28c0.8,62.59 1.91,125.15 2.77,187.73l0.09 24.47c-0.29,41.48 -1.12,82.92 -1.79,124.4l-0.52 51.2 -0.22 51.41 0.28 144.44 0.12 0 -0.12 0.03c0.11,74.3 0.12,148.54 0.12,222.83 -0.12,16.05 -0.62,31.37 -1.31,46.27 -0.79,17.19 -1.64,31.48 -2.47,45.59l-1.34 22.77c-3.79,64.42 -7.57,128.89 -6.71,191.64 0.27,12.25 0.76,24.04 1.56,36.27l0.99 11.85 1.08 9.04 1.47 9.44 1.66 9.11 2.17 9.35 -0.08 0.02c1.68,6.91 4.88,14.69 8.07,22.45 0.77,1.85 1.41,3.63 2.31,5.4l1.16 1.84 2.99 3.92c1.45,1.26 3.04,2.49 4.73,3.65 2.15,1.46 4.45,2.81 6.84,3.99 2.74,1.36 5.57,2.55 8.44,3.56 3,1.04 6.35,2 10.01,2.84l1.47 0.37c7.3,2.05 14.88,3.7 22.56,4.95 8.21,1.35 16.86,2.33 25.72,2.94 9.79,0.67 19.15,0.93 27.89,0.79 9.28,-0.14 18.73,-0.7 28.05,-1.63l0.61 -0.12c4.88,-0.39 9.79,-0.96 14.68,-1.69 5.42,-0.82 10.16,-1.7 14.15,-2.6 4.49,-1.01 9.02,-2.22 13.53,-3.61 3.47,-1.06 7.08,-2.31 10.78,-3.71l4.23 -2.56 -2.21 -3.43 -2.82 -4.82 -1.27 -2.4 -0.94 -3c-1.9,-6.07 -3.53,-12.47 -4.92,-19.07zm-186.13 -1515.78l0.1 -0.2 -0.1 0.2zm-24.82 -60.52l-0.09 0.09 0.09 -0.09z"/>
  <rect class="fil6" x="-3.07" y="19.14" width="4343.4" height="4343.58"/>
 </g>
</svg>
