<?xml version="1.0" encoding="UTF-8"?>
<!DOCTYPE svg PUBLIC "-//W3C//DTD SVG 1.1//EN" "http://www.w3.org/Graphics/SVG/1.1/DTD/svg11.dtd">
<!-- Creator: CorelDRAW 2018 (64-Bit) -->
<svg xmlns="http://www.w3.org/2000/svg" xml:space="preserve" width="43.4338mm" height="43.4338mm" version="1.1" style="shape-rendering:geometricPrecision; text-rendering:geometricPrecision; image-rendering:optimizeQuality; fill-rule:evenodd; clip-rule:evenodd"
viewBox="0 0 4343.38 4343.38"
 xmlns:xlink="http://www.w3.org/1999/xlink">
 <defs>
  <style type="text/css">
   <![CDATA[
    .str0 {stroke:black;stroke-width:33.86;stroke-miterlimit:22.9256}
    .fil5 {fill:none}
    .fil1 {fill:#2B2A29}
    .fil0 {fill:#1D1D1B}
    .fil4 {fill:#2B2A29;fill-rule:nonzero}
    .fil2 {fill:black;fill-rule:nonzero}
    .fil3 {fill:black;fill-rule:nonzero}
   ]]>
  </style>
 </defs>
 <g id="Слой_x0020_1">
  <metadata id="CorelCorpID_0Corel-Layer"/>
  <path class="fil0" d="M1238.92 1893.07c-70.88,7.02 -149.88,-10.81 -220.53,-19.02 -15.85,-1.86 -16.77,-26 0,-25.42 72.24,2.34 154.37,-3.49 224.63,14.29 17.83,4.51 12.27,28.52 -4.1,30.15z"/>
  <path class="fil0 str0" d="M4077.37 1798.77c-61.09,6.05 -129.18,-9.32 -190.08,-16.39 -13.66,-1.6 -14.45,-22.41 0,-21.92 62.27,2.02 133.06,-3 193.62,12.33 15.37,3.88 10.58,24.57 -3.54,25.98z"/>
  <path class="fil0 str0" d="M3116.34 2041.74c61.09,6.05 129.18,-9.32 190.08,-16.39 13.66,-1.6 14.45,-22.41 0,-21.92 -62.27,2.02 -133.06,-3 -193.62,12.33 -15.37,3.88 -10.58,24.57 3.54,25.98z"/>
  <path class="fil0 str0" d="M3137.84 2490.32c56.21,-24.67 108.02,-71.45 157.64,-107.47 11.12,-8.08 1.61,-26.61 -10.75,-19.09 -53.28,32.28 -117.45,62.6 -162.71,105.65 -11.5,10.92 2.82,26.6 15.82,20.91z"/>
  <path class="fil0 str0" d="M4163.69 2530.08c-70.81,7.01 -149.72,-10.8 -220.3,-19 -15.83,-1.85 -16.75,-25.96 0,-25.39 72.17,2.34 154.21,-3.49 224.4,14.28 17.81,4.5 12.25,28.48 -4.1,30.11z"/>
  <path class="fil1" d="M1174.95 1720.36c-65.7,27.49 -146.46,33.61 -216.42,46.47 -15.69,2.88 -23.65,-19.93 -7.45,-24.3 69.76,-18.94 146.57,-48.6 218.96,-52.19 18.36,-0.92 20.09,23.66 4.91,30.02z"/>
  <path class="fil1 str0" d="M4022.24 1649.91c-56.64,23.7 -126.24,28.97 -186.54,40.06 -13.52,2.47 -20.39,-17.19 -6.42,-20.95 60.12,-16.33 126.33,-41.89 188.72,-44.98 15.83,-0.8 17.32,20.39 4.24,25.87z"/>
  <path class="fil1 str0" d="M3171.47 1892.88c56.64,23.7 126.24,28.97 186.54,40.06 13.52,2.47 20.39,-17.19 6.42,-20.95 -60.12,-16.33 -126.33,-41.89 -188.72,-44.98 -15.83,-0.8 -17.32,20.39 -4.24,25.87z"/>
  <path class="fil1 str0" d="M3112.92 2333.55c60.98,-7.11 124.23,-36.64 182.22,-56.53 13,-4.47 9.35,-24.97 -4.67,-21.41 -60.41,15.24 -130.64,25.42 -186.54,53.31 -14.19,7.07 -5.1,26.26 8.99,24.63z"/>
  <path class="fil1 str0" d="M4099.79 2357.57c-65.64,27.46 -146.31,33.56 -216.19,46.41 -15.67,2.88 -23.63,-19.91 -7.44,-24.27 69.68,-18.93 146.41,-48.55 218.72,-52.13 18.35,-0.93 20.07,23.63 4.91,29.99z"/>
  <path class="fil1" d="M957.62 2525.11c-86.79,-11.64 -183.52,17.94 -270.04,31.56 -19.4,3.08 -20.53,43.13 0,42.18 88.47,-3.88 189.03,5.79 275.07,-23.72 21.83,-7.47 15.02,-47.31 -5.03,-50.02z"/>
  <path class="fil1" d="M856.02 2663.13c-86.79,-11.65 -183.52,17.93 -270.04,31.56 -19.4,3.07 -20.53,43.12 0,42.17 88.47,-3.88 189.03,5.79 275.07,-23.72 21.83,-7.47 15.02,-47.31 -5.03,-50.01z"/>
  <path class="fil1" d="M1235.52 2837.48c-86.79,-11.64 -183.52,17.94 -270.03,31.56 -19.4,3.08 -20.54,43.13 0,42.18 88.46,-3.88 189.03,5.79 275.06,-23.72 21.83,-7.47 15.02,-47.31 -5.03,-50.02z"/>
  <path class="fil1" d="M1291.17 3007.91c-86.79,11.65 -183.52,-17.94 -270.04,-31.56 -19.4,-3.07 -20.53,-43.13 0,-42.18 88.46,3.89 189.03,-5.78 275.06,23.73 21.83,7.47 15.03,47.3 -5.02,50.01z"/>
  <path class="fil1" d="M1251.64 3127.25c-86.79,11.64 -183.53,-17.94 -270.04,-31.56 -19.4,-3.07 -20.53,-43.13 0,-42.18 88.46,3.88 189.03,-5.79 275.06,23.73 21.83,7.47 15.03,47.3 -5.02,50.01z"/>
  <path class="fil1" d="M1073.86 2441.13c-86.79,7.87 -183.52,-12.12 -270.04,-21.33 -19.4,-2.07 -20.53,-29.14 0,-28.5 88.47,2.62 189.03,-3.91 275.07,16.03 21.83,5.05 15.02,31.97 -5.03,33.8z"/>
  <path class="fil1" d="M1159.56 2276.78c-86.78,-9.32 -183.52,14.35 -270.03,25.25 -19.4,2.45 -20.53,34.5 0,33.74 88.46,-3.11 189.03,4.63 275.06,-18.98 21.83,-5.98 15.03,-37.84 -5.03,-40.01z"/>
  <path class="fil1 str0" d="M4084.42 2913.38c-86.7,-9.3 -183.33,14.34 -269.75,25.22 -19.38,2.46 -20.51,34.46 0,33.71 88.37,-3.11 188.83,4.62 274.77,-18.96 21.81,-5.97 15.01,-37.81 -5.02,-39.97z"/>
  <path class="fil1" d="M1208.92 2203.51c-70.88,9.31 -149.88,-14.35 -220.54,-25.25 -15.84,-2.45 -16.77,-34.49 0,-33.73 72.25,3.1 154.38,-4.63 224.64,18.97 17.83,5.98 12.27,37.84 -4.1,40.01z"/>
  <path class="fil1 str0" d="M4133.72 2840.19c-70.8,9.3 -149.72,-14.34 -220.3,-25.22 -15.83,-2.45 -16.75,-34.46 0,-33.7 72.17,3.1 154.21,-4.62 224.4,18.96 17.81,5.97 12.25,37.79 -4.1,39.96z"/>
  <path class="fil1 str0" d="M3964.9 3089.5c-70.81,9.3 -149.72,-14.33 -220.3,-25.21 -15.83,-2.46 -16.75,-34.46 0,-33.71 72.17,3.11 154.21,-4.62 224.4,18.96 17.81,5.97 12.25,37.8 -4.1,39.96z"/>
  <path class="fil1" d="M1231.21 2095.5c-65.86,7.18 -139.26,-11.06 -204.91,-19.45 -14.73,-1.9 -15.59,-26.58 0,-26 67.13,2.39 143.44,-3.57 208.73,14.62 16.56,4.61 11.4,29.16 -3.82,30.83z"/>
  <path class="fil1 str0" d="M4070.73 1973.25c-56.77,6.19 -120.04,-9.53 -176.62,-16.77 -12.69,-1.63 -13.43,-22.91 0,-22.4 57.86,2.06 123.64,-3.08 179.91,12.6 14.28,3.97 9.82,25.13 -3.29,26.57z"/>
  <path class="fil1 str0" d="M3122.98 2216.22c56.77,6.19 120.04,-9.53 176.62,-16.77 12.69,-1.63 13.43,-22.91 0,-22.4 -57.86,2.06 -123.64,-3.08 -179.91,12.6 -14.28,3.97 -9.82,25.13 3.29,26.57z"/>
  <path class="fil1 str0" d="M4155.99 2732.3c-65.79,7.17 -139.12,-11.05 -204.7,-19.43 -14.7,-1.9 -15.56,-26.56 0,-25.97 67.06,2.39 143.29,-3.57 208.51,14.6 16.55,4.6 11.39,29.13 -3.81,30.8z"/>
  <path class="fil1" d="M1261.82 2002.33c-54.54,3.94 -115.32,-6.08 -169.69,-10.7 -12.19,-1.04 -12.9,-14.61 0,-14.29 55.59,1.32 118.79,-1.96 172.85,8.04 13.72,2.53 9.44,16.03 -3.16,16.95z"/>
  <path class="fil1 str0" d="M4097.11 1892.94c-47.01,3.4 -99.4,-5.24 -146.25,-9.22 -10.51,-0.89 -11.13,-12.59 0,-12.32 47.91,1.14 102.38,-1.69 148.97,6.93 11.83,2.19 8.14,13.82 -2.72,14.61z"/>
  <path class="fil1 str0" d="M3096.6 2135.91c47,3.4 99.4,-5.24 146.25,-9.22 10.51,-0.89 11.13,-12.59 0,-12.32 -47.91,1.14 -102.38,-1.69 -148.97,6.93 -11.83,2.19 -8.14,13.82 2.72,14.61z"/>
  <path class="fil1 str0" d="M3166.79 2582.08c42.64,-20.08 84.07,-53.29 122.96,-79.73 8.72,-5.93 3.52,-16.43 -6.04,-10.74 -41.2,24.48 -90.06,48.72 -126.45,79.07 -9.24,7.7 -0.32,16.03 9.53,11.4z"/>
  <path class="fil1 str0" d="M4186.56 2639.22c-54.47,3.95 -115.19,-6.07 -169.5,-10.68 -12.18,-1.04 -12.89,-14.6 0,-14.28 55.53,1.32 118.66,-1.95 172.66,8.04 13.7,2.52 9.43,16.01 -3.16,16.92z"/>
  <path class="fil2" d="M1286.88 2966.13c-1.38,-32.7 -14.06,-62.66 -35.65,-84.7 -20.51,-20.95 -49.35,-34.95 -84.53,-37.6 -48.98,-3.67 -97.3,-3.35 -145.6,-3.01 -27.37,0.19 -54.76,0.38 -82.04,-0.11 -16.56,-0.31 -31.63,-0.9 -46.64,-1.5 -25.08,-0.99 -50.15,-2 -74.42,-1.55 -4.8,0.08 -10.71,-0.46 -17.66,-1.08 -9.08,-0.83 -20.46,-1.86 -29.4,-1.33l-73.79 4.44 52.07 -52.62c75.32,-76.13 149.59,-156.91 219.04,-241.08 69.55,-84.3 134.36,-172.02 190.68,-261.92 52.97,-84.54 85.64,-171.92 92.61,-260.8 6.46,-82.42 -9.33,-166.59 -51.71,-251.46 -35.73,-71.54 -92.71,-124.7 -160.12,-157.17 -70.59,-34.02 -152.71,-45.51 -234.1,-31.96 -67.8,11.29 -127.61,40.35 -178.29,81.04 -56.49,45.36 -101.82,105.25 -134.44,171.33l-0.89 1.56c-11.4,19.83 -21.44,40.51 -29.64,61.58 -7.65,19.65 -13.7,39.83 -17.75,60.13 -4.7,23.52 -4.43,67.62 5.71,104.7 6.11,22.4 15.3,41.09 28.11,46.9 24.77,11.21 49.04,14.46 71.98,10.82 24.44,-3.87 48.1,-15.63 69.94,-33.97 17.81,-14.96 36.75,-35.54 56.24,-56.72 22.13,-24.04 44.97,-48.85 69.45,-69.32l1.98 -1.66 7.04 -3.77c49.44,-26.49 99.51,-53.32 160.6,-14.92 8.26,5.19 15.57,10.87 22,16.95 6.54,6.17 12.26,12.82 17.24,19.8l3.27 4.62 1.27 5.57c8.77,38.81 11.68,73.29 5.96,107.58 -5.77,34.59 -20.16,67.99 -45.91,104.14 -23.69,33.23 -52.01,62.01 -80.02,90.47 -8.59,8.73 -17.17,17.44 -25.9,26.62l-6.22 6.54c-80.52,84.56 -161,169.11 -236.56,257.77 -33.76,39.57 -66.13,80.62 -96.96,123.09 -30.33,41.78 -58.9,84.55 -85.56,128.29 -3.04,5 -7.33,11.75 -12.09,19.28 -35.04,55.31 -102.91,162.51 -73.05,205.27 35.58,51 122.32,60.38 191.04,67.77 12.07,1.32 23.96,2.6 30.12,3.37 64.12,7.96 128.09,-8.65 191.71,-5.56 65.14,3.16 129.59,1.19 193.37,1.9 62.23,0.72 144.76,23.41 217.83,4.76 67.96,-17.35 127.23,-49.03 150.19,-106.54l2.1 -5.26 1.25 -1.3c0.9,-3.03 1.63,-5.84 2.21,-8.47 0.8,-3.64 1.59,-8.09 2.33,-13.09l0.1 -0.77c0.69,-3.9 1.29,-7.77 1.74,-11.53l0.8 -7.79 -0.78 -1.53 -0.26 -6.2zm4.67 -124.36c30.39,31.05 48.63,72.51 51.58,117.63l0.51 2.03c0.79,3.25 1.16,6.89 1.01,10.97l0 0.12c-0.28,6.04 -0.71,11.24 -1.26,15.77 -0.61,5.11 -1.36,9.98 -2.17,14.64 -0.74,4.8 -1.75,10.18 -3.1,16.28 -1.38,6.16 -2.93,12.03 -4.67,17.47 -1.09,3.51 -2.74,6.7 -4.71,9.59l-0.69 1.08c-32.15,75.12 -104.8,115.25 -186.88,136.21 -78.59,20.06 -166.27,0.85 -232.25,0.09 -65.41,-0.73 -130.97,6.21 -195.57,3.07 -66.13,-3.22 -131.72,5.03 -195.94,-2.94 -12.6,-1.56 -20.65,-2.44 -29.21,-3.36 -80.02,-8.62 -181.02,-19.53 -231.38,-91.7 -51.43,-73.64 29.66,-201.69 71.5,-267.76 4.3,-6.8 8.13,-12.83 11.64,-18.61 27.71,-45.43 57.08,-89.46 88,-132.05 31.41,-43.25 64.74,-85.48 99.84,-126.64 76.49,-89.74 157.51,-174.85 238.56,-259.99l6.22 -6.53c8.43,-8.86 17.49,-18.07 26.57,-27.29 26.46,-26.88 53.21,-54.06 74.26,-83.59 20.49,-28.76 31.81,-54.6 36.16,-80.66 4.12,-24.72 2.19,-50.55 -4,-79.91 -2.02,-2.45 -4.24,-4.84 -6.68,-7.15 -3.93,-3.71 -8.38,-7.16 -13.37,-10.3 -33.28,-20.92 -68.81,-1.89 -103.87,16.9l-1.21 0.65c-21.07,17.93 -41.94,40.6 -62.19,62.6 -20.77,22.57 -40.96,44.5 -61.56,61.8 -29.52,24.79 -62.45,40.84 -97.43,46.38 -33.82,5.37 -68.95,0.88 -104.09,-15.03 -30.57,-13.85 -49.19,-46.43 -59.36,-83.67 -12.53,-45.84 -12.73,-100.96 -6.81,-130.63 4.59,-22.96 11.62,-46.28 20.64,-69.43 8.97,-23.06 19.98,-45.82 32.51,-67.79 36.1,-73.15 86.57,-139.67 149.73,-190.39 57.97,-46.55 126.55,-79.81 204.44,-92.78 92.92,-15.48 186.93,-2.23 267.99,36.83 78.42,37.77 144.69,99.62 186.26,182.87 47.19,94.47 64.73,188.61 57.47,281.16 -7.68,98.07 -43.4,193.96 -101.24,286.27 -57.91,92.44 -124.13,182.12 -194.9,267.9 -56.98,69.06 -116.92,135.66 -177.86,199.17 20.47,0.08 40.53,0.87 60.59,1.67 15.61,0.62 31.22,1.24 45.31,1.5 26.97,0.48 53.96,0.3 80.93,0.11 50.32,-0.35 100.69,-0.7 150.03,3.01 49.65,3.74 90.87,24.01 120.65,54.43z"/>
  <path class="fil2" d="M1914.01 1323.08c-7.95,-9.84 -16.51,-19.63 -25.71,-29.35 -61.31,-64.75 -151.93,-107.57 -255.53,-127.98 -108.5,-21.39 -231.41,-18.41 -350.3,9.35 -99.01,23.09 -184.14,62.45 -254.36,111.75 -65.8,46.19 -118.72,101.21 -157.98,159.96l-95.16 11.28c44.79,-76.57 110.38,-149.06 195.47,-208.8 80.35,-56.4 177.93,-101.47 291.7,-128 135.73,-31.68 276.44,-35.02 401.03,-10.45 120.51,23.75 225.9,73.54 297.24,148.91 16.42,17.35 31.02,34.9 43.89,52.63l-90.29 10.7z"/>
  <path class="fil2" d="M3354.17 1328.76c-7.95,-9.85 -16.51,-19.63 -25.71,-29.36 -61.31,-64.75 -151.93,-107.57 -255.53,-127.98 -108.5,-21.39 -231.41,-18.4 -350.3,9.35 -99.01,23.1 -184.14,62.45 -254.35,111.75 -65.81,46.19 -118.73,101.21 -157.99,159.97l-95.16 11.28c44.79,-76.57 110.38,-149.07 195.47,-208.8 80.35,-56.41 177.93,-101.47 291.7,-128.01 135.73,-31.68 276.44,-35.02 401.03,-10.44 120.51,23.75 225.9,73.54 297.24,148.91 16.42,17.35 31.02,34.9 43.89,52.62l-90.29 10.71z"/>
  <path class="fil1" d="M2158.58 2033.02c-44.08,23.11 -97.45,13.96 -143.9,16.31 -10.42,0.51 -14.99,-32.17 -4.19,-34.6 46.5,-10.63 97.97,-34.27 145.75,-23.51 12.12,2.72 12.53,36.45 2.34,41.8z"/>
  <path class="fil1" d="M2557.93 2144.94c-44.08,9.14 -97.45,5.52 -143.9,6.45 -10.42,0.2 -14.99,-12.72 -4.19,-13.68 46.5,-4.21 97.97,-13.56 145.75,-9.3 12.12,1.07 12.53,14.41 2.34,16.53z"/>
  <path class="fil1" d="M2401.04 2195.87c44.09,9.96 97.45,6.01 143.91,7.02 10.42,0.22 14.98,-13.86 4.19,-14.91 -46.51,-4.58 -97.97,-14.77 -145.75,-10.13 -12.12,1.17 -12.53,15.71 -2.35,18.02z"/>
  <path class="fil1" d="M2408.33 2248.6c44.08,-9.96 97.45,-6.01 143.9,-7.03 10.42,-0.22 14.99,13.87 4.19,14.92 -46.5,4.58 -97.97,14.77 -145.75,10.13 -12.12,-1.17 -12.53,-15.71 -2.34,-18.02z"/>
  <path class="fil1" d="M2399.11 2321.45c44.09,-9.96 97.45,-6.02 143.91,-7.03 10.42,-0.22 14.98,13.87 4.19,14.91 -46.51,4.59 -97.97,14.78 -145.75,10.14 -12.12,-1.17 -12.53,-15.71 -2.35,-18.02z"/>
  <path class="fil1" d="M2551.26 2725.32c-32.38,28.06 -74.97,25.16 -111.1,32.88 -8.11,1.71 -14.67,-30.21 -6.44,-33.87 35.41,-15.96 73.52,-45.41 111.88,-40.26 9.74,1.29 13.14,34.75 5.66,41.25z"/>
  <path class="fil1" d="M2116.61 2099.9c-46.4,4.01 -93.89,43.39 -137.64,68.07 -9.8,5.55 -6.42,38.58 4.19,34.59 45.73,-17 99.12,-24.78 141.04,-62.42 10.64,-9.54 3.13,-41.15 -7.59,-40.24z"/>
  <path class="fil1" d="M2524.53 2796.62c-35.94,9.36 -69.5,53.97 -101.47,83.57 -7.16,6.65 -1.5,39.06 6.44,33.87 34.22,-22.19 75.28,-36.11 104.64,-78.36 7.45,-10.71 -1.31,-41.23 -9.61,-39.08z"/>
  <path class="fil1" d="M2067.46 2241.65c-46.02,7.21 -94.49,38.46 -138.69,59.41 -9.91,4.71 -7.85,26.75 2.79,23.03 45.86,-15.94 98.92,-26.38 141.82,-55.92 10.89,-7.49 4.71,-28.17 -5.92,-26.52z"/>
  <path class="fil1" d="M2499.02 2943.11c-35.34,12.49 -70.41,49.16 -103.08,75.09 -7.32,5.83 -3.7,27.48 4.29,22.55 34.42,-21.15 74.98,-37.67 105.85,-72 7.83,-8.7 1.11,-28.52 -7.06,-25.64z"/>
  <path class="fil1" d="M2192.3 1904.03c-44.46,20.01 -96.87,18.73 -142.88,24.7 -10.32,1.32 -13.6,-20.7 -2.83,-23.38 46.37,-11.67 98.15,-32.74 144.98,-29.82 11.88,0.73 11,23.87 0.73,28.5z"/>
  <path class="fil1" d="M2710.29 2519.2c-32.96,25.03 -74.09,29.84 -109.54,41.1 -7.96,2.51 -12.53,-18.98 -4.35,-22.89 35.22,-16.97 73.8,-43.91 110.71,-46.44 9.36,-0.65 10.79,22.44 3.18,28.23z"/>
  <path class="fil1" d="M2572.4 2633.98c38.72,14.62 79.51,7.52 116.71,8.23 8.34,0.15 6.61,-21.76 -2.34,-23.18 -38.59,-6.25 -83.25,-21.09 -119.35,-13.02 -9.16,2.04 -3.96,24.58 4.98,27.97z"/>
  <path class="fil1" d="M2673.53 2449.66c-32.96,25.03 -74.08,29.84 -109.54,41.1 -7.95,2.51 -12.53,-18.98 -4.35,-22.89 35.22,-16.97 73.8,-43.9 110.71,-46.44 9.36,-0.65 10.79,22.44 3.18,28.23z"/>
  <path class="fil1" d="M2220.66 1755.85c-46.17,5.92 -94.24,40.44 -138.26,62.9 -9.87,5.04 -7.28,31.5 3.35,27.67 45.81,-16.37 99,-25.74 141.5,-58.54 10.79,-8.31 4.08,-33.38 -6.59,-32.03z"/>
  <path class="fil1" d="M2239.11 1688.05c-36.02,18.71 -79.55,11.65 -117.47,13.75 -8.5,0.46 -12.17,-25.67 -3.35,-27.66 37.97,-8.74 80.02,-27.92 118.99,-19.54 9.89,2.12 10.15,29.12 1.83,33.45z"/>
  <path class="fil2" d="M1841.47 2662.4c26.54,7.73 54.47,10.64 82.92,11.13 28.69,0.48 58.73,-1.55 88.45,-3.55 13.07,-0.88 26.14,-1.76 40.3,-2.48 13.94,-0.71 27.3,-1.19 39.56,-1.19 24.58,0 43.42,-0.07 57.42,-0.2 18.34,-0.16 36.23,-0.4 53.76,-0.7l55.62 -1.07 86.07 -2.01 -2.54 33.51c-1.66,22.01 -3.22,43.67 -4.47,64.29 -1.33,21.83 -2.43,43.32 -3.12,64.14 -0.7,21.15 -1.04,42.17 -0.87,62.91 0.17,20.48 0.86,41.18 2.2,62.06 1.17,18.4 4.34,36.53 9.45,53.2 4.82,15.75 11.35,30.16 19.51,42.19 7.03,10.37 15.38,19.04 24.96,25.25 8.57,5.55 18.26,9.16 29.02,10.25 5.86,0.59 11.44,-1.03 16.66,-4.24 6.96,-4.29 13.52,-11.41 19.49,-20.13 8.47,-12.38 15.57,-27.54 21.2,-43.05 6.89,-19.01 11.58,-38.61 13.98,-54.52 3.17,-21.09 5.66,-41.81 7.57,-62.19 1.96,-20.75 3.43,-41.84 4.54,-63.13 1.14,-21.94 1.9,-43.38 2.42,-64.49 0.52,-21.66 0.81,-43.05 1,-64.27l0.34 -38.99 33.87 9.89c6.72,1.95 13.43,3.21 20.05,3.83 6.75,0.61 13.56,0.56 20.3,-0.13 6.77,-0.68 13.55,-2.06 20.3,-4.08 6.9,-2.05 13.62,-4.75 20.08,-8.01 1.55,-0.78 3.43,-1.45 5.12,-1.89 5.41,-1.4 10.79,-3.15 15.98,-5.18 4.87,-1.91 9.41,-4.03 13.43,-6.32 3.56,-2.03 6.77,-4.18 9.47,-6.39 2.38,-1.95 4.42,-3.99 6.02,-6.09 6.93,-9.03 13.17,-18.83 18.56,-29.2 5.33,-10.25 9.76,-20.9 13.17,-31.76 3.29,-10.51 5.69,-21.41 7.06,-32.48 1.34,-10.78 1.72,-21.64 1.04,-32.36 -0.06,-0.8 -0.17,-2.12 0,-2.85 0.08,-3.97 -0.03,-8.03 -0.32,-12.13 -0.27,-3.83 -0.75,-7.59 -1.4,-11.23 -0.53,-3.2 -1.35,-6.55 -2.38,-9.99 -1,-3.36 -2.13,-6.47 -3.36,-9.31 -0.43,-0.98 -0.84,-2 -1.11,-3.03 -1.64,-5.14 -3.73,-9.68 -6.18,-13.65 -2.39,-3.88 -5.22,-7.36 -8.38,-10.41 -3.29,-3.17 -7,-5.94 -11.03,-8.34 -4.26,-2.53 -8.81,-4.64 -13.54,-6.36l-2.48 -1.07c-7.94,-3.89 -16.57,-6.96 -25.61,-9.25 -9.62,-2.43 -19.47,-3.94 -29.25,-4.58 -10.49,-0.69 -21,-0.44 -31.16,0.66 -10.11,1.1 -20,3.1 -29.3,5.91l-35.26 10.67 1.2 -63.1c0.25,-12.19 0.73,-23.49 1.29,-34.38 0.6,-11.68 1.25,-22.01 1.89,-32.23l0.06 -0.93c2.12,-33.98 4.25,-68.1 3.04,-100.23 -0.76,-20.09 -3.05,-39.45 -7.32,-56.73 -3.67,-14.88 -8.82,-28.1 -15.76,-38.7 -5.57,-8.52 -12.42,-15.36 -20.7,-19.89 -7.76,-4.24 -17.03,-6.69 -27.96,-6.86l-0.23 0c-4.38,-0.07 -8.66,0.65 -12.74,2.03 -4.31,1.46 -8.46,3.73 -12.36,6.64 -4.26,3.19 -8.22,7.19 -11.81,11.8 -3.75,4.83 -7.04,10.19 -9.76,15.88 -9.13,22.56 -13.72,33.93 -16.69,49.72 -3.05,16.26 -4.78,38.72 -8.17,83.24l-1.67 27.78c-0.63,12.22 -1.33,23.45 -2.06,34.21 -3.09,42.29 -6.35,82.14 -11.1,124.19l-26.68 -3.22c-17.5,-2.11 -35.34,-2.28 -53.3,-1.5 -18.48,0.81 -37.25,2.63 -55.96,4.44 -11.68,1.13 -23.29,2.26 -32.7,2.99 -10.63,0.85 -21.77,1.52 -33.9,1.85 -26.56,0.71 -53.28,0.54 -80,0.37l-4.02 -0.03c-27.99,-0.16 -56.02,-0.32 -84.27,0.64l-44.3 1.52 18.7 -44.66c15.36,-36.69 29.1,-72.13 42.82,-107.56l0.34 -0.92c15.65,-40.31 31.29,-80.66 47.96,-119.82 15.17,-35.66 32.88,-75.43 50.57,-115.19l0.34 -0.75c11.11,-24.94 22.23,-49.93 34,-76.94 11.6,-26.61 22.91,-53.11 33.62,-79.28 6.81,-16.64 13.59,-34.13 20.21,-52.28 6.28,-17.18 12.27,-34.56 17.84,-51.94 5.4,-16.83 10.5,-33.89 15.22,-51.02 4.48,-16.25 8.66,-32.77 12.44,-49.41 1.58,-7.02 2.93,-14.18 3.85,-21.21 0.84,-6.43 1.37,-12.79 1.47,-18.88 0.09,-5.16 -0.15,-10.43 -0.77,-15.71 -0.55,-4.69 -1.39,-9.08 -2.55,-13.1l-2.74 -9.27 0.85 -3.02c-2.68,-8.85 -5.8,-16.31 -9.33,-22.37 -3.48,-6.04 -7.29,-10.42 -11.42,-13.18 -3.96,-2.65 -8.7,-4.09 -14.19,-4.29 -5.61,-0.21 -12.07,0.79 -19.38,2.98l-3.46 1.17c-21.41,7.24 -41.33,29.94 -59,57.29 -18.89,29.26 -34.93,63.47 -47.91,91.18l-3.86 8.24c-20.37,43.31 -40.39,87.93 -59.98,133.55 -20.28,47.24 -39.85,94.92 -58.64,142.72 -19.89,50.54 -38.94,101.15 -57.13,151.5 -19.19,53.05 -37.59,106.23 -55.17,159.16l-7.96 23.9c-13.28,39.55 -27.56,82.05 -38.6,124.53 -10.93,42.09 -18.8,84.44 -19.53,124.37 -0.2,11 1.63,20.27 4.92,28.07 3.19,7.56 7.89,13.92 13.51,19.27 6.5,6.19 14.28,11.24 22.6,15.38 8.91,4.4 18.2,7.77 27.21,10.4zm82.46 40.82c-30.9,-0.52 -61.4,-3.73 -90.73,-12.28 -10.69,-3.12 -21.6,-7.06 -31.83,-12.12l2.82 1.47c10.34,5.24 21.17,9.2 31.64,12.26 56.35,16.43 117.51,12.4 177.45,8.37l1.8 -0.12c26.13,-1.76 52.06,-3.5 77.62,-3.5 21.5,0 39.24,-0.08 53.9,-0.23 18.47,-0.17 37.75,-0.45 57.57,-0.78l48.88 -0.93 60.26 -1.37 0.09 -1.17 -53.33 1.22 -55.73 1.07c-17.37,0.29 -35.31,0.53 -53.98,0.69 -23,0.21 -42.44,0.33 -57.66,0.33 -12.98,0 -25.6,0.43 -38.05,1.06 -12.21,0.62 -25.99,1.56 -39.82,2.49 -29.97,2.02 -60.26,4.06 -90.9,3.54zm492.86 406.49c-12.04,-1.21 -23.15,-4.59 -33.29,-9.73 10.29,5.9 21.73,9.76 34.27,11.03 10.3,1.04 19.78,-1.46 28.39,-6.54l1.05 -0.62c-9.36,4.75 -19.51,6.98 -30.42,5.86zm119.47 -405.13l-0.01 1.5 12.36 2.2c5.95,1.05 11.69,1.67 17.18,1.88 5.78,0.21 11.58,0.01 17.34,-0.57 7.93,-0.81 15.84,-2.39 23.63,-4.69 7.93,-2.33 15.73,-5.41 23.28,-9.16l1.39 -0.69 1.34 -0.36c6.31,-1.68 12.37,-3.67 17.98,-5.92 4.63,-1.83 9.1,-3.9 13.35,-6.19 -3.44,1.69 -7.01,3.26 -10.66,4.69 -5.72,2.24 -11.9,4.24 -18.35,5.96l-1.08 0.4c-7.86,3.91 -15.93,7.12 -24.07,9.54 -8.32,2.48 -16.95,4.22 -25.78,5.11 -8.53,0.88 -17.23,0.94 -26.01,0.14 -7.3,-0.68 -14.62,-1.95 -21.89,-3.84zm137.61 -304.85c3.84,1.41 7.57,2.97 11.15,4.72 -4.41,-2.41 -9.04,-4.49 -13.8,-6.25l-1.34 -0.58c-9.23,-4.49 -19.08,-7.99 -29.25,-10.57 -10.82,-2.74 -21.96,-4.44 -33.04,-5.18 -8.98,-0.58 -18.01,-0.54 -26.89,0.07 -8.98,0.63 -17.82,1.86 -26.26,3.64l-13.35 2.81 -0.02 1.29c9.74,-2.7 20.16,-4.67 30.95,-5.85 11.81,-1.27 24,-1.57 36.16,-0.77 11.77,0.77 23.46,2.55 34.67,5.39 10.6,2.71 21,6.42 30.9,11.23l0.12 0.05zm-227.35 -352.49c15.22,0.21 28.49,3.54 39.95,9.39l-1.43 -0.82c-10.85,-6.06 -23.66,-9.53 -38.64,-9.75 -6.81,-0.1 -13.39,0.99 -19.61,3.09 -3.65,1.23 -7.2,2.82 -10.62,4.73 2.49,-1.17 5.04,-2.22 7.65,-3.1 7.06,-2.38 14.58,-3.63 22.47,-3.54l0.23 0zm-112.97 352.04l0.13 -1.19 -9.53 -0.76c-16.9,-1.33 -33.74,-1.17 -50.5,-0.29 -17.33,0.91 -34.54,2.57 -51.69,4.24 -12.06,1.16 -24.13,2.34 -32.83,3.03 -10.51,0.83 -21.23,1.5 -32.35,1.81 -26.47,0.7 -52.96,0.53 -79.41,0.37l-4.82 -0.04c-21.2,-0.12 -42.43,-0.24 -63.63,0.12l-18.38 0.31 -0.56 1.33c27.74,-0.9 55.55,-0.74 83.32,-0.57l4.09 0.03c26.36,0.16 52.74,0.33 79.12,-0.38 10.27,-0.27 21.14,-0.96 32.27,-1.84 12.39,-0.96 22.35,-1.93 32.24,-2.88 19.16,-1.86 38.36,-3.72 57.47,-4.55 18.61,-0.82 37.04,-0.69 55.06,1.26zm-128.66 -860.29c8.24,0.31 15.8,2.08 22.66,5.31 -6.39,-3.76 -13.48,-5.9 -21.25,-6.4 -9.42,-0.61 -20.03,1.09 -31.8,5.08l-2.72 0.92c-2.04,0.79 -4.06,1.66 -6.06,2.63l5.74 -1.94c12.11,-4.1 23.26,-5.98 33.43,-5.6zm-43.57 9.87l-0.46 0.23 0.46 -0.23zm-360.27 1129.78l-0.44 -0.23 0.44 0.23zm215.61 51.88l-0.62 0.04c-62.71,4.22 -126.74,8.53 -188.48,-9.47 -12.17,-3.55 -24.75,-8.16 -36.76,-14.24 -12.4,-6.28 -24.29,-14.14 -34.73,-24.09 -11.41,-10.87 -21.01,-23.95 -27.61,-39.7 -6.53,-15.53 -10.14,-33.66 -9.75,-54.86 0.84,-45.66 9.33,-92.49 21.12,-138.3 11.74,-45.64 26.56,-89.76 40.36,-130.82l7.96 -23.73c17.92,-53.88 36.5,-107.58 55.66,-160.62 18.69,-51.72 37.97,-102.96 57.78,-153.31 19.11,-48.58 38.93,-96.91 59.43,-144.64 19.36,-45.15 39.64,-90.34 60.85,-135.42l3.8 -8.13c14.52,-30.97 32.45,-69.22 54.51,-102.49 23.17,-34.95 51.05,-64.61 84.75,-76l15.31 -5.17 0.22 0.91c9.7,-2.08 18.93,-2.85 27.7,-2.28 14.02,0.91 26.75,5.18 38.2,12.84 11.12,7.44 20.6,17.81 28.48,31.09 7.39,12.45 13.42,27.67 18.15,45.63 0.56,2.01 0.95,4.13 1.16,6.27 0.17,1.54 0.23,3.09 0.22,4.64 1.47,6.21 2.53,12.65 3.22,19.25 0.78,7.38 1.06,15.03 0.93,22.78 -0.14,8.81 -0.84,17.63 -1.95,26.25 -1.22,9.52 -2.93,18.8 -4.93,27.64 -3.91,17.25 -8.32,34.68 -13.13,52.11 -4.96,17.97 -10.37,36.01 -16.12,53.92 -5.96,18.59 -12.25,36.9 -18.75,54.76 -6.6,18.13 -13.65,36.28 -20.98,54.22 -21.4,52.31 -44.94,105.17 -68.46,158l-0.67 1.49c-16.11,36.2 -32.24,72.44 -49.72,113.5 -8.65,20.34 -16.61,39.91 -24.2,59.03 -7.09,17.88 -15.2,38.8 -23.34,59.81l-0.18 0.5c-8.54,21.99 -17.06,43.97 -25.31,64.72 13.95,-0.05 27.93,0.02 41.89,0.11l4.87 0.03c26.08,0.16 52.21,0.33 78.43,-0.37 9.38,-0.25 19.85,-0.94 30.83,-1.81 12.79,-1.02 22.57,-1.97 32.37,-2.91 17.66,-1.72 35.38,-3.43 52.97,-4.36 13.21,-0.69 26.41,-0.98 39.58,-0.53l5.26 -69.39c0.73,-13.85 0.62,-43.09 3.14,-56.09 7.56,-98.91 7.65,-99.15 29.69,-153.57l0.64 -1.51c4.77,-10.24 10.64,-19.91 17.46,-28.66 6.66,-8.53 14.21,-16.09 22.53,-22.32 8.27,-6.18 17.3,-11.07 26.92,-14.31 9.25,-3.12 19.1,-4.74 29.4,-4.6 20.22,0.3 37.71,5.09 52.72,13.48 16.17,9.04 29.28,22.08 39.73,38.06 10.6,16.22 18.34,35.36 23.67,56.25 5.73,22.57 8.77,47.25 9.73,72.48 1.37,36.14 -0.84,71.44 -3.03,106.61l-0.01 0.33c-0.73,11.6 -1.46,23.13 -1.98,33.02l-0.79 16.81c3.94,-0.49 7.92,-0.87 11.92,-1.15 10.1,-0.7 20.42,-0.75 30.73,-0.07 12.96,0.85 25.92,2.83 38.4,5.99 11.83,3 23.36,7.09 34.25,12.31 7.65,2.88 15.01,6.36 21.9,10.53 7.17,4.32 13.94,9.46 20.2,15.51l0.06 0.05c6.34,6.14 12.09,13.22 17.11,21.31 4.93,7.98 9.1,16.79 12.34,26.5 2.04,4.89 3.88,10.02 5.46,15.37 1.64,5.59 3.02,11.35 4.06,17.21 1,5.84 1.75,11.61 2.18,17.3 0.4,5.24 0.58,10.93 0.52,17.03 0.91,14.93 0.4,29.75 -1.41,44.23 -1.87,14.99 -5.15,29.83 -9.66,44.25 -4.56,14.54 -10.4,28.65 -17.35,42.05 -7.02,13.54 -15.19,26.4 -24.32,38.29 -4.1,5.35 -8.9,10.28 -14.24,14.74 -5.36,4.5 -11.39,8.62 -17.91,12.32 -5.93,3.37 -12.4,6.45 -19.24,9.18 -6.54,2.64 -13.26,4.89 -20,6.75 -8.65,4.19 -17.57,7.67 -26.66,10.34 -9.45,2.79 -19.18,4.72 -29.09,5.73 -6.99,0.7 -14.11,0.94 -21.31,0.68l-4.06 -0.19c-0.2,13.53 -0.47,26.97 -0.82,40.23 -0.53,19.32 -1.23,38.21 -2.17,56.43 -1.15,21.96 -2.7,44.01 -4.79,66.15 -2.12,22.53 -4.74,44.54 -7.95,65.83 -2.94,19.54 -8.83,43.87 -17.58,67.81 -7.32,20.01 -16.68,39.8 -28.04,56.4 -10.78,15.75 -23.47,28.95 -38.14,37.59 -13.9,8.19 -29.35,12.22 -46.34,10.49 -19.19,-1.95 -36.44,-8.36 -51.68,-18.22 -15.94,-10.32 -29.63,-24.46 -41,-41.22 -11.62,-17.14 -20.75,-37.01 -27.37,-58.29 -6.84,-21.97 -11.05,-45.59 -12.56,-69.34 -1.36,-21.15 -2.06,-42.98 -2.23,-65.29 -0.18,-22.01 0.17,-44.07 0.91,-66.1 0.64,-19.44 1.55,-38.43 2.63,-57.06 0.81,-13.98 1.69,-27.51 2.61,-40.73l-81.52 1.64c-19.63,0.33 -38.95,0.6 -57.8,0.79 -22.67,0.22 -41.08,0.36 -54.14,0.36 -25.58,0 -50.72,1.69 -76.04,3.39z"/>
  <path class="fil3 str0" d="M3785.85 2919.92c-13.52,7.31 -29.59,13.63 -46,18.05 -15.65,4.2 -31.92,6.74 -46.97,6.82 -25,0.15 -49.42,-3.61 -72.63,-10.92 -23.65,-7.45 -46.13,-18.54 -66.8,-32.91 -6.18,-4.3 -12.14,-8.93 -17.87,-13.85 -51.23,-43.99 -73.62,-104.67 -74.07,-167.37 -0.43,-61.62 20.52,-125.23 56.11,-176.42 5.73,-8.23 11.94,-16.27 18.6,-24.03 11.59,-13.48 24.56,-24.88 38.5,-34.25 39.17,-26.34 85.86,-36.48 131.58,-32.4 45.52,4.07 90.18,22.26 125.47,52.57 13.98,12.01 26.53,25.96 37.13,41.72 9.79,14.55 20.27,32.98 28.38,51.94 6.9,16.13 12.18,32.79 14.09,48.11 1.71,13.81 1.96,27.79 1.11,41.75 -0.85,13.84 -2.76,27.44 -5.38,40.73 -5.03,25.39 -10.8,49.18 -19.87,72.07l0.05 0.02c-9.19,23.21 -21.66,45.01 -39.93,65.79l-0.03 -0.02c-8.98,10.24 -19.67,21.28 -31.11,31.12 -9.67,8.31 -19.96,15.85 -30.36,21.48zm-54.09 -12.22c14.14,-3.81 27.84,-9.18 39.25,-15.35 8.28,-4.48 16.74,-10.71 24.85,-17.69 10.27,-8.83 19.89,-18.77 27.96,-27.97l0 -0.06c15.65,-17.79 26.36,-36.56 34.29,-56.6l0.06 0c8.07,-20.36 13.41,-42.56 18.17,-66.58 2.41,-12.2 4.15,-24.46 4.89,-36.56 0.73,-11.97 0.5,-24.05 -0.99,-36.11 -1.53,-12.27 -5.94,-26.06 -11.76,-39.65 -7.32,-17.12 -16.76,-33.73 -25.56,-46.8 -8.94,-13.29 -19.59,-25.11 -31.5,-35.34 -30.36,-26.08 -68.73,-41.72 -107.82,-45.22 -38.9,-3.47 -78.47,5.06 -111.48,27.24 -11.58,7.79 -22.4,17.32 -32.12,28.63 -5.78,6.73 -11.35,13.95 -16.64,21.57 -32.1,46.15 -50.98,103.28 -50.6,158.41 0.38,54.06 19.48,106.2 63.16,143.71 4.72,4.05 9.86,8.02 15.43,11.89 18.1,12.59 37.7,22.28 58.22,28.74 20.35,6.41 41.6,9.71 63.18,9.58 12.04,-0.06 25.59,-2.23 39.01,-5.84zm328.12 -604.41c-48.45,-53.98 -107.08,-90.88 -171.19,-112.84 -69.73,-23.87 -146.07,-30.18 -223.04,-21.64 -65.38,7.24 -122.84,32.57 -172.47,69.44 -57.54,42.76 -104.73,101.14 -141.67,165.05l-18.14 31.38 -10.42 -34.75c-2.73,-9.13 -5.17,-18.19 -7.3,-27.15 -25.1,-105.88 -14.81,-221.27 28.8,-318.33 43.98,-97.9 121.74,-177.31 231.18,-210.14 6.98,-2.09 13.92,-3.96 20.82,-5.59 81.88,-19.41 144.2,32.29 204.27,82.14 25.35,21.04 50.28,41.73 75.19,55.37 30.15,16.55 60.24,28.11 90.59,32.16 29.86,3.98 60.31,0.73 91.78,-12.2 15.81,-6.49 29.68,-17.07 41.56,-30.08 13.62,-14.91 24.6,-32.94 32.94,-51.79 7.44,-31.3 4.39,-64.09 -4.8,-96.88 -9.54,-33.97 -25.62,-67.94 -43.64,-100.37 -3.32,-4.29 -6.69,-8.54 -10.11,-12.73 -3.54,-4.33 -7.11,-8.58 -10.73,-12.72 -39.68,-41.69 -80.89,-75.43 -127.67,-100.38 -46.64,-24.87 -99.2,-41.2 -161.76,-48.2 -72.65,-8.12 -147.69,-2.62 -220.61,13.49 -77.97,17.23 -153.6,46.56 -221.4,84.3 -134.12,74.67 -217.21,193.39 -266.67,329.14 -49.95,137.11 -65.76,291.64 -65.13,436.14 0.67,150.42 29.88,298.82 98.37,421.82 59.07,106.07 147.56,193.38 272.46,246.82 59.05,25.27 127.54,43.41 197.15,53.23 69.71,9.84 140.36,11.35 203.65,3.37 63.65,-8.03 124.66,-27.62 178.34,-59.14 50.16,-29.46 94,-69.41 127.63,-120.16 47.27,-71.29 77.91,-150.03 90.8,-231.54 12.81,-81 8.14,-164.89 -15.09,-247.06 -8.79,-31.12 -21.41,-61.64 -37.25,-90.41 -15.85,-28.8 -34.86,-55.77 -56.41,-79.78l-0.03 0.03zm-161.14 -142.5c69.1,23.66 132.26,63.41 184.43,121.54l0 0.06c23.28,25.94 43.7,54.87 60.6,85.58 16.96,30.8 30.49,63.55 39.95,97.02 24.44,86.47 29.34,174.85 15.82,260.31 -13.61,86.06 -45.86,169.05 -95.57,244.03 -36.35,54.83 -83.71,98.01 -137.93,129.84 -57.41,33.71 -122.47,54.64 -190.23,63.18 -66.17,8.35 -139.67,6.82 -211.86,-3.36 -72.32,-10.21 -143.57,-29.09 -205.12,-55.43 -131.82,-56.41 -225.21,-148.54 -287.53,-260.44 -71.22,-127.91 -101.6,-281.54 -102.28,-436.88 -0.65,-147.73 15.61,-305.97 66.96,-446.94 51.86,-142.32 139.33,-266.99 280.89,-345.8 70.33,-39.15 148.83,-69.59 229.85,-87.48 76.27,-16.85 154.77,-22.61 230.78,-14.11 66.6,7.45 122.83,24.99 173.04,51.76 50.07,26.7 93.82,62.43 135.66,106.41l0.43 0.49c4.07,4.65 8.02,9.33 11.87,14.04 3.84,4.71 7.61,9.47 11.29,14.25l1.29 1.97c19.34,34.68 36.68,71.22 47.05,108.15 10.68,38.05 14.01,76.56 4.75,114.05l-0.86 2.52c-9.7,22.3 -22.71,43.78 -39.01,61.64 -14.82,16.22 -32.42,29.53 -52.84,37.93 -36.89,15.15 -72.63,18.96 -107.71,14.27 -34.58,-4.61 -68.23,-17.44 -101.56,-35.7l-0.06 0c-27.58,-15.11 -53.62,-36.72 -80.1,-58.69 -54.17,-44.95 -110.36,-91.57 -177.06,-75.77 -6.64,1.57 -13,3.28 -19.1,5.11 -99.96,29.99 -171.15,102.88 -211.57,192.86 -39.47,87.85 -49.74,191.91 -29.04,288.55 35.64,-54.77 79.12,-104.38 130.58,-142.62 53.89,-40.04 116.4,-67.56 187.67,-75.45 81.4,-9.04 162.34,-2.29 236.52,23.11z"/>
  <g id="_2815457531104">
   <path class="fil4" d="M3245.81 1057.7c0.53,9.43 -12.01,13.12 16.2,51.02 2.33,2.89 3.47,6.63 6.97,8.68 1.73,1.02 6.18,-1.71 11.55,-5.4l0.94 1.33c-4.27,4.08 -6.95,9.56 -2.24,13.95 4.44,6.6 73,103.91 77.45,110.5 1.6,2.4 3.24,4.78 4.78,7.23 7.57,12.02 15.15,24.04 22.71,36.06 6.02,9.54 11.63,19.36 17.43,29.05 39.18,65.58 62.01,84.98 77.6,93.18l20.3 -14.35 -1.37 -2.65c0.57,0.63 1.2,1.37 1.91,2.27l15.41 -10.9c-1.97,-2.49 -3.97,-4.95 -5.98,-7.42 -8.01,-9.82 -16.29,-19.47 -24.96,-28.8 -7.94,-8.53 -15.43,-17.39 -23.13,-26.1 -2.31,-2.62 -4.35,-5.43 -6.45,-8.21 -4.82,-6.39 -9.64,-12.77 -14.46,-19.15 -1.97,-2.62 -3.98,-5.21 -5.8,-7.93 -4.05,-6.02 -8.09,-12.04 -12.13,-18.07 -5.57,-8.28 -11.09,-16.58 -16.39,-25.05 -13.36,-21.29 -26.58,-42.67 -39.75,-64.08 -5.73,-9.32 -11.8,-18.4 -17.72,-27.58 -5.14,-7.96 -10.29,-15.92 -15.49,-23.84 -6.48,-9.9 -13.05,-19.74 -19.44,-29.7 -7.43,-11.53 -14.82,-23.07 -23.14,-33.97 -5.26,-6.87 -10.86,-13.49 -16.64,-19.97l-28.16 19.9z"/>
   <path class="fil4" d="M3081.57 1265.5c8.92,-3.08 7.59,-16.08 53.35,-4.34 3.56,1.06 7.45,0.69 10.68,3.15 1.59,1.22 0.75,6.38 -0.63,12.74l1.59 0.37c2.16,-5.5 6.22,-10.05 12.06,-7.36 7.79,1.6 123.82,28.16 131.61,29.79 2.83,0.57 5.66,1.18 8.51,1.69 13.99,2.44 27.98,4.9 41.98,7.34 11.11,1.95 22.32,3.43 33.48,5.11 75.53,11.41 102.14,25.18 115.64,36.5l-5.59 24.23 -2.97 -0.27c0.8,0.29 1.72,0.59 2.83,0.91l-4.24 18.39c-3.05,-0.88 -6.1,-1.8 -9.14,-2.72 -12.12,-3.69 -24.19,-7.7 -36.11,-12.19 -10.9,-4.11 -21.95,-7.68 -32.92,-11.5 -3.3,-1.15 -6.68,-1.97 -10.05,-2.86 -7.73,-2.04 -15.46,-4.08 -23.2,-6.12 -3.17,-0.83 -6.32,-1.71 -9.53,-2.37 -7.1,-1.47 -14.21,-2.92 -21.32,-4.38 -9.77,-2.01 -19.55,-3.97 -29.4,-5.67 -24.76,-4.29 -49.56,-8.41 -74.36,-12.49 -10.79,-1.77 -21.5,-3.95 -32.24,-5.95 -9.31,-1.74 -18.63,-3.48 -27.93,-5.29 -11.62,-2.25 -23.21,-4.59 -34.85,-6.74 -13.48,-2.5 -26.97,-4.97 -40.21,-8.54 -8.35,-2.26 -16.59,-4.94 -24.79,-7.83l7.75 -33.6z"/>
  </g>
  <g id="_2815457530816">
   <path class="fil4" d="M1809.45 1057.7c0.54,9.43 -12.01,13.12 16.21,51.02 2.32,2.89 3.46,6.63 6.96,8.68 1.73,1.02 6.18,-1.71 11.55,-5.4l0.95 1.33c-4.27,4.08 -6.95,9.56 -2.25,13.95 4.44,6.6 73,103.91 77.45,110.5 1.61,2.4 3.24,4.78 4.79,7.23 7.56,12.02 15.14,24.04 22.71,36.06 6.02,9.54 11.63,19.36 17.42,29.05 39.18,65.58 62.01,84.98 77.6,93.18l20.31 -14.35 -1.38 -2.65c0.57,0.63 1.2,1.37 1.91,2.27l15.42 -10.9c-1.98,-2.49 -3.98,-4.95 -5.99,-7.42 -8.01,-9.82 -16.29,-19.47 -24.96,-28.8 -7.93,-8.53 -15.43,-17.39 -23.13,-26.1 -2.31,-2.62 -4.35,-5.43 -6.45,-8.21 -4.81,-6.39 -9.63,-12.77 -14.46,-19.15 -1.96,-2.62 -3.97,-5.21 -5.8,-7.93 -4.05,-6.02 -8.09,-12.04 -12.13,-18.07 -5.56,-8.28 -11.09,-16.58 -16.39,-25.05 -13.36,-21.29 -26.57,-42.67 -39.75,-64.08 -5.73,-9.32 -11.8,-18.4 -17.72,-27.58 -5.14,-7.96 -10.28,-15.92 -15.48,-23.84 -6.49,-9.9 -13.05,-19.74 -19.45,-29.7 -7.42,-11.53 -14.82,-23.07 -23.14,-33.97 -5.26,-6.87 -10.86,-13.49 -16.64,-19.97l-28.16 19.9z"/>
   <path class="fil4" d="M1645.21 1265.5c8.93,-3.08 7.59,-16.08 53.35,-4.34 3.56,1.06 7.45,0.69 10.68,3.15 1.6,1.22 0.75,6.38 -0.63,12.74l1.6 0.37c2.15,-5.5 6.21,-10.05 12.05,-7.36 7.8,1.6 123.83,28.16 131.62,29.79 2.83,0.57 5.65,1.18 8.5,1.69 13.99,2.44 27.98,4.9 41.98,7.34 11.11,1.95 22.32,3.43 33.49,5.11 75.53,11.41 102.14,25.18 115.63,36.5l-5.58 24.23 -2.97 -0.27c0.79,0.29 1.72,0.59 2.82,0.91l-4.24 18.39c-3.05,-0.88 -6.09,-1.8 -9.13,-2.72 -12.13,-3.69 -24.2,-7.7 -36.12,-12.19 -10.9,-4.11 -21.94,-7.68 -32.92,-11.5 -3.3,-1.15 -6.68,-1.97 -10.04,-2.86 -7.74,-2.04 -15.47,-4.08 -23.2,-6.12 -3.17,-0.83 -6.33,-1.71 -9.54,-2.37 -7.1,-1.47 -14.21,-2.92 -21.31,-4.38 -9.78,-2.01 -19.56,-3.97 -29.4,-5.67 -24.77,-4.29 -49.56,-8.41 -74.37,-12.49 -10.79,-1.77 -21.49,-3.95 -32.23,-5.95 -9.32,-1.74 -18.64,-3.48 -27.94,-5.29 -11.61,-2.25 -23.21,-4.59 -34.85,-6.74 -13.48,-2.5 -26.97,-4.97 -40.2,-8.54 -8.35,-2.26 -16.6,-4.94 -24.79,-7.83l7.74 -33.6z"/>
  </g>
  <rect class="fil5" x="11.78" y="23.13" width="4343.39" height="4343.57"/>
 </g>
</svg>
