<?xml version="1.0" encoding="UTF-8"?>
<!DOCTYPE svg PUBLIC "-//W3C//DTD SVG 1.1//EN" "http://www.w3.org/Graphics/SVG/1.1/DTD/svg11.dtd">
<!-- Creator: CorelDRAW 2018 (64-Bit) -->
<svg xmlns="http://www.w3.org/2000/svg" xml:space="preserve" width="43.4338mm" height="43.4338mm" version="1.1" style="shape-rendering:geometricPrecision; text-rendering:geometricPrecision; image-rendering:optimizeQuality; fill-rule:evenodd; clip-rule:evenodd"
viewBox="0 0 4343.38 4343.38"
 xmlns:xlink="http://www.w3.org/1999/xlink">
 <defs>
  <style type="text/css">
   <![CDATA[
    .fil4 {fill:none}
    .fil1 {fill:#2B2A29}
    .fil0 {fill:#1D1D1B}
    .fil2 {fill:#2B2A29;fill-rule:nonzero}
    .fil3 {fill:black;fill-rule:nonzero}
   ]]>
  </style>
 </defs>
 <g id="Слой_x0020_1">
  <metadata id="CorelCorpID_0Corel-Layer"/>
  <path class="fil0" d="M4093.54 2332.03c-86.91,8.6 -183.78,-13.26 -270.42,-23.32 -19.43,-2.28 -20.56,-31.88 0,-31.18 88.59,2.87 189.3,-4.27 275.45,17.54 21.86,5.52 15.04,34.96 -5.03,36.96z"/>
  <path class="fil0" d="M1328.32 1626.46c-86.91,8.6 -183.78,-13.26 -270.42,-23.33 -19.43,-2.27 -20.56,-31.87 0,-31.17 88.59,2.87 189.3,-4.27 275.45,17.54 21.86,5.52 15.04,34.96 -5.03,36.96z"/>
  <path class="fil0" d="M3915.86 1875.74c-86.91,8.6 -183.78,-13.26 -270.42,-23.33 -19.43,-2.27 -20.56,-31.87 0,-31.17 88.59,2.87 189.3,-4.27 275.45,17.54 21.86,5.52 15.05,34.96 -5.03,36.96z"/>
  <path class="fil0" d="M3952.31 1762.75c-86.91,8.61 -183.78,-13.26 -270.41,-23.32 -19.43,-2.27 -20.56,-31.88 0,-31.18 88.58,2.87 189.29,-4.27 275.45,17.54 21.86,5.52 15.04,34.96 -5.04,36.96z"/>
  <path class="fil0" d="M4029.91 1578.16c-86.9,-8.6 -183.77,13.26 -270.41,23.33 -19.43,2.27 -20.56,31.87 0,31.17 88.59,-2.87 189.3,4.27 275.45,-17.54 21.86,-5.52 15.04,-34.96 -5.04,-36.96z"/>
  <path class="fil0" d="M4107.52 1498.66c-86.91,8.61 -183.78,-13.26 -270.42,-23.32 -19.43,-2.27 -20.56,-31.88 0,-31.17 88.59,2.86 189.3,-4.28 275.45,17.53 21.86,5.52 15.04,34.96 -5.03,36.96z"/>
  <path class="fil0" d="M4110.35 1353.82c-86.91,8.6 -183.77,-13.26 -270.41,-23.33 -19.43,-2.27 -20.56,-31.87 0,-31.17 88.59,2.87 189.3,-4.28 275.45,17.53 21.86,5.53 15.04,34.97 -5.04,36.97z"/>
  <path class="fil1" d="M4015.1 2120.26c-80.57,33.71 -179.59,41.21 -265.37,56.98 -19.24,3.53 -29,-24.44 -9.14,-29.8 85.54,-23.23 179.73,-59.59 268.49,-63.99 22.52,-1.13 24.63,29.01 6.02,36.81z"/>
  <path class="fil1" d="M2870.4 1893.16c-68.93,11.6 -148.31,3.58 -218.54,2.72 -15.75,-0.2 -19.07,-19.84 -2.54,-20.76 71.21,-4.07 151.32,-15.63 222.11,-6.92 17.97,2.2 14.9,22.27 -1.03,24.96z"/>
  <path class="fil1" d="M2805.8 1960.43c-53.33,0.09 -110.93,-10.41 -163,-16.6 -11.68,-1.4 -10.65,-11.42 1.81,-10.52 53.67,3.83 115.3,4.67 166.4,14.81 12.96,2.57 7.11,12.28 -5.21,12.31z"/>
  <path class="fil1" d="M2304.28 2417.19c-53.33,0.09 -110.93,-10.41 -163,-16.6 -11.68,-1.4 -10.65,-11.42 1.81,-10.52 53.67,3.83 115.3,4.67 166.4,14.81 12.96,2.57 7.11,12.28 -5.21,12.31z"/>
  <path class="fil1" d="M2830.43 2614.15c-53.33,0.1 -110.93,-10.4 -163,-16.6 -11.68,-1.39 -10.65,-11.41 1.81,-10.51 53.68,3.83 115.3,4.67 166.4,14.81 12.96,2.57 7.11,12.28 -5.21,12.3z"/>
  <path class="fil1" d="M2791.6 2561.03c-53.32,0.09 -110.92,-10.41 -163,-16.6 -11.67,-1.4 -10.64,-11.42 1.82,-10.52 53.67,3.83 115.3,4.67 166.39,14.81 12.97,2.57 7.11,12.28 -5.21,12.31z"/>
  <path class="fil1" d="M2752.78 2507.9c-53.32,0.1 -110.93,-10.4 -163,-16.6 -11.68,-1.39 -10.64,-11.41 1.81,-10.51 53.68,3.83 115.31,4.67 166.4,14.81 12.97,2.56 7.11,12.27 -5.21,12.3z"/>
  <path class="fil1" d="M2713.96 2454.78c-53.33,0.09 -110.93,-10.41 -163,-16.6 -11.68,-1.4 -10.65,-11.42 1.81,-10.52 53.68,3.83 115.3,4.67 166.4,14.81 12.96,2.57 7.11,12.28 -5.21,12.31z"/>
  <path class="fil1" d="M2516.47 2374.48c53.32,-0.1 110.93,10.4 163,16.59 11.68,1.4 10.64,11.42 -1.81,10.52 -53.68,-3.83 -115.31,-4.67 -166.4,-14.81 -12.97,-2.57 -7.11,-12.28 5.21,-12.3z"/>
  <path class="fil1" d="M2636.31 2348.52c-53.32,0.1 -110.93,-10.4 -163,-16.59 -11.68,-1.4 -10.64,-11.42 1.81,-10.52 53.68,3.83 115.31,4.67 166.4,14.81 12.97,2.57 7.11,12.28 -5.21,12.3z"/>
  <path class="fil1" d="M2410.4 2295.4c53.33,0.09 110.93,-10.41 163,-16.6 11.68,-1.39 10.65,-11.42 -1.81,-10.51 -53.68,3.82 -115.3,4.67 -166.4,14.8 -12.96,2.57 -7.11,12.28 5.21,12.31z"/>
  <path class="fil1" d="M2594.13 1981.22c53.32,-0.1 110.92,10.4 163,16.6 11.67,1.39 10.64,11.41 -1.82,10.51 -53.67,-3.83 -115.3,-4.67 -166.39,-14.81 -12.97,-2.57 -7.11,-12.28 5.21,-12.3z"/>
  <path class="fil1" d="M2092.61 2437.98c53.32,-0.1 110.93,10.4 163,16.6 11.67,1.39 10.64,11.41 -1.82,10.51 -53.67,-3.83 -115.3,-4.67 -166.39,-14.81 -12.97,-2.57 -7.11,-12.28 5.21,-12.3z"/>
  <path class="fil1" d="M2699.75 2056.32c-53.33,0.1 -110.93,-10.41 -163,-16.6 -11.68,-1.39 -10.65,-11.41 1.81,-10.51 53.68,3.82 115.3,4.67 166.4,14.8 12.96,2.57 7.11,12.28 -5.21,12.31z"/>
  <path class="fil1" d="M2198.23 2513.08c-53.33,0.1 -110.93,-10.41 -163,-16.6 -11.68,-1.39 -10.65,-11.41 1.81,-10.51 53.68,3.83 115.3,4.67 166.4,14.81 12.96,2.56 7.11,12.27 -5.21,12.3z"/>
  <path class="fil1" d="M2646.72 2104.27c-53.32,0.09 -110.93,-10.41 -163,-16.6 -11.67,-1.4 -10.64,-11.42 1.82,-10.52 53.67,3.83 115.3,4.67 166.39,14.81 12.97,2.57 7.11,12.28 -5.21,12.31z"/>
  <path class="fil1" d="M2145.2 2561.03c-53.32,0.09 -110.93,-10.41 -163,-16.6 -11.67,-1.4 -10.64,-11.42 1.82,-10.52 53.67,3.83 115.3,4.67 166.39,14.81 12.97,2.57 7.11,12.28 -5.21,12.31z"/>
  <path class="fil1" d="M2459.16 2157.4c53.32,0.1 110.93,-10.4 163,-16.6 11.68,-1.39 10.64,-11.41 -1.81,-10.51 -53.68,3.83 -115.31,4.67 -166.4,14.81 -12.97,2.56 -7.11,12.27 5.21,12.3z"/>
  <path class="fil1" d="M1957.64 2614.16c53.32,0.1 110.93,-10.4 163,-16.6 11.68,-1.39 10.64,-11.41 -1.81,-10.51 -53.68,3.83 -115.31,4.67 -166.4,14.81 -12.97,2.57 -7.11,12.28 5.21,12.3z"/>
  <path class="fil1" d="M2540.67 2200.16c-53.32,0.1 -110.92,-10.41 -163,-16.6 -11.67,-1.39 -10.64,-11.41 1.82,-10.51 53.67,3.82 115.3,4.67 166.39,14.8 12.97,2.57 7.11,12.28 -5.21,12.31z"/>
  <path class="fil1" d="M2039.15 2656.92c-53.32,0.1 -110.92,-10.41 -163,-16.6 -11.67,-1.39 -10.64,-11.41 1.82,-10.51 53.67,3.83 115.3,4.67 166.39,14.81 12.97,2.56 7.11,12.27 -5.21,12.3z"/>
  <path class="fil1" d="M1249.88 1414.69c-80.57,33.71 -179.59,41.2 -265.37,56.98 -19.24,3.52 -29,-24.44 -9.14,-29.8 85.54,-23.23 179.73,-59.59 268.49,-63.99 22.52,-1.13 24.63,29.01 6.02,36.81z"/>
  <path class="fil1" d="M3916.6 1956.93c-78.28,38.71 -176.63,52.44 -261.25,73.59 -18.98,4.73 -30.48,-22.57 -11,-29.17 83.9,-28.57 175.61,-70.79 263.92,-80.78 22.4,-2.55 26.41,27.4 8.33,36.36z"/>
  <path class="fil1" d="M3748.61 3106.24c-106.42,14.28 -225.03,-22 -331.11,-38.7 -23.79,-3.77 -25.18,-52.88 0,-51.72 108.47,4.76 231.78,-7.09 337.27,29.09 26.77,9.16 18.43,58.01 -6.16,61.33z"/>
  <path class="fil1" d="M1038.29 2435.69c-106.42,14.28 -225.03,-21.99 -331.12,-38.69 -23.79,-3.77 -25.18,-52.89 0,-51.72 108.47,4.76 231.79,-7.1 337.28,29.09 26.77,9.16 18.42,58 -6.16,61.32z"/>
  <path class="fil1" d="M919.58 2495.17c-106.41,-14.27 -225.03,22 -331.11,38.7 -23.79,3.77 -25.18,52.88 0,51.72 108.47,-4.76 231.79,7.1 337.28,-29.09 26.77,-9.16 18.42,-58.01 -6.17,-61.33z"/>
  <path class="fil1" d="M800.88 2641.81c-106.41,-14.28 -225.03,21.99 -331.11,38.69 -23.79,3.77 -25.18,52.89 0,51.72 108.47,-4.76 231.79,7.1 337.28,-29.09 26.77,-9.16 18.42,-58 -6.17,-61.32z"/>
  <path class="fil1" d="M1324.15 2784.48c-106.42,-14.27 -225.03,22 -331.11,38.7 -23.79,3.77 -25.18,52.89 0,51.72 108.47,-4.76 231.78,7.1 337.27,-29.09 26.77,-9.16 18.43,-58 -6.16,-61.33z"/>
  <path class="fil1" d="M1392.38 2993.46c-106.42,14.28 -225.03,-21.99 -331.11,-38.69 -23.79,-3.77 -25.18,-52.89 0,-51.72 108.47,4.76 231.78,-7.1 337.27,29.09 26.77,9.16 18.43,58 -6.16,61.32z"/>
  <path class="fil1" d="M1343.91 3139.79c-106.42,14.28 -225.03,-21.99 -331.11,-38.7 -23.79,-3.76 -25.18,-52.88 0,-51.72 108.47,4.77 231.78,-7.09 337.27,29.1 26.77,9.16 18.42,58 -6.16,61.32z"/>
  <path class="fil1" d="M3857.11 3004.06c-106.42,9.65 -225.03,-14.87 -331.11,-26.15 -23.79,-2.55 -25.18,-35.75 0,-34.96 108.47,3.22 231.78,-4.79 337.27,19.66 26.77,6.19 18.43,39.21 -6.16,41.45z"/>
  <path class="fil1" d="M1125.92 2298.49c-106.41,9.65 -225.03,-14.87 -331.11,-26.16 -23.79,-2.54 -25.18,-35.74 0,-34.95 108.47,3.22 231.79,-4.8 337.28,19.66 26.77,6.19 18.42,39.2 -6.17,41.45z"/>
  <path class="fil1" d="M3965.61 2830.68c-106.42,-11.42 -225.03,17.6 -331.11,30.96 -23.79,3.01 -25.18,42.3 0,41.37 108.47,-3.81 231.78,5.68 337.27,-23.27 26.77,-7.33 18.43,-46.4 -6.16,-49.06z"/>
  <path class="fil1" d="M1231.01 2096.96c-106.41,-11.42 -225.03,17.59 -331.11,30.95 -23.79,3.02 -25.18,42.31 0,41.38 108.47,-3.81 231.79,5.67 337.28,-23.27 26.77,-7.33 18.42,-46.41 -6.17,-49.06z"/>
  <path class="fil1" d="M4056.75 2712.68c-86.91,11.42 -183.78,-17.59 -270.42,-30.95 -19.43,-3.01 -20.56,-42.3 0,-41.37 88.59,3.81 189.3,-5.67 275.45,23.27 21.86,7.33 15.05,46.4 -5.03,49.05z"/>
  <path class="fil1" d="M1291.53 2007.11c-86.91,11.42 -183.78,-17.59 -270.42,-30.95 -19.43,-3.01 -20.56,-42.3 0,-41.37 88.59,3.81 189.3,-5.67 275.45,23.27 21.86,7.33 15.05,46.4 -5.03,49.05z"/>
  <path class="fil1" d="M4084.09 2580.25c-80.76,8.8 -170.77,-13.56 -251.27,-23.85 -18.05,-2.33 -19.1,-32.6 0,-31.88 82.31,2.93 175.89,-4.37 255.94,17.93 20.32,5.65 13.98,35.75 -4.67,37.8z"/>
  <path class="fil1" d="M1318.87 1874.68c-80.76,8.8 -170.77,-13.56 -251.27,-23.85 -18.05,-2.33 -19.1,-32.6 0,-31.88 82.31,2.93 175.89,-4.38 255.94,17.93 20.32,5.64 13.98,35.75 -4.67,37.8z"/>
  <path class="fil1" d="M4087.05 2476.92c-66.87,4.84 -141.4,-7.45 -208.06,-13.11 -14.95,-1.28 -15.83,-17.92 0,-17.53 68.16,1.61 145.65,-2.4 211.93,9.86 16.83,3.1 11.58,19.65 -3.87,20.78z"/>
  <path class="fil1" d="M1356.4 1760.43c-66.87,4.84 -141.41,-7.46 -208.07,-13.11 -14.95,-1.28 -15.82,-17.92 0,-17.53 68.16,1.61 145.65,-2.4 211.94,9.86 16.82,3.1 11.58,19.65 -3.87,20.78z"/>
  <path class="fil2" d="M2094.27 1727.05c18.25,18.84 35.86,38.55 53.14,58.68 17.42,20.28 33.86,40.23 50.27,60.15l11.47 13.93c7.84,9.51 15.71,19.07 22.93,27.59 7.65,9.02 15.42,17.92 23.39,26.55 20.41,21.99 40.9,43.86 61.52,65.66 17.23,18.15 35.13,37.12 53.05,56.11l0.83 -0.77c8.44,-7.81 16.9,-15.64 25.86,-24.07l13.86 -13.18 13.75 -13.39 16.16 -16.07c14.75,-14.8 29.48,-29.6 44.28,-44.35 12.6,-12.49 26.04,-25.02 39.89,-37.53 13.36,-12.09 26.92,-23.98 40.46,-35.85l19.43 -17.08 19.28 -17.18c11.25,-10.15 22.98,-21.51 34.71,-32.87l12.31 -11.9 12.27 -11.66 14.89 -13.72 7.59 -6.74 15.53 -13.19c1.33,-1.16 2.84,-2.58 4.63,-4.4l3.7 -3.85c3.7,-4.07 7.43,-8.25 11.22,-12.23l2.85 -2.13 1.24 -0.7c4.1,-2.3 8.58,-3.87 13.45,-4.76l0.06 -0.05c4.4,-0.8 9.03,-0.91 13.87,-0.35 4.42,0.51 8.8,1.55 13.12,3.09 3.83,1.37 7.97,3.3 12.4,5.78l0.87 0.48c6.37,3.98 18.39,10.26 23.52,14.86 5.28,3.97 9.94,7.65 13.93,11 4.04,3.41 8.5,7.39 13.36,11.95 4.43,4.16 8.71,8.37 12.78,12.62 4.02,4.19 8.09,8.66 12.17,13.39 4.21,4.76 8.05,9.33 11.48,13.63 3.85,4.85 7.46,9.64 10.8,14.33 3.39,4.76 6.7,9.69 9.91,14.76 2.97,4.7 5.97,9.78 8.99,15.2 0.45,0.67 0.72,1.26 1.09,1.99l10.62 23.91c1.64,4.21 2.89,8.56 3.76,13 0.93,4.74 1.29,9.24 1.09,13.47l-0.01 0.12c-0.24,4.75 -1.19,9.35 -2.85,13.75 -1.74,4.56 -4.19,8.71 -7.38,12.43l-0.61 0.72 -2.55 2.42 -1.77 1.14c-1.7,1.1 -3.89,2.56 -6.96,4.71 -2.43,1.7 -4.58,3.26 -6.31,4.63l-0.07 0.06c-2.18,1.72 -4.11,3.34 -5.71,4.81 -1.48,1.36 -3.12,3.04 -4.96,5.08l-5.08 5.6c-2.66,2.93 -5.61,6.21 -10.68,11.98 -3.73,4.25 -7.16,8.25 -10.02,11.8 -2.05,1.82 -10.87,13.32 -13.18,16.14l-0.07 0.17 -13.56 16.02c-4.9,5.68 -9.57,10.82 -14.01,15.46 -4.07,4.28 -9.02,9.2 -14.55,14.55 -4.48,4.33 -9.48,9.01 -14.76,13.86l-14.81 13.39c-10.14,9.06 -20.33,18.24 -30.59,27.57 -9.97,9.06 -20.06,18.32 -30.3,27.86 -9.67,9.01 -19.57,18.39 -29.75,28.19 -9.33,8.98 -19.02,18.51 -29.16,28.71 -15.34,15.45 -31.68,31.25 -48.53,47.22 -10.85,10.27 -22.05,20.74 -33.39,31.27l7.19 7.89 13.05 14.09 13.15 13.86 15.86 16.37c14.63,14.96 29.26,29.9 43.83,44.92 12.46,12.91 24.74,26.43 36.91,40.23 12.12,13.75 23.75,27.38 35.38,40.98 11.26,13.18 22.52,26.38 33.76,39.15 10.2,11.61 21.28,23.36 32.35,35.1 4,4.1 7.92,8.39 11.85,12.57 10.77,11.63 21.3,23.17 31.68,35.16l12.93 15.63c1.26,1.48 2.68,3.04 4.31,4.71l4 3.81 -0.05 0.05c3.98,3.73 8.06,7.46 11.95,11.27l1.94 2.59 0.83 1.53c2.33,4.29 3.88,8.8 4.67,13.48l0 0.12c0.76,4.59 0.84,9.22 0.24,13.87 -0.52,4.04 -1.64,8.38 -3.37,13.02l0 0.12c-1.42,3.8 -3.39,7.88 -5.9,12.22l-0.47 0.88 -13.83 21.5 -1.32 1.84c-3.46,4.47 -7.22,9.07 -11.28,13.77 -4.3,4.98 -8.31,9.41 -12,13.23 -3.59,3.73 -7.9,7.95 -12.89,12.63 -4.36,4.07 -8.86,8.06 -13.47,11.95 -4.97,4.28 -9.57,8.04 -13.79,11.32l-0.06 0.05c-4.95,3.83 -9.75,7.36 -14.39,10.57 -4.95,3.43 -9.92,6.68 -14.87,9.72 -4.9,3.01 -10.02,5.95 -15.31,8.81l-2.05 1.02 -23.04 9.9 -1.06 0.36c-4.39,1.64 -8.74,2.86 -12.99,3.63l0.02 0.07c-4.6,0.85 -9.14,1.13 -13.6,0.86 -4.83,-0.3 -9.42,-1.3 -13.71,-2.98 -4.41,-1.7 -8.52,-4.23 -12.28,-7.53l-0.89 -0.78 -2.52 -2.74 -0.92 -1.48c-1.88,-3.01 -3.45,-5.48 -4.54,-7.09l-0.06 -0.06c-1.27,-1.88 -2.77,-3.96 -4.55,-6.26l-0.06 -0.07c-1.79,-2.33 -3.39,-4.3 -4.71,-5.78 -1.46,-1.64 -3.13,-3.32 -5,-5.05l-5.53 -5.15c-3.08,-2.86 -6.14,-5.7 -11.84,-10.84 -4.31,-3.88 -8.33,-7.42 -11.65,-10.17l-0.13 -0.01c-7.99,-6.65 -25.79,-20.23 -31.98,-27.22 -4.99,-4.41 -10.09,-9.19 -15.24,-14.25 -4.36,-4.28 -9.2,-9.26 -14.36,-14.74 -4.43,-4.71 -9,-9.71 -13.61,-14.87l-13.2 -14.98c-9.06,-10.38 -18.13,-20.74 -27.18,-30.94 -9.07,-10.25 -18.24,-20.5 -27.51,-30.72 -8.94,-9.85 -18.17,-19.86 -27.74,-30.06 -9,-9.59 -18.45,-19.44 -28.4,-29.6 -11.66,-11.9 -23.61,-24.46 -35.69,-37.4l-19.76 -21.38 -73.05 69.94c-9.78,9.38 -20.02,18.88 -30.6,28.43 -10.3,9.3 -20.71,18.44 -31.16,27.46 -10.73,9.25 -21.24,18.15 -31.57,26.81 -10.76,9.02 -21.26,17.73 -31.68,26.35l-15.7 13.04 -15.55 13.11 -15.43 13.2 -15.25 13.32 -7.86 7.04 -15.45 14.28c-6.05,5.77 -12.01,11.53 -17.93,17.44l-9.78 10.21c-2.95,3.22 -5.83,6.41 -8.45,9.44 -2.49,2.89 -5.05,6.01 -7.7,9.46 -2.51,3.26 -4.81,6.46 -6.8,9.53l-0.07 0.06c-1.6,2.46 -3.14,5.04 -4.6,7.74l-0.25 1.63 -0.07 0.05 -0.27 1.82 0.05 0.01 -0.19 2.05 0.03 0.54c-0.3,5.28 -1.35,10.08 -3.14,14.36 -2.22,5.34 -5.52,9.79 -9.87,13.36 -4.27,3.5 -9.24,5.85 -14.86,7.05 -4.41,0.94 -9.26,1.12 -14.52,0.54l-2.64 -0.31 -22.66 -7.7 -1.45 -0.77c-3.97,-2.13 -8.46,-4.77 -13.44,-7.93 -4.81,-3.01 -9.23,-6.01 -13.24,-8.97 -4.23,-3.11 -8.46,-6.45 -12.66,-10 -4.25,-3.6 -8.33,-7.26 -12.18,-10.96l0.03 -0.04c-6.7,-6.22 -13.46,-12.98 -20.1,-20.15 -6.62,-7.14 -12.92,-14.45 -18.72,-21.76 -5.76,-7.26 -11.21,-14.71 -16.19,-22.21 -4.64,-6.98 -8.96,-14.17 -12.84,-21.42 -2.29,-3.82 -4.5,-8.13 -6.65,-12.84 -1.97,-4.28 -3.67,-8.62 -5.1,-12.97l-0.08 0.02c-1.43,-4.35 -2.57,-8.77 -3.43,-13.2 -0.84,-4.39 -1.38,-8.85 -1.6,-13.35l-0.02 -1.85c0.05,-1.69 0.21,-3.85 0.48,-6.4 0.25,-2.38 0.54,-4.47 0.87,-6.25 0.34,-2.1 0.83,-4.19 1.42,-6.25 0.52,-1.82 1.23,-3.84 2.11,-6.01l1.22 -2.95 -0.06 -0.06c1.31,-3.27 2.62,-6.53 5.01,-11.83 1.87,-4.27 4.03,-8.58 6.67,-12.91 1.93,-3.15 3.58,-5.8 4.97,-7.9 1.49,-2.26 3.26,-4.84 5.27,-7.67 1.71,-2.39 3.56,-4.89 5.54,-7.46 2.11,-2.75 4.01,-5.16 5.7,-7.18l0.05 0.05 7.02 -8.33 7.26 -7.92 7.33 -7.79 7.55 -7.59c18.45,-18.34 37.94,-36.21 57.93,-53.83 19.92,-17.55 39.75,-34.33 59.56,-51.08 4.61,-3.9 9.45,-7.81 13.96,-11.81 18.06,-15.28 36.18,-30.6 53.29,-46.81 34.36,-32.75 68.32,-65.82 102.41,-98.85l-91.88 -98.5c-9.39,-10.04 -18.72,-20.37 -27.98,-30.9 -9.28,-10.55 -18.27,-21.06 -27.05,-31.5 -9.26,-11.03 -18.02,-21.63 -26.41,-31.91 -9.31,-11.41 -17.74,-21.85 -26,-32.09l-12.78 -15.8 -12.9 -15.73 -13 -15.59 -13.13 -15.42 -6.9 -7.94 -7.07 -7.93 -7.03 -7.73c-5.69,-6.13 -11.36,-12.17 -17.2,-18.16l-5.03 -5 -5.16 -4.93 0.05 -0.05c-2.11,-2 -4.97,-4.61 -9.38,-8.52 -3.56,-3.16 -6.74,-5.86 -9.23,-7.83l-0.12 0c-3.41,-2.7 -6.59,-5.05 -9.42,-6.96 -2.52,-1.68 -5.09,-3.27 -7.7,-4.73l-3.57 -0.56 0.01 -0.06 -2.48 -0.14c-5.4,-0.39 -10.2,-1.48 -14.4,-3.3l0.03 -0.07c-5.36,-2.32 -9.76,-5.65 -13.21,-9.98 -3.5,-4.39 -5.8,-9.39 -6.91,-14.95l0.06 -0.06c-0.89,-4.46 -1.02,-9.29 -0.38,-14.45l0.32 -2.65c2.6,-7.4 5.14,-14.8 7.84,-22.17l0.98 -1.84c2.29,-4.13 5,-8.62 8.13,-13.42 3.26,-5.01 6.3,-9.38 9.08,-13.05l0.06 0.05c3.28,-4.34 6.66,-8.53 10.14,-12.53 3.64,-4.19 7.27,-8.14 10.87,-11.81 5.99,-6.33 12.91,-13.06 20.66,-20.05 7.37,-6.64 14.77,-12.87 22.01,-18.47 7.48,-5.78 15,-11.14 22.41,-15.92 6.76,-4.37 13.99,-8.57 21.61,-12.51 3.98,-2.31 8.31,-4.46 12.91,-6.5 4.53,-2.01 8.9,-3.68 13.07,-4.98 4.55,-1.43 8.97,-2.53 13.23,-3.29 4.35,-0.78 8.79,-1.25 13.31,-1.42l1.85 -0.01c2.46,0.1 4.63,0.26 6.46,0.48 2.04,0.24 4.14,0.58 6.25,1 1.77,0.36 3.82,0.88 6.15,1.58 1.97,0.59 3.96,1.31 5.93,2.13l3.06 1.23c3.38,1.41 6.81,2.84 11.77,5.14 4.4,2.01 8.71,4.24 12.84,6.82l0.05 0.06c2.34,1.47 4.95,3.18 7.75,5.08l0.07 -0.06c2.36,1.6 4.91,3.39 7.58,5.34l0.06 0.07c2.79,2.05 5.28,3.93 7.4,5.61 1.84,1.46 4.17,3.39 6.97,5.78 2.79,2.38 5.54,4.78 8.19,7.18 3.08,2.78 5.74,5.22 7.91,7.3l7.69 7.54 7.43 7.58zm20.08 87.11c-16.55,-19.28 -33.56,-38.3 -51.44,-56.77l-6.99 -7.07c-3.73,-3.6 -10.84,-9.74 -14.04,-13.35 -2.38,-2.16 -4.81,-4.28 -7.21,-6.33l-5.83 -4.74 -6.07 -4.65 -6.31 -4.4 0.05 -0.07 -6.49 -4.22c-2.5,-1.53 -5.22,-2.93 -8.03,-4.24l-0.06 -0.06c-2.2,-1.03 -6.19,-2.69 -10.19,-4.35 -1.62,-0.68 -3.08,-1.32 -4.72,-1.9l-2.22 -0.49 -2.77 -0.43 -2.59 -0.25c-1.92,0.12 -3.98,0.37 -6.16,0.76 -2.65,0.47 -5.27,1.11 -7.82,1.92 -2.92,0.91 -5.77,1.98 -8.48,3.18 -2.65,1.18 -5.68,2.72 -9.06,4.65l-0.81 0.37c-5.72,2.93 -11.95,6.59 -18.53,10.85 -6.75,4.36 -13.29,9 -19.5,13.79 -7.05,5.45 -13.61,10.94 -19.58,16.32 -5.94,5.36 -12.08,11.4 -18.25,17.87l-0.31 0.28c-3.41,3.45 -6.49,6.78 -9.23,9.93 -3,3.45 -5.76,6.87 -8.31,10.23l0.05 0.07c-3.05,4.04 -5.55,7.55 -7.46,10.48 -1.82,2.8 -3.72,5.97 -5.69,9.48l-2.42 6.78 5.51 1.16 4.3 1.14 1.83 0.56 2.01 1.06c4.74,2.52 9.26,5.24 13.58,8.13 4.64,3.11 8.72,6.08 12.33,8.94l-0.05 0.05c4.49,3.54 8.14,6.6 11.25,9.35 2.26,2 5.96,5.46 10.29,9.54l0.06 -0.05 5.73 5.56 5.49 5.52c6.17,6.38 12.18,12.79 18.22,19.3l7.37 8.11 14.43 16.39 13.47 15.8 13.22 15.85 13.13 15.98 13.01 16.06c8.95,11.11 17.75,22.02 25.77,31.83 8.92,10.93 17.61,21.47 25.95,31.4 8.85,10.53 17.69,20.87 26.49,30.87 8.83,10.03 17.87,20.04 27.19,30 40.36,43.24 80.66,86.54 121.1,129.71 -43.03,41.68 -88.71,89.2 -133.56,128.98 -17.84,16.93 -36.51,32.72 -55.13,48.47 -4.69,3.86 -9.32,7.87 -13.96,11.8 -19.88,16.81 -39.75,33.63 -58.8,50.41 -18.97,16.72 -37.76,33.97 -56.15,52.24l-6.9 7.02c-4.58,4.78 -8.75,9.28 -13.16,14.22l-6.29 7.24 -0.01 0.12c-3.27,4.07 -6.14,7.77 -9.25,11.97l-4.35 6.4 -4.16 6.49c-1.4,2.32 -2.78,5.1 -4.12,8.09l-0.06 0.05c-0.85,1.9 -2.54,6.1 -4.21,10.26l-0.07 -0.03c-0.7,1.73 -1.19,3.05 -1.74,4.78l-0.56 2.23 -0.43 2.71 -0.13 2.41c0.13,2 0.42,4.12 0.84,6.33 0.48,2.46 1.16,5.07 2.05,7.78l-0.06 0.06c0.89,2.7 2,5.52 3.33,8.42 1.14,2.5 2.74,5.51 4.78,9l0.38 0.8c3.19,6.03 6.91,12.23 11.06,18.46 4.34,6.54 9.07,13.01 14.05,19.28 5.42,6.82 10.99,13.31 16.57,19.34 5.81,6.26 11.89,12.34 18.07,18.07l0.29 0.2c3.45,3.32 6.83,6.37 10.12,9.14 3.34,2.83 6.8,5.55 10.35,8.16 3.78,2.79 7.3,5.21 10.53,7.26l0.06 0.06c2.75,1.75 6.05,3.65 9.86,5.71l6.54 2.25 0.17 -1.17 -0.05 -0.01 0.91 -4.39 1.67 -6.28 1 -1.95c2.37,-4.6 5.04,-9.15 7.93,-13.6 2.89,-4.49 5.83,-8.6 8.77,-12.44 2.8,-3.64 5.94,-7.44 9.28,-11.31 3.2,-3.72 6.31,-7.16 9.35,-10.48l5.51 -5.9c8.07,-8.23 16.17,-16.09 24.52,-24.03l7.95 -7.41 8.14 -7.44 8.12 -7.26 15.63 -13.67 15.69 -13.42 15.8 -13.34 15.89 -13.21c10.69,-8.84 21.29,-17.62 31.49,-26.18 10.66,-8.92 21.07,-17.74 31.06,-26.36 10.3,-8.88 20.5,-17.84 30.52,-26.89 9.75,-8.8 19.61,-17.95 29.58,-27.52l105.38 -100.89 15.07 16.58c11.3,12.44 22.74,24.93 34.5,37.53 11.2,12 22.82,24.19 35.02,36.63 9.41,9.61 19.08,19.72 28.95,30.24 9.29,9.9 18.75,20.17 28.31,30.7 9.29,10.24 18.54,20.58 27.75,30.97 9.23,10.43 18.35,20.84 27.4,31.2l12.86 14.6c4.12,4.62 8.42,9.32 12.93,14.1 3.86,4.09 8.21,8.54 13.23,13.47 4.21,4.13 8.71,8.34 13.57,12.63l7.61 6.72 7.58 6.48 15.82 13.17 -0.04 0.06c5.08,4.2 9.29,7.87 13.08,11.29l17.71 16.38c2.64,2.43 5.27,5.11 7.85,7.99 2.72,3.03 4.98,5.75 6.87,8.22 1.88,2.46 3.91,5.32 6.05,8.47l2.39 3.58 2.06 -0.28 0.06 0.06c1.32,-0.24 2.87,-0.67 4.61,-1.27l22.41 -9.66c4.05,-2.2 8.18,-4.6 12.35,-7.16 4.41,-2.71 8.7,-5.51 12.85,-8.39 4.48,-3.09 8.69,-6.17 12.62,-9.21 4.57,-3.55 8.68,-6.87 12.26,-9.96l0.19 -0.16c4.08,-3.44 8.06,-6.98 11.93,-10.6 3.24,-3.02 6.94,-6.71 11.1,-11.03 4.06,-4.21 7.58,-8.06 10.56,-11.5 2.99,-3.46 6.05,-7.21 9.14,-11.19l13.47 -20.95c0.89,-1.59 1.63,-3.22 2.25,-4.86 0.4,-1 0.66,-2.05 0.81,-3.11l-6.21 -5.85 -0.17 -0.07 -4.78 -4.72c-2.08,-2.11 -4.22,-4.48 -6.37,-7 -2.37,-2.76 -3.92,-4.69 -5.47,-6.59l-7.57 -9.17 -6.24 -7.21 -13.03 -14.5 -11.17 -12.05c-3.82,-4.05 -7.93,-8.17 -11.61,-12.31 -11.17,-11.84 -22.35,-23.7 -33.39,-36.24 -11.67,-13.28 -22.88,-26.42 -34.09,-39.53 -11.67,-13.67 -23.35,-27.35 -34.93,-40.48 -11.53,-13.09 -23.37,-26.11 -35.78,-38.95l-43.59 -44.66 -16.09 -16.63 -13.61 -14.37c-16.67,-18.01 -33.06,-36.16 -49.52,-54.36l15.82 -14.67c16.11,-14.93 32.26,-29.93 48.83,-45.63 15.59,-14.77 31.38,-30.07 47.51,-46.3l0.06 -0.06c9.35,-9.39 19.36,-19.22 29.87,-29.34 9.68,-9.33 19.8,-18.91 30.27,-28.65 9.98,-9.29 20.24,-18.72 30.67,-28.19 10.15,-9.22 20.46,-18.51 30.84,-27.8l14.44 -13.05c4.38,-4.02 8.96,-8.33 13.86,-13.07 3.92,-3.79 8.28,-8.17 13.28,-13.4l0.06 -0.06c4.63,-4.83 8.83,-9.42 12.51,-13.69l13.04 -15.55 0.04 0.03 12.83 -15.76c4.01,-5 7.69,-9.34 11.18,-13.31l16.14 -17.93c2.27,-2.52 4.94,-5.18 7.92,-7.92 2.86,-2.63 5.58,-4.94 8.15,-6.96 2.96,-2.34 5.71,-4.36 8.28,-6.16l3.63 -2.45 -0.26 -2.07c-0.26,-1.32 -0.8,-3.08 -1.64,-5.26l-9.9 -22.22c-2.09,-3.72 -4.44,-7.64 -7.03,-11.73 -2.67,-4.21 -5.52,-8.47 -8.57,-12.73 -3.08,-4.34 -6.2,-8.48 -9.34,-12.44 -3.51,-4.4 -6.91,-8.47 -10.17,-12.16l-0.17 -0.2c-3.36,-3.88 -6.93,-7.79 -10.7,-11.72 -3.73,-3.89 -7.47,-7.59 -11.18,-11.07 -3.28,-3.08 -7.18,-6.51 -11.64,-10.27 -4.11,-3.45 -7.83,-6.45 -11.15,-8.98l-21.3 -13.31c-1.57,-0.83 -3.18,-1.54 -4.81,-2.12 -1.28,-0.46 -2.32,-0.75 -3.12,-0.88 -3.02,3.3 -7.35,8.52 -10.52,11.34 -1.94,1.97 -4.35,4.17 -7,6.5 -2.5,2.2 -4.54,3.89 -6.52,5.54l-9.01 7.65 -7.21 6.4 -14.24 13.15 -11.89 11.33 -12.18 11.77c-11.59,11.23 -23.2,22.47 -35.86,33.9 -6.46,5.82 -12.99,11.63 -19.53,17.41l-19.56 17.19c-13.42,11.77 -26.86,23.56 -40.08,35.51 -12.75,11.52 -25.53,23.45 -38.36,36.17 -14.75,14.71 -29.45,29.47 -44.15,44.23l-16.42 16.3 -14.14 13.74 -14.23 13.51c-8.32,7.82 -17.23,16.07 -26.11,24.29l-32.51 30.12 -27.1 -28.78c-18.23,-19.33 -36.48,-38.67 -55.56,-58.77 -20.74,-21.92 -41.33,-43.92 -61.86,-66.03 -8.43,-9.13 -16.56,-18.44 -24.52,-27.84 -8.39,-9.89 -15.88,-19 -23.38,-28.1l-11.48 -13.93c-16.63,-20.19 -33.27,-40.38 -49.69,-59.5z"/>
  <path class="fil3" d="M1387.12 2942.23c-1.69,-40.09 -17.23,-76.83 -43.71,-103.86 -25.14,-25.69 -60.52,-42.85 -103.64,-46.1 -60.06,-4.51 -119.32,-4.1 -178.54,-3.69 -33.56,0.23 -67.15,0.46 -100.6,-0.14 -20.3,-0.37 -38.78,-1.1 -57.19,-1.84 -30.75,-1.21 -61.49,-2.44 -91.25,-1.9 -5.88,0.11 -13.13,-0.56 -21.65,-1.32 -11.14,-1.01 -25.09,-2.29 -36.06,-1.63l-90.47 5.45 63.85 -64.53c92.35,-93.35 183.42,-192.4 268.58,-295.61 85.28,-103.36 164.75,-210.93 233.81,-321.16 64.95,-103.66 105.01,-210.8 113.56,-319.8 7.92,-101.05 -11.45,-204.26 -63.41,-308.33 -43.81,-87.72 -113.68,-152.91 -196.33,-192.72 -86.56,-41.71 -187.26,-55.8 -287.06,-39.19 -83.13,13.85 -156.47,49.48 -218.62,99.38 -69.26,55.62 -124.84,129.05 -164.84,210.08l-1.09 1.91c-13.99,24.31 -26.29,49.67 -36.35,75.5 -9.38,24.11 -16.8,48.85 -21.77,73.74 -5.75,28.84 -5.43,82.91 7,128.38 7.5,27.47 18.77,50.39 34.47,57.5 30.38,13.75 60.14,17.74 88.26,13.28 29.98,-4.75 58.99,-19.18 85.76,-41.66 21.85,-18.34 45.07,-43.58 68.97,-69.55 27.14,-29.48 55.13,-59.9 85.16,-85l2.43 -2.04 8.62 -4.61c60.63,-32.49 122.03,-65.39 196.93,-18.3 10.13,6.37 19.09,13.33 26.98,20.78 8.01,7.57 15.04,15.72 21.13,24.29l4.02 5.66 1.55 6.83c10.75,47.58 14.33,89.86 7.31,131.9 -7.08,42.43 -24.72,83.38 -56.29,127.71 -29.05,40.75 -63.78,76.04 -98.13,110.93 -10.53,10.7 -21.04,21.38 -31.76,32.64l-7.62 8.02c-98.72,103.69 -197.42,207.36 -290.07,316.07 -41.39,48.53 -81.08,98.86 -118.88,150.93 -37.2,51.23 -72.23,103.68 -104.92,157.31 -3.73,6.13 -8.98,14.4 -14.82,23.64 -42.96,67.82 -126.19,199.27 -89.57,251.7 43.62,62.54 149.98,74.03 234.25,83.1 14.8,1.61 29.38,3.19 36.92,4.13 78.63,9.76 157.08,-10.61 235.08,-6.82 79.87,3.88 158.91,1.47 237.1,2.34 76.32,0.87 177.52,28.7 267.11,5.83 83.33,-21.27 156,-60.12 184.16,-130.64l2.57 -6.44 1.54 -1.61c1.1,-3.7 1.99,-7.15 2.7,-10.38 0.99,-4.46 1.96,-9.91 2.86,-16.04l0.13 -0.96c0.84,-4.78 1.58,-9.52 2.13,-14.13l0.98 -9.56 -0.96 -1.86 -0.32 -7.61zm5.74 -152.49c37.26,38.07 59.63,88.91 63.23,144.24l0.64 2.49c0.97,3.99 1.42,8.45 1.23,13.45l0 0.14c-0.34,7.41 -0.87,13.78 -1.54,19.35 -0.75,6.26 -1.67,12.24 -2.67,17.95 -0.9,5.88 -2.14,12.47 -3.79,19.96 -1.7,7.55 -3.6,14.75 -5.74,21.41 -1.33,4.31 -3.36,8.23 -5.76,11.77l-0.85 1.33c-39.42,92.1 -128.51,141.31 -229.16,167.01 -96.36,24.59 -203.87,1.04 -284.77,0.11 -80.21,-0.89 -160.6,7.61 -239.81,3.77 -81.09,-3.95 -161.51,6.16 -240.26,-3.61 -15.45,-1.91 -25.32,-2.99 -35.82,-4.12 -98.12,-10.58 -221.95,-23.95 -283.7,-112.45 -63.07,-90.29 36.36,-247.3 87.66,-328.31 5.28,-8.34 9.97,-15.73 14.28,-22.82 33.97,-55.72 69.99,-109.7 107.9,-161.92 38.51,-53.04 79.39,-104.81 122.43,-155.29 93.78,-110.04 193.13,-214.4 292.51,-318.79l7.63 -8.01c10.33,-10.86 21.44,-22.16 32.58,-33.47 32.44,-32.95 65.24,-66.28 91.06,-102.49 25.12,-35.26 39,-66.95 44.33,-98.91 5.06,-30.3 2.69,-61.98 -4.9,-97.97 -2.48,-3.01 -5.2,-5.94 -8.19,-8.77 -4.82,-4.55 -10.27,-8.79 -16.39,-12.63 -40.81,-25.66 -84.38,-2.32 -127.37,20.72l-1.49 0.8c-25.83,21.98 -51.42,49.78 -76.26,76.76 -25.46,27.66 -50.22,54.56 -75.48,75.78 -36.19,30.39 -76.57,50.07 -119.46,56.87 -41.47,6.58 -84.55,1.07 -127.64,-18.44 -37.47,-16.98 -60.31,-56.92 -72.78,-102.6 -15.36,-56.2 -15.61,-123.79 -8.35,-160.17 5.62,-28.15 14.25,-56.74 25.31,-85.13 10.99,-28.28 24.49,-56.18 39.86,-83.12 44.27,-89.71 106.15,-171.26 183.59,-233.45 71.09,-57.09 155.18,-97.87 250.69,-113.78 113.94,-18.97 229.21,-2.73 328.6,45.17 96.16,46.31 177.42,122.15 228.4,224.23 57.86,115.84 79.36,231.27 70.46,344.75 -9.42,120.25 -53.21,237.83 -124.14,351.02 -71.01,113.36 -152.2,223.32 -238.98,328.5 -69.87,84.68 -143.36,166.34 -218.09,244.22 25.09,0.1 49.7,1.07 74.29,2.05 19.14,0.75 38.28,1.52 55.57,1.84 33.06,0.59 66.16,0.36 99.23,0.13 61.7,-0.43 123.46,-0.85 183.97,3.7 60.87,4.58 111.41,29.43 147.94,66.73z"/>
  <path class="fil3" d="M3955.69 2056.19c-5.11,-8.02 -10.25,-15.82 -15.41,-23.2 -5.33,-7.53 -10.61,-14.6 -15.84,-20.94 -5.07,-6.15 -10.45,-12.06 -16.2,-17.63 -5.37,-5.2 -11.19,-10.11 -17.52,-14.66 -6.7,-4.81 -12.88,-9.39 -18.89,-14.24l-0.07 -0.08c-6.04,-4.88 -11.23,-9.59 -15.62,-14.4 -6.32,-7.01 -11.25,-14.24 -14.69,-22.1 -3.56,-8.09 -5.53,-16.74 -5.93,-26.38l-0.58 -13.81 7.2 -11.01c12.66,-19.3 24.08,-37.36 34.86,-54.77 12.45,-20.13 23.21,-37.84 33.87,-55.42 11.44,-18.88 22.87,-37.68 32.78,-53.71 7.63,-12.35 15.33,-24.66 23.11,-36.86l-0.13 -0.07 11 -16.89c4.65,-7.14 9.64,-14.51 14.8,-21.98l15.94 -22.84c15.23,-21.68 30.79,-43.81 43.75,-65.59 12.98,-21.87 24.3,-44.64 31.92,-68.79l3.34 -11.38c5.62,-21.27 7.64,-40.78 6.59,-58.48 -1.08,-18.19 -5.49,-34.61 -12.54,-49.14 -7.03,-14.35 -16.64,-27.21 -28.27,-38.43 -12.6,-12.14 -27.58,-22.55 -44.2,-31.06l-13.9 -6.45c-15.19,-6.55 -30.56,-12.02 -45.98,-16.52 -255.31,41.89 -582.03,2.59 -785.25,59.85l-0.17 0.29 -10.04 4.56c-13.55,6.11 -26.38,15.06 -37.99,26.19 -12.16,11.66 -23.07,25.74 -32.21,41.55 -9.11,15.74 -16.45,33.14 -21.54,51.49 -4.93,17.8 -7.79,36.47 -8.14,55.35 -0.41,22.83 5.88,40.05 16.26,52.97 10.69,13.31 26.16,22.78 43.4,29.49 20.32,7.93 43.11,12.24 64.65,14.6 22.47,2.45 43.25,2.83 58.94,2.92 14.35,0.09 29.31,-0.4 44.66,-1.37 14.77,-0.93 29.98,-2.38 45.41,-4.19 15.79,-1.87 30.89,-4.02 45.34,-6.34 14.43,-2.34 29.81,-5.11 45.67,-8.15l1.65 -0.3c18.11,-3.48 36.14,-6.93 54.07,-10.02 17.68,-3.04 35.56,-5.81 53.87,-7.99l2.34 -0.45c17.21,-3.38 91.61,-17.99 113.31,9.06 7.49,9.3 11.34,19.73 10.76,31.28 -0.5,10.11 -4.43,20.4 -12.34,30.73l-0.87 1.13c-22.29,29.07 -44.65,58.25 -66.47,87.87 -21.81,29.62 -43.02,59.57 -62.89,90.06 -11.78,18.07 -22.6,33.89 -33.39,49.66l-1.41 2.05c-12.03,17.57 -24.11,35.2 -34.91,51.78 -11.38,17.48 -22.24,35.06 -32,52.69 -6.11,11.04 -10.31,22.66 -12.71,34.41 -2.47,12.09 -2.98,24.42 -1.71,36.44 1.31,12.45 4.58,24.71 9.59,36.25 4.98,11.55 11.78,22.43 20.18,32.21 7.18,8.34 14.49,16.24 21.9,23.57 7.34,7.27 14.87,14.06 22.55,20.3 7.67,6.22 15.54,11.94 23.58,17.06 7.93,5.06 16.29,9.71 25.08,13.86l12.11 5.65 14.53 6.52c9.85,4.44 19.82,8.95 31.86,14.74 10.56,5.05 20.89,10.3 30.9,15.97 4.73,1.7 9.52,3.55 14.34,5.58 5.22,2.11 10.61,4.62 16.18,7.51 5.82,3.01 11.48,6.27 16.89,9.81 5.28,3.46 10.72,7.46 16.33,12.12 16.29,13.43 30.36,30.47 42.37,49.89 12.79,20.67 23.22,43.94 31.53,68.42 8.95,26.38 15.58,54.57 20.21,82.57 5.11,31.05 7.75,62.03 8.33,90.18 0.75,35.14 -4.18,68.77 -13.51,99.94 -9.98,33.27 -25.05,63.96 -43.7,90.89 -19.42,28.03 -42.78,52.02 -68.34,70.58 -25.84,18.75 -54.08,32.13 -83,38.78 -65.15,15 -112.23,-5.85 -150.25,-44.6 -35.46,-36.16 -61.69,-87.41 -87.92,-138.69 -12.38,-24.22 -24.8,-48.47 -37.76,-69.88 -12.54,-20.72 -25.83,-39.2 -40.57,-53.13 -9.58,-9.06 -20.58,-15.21 -32.31,-18.83 -13.08,-4.03 -27.29,-5.04 -41.64,-3.54 -16.22,1.7 -32.51,6.61 -47.7,13.98 -15.51,7.59 -29.71,17.64 -41.24,29.36 -11.52,11.71 -21.22,26.56 -29.01,43.36 -8.56,18.48 -14.79,39.13 -18.64,60.59 -4.07,22.71 -5.53,46.39 -4.34,69.45 1.17,22.58 4.88,44.42 11.12,64 7.02,21.99 16.01,43.9 26.62,65.32 10.89,22.02 23.5,43.44 37.39,63.87 14.33,21.04 30.07,41.06 46.78,59.61 16.91,18.78 34.59,35.86 52.6,50.81 44.16,36.71 91.47,63.37 140.25,80.49 50.42,17.67 102.53,25.16 154.49,23 53.03,-2.2 106.08,-14.53 157.16,-36.37 50.82,-21.71 99.74,-52.93 144.83,-93.02 45.74,-40.67 85.34,-86.5 118.68,-136.68 33.89,-51.03 61.39,-106.66 82.36,-166.07 21.19,-60 35.77,-124 43.61,-191.15 7.86,-67.31 8.95,-137.81 3.19,-210.67 -1.69,-21.43 -5.02,-42.52 -9.67,-63.09 -5.02,-22.22 -11.63,-44.08 -19.41,-65.39 -8.56,-23.44 -18.51,-46.07 -29.35,-67.67 -11.99,-23.9 -25.17,-46.75 -38.86,-68.24zm19.67 -96.83c6.82,8.27 13.12,16.66 19.05,25.12 5.66,8.07 11.55,17.03 17.56,26.47 15.14,23.74 29.75,49.08 43.12,75.71 12.23,24.38 23.39,49.75 32.92,75.84 8.99,24.58 16.63,50 22.48,76.06 5.55,24.68 9.52,49.81 11.52,75.19 6.23,78.75 5,155.12 -3.57,228.21 -8.6,73.32 -24.59,143.39 -47.87,209.28 -23.14,65.55 -53.49,126.96 -90.9,183.3 -36.95,55.68 -80.77,106.41 -131.3,151.34 -50.64,45.03 -105.79,80.18 -163.3,104.74 -58.09,24.81 -118.65,38.83 -179.45,41.35 -59.81,2.49 -119.82,-6.14 -177.91,-26.52 -55.95,-19.63 -110.13,-50.17 -160.65,-92.13 -21.01,-17.47 -41.25,-36.95 -60.16,-57.96 -18.82,-20.89 -36.63,-43.57 -52.94,-67.52 -16.05,-23.69 -30.6,-48.41 -43.14,-73.8 -12.18,-24.63 -22.64,-50.21 -30.98,-76.33 -8.44,-26.47 -13.45,-55.49 -15.02,-85.15 -1.57,-29.8 0.31,-60.49 5.62,-90.06 5.18,-28.91 13.69,-56.89 25.5,-82.1 11.38,-24.3 25.83,-46.13 43.33,-63.9 16.91,-17.18 37.42,-31.81 59.69,-42.7 21.95,-10.74 45.67,-17.91 69.41,-20.39 22.85,-2.4 45.98,-0.52 67.97,6.5 20.53,6.57 39.98,17.61 57.13,33.82 38.98,36.79 66.34,90.26 93.65,143.63l2.21 4.31c21.39,41.8 42.92,83.11 69.14,110.88 24.29,25.75 53.58,39.91 92.79,30.89 20.38,-4.69 40.59,-14.35 59.35,-27.99 19.12,-13.85 36.66,-31.9 51.34,-53.11 13.84,-19.99 25.06,-42.81 32.54,-67.57 7.03,-23.31 10.74,-48.21 10.21,-73.92 -0.49,-24.02 -2.76,-50.57 -7.15,-77.33 -3.86,-23.5 -9.42,-47.17 -16.92,-69.3 -6.33,-18.63 -14.01,-36 -23.14,-50.94 -7.96,-13.02 -17.09,-24.23 -27.41,-32.79 -3.11,-2.68 -6.5,-5.13 -10.08,-7.45 -3.45,-2.24 -7.16,-4.38 -11.05,-6.39 -3.89,-2.01 -7.96,-3.88 -12.14,-5.62 -3.95,-1.65 -8.29,-3.27 -12.87,-4.84 -0.17,-0.19 -2.51,-0.93 -2.91,-1.07l-2.77 -1.6c-9.3,-5.33 -19.01,-10.31 -28.9,-15.06 -9.79,-4.71 -20.2,-9.42 -30.56,-14.09l-27.72 -12.77c-11.01,-5.21 -21.78,-11.2 -32.28,-17.92 -10.41,-6.64 -20.41,-13.9 -30.01,-21.68 -9.6,-7.79 -18.85,-16.09 -27.73,-24.86 -8.9,-8.77 -17.53,-18.07 -25.9,-27.81 -13.56,-15.78 -24.6,-33.61 -32.79,-52.71 -8.17,-19.08 -13.54,-39.54 -15.76,-60.53 -2.18,-20.72 -1.33,-41.82 2.81,-62.5 4.08,-19.95 11.16,-39.66 21.54,-58.42 21.36,-38.75 46.09,-74.84 70.64,-110.66l0.22 -0.33c11.94,-17.44 23.85,-34.82 33.81,-50.08 19.36,-29.74 39.32,-58.18 59.55,-85.86 10.54,-14.41 21.19,-28.69 31.91,-42.88l-25.53 5.03 -0.03 -0.26 -6.58 1.24 0 -1.31c-27.32,3.97 -55.09,9.29 -83.05,14.64 -0.46,0 -1.69,0.24 -2,0.39 -14.65,2.81 -30.24,5.6 -46.91,8.26 -16.7,2.67 -33.02,5.01 -48.63,6.86 -16.11,1.88 -32.41,3.41 -48.86,4.45 -15.98,1 -32.28,1.51 -48.79,1.42 -17.9,-0.11 -41.5,-0.55 -66.49,-3.34 -25.87,-2.9 -53.74,-8.31 -79.71,-18.43 -29.28,-11.39 -55.94,-28.48 -75.36,-53.98 -19.52,-25.64 -31.32,-59.18 -30.53,-103.06 0.48,-26.44 4.37,-52.29 11.08,-76.73 7.02,-25.52 17.1,-49.52 29.58,-71.11 12.35,-21.36 27.18,-40.6 43.83,-56.82 15.74,-15.33 33.22,-28.04 51.91,-37.39 2.16,-1.89 4.48,-3.52 6.85,-4.83 2.54,-1.36 5.15,-2.46 7.88,-3.24 156.08,-45 659.54,-30.49 880.6,-45.33l12.64 5.61 8.93 4.43c23.07,11.83 44.03,26.56 61.88,44.09 17.23,16.91 31.66,36.5 42.42,58.61 11.62,23.9 18.91,50.48 20.84,79.59 1.74,26.28 -0.87,54.61 -8.62,84.88 0,3.6 -5.08,14.92 -5.08,17.9 -19,60.21 -53.4,109.17 -86.48,156.26l-0.58 0.76c-9.8,14.04 -19.51,27.85 -28.67,41.9l-5.81 8.92c-20.09,31.19 -39.45,63.07 -58.79,94.94 -0.23,0.41 -0.9,1.72 -1.2,1.99 -18.65,30.7 -37.32,61.44 -55.84,90.52l1.21 0.97c3.89,3.02 9.04,6.8 15.09,11.13 8.99,6.53 17.32,13.58 25.09,21.09 7.69,7.44 14.99,15.47 21.98,23.95z"/>
  <rect class="fil4" x="-2.72" y="-6.56" width="4343.4" height="4343.58"/>
 </g>
</svg>
