<?xml version="1.0" encoding="UTF-8"?>
<!DOCTYPE svg PUBLIC "-//W3C//DTD SVG 1.1//EN" "http://www.w3.org/Graphics/SVG/1.1/DTD/svg11.dtd">
<!-- Creator: CorelDRAW 2018 (64-Bit) -->
<svg xmlns="http://www.w3.org/2000/svg" xml:space="preserve" width="43.4338mm" height="43.4338mm" version="1.1" style="shape-rendering:geometricPrecision; text-rendering:geometricPrecision; image-rendering:optimizeQuality; fill-rule:evenodd; clip-rule:evenodd"
viewBox="0 0 4343.38 4343.38"
 xmlns:xlink="http://www.w3.org/1999/xlink">
 <defs>
  <style type="text/css">
   <![CDATA[
    .str0 {stroke:#2B2A29;stroke-width:84.66;stroke-miterlimit:22.9256}
    .fil5 {fill:none}
    .fil4 {fill:#2B2A29}
    .fil3 {fill:#1D1D1B}
    .fil1 {fill:#FEFEFE;fill-rule:nonzero}
    .fil0 {fill:#434242;fill-rule:nonzero}
    .fil2 {fill:#2B2A29;fill-rule:nonzero}
   ]]>
  </style>
 </defs>
 <g id="Слой_x0020_1">
  <metadata id="CorelCorpID_0Corel-Layer"/>
  <path class="fil0" d="M3818.99 149.16c-7.97,10.95 -16.46,21.46 -24.85,32.17 -8.32,10.62 -16.51,21.34 -24.46,32.17 -17.71,24.12 -35.42,48.25 -53.21,72.33 -34.26,46.37 -68.9,92.56 -104.16,138.41 -32.33,42.05 -64.94,83.95 -97.91,125.6 -8.54,10.78 -17.1,21.55 -25.69,32.3 -32.87,41.15 -65.78,82.3 -98.91,123.25 -77.48,95.8 -154.99,191.55 -233.17,286.74 -76.38,93 -152.9,185.89 -229.79,278.44 -37.77,45.47 -75.51,91.02 -113.4,136.41 -40.96,49.05 -81.79,98.28 -122.92,147.19 -84.88,100.93 -169.75,201.87 -254.65,302.78 -73.69,87.6 -148.53,173.86 -224.17,258.98 -48.85,54.99 -98.13,109.36 -147.6,163.28 -0.03,0.04 -0.05,0 -0.02,-0.03 50.15,-66.68 101.13,-132.86 152.88,-198.63 33.85,-43.04 68.1,-85.65 102.78,-128.07 22.39,-27.37 44.89,-54.62 67.57,-81.72 13.91,-16.63 28.06,-33.06 42.12,-49.55 37.66,-44.15 75.34,-88.3 112.97,-132.49 43.04,-50.53 86.23,-100.91 129.12,-151.62 44.23,-52.29 88.46,-104.58 132.69,-156.88 39.72,-46.97 79.2,-94.24 118.79,-141.36 38.63,-45.99 76.96,-92.27 115.41,-138.44 38.75,-46.54 77.24,-93.34 115.79,-140.05 39.22,-47.54 78.06,-95.49 117.03,-143.25 71.18,-87.25 141.5,-175.2 211.6,-263.29 38.99,-48.99 78.54,-97.56 118.05,-146.15 38.95,-47.9 78.14,-95.63 117.55,-143.1 16.02,-19.3 31.99,-38.78 48.29,-57.82 7.9,-9.23 15.85,-18.36 24.03,-27.14 7.27,-7.79 14.67,-15.23 21.89,-23.14l0 0.01c2.13,-2.44 4.21,-4.86 6.31,-7.35 0.04,-0.05 0.07,-0.03 0.04,0.02z"/>
  <path class="fil0" d="M3881.23 163.96c-7.96,10.95 -16.45,21.47 -24.84,32.18 -8.33,10.61 -16.52,21.34 -24.46,32.16 -17.71,24.12 -35.42,48.25 -53.21,72.33 -34.26,46.37 -68.9,92.57 -104.16,138.41 -32.33,42.05 -64.94,83.95 -97.91,125.6 -8.54,10.78 -17.1,21.55 -25.69,32.3 -32.87,41.15 -65.78,82.3 -98.91,123.25 -77.49,95.8 -154.99,191.55 -233.17,286.74 -76.38,93 -152.9,185.89 -229.79,278.44 -37.77,45.47 -75.51,91.02 -113.41,136.41 -40.95,49.05 -81.78,98.28 -122.91,147.19 -84.88,100.94 -169.76,201.87 -254.65,302.78 -73.69,87.6 -148.53,173.86 -224.17,258.98 -48.85,54.99 -98.13,109.37 -147.6,163.28 -0.04,0.05 -0.05,0.01 -0.03,-0.03 50.16,-66.68 101.13,-132.86 152.89,-198.63 33.85,-43.04 68.1,-85.65 102.78,-128.07 22.38,-27.37 44.89,-54.61 67.57,-81.71 13.91,-16.64 28.06,-33.07 42.12,-49.56 37.66,-44.15 75.33,-88.3 112.97,-132.49 43.04,-50.53 86.23,-100.9 129.12,-151.61 44.23,-52.3 88.46,-104.59 132.69,-156.89 39.72,-46.96 79.19,-94.23 118.78,-141.35 38.64,-46 76.97,-92.27 115.42,-138.45 38.75,-46.54 77.24,-93.33 115.78,-140.05 39.23,-47.54 78.07,-95.48 117.04,-143.25 71.18,-87.25 141.5,-175.2 211.6,-263.29 38.99,-48.99 78.54,-97.56 118.05,-146.15 38.94,-47.9 78.14,-95.63 117.55,-143.09 16.02,-19.31 31.98,-38.79 48.29,-57.83 7.9,-9.23 15.85,-18.36 24.03,-27.14 7.27,-7.79 14.67,-15.23 21.89,-23.14l0 0.01c2.13,-2.44 4.21,-4.86 6.31,-7.35 0.04,-0.05 0.07,-0.02 0.03,0.02z"/>
  <path class="fil0" d="M3978.91 210.76c-7.97,10.96 -16.46,21.47 -24.85,32.18 -8.32,10.61 -16.51,21.34 -24.46,32.16 -17.71,24.12 -35.42,48.25 -53.21,72.33 -34.26,46.37 -68.9,92.57 -104.15,138.42 -32.34,42.05 -64.95,83.95 -97.92,125.6 -8.53,10.78 -17.1,21.55 -25.69,32.3 -32.87,41.15 -65.78,82.29 -98.91,123.25 -77.48,95.79 -154.99,191.54 -233.17,286.74 -76.38,92.99 -152.9,185.88 -229.79,278.44 -37.77,45.46 -75.51,91.01 -113.4,136.4 -40.96,49.06 -81.79,98.28 -122.92,147.19 -84.87,100.94 -169.75,201.87 -254.64,302.79 -73.69,87.59 -148.54,173.85 -224.18,258.98 -48.85,54.98 -98.13,109.36 -147.6,163.27 -0.03,0.05 -0.05,0.01 -0.02,-0.03 50.16,-66.67 101.13,-132.85 152.88,-198.62 33.85,-43.04 68.1,-85.65 102.78,-128.07 22.39,-27.38 44.9,-54.62 67.57,-81.72 13.91,-16.64 28.06,-33.06 42.12,-49.55 37.66,-44.16 75.34,-88.3 112.98,-132.5 43.04,-50.53 86.23,-100.9 129.11,-151.61 44.23,-52.29 88.46,-104.59 132.69,-156.88 39.73,-46.97 79.2,-94.24 118.79,-141.36 38.63,-45.99 76.96,-92.27 115.41,-138.45 38.75,-46.54 77.24,-93.33 115.79,-140.04 39.23,-47.54 78.06,-95.49 117.03,-143.26 71.19,-87.25 141.5,-175.19 211.61,-263.28 38.98,-49 78.53,-97.57 118.04,-146.16 38.95,-47.89 78.15,-95.63 117.55,-143.09 16.02,-19.31 31.99,-38.79 48.29,-57.82 7.91,-9.23 15.85,-18.36 24.03,-27.14 7.27,-7.79 14.67,-15.24 21.9,-23.15l-0.01 0.01c2.14,-2.43 4.21,-4.86 6.31,-7.35 0.04,-0.04 0.07,-0.02 0.04,0.02z"/>
  <path class="fil0" d="M3943.48 178.77c-9.7,12.87 -19.93,25.3 -30.06,37.95 -10.06,12.53 -19.98,25.17 -29.64,37.9 -21.55,28.35 -43.09,56.73 -64.71,85.05 -41.64,54.54 -83.68,108.93 -126.36,162.99 -39.13,49.58 -78.56,99.02 -118.35,148.22 -10.3,12.74 -20.63,25.47 -30.98,38.17 -39.64,48.64 -79.32,97.28 -119.22,145.72 -93.31,113.32 -186.64,226.59 -280.66,339.31 -91.84,110.12 -183.83,220.14 -276.19,329.81 -45.37,53.88 -90.72,107.85 -136.21,161.65 -49.18,58.15 -98.23,116.48 -147.57,174.49 -101.84,119.71 -203.68,239.41 -305.53,359.1 -88.41,103.89 -177.94,206.41 -268.24,307.76 -58.31,65.46 -117.03,130.29 -175.91,194.62 -0.05,0.06 -0.06,0.01 -0.03,-0.03 60.85,-78.51 122.54,-156.55 185.04,-234.22 40.88,-50.82 82.15,-101.2 123.87,-151.42 26.93,-32.4 53.98,-64.67 81.2,-96.8 16.7,-19.73 33.64,-39.24 50.49,-58.82 45.12,-52.41 90.26,-104.82 135.37,-157.28 51.57,-59.98 103.3,-119.8 154.72,-179.97 53.04,-62.04 106.08,-124.08 159.12,-186.13 47.63,-55.72 95.02,-111.76 142.53,-167.64 46.36,-54.54 92.41,-109.37 138.59,-164.1 46.54,-55.16 92.81,-110.57 139.14,-165.9 47.15,-56.31 93.91,-113.04 140.81,-169.57 85.65,-103.27 170.43,-207.23 254.99,-311.32 47.03,-57.9 94.63,-115.38 142.18,-172.87 46.88,-56.68 94.02,-113.2 141.35,-169.44 19.25,-22.88 38.46,-45.95 57.98,-68.55 9.47,-10.96 18.97,-21.81 28.7,-32.3 8.64,-9.31 17.39,-18.25 25.99,-27.68l-0.01 0.01c2.55,-2.9 5.04,-5.78 7.56,-8.73 0.05,-0.06 0.08,-0.03 0.04,0.02z"/>
  <path class="fil1 str0" d="M807.26 4135.83c18.48,-29.83 38.77,-59.05 59.95,-87.69 21.25,-28.74 43.26,-56.75 65.22,-84.22 12.31,-15.36 24.93,-30.84 37.81,-46.43 12.51,-15.13 25.33,-30.47 38.37,-45.95 18.32,-21.72 36.82,-43.48 55.53,-65.29 18.49,-21.55 37.19,-43.15 56.12,-64.79 35.77,-40.93 71.85,-81.78 108.11,-122.55 36.17,-40.67 72.51,-81.25 108.92,-121.75 72.89,-81.09 145.68,-162.22 217.87,-243.95 72.04,-81.57 143.5,-163.77 213.89,-247.17 63.57,-75.35 127.23,-150.64 190.88,-225.91 82.39,-97.42 164.77,-194.86 246.97,-292.44 69.07,-82 138.14,-164.02 207.38,-245.88 69.11,-81.71 138.51,-163.42 208.47,-245.11l54.28 -63.36c121.49,-141.78 242.92,-283.49 362.2,-427.72 69.9,-84.48 140.83,-168.49 212.39,-252.19 71.31,-83.4 143.28,-166.56 215.49,-249.61 34.11,-39.21 68.19,-78.61 101.89,-118.67 33.5,-39.82 66.45,-80.11 98.31,-121.11 16.33,-21.02 32.89,-42.56 49.62,-64.47 17.48,-22.89 33.72,-44.32 49.17,-64.79 26.16,-34.65 53.18,-68.69 80.18,-102.69l18.4 -23.2c15.39,-19.44 31.47,-38 48.05,-56.08 16.55,-18.05 33.44,-35.45 50.58,-52.68 9.91,-12.91 16.93,-25.79 21.05,-38.63 4.17,-12.97 5.4,-26 3.7,-39.06l-10.31 -48.33c-7.13,-18.21 -15.97,-34.98 -26.52,-50.25 -10.61,-15.38 -22.93,-29.24 -36.94,-41.57l-0.06 -0.05c-13.69,-12.7 -28.73,-23.56 -45.11,-32.56 -16.26,-8.95 -33.84,-16.05 -52.68,-21.29l-49.13 -5.37c-13.17,-0.37 -26.01,2.18 -38.47,7.62 -12.35,5.4 -24.45,13.68 -36.28,24.83 -8.17,10.09 -14.45,17.98 -20.74,25.87 -10.05,12.61 -20.11,25.25 -29.66,36.88 -13.52,16.46 -27.93,32.53 -42.32,48.57l-6.56 7.33c-17.43,19.49 -34.75,39.23 -51.98,59.12 -17.06,19.68 -34.18,39.68 -51.3,59.75 -28.37,33.28 -56.84,67.15 -85.29,101 -41.83,49.75 -83.66,99.51 -126.55,149.01 -45.09,52.02 -90.65,103.96 -136.19,155.88 -94,107.16 -188,214.33 -279.33,324.03 -33,39.64 -66.55,80.19 -100.1,120.74 -38.8,46.89 -77.59,93.78 -117.09,141.11 -32.87,39.41 -66.21,78.84 -99.78,118.26 -33.29,39.09 -66.92,78.32 -100.54,117.52 -71.32,83.12 -142.5,166.59 -213.53,250.34 -70.78,83.46 -141.47,167.29 -212.09,251.42 -63.73,75.93 -127.55,151.81 -191.37,227.66 -75.6,89.86 -151.2,179.73 -226.64,269.7 -38.36,45.74 -76.9,91.56 -115.61,137.45 -38.46,45.6 -77.13,91.32 -115.98,137.13 -62.2,73.29 -126.39,145.37 -190.5,217.34l-47.79 53.67c-137.41,154.3 -274.81,308.6 -407.03,467.59 -17.07,20.53 -34.15,41.37 -51.22,62.63 -16.89,21.03 -33.54,42.21 -49.84,63.54 -13.32,17.4 -26.29,34.94 -38.87,52.53 -12.65,17.68 -25.04,35.64 -37.13,53.75 -16.15,24.24 -30.26,49.49 -44.38,74.74l-5.88 10.52c-4.44,7.9 -8.43,16.14 -11.95,24.43 -3.68,8.61 -6.83,17.3 -9.42,25.76 -4.11,17.36 -5.74,33.73 -4.88,49.08 0.86,15.37 4.21,29.77 10.04,43.17l0.09 0.3c9.26,27.07 24.2,51.51 42.77,72.53 20.05,22.69 44.27,41.37 70.08,55.12l0.11 0.06c14.46,8.5 30.03,14.86 46.67,19.09 16.47,4.19 34.08,6.3 52.78,6.33l43.87 -9.58c13.06,-5.86 23.94,-13.6 32.62,-23.2 8.78,-9.73 15.44,-21.52 19.96,-35.33 2.13,-6.99 4.65,-14 7.5,-21 2.8,-6.89 5.93,-13.82 9.35,-20.74l0.4 -0.74zm67.88 -83.04c-20.87,28.23 -40.82,56.95 -58.92,86.14 -3.11,6.32 -6.01,12.75 -8.64,19.23 -2.66,6.53 -5.03,13.13 -7.05,19.75l-0.05 0.13c-5.26,16.15 -13.15,30.06 -23.67,41.7 -10.52,11.65 -23.56,20.91 -39.09,27.77l-0.63 0.28c-15.44,3.48 -30.99,6.9 -46.38,10.12l-0.54 0.01c-19.57,0.01 -38.04,-2.19 -55.37,-6.6 -17.29,-4.4 -33.42,-10.97 -48.36,-19.74 -26.46,-14.09 -51.28,-33.24 -71.81,-56.48 -19.02,-21.54 -34.38,-46.66 -43.98,-74.62 -6.21,-14.26 -9.78,-29.62 -10.7,-46.05 -0.92,-16.43 0.82,-33.92 5.2,-52.43l0.13 -0.43c2.78,-9.11 6.15,-18.45 10.07,-27.69 3.74,-8.83 8,-17.61 12.75,-26.07l5.88 -10.52c14.26,-25.5 28.51,-51.01 45.12,-75.94 12.1,-18.12 24.61,-36.24 37.5,-54.26 12.83,-17.94 25.92,-35.65 39.19,-52.99 16.46,-21.54 33.19,-42.83 50.12,-63.91 16.74,-20.85 33.94,-41.83 51.44,-62.86 132.11,-158.88 269.79,-313.49 407.46,-468.09l47.8 -53.67c63.9,-71.74 127.9,-143.6 190.18,-216.99 38.57,-45.48 77.22,-91.18 115.95,-137.09 38.48,-45.61 77.01,-91.43 115.58,-137.42 75.44,-89.97 151.04,-179.84 226.64,-269.7 63.82,-75.85 127.64,-151.73 191.37,-227.66 70.37,-83.84 141.08,-167.68 212.16,-251.49 70.83,-83.52 142.02,-167.01 213.59,-250.42 33.48,-39.03 66.97,-78.09 100.51,-117.48 33.27,-39.08 66.51,-78.38 99.64,-118.11 38.81,-46.51 77.92,-93.78 117.02,-141.04 33.11,-40.01 66.23,-80.04 100.17,-120.81 91.17,-109.5 185.4,-216.94 279.64,-324.37 45.43,-51.79 90.87,-103.59 136.12,-155.81 42.43,-48.95 84.39,-98.87 126.35,-148.78 28.26,-33.63 56.54,-67.26 85.39,-101.1 16.97,-19.91 34.06,-39.86 51.4,-59.88 17.2,-19.83 34.56,-39.64 52.19,-59.34l6.56 -7.33c14.1,-15.72 28.21,-31.46 41.77,-47.96 10.42,-12.69 19.97,-24.69 29.52,-36.67 7.66,-9.61 15.33,-19.24 21.16,-26.44l0.84 -0.9c13.49,-12.82 27.38,-22.34 41.64,-28.57 14.23,-6.2 28.78,-9.09 43.61,-8.66l50 5.45 0.63 0.13c19.54,5.41 37.72,12.73 54.49,21.96 16.79,9.23 32.23,20.38 46.32,33.44 14.41,12.69 27.07,26.93 37.95,42.68 10.87,15.76 20,33.09 27.36,51.99l0.19 0.61 10.49 49.19c1.93,14.7 0.52,29.47 -4.22,44.27 -4.74,14.81 -12.81,29.59 -24.19,44.31l-0.76 0.87c-17.34,17.43 -34.27,34.85 -50.48,52.52 -16.3,17.78 -32.1,36.02 -47.21,55.1l-18.41 23.2c-26.93,33.91 -53.88,67.87 -79.89,102.32 -17.22,22.83 -33.75,44.65 -49.21,64.89 -16.2,21.21 -32.73,42.71 -49.72,64.59 -31.98,41.15 -65.08,81.63 -98.77,121.67 -33.47,39.79 -67.74,79.4 -102.09,118.9 -72.02,82.83 -143.9,165.87 -215.39,249.49 -71.23,83.32 -142.05,167.2 -212.19,251.97 -118.93,143.81 -240.66,285.86 -362.44,427.98l-54.28 63.36c-69.56,81.22 -139,162.98 -208.36,244.99 -69.24,81.86 -138.31,163.88 -207.38,245.88 -82.2,97.58 -164.58,195.02 -246.97,292.44 -63.65,75.27 -127.31,150.56 -190.88,225.91 -70.29,83.28 -141.88,165.63 -214.17,247.48 -72.16,81.69 -145.02,162.91 -218.01,244.1 -36.35,40.43 -72.66,80.98 -108.85,121.67 -36.09,40.59 -72.11,81.37 -107.97,122.4 -18.7,21.39 -37.36,42.95 -56.02,64.68 -18.44,21.49 -36.91,43.22 -55.42,65.17 -12.68,15.05 -25.4,30.27 -38.24,45.81 -12.47,15.08 -24.99,30.45 -37.6,46.19 -21.96,27.47 -43.9,55.39 -64.78,83.63z"/>
  <path class="fil2" d="M1270.63 1081.58c-207.29,191.2 -549.41,104.88 -674.83,-135.05 -31.18,-59.72 -64.2,-147.03 -64.98,-215.23 -0.67,-57.82 10.94,-114.9 28.4,-169.75 34.15,-106.33 72.21,-196.75 156.99,-273.12 38.73,-35 89.99,-74.26 138.71,-93.81 57.18,-22.89 133.77,-35.84 195.33,-29.17 103.93,11.25 199.92,54.61 278.45,123.22 247.72,216.4 159.49,592.04 -58.07,792.91zm114.65 -830.3c-147.49,-137.12 -321.76,-168.52 -507.4,-115.29 -168.02,48.26 -314.29,193.68 -363.96,350.77 -47.48,110.56 -65.93,233.86 -46.67,349.78 30.06,181.22 162.38,336.02 327.13,410.07 169.02,75.99 352.67,26.77 493.5,-82.27 296.41,-229.34 384.39,-646.15 97.4,-913.06z"/>
  <path class="fil2" d="M3709.72 4056.21c-207.29,191.2 -549.41,104.88 -674.83,-135.05 -31.18,-59.72 -64.2,-147.03 -64.98,-215.23 -0.67,-57.82 10.94,-114.9 28.4,-169.75 34.15,-106.33 72.21,-196.75 156.99,-273.12 38.73,-35 89.99,-74.26 138.71,-93.81 57.18,-22.89 133.77,-35.84 195.33,-29.17 103.93,11.25 199.92,54.61 278.45,123.22 247.72,216.4 159.49,592.04 -58.07,792.91zm114.65 -830.3c-147.49,-137.12 -321.76,-168.52 -507.4,-115.29 -168.02,48.26 -314.29,193.68 -363.96,350.77 -47.48,110.56 -65.93,233.86 -46.67,349.78 30.06,181.22 162.38,336.02 327.13,410.07 169.02,75.99 352.67,26.77 493.5,-82.27 296.41,-229.34 384.39,-646.15 97.4,-913.06z"/>
  <path class="fil2" d="M3576.45 3849.35c-103.65,95.6 -274.71,52.44 -337.42,-67.53 -15.59,-29.86 -32.1,-73.51 -32.49,-107.61 -0.33,-28.91 5.47,-57.45 14.2,-84.88 17.08,-53.16 36.11,-98.37 78.5,-136.56 19.36,-17.5 44.99,-37.13 69.35,-46.9 28.59,-11.45 66.89,-17.92 97.67,-14.59 51.96,5.63 99.96,27.31 139.22,61.61 123.86,108.2 79.75,296.02 -29.03,396.46zm57.32 -415.15c-73.74,-68.56 -160.88,-84.26 -253.7,-57.65 -84.01,24.13 -157.14,96.84 -181.98,175.39 -23.74,55.28 -32.96,116.93 -23.33,174.89 15.03,90.61 81.19,168.01 163.56,205.03 84.51,38 176.34,13.39 246.75,-41.13 148.21,-114.67 192.2,-323.08 48.7,-456.53z"/>
  <path class="fil0" d="M1118.04 538.37c-85.8,-79.14 -227.42,-43.41 -279.33,55.9 -12.91,24.72 -26.58,60.86 -26.9,89.09 -0.28,23.94 4.53,47.56 11.76,70.27 14.13,44.01 29.89,81.44 64.98,113.05 16.03,14.49 37.25,30.74 57.42,38.83 23.66,9.47 55.37,14.84 80.85,12.07 43.02,-4.65 82.75,-22.6 115.26,-51 102.54,-89.57 66.01,-245.06 -24.04,-328.21zm47.46 343.69c-61.05,56.75 -133.19,69.75 -210.03,47.72 -69.55,-19.98 -130.09,-80.17 -150.65,-145.2 -19.66,-45.76 -27.29,-96.8 -19.32,-144.78 12.44,-75.01 67.21,-139.09 135.41,-169.74 69.96,-31.45 145.98,-11.08 204.27,34.06 122.69,94.93 159.11,267.46 40.32,377.94z"/>
  <path class="fil3" d="M1315.62 1022.82c-44.51,1.24 -86.25,18.11 -129.6,27.2 -53.38,11.2 -107.71,16.73 -162.11,19.27 -24.72,1.16 -24.65,37.02 0,38.33 91.72,4.95 223.13,5.53 301.24,-49.6 14.32,-10.11 10.54,-35.71 -9.53,-35.2z"/>
  <path class="fil4" d="M3759.88 4002.21c-44.51,1.24 -86.25,18.11 -129.6,27.2 -53.38,11.2 -107.71,16.73 -162.11,19.27 -24.72,1.16 -24.65,37.02 0,38.33 91.72,4.95 223.13,5.53 301.24,-49.6 14.32,-10.11 10.54,-35.71 -9.53,-35.2z"/>
  <path class="fil3" d="M1279.6 808.13c29.56,0.82 57.29,12.03 86.08,18.07 35.46,7.44 71.55,11.11 107.68,12.8 16.43,0.77 16.38,24.59 0,25.46 -60.92,3.28 -148.21,3.67 -200.09,-32.95 -9.52,-6.72 -7.01,-23.72 6.33,-23.38z"/>
  <path class="fil4" d="M3723.86 3787.52c29.56,0.82 57.29,12.03 86.08,18.07 35.46,7.44 71.55,11.11 107.68,12.8 16.43,0.77 16.38,24.59 0,25.46 -60.92,3.28 -148.21,3.67 -200.09,-32.95 -9.52,-6.72 -7.01,-23.72 6.33,-23.38z"/>
  <path class="fil3" d="M1306.91 623.25c29.56,-0.82 57.29,-12.03 86.08,-18.07 35.46,-7.44 71.55,-11.11 107.68,-12.8 16.43,-0.77 16.38,-24.59 0,-25.46 -60.92,-3.28 -148.21,-3.67 -200.09,32.95 -9.52,6.72 -7.01,23.72 6.33,23.38z"/>
  <path class="fil4" d="M3751.17 3602.64c29.56,-0.82 57.29,-12.03 86.08,-18.07 35.46,-7.44 71.55,-11.11 107.68,-12.8 16.43,-0.77 16.38,-24.59 0,-25.46 -60.92,-3.28 -148.21,-3.67 -200.09,32.95 -9.52,6.72 -7.01,23.72 6.33,23.38z"/>
  <path class="fil3" d="M1339.5 292.13c-29.56,0.82 -57.29,12.03 -86.08,18.07 -35.46,7.44 -71.55,11.11 -107.68,12.8 -16.43,0.77 -16.38,24.59 0,25.46 60.92,3.28 148.21,3.67 200.09,-32.95 9.52,-6.72 7.01,-23.72 -6.33,-23.38z"/>
  <path class="fil4" d="M3783.76 3271.52c-29.56,0.82 -57.29,12.03 -86.08,18.07 -35.46,7.44 -71.55,11.11 -107.68,12.8 -16.43,0.77 -16.38,24.59 0,25.46 60.92,3.28 148.21,3.67 200.09,-32.95 9.52,-6.72 7.01,-23.72 -6.33,-23.38z"/>
  <path class="fil3" d="M1384.56 968.77c-29.55,-0.82 -57.27,-12.03 -86.06,-18.07 -35.45,-7.44 -71.52,-11.1 -107.65,-12.79 -16.41,-0.78 -16.37,-24.59 0,-25.46 60.91,-3.28 148.17,-3.67 200.04,32.94 9.51,6.71 7,23.71 -6.33,23.38z"/>
  <path class="fil4" d="M3828.82 3948.16c-29.55,-0.82 -57.27,-12.03 -86.06,-18.07 -35.45,-7.44 -71.52,-11.1 -107.65,-12.79 -16.41,-0.78 -16.37,-24.59 0,-25.46 60.91,-3.28 148.17,-3.67 200.04,32.94 9.51,6.71 7,23.71 -6.33,23.38z"/>
  <path class="fil3" d="M1473.55 454.88c-29.55,0.82 -57.27,12.03 -86.06,18.07 -35.45,7.44 -71.52,11.1 -107.65,12.79 -16.41,0.78 -16.37,24.59 0,25.46 60.91,3.28 148.17,3.67 200.04,-32.94 9.51,-6.71 7,-23.71 -6.33,-23.38z"/>
  <path class="fil4" d="M3917.81 3434.27c-29.55,0.82 -57.27,12.03 -86.06,18.07 -35.45,7.44 -71.52,11.1 -107.65,12.79 -16.41,0.78 -16.37,24.59 0,25.46 60.91,3.28 148.17,3.67 200.04,-32.94 9.51,-6.71 7,-23.71 -6.33,-23.38z"/>
  <path class="fil3" d="M1220.82 420.26c29.55,-0.82 57.27,-12.03 86.06,-18.07 35.45,-7.44 71.52,-11.1 107.65,-12.79 16.41,-0.78 16.37,-24.59 0,-25.46 -60.91,-3.28 -148.17,-3.67 -200.04,32.94 -9.51,6.71 -7,23.71 6.33,23.38z"/>
  <path class="fil4" d="M3665.08 3399.65c29.55,-0.82 57.27,-12.03 86.06,-18.07 35.45,-7.44 71.52,-11.1 107.65,-12.79 16.41,-0.78 16.37,-24.59 0,-25.46 -60.91,-3.28 -148.17,-3.67 -200.04,32.94 -9.51,6.71 -7,23.71 6.33,23.38z"/>
  <path class="fil4" d="M1180.67 1151.31c-36.18,-6.18 -72.1,-1.72 -108.34,-2.59 -44.62,-1.06 -89.3,-5.98 -133.65,-12.85 -20.16,-3.12 -24.64,20.27 -4.84,24.99 73.61,17.6 179.91,38.59 250.1,14.89 12.87,-4.34 13.04,-21.63 -3.27,-24.44z"/>
  <path class="fil4" d="M3624.93 4130.7c-36.18,-6.18 -72.1,-1.72 -108.34,-2.59 -44.62,-1.06 -89.3,-5.98 -133.65,-12.85 -20.16,-3.12 -24.64,20.27 -4.84,24.99 73.61,17.6 179.91,38.59 250.1,14.89 12.87,-4.34 13.04,-21.63 -3.27,-24.44z"/>
  <path class="fil3" d="M1469.23 799.43c-29.55,-0.82 -57.27,-12.03 -86.06,-18.07 -35.45,-7.44 -71.52,-11.1 -107.65,-12.79 -16.41,-0.78 -16.37,-24.59 0,-25.46 60.91,-3.28 148.17,-3.67 200.04,32.94 9.51,6.71 7,23.71 -6.33,23.38z"/>
  <path class="fil4" d="M3913.49 3778.82c-29.55,-0.82 -57.27,-12.03 -86.06,-18.07 -35.45,-7.44 -71.52,-11.1 -107.65,-12.79 -16.41,-0.78 -16.37,-24.59 0,-25.46 60.91,-3.28 148.17,-3.67 200.04,32.94 9.51,6.71 7,23.71 -6.33,23.38z"/>
  <path class="fil3" d="M1496.54 631.95c-29.55,0.82 -57.27,12.03 -86.06,18.07 -35.45,7.44 -71.52,11.1 -107.65,12.79 -16.41,0.78 -16.37,24.59 0,25.46 60.91,3.28 148.17,3.67 200.04,-32.94 9.51,-6.71 7,-23.71 -6.33,-23.38z"/>
  <path class="fil4" d="M3940.8 3611.34c-29.55,0.82 -57.27,12.03 -86.06,18.07 -35.45,7.44 -71.52,11.1 -107.65,12.79 -16.41,0.78 -16.37,24.59 0,25.46 60.91,3.28 148.17,3.67 200.04,-32.94 9.51,-6.71 7,-23.71 -6.33,-23.38z"/>
  <path class="fil3" d="M1149.87 283.43c29.55,-0.82 57.27,-12.03 86.06,-18.07 35.45,-7.44 71.52,-11.1 107.65,-12.79 16.41,-0.78 16.37,-24.59 0,-25.46 -60.91,-3.28 -148.17,-3.67 -200.04,32.94 -9.51,6.71 -7,23.71 6.33,23.38z"/>
  <path class="fil4" d="M3594.13 3262.82c29.55,-0.82 57.27,-12.03 86.06,-18.07 35.45,-7.44 71.52,-11.1 107.65,-12.79 16.41,-0.78 16.37,-24.59 0,-25.46 -60.91,-3.28 -148.17,-3.67 -200.04,32.94 -9.51,6.71 -7,23.71 6.33,23.38z"/>
  <rect class="fil5" x="-5.9" y="-5.21" width="4343.4" height="4343.58"/>
 </g>
</svg>
