<?xml version="1.0" encoding="UTF-8"?>
<!DOCTYPE svg PUBLIC "-//W3C//DTD SVG 1.1//EN" "http://www.w3.org/Graphics/SVG/1.1/DTD/svg11.dtd">
<!-- Creator: CorelDRAW 2018 (64-Bit) -->
<svg xmlns="http://www.w3.org/2000/svg" xml:space="preserve" width="43.4338mm" height="43.4338mm" version="1.1" style="shape-rendering:geometricPrecision; text-rendering:geometricPrecision; image-rendering:optimizeQuality; fill-rule:evenodd; clip-rule:evenodd"
viewBox="0 0 4343.38 4343.38"
 xmlns:xlink="http://www.w3.org/1999/xlink">
 <defs>
  <style type="text/css">
   <![CDATA[
    .fil3 {fill:none}
    .fil0 {fill:#434242;fill-rule:nonzero}
    .fil1 {fill:#2B2A29;fill-rule:nonzero}
    .fil2 {fill:black;fill-rule:nonzero}
   ]]>
  </style>
 </defs>
 <g id="Слой_x0020_1">
  <metadata id="CorelCorpID_0Corel-Layer"/>
  <path class="fil0" d="M643.47 3560.7c0.76,-2.85 1.58,-5.44 2.45,-7.89 66.3,3.45 132.66,6.13 199.06,7.26 102.1,1.7 204.15,-0.41 306.22,-2.4 88.1,-1.78 176.21,-2.82 264.32,-4.23 70.55,-1.1 141.12,-2.45 211.69,-3.77 81.34,-1.6 162.7,-2.52 243.99,-4.89 142.09,-4.07 725.16,-8.11 1078.95,-11.82l52.65 0.87c88.19,1.4 176.39,2.48 264.57,4.25 36.26,0.71 72.5,1.42 108.76,1.99l28.89 1.81c86.19,5.24 172.58,9.03 258.89,11.89l0.59 2.75 70.55 0 0.03 -0.58 1.83 0.06 0 0.52 20 0c11.28,0.28 22.56,0.55 33.83,0.78l0 -117.16 -3.7 -0.71c-2.26,-66.15 -5.16,-132.31 -8.95,-198.34 -4.41,-76.76 -7.26,-153.63 -10.84,-230.45 -1.08,-23.1 -1.19,-46.2 -1.5,-69.34 -0.7,-53.16 -1.42,-106.29 -2.13,-159.45 -0.28,-21.78 -0.69,-43.54 -0.48,-65.31 0.48,-48.21 0.98,-96.43 1.49,-144.64 0.67,-66.33 1.47,-132.62 3.06,-198.93 3.91,-166.84 8.31,-333.65 12.85,-500.46 1.98,-72.54 2.77,-145.15 4.1,-217.71 1.13,-62.97 2.25,-125.93 3.18,-188.89 1.17,-78.62 2.09,-157.24 3.57,-235.85 1.67,-91.08 3.45,-182.13 2.01,-273.22 -0.48,-30.34 -1.32,-60.66 -2.4,-90.97l0.17 -0.01 0 -66.76 -2.94 -0.22 -0.68 -14.33 -97.83 0c-0.76,2.84 -1.57,5.43 -2.45,7.88 -66.3,-3.45 -132.65,-6.13 -199.06,-7.26 -102.1,-1.7 -204.15,0.41 -306.22,2.4 -88.1,1.78 -176.21,2.82 -264.32,4.23 -70.55,1.1 -141.12,2.45 -211.68,3.77 -81.35,1.6 -162.71,2.53 -243.99,4.89 -142.1,4.08 -725.16,8.11 -1078.96,11.82l-52.65 -0.87c-88.19,-1.4 -176.39,-2.48 -264.57,-4.25 -36.26,-0.71 -72.5,-1.42 -108.76,-1.99l-28.88 -1.81c-86.2,-5.24 -172.58,-9.03 -258.9,-11.89l-0.58 -2.75 -70.55 0 -0.04 0.58 -1.82 -0.06 -0.01 -0.52 -20 0c-11.28,-0.28 -22.55,-0.55 -33.83,-0.78l0 117.16 3.7 0.71c2.27,66.15 5.17,132.31 8.95,198.34 4.41,76.77 7.26,153.63 10.84,230.45 1.08,23.1 1.19,46.2 1.5,69.34 0.7,53.16 1.43,106.29 2.14,159.45 0.28,21.78 0.69,43.55 0.47,65.31 -0.47,48.21 -0.98,96.43 -1.48,144.64 -0.68,66.33 -1.48,132.62 -3.06,198.94 -3.92,166.83 -8.32,333.64 -12.86,500.45 -1.98,72.54 -2.77,145.15 -4.1,217.71 -1.12,62.97 -2.25,125.94 -3.17,188.89 -1.18,78.62 -2.09,157.24 -3.58,235.85 -1.67,91.08 -3.45,182.13 -2.01,273.22 0.49,30.34 1.32,60.66 2.4,90.97l-0.17 0.01 0 66.76 2.94 0.22 0.68 14.34 97.83 0zm3000.77 -140.39c-141.79,-12.79 -361.46,-18.49 -725.1,-5.89 -84.07,2.88 -168.11,6.54 -252.21,8.55 -105.93,2.54 -211.84,5.08 -317.75,7.63 -21.55,0.51 -43.13,0.65 -64.68,0.9 -59.39,0.57 -118.79,1.19 -178.18,1.81 -44.48,0.43 -88.98,0.9 -133.44,1.36 -25.55,0.23 -51.08,-0.17 -76.63,-0.28 -100.87,-0.42 -201.76,-0.89 -302.63,-1.3 -30.06,-0.12 -60.17,-1.14 -90.25,-1.73 -61.66,-1.18 -123.34,-2.41 -185.06,-3.63 -76.22,-1.48 -152.42,-3.57 -228.66,-5.71 -154.25,-1.71 -234.96,5.32 -281.98,15.15 -50.62,3.85 -92.26,8.56 -127.28,13.72 6.27,-43.97 10.31,-113.27 9.08,-229.34 -0.65,-24.65 2.85,-49.3 -1.91,-73.9 -2.33,-12.14 -17.14,-14.4 -35.61,-14.96l-0.02 -10.87c16.58,-5.74 31.77,-25.24 28.06,-67.12 0.52,-52.88 1.04,-844.29 1.51,-897.17 0.22,-19.18 0.33,-38.41 0.75,-57.59 2.16,-94.31 4.29,-188.63 6.45,-282.95 1.67,-74.9 4.75,-149.74 7.2,-224.61 11.25,-343.02 5.18,-542.19 -6.95,-667.45 141.8,12.79 361.47,18.49 725.1,5.89 84.07,-2.88 168.11,-6.54 252.21,-8.55 105.93,-2.54 211.84,-5.08 317.75,-7.63 21.55,-0.51 43.13,-0.65 64.69,-0.9 59.38,-0.57 118.79,-1.19 178.17,-1.81 44.49,-0.43 88.98,-0.9 133.44,-1.36 25.55,-0.23 51.09,0.17 76.64,0.28 100.87,0.42 201.75,0.9 302.62,1.3 30.06,0.13 60.17,1.14 90.25,1.73 61.66,1.18 123.34,2.41 185.06,3.63 76.22,1.48 152.42,3.58 228.66,5.71 154.25,1.71 234.97,-5.32 281.98,-15.15 50.63,-3.84 92.26,-8.56 127.28,-13.72 -6.27,43.97 -10.31,113.27 -9.08,229.34 0.65,24.66 -2.84,49.3 1.91,73.9 2.33,12.15 17.14,14.4 35.62,14.96l0.01 10.87c-16.58,5.74 -31.77,25.24 -28.05,67.12 -0.53,52.89 -1.04,844.29 -1.52,897.17 -0.21,19.18 -0.32,38.41 -0.75,57.6 -2.16,94.3 -4.29,188.62 -6.45,282.94 -1.67,74.9 -4.75,149.75 -7.2,224.61 -11.24,343.02 -5.18,542.2 6.95,667.45z"/>
  <path class="fil0" d="M3359.38 521.14c-45.71,-4.84 -21.59,-16.79 -291.3,-15.66l-5.31 0.03 0 50.81c49.53,0.29 99.07,0.42 148.63,0.11 49.37,-0.32 98.69,-1.05 147.98,-1.99l0 -33.3zm-459.9 -12.48l-133.8 -0.1 0 45.92 8.47 0.05 125.33 0.7 0 -46.57zm-297.09 -0.18l-203.32 -0.1 0 43.39 25.85 0.28c59.13,0.64 118.32,0.91 177.47,1.33l0 -44.9zm-366.6 -0.19c-43.39,-0.03 -73.24,-0.07 -81.6,-0.1 -16.48,-0.07 -32.99,-0.1 -49.48,-0.25l-39.87 -0.36 0 40.76 170.95 1.7 0 -41.75zm-334.23 -2.19l-39.87 -0.36c-58.54,-0.52 -117.05,-1.43 -175.57,-2.22l0 42.59 13.85 0.02c41.41,0.16 82.83,0.33 124.23,0.5 25.79,0.1 51.57,0.22 77.36,0.36l0 -40.89zm-378.73 -4.32c-94.95,-0.69 -173.96,-0.66 -240.2,-0.08l0 48.8c54.89,-1.12 109.83,-1.96 164.73,-2.97 19.84,-0.37 39.68,-0.41 59.56,-0.52l15.91 -0.08 0 -45.15zm-403.48 3.04c-63.95,2.09 -107.64,4.87 -140.85,7.73l0 24.01 16.89 0.39c-4.82,0.1 -10.34,0.19 -16.89,0.25l0 18.22c18.11,-0.16 36.22,-0.36 54.32,-0.57 28.84,-0.34 57.69,-0.72 86.53,-1.17l0 -48.86z"/>
  <path class="fil0" d="M4111.94 945.7c-4.83,45.72 -16.79,21.6 -15.66,291.3l0.03 5.32 50.82 0c0.28,-49.53 0.41,-99.08 0.1,-148.63 -0.31,-49.37 -1.04,-98.7 -1.99,-147.99l-33.3 0zm-12.48 459.9l-0.1 133.81 45.92 0 0.05 -8.47 0.7 -125.34 -46.57 0zm-0.18 297.09l-0.1 203.32 43.4 0 0.27 -25.84c0.64,-59.13 0.92,-118.32 1.33,-177.48l-44.9 0zm-0.19 366.61c-0.03,43.38 -0.07,73.24 -0.1,81.59 -0.07,16.49 -0.1,33 -0.25,49.48l-0.36 39.88 40.76 0 1.71 -170.95 -41.76 0zm-2.19 334.23l-0.35 39.87c-0.53,58.54 -1.44,117.05 -2.23,175.57l42.59 0 0.02 -13.86c0.16,-41.41 0.33,-82.82 0.5,-124.23 0.11,-25.79 0.22,-51.57 0.36,-77.35l-40.89 0zm-4.31 378.72c-0.7,94.96 -0.67,173.97 -0.09,240.2l48.8 0c-1.12,-54.88 -1.96,-109.82 -2.97,-164.73 -0.37,-19.84 -0.4,-39.68 -0.52,-59.56l-0.08 -15.91 -45.14 0zm3.03 403.49c2.09,63.95 4.87,107.63 7.74,140.84l24.01 0 0.39 -16.88c0.09,4.81 0.19,10.33 0.24,16.88l18.23 0c-0.17,-18.11 -0.37,-36.22 -0.58,-54.32 -0.34,-28.83 -0.72,-57.68 -1.17,-86.52l-48.86 0z"/>
  <path class="fil0" d="M1069.82 3916.44c45.71,4.83 21.59,16.79 291.3,15.66l5.32 -0.03 0 -50.82c-49.54,-0.28 -99.08,-0.41 -148.64,-0.1 -49.36,0.31 -98.69,1.04 -147.98,1.99l0 33.3zm459.9 12.48l133.81 0.1 0 -45.92 -8.48 -0.05 -125.33 -0.7 0 46.57zm297.09 0.18l203.32 0.1 0 -43.39 -25.84 -0.28c-59.14,-0.64 -118.33,-0.92 -177.48,-1.33l0 44.9zm366.6 0.19c43.39,0.03 73.24,0.07 81.6,0.1 16.48,0.07 32.99,0.1 49.48,0.25l39.87 0.36 0 -40.76 -170.95 -1.71 0 41.76zm334.24 2.19l39.86 0.35c58.54,0.53 117.06,1.44 175.58,2.23l0 -42.59 -13.86 -0.02c-41.41,-0.16 -82.82,-0.33 -124.23,-0.5 -25.79,-0.11 -51.57,-0.22 -77.35,-0.36l0 40.89zm378.72 4.31c94.96,0.7 173.97,0.67 240.2,0.09l0 -48.8c-54.89,1.12 -109.82,1.96 -164.73,2.97 -19.84,0.37 -39.68,0.4 -59.56,0.52l-15.91 0.08 0 45.14zm403.49 -3.03c63.94,-2.09 107.63,-4.87 140.84,-7.74l0 -24.01 -16.89 -0.39c4.82,-0.09 10.34,-0.18 16.89,-0.24l0 -18.23c-18.11,0.17 -36.22,0.37 -54.32,0.58 -28.83,0.34 -57.68,0.72 -86.52,1.17l0 48.86z"/>
  <path class="fil0" d="M206.44 3428.01c4.84,-45.72 16.79,-21.59 15.66,-291.3l-0.03 -5.32 -50.81 0c-0.29,49.54 -0.42,99.08 -0.11,148.64 0.31,49.36 1.05,98.69 1.99,147.98l33.3 0zm12.48 -459.9l0.1 -133.81 -45.92 0 -0.05 8.48 -0.7 125.33 46.57 0zm0.18 -297.09l0.1 -203.32 -43.39 0 -0.28 25.84c-0.64,59.14 -0.92,118.33 -1.33,177.48l44.9 0zm0.19 -366.6c0.03,-43.39 0.07,-73.24 0.1,-81.6 0.07,-16.48 0.1,-32.99 0.25,-49.48l0.36 -39.87 -40.76 0 -1.7 170.95 41.75 0zm2.19 -334.24l0.36 -39.86c0.52,-58.54 1.43,-117.06 2.22,-175.57l-42.59 0 -0.02 13.85c-0.16,41.41 -0.33,82.82 -0.5,124.23 -0.1,25.79 -0.22,51.57 -0.36,77.35l40.89 0zm4.31 -378.72c0.7,-94.96 0.67,-173.97 0.09,-240.2l-48.8 0c1.12,54.89 1.96,109.82 2.97,164.73 0.37,19.84 0.41,39.68 0.52,59.56l0.08 15.91 45.14 0zm-3.03 -403.48c-2.09,-63.95 -4.87,-107.64 -7.73,-140.85l-24.02 0 -0.39 16.89c-0.09,-4.82 -0.18,-10.34 -0.24,-16.89l-18.23 0c0.17,18.11 0.37,36.22 0.58,54.32 0.34,28.84 0.72,57.68 1.17,86.53l48.86 0z"/>
  <path class="fil0" d="M1740.68 2659.55c-289.27,361.34 -382.4,520.76 -424.96,615.71l60.64 45.76 13.1 -15.31c-3.21,4.76 -6.95,10.17 -11.5,16.51l46.03 34.73c12.56,-17.54 25.04,-35.13 37.48,-52.75 49.67,-70.23 98.61,-141.12 146.18,-212.77 43.5,-65.53 88.4,-130.14 132.65,-195.17l0.38 -0.55 0 -236.16z"/>
  <path class="fil0" d="M3044.97 1028.69c-45,34.24 -57.88,-11.46 -248.46,247.04 -14.62,20.54 -32.8,38.4 -43.88,61.56 -5.47,11.43 5.87,22.87 21.4,35.31l-6.69 8.88c-17.78,-6.06 -42.85,0.01 -65.45,36.61 -8.53,11.04 -47.36,62.29 -100.82,132.88 40.78,26.2 76.5,59.27 107.18,99.23l1.3 -1.66c49.43,-63.41 98.65,-127.01 148.35,-190.22 57.54,-73.26 115.16,-146.44 170.04,-221.74 34.61,-47.52 68.14,-95.8 101.1,-144.45l-84.07 -63.44z"/>
  <path class="fil0" d="M1740.68 2090.98c-28.66,37.85 -48.38,63.82 -54.08,71.23 -11.68,15.1 -23.29,30.3 -35.14,45.26 -58.32,73.53 -116.62,147.09 -174.94,220.63 -46.29,58.42 -93.7,115.91 -140.61,173.82 -317.31,391.64 -415.28,558.19 -458.84,655.36l58.99 44.51 12.74 -14.89c-3.12,4.63 -6.76,9.9 -11.19,16.06l44.77 33.79c12.23,-17.07 24.36,-34.18 36.48,-51.31 48.3,-68.32 95.91,-137.28 142.19,-206.98 42.31,-63.75 85.99,-126.59 129.03,-189.85 12.94,-19.02 26.7,-37.44 40.3,-56.01 31.27,-42.65 62.5,-85.3 93.76,-127.97 12.82,-17.47 25.52,-35.01 38.74,-52.16 29.29,-37.99 58.6,-75.96 87.92,-113.93 40.3,-52.25 80.69,-104.38 121.76,-156.04 22.69,-28.58 45.4,-57.14 68.12,-85.69l0 -205.83z"/>
  <path class="fil0" d="M2559.2 1071.92c-43.76,33.31 -56.3,-11.14 -241.69,240.31 -14.22,19.98 -31.91,37.36 -42.67,59.89 -5.33,11.12 5.7,22.24 20.8,34.34l-6.5 8.64c-16.89,-5.75 -40.55,-0.25 -62.13,33.17 52.85,3.14 106.03,9.66 159.55,19.57l6.92 1.31c50.56,-64.37 100.93,-128.84 149.15,-195 33.67,-46.23 66.29,-93.19 98.35,-140.51l-81.78 -61.72z"/>
  <path class="fil0" d="M2239.16 997.75c-35.44,26.97 -45.58,-9.02 -195.7,194.59 -11.52,16.18 -25.84,30.24 -34.56,48.49 -4.31,9 4.61,18.01 16.85,27.81l-5.27 7c-14.01,-4.78 -33.75,0 -51.55,28.83 -8.75,11.34 -57.99,76.34 -120.46,158.9l45.53 -5.32c32.52,-3.76 69,-6.64 109.43,-8.63 29.4,-37.79 58.78,-75.61 88.38,-113.26 45.33,-57.71 90.71,-115.35 133.94,-174.66 27.26,-37.43 53.67,-75.46 79.63,-113.78l-66.22 -49.97zm-498.48 608.06c-99.14,131.04 -195.54,258.46 -208.1,274.79 -9.45,12.23 -18.86,24.53 -28.45,36.65 -47.22,59.54 -94.43,119.11 -141.66,178.65 -37.48,47.31 -75.87,93.86 -113.86,140.75 -256.94,317.13 -336.27,452 -371.54,530.68l47.76 36.03 10.32 -12.05c-2.52,3.75 -5.47,8.01 -9.06,13.01l36.26 27.35c9.89,-13.82 19.73,-27.67 29.53,-41.54 39.12,-55.33 77.67,-111.17 115.14,-167.61 34.26,-51.62 69.63,-102.5 104.48,-153.73 10.49,-15.39 21.62,-30.31 32.64,-45.35 25.31,-34.53 50.6,-69.07 75.92,-103.62 10.38,-14.15 20.66,-28.35 31.36,-42.24 23.72,-30.76 47.46,-61.5 71.19,-92.25 32.64,-42.31 65.35,-84.52 98.6,-126.35 72.97,-91.89 146.17,-183.58 219.47,-275.19l0 -177.98z"/>
  <path class="fil0" d="M1786.69 995.13c-25.28,19.23 -32.52,-6.44 -139.58,138.77 -8.22,11.55 -18.44,21.58 -24.66,34.6 -3.07,6.41 3.3,12.84 12.02,19.82l-3.76 4.99c-9.98,-3.4 -24.06,0.01 -36.76,20.57 -18.56,24.06 -292.68,386.82 -311.21,410.9 -6.74,8.73 -13.45,17.51 -20.3,26.15 -33.68,42.46 -67.34,84.94 -101.03,127.42 -26.73,33.74 -54.11,66.93 -81.21,100.38 -183.25,226.18 -239.83,322.37 -264.98,378.49l34.07 25.7 7.36 -8.6c-1.81,2.68 -3.91,5.72 -6.47,9.28l25.86 19.51c7.06,-9.86 14.07,-19.74 21.06,-29.63 27.9,-39.47 55.4,-79.29 82.12,-119.54 24.43,-36.82 49.67,-73.11 74.52,-109.65 7.47,-10.97 15.42,-21.62 23.27,-32.34 18.06,-24.63 36.1,-49.27 54.15,-73.9 7.4,-10.09 14.74,-20.22 22.37,-30.13 16.92,-21.94 33.85,-43.87 50.77,-65.79 23.29,-30.18 46.61,-60.29 70.33,-90.12 59.63,-75.09 119.48,-149.99 179.4,-224.84 26.05,-32.55 51.57,-65.56 77.31,-98.35 22.34,-28.47 44.67,-56.94 66.91,-85.47 27.77,-35.62 55.42,-71.35 83.34,-106.86 32.33,-41.17 64.7,-82.28 95.53,-124.58 19.44,-26.69 38.27,-53.82 56.79,-81.15l-47.22 -35.63z"/>
  <path class="fil0" d="M1309.62 995.13c-12.24,9.31 -15.74,-3.12 -67.58,67.19 -3.98,5.59 -8.92,10.44 -11.93,16.74 -1.5,3.11 1.58,6.23 5.81,9.61l-1.81 2.42c-4.84,-1.65 -11.66,0 -17.81,9.95 -8.99,11.65 -141.71,187.3 -150.68,198.96 -3.27,4.22 -6.51,8.46 -9.83,12.65 -16.3,20.56 -32.61,41.13 -48.92,61.69 -12.94,16.34 -26.2,32.42 -39.31,48.61 -88.73,109.51 -116.13,156.08 -128.3,183.25l16.49 12.45 3.57 -4.17c-0.88,1.3 -1.9,2.77 -3.13,4.5l12.51 9.44c3.42,-4.76 6.81,-9.55 10.2,-14.34 13.51,-19.11 26.82,-38.39 39.76,-57.88 11.83,-17.83 24.05,-35.4 36.09,-53.09 3.61,-5.32 7.45,-10.47 11.26,-15.66 8.74,-11.92 17.47,-23.85 26.22,-35.78 3.58,-4.89 7.13,-9.79 10.83,-14.59 8.19,-10.62 16.39,-21.24 24.58,-31.85 11.27,-14.61 22.57,-29.19 34.05,-43.63 28.87,-36.37 57.85,-72.63 86.86,-108.87 12.62,-15.76 24.97,-31.74 37.44,-47.62 10.81,-13.78 21.62,-27.57 32.39,-41.38 13.45,-17.25 26.84,-34.55 40.36,-51.74 15.65,-19.93 31.32,-39.84 46.24,-60.32 9.42,-12.93 18.54,-26.06 27.51,-39.29l-22.87 -17.25z"/>
  <path class="fil0" d="M3366.63 1028.69c-44.98,34.24 -57.86,-11.46 -248.45,247.04 -14.63,20.54 -32.8,38.39 -43.88,61.56 -5.47,11.43 5.86,22.86 21.4,35.3l-6.69 8.89c-17.78,-6.06 -42.85,0.01 -65.46,36.61 -15.56,20.17 -132.12,174.22 -254.5,335.97 21.08,50.83 34.15,110.57 39.19,179.22 34.79,-44.07 69.21,-88.44 103.89,-132.6 39.75,-50.67 79.5,-101.35 119.08,-152.14 49.44,-63.41 98.66,-127.01 148.36,-190.22 57.55,-73.27 115.15,-146.45 170.03,-221.74 34.62,-47.52 68.15,-95.8 101.11,-144.45l-84.08 -63.44zm-1198.9 1500.74c-16.95,20.81 -33.91,41.61 -50.83,62.45l0 228.36 82.88 -113.11c13.18,-17.96 26.23,-36 39.82,-53.63 30.11,-39.05 60.25,-78.08 90.38,-117.11l4.9 -6.36c-24.58,2.25 -49.39,3.39 -74.45,3.39 -27.55,0 -55.45,-1.09 -83.72,-3.26l-8.98 -0.73zm-388.79 506.03c-79.02,115.1 -118.02,187.31 -141.55,239.8l60.64 45.76 13.1 -15.31c-3.21,4.76 -6.95,10.17 -11.51,16.51l46.03 34.73c12.56,-17.54 25.05,-35.13 37.49,-52.75 49.67,-70.23 98.61,-141.12 146.18,-212.77 9.58,-14.43 19.22,-28.81 28.91,-43.16 -9.72,0.36 -19.17,0.54 -28.35,0.54 -41.91,0 -92.22,-4.45 -150.94,-13.35z"/>
  <path class="fil0" d="M3455.59 1342.01c-38.93,29.63 -50.08,-9.91 -215.02,213.79 -12.65,17.78 -28.39,33.24 -37.97,53.28 -4.74,9.89 5.07,19.79 18.52,30.56l-5.79 7.69c-15.39,-5.25 -37.09,0 -56.65,31.67 -19.73,25.6 -227.06,299.81 -362.98,479.4 -7.66,36.24 -18.27,69.19 -31.84,98.84 -31.17,68.14 -72.48,122.51 -123.95,163.1 -27.91,22.01 -57.95,40.61 -90.13,55.81l-57.41 72.41c-41.18,51.97 -83.37,103.12 -125.1,154.64 -110.35,136.2 -190.88,241.8 -250.37,325.07l0 0.97 -0.8 0.16c-92.12,129.06 -133.51,204.35 -157.04,256.86l52.47 39.59 11.34 -13.25c-2.78,4.13 -6.01,8.81 -9.95,14.3l39.83 30.05c10.87,-15.18 21.67,-30.4 32.44,-45.64 42.98,-60.79 85.34,-122.14 126.51,-184.15 37.65,-56.71 76.5,-112.62 114.8,-168.9 11.51,-16.92 23.74,-33.31 35.85,-49.83 27.82,-37.95 55.6,-75.89 83.41,-113.86 11.41,-15.53 22.71,-31.14 34.47,-46.4 26.05,-33.8 52.14,-67.57 78.22,-101.36 35.86,-46.48 71.79,-92.86 108.32,-138.82 91.86,-115.68 184.06,-231.06 276.37,-346.36 40.13,-50.15 79.44,-101 119.1,-151.52 34.41,-43.85 68.82,-87.7 103.07,-131.66 42.78,-54.88 85.37,-109.92 128.39,-164.62 49.8,-63.41 99.66,-126.74 147.15,-191.91 29.95,-41.12 58.98,-82.9 87.5,-125l-72.76 -54.91z"/>
  <path class="fil0" d="M3403.84 1844.79c-29.22,22.23 -37.59,-7.44 -161.37,160.45 -9.5,13.34 -21.31,24.93 -28.5,39.98 -3.55,7.42 3.81,14.85 13.9,22.93l-4.34 5.77c-11.55,-3.94 -27.83,0 -42.52,23.77 -21.45,27.82 -338.36,447.22 -359.78,475.05 -7.8,10.09 -15.55,20.23 -23.47,30.23 -38.94,49.08 -77.86,98.2 -116.8,147.3 -30.9,39.01 -62.57,77.4 -93.88,116.06 -211.86,261.49 -277.28,372.68 -306.36,437.57l39.38 29.71 8.51 -9.94c-2.08,3.1 -4.51,6.61 -7.47,10.73l29.9 22.55c8.16,-11.39 16.26,-22.82 24.35,-34.25 32.25,-45.62 64.04,-91.67 94.94,-138.2 28.25,-42.56 57.41,-84.52 86.15,-126.76 8.64,-12.7 17.82,-24.99 26.9,-37.39 20.88,-28.48 41.73,-56.96 62.61,-85.44 8.56,-11.67 17.03,-23.38 25.86,-34.83 19.55,-25.37 39.13,-50.72 58.7,-76.07 26.91,-34.89 53.88,-69.69 81.3,-104.19 68.93,-86.81 138.13,-173.4 207.4,-259.93 30.12,-37.63 59.62,-75.79 89.39,-113.7 25.82,-32.92 51.64,-65.83 77.35,-98.82 32.11,-41.19 64.07,-82.49 96.35,-123.54 37.38,-47.59 74.79,-95.12 110.44,-144.02 22.47,-30.87 44.25,-62.22 65.67,-93.82l-54.61 -41.2z"/>
  <path class="fil0" d="M3459.28 2203.23c-22.29,16.96 -28.67,-5.68 -123.11,122.41 -7.25,10.18 -16.26,19.03 -21.75,30.51 -2.71,5.66 2.91,11.33 10.6,17.49l-3.31 4.41c-8.81,-3.01 -21.23,0 -32.43,18.13 -16.37,21.23 -258.16,341.21 -274.51,362.45 -5.94,7.69 -11.86,15.43 -17.9,23.06 -29.71,37.45 -59.4,74.93 -89.11,112.39 -23.58,29.76 -47.74,59.04 -71.63,88.54 -161.64,199.51 -211.55,284.35 -233.74,333.85l30.05 22.67 6.49 -7.58c-1.59,2.36 -3.45,5.04 -5.7,8.18l22.81 17.21c6.22,-8.69 12.41,-17.41 18.57,-26.13 24.61,-34.81 48.87,-69.94 72.44,-105.45 21.55,-32.47 43.81,-64.48 65.73,-96.7 6.6,-9.69 13.6,-19.07 20.53,-28.54 15.93,-21.72 31.84,-43.45 47.77,-65.19 6.53,-8.9 12.99,-17.83 19.73,-26.57 14.91,-19.35 29.85,-38.69 44.78,-58.03 20.54,-26.62 41.11,-53.17 62.03,-79.49 52.6,-66.23 105.39,-132.3 158.24,-198.33 22.98,-28.7 45.49,-57.82 68.2,-86.74 19.7,-25.12 39.4,-50.23 59.01,-75.4 24.5,-31.42 48.89,-62.93 73.51,-94.26 28.52,-36.3 57.07,-72.57 84.26,-109.88 17.16,-23.54 33.77,-47.47 50.11,-71.58l-41.67 -31.43z"/>
  <path class="fil0" d="M2902.83 3418.71c14.37,-10.93 18.48,3.66 79.36,-78.9 4.67,-6.57 10.48,-12.27 14.02,-19.67 1.74,-3.66 -1.87,-7.31 -6.84,-11.28l2.14 -2.84c5.68,1.94 13.69,0 20.91,-11.69 10.55,-13.68 166.41,-219.94 176.95,-233.63 3.83,-4.96 7.64,-9.96 11.53,-14.87 19.16,-24.14 38.29,-48.3 57.45,-72.44 15.2,-19.19 30.77,-38.07 46.17,-57.08 104.2,-128.61 136.37,-183.29 150.67,-215.2l-19.37 -14.62 -4.19 4.89c1.03,-1.52 2.23,-3.25 3.68,-5.27l-14.7 -11.1c-4.02,5.61 -8,11.22 -11.98,16.85 -15.86,22.43 -31.49,45.08 -46.69,67.97 -13.9,20.93 -28.23,41.57 -42.37,62.34 -4.25,6.24 -8.77,12.29 -13.23,18.39 -10.27,14 -20.52,28.01 -30.79,42.02 -4.21,5.74 -8.38,11.5 -12.72,17.13 -9.62,12.47 -19.24,24.94 -28.87,37.41 -13.24,17.15 -26.5,34.27 -39.99,51.24 -33.9,42.69 -67.92,85.28 -101.99,127.84 -14.82,18.5 -29.33,37.27 -43.97,55.92 -12.7,16.19 -25.4,32.37 -38.04,48.6 -15.79,20.25 -31.51,40.56 -47.39,60.76 -18.38,23.4 -36.78,46.78 -54.31,70.83 -11.06,15.17 -21.77,30.6 -32.3,46.13l26.86 20.27z"/>
  <g id="_2817446200880">
   <path class="fil0" d="M3062.76 412.08c5.47,7.29 -2.64,16.97 40.31,32.36 3.42,1.08 6.33,3.48 10.25,3.26 1.93,-0.11 4.05,-4.69 6.39,-10.52l1.48 0.56c-1.26,5.56 -0.48,11.41 5.65,12.42 7.1,2.94 114.27,44.53 121.38,47.45 2.57,1.07 5.16,2.12 7.71,3.26 12.51,5.62 25.03,11.23 37.54,16.86 9.95,4.45 19.71,9.34 29.55,14.04 66.57,31.78 95.31,35.18 112.23,33.44l8.65 -22.4 -2.52 -1.4c0.8,0.21 1.7,0.46 2.75,0.81l6.57 -17.01c-2.92,-0.94 -5.84,-1.86 -8.78,-2.76 -11.69,-3.62 -23.51,-6.95 -35.47,-9.82 -10.95,-2.62 -21.71,-5.74 -32.56,-8.62 -3.26,-0.87 -6.4,-2.05 -9.58,-3.16 -7.28,-2.56 -14.57,-5.11 -21.86,-7.67 -2.99,-1.05 -5.99,-2.06 -8.91,-3.27 -6.47,-2.67 -12.94,-5.36 -19.42,-8.04 -8.9,-3.69 -17.78,-7.41 -26.57,-11.39 -22.13,-9.97 -44.19,-20.1 -66.24,-30.28 -9.58,-4.42 -19.32,-8.48 -28.99,-12.7 -8.39,-3.65 -16.79,-7.3 -25.2,-10.89 -10.51,-4.49 -21.05,-8.9 -31.52,-13.49 -12.14,-5.3 -24.25,-10.63 -36.77,-14.94 -7.9,-2.72 -15.95,-5.04 -24.06,-7.16l-12.01 31.06z"/>
   <path class="fil0" d="M3041.8 667.01c5.53,-7.25 -2.5,-16.99 40.58,-32.02 3.43,-1.05 6.36,-3.42 10.27,-3.17 1.93,0.12 4.02,4.72 6.31,10.58l1.48 -0.55c-1.21,-5.58 -0.38,-11.41 5.76,-12.38 7.12,-2.87 114.64,-43.56 121.77,-46.41 2.58,-1.05 5.18,-2.07 7.74,-3.19 12.56,-5.52 25.12,-11.03 37.69,-16.54 9.98,-4.37 19.78,-9.18 29.66,-13.8 66.84,-31.21 95.6,-34.37 112.51,-32.48l8.46 22.47 -2.53 1.37c0.8,-0.19 1.7,-0.44 2.76,-0.78l6.42 17.06c-2.92,0.92 -5.86,1.81 -8.8,2.69 -11.73,3.52 -23.57,6.75 -35.56,9.52 -10.96,2.52 -21.75,5.55 -32.63,8.35 -3.26,0.84 -6.42,1.98 -9.6,3.07 -7.31,2.5 -14.62,4.99 -21.93,7.48 -2.99,1.03 -6,2.01 -8.94,3.2 -6.49,2.62 -12.99,5.25 -19.48,7.88 -8.93,3.61 -17.85,7.26 -26.67,11.16 -22.21,9.79 -44.36,19.73 -66.49,29.71 -9.62,4.35 -19.4,8.32 -29.1,12.46 -8.42,3.58 -16.85,7.16 -25.3,10.68 -10.54,4.4 -21.12,8.72 -31.63,13.21 -12.18,5.2 -24.34,10.43 -36.89,14.64 -7.93,2.64 -15.99,4.9 -24.13,6.95l-11.73 -31.16z"/>
  </g>
  <g id="_2817446198352">
   <path class="fil0" d="M4002.88 1242.32c7.3,-5.47 16.97,2.65 32.36,-40.31 1.09,-3.42 3.48,-6.33 3.26,-10.24 -0.1,-1.93 -4.68,-4.06 -10.52,-6.4l0.56 -1.47c5.57,1.25 11.41,0.47 12.42,-5.66 2.94,-7.1 44.53,-114.26 47.45,-121.37 1.08,-2.57 2.12,-5.16 3.26,-7.71 5.62,-12.51 11.23,-25.03 16.86,-37.55 4.45,-9.94 9.35,-19.7 14.04,-29.55 31.78,-66.57 35.18,-95.3 33.44,-112.22l-22.4 -8.66 -1.39 2.52c0.2,-0.79 0.46,-1.69 0.8,-2.75l-17 -6.57c-0.95,2.92 -1.87,5.85 -2.77,8.78 -3.62,11.7 -6.95,23.51 -9.82,35.48 -2.62,10.94 -5.73,21.71 -8.62,32.55 -0.87,3.26 -2.04,6.41 -3.16,9.58 -2.56,7.29 -5.11,14.58 -7.66,21.87 -1.06,2.98 -2.07,5.98 -3.27,8.91 -2.68,6.47 -5.36,12.94 -8.05,19.41 -3.68,8.91 -7.41,17.79 -11.38,26.58 -9.98,22.12 -20.11,44.19 -30.29,66.23 -4.42,9.59 -8.48,19.33 -12.69,29 -3.66,8.39 -7.31,16.78 -10.9,25.2 -4.49,10.51 -8.9,21.05 -13.48,31.52 -5.31,12.13 -10.64,24.25 -14.95,36.77 -2.71,7.9 -5.04,15.95 -7.16,24.06l31.06 12z"/>
   <path class="fil0" d="M4257.81 1263.29c-7.24,-5.53 -16.99,2.5 -32.01,-40.58 -1.06,-3.43 -3.43,-6.36 -3.18,-10.28 0.12,-1.93 4.72,-4.01 10.58,-6.3l-0.55 -1.48c-5.58,1.21 -11.41,0.38 -12.37,-5.76 -2.88,-7.13 -43.56,-114.64 -46.42,-121.77 -1.05,-2.58 -2.07,-5.18 -3.19,-7.74 -5.52,-12.56 -11.02,-25.13 -16.54,-37.69 -4.37,-9.98 -9.18,-19.78 -13.8,-29.67 -31.21,-66.83 -34.37,-95.6 -32.48,-112.5l22.47 -8.47 1.38 2.54c-0.2,-0.8 -0.45,-1.7 -0.78,-2.76l17.05 -6.43c0.92,2.93 1.82,5.87 2.7,8.81 3.51,11.72 6.75,23.57 9.51,35.56 2.53,10.96 5.55,21.75 8.35,32.62 0.84,3.27 1.99,6.42 3.07,9.61 2.5,7.31 4.99,14.62 7.49,21.93 1.02,2.99 2.01,6 3.19,8.93 2.62,6.5 5.25,12.99 7.88,19.49 3.61,8.93 7.26,17.84 11.16,26.67 9.79,22.21 19.73,44.35 29.72,66.49 4.34,9.62 8.31,19.39 12.45,29.1 3.58,8.42 7.16,16.85 10.68,25.29 4.4,10.55 8.72,21.12 13.22,31.63 5.19,12.18 10.42,24.35 14.63,36.9 2.65,7.92 4.9,15.99 6.96,24.12l-31.17 11.74z"/>
  </g>
  <g id="_2817446198736">
   <path class="fil0" d="M1366.44 4025.5c-5.47,-7.29 2.64,-16.97 -40.31,-32.36 -3.42,-1.09 -6.33,-3.48 -10.25,-3.26 -1.93,0.1 -4.05,4.69 -6.39,10.52l-1.48 -0.56c1.26,-5.57 0.48,-11.41 -5.65,-12.42 -7.1,-2.94 -114.27,-44.53 -121.37,-47.45 -2.58,-1.08 -5.17,-2.12 -7.72,-3.26 -12.51,-5.62 -25.03,-11.23 -37.54,-16.86 -9.94,-4.45 -19.71,-9.35 -29.55,-14.04 -66.57,-31.78 -95.31,-35.18 -112.23,-33.44l-8.65 22.4 2.52 1.39c-0.79,-0.2 -1.7,-0.46 -2.75,-0.8l-6.57 17c2.92,0.95 5.85,1.87 8.78,2.77 11.69,3.62 23.51,6.95 35.48,9.82 10.94,2.62 21.7,5.74 32.55,8.62 3.26,0.87 6.41,2.04 9.58,3.16 7.29,2.56 14.57,5.11 21.87,7.66 2.98,1.06 5.98,2.07 8.9,3.27 6.48,2.68 12.95,5.37 19.42,8.05 8.9,3.69 17.78,7.41 26.58,11.39 22.12,9.97 44.18,20.1 66.23,30.28 9.58,4.42 19.32,8.48 28.99,12.7 8.4,3.65 16.79,7.3 25.21,10.89 10.5,4.49 21.04,8.9 31.51,13.48 12.14,5.31 24.26,10.64 36.78,14.95 7.9,2.71 15.94,5.04 24.06,7.16l12 -31.06z"/>
   <path class="fil0" d="M1387.41 3770.57c-5.53,7.24 2.5,16.99 -40.59,32.01 -3.42,1.06 -6.36,3.43 -10.27,3.18 -1.93,-0.12 -4.01,-4.72 -6.31,-10.58l-1.48 0.55c1.21,5.58 0.38,11.41 -5.75,12.37 -7.13,2.88 -114.64,43.56 -121.78,46.42 -2.58,1.05 -5.18,2.07 -7.73,3.19 -12.56,5.52 -25.13,11.02 -37.69,16.54 -9.98,4.37 -19.79,9.18 -29.67,13.8 -66.84,31.21 -95.6,34.37 -112.51,32.48l-8.46 -22.47 2.53 -1.38c-0.79,0.2 -1.7,0.45 -2.75,0.78l-6.43 -17.05c2.93,-0.92 5.86,-1.82 8.8,-2.7 11.73,-3.51 23.57,-6.75 35.56,-9.51 10.97,-2.53 21.76,-5.55 32.63,-8.35 3.27,-0.84 6.42,-1.99 9.6,-3.07 7.31,-2.5 14.62,-4.99 21.93,-7.49 3,-1.02 6.01,-2.01 8.94,-3.19 6.5,-2.62 12.99,-5.25 19.48,-7.88 8.94,-3.61 17.85,-7.26 26.68,-11.16 22.2,-9.79 44.35,-19.73 66.48,-29.72 9.62,-4.34 19.4,-8.31 29.1,-12.45 8.43,-3.58 16.85,-7.16 25.3,-10.68 10.54,-4.4 21.12,-8.72 31.63,-13.22 12.18,-5.19 24.34,-10.42 36.9,-14.63 7.92,-2.65 15.99,-4.9 24.12,-6.96l11.74 31.17z"/>
  </g>
  <g id="_2817446196944">
   <path class="fil0" d="M315.5 3131.39c-7.29,5.47 -16.97,-2.64 -32.36,40.31 -1.08,3.42 -3.48,6.33 -3.26,10.25 0.11,1.93 4.69,4.05 10.52,6.39l-0.56 1.48c-5.57,-1.26 -11.41,-0.48 -12.42,5.65 -2.94,7.1 -44.53,114.27 -47.45,121.37 -1.07,2.58 -2.12,5.17 -3.26,7.71 -5.62,12.52 -11.23,25.04 -16.86,37.55 -4.45,9.94 -9.34,19.71 -14.04,29.55 -31.78,66.57 -35.18,95.31 -33.44,112.23l22.4 8.65 1.4 -2.52c-0.21,0.79 -0.46,1.69 -0.81,2.75l17 6.57c0.95,-2.92 1.87,-5.85 2.77,-8.78 3.62,-11.69 6.95,-23.51 9.82,-35.48 2.62,-10.94 5.74,-21.7 8.62,-32.55 0.87,-3.26 2.05,-6.41 3.16,-9.58 2.56,-7.29 5.11,-14.58 7.67,-21.87 1.05,-2.98 2.06,-5.98 3.26,-8.9 2.68,-6.48 5.37,-12.95 8.05,-19.42 3.69,-8.9 7.41,-17.79 11.39,-26.58 9.97,-22.12 20.1,-44.18 30.28,-66.23 4.42,-9.58 8.48,-19.32 12.7,-28.99 3.65,-8.4 7.3,-16.79 10.89,-25.21 4.49,-10.5 8.9,-21.04 13.49,-31.51 5.3,-12.14 10.63,-24.26 14.94,-36.78 2.72,-7.9 5.04,-15.94 7.16,-24.06l-31.06 -12z"/>
   <path class="fil0" d="M60.57 3110.42c7.25,5.53 16.99,-2.5 32.02,40.59 1.05,3.42 3.42,6.36 3.17,10.27 -0.12,1.93 -4.72,4.01 -10.58,6.31l0.55 1.47c5.58,-1.2 11.41,-0.37 12.38,5.76 2.87,7.13 43.56,114.64 46.41,121.77 1.05,2.59 2.07,5.19 3.19,7.74 5.52,12.56 11.03,25.13 16.54,37.69 4.37,9.98 9.18,19.79 13.8,29.67 31.21,66.84 34.37,95.6 32.48,112.51l-22.47 8.46 -1.37 -2.53c0.19,0.79 0.44,1.7 0.78,2.75l-17.06 6.43c-0.92,-2.93 -1.81,-5.86 -2.69,-8.8 -3.52,-11.73 -6.76,-23.57 -9.52,-35.56 -2.53,-10.97 -5.55,-21.76 -8.35,-32.63 -0.84,-3.27 -1.99,-6.42 -3.07,-9.6 -2.5,-7.31 -4.99,-14.62 -7.48,-21.94 -1.03,-2.99 -2.01,-6 -3.2,-8.93 -2.62,-6.5 -5.25,-12.99 -7.88,-19.48 -3.61,-8.94 -7.26,-17.85 -11.16,-26.68 -9.79,-22.2 -19.73,-44.35 -29.71,-66.48 -4.35,-9.63 -8.32,-19.4 -12.46,-29.1 -3.58,-8.43 -7.16,-16.85 -10.68,-25.3 -4.4,-10.54 -8.72,-21.12 -13.22,-31.63 -5.19,-12.18 -10.42,-24.34 -14.63,-36.9 -2.64,-7.92 -4.9,-15.99 -6.95,-24.12l31.16 -11.74z"/>
  </g>
  <g id="_2817446194032">
   <path class="fil0" d="M1265.49 652.34c-5.5,-7.27 2.57,-16.99 -40.45,-32.19 -3.42,-1.07 -6.34,-3.46 -10.26,-3.22 -1.93,0.11 -4.03,4.7 -6.35,10.55l-1.48 -0.56c1.24,-5.57 0.43,-11.41 -5.7,-12.39 -7.11,-2.91 -114.46,-44.05 -121.57,-46.94 -2.58,-1.06 -5.18,-2.09 -7.73,-3.22 -12.54,-5.57 -25.08,-11.13 -37.62,-16.7 -9.96,-4.41 -19.74,-9.26 -29.61,-13.92 -66.7,-31.5 -95.45,-34.77 -112.36,-32.96l-8.56 22.44 2.52 1.38c-0.79,-0.2 -1.69,-0.45 -2.75,-0.79l-6.5 17.03c2.93,0.93 5.86,1.84 8.79,2.73 11.71,3.56 23.54,6.85 35.52,9.66 10.96,2.58 21.73,5.65 32.59,8.49 3.27,0.85 6.42,2.01 9.59,3.11 7.3,2.53 14.6,5.05 21.9,7.58 2.99,1.04 6,2.04 8.92,3.23 6.49,2.65 12.97,5.31 19.45,7.96 8.92,3.65 17.82,7.34 26.63,11.28 22.17,9.88 44.27,19.92 66.36,30 9.6,4.38 19.36,8.39 29.05,12.57 8.41,3.62 16.82,7.24 25.25,10.79 10.52,4.45 21.08,8.81 31.57,13.35 12.16,5.25 24.3,10.53 36.84,14.79 7.91,2.68 15.96,4.97 24.09,7.06l11.87 -31.11z"/>
   <path class="fil0" d="M1285.37 397.32c-5.5,7.27 2.58,16.98 -40.44,32.19 -3.43,1.07 -6.35,3.45 -10.26,3.21 -1.93,-0.11 -4.04,-4.7 -6.35,-10.55l-1.48 0.56c1.23,5.57 0.43,11.41 -5.71,12.4 -7.11,2.9 -114.45,44.04 -121.57,46.93 -2.58,1.06 -5.17,2.09 -7.73,3.22 -12.53,5.57 -25.07,11.13 -37.61,16.71 -9.96,4.41 -19.75,9.26 -29.61,13.91 -66.71,31.5 -95.46,34.78 -112.37,32.97l-8.56 -22.44 2.53 -1.38c-0.8,0.19 -1.7,0.45 -2.75,0.79l-6.5 -17.03c2.92,-0.94 5.85,-1.84 8.79,-2.73 11.71,-3.57 23.54,-6.85 35.52,-9.67 10.95,-2.57 21.73,-5.65 32.59,-8.49 3.26,-0.85 6.41,-2.01 9.59,-3.11 7.3,-2.53 14.6,-5.05 21.9,-7.58 2.99,-1.04 5.99,-2.03 8.92,-3.23 6.49,-2.64 12.97,-5.3 19.45,-7.96 8.92,-3.65 17.82,-7.33 26.62,-11.27 22.17,-9.89 44.28,-19.92 66.36,-30 9.61,-4.39 19.37,-8.4 29.05,-12.58 8.41,-3.62 16.82,-7.23 25.25,-10.79 10.53,-4.44 21.09,-8.8 31.58,-13.35 12.15,-5.25 24.3,-10.52 36.83,-14.78 7.91,-2.69 15.97,-4.98 24.09,-7.06l11.87 31.11z"/>
  </g>
  <g id="_2817446192592">
   <path class="fil0" d="M4243.14 3039.6c-7.27,5.5 -16.98,-2.58 -32.19,40.44 -1.07,3.43 -3.45,6.35 -3.22,10.26 0.12,1.93 4.71,4.04 10.55,6.35l-0.56 1.48c-5.56,-1.23 -11.4,-0.43 -12.39,5.71 -2.91,7.11 -44.05,114.45 -46.94,121.57 -1.06,2.58 -2.09,5.17 -3.22,7.73 -5.57,12.53 -11.13,25.07 -16.7,37.61 -4.41,9.96 -9.26,19.75 -13.92,29.61 -31.5,66.71 -34.77,95.45 -32.96,112.37l22.44 8.56 1.38 -2.53c-0.2,0.79 -0.45,1.7 -0.79,2.75l17.03 6.5c0.93,-2.92 1.84,-5.85 2.73,-8.79 3.57,-11.71 6.85,-23.54 9.67,-35.52 2.57,-10.95 5.64,-21.73 8.48,-32.59 0.86,-3.26 2.02,-6.41 3.12,-9.59 2.53,-7.3 5.05,-14.6 7.57,-21.9 1.04,-2.99 2.04,-5.99 3.23,-8.92 2.65,-6.49 5.31,-12.97 7.97,-19.45 3.64,-8.92 7.33,-17.82 11.27,-26.63 9.88,-22.16 19.92,-44.27 30,-66.36 4.38,-9.6 8.4,-19.36 12.58,-29.04 3.61,-8.41 7.23,-16.82 10.79,-25.25 4.44,-10.53 8.8,-21.09 13.34,-31.58 5.25,-12.15 10.53,-24.3 14.79,-36.83 2.68,-7.91 4.97,-15.97 7.06,-24.09l-31.11 -11.87z"/>
   <path class="fil0" d="M3988.12 3019.71c7.27,5.5 16.98,-2.57 32.19,40.45 1.07,3.42 3.45,6.34 3.22,10.26 -0.12,1.93 -4.71,4.03 -10.55,6.35l0.55 1.48c5.57,-1.24 11.41,-0.43 12.4,5.7 2.91,7.11 44.05,114.45 46.93,121.57 1.07,2.58 2.1,5.18 3.23,7.73 5.57,12.54 11.13,25.08 16.7,37.62 4.41,9.96 9.26,19.74 13.92,29.6 31.49,66.71 34.77,95.46 32.96,112.37l-22.44 8.56 -1.38 -2.53c0.2,0.8 0.45,1.7 0.79,2.76l-17.03 6.5c-0.93,-2.93 -1.84,-5.86 -2.73,-8.79 -3.57,-11.71 -6.85,-23.55 -9.67,-35.52 -2.57,-10.96 -5.64,-21.73 -8.48,-32.59 -0.86,-3.27 -2.02,-6.42 -3.12,-9.6 -2.53,-7.29 -5.05,-14.59 -7.57,-21.89 -1.04,-2.99 -2.04,-6 -3.23,-8.93 -2.65,-6.48 -5.31,-12.96 -7.97,-19.44 -3.65,-8.92 -7.33,-17.82 -11.27,-26.63 -9.88,-22.17 -19.92,-44.27 -30,-66.36 -4.38,-9.6 -8.4,-19.36 -12.58,-29.05 -3.61,-8.41 -7.23,-16.82 -10.79,-25.25 -4.44,-10.52 -8.8,-21.08 -13.34,-31.57 -5.25,-12.16 -10.53,-24.3 -14.79,-36.84 -2.68,-7.91 -4.97,-15.96 -7.06,-24.09l31.11 -11.87z"/>
  </g>
  <g id="_2817446190640">
   <path class="fil0" d="M3163.71 3785.24c5.5,7.27 -2.57,16.98 40.45,32.19 3.42,1.07 6.35,3.45 10.26,3.22 1.93,-0.12 4.03,-4.71 6.35,-10.55l1.48 0.56c-1.23,5.56 -0.43,11.4 5.7,12.39 7.12,2.91 114.46,44.05 121.58,46.94 2.58,1.06 5.17,2.09 7.72,3.22 12.54,5.57 25.08,11.13 37.62,16.7 9.96,4.41 19.75,9.26 29.61,13.92 66.71,31.5 95.45,34.77 112.37,32.96l8.56 -22.44 -2.53 -1.38c0.79,0.2 1.7,0.45 2.75,0.79l6.5 -17.03c-2.92,-0.93 -5.85,-1.84 -8.79,-2.73 -11.71,-3.57 -23.54,-6.85 -35.52,-9.67 -10.95,-2.57 -21.73,-5.64 -32.59,-8.48 -3.26,-0.86 -6.41,-2.02 -9.59,-3.12 -7.3,-2.53 -14.6,-5.05 -21.9,-7.57 -2.99,-1.04 -5.99,-2.04 -8.92,-3.23 -6.49,-2.65 -12.97,-5.31 -19.45,-7.96 -8.92,-3.65 -17.82,-7.34 -26.63,-11.28 -22.16,-9.88 -44.27,-19.92 -66.36,-30 -9.6,-4.38 -19.36,-8.4 -29.04,-12.57 -8.41,-3.62 -16.82,-7.24 -25.25,-10.79 -10.53,-4.45 -21.09,-8.81 -31.58,-13.35 -12.16,-5.25 -24.3,-10.53 -36.83,-14.79 -7.92,-2.68 -15.97,-4.97 -24.1,-7.06l-11.87 31.11z"/>
   <path class="fil0" d="M3143.83 4040.26c5.5,-7.27 -2.57,-16.98 40.44,-32.19 3.43,-1.07 6.35,-3.45 10.27,-3.22 1.93,0.12 4.03,4.71 6.35,10.55l1.47 -0.55c-1.23,-5.57 -0.42,-11.41 5.71,-12.4 7.11,-2.91 114.45,-44.05 121.57,-46.93 2.58,-1.07 5.18,-2.1 7.73,-3.23 12.53,-5.57 25.08,-11.13 37.62,-16.7 9.96,-4.41 19.74,-9.26 29.6,-13.92 66.71,-31.49 95.46,-34.77 112.37,-32.96l8.56 22.44 -2.53 1.38c0.8,-0.2 1.7,-0.45 2.76,-0.79l6.5 17.03c-2.93,0.93 -5.86,1.84 -8.8,2.73 -11.71,3.57 -23.54,6.85 -35.51,9.67 -10.96,2.57 -21.73,5.64 -32.59,8.48 -3.27,0.86 -6.42,2.02 -9.6,3.12 -7.3,2.53 -14.59,5.05 -21.9,7.57 -2.98,1.04 -5.99,2.04 -8.92,3.23 -6.48,2.65 -12.96,5.31 -19.45,7.97 -8.92,3.65 -17.81,7.33 -26.62,11.27 -22.17,9.88 -44.27,19.92 -66.36,30 -9.61,4.38 -19.36,8.4 -29.05,12.58 -8.41,3.61 -16.82,7.23 -25.25,10.79 -10.53,4.44 -21.09,8.8 -31.57,13.35 -12.16,5.24 -24.3,10.52 -36.84,14.78 -7.91,2.68 -15.97,4.97 -24.09,7.06l-11.87 -31.11z"/>
  </g>
  <g id="_2817446190192">
   <path class="fil0" d="M75.24 1334.12c7.27,-5.5 16.99,2.57 32.19,-40.45 1.07,-3.42 3.46,-6.34 3.22,-10.26 -0.12,-1.93 -4.71,-4.03 -10.55,-6.35l0.56 -1.48c5.57,1.24 11.41,0.43 12.39,-5.7 2.91,-7.12 44.05,-114.46 46.94,-121.58 1.06,-2.57 2.09,-5.17 3.22,-7.72 5.57,-12.54 11.13,-25.08 16.7,-37.62 4.41,-9.96 9.26,-19.74 13.92,-29.61 31.5,-66.7 34.77,-95.45 32.96,-112.36l-22.44 -8.57 -1.38 2.53c0.2,-0.79 0.45,-1.69 0.79,-2.75l-17.03 -6.5c-0.93,2.92 -1.84,5.86 -2.73,8.79 -3.56,11.71 -6.85,23.54 -9.67,35.52 -2.57,10.95 -5.64,21.73 -8.48,32.59 -0.85,3.27 -2.02,6.42 -3.11,9.59 -2.53,7.3 -5.05,14.6 -7.58,21.9 -1.04,2.99 -2.04,6 -3.23,8.92 -2.65,6.49 -5.31,12.97 -7.96,19.45 -3.65,8.92 -7.34,17.82 -11.28,26.63 -9.88,22.17 -19.92,44.27 -30,66.36 -4.38,9.6 -8.39,19.36 -12.57,29.05 -3.62,8.41 -7.24,16.81 -10.79,25.25 -4.45,10.52 -8.81,21.08 -13.35,31.57 -5.25,12.16 -10.53,24.3 -14.79,36.84 -2.68,7.91 -4.97,15.96 -7.06,24.09l31.11 11.87z"/>
   <path class="fil0" d="M330.26 1354c-7.27,-5.5 -16.98,2.57 -32.19,-40.44 -1.07,-3.43 -3.45,-6.35 -3.22,-10.26 0.12,-1.94 4.71,-4.04 10.56,-6.35l-0.56 -1.48c-5.57,1.23 -11.41,0.43 -12.4,-5.71 -2.9,-7.11 -44.04,-114.45 -46.93,-121.57 -1.06,-2.58 -2.1,-5.17 -3.22,-7.73 -5.57,-12.53 -11.13,-25.08 -16.71,-37.61 -4.41,-9.97 -9.26,-19.75 -13.92,-29.61 -31.49,-66.71 -34.77,-95.46 -32.96,-112.37l22.44 -8.56 1.38 2.53c-0.19,-0.8 -0.45,-1.7 -0.79,-2.76l17.03 -6.49c0.94,2.92 1.84,5.85 2.73,8.79 3.57,11.71 6.85,23.54 9.67,35.52 2.57,10.95 5.64,21.73 8.49,32.59 0.85,3.26 2.01,6.41 3.11,9.59 2.53,7.3 5.05,14.6 7.57,21.9 1.05,2.99 2.04,5.99 3.24,8.92 2.64,6.48 5.3,12.96 7.96,19.45 3.65,8.92 7.33,17.82 11.27,26.62 9.88,22.17 19.92,44.28 30,66.36 4.39,9.61 8.4,19.36 12.58,29.05 3.62,8.41 7.23,16.82 10.79,25.25 4.44,10.53 8.8,21.09 13.35,31.57 5.25,12.16 10.52,24.3 14.78,36.84 2.69,7.91 4.98,15.97 7.06,24.09l-31.11 11.87z"/>
  </g>
  <path class="fil1" d="M1871.5 2919.39c11.48,-26.84 39.86,-12.68 37.18,-171.06 -0.52,-12.43 2.3,-24.86 -1.54,-37.27 -1.89,-6.12 -13.86,-7.26 -28.79,-7.54l-0.01 -5.49c13.4,-2.9 25.68,-12.73 22.67,-33.84 0.43,-26.69 0.84,-425.84 1.23,-452.51 0.17,-9.67 0.26,-19.37 0.6,-29.05 1.75,-47.57 3.47,-95.13 5.22,-142.71 1.35,-37.77 3.84,-75.52 5.82,-113.28 13.42,-255.39 -3.65,-352.72 -21.99,-405.34l-57.03 0 -0.93 9.92c-0.23,-2.83 -0.43,-6.07 -0.58,-9.92l-34.8 0c0.41,10.65 -7.6,21.27 -7.1,31.9 2,42.4 4.73,84.86 8.62,127.19 3.57,38.73 5.87,77.49 8.76,116.24 0.87,11.64 0.96,23.29 1.21,34.97 0.57,26.81 1.15,53.6 1.73,80.42 0.22,10.98 0.56,21.96 0.38,32.94 -0.38,24.32 -0.79,48.63 -1.2,72.95 -0.54,33.46 -1.19,66.89 -2.47,100.34 -3.17,84.14 -6.72,168.27 -10.39,252.41 -1.6,36.58 -2.24,73.21 -3.32,109.8 -0.9,31.76 -1.81,63.51 -2.56,95.27 -0.95,39.65 -1.69,79.31 -2.89,118.96 -1.36,45.94 -2.79,91.86 -1.63,137.79 0.75,29 2.49,57.96 4.73,86.91l79.08 0z"/>
  <path class="fil1" d="M2541.68 1568.49c-14.49,-11.48 -6.85,-39.86 -92.31,-37.18 -6.71,0.52 -13.41,-2.3 -20.11,1.54 -3.3,1.89 -3.92,13.86 -4.07,28.79l-2.96 0.01c-1.57,-13.4 -6.87,-25.67 -18.26,-22.67 -14.4,-0.43 -229.79,-0.84 -244.17,-1.23 -5.22,-0.17 -10.46,-0.26 -15.68,-0.6 -25.67,-1.75 -51.34,-3.47 -77.01,-5.22 -20.38,-1.35 -40.75,-3.84 -61.12,-5.82 -137.81,-13.41 -190.33,3.65 -218.73,21.99l0 57.03 5.36 0.93c-1.53,0.23 -3.29,0.44 -5.36,0.58l0 34.8c5.75,-0.41 11.48,7.61 17.22,7.1 22.87,-2 45.79,-4.73 68.63,-8.62 20.9,-3.57 41.81,-5.87 62.73,-8.76 6.27,-0.87 12.56,-0.96 18.86,-1.21 14.47,-0.57 28.93,-1.15 43.4,-1.73 5.92,-0.22 11.84,-0.56 17.78,-0.38 13.11,0.38 26.23,0.79 39.36,1.2 18.05,0.54 36.09,1.19 54.14,2.47 45.4,3.17 90.8,6.72 136.2,10.39 19.74,1.6 39.5,2.25 59.25,3.32 84.9,4.5 142.51,-28.97 238.86,0.34l-2.01 -77.07z"/>
  <path class="fil1" d="M2455.47 2381.49c-4.97,0.53 -9.93,-2.29 -14.89,1.55 -2.45,1.89 -2.9,13.85 -3.01,28.79l-2.2 0.01c-1.15,-13.4 -5.09,-25.68 -13.53,-22.68 -10.66,-0.42 -170.19,-0.84 -180.84,-1.22 -3.87,-0.17 -7.75,-0.26 -11.62,-0.61 -19.01,-1.74 -38.02,-3.46 -57.03,-5.21 -15.1,-1.35 -30.19,-3.84 -45.28,-5.82 -102.07,-13.42 -140.97,3.65 -162,21.99l0 57.03 3.97 0.93c-1.14,0.23 -2.43,0.43 -3.97,0.57l0 34.8c4.25,-0.4 8.51,7.61 12.75,7.11 16.94,-2 33.92,-4.73 50.83,-8.62 15.48,-3.57 30.98,-5.87 46.46,-8.76 4.65,-0.87 9.31,-0.96 13.98,-1.22 10.71,-0.56 21.42,-1.15 32.14,-1.72 4.39,-0.23 8.78,-0.56 13.17,-0.39 9.71,0.39 19.43,0.8 29.15,1.2 13.37,0.55 26.73,1.2 40.1,2.48 33.63,3.16 67.25,6.72 100.88,10.39 75.23,8.21 145.62,-13.65 220.5,-28.16 2.24,-147.61 58.4,-94.18 -69.56,-82.44z"/>
  <path class="fil1" d="M2086.49 2859.5c-5.79,-11.48 -2.73,-39.86 -36.95,-37.18 -2.69,0.52 -5.37,-2.3 -8.05,1.54 -1.32,1.89 -1.57,13.86 -1.63,28.79l-1.19 0.01c-0.62,-13.4 -2.75,-25.67 -7.31,-22.67 -5.76,-0.43 -92,-0.84 -97.76,-1.23 -2.09,-0.17 -4.18,-0.26 -6.27,-0.6 -10.28,-1.75 -20.56,-3.47 -30.83,-5.22 -8.16,-1.35 -16.32,-3.84 -24.48,-5.82 -55.17,-13.42 -76.2,3.65 -87.56,21.99l0 57.03 2.14 0.93c-0.61,0.23 -1.31,0.43 -2.14,0.58l0 34.8c2.29,-0.41 4.59,7.6 6.89,7.1 9.16,-2 18.33,-4.73 27.47,-8.62 8.37,-3.57 16.74,-5.87 25.12,-8.76 2.51,-0.87 5.03,-0.96 7.55,-1.21 5.79,-0.57 11.58,-1.15 17.37,-1.73 2.38,-0.22 4.75,-0.56 7.12,-0.38 5.26,0.38 10.51,0.79 15.76,1.2 7.23,0.54 14.45,1.19 21.68,2.47 18.18,3.17 36.35,6.72 54.53,10.39 7.9,1.6 15.81,2.24 23.72,3.32 6.86,0.9 13.72,1.81 20.58,2.56 8.57,0.95 17.13,1.69 25.7,2.89 9.93,1.36 19.85,2.79 29.77,1.63 6.27,-0.75 12.52,-2.49 18.77,-4.73l0 -79.08z"/>
  <path class="fil1" d="M2049.31 2930.33c11.48,-8.88 39.86,-4.2 37.18,-56.58 -0.52,-4.11 2.3,-8.22 -1.54,-12.32 -1.89,-2.03 -13.86,-2.4 -28.79,-2.5l-0.01 -1.81c13.4,-0.96 25.67,-4.21 22.67,-11.19 0.43,-8.83 0.84,-140.84 1.23,-149.66 0.17,-3.2 0.26,-6.4 0.6,-9.61 1.75,-15.73 3.47,-31.46 5.22,-47.19 1.35,-12.49 3.84,-24.98 5.82,-37.47 13.41,-84.46 -3.65,-116.65 -21.99,-134.05l-57.03 0 -0.93 3.28c-0.23,-0.93 -0.44,-2.01 -0.58,-3.28l-34.8 0c0.41,3.52 -7.61,7.04 -7.1,10.55 2,14.02 4.73,28.06 8.62,42.06 3.57,12.81 5.87,25.63 8.76,38.45 0.87,3.85 0.96,7.7 1.21,11.56 0.57,8.87 1.15,17.73 1.73,26.6 0.22,3.63 0.56,7.26 0.38,10.89 -0.38,8.05 -0.79,16.09 -1.2,24.13 -0.54,11.07 -1.19,22.12 -2.47,33.18 -3.17,27.83 -6.72,55.65 -10.39,83.48 -1.6,12.1 -2.25,24.21 -3.32,36.31 -0.91,10.51 -1.82,21.01 -2.56,31.51 -0.95,13.11 -1.69,26.23 -2.89,39.34 -1.36,15.2 -2.79,30.38 -1.63,45.57 0.75,9.6 2.49,19.17 4.73,28.75l79.08 0z"/>
  <path class="fil1" d="M2075.84 2303.11c11.48,-11 39.86,-5.2 37.19,-70.09 -0.53,-5.1 2.29,-10.19 -1.55,-15.27 -1.89,-2.51 -13.85,-2.98 -28.79,-3.09l-0.01 -2.25c13.4,-1.19 25.68,-5.22 22.68,-13.87 0.42,-10.93 0.84,-174.48 1.22,-185.41 0.17,-3.96 0.26,-7.94 0.61,-11.91 1.74,-19.48 3.46,-38.97 5.21,-58.47 1.35,-15.47 3.84,-30.94 5.82,-46.41 13.42,-104.65 -3.65,-144.53 -21.99,-166.09l-57.03 0 -0.93 4.07c-0.23,-1.16 -0.43,-2.49 -0.57,-4.07l-34.8 0c0.4,4.36 -7.61,8.72 -7.11,13.07 2,17.38 4.73,34.77 8.62,52.12 3.57,15.87 5.87,31.75 8.76,47.63 0.87,4.77 0.96,9.54 1.22,14.32 0.56,10.99 1.15,21.97 1.72,32.96 0.23,4.49 0.56,8.99 0.39,13.49 -0.39,9.97 -0.8,19.93 -1.2,29.89 -0.55,13.71 -1.2,27.41 -2.48,41.12 -3.16,34.47 -6.72,68.94 -10.39,103.42 -1.59,14.99 -2.24,30 -3.31,44.99 -0.91,13.01 -1.82,26.02 -2.57,39.04 -0.95,16.24 -1.69,32.49 -2.89,48.74 -1.35,18.82 -2.79,37.64 -1.63,56.46 0.75,11.88 2.49,23.74 4.73,35.61l79.08 0z"/>
  <path class="fil1" d="M2396.95 1755.81c-7.4,-11.48 -3.49,-39.86 -47.18,-37.19 -3.43,0.53 -6.86,-2.29 -10.29,1.55 -1.68,1.89 -2,13.85 -2.08,28.79l-1.51 0.01c-0.8,-13.4 -3.51,-25.68 -9.34,-22.68 -7.36,-0.42 -117.47,-0.84 -124.82,-1.22 -2.67,-0.17 -5.35,-0.26 -8.02,-0.61 -13.12,-1.74 -26.24,-3.46 -39.37,-5.21 -10.42,-1.35 -20.83,-3.84 -31.25,-5.82 -70.45,-13.42 -97.3,3.65 -111.81,21.99l0 57.03 2.73 0.93c-0.78,0.23 -1.67,0.43 -2.73,0.57l0 34.8c2.93,-0.4 5.86,7.61 8.8,7.11 11.69,-2 23.4,-4.73 35.08,-8.62 10.68,-3.57 21.38,-5.87 32.07,-8.76 3.21,-0.87 6.42,-0.96 9.64,-1.22 7.4,-0.56 14.79,-1.15 22.19,-1.72 3.03,-0.23 6.06,-0.56 9.09,-0.39 6.71,0.39 13.41,0.8 20.12,1.2 9.23,0.55 18.45,1.2 27.68,2.48 23.21,3.16 46.42,6.72 69.63,10.39 10.09,1.59 20.2,2.24 30.29,3.31 8.76,0.91 17.52,1.82 26.28,2.57 10.94,0.95 21.88,1.69 32.82,2.89 12.67,1.35 25.34,2.79 38.01,1.63 8,-0.75 15.99,-2.49 23.97,-4.73l0 -79.08z"/>
  <path class="fil1" d="M1997.41 2218.87c7.41,-11.48 3.5,-39.86 47.19,-37.18 3.43,0.52 6.86,-2.3 10.28,1.54 1.69,1.89 2.01,13.86 2.08,28.79l1.52 0.01c0.8,-13.4 3.51,-25.67 9.33,-22.67 7.36,-0.43 117.48,-0.84 124.83,-1.23 2.67,-0.17 5.35,-0.26 8.02,-0.6 13.12,-1.75 26.24,-3.47 39.36,-5.22 10.42,-1.35 20.84,-3.84 31.25,-5.82 70.46,-13.41 97.31,3.65 111.82,21.99l0 57.03 -2.74 0.93c0.79,0.23 1.68,0.44 2.74,0.58l0 34.8c-2.93,-0.41 -5.87,7.61 -8.8,7.1 -11.69,-2 -23.41,-4.73 -35.08,-8.62 -10.69,-3.57 -21.38,-5.87 -32.07,-8.76 -3.21,-0.87 -6.43,-0.96 -9.65,-1.21 -7.39,-0.57 -14.79,-1.15 -22.18,-1.73 -3.03,-0.22 -6.06,-0.56 -9.09,-0.38 -6.71,0.38 -13.42,0.79 -20.12,1.2 -9.23,0.54 -18.46,1.19 -27.68,2.47 -23.21,3.17 -46.42,6.72 -69.63,10.39 -10.1,1.6 -20.2,2.25 -30.29,3.32 -8.76,0.91 -17.52,1.82 -26.29,2.56 -10.93,0.95 -21.87,1.69 -32.81,2.89 -12.67,1.36 -25.34,2.79 -38.01,1.63 -8,-0.75 -15.99,-2.49 -23.98,-4.73l0 -79.08z"/>
  <path class="fil2" d="M2521.6 2371.2c10.13,-5.13 20.26,-10.71 30.38,-16.76 67.41,-40.29 116.16,-103.17 144.43,-176.84 29.62,-77.16 36.99,-166.27 20.2,-254.02 -13.97,-73.08 -44.75,-137.13 -86.33,-191.02 -38.95,-50.51 -87.48,-92.24 -140.74,-124.33l28.06 -66.69c69.94,37.2 103.24,86.34 153.62,151.64 47.58,61.67 82.8,135.09 98.86,219.06 19.16,100.19 10.65,202.19 -23.38,290.79 -25.72,67.02 -167.24,236.27 -221.67,260.89l-3.43 -92.72z"/>
  <path class="fil2" d="M2493.87 2376.81c10.14,-5.05 20.26,-10.53 30.39,-16.48 67.41,-39.61 116.15,-101.42 144.42,-173.84 29.63,-75.85 37,-163.44 20.2,-249.7 -13.97,-71.83 -44.74,-134.8 -86.32,-187.78 -38.96,-49.64 -87.49,-90.67 -140.75,-122.21l28.06 -65.56c69.94,36.57 103.24,84.88 153.63,149.07 47.57,60.62 82.8,132.79 98.85,215.34 19.17,98.48 10.66,198.75 -23.37,285.84 -25.72,65.88 -167.25,232.26 -221.68,256.46l-3.43 -91.14z"/>
  <path class="fil2" d="M2262.3 2225.41c10.13,-3.07 20.26,-6.4 30.38,-10.01 67.41,-24.05 116.16,-61.57 144.43,-105.54 29.62,-46.05 36.99,-99.23 20.2,-151.6 -13.97,-43.61 -44.75,-81.84 -86.33,-114 -38.95,-30.15 -87.48,-55.05 -140.74,-74.2l28.06 -39.81c69.94,22.2 103.24,51.53 153.62,90.51 47.58,36.8 82.8,80.62 98.86,130.73 19.16,59.79 10.65,120.67 -23.38,173.55 -25.72,39.99 -167.24,141.01 -221.67,155.7l-3.43 -55.33z"/>
  <path class="fil2" d="M2332.06 2222.64c8.44,-3.07 16.87,-6.39 25.29,-10 56.11,-24.05 96.68,-61.58 120.21,-105.55 24.65,-46.05 30.79,-99.23 16.8,-151.6 -11.62,-43.61 -37.22,-81.84 -71.84,-114.01 -32.41,-30.13 -72.81,-55.04 -117.14,-74.19l76.47 -41.18c36.49,13.92 146.71,183.92 157.02,222.62 15.95,59.79 8.87,120.67 -19.45,173.54 -21.41,40 -98.13,161.96 -143.43,176.65l-43.93 -76.28z"/>
  <rect class="fil3" x="-0.95" y="-3.31" width="4343.4" height="4343.57"/>
 </g>
</svg>
