<?xml version="1.0" encoding="UTF-8"?>
<!DOCTYPE svg PUBLIC "-//W3C//DTD SVG 1.1//EN" "http://www.w3.org/Graphics/SVG/1.1/DTD/svg11.dtd">
<!-- Creator: CorelDRAW 2018 (64-Bit) -->
<svg xmlns="http://www.w3.org/2000/svg" xml:space="preserve" width="43.4338mm" height="43.4338mm" version="1.1" style="shape-rendering:geometricPrecision; text-rendering:geometricPrecision; image-rendering:optimizeQuality; fill-rule:evenodd; clip-rule:evenodd"
viewBox="0 0 4343.38 4343.38"
 xmlns:xlink="http://www.w3.org/1999/xlink">
 <defs>
  <style type="text/css">
   <![CDATA[
    .str0 {stroke:#2B2A29;stroke-width:84.66;stroke-miterlimit:22.9256}
    .fil0 {fill:none}
    .fil1 {fill:#1D1D1B}
   ]]>
  </style>
 </defs>
 <g id="Слой_x0020_1">
  <metadata id="CorelCorpID_0Corel-Layer"/>
  <path class="fil0 str0" d="M2468.41 638.15c171.2,-71.82 499.21,150.77 674.02,231.28 303.55,139.8 413.98,487.38 581.68,642.51 118.02,109.17 174.97,687.96 189.82,862.51 8.32,97.72 -66.49,574.62 -106.67,615.2 21.96,148.24 -511.85,722.8 -685.68,800.91 -1.36,0.61 -203.89,153.34 -309.8,207 -76.09,38.55 -389.19,100.69 -393.37,62.24"/>
  <path class="fil0 str0" d="M2170.49 285.02c-74.29,-154.62 -741.22,155.3 -869.4,220.24 -160.59,81.36 -732.26,465.15 -686.09,648.51 11.95,47.43 3.09,-56.08 12.49,64.56 8.97,115.2 738.19,421.8 858.32,494.6 73.48,44.53 665.13,322.44 670.33,282.4 13.23,-101.93 -63.3,-375.3 -31.29,-613.32 32.31,-240.28 56.88,-908.16 20.26,-1147.08"/>
  <path class="fil0 str0" d="M604.92 1617.37c-171.5,-3.62 -196.46,731.39 -196.46,875.08 0,180.02 83.98,863.43 268.41,905.11 47.71,10.78 -48.62,-28.1 63.23,18.04 106.82,44.06 709.9,-467.86 829.13,-542.12 72.94,-45.42 588.24,-447.59 554.88,-470.32 -84.95,-57.87 -363.4,-113.15 -561.26,-249.29 -199.73,-137.42 -784.4,-461.19 -1014.08,-536.5"/>
  <path class="fil1" d="M3759.45 2579.19c-276.93,-587.92 -646.5,-1212.36 -958.66,-1780.14 -70.03,-127.31 -131.17,-105.83 -60.35,30.58 304.81,587.84 631.19,1266.34 964.45,1819.38 84.55,140.35 118.52,66.02 54.56,-69.82z"/>
  <path class="fil1" d="M3794.35 2006.27c-149.01,-335.43 -376,-678.45 -560.64,-994.54 -41.43,-70.87 -100.91,-46.09 -60.35,30.58 174.42,330.48 352.56,716.41 559.02,1019.15 52.36,76.84 96.37,22.31 61.97,-55.19z"/>
  <path class="fil1" d="M3613.36 2954.55c-292.86,-619.36 -680.19,-1278.85 -1008.23,-1877.97 -73.59,-134.35 -134.95,-113.28 -60.36,30.58 321.05,619.89 665.89,1334.83 1014.95,1919.03 88.55,148.27 121.27,71.47 53.64,-71.64z"/>
  <path class="fil1" d="M3427.21 3226.64c-228.7,-492.72 -544.51,-1011.05 -808.59,-1483.92 -59.25,-106.04 -119.77,-83.31 -60.36,30.58 255.65,490.8 526.14,1058.99 811.59,1517.65 72.41,116.4 110.17,49.54 57.36,-64.31z"/>
  <path class="fil1" d="M3260.29 3490.57c-169.89,-376.65 -420.16,-765.61 -625.62,-1122.79 -46.1,-80.08 -105.85,-55.84 -60.35,30.58 195.71,372.5 398.05,806.19 625.21,1149.8 57.62,87.2 99.98,29.44 60.76,-57.59z"/>
  <path class="fil1" d="M2766.02 3771.11c-168.94,-376.87 -379.47,-682.06 -561.06,-989.64 -40.73,-68.93 -63.95,34.68 -22.04,113.84 180.42,341.63 378.18,768.02 567.1,1030.8 47.93,66.73 55.02,-67.89 16,-155z"/>
  <path class="fil1" d="M2534.78 3844.98c-156.21,-348.5 -350.9,-630.7 -518.81,-915.13 -37.67,-63.74 -59.13,32.07 -20.39,105.27 166.85,315.91 349.72,710.19 524.41,953.19 44.32,61.7 50.88,-62.78 14.79,-143.33z"/>
  <path class="fil1" d="M2281.79 3854.97c-129.55,-289.01 -291,-523.04 -430.25,-758.92 -31.24,-52.85 -49.04,26.6 -16.91,87.31 138.36,261.98 290.02,588.96 434.89,790.47 36.76,51.17 42.19,-52.06 12.27,-118.86z"/>
  <path class="fil1" d="M2000.57 3817.75c-95.01,-211.94 -213.41,-383.56 -315.53,-556.54 -22.9,-38.77 -35.96,19.5 -12.39,64.02 101.46,192.12 212.68,431.91 318.92,579.69 26.95,37.53 30.94,-38.18 9,-87.17z"/>
  <path class="fil1" d="M1742.89 3819.92c-67.03,-149.53 -150.57,-270.63 -222.62,-392.67 -16.16,-27.35 -25.37,13.76 -8.75,45.17 71.59,135.55 150.06,304.74 225.02,409 19.02,26.48 21.83,-26.93 6.35,-61.5z"/>
  <path class="fil1" d="M2999.01 3614.48c-168.94,-376.87 -379.47,-682.06 -561.06,-989.64 -40.73,-68.93 -63.95,34.68 -22.04,113.84 180.42,341.63 378.18,768.02 567.1,1030.8 47.93,66.73 55.02,-67.89 16,-155z"/>
  <path class="fil1" d="M1663.7 485.38c122.58,47.75 274.7,34.49 406.09,42.68 29.47,1.8 45.71,-60.39 15.35,-65.9 -130.68,-24.06 -274.11,-73.42 -410.58,-56.62 -34.62,4.23 -39.18,68.78 -10.86,79.84z"/>
  <path class="fil1" d="M554.61 2160c97.99,-87.76 154.91,-229.46 221.6,-342.96 14.93,-25.47 -33.21,-68.06 -51.84,-43.48 -80.53,105.7 -189.39,211.34 -236.08,340.66 -11.87,32.8 43.65,66.04 66.32,45.78z"/>
  <path class="fil1" d="M1161.98 739.16c217.07,73.09 542.74,91.85 808.75,127.54 59.7,7.98 141.63,-50.31 82.99,-62.14 -252.24,-51.3 -511.3,-130.37 -807.24,-142.33 -75.06,-3.06 -134.61,60.02 -84.5,76.93z"/>
  <path class="fil1" d="M554.23 2722.25c163.31,-160.6 327.23,-442.63 479.3,-663.8 34.09,-49.64 19.13,-149.07 -17.94,-102.11 -159.76,201.83 -347.37,397.18 -491.79,655.77 -36.66,65.57 -7.3,147.2 30.43,110.14z"/>
  <path class="fil1" d="M1998.21 1139.68c-253.48,-80.77 -676.15,-124.18 -1011.9,-177.06 -75.35,-11.84 -211.06,31.15 -138.89,46.2 310.23,65.08 616.55,154.49 1003,189.58 98,8.93 206.29,-40.04 147.79,-58.72z"/>
  <path class="fil1" d="M1244.52 2087.71c-186.61,189.61 -416.36,547.02 -615.28,822.63 -44.61,61.87 -67.6,202.35 -21.55,144.78 198.26,-247.33 416.45,-480.17 622.42,-809.04 52.26,-83.39 57.51,-202.11 14.41,-158.37z"/>
  <path class="fil1" d="M1999.76 1443.71c-289.33,-87.05 -710.98,-135.5 -1058.18,-193.49 -77.91,-12.98 -175.36,31.77 -98.28,48.14 331.62,70.75 675.8,167.26 1058.26,206.7 97.01,10.03 165,-41.21 98.2,-61.35z"/>
  <path class="fil1" d="M1501.55 2241.47c-208.42,218.76 -442.21,572.99 -650.85,856.5 -46.8,63.62 -50.92,170.78 -1.48,109.41 212.99,-263.83 454.64,-527.24 662.68,-850.58 52.79,-82.01 37.8,-165.82 -10.35,-115.33z"/>
  <path class="fil1" d="M2046.01 1675.93c-110.4,-39.7 -276.94,-43.04 -412.78,-58.36 -30.48,-3.41 -73,34.73 -43.09,40.56 128.62,25.32 260.47,67.65 411.86,67.54 38.39,-0.01 69.5,-40.55 44.01,-49.74z"/>
  <path class="fil1" d="M1791.14 2369.38c-85.32,80.54 -163.56,227.6 -238.62,341.84 -16.82,25.65 -2.01,80.82 16.7,56.78 80.73,-103.3 178.08,-201.78 246.39,-336.88 17.35,-34.25 -4.75,-80.32 -24.47,-61.74z"/>
  <path class="fil0 str0" d="M2482.53 4071.16c-82.7,6.87 -959.35,-129.91 -1113.43,-252.59 -24.13,-19.21 -361.56,-230.93 -295.58,-263.83 149.42,-74.52 1316.54,-1071.01 1365.73,-1058.22 11.65,-201.42 22.64,-392.74 28.36,-560.01 6.89,-201.44 -107.58,-1305.55 12.25,-1359.96 42.66,-19.37 160.42,58.98 172.61,99.52"/>
  <rect class="fil0" x="148.59" y="133.81" width="4044.18" height="4044.35"/>
 </g>
</svg>
