<?xml version="1.0" encoding="UTF-8"?>
<!DOCTYPE svg PUBLIC "-//W3C//DTD SVG 1.1//EN" "http://www.w3.org/Graphics/SVG/1.1/DTD/svg11.dtd">
<!-- Creator: CorelDRAW 2018 (64-Bit) -->
<svg xmlns="http://www.w3.org/2000/svg" xml:space="preserve" width="43.4338mm" height="43.4338mm" version="1.1" style="shape-rendering:geometricPrecision; text-rendering:geometricPrecision; image-rendering:optimizeQuality; fill-rule:evenodd; clip-rule:evenodd"
viewBox="0 0 4343.38 4343.38"
 xmlns:xlink="http://www.w3.org/1999/xlink">
 <defs>
  <style type="text/css">
   <![CDATA[
    .fil4 {fill:none}
    .fil3 {fill:#2B2A29}
    .fil0 {fill:#1D1D1B}
    .fil1 {fill:#434242;fill-rule:nonzero}
    .fil2 {fill:#2B2A29;fill-rule:nonzero}
   ]]>
  </style>
 </defs>
 <g id="Слой_x0020_1">
  <metadata id="CorelCorpID_0Corel-Layer"/>
  <path class="fil0" d="M3932.64 3263.25c-90.45,8.96 -191.27,-13.79 -281.43,-24.27 -20.22,-2.36 -21.4,-33.17 0,-32.44 92.19,2.98 197.01,-4.45 286.67,18.25 22.75,5.74 15.66,36.38 -5.24,38.46z"/>
  <path class="fil0" d="M3894.55 1853.56c-75.02,7.42 -158.64,-11.45 -233.42,-20.14 -16.77,-1.96 -17.75,-27.51 0,-26.91 76.47,2.48 163.4,-3.69 237.77,15.14 18.87,4.77 12.99,30.18 -4.35,31.91z"/>
  <path class="fil0" d="M3942.3 3373.47c-45.22,4.48 -95.63,-6.89 -140.71,-12.13 -10.11,-1.18 -10.7,-16.59 0,-16.22 46.1,1.49 98.5,-2.23 143.33,9.12 11.37,2.87 7.83,18.19 -2.62,19.23z"/>
  <path class="fil0" d="M3898.92 2783.59c-45.22,4.48 -95.63,-6.9 -140.71,-12.13 -10.11,-1.19 -10.7,-16.59 0,-16.22 46.1,1.49 98.5,-2.23 143.33,9.12 11.37,2.87 7.83,18.19 -2.62,19.23z"/>
  <path class="fil0" d="M3898.92 2137.96c-45.22,-4.48 -95.63,6.9 -140.71,12.14 -10.11,1.18 -10.7,16.58 0,16.22 46.1,-1.5 98.5,2.22 143.33,-9.13 11.37,-2.87 7.83,-18.19 -2.62,-19.23z"/>
  <path class="fil0" d="M3902.56 1409.47c-37.5,-3.71 -79.31,5.72 -116.7,10.07 -8.39,0.98 -8.88,13.75 0,13.45 38.23,-1.24 81.69,1.85 118.88,-7.57 9.43,-2.38 6.49,-15.08 -2.18,-15.95z"/>
  <path class="fil0" d="M3923.11 1010.5c-37.51,3.71 -79.31,-5.72 -116.7,-10.07 -8.39,-0.98 -8.88,-13.75 0,-13.45 38.23,1.24 81.69,-1.85 118.87,7.57 9.44,2.38 6.5,15.09 -2.17,15.95z"/>
  <path class="fil0" d="M3903.81 2965.28c-45.22,-4.48 -95.62,6.9 -140.7,12.13 -10.11,1.19 -10.7,16.59 0,16.22 46.09,-1.49 98.5,2.23 143.32,-9.12 11.38,-2.87 7.83,-18.19 -2.62,-19.23z"/>
  <path class="fil0" d="M3903.81 1956.27c-45.22,4.48 -95.62,-6.9 -140.7,-12.13 -10.11,-1.19 -10.7,-16.59 0,-16.22 46.09,1.49 98.5,-2.23 143.32,9.12 11.38,2.87 7.83,18.19 -2.62,19.23z"/>
  <path class="fil0" d="M3906.62 1258.78c-37.5,3.71 -79.31,-5.72 -116.7,-10.07 -8.39,-0.98 -8.87,-13.76 0,-13.45 38.23,1.24 81.69,-1.85 118.88,7.57 9.43,2.38 6.49,15.08 -2.18,15.95z"/>
  <path class="fil0" d="M3927.17 1161.19c-37.51,-3.71 -79.31,5.73 -116.7,10.07 -8.39,0.98 -8.88,13.76 0,13.45 38.23,-1.23 81.69,1.85 118.87,-7.56 9.44,-2.39 6.5,-15.09 -2.17,-15.96z"/>
  <path class="fil0" d="M3860.43 2375.4c-45.22,-4.48 -95.62,6.89 -140.7,12.13 -10.11,1.18 -10.7,16.59 0,16.22 46.09,-1.49 98.5,2.23 143.32,-9.12 11.38,-2.87 7.83,-18.19 -2.62,-19.23z"/>
  <path class="fil0" d="M3870.64 1606.41c-37.5,-3.72 -79.31,5.72 -116.7,10.06 -8.39,0.98 -8.87,13.76 0,13.46 38.23,-1.24 81.69,1.84 118.88,-7.57 9.43,-2.38 6.49,-15.09 -2.18,-15.95z"/>
  <path class="fil0" d="M3923.58 3072.74c-132.88,-8.95 -280.99,13.8 -413.45,24.28 -29.7,2.36 -31.44,33.17 0,32.44 135.45,-2.99 289.43,4.45 421.15,-18.25 33.43,-5.75 23,-36.39 -7.7,-38.47z"/>
  <path class="fil0" d="M3880.2 2482.86c-132.88,-8.96 -280.99,13.8 -413.45,24.27 -29.7,2.37 -31.44,33.18 0,32.45 135.45,-2.99 289.43,4.45 421.15,-18.25 33.43,-5.75 23,-36.39 -7.7,-38.47z"/>
  <path class="fil0" d="M3917.76 2067.86c-88.17,-5.95 -186.45,9.15 -274.35,16.1 -19.71,1.57 -20.86,22.02 0,21.53 89.88,-1.98 192.05,2.95 279.46,-12.11 22.18,-3.81 15.27,-24.14 -5.11,-25.52z"/>
  <path class="fil0" d="M3925.34 1068.64c-73.13,4.93 -154.65,-7.59 -227.55,-13.36 -16.35,-1.3 -17.31,-18.25 0,-17.85 74.54,1.64 159.29,-2.45 231.79,10.04 18.39,3.17 12.66,20.03 -4.24,21.17z"/>
  <path class="fil0" d="M3882.21 1513.86c-73.13,4.93 -154.65,-7.6 -227.55,-13.36 -16.35,-1.3 -17.3,-18.26 0,-17.86 74.55,1.65 159.29,-2.45 231.79,10.05 18.4,3.16 12.66,20.02 -4.24,21.17z"/>
  <path class="fil0" d="M3902.76 906.11c-73.13,-4.93 -154.65,7.6 -227.55,13.36 -16.35,1.3 -17.31,18.26 0,17.86 74.54,-1.64 159.29,2.45 231.79,-10.04 18.39,-3.17 12.66,-20.03 -4.24,-21.18z"/>
  <path class="fil1" d="M3860.89 1314.2c-0.47,53.29 -0.94,850.62 -1.37,903.9 -0.19,19.33 -0.3,38.7 -0.68,58.03 -1.96,95.01 -3.89,190.04 -5.85,285.07 -1.52,75.46 -4.31,150.86 -6.53,226.29 -16.05,543.7 6.76,728.77 28.73,829.33l58.81 0c0.83,-14.08 1.57,-27.37 2.17,-39.45 0.29,6.31 0.53,13.65 0.7,22.55l0.33 16.9 48.59 0c-0.52,-27.79 -1.2,-55.58 -1.95,-83.36 -2.25,-84.7 -5.31,-169.49 -9.67,-254.07 -4.01,-77.34 -6.59,-154.79 -9.83,-232.18 -0.98,-23.27 -1.08,-46.55 -1.37,-69.86 -0.63,-53.56 -1.29,-107.09 -1.93,-160.65 -0.25,-21.94 -0.63,-43.87 -0.44,-65.8 0.44,-48.58 0.9,-97.15 1.35,-145.73 0.62,-66.83 1.34,-133.6 2.78,-200.42 3.55,-168.09 7.54,-336.15 11.66,-504.22 1.79,-73.07 2.52,-146.23 3.72,-219.33 1.02,-63.44 2.04,-126.88 2.88,-190.31 1.06,-79.21 1.89,-158.42 3.24,-237.62 1.52,-91.76 3.13,-183.5 1.83,-275.27 -0.92,-63.73 -3.18,-127.39 -6.08,-191.02 -0.63,-13.59 -1.45,-29.22 -2.43,-46.04l-78.43 0 -3.07 36.47c-7.73,94.43 -49.18,9.91 -45.76,368.7 0.58,24.83 -2.58,49.66 1.73,74.45 2.12,12.23 15.55,14.5 32.3,15.07l0.02 10.95c-15.04,5.78 -28.82,25.43 -25.45,67.62zm-215.66 2511.8c-115.99,-17.73 -326.65,-32.14 -814.66,-18.87 -78.58,2.11 -157.13,4.8 -235.74,6.27 -99.01,1.87 -198,3.73 -296.99,5.6 -20.14,0.38 -40.31,0.48 -60.46,0.66 -55.5,0.42 -111.03,0.88 -166.53,1.33 -41.58,0.32 -83.17,0.66 -124.73,1 -23.88,0.17 -47.75,-0.13 -71.63,-0.21 -94.28,-0.3 -188.57,-0.65 -282.86,-0.95 -28.09,-0.09 -56.24,-0.84 -84.35,-1.27 -57.63,-0.86 -115.28,-1.77 -172.97,-2.66 -71.24,-1.09 -142.46,-2.62 -213.72,-4.19 -144.18,-1.26 -219.61,3.9 -263.56,11.11 -127.73,7.62 -194.29,19.85 -242.99,30.87l-5.31 0.1 0 48.98c31.5,1.82 60.96,3.38 84.59,4.38 66.14,2.78 132.33,4.96 198.59,5.84 95.42,1.25 190.8,-0.29 286.21,-1.76 82.34,-1.3 164.7,-2.07 247.05,-3.1 65.95,-0.81 131.9,-1.8 197.86,-2.77 76.03,-1.17 152.08,-1.85 228.05,-3.58 132.81,-3 677.79,-5.96 1008.47,-8.68l49.21 0.64c82.43,1.03 164.87,1.82 247.29,3.11 33.89,0.53 67.76,1.05 101.65,1.47l27 1.32c87.94,4.2 176.1,7.14 264.16,9.29 32.11,0.79 64.24,1.51 96.37,2.03l0 -85.96zm-3209.02 -273.42c12.88,-53.62 44.73,-25.33 41.73,-341.7 -0.59,-24.83 2.57,-49.66 -1.74,-74.45 -2.12,-12.23 -15.54,-14.5 -32.3,-15.07l-0.01 -10.95c15.03,-5.78 28.81,-25.43 25.44,-67.63 0.48,-53.28 0.94,-850.61 1.37,-903.89 0.2,-19.33 0.3,-38.7 0.68,-58.03 1.96,-95.01 3.89,-190.04 5.85,-285.07 1.52,-75.46 4.31,-150.87 6.54,-226.29 15.05,-510.17 -4.1,-704.57 -24.68,-809.69l-63.99 0 -1.05 19.8c-0.26,-5.64 -0.49,-12.12 -0.64,-19.8l-48.58 0c0.45,21.24 0.99,42.48 1.55,63.72 2.25,84.7 5.31,169.49 9.68,254.07 4,77.34 6.58,154.78 9.83,232.18 0.97,23.27 1.07,46.55 1.36,69.86 0.63,53.55 1.29,107.08 1.94,160.65 0.25,21.94 0.62,43.87 0.43,65.8 -0.43,48.57 -0.9,97.15 -1.35,145.72 -0.61,66.84 -1.34,133.61 -2.78,200.43 -3.55,168.09 -7.54,336.15 -11.66,504.21 -1.79,73.08 -2.51,146.24 -3.72,219.34 -1.02,63.44 -2.04,126.88 -2.88,190.31 -1.06,79.2 -1.89,158.42 -3.24,237.62 -1.52,91.76 -3.13,183.49 -1.82,275.27 0.84,57.91 2.79,115.77 5.3,173.59l88.74 0zm3210.49 -3103.31l-9.8 -0.43c-66.13,-2.78 -132.33,-4.96 -198.58,-5.84 -95.43,-1.25 -190.81,0.29 -286.22,1.76 -82.34,1.3 -164.69,2.07 -247.05,3.1 -65.94,0.81 -131.9,1.79 -197.86,2.77 -76.03,1.17 -152.08,1.85 -228.05,3.58 -132.81,3 -677.78,5.96 -1008.47,8.68l-49.21 -0.64c-82.43,-1.03 -164.86,-1.82 -247.29,-3.12 -33.89,-0.52 -67.76,-1.04 -101.65,-1.46l-27 -1.33c-87.94,-4.19 -176.1,-7.13 -264.16,-9.28 -33,-0.82 -66.03,-1.56 -99.05,-2.08l0 85.59c115.39,17.93 325.51,32.67 817.34,19.29 78.58,-2.11 157.14,-4.8 235.74,-6.27 99.01,-1.88 198.01,-3.74 296.99,-5.61 20.14,-0.37 40.31,-0.47 60.46,-0.65 55.51,-0.42 111.03,-0.88 166.54,-1.33 41.58,-0.32 83.17,-0.66 124.72,-1 23.88,-0.17 47.75,0.13 71.63,0.21 94.28,0.3 188.58,0.65 282.86,0.95 28.1,0.09 56.24,0.84 84.35,1.27 57.63,0.86 115.28,1.77 172.97,2.66 71.24,1.09 142.46,2.62 213.73,4.19 144.17,1.26 219.61,-3.9 263.56,-11.12 76.82,-4.58 131.51,-10.82 173.5,-17.48l0 -66.41z"/>
  <path class="fil2" d="M508.19 282.49c-86.36,-79.66 -228.88,-43.7 -281.13,56.26 -12.99,24.88 -26.74,61.25 -27.07,89.66 -0.28,24.09 4.56,47.87 11.83,70.72 14.23,44.29 30.08,81.96 65.4,113.78 16.14,14.58 37.49,30.93 57.79,39.08 23.82,9.53 55.73,14.93 81.37,12.15 43.3,-4.69 83.29,-22.75 116,-51.33 103.2,-90.16 66.44,-246.64 -24.19,-330.32zm47.76 345.89c-61.44,57.12 -134.04,70.21 -211.38,48.03 -69.99,-20.1 -130.93,-80.68 -151.62,-146.13 -19.78,-46.06 -27.47,-97.42 -19.44,-145.71 12.52,-75.5 67.64,-139.99 136.28,-170.83 70.41,-31.66 146.92,-11.16 205.59,34.27 123.48,95.54 160.13,269.18 40.57,380.37z"/>
  <path class="fil2" d="M427.99 4033.69c-86.36,79.66 -228.88,43.7 -281.13,-56.26 -12.99,-24.87 -26.74,-61.25 -27.07,-89.66 -0.28,-24.09 4.56,-47.87 11.83,-70.72 14.23,-44.29 30.08,-81.96 65.4,-113.78 16.14,-14.58 37.49,-30.93 57.79,-39.08 23.82,-9.53 55.73,-14.93 81.37,-12.15 43.3,4.69 83.29,22.75 116,51.33 103.2,90.16 66.44,246.64 -24.19,330.32zm47.76 -345.89c-61.44,-57.12 -134.04,-70.21 -211.38,-48.03 -69.99,20.1 -130.93,80.69 -151.62,146.13 -19.78,46.06 -27.47,97.42 -19.44,145.71 12.52,75.5 67.64,139.99 136.28,170.84 70.41,31.65 146.92,11.15 205.59,-34.28 123.48,-95.54 160.13,-269.18 40.57,-380.37z"/>
  <path class="fil2" d="M4077.09 4091.53c-86.36,79.66 -228.88,43.7 -281.13,-56.26 -12.99,-24.88 -26.74,-61.25 -27.07,-89.66 -0.28,-24.09 4.56,-47.87 11.83,-70.72 14.23,-44.29 30.08,-81.96 65.4,-113.78 16.14,-14.58 37.49,-30.93 57.79,-39.08 23.82,-9.53 55.73,-14.93 81.37,-12.15 43.3,4.69 83.29,22.75 116,51.33 103.2,90.15 66.44,246.64 -24.19,330.32zm47.76 -345.89c-61.44,-57.13 -134.04,-70.21 -211.38,-48.03 -69.99,20.1 -130.93,80.68 -151.62,146.13 -19.78,46.06 -27.47,97.42 -19.44,145.71 12.52,75.5 67.64,139.99 136.28,170.83 70.41,31.66 146.92,11.16 205.59,-34.27 123.48,-95.54 160.13,-269.18 40.57,-380.37z"/>
  <path class="fil2" d="M4068.29 603.05c-86.36,79.65 -228.88,43.69 -281.13,-56.26 -12.99,-24.88 -26.74,-61.26 -27.07,-89.67 -0.28,-24.08 4.56,-47.86 11.83,-70.71 14.23,-44.3 30.08,-81.97 65.4,-113.78 16.14,-14.58 37.49,-30.94 57.79,-39.08 23.82,-9.54 55.73,-14.93 81.37,-12.16 43.3,4.69 83.29,22.75 116,51.34 103.2,90.15 66.44,246.64 -24.19,330.32zm47.76 -345.9c-61.44,-57.12 -134.04,-70.2 -211.38,-48.03 -69.99,20.11 -130.93,80.69 -151.62,146.13 -19.78,46.06 -27.47,97.42 -19.44,145.72 12.52,75.49 67.64,139.98 136.28,170.83 70.41,31.65 146.92,11.15 205.59,-34.28 123.48,-95.54 160.13,-269.18 40.57,-380.37z"/>
  <path class="fil1" d="M444.62 508.78c-35.74,32.97 -94.74,18.09 -116.37,-23.29 -5.37,-10.29 -11.07,-25.35 -11.2,-37.11 -0.12,-9.97 1.89,-19.81 4.9,-29.27 5.89,-18.34 12.45,-33.93 27.07,-47.1 6.68,-6.03 15.52,-12.8 23.92,-16.18 9.86,-3.94 23.06,-6.18 33.68,-5.03 17.92,1.94 34.47,9.42 48.02,21.25 42.71,37.32 27.5,102.09 -10.02,136.73zm19.77 -143.17c-25.43,-23.65 -55.48,-29.06 -87.49,-19.89 -28.98,8.33 -54.2,33.4 -62.76,60.49 -8.19,19.07 -11.37,40.33 -8.05,60.32 5.18,31.25 28,57.94 56.41,70.71 29.14,13.1 60.81,4.62 85.1,-14.19 51.11,-39.54 66.28,-111.42 16.79,-157.44z"/>
  <path class="fil1" d="M364.42 3807.4c-35.74,-32.97 -94.74,-18.09 -116.36,23.29 -5.38,10.29 -11.08,25.35 -11.21,37.11 -0.12,9.97 1.89,19.81 4.9,29.27 5.89,18.34 12.45,33.93 27.07,47.1 6.68,6.03 15.52,12.8 23.92,16.18 9.86,3.94 23.06,6.18 33.68,5.03 17.92,-1.94 34.47,-9.42 48.02,-21.25 42.71,-37.32 27.5,-102.09 -10.02,-136.73zm19.77 143.18c-25.43,23.64 -55.48,29.05 -87.49,19.88 -28.98,-8.33 -54.2,-33.4 -62.76,-60.49 -8.19,-19.07 -11.37,-40.33 -8.05,-60.32 5.18,-31.25 28,-57.94 56.41,-70.71 29.14,-13.1 60.81,-4.62 85.1,14.19 51.11,39.54 66.28,111.42 16.79,157.45z"/>
  <path class="fil1" d="M4013.52 3865.24c-35.74,-32.97 -94.74,-18.09 -116.37,23.29 -5.37,10.29 -11.07,25.35 -11.2,37.11 -0.12,9.97 1.89,19.81 4.9,29.27 5.89,18.34 12.45,33.93 27.07,47.1 6.68,6.03 15.52,12.8 23.92,16.17 9.86,3.95 23.06,6.19 33.68,5.03 17.92,-1.94 34.47,-9.41 48.01,-21.24 42.72,-37.32 27.51,-102.09 -10.01,-136.73zm19.77 143.17c-25.43,23.65 -55.48,29.06 -87.49,19.88 -28.98,-8.32 -54.2,-33.39 -62.77,-60.48 -8.18,-19.07 -11.36,-40.33 -8.04,-60.32 5.18,-31.25 28,-57.94 56.41,-70.71 29.14,-13.1 60.81,-4.62 85.1,14.19 51.11,39.54 66.28,111.42 16.79,157.44z"/>
  <path class="fil1" d="M4004.72 376.75c-35.74,-32.97 -94.74,-18.08 -116.36,23.29 -5.38,10.3 -11.08,25.35 -11.21,37.11 -0.12,9.97 1.89,19.82 4.9,29.27 5.89,18.34 12.45,33.93 27.07,47.1 6.68,6.04 15.52,12.81 23.92,16.18 9.86,3.95 23.06,6.18 33.68,5.03 17.92,-1.94 34.47,-9.42 48.02,-21.25 42.71,-37.32 27.5,-102.09 -10.02,-136.73zm19.77 143.18c-25.43,23.64 -55.48,29.06 -87.49,19.88 -28.98,-8.32 -54.2,-33.4 -62.76,-60.49 -8.19,-19.06 -11.37,-40.33 -8.05,-60.31 5.18,-31.25 28,-57.95 56.41,-70.72 29.14,-13.1 60.81,-4.61 85.1,14.19 51.11,39.55 66.28,111.42 16.79,157.45z"/>
  <path class="fil0" d="M526.93 306.96c-18.54,-0.51 -35.93,-7.54 -53.99,-11.33 -22.24,-4.66 -44.87,-6.97 -67.53,-8.03 -10.3,-0.48 -10.27,-15.42 0,-15.96 38.21,-2.06 92.95,-2.31 125.49,20.66 5.97,4.21 4.39,14.88 -3.97,14.66z"/>
  <path class="fil0" d="M446.73 4009.22c-18.54,0.51 -35.93,7.54 -53.99,11.33 -22.24,4.66 -44.87,6.97 -67.53,8.03 -10.3,0.48 -10.27,15.42 0,15.96 38.21,2.06 92.95,2.31 125.49,-20.66 5.97,-4.21 4.39,-14.88 -3.97,-14.66z"/>
  <path class="fil0" d="M4095.83 4067.05c-18.54,0.52 -35.93,7.55 -53.99,11.34 -22.24,4.66 -44.87,6.96 -67.53,8.03 -10.3,0.48 -10.27,15.42 0,15.96 38.21,2.06 92.95,2.31 125.49,-20.66 5.97,-4.21 4.39,-14.88 -3.97,-14.67z"/>
  <path class="fil0" d="M4087.03 578.57c-18.54,0.51 -35.93,7.54 -53.99,11.33 -22.24,4.67 -44.87,6.97 -67.53,8.03 -10.3,0.48 -10.27,15.42 0,15.97 38.21,2.06 92.95,2.3 125.49,-20.67 5.97,-4.21 4.39,-14.87 -3.97,-14.66z"/>
  <path class="fil0" d="M511.92 396.4c12.32,-0.34 23.87,-5.01 35.87,-7.52 14.77,-3.1 29.8,-4.63 44.86,-5.34 6.84,-0.32 6.82,-10.24 0,-10.6 -25.38,-1.37 -61.75,-1.53 -83.36,13.72 -3.97,2.8 -2.92,9.88 2.63,9.74z"/>
  <path class="fil0" d="M431.73 3919.78c12.31,0.34 23.86,5.01 35.86,7.52 14.77,3.1 29.8,4.63 44.86,5.34 6.84,0.32 6.82,10.24 0,10.6 -25.38,1.37 -61.75,1.53 -83.36,-13.72 -3.97,-2.8 -2.92,-9.88 2.64,-9.74z"/>
  <path class="fil0" d="M4080.82 3977.62c12.32,0.34 23.87,5.01 35.87,7.52 14.77,3.1 29.8,4.63 44.86,5.34 6.84,0.32 6.82,10.24 0,10.6 -25.38,1.37 -61.75,1.53 -83.36,-13.72 -3.97,-2.8 -2.92,-9.88 2.63,-9.74z"/>
  <path class="fil0" d="M4072.02 489.13c12.32,0.34 23.87,5.01 35.87,7.53 14.77,3.1 29.8,4.62 44.86,5.33 6.84,0.32 6.82,10.24 0,10.61 -25.38,1.36 -61.75,1.53 -83.36,-13.73 -3.97,-2.8 -2.92,-9.88 2.63,-9.74z"/>
  <path class="fil0" d="M523.3 473.42c12.32,0.34 23.87,5.01 35.86,7.53 14.78,3.1 29.81,4.63 44.86,5.33 6.85,0.32 6.83,10.24 0,10.61 -25.38,1.37 -61.74,1.53 -83.36,-13.73 -3.96,-2.8 -2.91,-9.88 2.64,-9.74z"/>
  <path class="fil0" d="M443.1 3842.76c12.32,-0.34 23.87,-5.01 35.87,-7.53 14.77,-3.1 29.8,-4.63 44.85,-5.33 6.85,-0.32 6.83,-10.24 0,-10.61 -25.38,-1.37 -61.74,-1.53 -83.35,13.73 -3.97,2.8 -2.92,9.88 2.63,9.74z"/>
  <path class="fil0" d="M4092.2 3900.6c12.32,-0.34 23.87,-5.01 35.86,-7.53 14.78,-3.1 29.81,-4.63 44.86,-5.33 6.84,-0.32 6.83,-10.25 0,-10.61 -25.38,-1.37 -61.74,-1.53 -83.36,13.73 -3.96,2.8 -2.91,9.88 2.64,9.74z"/>
  <path class="fil0" d="M4083.4 412.11c12.32,-0.34 23.87,-5.01 35.87,-7.53 14.77,-3.1 29.8,-4.62 44.85,-5.33 6.85,-0.32 6.83,-10.24 0,-10.6 -25.38,-1.37 -61.74,-1.53 -83.35,13.72 -3.97,2.8 -2.92,9.88 2.63,9.74z"/>
  <path class="fil0" d="M536.88 611.37c-12.31,-0.35 -23.87,-5.02 -35.86,-7.53 -14.77,-3.1 -29.81,-4.63 -44.86,-5.33 -6.84,-0.33 -6.82,-10.25 0,-10.61 25.38,-1.37 61.74,-1.53 83.36,13.72 3.96,2.8 2.92,9.89 -2.64,9.75z"/>
  <path class="fil0" d="M456.68 3704.81c-12.31,0.35 -23.87,5.02 -35.86,7.53 -14.77,3.1 -29.81,4.63 -44.86,5.34 -6.84,0.32 -6.82,10.24 0,10.6 25.38,1.37 61.75,1.53 83.36,-13.72 3.96,-2.8 2.92,-9.89 -2.64,-9.75z"/>
  <path class="fil0" d="M4105.78 3762.65c-12.31,0.35 -23.87,5.02 -35.86,7.53 -14.77,3.1 -29.81,4.63 -44.86,5.33 -6.84,0.33 -6.82,10.25 0,10.61 25.38,1.37 61.74,1.53 83.36,-13.72 3.96,-2.8 2.92,-9.89 -2.64,-9.75z"/>
  <path class="fil0" d="M4096.98 274.17c-12.31,0.34 -23.87,5.01 -35.86,7.52 -14.77,3.1 -29.81,4.63 -44.86,5.34 -6.84,0.32 -6.82,10.24 0,10.6 25.38,1.37 61.75,1.53 83.36,-13.72 3.96,-2.8 2.92,-9.88 -2.64,-9.74z"/>
  <path class="fil0" d="M555.65 329.48c-12.31,0.34 -23.86,5.01 -35.85,7.53 -14.77,3.1 -29.8,4.62 -44.84,5.33 -6.84,0.32 -6.83,10.24 0,10.6 25.37,1.37 61.72,1.53 83.33,-13.72 3.96,-2.8 2.91,-9.88 -2.64,-9.74z"/>
  <path class="fil0" d="M475.45 3986.7c-12.31,-0.34 -23.86,-5.01 -35.85,-7.53 -14.77,-3.1 -29.79,-4.62 -44.84,-5.33 -6.84,-0.32 -6.82,-10.24 0,-10.6 25.37,-1.37 61.72,-1.53 83.33,13.72 3.96,2.8 2.92,9.88 -2.64,9.74z"/>
  <path class="fil0" d="M4124.55 4044.54c-12.31,-0.35 -23.86,-5.01 -35.85,-7.53 -14.77,-3.1 -29.8,-4.63 -44.84,-5.33 -6.84,-0.32 -6.83,-10.24 0,-10.6 25.37,-1.37 61.72,-1.53 83.33,13.72 3.96,2.8 2.91,9.88 -2.64,9.74z"/>
  <path class="fil0" d="M4115.75 556.05c-12.31,-0.34 -23.86,-5.01 -35.85,-7.53 -14.77,-3.09 -29.79,-4.62 -44.84,-5.33 -6.84,-0.32 -6.82,-10.24 0,-10.6 25.37,-1.37 61.72,-1.53 83.33,13.72 3.96,2.8 2.92,9.88 -2.64,9.74z"/>
  <path class="fil0" d="M592.72 543.56c-12.31,-0.34 -23.86,-5.01 -35.85,-7.52 -14.76,-3.1 -29.79,-4.63 -44.84,-5.33 -6.84,-0.33 -6.82,-10.25 0,-10.61 25.37,-1.37 61.72,-1.53 83.33,13.72 3.96,2.8 2.92,9.88 -2.64,9.74z"/>
  <path class="fil0" d="M512.53 3772.62c-12.32,0.34 -23.86,5.01 -35.86,7.52 -14.76,3.1 -29.79,4.63 -44.84,5.33 -6.84,0.33 -6.82,10.25 0,10.61 25.37,1.37 61.72,1.53 83.33,-13.72 3.96,-2.8 2.92,-9.88 -2.63,-9.74z"/>
  <path class="fil0" d="M4161.62 3830.46c-12.31,0.34 -23.86,5.01 -35.85,7.52 -14.77,3.1 -29.79,4.63 -44.84,5.33 -6.84,0.33 -6.82,10.24 0,10.61 25.37,1.36 61.72,1.53 83.33,-13.72 3.96,-2.8 2.92,-9.88 -2.64,-9.74z"/>
  <path class="fil0" d="M4152.83 341.97c-12.32,0.34 -23.86,5.01 -35.86,7.53 -14.76,3.09 -29.79,4.62 -44.84,5.33 -6.84,0.32 -6.82,10.24 0,10.6 25.37,1.37 61.72,1.53 83.33,-13.72 3.96,-2.8 2.92,-9.88 -2.63,-9.74z"/>
  <path class="fil0" d="M487.44 557.99c12.31,0.34 23.86,5.01 35.85,7.52 14.77,3.1 29.8,4.63 44.85,5.33 6.84,0.33 6.82,10.25 0,10.61 -25.38,1.36 -61.73,1.53 -83.34,-13.72 -3.96,-2.8 -2.91,-9.88 2.64,-9.74z"/>
  <path class="fil0" d="M407.24 3758.19c12.31,-0.34 23.86,-5.01 35.85,-7.52 14.77,-3.1 29.8,-4.63 44.85,-5.33 6.84,-0.33 6.82,-10.24 0,-10.61 -25.38,-1.36 -61.73,-1.53 -83.34,13.72 -3.96,2.8 -2.91,9.88 2.64,9.74z"/>
  <path class="fil0" d="M4056.34 3816.03c12.31,-0.34 23.86,-5.01 35.85,-7.52 14.77,-3.1 29.8,-4.63 44.84,-5.33 6.84,-0.33 6.83,-10.25 0,-10.61 -25.37,-1.37 -61.72,-1.53 -83.33,13.72 -3.96,2.8 -2.91,9.88 2.64,9.74z"/>
  <path class="fil0" d="M4047.54 327.54c12.31,-0.34 23.86,-5.01 35.85,-7.52 14.77,-3.1 29.8,-4.63 44.85,-5.33 6.84,-0.32 6.82,-10.24 0,-10.6 -25.38,-1.37 -61.73,-1.53 -83.34,13.72 -3.96,2.79 -2.91,9.87 2.64,9.73z"/>
  <path class="fil3" d="M470.71 253.44c-15.07,2.57 -30.04,0.71 -45.13,1.07 -18.59,0.45 -37.2,2.5 -55.68,5.36 -8.4,1.3 -10.26,-8.44 -2.02,-10.41 30.67,-7.33 74.96,-16.08 104.19,-6.21 5.37,1.81 5.44,9.01 -1.36,10.19z"/>
  <path class="fil3" d="M390.51 4062.74c-15.07,-2.57 -30.03,-0.71 -45.13,-1.07 -18.59,-0.45 -37.2,-2.5 -55.68,-5.36 -8.4,-1.3 -10.26,8.45 -2.01,10.41 30.66,7.33 74.95,16.08 104.19,6.21 5.36,-1.81 5.43,-9.01 -1.37,-10.19z"/>
  <path class="fil3" d="M4039.61 4120.58c-15.07,-2.57 -30.04,-0.71 -45.13,-1.07 -18.59,-0.45 -37.2,-2.5 -55.68,-5.36 -8.4,-1.3 -10.26,8.44 -2.02,10.41 30.67,7.33 74.96,16.08 104.19,6.21 5.37,-1.82 5.44,-9.01 -1.36,-10.19z"/>
  <path class="fil3" d="M4030.81 632.1c-15.07,-2.58 -30.03,-0.72 -45.13,-1.08 -18.59,-0.45 -37.2,-2.49 -55.68,-5.36 -8.4,-1.3 -10.26,8.45 -2.01,10.41 30.66,7.34 74.95,16.08 104.19,6.21 5.36,-1.81 5.43,-9.01 -1.37,-10.18z"/>
  <path class="fil0" d="M590.93 400.03c-12.32,0.34 -23.87,5.01 -35.86,7.52 -14.76,3.1 -29.79,4.63 -44.84,5.33 -6.84,0.33 -6.82,10.25 0,10.61 25.37,1.37 61.72,1.53 83.33,-13.72 3.96,-2.8 2.92,-9.88 -2.63,-9.74z"/>
  <path class="fil0" d="M510.73 3916.15c-12.32,-0.34 -23.86,-5.01 -35.86,-7.52 -14.76,-3.1 -29.79,-4.63 -44.84,-5.33 -6.84,-0.33 -6.82,-10.25 0,-10.61 25.37,-1.37 61.72,-1.53 83.33,13.72 3.96,2.8 2.92,9.88 -2.63,9.74z"/>
  <path class="fil0" d="M4159.82 3973.99c-12.31,-0.34 -23.86,-5.01 -35.85,-7.52 -14.76,-3.1 -29.79,-4.63 -44.84,-5.34 -6.84,-0.32 -6.82,-10.24 0,-10.6 25.37,-1.37 61.72,-1.53 83.33,13.72 3.96,2.8 2.92,9.88 -2.64,9.74z"/>
  <path class="fil0" d="M4151.03 485.5c-12.32,-0.34 -23.86,-5.01 -35.86,-7.52 -14.76,-3.1 -29.79,-4.63 -44.84,-5.33 -6.84,-0.32 -6.82,-10.24 0,-10.61 25.37,-1.36 61.72,-1.53 83.33,13.73 3.96,2.79 2.92,9.87 -2.63,9.73z"/>
  <path class="fil0" d="M602.3 469.8c-12.31,-0.35 -23.86,-5.01 -35.85,-7.53 -14.77,-3.1 -29.8,-4.63 -44.84,-5.33 -6.84,-0.32 -6.83,-10.24 0,-10.6 25.37,-1.37 61.72,-1.53 83.33,13.72 3.96,2.79 2.91,9.88 -2.64,9.74z"/>
  <path class="fil0" d="M522.1 3846.38c-12.31,0.35 -23.86,5.01 -35.85,7.53 -14.77,3.1 -29.79,4.63 -44.84,5.33 -6.84,0.32 -6.82,10.24 0,10.6 25.37,1.37 61.72,1.53 83.33,-13.72 3.96,-2.79 2.92,-9.88 -2.64,-9.74z"/>
  <path class="fil0" d="M4171.2 3904.22c-12.31,0.35 -23.86,5.01 -35.85,7.53 -14.77,3.1 -29.8,4.63 -44.84,5.33 -6.84,0.32 -6.83,10.24 0,10.6 25.37,1.37 61.72,1.53 83.33,-13.72 3.96,-2.79 2.91,-9.88 -2.64,-9.74z"/>
  <path class="fil0" d="M4162.4 415.74c-12.31,0.34 -23.86,5.01 -35.85,7.52 -14.77,3.1 -29.79,4.63 -44.84,5.33 -6.84,0.32 -6.82,10.24 0,10.61 25.37,1.36 61.72,1.53 83.33,-13.73 3.96,-2.79 2.92,-9.87 -2.64,-9.73z"/>
  <path class="fil0" d="M457.88 614.99c12.31,0.34 23.86,5.01 35.85,7.53 14.77,3.09 29.8,4.62 44.85,5.33 6.84,0.32 6.82,10.24 0,10.6 -25.37,1.37 -61.73,1.53 -83.34,-13.72 -3.96,-2.8 -2.91,-9.88 2.64,-9.74z"/>
  <path class="fil0" d="M377.68 3701.19c12.31,-0.34 23.86,-5.01 35.85,-7.52 14.77,-3.1 29.8,-4.63 44.85,-5.34 6.84,-0.32 6.82,-10.24 0,-10.6 -25.37,-1.37 -61.73,-1.53 -83.33,13.72 -3.97,2.8 -2.92,9.88 2.63,9.74z"/>
  <path class="fil0" d="M4026.78 3759.03c12.31,-0.34 23.86,-5.01 35.85,-7.53 14.77,-3.09 29.8,-4.62 44.85,-5.33 6.84,-0.32 6.82,-10.24 0,-10.6 -25.37,-1.37 -61.73,-1.53 -83.34,13.72 -3.96,2.8 -2.91,9.88 2.64,9.74z"/>
  <path class="fil0" d="M4017.98 270.54c12.31,-0.34 23.86,-5.01 35.85,-7.52 14.77,-3.1 29.8,-4.63 44.85,-5.33 6.84,-0.33 6.82,-10.24 0,-10.61 -25.37,-1.36 -61.73,-1.53 -83.33,13.72 -3.97,2.8 -2.92,9.88 2.63,9.74z"/>
  <rect class="fil4" x="-6.58" y="6.7" width="4343.4" height="4343.58"/>
 </g>
</svg>
