<?xml version="1.0" encoding="UTF-8"?>
<!DOCTYPE svg PUBLIC "-//W3C//DTD SVG 1.1//EN" "http://www.w3.org/Graphics/SVG/1.1/DTD/svg11.dtd">
<!-- Creator: CorelDRAW 2018 (64-Bit) -->
<svg xmlns="http://www.w3.org/2000/svg" xml:space="preserve" width="43.4338mm" height="43.4338mm" version="1.1" style="shape-rendering:geometricPrecision; text-rendering:geometricPrecision; image-rendering:optimizeQuality; fill-rule:evenodd; clip-rule:evenodd"
viewBox="0 0 4343.38 4343.38"
 xmlns:xlink="http://www.w3.org/1999/xlink">
 <defs>
  <style type="text/css">
   <![CDATA[
    .fil3 {fill:none}
    .fil1 {fill:#2B2A29}
    .fil2 {fill:#1D1D1B}
    .fil0 {fill:#2B2A29;fill-rule:nonzero}
   ]]>
  </style>
 </defs>
 <g id="Слой_x0020_1">
  <metadata id="CorelCorpID_0Corel-Layer"/>
  <path class="fil0" d="M1982.42 3785.41c-79.54,38.55 -177,67.86 -260.97,73.76 -167.97,11.81 -331.4,-25.64 -473.43,-104.87 -381.29,-212.69 -404.91,-660.79 -221.57,-1007.71l47.56 -122.34 -104.89 -18.96 -0.15 0.22 -4.05 -0.98 -20.05 -5.06c-91.88,-24.08 -180.19,-59.63 -263.05,-105.85 -597.91,-333.52 -536.88,-1100.89 -142.96,-1573.18 363.97,-435.92 1084.23,-407.29 1443.56,-18.67l0 -248.59c-141.5,-109.09 -310.51,-188.34 -489.03,-228.91 -383.92,-87.31 -756.84,75.81 -1018.88,340.45 -551.59,556.68 -598.27,1404.54 99.89,1822.66 105.7,63.28 213.25,107.74 322.01,134.59 -209.57,388.12 -150.65,849.99 271.1,1102.58 262.38,157.06 539.96,159.47 814.91,39.91l0 -79.05z"/>
  <path class="fil0" d="M2377.69 3785.41c79.54,38.55 177,67.86 260.97,73.76 167.97,11.81 331.39,-25.64 473.43,-104.87 381.29,-212.69 404.91,-660.79 221.57,-1007.71l-47.56 -122.34 104.89 -18.96 0.15 0.22 4.05 -0.98 20.05 -5.06c91.88,-24.08 180.19,-59.63 263.04,-105.85 597.91,-333.52 536.89,-1100.89 142.97,-1573.18 -363.97,-435.92 -1084.23,-407.29 -1443.56,-18.67l0 -248.59c141.5,-109.09 310.51,-188.34 489.03,-228.91 383.92,-87.31 756.84,75.81 1018.87,340.45 551.59,556.68 598.27,1404.54 -99.88,1822.66 -105.7,63.28 -213.26,107.74 -322.01,134.59 209.57,388.12 150.65,849.99 -271.11,1102.58 -262.37,157.06 -539.95,159.47 -814.9,39.91l0 -79.05z"/>
  <path class="fil1" d="M2242.5 107.47c15.81,81.11 -37.39,168.98 -63.61,248.32 -5.91,17.8 -72.6,16.46 -70.18,-2.51 10.1,-81.73 -1.85,-175.49 50.79,-253.44 13.33,-19.79 79.32,-11.11 83,7.63z"/>
  <path class="fil1" d="M2232.68 2184.45c15.8,81.11 -37.39,168.97 -63.61,248.32 -5.91,17.79 -72.6,16.46 -70.18,-2.51 10.1,-81.73 -1.85,-175.49 50.79,-253.45 13.32,-19.78 79.32,-11.1 83,7.64z"/>
  <path class="fil1" d="M2118.1 796.43c-10.49,-112.99 34.41,-236.92 57.51,-348.36 5.2,-24.99 58.53,-24.55 56.09,2.01 -10.25,114.43 -3.18,245.19 -47.37,355.25 -11.19,27.93 -63.78,17.21 -66.23,-8.9z"/>
  <path class="fil1" d="M2108.28 2873.41c-10.49,-113 34.41,-236.92 57.5,-348.36 5.21,-24.99 58.54,-24.55 56.1,2.01 -10.25,114.42 -3.18,245.18 -47.37,355.24 -11.19,27.93 -63.78,17.22 -66.23,-8.89z"/>
  <path class="fil1" d="M2227.5 1041.33c17.89,-53.7 -18.77,-115.58 -34.48,-170.32 -3.55,-12.27 -56.79,-14.89 -56.1,-2.01 2.71,55.49 -12.94,117.9 23.92,173.09 9.33,14.01 62.5,11.65 66.66,-0.76z"/>
  <path class="fil1" d="M2217.67 3118.31c17.9,-53.7 -18.76,-115.59 -34.47,-170.32 -3.55,-12.28 -56.79,-14.89 -56.1,-2.01 2.71,55.49 -12.94,117.9 23.92,173.09 9.33,14 62.5,11.64 66.65,-0.76z"/>
  <path class="fil1" d="M2141.24 1426.53c-11.19,-97.12 32.92,-203.34 55.31,-298.96 5.05,-21.44 58.37,-20.79 56.1,2.01 -9.53,98.24 -1.64,210.6 -45.14,304.92 -11.01,23.94 -63.66,14.47 -66.27,-7.97z"/>
  <path class="fil1" d="M2131.42 3503.5c-11.2,-97.11 32.92,-203.34 55.31,-298.95 5.05,-21.44 58.37,-20.79 56.1,2.01 -9.54,98.24 -1.64,210.6 -45.14,304.92 -11.02,23.93 -63.66,14.46 -66.27,-7.98z"/>
  <path class="fil1" d="M2248.35 1722.9c18.03,-56.85 -18.47,-122.24 -34.04,-180.11 -3.52,-12.98 -56.76,-15.63 -56.1,-2.01 2.57,58.7 -13.24,124.76 23.48,183.07 9.29,14.79 62.47,12.19 66.66,-0.95z"/>
  <path class="fil1" d="M2238.53 3799.88c18.03,-56.85 -18.47,-122.24 -34.04,-180.11 -3.52,-12.98 -56.76,-15.64 -56.1,-2.01 2.57,58.69 -13.24,124.75 23.48,183.06 9.29,14.8 62.47,12.19 66.66,-0.94z"/>
  <path class="fil1" d="M2269.94 1812.2c11.92,80.97 -31.4,169.19 -53.08,248.7 -4.88,17.83 -58.2,16.97 -56.09,-2.01 8.8,-81.78 0.08,-175.42 42.86,-253.73 10.84,-19.87 63.54,-11.67 66.31,7.04z"/>
  <path class="fil1" d="M2260.12 3889.18c11.92,80.96 -31.4,169.18 -53.08,248.69 -4.88,17.83 -58.2,16.98 -56.09,-2 8.8,-81.78 0.08,-175.43 42.86,-253.73 10.84,-19.88 63.53,-11.67 66.31,7.04z"/>
  <path class="fil2" d="M3687.69 841.91c-64.71,71.49 -160.15,125.44 -238.48,181.46 -17.57,12.55 -40.45,-10.82 -23.11,-25.5 74.58,-63.35 151.65,-143.87 238.29,-189.92 21.98,-11.7 38.24,17.43 23.3,33.96z"/>
  <path class="fil2" d="M3371.7 2965.91c-66.6,8.83 -141.64,-5.5 -208.51,-11.03 -14.99,-1.25 -16.62,-23.98 -0.79,-23.97 68.18,-0.05 145.43,-8.12 212.22,6.45 16.95,3.69 12.46,26.5 -2.92,28.55z"/>
  <path class="fil1" d="M3466.49 726.87c-40.9,87.31 -116.33,166.88 -174.8,243.4 -13.12,17.15 -41.85,1.51 -29.57,-17.6 52.73,-82.43 102.81,-182.02 172.14,-251.45 17.58,-17.62 41.67,5.47 32.23,25.65z"/>
  <path class="fil1" d="M3305.98 2805.09c-61.08,27.98 -137.02,36.27 -202.57,50.59 -14.7,3.2 -22.92,-18.06 -7.79,-22.68 65.17,-20.04 136.66,-50.4 204.79,-56.06 17.29,-1.44 19.68,21.68 5.57,28.15z"/>
  <path class="fil1" d="M3980.29 1731.6c-97.62,67.24 -167.74,184.87 -242.12,277.2 -16.67,20.72 18.62,61.92 38.35,42.3 85.19,-84.34 194.85,-166.09 254.29,-273.91 15.11,-27.35 -27.94,-61.11 -50.52,-45.59z"/>
  <path class="fil1" d="M3126.29 3570.58c-82.18,-8.26 -172.45,22.66 -253.59,38.21 -18.19,3.5 -18.01,41.3 1.32,39.76 83.28,-6.43 178.39,-0.46 258.57,-30.98 20.35,-7.72 12.69,-45.06 -6.3,-46.99z"/>
  <path class="fil1" d="M4003.89 1962.4c-97.63,67.24 -167.74,184.87 -242.12,277.2 -16.67,20.72 18.62,61.92 38.35,42.3 85.19,-84.33 194.84,-166.09 254.29,-273.91 15.1,-27.35 -27.95,-61.11 -50.52,-45.59z"/>
  <path class="fil1" d="M3034.83 3703.87c-82.19,-8.26 -172.46,22.66 -253.59,38.21 -18.2,3.51 -18.01,41.3 1.32,39.76 83.27,-6.43 178.39,-0.46 258.57,-30.97 20.35,-7.73 12.68,-45.07 -6.3,-47z"/>
  <path class="fil1" d="M4020.51 1541.67c-79.89,86.81 -195.08,154.72 -290.22,224.16 -21.35,15.55 -47.1,-10.57 -25.92,-28.59 91.1,-77.81 186.02,-175.81 290.44,-234.04 26.49,-14.79 44.14,18.4 25.7,38.47z"/>
  <path class="fil1" d="M3233.25 3487.77c-81.58,10.13 -173.4,-5.69 -255.25,-11.66 -18.35,-1.35 -20.27,-26.83 -0.89,-26.87 83.48,-0.3 178.09,-9.61 259.82,6.5 20.74,4.08 15.16,29.67 -3.68,32.03z"/>
  <path class="fil1" d="M3957.01 1298.9c-95.51,69.58 -171,181.27 -247.86,270.87 -17.23,20.11 10.77,53.27 30.68,33.84 85.89,-83.56 193.79,-167.25 258.61,-269.15 16.46,-25.85 -19.35,-51.62 -41.43,-35.56z"/>
  <path class="fil1" d="M3308.9 3330.14c-82.11,-6.07 -172.57,19.27 -253.79,32.25 -18.21,2.93 -18.28,33.17 1.06,31.81 83.3,-5.69 178.35,-1.55 258.72,-26.5 20.39,-6.32 12.98,-36.15 -5.99,-37.56z"/>
  <path class="fil1" d="M3939.88 1180.54c-62.61,73.79 -163.36,121.89 -244.13,175.22 -18.13,11.94 -48.19,-19.35 -30.68,-33.84 75.28,-62.58 150.62,-145.02 242.56,-185.24 23.31,-10.22 46.71,26.8 32.25,43.86z"/>
  <path class="fil1" d="M3353.13 3259.52c-66.53,10.99 -141.75,-8.84 -208.7,-16.9 -15.01,-1.82 -16.89,-32 -1.05,-31.8 68.2,0.66 145.39,-9.2 212.37,10.85 17,5.08 12.75,35.29 -2.62,37.85z"/>
  <path class="fil1" d="M3864.03 1051.94c-59.52,67.09 -149.72,115.55 -223.2,166.83 -16.49,11.49 -39.8,-12.49 -23.64,-26.08 69.5,-58.64 140.62,-134.01 222.64,-175.13 20.8,-10.45 37.95,18.87 24.2,34.38z"/>
  <path class="fil1" d="M3370.77 3157c-61.86,8.82 -131.64,-6.07 -193.8,-11.93 -13.93,-1.32 -15.52,-24.57 -0.81,-24.51 63.36,0.16 135.12,-7.85 197.24,7.25 15.76,3.83 11.66,27.13 -2.63,29.19z"/>
  <path class="fil1" d="M3810.01 930.66c-51.11,53.55 -121.19,98.77 -179.91,143.58 -13.18,10.04 -26.23,-2.93 -13,-14.34 56.95,-49.23 117.35,-109.98 180.66,-149.11 16.06,-9.93 24.05,7.5 12.25,19.87z"/>
  <path class="fil1" d="M3396.71 3068.2c-51.29,5.42 -108.91,-2.12 -160.31,-4.77 -11.52,-0.6 -12.62,-13.38 -0.45,-13.48 52.45,-0.5 111.93,-5.57 163.21,2.17 13.01,1.96 9.4,14.82 -2.45,16.08z"/>
  <rect class="fil3" x="-3.53" y="-2.73" width="4343.4" height="4343.57"/>
 </g>
</svg>
