<?xml version="1.0" encoding="UTF-8"?>
<!DOCTYPE svg PUBLIC "-//W3C//DTD SVG 1.1//EN" "http://www.w3.org/Graphics/SVG/1.1/DTD/svg11.dtd">
<!-- Creator: CorelDRAW 2018 (64-Bit) -->
<svg xmlns="http://www.w3.org/2000/svg" xml:space="preserve" width="43.4338mm" height="43.4338mm" version="1.1" style="shape-rendering:geometricPrecision; text-rendering:geometricPrecision; image-rendering:optimizeQuality; fill-rule:evenodd; clip-rule:evenodd"
viewBox="0 0 4343.38 4343.38"
 xmlns:xlink="http://www.w3.org/1999/xlink">
 <defs>
  <style type="text/css">
   <![CDATA[
    .fil2 {fill:none}
    .fil1 {fill:#1D1D1B}
    .fil0 {fill:#2B2A29;fill-rule:nonzero}
   ]]>
  </style>
 </defs>
 <g id="Слой_x0020_1">
  <metadata id="CorelCorpID_0Corel-Layer"/>
  <path class="fil0" d="M245.59 4021.2c0.67,-2.88 1.39,-5.52 2.16,-8.01 58.39,3.51 116.83,6.23 175.32,7.37 89.92,1.73 179.8,-0.41 269.7,-2.43 77.58,-1.81 155.18,-2.87 232.79,-4.29 62.14,-1.13 124.29,-2.5 186.44,-3.84 71.65,-1.62 143.3,-2.56 214.88,-4.97 125.14,-4.13 638.67,-8.24 950.27,-12.01l46.38 0.88c77.66,1.43 155.34,2.53 233,4.31 31.94,0.73 63.85,1.45 95.79,2.04l25.44 1.84c82.88,5.8 165.94,9.87 248.91,12.86 30.26,1.09 68.14,13.35 98.41,14.08l0.11 -15.58c-18.8,-911.64 33.07,-1826.95 -5.1,-2733.88l0.14 0 0 -67.83 -2.58 -0.22 -0.6 -14.57 -86.16 0c-0.68,2.88 -1.39,5.52 -2.16,8.01 -58.4,-3.51 -116.83,-6.23 -175.32,-7.37 -89.92,-1.73 -179.8,0.41 -269.69,2.43 -77.6,1.81 -155.2,2.87 -232.8,4.29 -62.14,1.13 -124.29,2.5 -186.44,3.84 -71.64,1.62 -143.3,2.56 -214.88,4.97 -125.15,4.13 -638.67,8.24 -950.27,12.01l-46.38 -0.88c-77.67,-1.43 -155.34,-2.53 -233.01,-4.31 -31.93,-0.73 -63.85,-1.46 -95.79,-2.04l-25.43 -1.84c-82.87,-5.8 -165.94,-9.87 -248.92,-12.86 -30.25,-1.09 -60.54,-2.08 -90.8,-2.8l0 4.3 -2.13 0c0.42,21.43 0.95,42.85 1.5,64.28l0.63 23.79 0 26.67 0.76 0.17c2.02,68.56 4.6,137.14 8,205.6 3.89,77.99 6.4,156.09 9.55,234.13 0.95,23.48 1.05,46.96 1.32,70.45 0.62,54.02 1.25,108.01 1.88,162.03 0.24,22.12 0.61,44.24 0.41,66.35 -0.41,49 -0.86,97.99 -1.3,146.97 -0.59,67.4 -1.3,134.74 -2.69,202.13 -3.45,169.52 -7.33,339 -11.32,508.5 -1.75,73.69 -2.45,147.47 -3.62,221.19 -0.99,63.99 -1.98,127.97 -2.79,191.94 -1.05,79.86 -1.84,159.75 -3.15,239.62 -1.47,92.56 -3.04,185.07 -1.78,277.63 0.43,30.82 1.17,61.61 2.12,92.43l-0.15 0 0 67.83 2.59 0.22 0.6 14.57 86.16 0zm2645.56 -142.36c-124.79,-13.18 -318.74,-19.16 -641.31,-6.27 -74.04,2.93 -148.06,6.65 -222.13,8.69 -93.29,2.59 -186.58,5.17 -279.85,7.76 -18.97,0.52 -37.99,0.66 -56.97,0.91 -52.3,0.58 -104.62,1.21 -156.92,1.84 -39.18,0.44 -78.38,0.9 -117.54,1.38 -22.49,0.23 -44.98,-0.18 -67.48,-0.29 -88.84,-0.42 -177.7,-0.9 -266.54,-1.31 -26.47,-0.13 -52.99,-1.16 -79.48,-1.76 -54.31,-1.2 -108.63,-2.45 -162.99,-3.69 -67.12,-1.51 -134.24,-3.63 -201.39,-5.8 -135.85,-1.74 -206.93,5.4 -248.35,15.39 -44.58,3.91 -81.25,8.7 -112.09,13.94 5.52,-44.68 9.07,-115.09 8,-233.02 -0.57,-25.05 2.5,-50.1 -1.69,-75.09 -2.05,-12.34 -15.09,-14.63 -31.37,-15.21l-0.01 -11.04c14.61,-5.82 27.98,-25.64 24.71,-68.2 0.46,-53.73 0.92,-857.84 1.33,-911.57 0.19,-19.5 0.29,-39.03 0.67,-58.53 1.9,-95.81 3.77,-191.64 5.67,-287.49 1.48,-76.1 4.2,-152.14 6.35,-228.2 10,-352.02 4.45,-554.95 -6.44,-681.97 124.79,13.18 318.74,19.16 641.31,6.26 74.03,-2.92 148.05,-6.64 222.13,-8.68 93.29,-2.59 186.57,-5.17 279.84,-7.76 18.99,-0.52 37.99,-0.66 56.98,-0.91 52.3,-0.58 104.61,-1.21 156.93,-1.84 39.17,-0.44 78.36,-0.9 117.52,-1.38 22.49,-0.23 44.99,0.18 67.49,0.29 88.84,0.42 177.7,0.89 266.53,1.31 26.48,0.13 53,1.16 79.49,1.76 54.3,1.2 108.63,2.45 162.99,3.69 67.13,1.51 134.23,3.62 201.38,5.8 135.86,1.74 206.94,-5.4 248.35,-15.39 44.59,-3.91 81.26,-8.7 112.1,-13.94 -5.53,44.67 -9.08,115.09 -7.99,233.02 0.56,25.05 -2.51,50.1 1.67,75.09 2.05,12.34 15.09,14.63 31.37,15.19l0.01 11.06c-14.6,5.82 -27.98,25.64 -24.7,68.2 -0.47,53.72 -0.92,857.84 -1.33,911.57 -0.2,19.5 -0.3,39.02 -0.68,58.53 -1.89,95.81 -3.76,191.65 -5.67,287.48 -1.48,76.11 -4.18,152.15 -6.34,228.21 -10,352.02 -4.46,554.95 6.44,681.97z"/>
  <path class="fil0" d="M3061.39 4005.13c0.24,-3.41 0.61,-6.14 0.98,-8.88 24.48,-12.63 49.22,-26.62 73.71,-41.64 38.14,-23.9 75.91,-50.87 113.69,-77.84 32.73,-23.9 65.46,-46.43 98.07,-69.65 26.2,-18.43 52.42,-37.21 78.5,-55.64 30.26,-21.86 60.53,-43.02 90.56,-65.21 26.33,-19.46 93.71,-66.1 170.66,-119.14 77.09,-53.13 164.15,-112.66 229.86,-158.41 6.39,-3.76 12.91,-7.86 19.44,-11.95 32.73,-20.14 65.46,-40.97 98.19,-61.11 13.41,-7.85 26.82,-16.39 40.36,-24.58 3.56,-2.05 7.01,-3.41 10.71,-5.8 34.94,-17.41 69.88,-36.88 104.83,-57.36 12.8,-7.51 25.59,-15.02 38.39,-22.87 0,-1.37 0,-2.39 0,-3.76 0.24,-0.34 0.49,-0.34 0.86,-0.68 -0.12,-19.8 -0.37,-39.26 -0.62,-59.06 -0.12,-7.17 -0.24,-14.33 -0.24,-21.5 0,-8.2 0,-16.39 0,-24.93 -0.12,0 -0.25,0 -0.37,0 -0.86,-62.82 -1.97,-125.63 -3.45,-187.76 -1.59,-71.02 -2.58,-142.37 -3.93,-213.72 -0.37,-21.51 -0.49,-43.35 -0.62,-64.86 -0.24,-49.84 -0.49,-99.69 -0.74,-149.53 -0.12,-20.49 -0.24,-40.63 -0.24,-60.77 0.24,-45.75 0.37,-91.15 0.61,-136.55 0.13,-62.14 0.37,-124.61 0.99,-187.09 1.48,-157.38 3.2,-315.44 4.92,-472.83 0.73,-68.28 0.98,-136.56 1.47,-204.84 0.5,-59.74 0.87,-118.81 1.24,-178.2 0.49,-73.74 0.73,-147.15 1.35,-221.56 0.62,-86.04 1.36,-171.73 0.74,-256.39 -0.12,-29.02 -0.49,-56.68 -0.86,-85.35 0,0 0,0 0,0 0,-21.17 0,-41.99 0,-62.82 -0.37,0 -0.74,0.34 -1.11,0 -0.12,-4.44 -0.25,-8.53 -0.25,-12.97 -12.3,5.12 -24.61,9.56 -36.91,14 -0.24,2.73 -0.61,5.46 -0.98,7.85 -24.98,5.8 -50.09,12.63 -75.06,20.82 -38.64,12.3 -77.15,29.36 -115.66,46.09 -33.23,15.02 -66.58,28.67 -99.8,43.02 -26.57,11.95 -53.28,24.24 -79.85,36.53 -30.76,14.34 -61.52,28.33 -92.16,43.7 -26.95,13.65 -95.76,45.7 -173.87,83.97 -78.65,38.54 -166.85,85.02 -233.67,121.2 -6.64,3.07 -13.29,6.49 -19.81,9.56 -33.34,16.39 -66.57,33.45 -99.91,50.18 -13.66,6.5 -27.32,14 -41.1,20.83 -3.69,1.71 -7.26,3.07 -10.83,4.1 -35.43,15.36 -70.99,32.43 -106.56,51.2 -13.03,7.17 -25.96,14 -39,21.51 0,1.37 0,2.74 0,4.11 -0.37,0.33 -0.62,0.33 -0.86,0.33 0.12,21.51 0.61,43.02 0.98,64.19 0,7.85 0.25,16.04 0.37,23.89 0.12,9.22 0.25,18.1 0.25,26.97 0.12,0 0.24,0 0.37,-0.34 1.35,68.62 2.95,136.9 5.05,204.84 2.08,77.15 3.8,154.99 5.78,232.83 0.49,23.21 0.86,46.77 1.1,70.32 0.62,54.29 1.36,108.56 1.97,162.5 0.25,21.86 0.62,44.05 0.74,66.24 0.13,49.5 0.37,99 0.5,148.16 0.24,67.94 0.49,135.87 0.37,204.15 -0.13,171.04 -0.62,342.42 -1.11,514.14 -0.13,74.42 0.12,148.5 0.24,222.93 0,64.87 0,129.05 0.13,193.57 0.12,80.91 0.49,160.8 0.49,241.7 0.12,93.55 0.25,186.75 1.35,279.61 0.36,30.72 0.98,61.45 1.47,92.17 0,0 0,0 0,0 0.25,22.88 0.37,45.41 0.62,68.28 0.37,0 0.74,-0.34 1.11,-0.34 0,5.12 0.12,9.9 0.24,14.33 12.06,-7.84 24.25,-16.04 36.31,-23.89zm1114.67 -873.62c-52.66,22.19 -134.49,69.64 -270.58,170.35 -31.13,22.54 -62.26,46.77 -93.51,69.31 -39.38,27.99 -78.63,55.98 -118,84.66 -8.12,5.46 -16.13,10.92 -24.12,16.39 -22.03,15.02 -43.93,29.69 -66.08,44.72 -16.49,11.27 -33.1,22.87 -49.59,34.48 -9.35,5.8 -18.94,12.29 -28.42,18.44 -37.53,23.89 -74.93,47.79 -112.47,72.37 -11.07,6.83 -22.27,13.32 -33.58,20.15 -22.89,13.99 -45.78,27.64 -68.67,41.64 -28.29,17.08 -56.6,33.8 -84.9,49.85 -57.21,36.53 -87.24,63.15 -104.59,84.66 -18.82,16.39 -34.21,31.41 -47.25,45.41 2.09,-46.43 3.08,-118.47 1.72,-236.25 -0.37,-24.92 0.74,-51.2 -1.23,-74.76 -0.98,-11.95 -6.39,-10.58 -13.4,-6.49 0,-3.75 0,-7.51 -0.13,-11.26 6.27,-10.24 11.69,-33.46 9.97,-75.46 0,-26.97 -1.43,-242.39 -2.96,-457.46 -1.54,-215.41 -2.83,-431.52 -2.83,-458.48 -0.25,-19.81 -0.25,-39.27 -0.25,-59.07 0.13,-96.62 0.13,-193.23 0.5,-290.18 0,-76.82 0.49,-153.97 0.98,-230.78 1.73,-356.42 -2.09,-558.86 -7.75,-683.47 53.65,-18.78 136.58,-61.11 274.77,-149.54 31.62,-19.45 63.24,-39.25 94.99,-57.69 39.98,-22.53 79.85,-44.38 119.85,-66.23 8.24,-4.43 16.36,-8.19 24.48,-12.29 22.39,-11.26 44.67,-22.19 67.18,-33.12 16.73,-7.85 33.6,-16.04 50.33,-23.89 9.72,-4.78 19.31,-8.19 28.91,-12.63 38.15,-16.39 76.17,-32.09 114.32,-48.14 11.32,-4.78 22.63,-8.53 34.08,-12.64 23.25,-8.19 46.51,-17.06 69.65,-25.25 28.79,-9.91 57.58,-19.8 86.38,-28.69 58.07,-21.84 88.58,-40.27 106.31,-56.33 19.07,-10.91 34.81,-21.5 48.11,-31.4 -2.47,42.33 -3.95,108.57 -3.45,217.81 0.37,22.87 -0.99,47.11 0.86,69.64 0.86,11.27 6.4,10.58 13.29,8.54 0,3.41 0,6.82 0,10.24 -6.15,7.85 -11.81,28.68 -10.46,67.6 -0.12,24.91 -0.3,224.3 -0.24,423.67 0.05,198.68 0,398.4 -0.13,423.32 0,18.1 -0.12,36.19 -0.24,54.63 -0.74,89.1 -1.48,178.88 -2.34,268.33 -0.5,71.01 -1.6,142.36 -2.59,213.71 -4.05,329.44 -1.59,516.87 3.08,631.58z"/>
  <path class="fil0" d="M250.8 1207.16c2.04,-0.64 4.49,-1.11 6.12,-1.64 56.31,0.77 113.84,1.24 170.97,1.47 89.35,0.35 179.53,0 269.71,-0.41 78.33,-0.35 155.86,-0.47 233.79,-0.77 62.43,-0.18 124.86,-0.46 187.28,-0.76 71.82,-0.35 143.63,-0.47 216.26,-1 63.25,-0.35 222.8,-0.71 405.99,-1.05 182.79,-0.35 389.26,-0.83 545.12,-1.24 15.51,0.12 30.6,0.18 45.7,0.24 77.12,0.23 153.83,0.52 230.53,0.88 31.43,0.18 62.44,0.29 94.67,0.46 7.75,0.12 15.92,0.24 24.07,0.36 79.98,1.23 160.77,2.05 242.37,2.7 29.79,0.18 59.58,0.41 89.36,0.53 0.82,-0.29 1.23,-0.59 2.05,-0.88 0.4,0 1.22,0 2.03,0 8.98,-4.47 17.54,-8.81 26.11,-13.28 2.87,-1.64 6.54,-3.29 9.8,-4.93 3.67,-1.83 7.75,-3.7 11.42,-5.59 -0.41,0 -0.81,0 -0.81,0 27.74,-14.27 55.08,-28.55 80.79,-42.77 30.19,-16.21 61.61,-32.43 91.8,-48.65 9.39,-4.82 19.18,-9.68 29.38,-14.56 22.44,-11.29 45.7,-22.51 68.14,-33.73 9.38,-4.58 18.77,-9.17 28.15,-13.75 21.63,-10.22 43.25,-20.39 65.29,-30.55 29.38,-14.04 59.16,-27.96 89.77,-42.01 76.7,-35.25 153.82,-70.5 231.34,-105.75 33.46,-15.28 65.7,-30.61 98.75,-46.01 28.97,-13.33 57.53,-26.61 86.09,-39.89 35.5,-16.63 70.59,-33.2 106.91,-49.87 41.21,-19.28 83.24,-38.5 121.59,-57.7 12.65,-6.41 25.29,-12.81 37.94,-19.22 0,0 0,0 0,0 9.79,-4.7 19.18,-9.4 28.98,-14.1 -0.82,0 -1.63,0.06 -2.05,0 1.64,-0.99 3.68,-1.99 5.72,-3.05 -28.56,0.35 -56.72,0.7 -85.28,1.06 -1.63,0.64 -3.67,1.17 -5.3,1.7 -55.9,-0.06 -113.03,0.17 -170.16,0.65 -87.71,0.64 -177.49,2.23 -266.84,3.76 -77.53,1.35 -154.65,2.47 -231.76,3.7 -62.02,1 -123.64,2.06 -185.66,3.11 -71.4,1.18 -142.8,2.18 -214.62,3.59 -62.42,1.17 -221.15,3.58 -402.72,6.17 -181.16,2.57 -385.99,5.46 -540.23,7.75 -15.09,0.12 -30.6,0.24 -45.29,0.36 -76.3,0.64 -152.19,1.35 -228.09,1.99 -31.01,0.18 -62.83,0.48 -93.84,0.7 -8.17,-0.06 -15.92,0 -24.08,0 -79.16,-0.17 -159.53,0 -239.91,0.42 -29.79,0.23 -58.77,0.35 -88.96,0.59 -0.4,0.29 -1.22,0.58 -2.04,0.88 -0.81,0.06 -1.22,0.06 -1.63,0.06 -9.39,4.16 -17.54,8.28 -26.93,12.45 -3.26,1.53 -6.53,3.05 -10.2,4.64 -3.67,1.77 -7.75,3.53 -11.84,5.23 0.42,0 0.82,0 0.82,0 -28.16,13.39 -55.49,26.79 -82.41,40.07 -30.61,15.28 -62.84,30.44 -93.85,45.71 -9.39,4.53 -19.59,9.11 -29.79,13.69 -23.26,10.57 -46.52,21.15 -69.77,31.67 -9.39,4.34 -18.78,8.64 -28.57,12.92 -22.03,9.64 -44.06,19.22 -66.1,28.74 -30.6,13.21 -60.79,26.37 -92.21,39.59 -77.93,33.08 -156.69,66.21 -235.43,99.41 -34.28,14.34 -67.33,28.73 -101.19,43.18 -29.39,12.52 -58.35,24.97 -87.32,37.42 -36.32,15.64 -72.23,31.21 -108.94,46.89 -42.03,18.04 -84.06,36.08 -124.04,54.11 -13.47,6.11 -26.12,12.05 -38.77,18.04 0,0 0,0 0,0 -10.2,4.52 -20.4,8.93 -30.19,13.34 0.4,0.06 1.22,0.06 2.45,0.06 -2.05,1 -4.08,1.94 -6.12,2.87 28.56,0 57.12,0 85.68,0zm2696.25 -28.96c-118.74,-2.7 -308.88,-3.88 -635.71,-1 -75.08,0.59 -150.15,1.36 -224.41,1.82 -94.26,0.59 -188.1,1.12 -281.95,1.65 -19.59,0.18 -38.36,0.12 -57.53,0.24 -51.82,0.11 -104.45,0.28 -157.09,0.46 -38.76,0.06 -78.34,0.18 -117.1,0.3 -22.45,0 -44.89,-0.06 -67.33,0 -88.14,-0.06 -176.27,-0.24 -264.81,-0.24 -26.12,0 -51.82,-0.18 -78.35,-0.3 -53.45,-0.22 -106.9,-0.46 -160.35,-0.64 -66.09,-0.29 -132.2,-0.65 -197.89,-1.11 -134.24,-0.3 -208.1,1.17 -253.8,3.11 -46.1,0.77 -84.46,1.71 -117.92,2.82 25.31,-8.82 59.57,-22.56 110.58,-45.71 10.61,-4.87 24.89,-9.81 31.42,-14.63 3.67,-2.47 -8.16,-2.87 -24.08,-2.93 1.64,-0.77 2.86,-1.47 4.9,-2.18 17.14,-1.17 38.77,-5.11 54.27,-13.4 12.24,-5.23 106.94,-47.16 201.57,-89.18 94.27,-41.86 189.73,-84.07 201.97,-89.37 8.57,-3.82 17.14,-7.63 26.11,-11.45 44.48,-18.8 88.14,-37.6 132.61,-56.34 34.68,-14.87 70.59,-29.85 106.9,-44.72 164.85,-69.09 248.9,-108.8 293.78,-133.54 117.52,1.18 306.44,0.12 630.81,-6.17 74.26,-1.41 148.53,-2.94 222.79,-4.28 93.85,-1.65 186.47,-3.24 279.91,-4.76 19.17,-0.36 37.95,-0.6 56.71,-0.89 51.83,-0.7 103.64,-1.46 155.87,-2.23 38.35,-0.53 77.52,-1.06 116.7,-1.64 22.03,-0.24 44.06,-0.48 66.09,-0.71 87.73,-0.94 175.05,-1.82 262.77,-2.82 26.12,-0.24 51.82,-0.35 77.94,-0.59 53.04,-0.3 105.67,-0.7 159.12,-1.12 65.29,-0.41 130.98,-0.82 196.27,-1.17 133.42,-1.18 206.87,-3.47 251.75,-6.05 45.7,-1.24 84.06,-2.7 117.1,-4.17 -24.89,9.34 -59.15,23.96 -108.93,48.41 -10.21,5.17 -24.08,10.46 -30.61,15.51 -3.67,2.58 8.16,2.94 24.07,2.82 -1.63,0.76 -2.85,1.53 -4.48,2.29 -17.55,1.41 -39.17,5.7 -53.87,14.46 -12.24,5.58 -105.71,50.03 -198.7,94.52 -92.65,44.33 -185.66,88.95 -197.49,94.48 -8.16,4.05 -17.13,8.11 -26.12,12.16 -43.24,19.86 -86.49,39.72 -129.74,59.64 -34.68,15.74 -69.78,31.49 -105.27,47.29 -161.99,72.97 -244.41,115.04 -288.48,141.36z"/>
  <path class="fil0" d="M354.57 1211c1.9,-0.59 3.41,-0.95 5.7,-1.47 46.72,3.24 94.58,6.19 143.2,8.43 76.36,3.48 154.99,5.66 234,7.49 69.13,1.3 138.65,2.42 208.55,3.36 56.6,0.29 113.96,0.47 171.32,0.65 67.24,-0.36 134.09,-0.53 201.71,-1.12 60.02,-0.94 211.99,-2.51 388.6,-6.31 178.55,-3.85 381.78,-9.97 536.38,-14.92 14.82,-0.35 30.39,-0.77 44.83,-1.12 77.11,-2.18 153.47,-4.48 229.82,-6.55 31.53,-0.88 62.68,-1.77 94.59,-2.77 7.6,-0.06 15.19,-0.18 23.93,-0.35 80.15,-1.59 160.69,-3.37 241.6,-5.31 29.62,-0.76 58.87,-1.53 88.89,-2.24 0,-0.3 1.13,-0.59 1.13,-0.82 0.39,-0.07 0.76,-0.07 1.9,-0.07 8.74,-4.18 15.96,-8.25 23.56,-12.44 3.41,-1.47 6.45,-3.01 9.5,-4.54 3.41,-1.71 6.83,-3.42 9.87,-5.19 -0.39,0 -0.76,0 -1.14,0 25.83,-13.32 49.76,-26.42 73.31,-39.63 26.97,-15.04 54.71,-30.01 82.06,-45.06 8.35,-4.48 17.47,-9.14 26.2,-13.62 20.9,-10.55 40.65,-20.94 61.93,-31.37 8.35,-4.25 16.33,-8.55 25.07,-12.8 20.13,-9.61 39.5,-19.04 58.87,-28.54 26.6,-13.09 54.32,-26.18 81.68,-39.28 69.52,-32.85 140.17,-65.87 210.07,-98.72 30.38,-14.27 59.64,-28.54 89.64,-42.93 25.45,-12.33 51.67,-24.77 77.49,-37.15 32.29,-15.52 63.83,-30.96 96.11,-46.42 37.99,-18.04 75.98,-35.91 110.55,-53.78 11.77,-6.01 22.79,-11.97 34.19,-17.93 0,0 0,0 0,0 8.73,-4.36 17.09,-8.67 26.58,-13.15 -0.75,0 -1.51,0.06 -2.28,0 1.53,-0.88 3.43,-1.83 5.32,-2.83 -26.59,0.36 -52.79,0.65 -79.39,1 -1.52,0.59 -3.79,1.19 -4.94,1.59 -52.04,0 -105.22,0.24 -158.4,0.65 -81.68,0.65 -165.25,2.19 -248.44,3.66 -71.79,1.3 -143.59,2.36 -215.38,3.6 -57.74,0.94 -115.48,2 -172.47,2.95 -66.85,1.17 -133.33,2.23 -199.8,3.54 -58.51,1.11 -205.89,3.53 -374.93,6.07 -169.04,2.53 -359.36,5.36 -503.34,7.49 -14.05,0.12 -28.1,0.23 -41.78,0.35 -71.41,0.65 -141.69,1.24 -212.35,1.77 -28.87,0.23 -57.74,0.47 -87.37,0.71 -7.59,-0.06 -14.81,-0.06 -22.41,0 -73.69,-0.18 -148.15,0 -223.36,0.36 -27.35,0.17 -54.7,0.35 -82.43,0.58 -0.38,0.24 -1.14,0.53 -1.52,0.77 -0.76,0.06 -1.14,0.06 -1.52,0.06 -9.12,4.06 -17.1,8.02 -25.45,12.08 -3.04,1.48 -6.08,2.9 -9.12,4.43 -3.8,1.65 -7.6,3.36 -11.4,5.02 0.38,0 0.77,0 0.77,0 -26.22,12.91 -51.66,25.83 -76.74,38.68 -28.87,14.62 -58.5,29.25 -87.75,43.99 -9.12,4.43 -17.85,8.79 -27.35,13.22 -22.41,10.25 -44.06,20.4 -65.34,30.6 -8.74,4.19 -18.23,8.32 -26.97,12.44 -20.89,9.32 -41.41,18.52 -61.91,27.72 -28.5,12.74 -56.61,25.36 -85.48,38.1 -72.93,31.84 -146.25,63.74 -219.18,95.53 -31.91,13.81 -63.06,27.67 -94.59,41.52 -26.97,12.03 -54.32,24.12 -81.29,36.04 -33.43,14.97 -66.85,29.95 -101.04,44.93 -39.51,17.4 -78.64,34.8 -115.86,52.14 -12.54,5.77 -24.32,11.61 -36.09,17.45 0,0 0,0 0,0 -9.5,4.3 -18.62,8.49 -28.12,12.8 0.77,0 1.53,0.06 2.28,0.12 -1.9,0.94 -3.8,1.82 -5.7,2.77 23.94,1.24 47.87,2.53 71.43,3.77zm2542.84 -45.41c-117.76,1.12 -307.31,6.13 -630.96,18.46 -74.46,2.77 -148.54,5.48 -221.46,7.73 -92.7,2.88 -184.62,5.6 -275.8,7.9 -18.6,0.47 -36.84,0.89 -55.84,1.24 -49.76,1 -100.28,1.88 -150.8,2.77 -37.23,0.59 -74.84,1.06 -111.31,1.41 -21.27,0.24 -42.54,0.24 -63.81,0.54 -82.81,0.23 -165.25,0.17 -246.16,-0.19 -23.93,-0.23 -47.86,-0.52 -72.17,-0.82 -48.63,-0.65 -96.87,-1.59 -144.73,-2.59 -59.64,-1.24 -118.14,-2.95 -175.88,-5.01 -117.01,-3.96 -180.82,-4.84 -220.32,-4.2 -39.51,-0.82 -72.18,-1.35 -99.91,-1.71 23.17,-8.25 55.07,-21.52 102.94,-43.99 9.88,-4.83 22.79,-9.43 30.39,-14.39 3.42,-2.47 -6.45,-3.36 -20.13,-4.06 1.14,-0.71 2.66,-1.36 4.18,-2.07 14.81,-0.53 34.57,-3.95 49,-12.09 11.77,-5.13 100.64,-45.96 189.56,-86.69 89.22,-40.87 178.92,-81.74 190.31,-86.87 7.59,-3.65 16.33,-7.42 25.07,-11.15 41.41,-18.22 82.43,-36.38 124.22,-54.66 32.29,-14.39 66.09,-28.9 100.28,-43.46 154.99,-67.11 234.76,-105.86 277.31,-129.98 108.64,1.41 283.38,0.83 585,-5.01 68.76,-1.36 138.27,-2.89 207.41,-4.13 86.99,-1.6 173.22,-3.07 260.21,-4.72 18.23,-0.35 35.7,-0.59 53.18,-0.89 48.62,-0.7 96.49,-1.41 145.11,-2.23 36.09,-0.48 72.56,-1.07 108.64,-1.66 20.51,-0.35 41.41,-0.52 62.3,-0.82 81.67,-0.94 163.35,-1.95 245.01,-3.01 23.93,-0.18 48.25,-0.42 72.18,-0.59 50.14,-0.47 98.77,-0.88 148.53,-1.3 61.54,-0.59 122.32,-1 183.48,-1.41 124.6,-1.48 193.35,-3.78 235.13,-6.25 42.93,-1.3 78.64,-2.72 108.64,-4.07 -22.03,8.72 -53.55,22.47 -98.38,45.41 -9.5,4.78 -22.8,9.85 -28.49,14.56 -3.04,2.3 7.98,2.66 23.18,2.48 -1.52,0.76 -3.05,1.47 -4.19,2.12 -16.33,1.41 -36.08,5.42 -50.52,13.63 -10.25,5.3 -95.33,47.02 -179.68,88.69 -84.31,41.66 -169.04,83.39 -180.06,88.64 -7.6,3.78 -15.95,7.6 -24.3,11.44 -39.14,18.63 -78.64,37.33 -118.15,56.02 -31.15,14.74 -64.19,29.67 -96.11,44.47 -148.52,68.82 -222.97,108.15 -262.1,132.51z"/>
  <path class="fil1" d="M2961.94 1417.08c-81.57,-9.32 -172.49,14.35 -253.81,25.25 -18.23,2.46 -19.3,34.52 0,33.76 83.15,-3.11 177.67,4.63 258.54,-18.99 20.51,-5.98 14.12,-37.86 -4.73,-40.02z"/>
  <path class="fil1" d="M3045.9 1333.12c-81.58,-9.31 -172.5,14.36 -253.81,25.26 -18.24,2.46 -19.3,34.51 0,33.75 83.14,-3.11 177.67,4.63 258.53,-18.98 20.52,-5.98 14.12,-37.86 -4.72,-40.03z"/>
  <path class="fil1" d="M2922.82 2030.8c-81.57,-9.32 -172.49,14.36 -253.81,25.26 -18.24,2.46 -19.3,34.51 0,33.75 83.15,-3.11 177.67,4.63 258.53,-18.98 20.52,-5.98 14.12,-37.86 -4.72,-40.03z"/>
  <path class="fil1" d="M3006.77 1946.85c-81.57,-9.32 -172.49,14.35 -253.8,25.25 -18.24,2.46 -19.3,34.52 0,33.76 83.14,-3.11 177.67,4.63 258.53,-18.99 20.52,-5.98 14.12,-37.86 -4.73,-40.02z"/>
  <path class="fil1" d="M2927.59 2883.75c-67.66,-7.72 -143.07,11.91 -210.51,20.95 -15.13,2.04 -16.01,28.63 0,28 68.96,-2.58 147.36,3.84 214.43,-15.75 17.02,-4.96 11.71,-31.4 -3.92,-33.2z"/>
  <path class="fil1" d="M2970.65 1302.4c-40.78,-4.66 -86.24,7.18 -126.89,12.63 -9.12,1.23 -9.65,17.25 0,16.88 41.57,-1.56 88.82,2.31 129.25,-9.5 10.26,-2.99 7.06,-18.92 -2.36,-20.01z"/>
  <path class="fil1" d="M2931.53 1916.13c-40.79,-4.66 -86.24,7.17 -126.9,12.62 -9.11,1.23 -9.65,17.26 0,16.88 41.57,-1.55 88.83,2.31 129.26,-9.49 10.26,-2.99 7.06,-18.93 -2.36,-20.01z"/>
  <path class="fil1" d="M2931.53 2587.86c-40.79,4.65 -86.24,-7.18 -126.9,-12.63 -9.11,-1.23 -9.65,-17.26 0,-16.88 41.57,1.56 88.83,-2.31 129.26,9.5 10.26,2.99 7.06,18.92 -2.36,20.01z"/>
  <path class="fil1" d="M2934.81 3345.79c-33.82,3.86 -71.52,-5.95 -105.24,-10.48 -7.57,-1.01 -8.01,-14.31 0,-13.99 34.47,1.29 73.67,-1.92 107.2,7.87 8.51,2.48 5.86,15.7 -1.96,16.6z"/>
  <path class="fil1" d="M2953.34 3760.89c-33.82,-3.87 -71.52,5.95 -105.24,10.47 -7.57,1.02 -8.01,14.31 0,14 34.47,-1.29 73.67,1.92 107.2,-7.88 8.51,-2.48 5.86,-15.7 -1.96,-16.59z"/>
  <path class="fil1" d="M2935.94 1727.1c-40.78,4.66 -86.24,-7.18 -126.89,-12.63 -9.12,-1.23 -9.65,-17.25 0,-16.87 41.57,1.55 88.83,-2.32 129.25,9.49 10.26,2.99 7.06,18.92 -2.36,20.01z"/>
  <path class="fil1" d="M2935.94 2776.89c-40.78,-4.66 -86.24,7.17 -126.89,12.62 -9.12,1.23 -9.65,17.26 0,16.88 41.57,-1.56 88.83,2.31 129.25,-9.49 10.26,-2.99 7.06,-18.93 -2.36,-20.01z"/>
  <path class="fil1" d="M2938.48 3502.57c-33.83,-3.86 -71.53,5.96 -105.25,10.48 -7.56,1.02 -8.01,14.31 0,13.99 34.48,-1.28 73.67,1.92 107.21,-7.87 8.5,-2.48 5.85,-15.7 -1.96,-16.6z"/>
  <path class="fil1" d="M2957.01 3604.1c-33.83,3.86 -71.53,-5.95 -105.25,-10.47 -7.56,-1.02 -8.01,-14.31 0,-14 34.48,1.29 73.67,-1.92 107.21,7.87 8.5,2.48 5.85,15.7 -1.96,16.6z"/>
  <path class="fil1" d="M2896.82 2340.82c-40.78,4.66 -86.24,-7.18 -126.89,-12.63 -9.12,-1.22 -9.65,-17.25 0,-16.87 41.57,1.55 88.83,-2.32 129.25,9.49 10.26,2.99 7.06,18.93 -2.36,20.01z"/>
  <path class="fil1" d="M2906.03 3140.89c-33.83,3.87 -71.53,-5.95 -105.25,-10.47 -7.56,-1.02 -8,-14.31 0,-14 34.48,1.29 73.68,-1.92 107.21,7.88 8.51,2.47 5.85,15.69 -1.96,16.59z"/>
  <path class="fil1" d="M2953.77 1615.29c-119.84,9.32 -253.41,-14.35 -372.87,-25.25 -26.79,-2.46 -28.35,-34.52 0,-33.76 122.15,3.11 261.02,-4.63 379.81,18.99 30.15,5.98 20.75,37.85 -6.94,40.02z"/>
  <path class="fil1" d="M2914.65 2229.02c-119.84,9.31 -253.41,-14.36 -372.87,-25.26 -26.79,-2.46 -28.35,-34.51 0,-33.75 122.15,3.1 261.02,-4.63 379.81,18.98 30.14,5.98 20.74,37.86 -6.94,40.03z"/>
  <path class="fil1" d="M2920.82 3048.16c-99.4,7.73 -210.19,-11.91 -309.27,-20.95 -22.22,-2.04 -23.52,-28.63 0,-28 101.31,2.58 216.49,-3.84 315.02,15.75 25,4.96 17.21,31.4 -5.75,33.2z"/>
  <path class="fil1" d="M2948.52 1843.19c-79.52,-6.18 -168.15,9.53 -247.42,16.76 -17.77,1.63 -18.81,22.9 0,22.4 81.06,-2.06 173.2,3.07 252.03,-12.6 20,-3.97 13.77,-25.12 -4.61,-26.56z"/>
  <path class="fil1" d="M2948.52 2660.79c-79.52,6.19 -168.15,-9.52 -247.42,-16.76 -17.77,-1.63 -18.81,-22.9 0,-22.39 81.06,2.06 173.2,-3.08 252.03,12.59 20,3.97 13.77,25.12 -4.61,26.56z"/>
  <path class="fil1" d="M2948.91 3406.28c-65.95,5.13 -139.47,-7.9 -205.22,-13.9 -14.74,-1.35 -15.6,-18.99 0,-18.57 67.23,1.71 143.66,-2.55 209.04,10.45 16.59,3.29 11.42,20.83 -3.82,22.02z"/>
  <path class="fil1" d="M2967.44 3700.39c-65.95,-5.13 -139.47,7.9 -205.22,13.9 -14.74,1.35 -15.6,19 0,18.58 67.23,-1.71 143.66,2.55 209.04,-10.45 16.59,-3.29 11.42,-20.84 -3.82,-22.03z"/>
  <path class="fil1" d="M2909.4 2456.91c-79.52,-6.18 -168.15,9.53 -247.42,16.76 -17.78,1.64 -18.81,22.91 0,22.4 81.05,-2.06 173.2,3.07 252.03,-12.6 20,-3.96 13.76,-25.12 -4.61,-26.56z"/>
  <path class="fil1" d="M2916.46 3237.18c-65.95,-5.13 -139.47,7.9 -205.21,13.9 -14.75,1.36 -15.61,19 0,18.58 67.22,-1.71 143.65,2.55 209.03,-10.45 16.59,-3.29 11.42,-20.84 -3.82,-22.03z"/>
  <path class="fil1" d="M2934.99 3869.49c-65.95,5.13 -139.47,-7.9 -205.21,-13.9 -14.75,-1.35 -15.61,-18.99 0,-18.58 67.22,1.71 143.65,-2.54 209.03,10.45 16.59,3.29 11.42,20.84 -3.82,22.03z"/>
  <g id="_2817444740768">
   <path class="fil1" d="M4171.13 1725.44c-29.4,20.5 -60.42,34.88 -91.18,47.02 -30.9,12.18 -61.83,22.15 -90.91,33.91 -13.08,5.18 -13.62,-22.43 0.26,-29.26 29.9,-15.59 61.85,-34.35 93.52,-50.86 31.77,-16.57 63.12,-30.9 92.09,-37.18 14.65,-3.29 9.73,26.52 -3.78,36.37z"/>
   <path class="fil1" d="M4162.7 2722.3c-35.13,27.89 -73.99,41.28 -108.85,58.51 -7.85,3.82 -8.12,-12.58 0.15,-17.77 35.68,-21.6 76.37,-52.23 110.97,-62.89 8.8,-2.73 5.84,15.59 -2.27,22.15z"/>
   <path class="fil1" d="M4170.91 2028.64c-35.18,16.14 -74.59,51.68 -109.77,78.48 -7.89,5.74 -8.59,22.69 -0.17,17.5 35.9,-23.25 76.7,-43.21 111.72,-76.28 8.93,-8.48 6.33,-23.25 -1.78,-19.7z"/>
   <path class="fil1" d="M4183.01 1244.77c-29.34,11.21 -62.3,38.82 -91.6,58.78 -6.6,4.38 -7.08,18.59 -0.16,14.5 29.94,-17.23 64.04,-31.45 93.28,-57.15 7.46,-6.28 5.25,-18.59 -1.52,-16.13z"/>
   <path class="fil1" d="M4164.16 2914.51c-34.92,18.87 -74.05,57.69 -109.02,86.95 -7.78,6.56 -8.43,23.51 -0.16,17.77 35.67,-25.97 76.16,-49.49 111.01,-85.03 8.81,-9.02 6.28,-23.79 -1.83,-19.69z"/>
   <path class="fil1" d="M4177.02 1831.51c-35.34,25.16 -74.53,35.55 -109.61,50.04 -7.89,3.28 -8.16,-13.4 0.16,-17.77 35.94,-18.87 76.91,-46.49 111.78,-54.14 8.8,-2.18 5.89,16.13 -2.33,21.87z"/>
   <path class="fil1" d="M4188.15 1081.26c-29.51,19.15 -62.21,25.44 -91.5,35.55 -6.59,2.46 -6.81,-11.2 0.16,-14.49 30.05,-13.67 64.1,-34.17 93.23,-39.09 7.35,-1.1 4.87,13.94 -1.89,18.03z"/>
   <path class="fil1" d="M4205.45 968.62c-29.35,10.94 -62.27,37.19 -91.72,56.32 -6.65,4.65 -7.13,18.33 -0.16,14.77 29.99,-16.4 64.1,-30.35 93.39,-54.95 7.52,-6.29 5.36,-18.87 -1.51,-16.14z"/>
   <path class="fil1" d="M4137.94 2302.33c-35.07,16.68 -74.48,53.32 -109.56,80.67 -7.83,6 -8.48,22.96 -0.21,17.49 35.89,-23.78 76.59,-44.84 111.55,-78.74 8.93,-8.75 6.39,-23.51 -1.78,-19.42z"/>
   <path class="fil1" d="M4155.51 1469.79c-29.29,12.03 -62.1,39.65 -91.45,60.15 -6.54,4.92 -7.03,18.87 -0.11,14.77 29.89,-17.5 63.88,-32.54 93.08,-58.52 7.39,-6.56 5.23,-19.13 -1.52,-16.4z"/>
   <path class="fil1" d="M4178.05 3019.77c-51.3,30.35 -105.75,71.25 -160.04,114.83 -54.36,43.63 -108.58,90.23 -159.82,131.25 -23.02,18.59 -24.7,53.31 -0.33,35.81 52.32,-38 108.37,-75.25 163.83,-115.1 55.65,-39.98 110.8,-82.3 161.82,-129.87 25.94,-23.79 18.31,-51.14 -5.46,-36.92z"/>
   <path class="fil1" d="M4152 2408.42c-51.56,27.61 -106.28,65.61 -160.85,106.09 -54.54,40.44 -109.18,84.21 -160.63,122.21 -23.14,17.23 -24.76,52.22 -0.33,36.09 52.59,-35 108.75,-69.26 164.63,-106.08 55.72,-36.72 111.34,-76.29 162.63,-120.85 26.06,-22.7 18.33,-50.31 -5.45,-37.46z"/>
   <path class="fil1" d="M4167.13 1558.93c-43.02,19.96 -88.6,47.84 -134.15,77.91 -45.56,30.08 -91.12,62.9 -134.14,91.32 -19.3,12.85 -20.66,41.57 -0.28,29.81 43.89,-25.7 90.76,-50.66 137.45,-77.65 46.48,-26.87 92.97,-56.33 135.82,-90.23 21.73,-16.95 15.3,-40.47 -4.7,-31.16z"/>
   <path class="fil1" d="M4176.37 2787.92c-34.21,26.24 -70.21,47.4 -106.31,67.26 -35.94,19.77 -71.99,37.73 -105.99,56.32 -15.24,8.48 -15.94,-13.39 0.22,-23.78 34.8,-21.6 71.99,-46.75 108.96,-70.28 36.92,-23.49 73.66,-45.1 107.44,-59.6 17.14,-7.37 11.52,18.05 -4.32,30.08z"/>
   <path class="fil1" d="M4180.75 1952.1c-32.81,16.67 -67.72,39.03 -102.36,62.88 -34.86,23.99 -69.51,49.49 -102.32,71.91 -7.41,5.19 -11.31,12.3 -11.46,17.22 -0.16,4.91 3.46,7.38 11.24,2.46 33.51,-20.51 69.42,-40.81 104.86,-62.61 35.68,-21.94 70.96,-45.11 103.6,-71.36 8.27,-6.29 11.17,-13.4 10.12,-18.04 -0.99,-4.38 -6.11,-6.29 -13.68,-2.46z"/>
   <path class="fil1" d="M4195.99 1176.15c-28.64,12.02 -59.14,29.89 -89.29,48.66 -30.43,18.95 -60.7,39.92 -89.34,57.97 -12.8,7.92 -13.73,26.79 -0.16,19.41 29.24,-15.86 60.38,-31.65 91.51,-48.67 30.85,-16.87 61.82,-35 90.36,-56.32 14.48,-10.94 10.16,-26.8 -3.08,-21.05z"/>
   <path class="fil1" d="M4200.69 872.38c-28.75,16.68 -59.18,29.27 -89.44,40.74 -30.38,11.49 -60.65,21.06 -89.29,31.98 -12.81,4.93 -13.36,-13.39 0.26,-19.4 29.25,-13.13 60.66,-28.87 91.67,-43.2 31.13,-14.37 62,-27.34 90.42,-34.45 14.44,-3.83 9.68,16.68 -3.62,24.33z"/>
   <path class="fil1" d="M4150.21 2175.47c-34.37,24.34 -70.7,43.75 -106.86,61.52 -36.15,17.76 -72.36,33.63 -106.52,50.31 -15.3,7.38 -16,-14.22 0.21,-23.79 34.97,-19.69 72.43,-42.83 109.46,-64.25 37.17,-21.51 74.1,-41.29 107.98,-53.59 17.24,-6.29 11.62,18.87 -4.27,29.8z"/>
   <path class="fil1" d="M4165.72 1365.34c-28.64,18.05 -59.03,31.87 -89.18,44.57 -30.2,12.73 -60.36,23.79 -88.85,35.54 -12.75,5.48 -13.3,-12.57 0.22,-19.4 29.18,-14.5 60.31,-31.55 91.34,-47.03 30.87,-15.41 61.77,-29.81 90.04,-38.29 14.43,-4.09 9.73,16.41 -3.57,24.61z"/>
   <path class="fil2" d="M3740.96 949.75c86.63,-41.27 173.38,-82.57 260.03,-123.85 86.68,-41.29 173.44,-82.57 260.19,-123.59 -4.98,396.73 -9.93,793.46 -14.86,1189.63 -4.95,396.45 -9.9,792.9 -14.82,1189.08 -85.18,59.33 -170.31,118.75 -255.48,177.99 -85.02,59.14 -170.26,118.38 -255.33,177.44 3.4,-414.22 6.79,-828.71 10.16,-1242.93 3.37,-414.21 6.76,-829 10.11,-1243.77z"/>
  </g>
  <g id="_2817447082288">
   <path class="fil1" d="M2856.31 700.06c-44.13,16.26 -82.95,33.24 -119.76,50.4 -36.29,16.91 -70.92,34.08 -105.58,50.17 -16.08,7.22 11.34,7.38 29.62,-0.3 39.08,-16.5 83.52,-34.18 125.44,-51.69 41.9,-17.51 81.62,-34.94 110.61,-50.86 14.82,-8.11 -20.17,-5.2 -40.33,2.28z"/>
   <path class="fil1" d="M1812.17 711.08c-48.84,19.03 -84.78,40.06 -122.91,58.97 -8.51,4.25 7.88,4.31 18.28,-0.19 42.87,-19.4 98.33,-41.48 129.22,-60.23 7.56,-4.72 -12.93,-3.02 -24.59,1.45z"/>
   <path class="fil1" d="M2540.52 702.1c-41.61,19.31 -106.84,41.05 -159.16,60.42 -11.98,4.34 -29.63,4.78 -18.28,0.18 49.16,-19.7 99.27,-42.09 158.21,-61.46 14.81,-4.91 28.68,-3.58 19.23,0.86z"/>
   <path class="fil1" d="M3365.61 690.47c-37.19,16.31 -94.23,34.76 -140.25,51.11 -10.08,3.67 -24.9,4.03 -14.81,0.15 43.49,-16.68 87.61,-35.65 139.62,-52.03 12.92,-4.13 23.95,-3.01 15.44,0.77z"/>
   <path class="fil1" d="M1612.05 711.53c-37.82,18.82 -98.65,40.04 -147.5,58.94 -11.03,4.3 -28.37,4.69 -18.28,0.22 45.38,-19.25 91.08,-41.14 146.55,-60.05 14.5,-4.81 28.05,-3.51 19.23,0.89z"/>
   <path class="fil1" d="M2750.1 697.5c-52.63,19.53 -92.66,41.05 -134.26,60.42 -9.45,4.32 6.94,4.41 18.28,-0.21 46.64,-19.83 106.2,-42.47 140.56,-61.62 8.83,-4.84 -12.29,-3.12 -24.58,1.41z"/>
   <path class="fil1" d="M3540.21 686.59c-46.32,16.53 -82.58,34.72 -119.45,51.1 -8.51,3.7 5.36,3.7 15.13,-0.19 41.6,-16.77 93.28,-35.86 124.81,-52.11 7.56,-4.08 -10.09,-2.62 -20.49,1.2z"/>
   <path class="fil1" d="M3673.21 676.25c-38.14,16.41 -95.82,34.89 -142.77,51.42 -11.03,3.73 -25.53,4.07 -15.13,0.18 44.44,-16.83 89.83,-35.9 142.46,-52.4 13.24,-4.15 24.26,-3.08 15.44,0.8z"/>
   <path class="fil1" d="M2233.54 721.78c-40.65,19.21 -103.99,40.77 -155.68,60.02 -11.35,4.28 -29,4.71 -18.29,0.21 48.54,-19.68 97.08,-41.88 155.06,-61.1 14.82,-4.86 28.69,-3.58 18.91,0.87z"/>
   <path class="fil1" d="M3108.76 707.06c-36.56,16.26 -92.35,34.55 -137.42,50.86 -10.71,3.64 -25.21,4.01 -15.44,0.16 42.86,-16.63 86.35,-35.44 137.09,-51.72 13.24,-4.17 24.27,-3.03 15.77,0.7z"/>
   <path class="fil1" d="M1509.94 704.72c-57.68,27.67 -128.26,57.12 -200.76,86.39 -72.77,29.38 -147.81,58.66 -216.2,86.32 -30.57,12.42 -65.56,13.42 -35.3,0.31 65.23,-28.22 132.05,-58.37 200.76,-88.3 68.69,-29.93 140.24,-59.77 215.25,-87.37 37.82,-14.04 62.72,-10.12 36.25,2.65z"/>
   <path class="fil1" d="M2132.38 714.81c-61.15,28.13 -135.19,58.06 -211.79,87.83 -76.88,29.86 -156.32,59.68 -227.86,87.77 -32.15,12.61 -67.13,13.6 -35.3,0.28 68.7,-28.68 139.62,-59.36 212.42,-89.75 73.11,-30.51 149.07,-60.81 227.23,-88.88 40.02,-14.21 63.98,-10.23 35.3,2.75z"/>
   <path class="fil1" d="M3026.18 701.14c-55.15,23.88 -121.32,49.25 -189.1,74.49 -68.04,25.33 -138.35,50.58 -202.02,74.41 -28.67,10.7 -58.3,11.6 -29.63,0.25 61.46,-24.3 125.09,-50.42 189.74,-76.08 65.5,-25.99 132.68,-51.6 202.33,-75.38 34.67,-12.06 54.21,-8.72 28.68,2.31z"/>
   <path class="fil1" d="M1751.67 704.08c-46.02,18.56 -88.28,38.05 -129.22,57.61 -40.68,19.42 -79.43,38.94 -117.88,57.39 -17.33,8.27 4.11,8.54 23.96,-0.22 41.91,-18.87 89.5,-39.07 134.57,-59.09 45.07,-20.02 87.93,-39.88 122.29,-58.19 17.01,-9.28 -12.61,-6.05 -33.72,2.5z"/>
   <path class="fil1" d="M2627.19 696.27c-40.97,18.01 -89.5,37.25 -139.3,56.34 -50.1,19.2 -101.81,38.31 -148.45,56.35 -10.72,4.07 -20.81,6.26 -25.84,6.36 -5.05,0.11 -4.73,-1.88 5.67,-6.17 45.7,-18.41 92.62,-38.22 140.56,-57.68 48.5,-19.67 97.7,-39.03 148.44,-57.05 12.61,-4.56 22.39,-6.19 26.17,-5.67 4.09,0.55 2.52,3.33 -7.25,7.52z"/>
   <path class="fil1" d="M3448.5 682.8c-38.13,16.03 -83.23,32.9 -129.53,49.89 -46.03,16.9 -94.24,33.92 -138.05,49.91 -19.53,7.15 -39.39,7.73 -19.53,0.18 41.91,-16.31 85.73,-33.74 130.16,-51.04 44.43,-17.29 90.45,-34.51 138.03,-50.49 23.64,-8.11 36.56,-5.83 18.92,1.55z"/>
   <path class="fil1" d="M3769.33 678.26c-44.43,16.16 -86.37,33.19 -126.69,50.18 -40.35,16.99 -79.11,33.98 -117.56,50.02 -17.02,7.19 0.63,7.43 19.86,-0.18 41.91,-16.47 87.57,-34.16 131.74,-51.51 44.7,-17.55 86.98,-34.78 121.02,-50.63 17.96,-8.15 -7.89,-5.37 -28.37,2.12z"/>
   <path class="fil1" d="M2373.48 714.31c-48.85,18.88 -93.63,38.69 -137.09,58.57 -43.2,19.77 -84.79,39.66 -125.76,58.38 -18.59,8.39 2.84,8.7 23.64,-0.21 44.76,-19.19 94.89,-39.69 142.77,-60.08 47.6,-20.28 93.6,-40.59 130.16,-59.19 18.59,-9.43 -11.66,-6.17 -33.72,2.53z"/>
   <path class="fil1" d="M3225.68 700.78c-42.86,15.97 -82.89,32.85 -121.65,49.61 -38.76,16.78 -75.96,33.56 -112.83,49.41 -16.39,7.1 1.26,7.31 19.85,-0.18 39.71,-16.26 84.16,-33.65 126.7,-50.88 42.55,-17.24 83.52,-34.39 116.29,-50.1 16.71,-7.98 -8.83,-5.23 -28.36,2.14z"/>
   <path class="fil2" d="M3244.27 935.99c126.69,-48.75 253.71,-97.56 380.4,-146.3 126.69,-48.76 253.39,-97.58 380.09,-146.38 -422.64,5.59 -845.28,11.14 -1267.27,16.69 -422,5.55 -844.32,11.11 -1266.32,16.63 -103.06,45.86 -206.42,91.82 -309.17,137.58 -103.03,45.89 -206.12,91.69 -308.86,137.51 398.05,-2.62 796.72,-5.25 1195.09,-7.87 398.36,-2.61 797.36,-5.23 1196.04,-7.86z"/>
  </g>
  <rect class="fil2" x="4.52" y="-1.8" width="4343.4" height="4343.58"/>
 </g>
</svg>
