<?xml version="1.0" encoding="UTF-8"?>
<!DOCTYPE svg PUBLIC "-//W3C//DTD SVG 1.1//EN" "http://www.w3.org/Graphics/SVG/1.1/DTD/svg11.dtd">
<!-- Creator: CorelDRAW 2018 (64-Bit) -->
<svg xmlns="http://www.w3.org/2000/svg" xml:space="preserve" width="43.4338mm" height="43.4338mm" version="1.1" style="shape-rendering:geometricPrecision; text-rendering:geometricPrecision; image-rendering:optimizeQuality; fill-rule:evenodd; clip-rule:evenodd"
viewBox="0 0 4343.38 4343.38"
 xmlns:xlink="http://www.w3.org/1999/xlink">
 <defs>
  <style type="text/css">
   <![CDATA[
    .fil1 {fill:none}
    .fil0 {fill:#2B2A29;fill-rule:nonzero}
   ]]>
  </style>
 </defs>
 <g id="Слой_x0020_1">
  <metadata id="CorelCorpID_0Corel-Layer"/>
  <path class="fil0" d="M1574.71 2504.87c482.43,213.47 1278.65,117.1 1570.54,-150.78 72.56,-66.68 149.42,-164.16 151.22,-240.31 1.25,-51.29 -15.56,-102.06 -42.9,-151.49l35.89 -179.09c18.04,18.94 33.57,38.17 46.35,57.56 110.5,123.43 153.44,261.1 108.61,390.53 -69.95,202.32 -377.9,375.16 -761.33,457.84 -393.36,84.84 -820.78,29.88 -1148.53,-91.86 -589.1,-218.66 -824.31,-589.94 -464.52,-879.31l39.43 179.2c-82.02,214.9 122.63,455.96 465.24,607.71zm1645.9 -595.04c-33.36,-48.67 -68.98,-94.28 -113.98,-137l44.08 -100.19c38.34,24.25 72.64,49.59 102.27,75.65l-32.37 161.54zm-183.91 -194.97c-34,-24.61 -72.79,-48.15 -118.04,-70.67l32.18 -73.14c43.85,18 85.25,37.3 123.78,57.65l-37.92 86.16zm-197.67 -106.59c-35.91,-14.97 -75.48,-30.27 -116.85,-44.44l16 -64.26c45.14,12.17 88.89,25.71 130.89,40.44l-30.04 68.26zm-200.37 -70.6c-32.09,-9.04 -64.52,-16.94 -96.46,-23.09 -17.17,-3.29 -35.1,-6.39 -53.6,-9.31l5.68 -55.38c54.16,7.61 107.33,17.32 159.06,28.83l-14.68 58.95zm-236.69 -44c-60.48,-6.79 -123.94,-11.32 -185.53,-12.95l0 -56.49c62.98,2.72 126.74,7.69 191.14,14.82l-5.61 54.62zm-272.88 -13.19c-14.09,0.32 -27.95,0.83 -41.49,1.53 -43.48,2.26 -86.37,5.69 -128.54,10.22l-12.33 -65.33c59.89,-3.95 120.73,-5.59 182.36,-4.98l0 58.56zm-256.84 22.8c-70.37,10.37 -138.34,23.92 -203.3,40.43l-15.16 -77c66.96,-14.18 135.53,-24.91 205.47,-32.31l12.99 68.88zm-761.26 183.93c9.61,-6.76 19.45,-13.49 29.76,-20.15l48.48 110.19c-17.96,18.25 -33.28,36.9 -46.14,55.88l-32.1 -145.92zm473.59 -119.87c-43.83,13.46 -86,28.34 -126.29,44.55l-35.29 -80.18c47.56,-17.01 96.17,-31.94 145.71,-44.89l15.87 80.52zm-206.16 79.94c-45.75,22.42 -85.56,46.12 -119.77,70.84l-42.06 -95.61c28.41,-15.25 58.79,-30.17 91.29,-44.67 11.14,-4.96 22.34,-9.79 33.6,-14.51l36.94 83.95z"/>
  <path class="fil0" d="M3240.56 3276.57c-9.61,-6.76 -19.44,-13.49 -29.75,-20.14l-48.49 110.18c17.97,18.25 33.29,36.9 46.15,55.88l32.09 -145.92z"/>
  <path class="fil0" d="M2776.85 4094.23c-482.43,213.47 -1278.65,117.1 -1570.55,-150.78 -72.56,-66.68 -141.14,-219.22 -142.95,-295.37 -1.24,-51.3 -40.18,-60.29 -12.83,-109.72l11.58 -165.8c-18.04,18.94 -33.57,38.17 -46.35,57.56 -110.51,123.44 -153.45,261.1 -108.62,390.53 69.96,202.32 377.91,375.16 761.33,457.84 393.36,84.84 820.78,29.89 1148.54,-91.86 589.1,-218.66 824.31,-589.93 464.52,-879.31l-39.43 179.2c82.01,214.9 -122.64,455.96 -465.24,607.71z"/>
  <path class="fil0" d="M2785.36 3813.09c-336.97,149.1 -826.08,143.65 -1191.39,40.96 -470.72,-132.31 -83.91,52.42 100.09,92.03 393.36,84.84 803.69,81.15 1131.45,-40.59 589.1,-218.67 824.31,-589.94 464.51,-879.31l-3.91 179.19c82.02,214.9 -158.15,455.97 -500.75,607.72z"/>
  <path class="fil0" d="M2776.85 3553.38c-336.97,149.11 -826.08,143.66 -1191.39,40.96 -470.71,-132.31 -83.9,52.43 100.09,92.03 393.36,84.84 803.69,81.16 1131.45,-40.59 589.1,-218.66 824.31,-589.93 464.52,-879.3l-3.91 179.19c82.01,214.9 -158.16,455.97 -500.76,607.71z"/>
  <path class="fil0" d="M2768.34 3293.68c-336.97,149.11 -826.08,143.65 -1191.39,40.96 -470.71,-132.31 -83.9,52.42 100.09,92.03 393.36,84.84 803.69,81.16 1131.45,-40.59 589.1,-218.66 801.53,-595.64 489.21,-879.31l-28.6 179.2c82.01,214.9 -158.16,455.96 -500.76,607.71z"/>
  <path class="fil0" d="M2776.85 2980.81c-336.97,149.1 -826.08,143.65 -1191.39,40.96 -470.71,-132.31 -83.9,52.42 100.09,92.03 393.36,84.84 803.69,81.15 1131.45,-40.59 589.1,-218.67 824.31,-589.94 464.52,-879.31l-3.91 179.19c82.01,214.91 -158.16,455.97 -500.76,607.72z"/>
  <path class="fil0" d="M1574.41 1116.79c482.43,213.48 1278.65,117.1 1570.55,-150.78 72.56,-66.68 149.41,-164.16 151.23,-240.3 1.55,-64.56 -25.47,-128.29 -66.1,-189.53 -79.48,-118.71 -168.06,-219.67 -365.37,-304.94 -90.13,-39.07 -209.43,-82.91 -322.82,-104.73 -133.07,-25.56 -311.32,-40.02 -454.59,-32.57 -241.88,12.56 -465.28,60.97 -648.04,137.57 -576.53,241.61 -371.19,661.01 135.14,885.28zm-266.82 -927.02c343.25,-153.1 748.83,-188.16 1180.88,-128.72 391.03,53.88 731.45,216.24 847.05,391.63 110.5,123.44 153.44,261.1 108.61,390.53 -69.96,202.33 -377.91,375.16 -761.33,457.84 -393.36,84.84 -820.78,29.89 -1148.53,-91.85 -689.84,-256.06 -894.6,-721.43 -226.68,-1019.43z"/>
  <path class="fil0" d="M1018.38 3744.45c17.54,-62.7 60.93,-29.62 56.84,-399.54 -0.8,-29.04 3.51,-58.07 -2.36,-87.05 -2.89,-14.31 -21.18,-16.96 -44.01,-17.62l-0.02 -12.81c20.48,-6.76 39.25,-29.74 34.66,-79.07 0.65,-62.31 1.29,-994.61 1.87,-1056.91 0.27,-22.61 0.41,-45.25 0.93,-67.86 2.67,-111.09 5.3,-222.21 7.97,-333.32 2.07,-88.24 5.87,-176.41 8.9,-264.6 20.51,-596.53 -5.58,-823.84 -33.61,-946.76l-87.18 0 -1.43 23.16c-0.35,-6.6 -0.66,-14.17 -0.88,-23.16l-60.64 135.94c1.56,62.5 3.55,132.46 9.76,235.65 5.46,90.44 8.98,180.99 13.4,271.49 1.32,27.21 1.46,54.43 1.85,81.68 0.86,62.62 1.76,125.22 2.64,187.85 0.34,25.65 0.85,51.29 0.59,76.93 -0.59,56.8 -1.22,113.6 -1.84,170.4 -3,281.09 -40.49,538.92 -19.66,823.92 -2.45,85.45 -3.43,170.99 -5.07,256.47 -1.39,74.18 -2.78,148.36 -3.92,222.53 -1.46,92.6 -2.58,185.23 -4.42,277.84 -2.07,107.29 -4.27,214.55 -2.49,321.87 1.14,67.71 3.8,135.36 7.23,202.97l120.89 0z"/>
  <path class="fil0" d="M3332.89 3665.29c-17.55,-57.97 -60.94,-27.38 -56.85,-369.41 0.81,-26.84 -3.5,-53.69 2.37,-80.49 2.89,-13.22 21.17,-15.68 44,-16.29l0.02 -11.84c-20.48,-6.25 -39.25,-27.5 -34.66,-73.11 -0.65,-57.6 -1.28,-919.61 -1.87,-977.21 -0.26,-20.9 -0.4,-41.84 -0.93,-62.74 -2.67,-102.71 -5.3,-205.45 -7.97,-308.19 -2.07,-81.58 -5.87,-163.1 -8.9,-244.64 -7.84,-545.94 40.86,-746.05 33.62,-875.37l87.18 0 1.42 21.41c0.35,-6.1 0.66,-13.1 0.88,-21.41l60.64 125.68c-1.56,57.79 -3.55,122.48 -9.76,217.89 -5.45,83.61 -8.97,167.34 -13.39,251.01 -1.33,25.16 -1.47,50.33 -1.86,75.53 -0.86,57.9 -1.76,115.77 -2.64,173.68 -0.34,23.72 -0.85,47.43 -0.58,71.13 0.58,52.52 1.22,105.03 1.83,157.55 39.58,342.62 45.57,663.26 24.73,998.92 1.39,68.59 2.78,137.17 3.93,205.75 1.45,85.62 2.58,171.26 4.42,256.89 2.06,99.2 4.26,198.38 2.48,297.6 -1.14,62.6 -3.8,125.16 -7.23,187.66l-120.88 0z"/>
  <rect class="fil1" x="-0.87" y="-0.23" width="4343.4" height="4343.58"/>
 </g>
</svg>
